/* XPM */
static char *Dirt_19_128x128_16[] = {
/* columns rows colors chars-per-pixel */
"16 16 194 2 ",
"   c #6A6B42",
".  c #6D6E44",
"X  c #717445",
"o  c #727445",
"O  c #727446",
"+  c #737646",
"@  c #747444",
"#  c #757445",
"$  c #747646",
"%  c #757746",
"&  c #767746",
"*  c #777746",
"=  c #767747",
"-  c #787644",
";  c #787645",
":  c #787746",
">  c #797746",
",  c #777947",
"<  c #797846",
"1  c #787947",
"2  c #797947",
"3  c #7B7946",
"4  c #787A47",
"5  c #7B7A47",
"6  c #7B7B47",
"7  c #7C7945",
"8  c #7D7A45",
"9  c #7F7A45",
"0  c #7C7946",
"q  c #7D7B46",
"w  c #7C7B47",
"e  c #7E7B47",
"r  c #7C7C47",
"t  c #7E7C46",
"y  c #7F7C46",
"u  c #7F7D47",
"i  c #7F7F47",
"p  c #747748",
"a  c #777948",
"s  c #777949",
"d  c #777A48",
"f  c #787948",
"g  c #7B7948",
"h  c #787A48",
"j  c #797A48",
"k  c #797B48",
"l  c #7A7A48",
"z  c #7A7B48",
"x  c #7A7B49",
"c  c #7B7B4A",
"v  c #7C7B48",
"b  c #7D7B48",
"n  c #797C49",
"m  c #7A7C48",
"M  c #7A7C49",
"N  c #7B7D49",
"B  c #7C7C48",
"V  c #7D7C48",
"C  c #7C7D48",
"Z  c #7D7D48",
"A  c #7C7D49",
"S  c #7D7D49",
"D  c #7E7C48",
"F  c #7E7D48",
"G  c #7E7D49",
"H  c #7F7D49",
"J  c #7D7E48",
"K  c #7C7E49",
"L  c #7D7E49",
"P  c #7E7E48",
"I  c #7F7E48",
"U  c #7E7E49",
"Y  c #7F7F49",
"T  c #7C7D4A",
"R  c #7D7F4A",
"E  c #7E7E4A",
"W  c #7A7F4C",
"Q  c #807C47",
"!  c #807D47",
"~  c #817D47",
"^  c #827C46",
"/  c #837C46",
"(  c #827D46",
")  c #817E47",
"_  c #837E47",
"`  c #867D47",
"'  c #807C48",
"]  c #807D48",
"[  c #807E48",
"{  c #817E48",
"}  c #807F49",
"|  c #817F49",
" . c #827E48",
".. c #827F48",
"X. c #837F48",
"o. c #827F49",
"O. c #837F49",
"+. c #847D48",
"@. c #847F48",
"#. c #857F48",
"$. c #847E49",
"%. c #867E48",
"&. c #867F48",
"*. c #7C804B",
"=. c #7E804A",
"-. c #7F804A",
";. c #7F814A",
":. c #7C804C",
">. c #7E814C",
",. c #7E834D",
"<. c #818048",
"1. c #808049",
"2. c #818049",
"3. c #818149",
"4. c #828048",
"5. c #838048",
"6. c #828049",
"7. c #828149",
"8. c #838149",
"9. c #81804A",
"0. c #81814A",
"q. c #80804B",
"w. c #83804A",
"e. c #83814A",
"r. c #81824A",
"t. c #80824B",
"y. c #80834B",
"u. c #81834B",
"i. c #82824A",
"p. c #83824A",
"a. c #82834B",
"s. c #83834B",
"d. c #848048",
"f. c #858048",
"g. c #858148",
"h. c #858049",
"j. c #848149",
"k. c #868049",
"l. c #878049",
"z. c #858249",
"x. c #858349",
"c. c #878249",
"v. c #85814A",
"b. c #85814B",
"n. c #84824A",
"m. c #85824A",
"M. c #84834A",
"N. c #85834A",
"B. c #84834B",
"V. c #86824A",
"C. c #87824A",
"Z. c #86834A",
"A. c #83844B",
"S. c #83854B",
"D. c #85844B",
"F. c #87844A",
"G. c #86844B",
"H. c #87854B",
"J. c #80824C",
"K. c #80834C",
"L. c #82834C",
"P. c #81844C",
"I. c #81844D",
"U. c #82844C",
"Y. c #83844C",
"T. c #82844D",
"R. c #83854D",
"E. c #81854E",
"W. c #82864E",
"Q. c #83864E",
"!. c #83874F",
"~. c #84844C",
"^. c #84854C",
"/. c #85854D",
"(. c #86854C",
"). c #84874D",
"_. c #87864C",
"`. c #86864D",
"'. c #86874E",
"]. c #888349",
"[. c #89824A",
"{. c #89834A",
"}. c #89844A",
"|. c #8A854B",
" X c #89864C",
".X c #8B864D",
"XX c #89864E",
"oX c #84884F",
"OX c #818650",
"+X c #828750",
"@X c #828850",
"#X c #838A51",
"$X c #848952",
"%X c #898B50",
/* pixels */
" .D D Y.a.N ,.$X) ) )  .) L.a.` ",
"D D c  .u N @XY.` &.B.&.&.&.g.B.",
"N 7 c e a.) Y.-.&.B.].].B.}.B.) ",
"7 * @ c m N *.D a.` ]. .`  .&.e ",
"N ) 7 a.7 c , N 7 u 5.u B.B.F.u ",
"F.B.F.B.7 , c -.a.u a.e B.B.=.) ",
"_.%XB.Y.Y.a.O , Y.a. .D d , y.}.",
"B.B.a.Y.,.+X, N y.a.N , 7 ,.@X_.",
"a.Y.-.=.D m a.a.D -.* * 7  .-.y.",
"_.@X-.D 7 - e a.u a.>.d *  .D a.",
"a._.B.u O m     D D 7 d 7 m D -.",
"Y.Y.B.y.m *.p X u a.N c 7 , , Y.",
"a.) Q a.O * c N a.a.c d D u N ) ",
"_. .` a.D * N -.u e ) D N -.` B.",
"_.Y.e ) a. .Y.a.) ) b.].D -.}..X",
" .D  .&.Y.@XY._.a.` .X .-. .a.&."
};
