/* XPM */
static char *characher_down[] = {
/* columns rows colors chars-per-pixel */
"32 32 131 2 ",
"   c #1E1513",
".  c #241917",
"X  c #241C1A",
"o  c #2A1D1A",
"O  c #2C251B",
"+  c #2B291C",
"@  c #342B1F",
"#  c #2C2623",
"$  c #2E2B22",
"%  c #2B2C2C",
"&  c #372722",
"*  c #392622",
"=  c #332C20",
"-  c #3C2924",
";  c #3E2C28",
":  c #3A3222",
">  c #3D3B24",
",  c #3A3729",
"<  c #3B3C2D",
"1  c #333334",
"2  c #383535",
"3  c #37393A",
"4  c #3C3C3C",
"5  c #402D27",
"6  c #412E29",
"7  c #45322C",
"8  c #4B352F",
"9  c #4E382F",
"0  c #4A3732",
"q  c #4E3A32",
"w  c #433D3B",
"e  c #543C34",
"r  c #583E36",
"t  c #503F38",
"y  c #583F38",
"u  c #494527",
"i  c #40402D",
"p  c #48472C",
"a  c #4D4C2D",
"s  c #524E2D",
"d  c #4E512F",
"f  c #54512F",
"g  c #59532F",
"h  c #454631",
"j  c #47403D",
"k  c #49413E",
"l  c #54423B",
"z  c #5C433A",
"x  c #545431",
"c  c #595531",
"v  c #555A35",
"b  c #5D5C35",
"n  c #62463D",
"m  c #64483D",
"M  c #625E35",
"N  c #756D3F",
"B  c #494443",
"V  c #4A4B4C",
"C  c #534440",
"Z  c #5E4A44",
"A  c #524D4C",
"S  c #5B4D4A",
"D  c #59514F",
"F  c #4E4F50",
"G  c #545455",
"H  c #595B5C",
"J  c #664A41",
"K  c #6B4D43",
"L  c #6D5246",
"P  c #6E5148",
"I  c #725246",
"U  c #75564A",
"Y  c #78574B",
"T  c #745849",
"R  c #7B5B4E",
"E  c #615755",
"W  c #675954",
"Q  c #6F5D57",
"!  c #665D5C",
"~  c #6B5F5C",
"^  c #725B53",
"/  c #7E5C51",
"(  c #736F41",
")  c #757545",
"_  c #7B7644",
"`  c #7C7B46",
"'  c #757748",
"]  c #757B49",
"[  c #7C7D49",
"{  c #72635F",
"}  c #5C5F61",
"|  c #596266",
" . c #646465",
".. c #6B6462",
"X. c #65696B",
"o. c #6A6C6E",
"O. c #766661",
"+. c #776E6C",
"@. c #7C6F6B",
"#. c #79706E",
"$. c #6E6F71",
"%. c #6F7073",
"&. c #737375",
"*. c #73777A",
"=. c #76787A",
"-. c #7A7C7E",
";. c #815F52",
":. c #827C46",
">. c #827F49",
",. c #846354",
"<. c #8C6556",
"1. c #8F6759",
"2. c #8C695D",
"3. c #946B5B",
"4. c #986E5F",
"5. c #9B7668",
"6. c #7E824B",
"7. c #83834B",
"8. c #89844B",
"9. c #86894E",
"0. c #8A894E",
"q. c #878751",
"w. c #858B52",
"e. c #898C52",
"r. c #899257",
"t. c #7C7E80",
"y. c #7F8183",
"u. c #818283",
"i. c #868789",
"p. c #909194",
"a. c #97999C",
/* pixels */
"8.` >.[ _ :.p . . . X O ` 7.7.7.` ` >.` O X . . . 9 7.6.7.7.:.:.",
"7.:.>.' q.b o q e 6 0 6 $ < < < < , , $ 6 q 7 q 9 . b 7.7.9.:.:.",
"[ ` ` ] [ p - z 0 F V t B X.&.H H &.X.w e V F 0 m 7 f 7.` 8.:.8.",
"7.` ` ` [ a 6 n C t.=.y w $.t.H H y.$.k t =.t.C z : g ` 7.8.8.9.",
"[ [ _ ` q.s 7 m S a.p.Z A X.=.o.o.=.X.A J p.a.S m 7 g 8.8.7.` N ",
">.` ` N [ p 0 J Z i.i.t # 1 2 3 3 2 1 # t i.i.S m 8 g 0.:.7.:.:.",
"[ ` ( ) ) a q U Z X.G . * * - - - & 5 5 . G  .Z Y 9 s >.7.:.7.:.",
">.[ ' ` ) p 5 z e 7 X e K R K z K Y I J e . 7 t n 5 s 7.[ 8.` ` ",
"' ` ` ` :.u 5 z r r & L J J J K P K J z P * y y z 5 f ` 9.7.6.` ",
"` 7.>.>.[ f z ,.R ;.6 I K z K ;.I z n I P 6 ;./ ;.z g ` 9.7.` _ ",
"7.7.>.[ 7.g n ;.R ;.7 U y P z K n ;.P y U 7 ;./ ;.z g 8.7.7.7.8.",
"8.8.0.7.7.g n ,.;.2.9 Y y / J e z 5.2.e U 0 2.;.,.n g 7.6.N 6.7.",
"7.0.8.e.9.g m <.{ -.w I y Y m y z 2.;.y T w -.{ 2.m p N N 7.0.7.",
"7.0.9.9.9.c J 1.O.t.t n J K n U n P n K m k r.o.1.z d 6.6.r.8.8.",
"7.7.7.7.7.x K 4.Q ..k q I J K I K K n K q k ..{ 4.m x 6.w.e.e.:.",
"8.8.:.:.7.x I 4...X.V 9 K e y e e y y P 9 k X...4.T c w.6.7.9.7.",
"` :.w.6.` x K 3.$.t.~ o e 7 e I P e 8 e o ! t.+.3.K g >.6.>.[ 6.",
"7.9.r.6.q.x K 1.+.t.2.m # - 6 e e 6 * o J 2.t.$.1.J s 7.:.[ 0.7.",
"9.w.6.6.[ f m <.! | ~ <.! 3 X 2 2 X 3 ! ;.~ } ! ;.J z 7.[ ] 7.7.",
":.0.6.w.9.a m ,.^ E ^ Y E } % u.t.% } E ;.^ ! P <.n g 7.` ` ` 7.",
"8.7.w.9.) f z ;./ ;.;.Y D t.V &.o.V t.S U / ;.;.R z a 6.[ 7.6.6.",
":.9.0.` 0.c e Y U Y Y I A -.V &.o.V t.S I U / U R r d 6.N 6.7.7.",
"] 9.q.7.7.x e / Y Y Y Y k V % -.*.% V k U Y / U R r d _ ` ] 6.6.",
"8.7.7.[ ` x - e e e e q A o.4 &.&.4 %.A 0 e e e r - a ] ) N 6.e.",
"7.7.6.:.` f - r e e r 8 ~ a.G %.%.G a.~ 8 r z 9 r - a ` ` ` 7.:.",
"9.:.:.:.` g 8 K m J J n D $.4 &.&.4 o.G m m m m K 8 d [ [ 7.:.:.",
":.8.8._ N g ; J ;.,.{ J # h O t.-.+ 7 + m ( ,.{ m 7 s 7.7.:.:.8.",
"0.8.7.` 8.g ; z M ,.I e = 9.v t.-.f :.- r U ,.L z : s >.:.:.8.7.",
"7.7.9.8.[ a - z z K m z = [ x t.-.s :.@ z n K z z - u 7.8.8.8.e.",
"8.8.9.7.` M . 8 8 7 0 ; < 9.d t.-.a :.> ; 9 7 8 7 X M w.:.8.0.0.",
":.` ` ] :.7.c O + + + > 6.9.d %.+.a :.>.5 + O O O x >.7.q.8.>.:.",
":.7.7.` :.8.7.:.7.9.w.w.6.9.b F V g :.8.8.7.8.` 9.>.` >.>.:.:.>."
};
