/* XPM */
static char *characher_up[] = {
/* columns rows colors chars-per-pixel */
"32 32 135 2 ",
"   c #1E1513",
".  c #241917",
"X  c #241C1A",
"o  c #281C1A",
"O  c #2C241B",
"+  c #2C291C",
"@  c #2D2623",
"#  c #2F2C23",
"$  c #2B2C2C",
"%  c #372722",
"&  c #392622",
"*  c #342D20",
"=  c #3C2924",
"-  c #3E2C28",
";  c #373521",
":  c #3C3422",
">  c #3C3923",
",  c #393729",
"<  c #3B3C2D",
"1  c #333334",
"2  c #383535",
"3  c #37393A",
"4  c #3C3C3C",
"5  c #402D27",
"6  c #412E29",
"7  c #45322C",
"8  c #4B352F",
"9  c #4E382F",
"0  c #4A3731",
"q  c #4E3A32",
"w  c #433D3B",
"e  c #543C34",
"r  c #583E36",
"t  c #503F38",
"y  c #583F38",
"u  c #47472B",
"i  c #4A4629",
"p  c #4D4C2D",
"a  c #534E2D",
"s  c #4F502F",
"d  c #55512E",
"f  c #5A532F",
"g  c #444632",
"h  c #47403D",
"j  c #49413E",
"k  c #54423B",
"l  c #5C433A",
"z  c #4F5231",
"x  c #545431",
"c  c #595531",
"v  c #555934",
"b  c #5E5B34",
"n  c #5C5E3A",
"m  c #62463D",
"M  c #64483D",
"N  c #615E37",
"B  c #69663B",
"V  c #756D3F",
"C  c #494443",
"Z  c #4A4B4C",
"A  c #534440",
"S  c #5E4A44",
"D  c #524D4C",
"F  c #5B4D4A",
"G  c #59514F",
"H  c #4E4F50",
"J  c #545455",
"K  c #595B5C",
"L  c #664B41",
"P  c #6B4D43",
"I  c #6D5246",
"U  c #6E5148",
"Y  c #725246",
"T  c #75564A",
"R  c #78574B",
"E  c #745949",
"W  c #7B5B4E",
"Q  c #615755",
"!  c #675954",
"~  c #6F5D57",
"^  c #665D5C",
"/  c #6B5F5C",
"(  c #725B53",
")  c #7E5C51",
"_  c #736F41",
"`  c #757545",
"'  c #7B7644",
"]  c #747947",
"[  c #7C7B46",
"{  c #757A49",
"}  c #7C7D49",
"|  c #72635F",
" . c #5C5F61",
".. c #596266",
"X. c #646364",
"o. c #6B6462",
"O. c #65696B",
"+. c #6A6C6E",
"@. c #766661",
"#. c #776E6C",
"$. c #7C6F6B",
"%. c #79706E",
"&. c #6E6F70",
"*. c #6F7073",
"=. c #737375",
"-. c #73777A",
";. c #76787A",
":. c #7A7C7E",
">. c #815F52",
",. c #827C46",
"<. c #827F49",
"1. c #846354",
"2. c #8C6456",
"3. c #8F6759",
"4. c #8C695C",
"5. c #946B5C",
"6. c #986E5F",
"7. c #9B7668",
"8. c #7E824C",
"9. c #7E8250",
"0. c #83834B",
"q. c #89844B",
"w. c #86894E",
"e. c #8A894E",
"r. c #878751",
"t. c #858B51",
"y. c #898C52",
"u. c #869055",
"i. c #899257",
"p. c #7C7E80",
"a. c #7F8183",
"s. c #818283",
"d. c #868789",
"f. c #909194",
"g. c #97999C",
/* pixels */
"q.[ ,.} ' ,.0.e.<.,.9.9.8.8.v H H x <.<.,.,.0.0.,.,.0.0.0.0.,.,.",
"0.,.<.{ r.<.x O O % O ; { w.v &.*.p ' ,.> O O + O f [ 0.0.q.,.,.",
"} [ [ { } n . 0 0 7 0 - > u.z :.:.a q.> 5 9 7 7 7 . B 0.,.0.,.0.",
"0.[ [ [ } i = l l L L y * 9.z :.7.a q.* l M M m l = a ,.,.e.w.q.",
"' } ' } r.a 5 l I 1.E y : 8.f :.p.z <.: r E 1.E l = f q.q.0.[ V ",
"<.[ } _ } g 6 L ( 1._ L @ g + :.p.@ g O L ( | ) L - f e.0.0.,.,.",
"9.} _ ` ` p 0 P m L m m J +.4 =.-.4 +.J M m M m I 8 d <.0.,.0.,.",
"<.} ` [ ` i = r e r r 9 / g.J =.+.J g.X.9 r r e r = f ,.[ q.[ [ ",
"` [ } [ ,.i = e e e e 9 Z +.4 =.=.4 +.D 8 e e e r = a [ q.0.8.[ ",
"} <.0.,.} d l R T W R R C Z $ ;.p.$ Z j T T ) T W r f 0.w.0.[ [ ",
"0.q.<.[ 0.x r W R W R Y F p.Z +.=.Z p.D Y T W T W r x 0.8.0.0.0.",
"0.q.q.0.0.f l >.W 1.W R F :.Z +.=.Z p.G R >.>.) ) l v } 8.,.[ 0.",
"0.e.q.e.w.f m 1.( ! ( >.Q K $ p.s.$  .Q >.W ! ( 1.l u V V 0.e.0.",
"0.e.w.e.q.x M 2.^  ./ 2.^ 3 X 2 1 o 3 ^ >./  .^ 4.l p 8.[ i.q.q.",
"0.0.0.0.0.x L 3.#.-.$.M o & 7 e e 7 & o L #.-.%.4.M x 8.t.y.y.,.",
"q.q.0.[ 8.x I 5.#.p.^ O r 7 e U U e 7 y @ O.9.%.5.Y v w.8.0.w.0.",
"V 0.0.8.} x Y 6.o.O.C 9 Y r y e e y e U 9 Z O.o.6.U f ,.<.<.} 8.",
"0.w.y.9.q.x P 6.~ o.t e P m P L U P L Y 9 t o.( 6.P a 0.,.} e.0.",
"e.y.9.9.} x P 3.@.p.j m P L U L T m P m l j s.@.3.P l 0.} ] w.0.",
"0.e.t.9.e.p M 2.| p.w Y y ) 4.l y m R y T 4 p.| 2.m f 0.} [ [ <.",
"0.0.w.0.` a m 1.>.4.0 T e 3.7.y e P >.y T 8 4.>.1.l p 8.} 0.8.0.",
"0.w.e.[ e.c l >.W >.6 R y U W L U y U y T 7 >.R >.l d [ ` } 0.8.",
"[ 0.w.w.0.c l >.) >.6 Y U m y T >.P m P Y 5 >.>.1.l s [ 8.] 8.8.",
"w.0.0.8.[ s 6 l y y % U m P P P U m L m U & r r l 5 p ] ` V 8.e.",
"0.0.,.,.' d : l e , . r L Y R P l P ( P q X 7 e l 5 p } [ ' 0.0.",
"0.[ 0.0.,.f 9 T S O.J . - - & 5 = = = = X J X.S R 9 d } } 0.,.,.",
"0.q.q.V V f 8 M S d.d.k @ 1 3 2 4 2 1 @ j d.d.F M 8 p 0.,.,.,.0.",
"q.e.0.[ q.f 7 M S g.f.S D O.;.O.+.;.X.D L f.g.F M 7 d } ,.,.q.q.",
"0.w.e.0.,.a 5 m A a.;.k h &.a.K K :.+.j k ;.:.A l - p 0.q.q.q.e.",
"q.q.0.0.[ p : l 0 Z Z e C X.=.K K =.X.j r Z D 0 m - p t.0.q.e.e.",
",.} } ] 0.N o e q 7 8 7 # < , < < , < * 7 9 7 q q o b 0.0.e.<.,.",
"<.,.<.,.[ 0.i   . . X + { w.w.e.e.[ ,.<.+ . . .   i } <.,.,.,.<."
};
