/* XPM */
static char *characher_right[] = {
/* columns rows colors chars-per-pixel */
"32 32 131 2 ",
"   c #1E1513",
".  c #231917",
"X  c #241C1A",
"o  c #281C1A",
"O  c #2C241B",
"+  c #29291C",
"@  c #322B1E",
"#  c #2C2625",
"$  c #2E2D23",
"%  c #2B2C2C",
"&  c #362621",
"*  c #392622",
"=  c #352D20",
"-  c #3C2924",
";  c #3E2C28",
":  c #3A3421",
">  c #3B3A23",
",  c #3C3C2D",
"<  c #333334",
"1  c #383535",
"2  c #363839",
"3  c #3C3C3C",
"4  c #402D27",
"5  c #412E29",
"6  c #45322C",
"7  c #4B352F",
"8  c #4E382F",
"9  c #4A3731",
"0  c #4E3A32",
"q  c #433D3B",
"w  c #543C34",
"e  c #583E36",
"r  c #583F38",
"t  c #44442D",
"y  c #4D4629",
"u  c #4D4C2D",
"i  c #514E2D",
"p  c #54512F",
"a  c #5A522F",
"s  c #46403D",
"d  c #49413E",
"f  c #5B4337",
"g  c #54423B",
"h  c #5D433A",
"j  c #4E5230",
"k  c #555431",
"l  c #595530",
"z  c #5A5A34",
"x  c #62463D",
"c  c #63483D",
"v  c #646137",
"b  c #656238",
"n  c #494443",
"m  c #4A4B4C",
"M  c #534440",
"N  c #5E4A44",
"B  c #524D4C",
"V  c #5B4D4A",
"C  c #59514F",
"Z  c #4E4F50",
"A  c #535454",
"S  c #595A5C",
"D  c #664B41",
"F  c #6B4D43",
"G  c #6D5246",
"H  c #6E5148",
"J  c #725246",
"K  c #735947",
"L  c #75564A",
"P  c #78574B",
"I  c #77584B",
"U  c #7B5B4E",
"Y  c #615755",
"T  c #675954",
"R  c #6F5D57",
"E  c #665D5B",
"W  c #6B5F5C",
"Q  c #725B53",
"!  c #7F5D51",
"~  c #737747",
"^  c #7C7644",
"/  c #767946",
"(  c #7C7A46",
")  c #767A49",
"_  c #7C7D49",
"`  c #72635F",
"'  c #5B5E60",
"]  c #596266",
"[  c #646465",
"{  c #6B6462",
"}  c #65696B",
"|  c #6A6C6E",
" . c #766661",
".. c #776E6C",
"X. c #7C6F6B",
"o. c #79706E",
"O. c #6E6F71",
"+. c #6F7073",
"@. c #737375",
"#. c #73777A",
"$. c #76787A",
"%. c #7A7C7E",
"&. c #815F52",
"*. c #827C46",
"=. c #837E49",
"-. c #897F48",
";. c #856355",
":. c #8C6456",
">. c #8F6659",
",. c #8B695D",
"<. c #916759",
"1. c #956B5C",
"2. c #986D5F",
"3. c #9B7668",
"4. c #7E824D",
"5. c #8C8047",
"6. c #84834B",
"7. c #8A844B",
"8. c #84894F",
"9. c #89894E",
"0. c #878751",
"q. c #848A51",
"w. c #8A8C52",
"e. c #869055",
"r. c #899156",
"t. c #7C7E80",
"y. c #7F8183",
"u. c #818385",
"i. c #868789",
"p. c #909194",
"a. c #97999C",
/* pixels */
"7.( *._ ^ *.6.9.=.*.4.4.4.4.4.6.( ( =.=.*.*.6.6.*.*.6.6.4.6.*.*.",
"6.*.=.) 0.=._ 6.6.8.4.) _ 8.w.q.=.*.*.6.*.( _ 6.*.*.( 6.6.9.*.*.",
"_ ( ( _ _ ) ( 6._ _ / _ 4.e.4.8.-.*.5.*.8.6.*.6.*.*.7.6.4.5.*.6.",
"6.) ( ) ) ^ ( 6.^ / ( _ 8.4.4.4.*.*.=.6.5.7.*.6.*.*.-.^ *.9.7.9.",
"_ _ ^ =.0.^ ^ =.5.5.8.=.9.q.=.6.=.*.=.9.7.6.6.5.6.5.7.5.9.6.( ( ",
"_ z u y i u u p i i k i i k k k i a k a a i a a p p p l u v *.( ",
"t o : 5 6 7 0 5 4 x x x c D F J J D c x h w e - - 7 6 ; - . l *.",
"  w h f x D L h e &.&.&.,.<.1.2.<.<.:.:.&.U U w w F D f h 6 O ( ",
". 0 9 M V N N w g ! ! ! W  .R { ....E Q ! L L w w c ` b x 7 O *.",
". 6 Z t.a.i.[ 6 r ! ! ,.t.t. .} t.#.] T &.U U w w D ;.;.F 6 O ^ ",
"X 9 m $.p.i.A X & 5 6 0 9 n q n E X.R ! &.J I w w D U K x 9 O 6.",
"O 6 w g N w . w G J I J P c w 8 O c &.&.P J L 8 8 c D w h ; : 6.",
"( = n q B # 4 D h J r w r F F H w o E Y C C d B E A # $ @ 6 6.5.",
"6., [ | } < 4 J D x J ,.! D x e 6 * 2 ' %.$.m | a.| t 4.) r.8.7.",
"6., @.t.$.1 - P F h ! 3.,.F F r w 5 # # m m % 3 A 3 % s k k k l ",
"7., S S | 1 - F F L h N r D F e H w < t.| +.$.@.+.#.t.t.4.%.+.m ",
"^ , S S | 2 ; h F &.F w r J J w H w 1 u.+.@.%.@.+.@.t.t.%.t.@.Z ",
"=., @.t.$.2 * F D F r D D x F r w 5 X % m m % 3 A 3 + p i i a z ",
"0., [ +.} < * U F h H &.P F D w 6 - 2 ' t.%.m | a.O.t 6.( / 6.4.",
"_ $ d q B # - F D F r r r D J J r o E Y C V q B { C # = @ > ^ 6.",
"O 5 w g D 0 X 0 F H J P J x 8 8 o c :.U P J P 8 8 c c g h ; > 4.",
"X 7 B $.p.i.A X * 5 6 8 q d q m W o.W Q &.P P w f h U K h 0 O 4.",
"X 6 Z t.a.i.[ 6 w &.&.,.t.t.{ } t.#.] T &.P U w g c ;.;.G 6 + 6.",
". 0 9 M V V N w r ! ! &. . .R W o...E Q &.J P w w c U G h 7 O 9.",
"  0 x f x c K h f &.&.;.:.<.1.2.1.<.:.;.! U U w f D D f h 6 + *.",
"y o ; 5 6 7 w 4 4 h h x c c F J F D c h h f w - - 7 ; ; - . a =.",
"6.b p i y a a j j u u u i k p p k l y p k p p u j k u p j v *.6.",
"6.7.6.( 7.7.9.( *.6.( ( 6.9.q.6.6.=.*.*.6.*.*.=.( / =.6.*.=.5.5.",
"6.4.8.7.( ( ( ( 4.6.( ( 4.) q.( ^ *.( =.^ *.6.7.( ( ~ =.5.5.9.w.",
"7.7.7.4.( *.6.( ( 5.( 4.q.6.6.6.6.*.*.6.0.0.-.-.6.4.) q.8.5.0.0.",
"( ( 4./ 4.5.6.*.8.6.4.4.q.q.6.6.=.*.*.7.9.9.*.( 6.( =.6.6.8.=.=.",
"6.5.6.*.( 7.*.*.6.8.r.w.4.6.6.8.9.*.*.7.5.6.5.( 8.=._ =.=.*.*.=."
};
