/* XPM */
static char *characher_left[] = {
/* columns rows colors chars-per-pixel */
"32 32 131 2 ",
"   c #1E1513",
".  c #231917",
"X  c #241C1A",
"o  c #2A1D1A",
"O  c #2C251B",
"+  c #2A291C",
"@  c #2C2625",
"#  c #2D2B22",
"$  c #2B2C2C",
"%  c #362621",
"&  c #392622",
"*  c #342E22",
"=  c #3C2924",
"-  c #3E2C28",
";  c #3B3323",
":  c #3D3A23",
">  c #3B3D2D",
",  c #333334",
"<  c #383535",
"1  c #363839",
"2  c #3C3C3C",
"3  c #402D27",
"4  c #412E29",
"5  c #403D24",
"6  c #45322C",
"7  c #4B352F",
"8  c #4E382F",
"9  c #4A3731",
"0  c #4E3A32",
"q  c #443E3C",
"w  c #543C34",
"e  c #583E36",
"r  c #583F38",
"t  c #494427",
"y  c #4A4528",
"u  c #4D4C2D",
"i  c #504D2D",
"p  c #54512F",
"a  c #5A522F",
"s  c #454631",
"d  c #49413E",
"f  c #5A4337",
"g  c #54423B",
"h  c #5D433A",
"j  c #545331",
"k  c #595531",
"l  c #565934",
"z  c #5C5A35",
"x  c #62463D",
"c  c #63483D",
"v  c #615B34",
"b  c #696438",
"n  c #494443",
"m  c #4A4B4C",
"M  c #534440",
"N  c #5E4A44",
"B  c #524D4C",
"V  c #5B4D4A",
"C  c #59514F",
"Z  c #4E4F50",
"A  c #535454",
"S  c #595B5C",
"D  c #664B41",
"F  c #6B4D43",
"G  c #6D5246",
"H  c #6E5148",
"J  c #725246",
"K  c #735947",
"L  c #75564A",
"P  c #78574B",
"I  c #77584B",
"U  c #7B5B4E",
"Y  c #615755",
"T  c #675954",
"R  c #6F5D57",
"E  c #665D5B",
"W  c #6B5F5C",
"Q  c #725B53",
"!  c #7F5D51",
"~  c #757646",
"^  c #7C7644",
"/  c #767946",
"(  c #7D7A46",
")  c #767A49",
"_  c #7C7D49",
"`  c #72635F",
"'  c #5B5E60",
"]  c #596266",
"[  c #646365",
"{  c #6B6462",
"}  c #65696B",
"|  c #6A6C6E",
" . c #766661",
".. c #776E6C",
"X. c #7C6F6B",
"o. c #79706E",
"O. c #6E6F71",
"+. c #6F7073",
"@. c #737375",
"#. c #73777A",
"$. c #76787A",
"%. c #7A7C7E",
"&. c #815F52",
"*. c #827C46",
"=. c #837E49",
"-. c #897F49",
";. c #856355",
":. c #8C6456",
">. c #8F6659",
",. c #8B695D",
"<. c #916759",
"1. c #956B5C",
"2. c #986D5F",
"3. c #9B7668",
"4. c #7D824D",
"5. c #8C8047",
"6. c #84834B",
"7. c #8A844B",
"8. c #85894E",
"9. c #89894E",
"0. c #878751",
"q. c #848A51",
"w. c #8A8C52",
"e. c #869055",
"r. c #889054",
"t. c #7C7E80",
"y. c #7F8183",
"u. c #818385",
"i. c #868789",
"p. c #909194",
"a. c #979A9C",
/* pixels */
"7.( *._ ^ *.6.9.6.( 4.4.4.4.6.6._ ( 6.*.*.*.6.7.*.*.4.6.6.6.*.*.",
"6.*._ ) 0.=.4.6.6.8.4._ _ 8.r.q.=.*.*.6.6.^ _ 6.*.*._ 6.6.9.*.*.",
"_ ^ _ _ _ _ ^ 6.=.) ~ _ 4.e.4.6.-.*.7.*.7.6.*.6.*.*.7.7.6.6.*.7.",
"6._ ^ _ ) ~ ( 6.^ / / _ 6.4.4.4.*.*.=.=.7.7.*.=.*.*.*.( ( 7.6.9.",
"_ _ ^ _ =._ ^ =.6.7.7.=.9.q.=.6.-.*.=.9.7.6.7.-.7.7.7.7.7.4.*.b ",
"=.) z t p u u p a i p p p j j j i a k a a p p a a p p a p p v 7.",
"_ j . = - 4 9 = - w e r x x D F J F F c x f h 3 - 8 7 6 4 ; O t ",
"_ O 9 f f D F e w U ! &.;.:.>.1.2.2.<.:.:.&.&.f h K c c x h 0   ",
"~ O 7 h G U h g 8 I L U Q E ....{ Q ` ` ! ! ! r w N V V M q 9 X ",
"_ O 6 F ;.;.D g e U U ;.T ] #.t.}  .u.%.,.&.! e 6 [ i.a.4.S 6 X ",
"6.O 9 x K U x e w P L &.Q R X.W n d q q 9 6 4 & X A i.p.t.m 9 . ",
"7.: - h f c c 7 7 L J P U :.x O 9 w h L P L J F w . 0 N g r 6 o ",
"6.7.> * ; @ C [ B q B C Y E X w G L x r r r F x F = @ B q n @ *.",
"6.9.q.e.7.s | a.| m %.%.' < = 6 w c F P U H x F P & , } | [ < -.",
"k p p B k + 2 A q $ m m $ X 6 w r F x x D h F D F = < %.t.@.> =.",
"Z +.4.t.%.y.@.+.@.%.@.@.u.< w J e H L r w F &.F h 3 < | S S > 6.",
"Z +.%.%.%.%.@.@.@.#.O.} t.< w H w F c x h D J H F = < | S S > =.",
"l i j l k + 2 A 2 $ m m $ X 4 0 r F F >.3.U h F L & < $.t.@.> 7.",
"q.q.4.4._ s | a.O.m t.t.' 1 = 9 w c D ! ,.H x D J = , } | [ > 6.",
"6.6.: * ; O B { B q V C Y E X w H F F r w h J h F - @ B q n @ ^ ",
"7.: - f f D x 8 8 P J P U :.x O 8 8 x L L P J H w . d N g w 6 + ",
"( + 7 x K Q x w w P L &.Q W ,.E B q q q 8 4 4 % X A i.p.#.m 7 X ",
"_ O 6 D ;.;.D w w U P &.T ] #.t.} { u.%.>.&.! w 6 } i.a.%.m 6 . ",
"6.O 9 h H I D w w P L &.R E ....W R  . .&.U ! r w N D V M 9 w . ",
"7.O 7 f f D F e e I I ! ;.:.>.1.2.1.<.:.&.&.&.f f K c c f f g   ",
"6.k . = 3 4 7 - & f f f x c D F J J D c x h h - 3 w 7 6 6 - X t ",
"6.9.b u i p p u u u y u u k u j i k u i k i j u u j u p p u v 6.",
"7.7.4.( 7.7.9.*.6.7.( / 6.6.q.6.6.=.*.=.7.*.*.=.( _ =._ *.*.7.7.",
"4.6.8.7.^ ^ ( ( *.7.4.4.4.4.4.*.~ *.*.=.^ =.=.9.( _ / =.7.7.7.9.",
"7.7.7.8.( *.6.( ( 7.^ _ 4.6.6.6.6.*.*.7.7.9.-.-.6._ ( q.7.7.9.6.",
"( 4._ / *.6.6.7.8.4.4.6.q.q.6.q.=.*.*.7.7.9.*.( 4.( =.4.6.6.6.*.",
"*.*.6.( ( 7.*.*.6.9.e.e.4.6.6.6.9.*.*.7.7.6.7.( 9.=._ 6.=.*.*.6."
};
