/* XPM */
static char *Wall_with_dirt_32[] = {
/* columns rows colors chars-per-pixel */
"32 32 167 2 ",
"   c #633440",
".  c #643540",
"X  c #673841",
"o  c #693941",
"O  c #6A3B41",
"+  c #693942",
"@  c #6A3942",
"#  c #6A3A42",
"$  c #6E3F41",
"%  c #6C3C42",
"&  c #6D3D42",
"*  c #6F3D43",
"=  c #6F3F42",
"-  c #6F3E43",
";  c #703E43",
":  c #703F43",
">  c #703F44",
",  c #6F4143",
"<  c #6F4244",
"1  c #704143",
"2  c #704243",
"3  c #714044",
"4  c #724044",
"5  c #704244",
"6  c #714244",
"7  c #714344",
"8  c #7E4748",
"9  c #7F4748",
"0  c #7C7445",
"q  c #7C7646",
"w  c #7C7845",
"e  c #7F7846",
"r  c #7F7947",
"t  c #8B4E4D",
"y  c #8D4D4D",
"u  c #8C4F4D",
"i  c #8D4F4D",
"p  c #8D504D",
"a  c #8E504D",
"s  c #8D504E",
"d  c #8F504E",
"f  c #8F514E",
"g  c #8F594B",
"h  c #91534F",
"j  c #905A4B",
"k  c #9F5556",
"l  c #A65C57",
"z  c #A75D57",
"x  c #A85E57",
"c  c #A35758",
"v  c #A55B58",
"b  c #A85E58",
"n  c #A85F58",
"m  c #A95F58",
"M  c #817645",
"N  c #827746",
"B  c #817A47",
"V  c #867E47",
"C  c #807848",
"Z  c #857B48",
"A  c #837C48",
"S  c #847F4B",
"D  c #9E6150",
"F  c #9E6251",
"G  c #A96058",
"H  c #AA6058",
"J  c #AB6158",
"K  c #AC6059",
"L  c #AC6258",
"P  c #AC6358",
"I  c #AD6358",
"U  c #AF605B",
"Y  c #AF635A",
"T  c #AE6458",
"R  c #B16759",
"E  c #B0645A",
"W  c #B1655A",
"Q  c #B5675C",
"!  c #B56B5A",
"~  c #B76D5A",
"^  c #B96F5A",
"/  c #B96F5B",
"(  c #B07354",
")  c #B07454",
"_  c #B17554",
"`  c #B27555",
"'  c #B37755",
"]  c #B67A55",
"[  c #B57856",
"{  c #B77956",
"}  c #B97C56",
"|  c #BA715A",
" . c #BA705B",
".. c #BB715B",
"X. c #BC725B",
"o. c #BD735B",
"O. c #C3795C",
"+. c #C4795C",
"@. c #C77C5D",
"#. c #C77D5D",
"$. c #C77D5E",
"%. c #C87D5D",
"&. c #C97E5D",
"*. c #C97F5D",
"=. c #C87E5E",
"-. c #C97F5E",
";. c #848049",
":. c #83824C",
">. c #8A854B",
",. c #CB805D",
"<. c #CB815D",
"1. c #C9815E",
"2. c #CA805E",
"3. c #CB815E",
"4. c #CC825E",
"5. c #CD835E",
"6. c #CD845E",
"7. c #CD845F",
"8. c #CE845E",
"9. c #CF855E",
"0. c #CE845F",
"q. c #CE855F",
"w. c #D1875E",
"e. c #D2895F",
"r. c #D28760",
"t. c #D48B60",
"y. c #D58B60",
"u. c #D78E60",
"i. c #D68F62",
"p. c #DD9461",
"a. c #DE9761",
"s. c #DD9462",
"d. c #DE9562",
"f. c #DF9662",
"g. c #DF9762",
"h. c #E09762",
"j. c #E19862",
"k. c #E19962",
"l. c #E49B63",
"z. c #E8A064",
"x. c #EEA665",
"c. c #EFA865",
"v. c #F0A864",
"b. c #F2AA65",
"n. c #F2AB65",
"m. c #F1A966",
"M. c #F2AA66",
"N. c #F3AB66",
"B. c #F3AC65",
"V. c #F4AC66",
"C. c #F6AE66",
"Z. c #F8B067",
"A. c #F8B167",
"S. c #FAB367",
"D. c #FBB367",
"F. c #FBB467",
"G. c #FBB368",
"H. c #FCB368",
"J. c #FDB368",
"K. c #FAB468",
"L. c #FEB469",
"P. c #FFB569",
"I. c #FFB668",
"U. c #FFBB69",
"Y. c #FFBF6C",
"T. c #FFC26B",
"R. c #FFC66D",
/* pixels */
">.w * * * ; ; * * * * * * * > * * > * * * * * * * * > > ; 6 q S ",
"S q ; > 2 2 > 6 6 6 6 6 > 6 > 6 6 > > 6 6 6 6 > 6 6 6 > ; > M B ",
"< 6 > o . . . . . .     . . . . . . . . . . . . . . .   @ ; 2 2 ",
"* ; o j { ( _ _ _ _ _ _ _ _ _ _ _ _ _ _ _ _ _ _ _ _ ( [ j @ ; ; ",
"* 6   { Y.H.P.P.P.P.P.P.P.P.P.P.P.P.P.P.P.P.P.P.P.P.P.R.}   ; ; ",
"* 6   _ H.v.b.b.b.b.B.b.b.B.b.b.b.b.b.b.b.B.b.B.b.V.a.r.D X ; ; ",
"* 6 . _ P.b.V.b.b.M.M.b.M.M.b.b.b.b.M.b.M.b.M.b.b.V.4.c u O ; ; ",
"* > . _ P.b.b.9.4.4.0.9.4.7.9.4.4.9.0.4.7.4.7.4.4.R P W a o 2 * ",
"* 6 . _ P.b.M.4.$.-.4.$.-.-.-.-.4.-.-.-.4.4.*.*.$.P b W u * * * ",
"* 6 . _ P.B.M.7.4.4.4.7.r.4.9.0.0.0.0.4.%.*.4.4.4.P G P u @ ; , ",
"> 6 . _ P.b.b.9.4.4.O. .X.X.X.X.o. ./ 0.l.y.-.*.-.P b W a O ; * ",
"* > . _ P.b.M.4.-.7. .v x l l l v z k 0.U.h.%.4.-.P G W a o ; , ",
"* > . _ P.b.M.7.-.7.X.b ! X.X.X.o.o.~ u.D.p.-.4.-.P b W u O 2 ; ",
"; 6 . _ P.b.b.4.4.7.X.x X.w.9.4.4.w.-.h.D.p.%.4.-.P G P u o ; * ",
"* > . _ P.b.b.4.-.7.o.v X.4.-.-.-.4.-.a.D.h.-.4.-.P G W a O 2 * ",
"* 6 . _ P.B.b.9.-.7.o.v X.w.-.4.4.*.%.h.D.a.-.4.-.E G W u O ; * ",
"* 6 . _ P.b.b.9.-.r.X.l o.4.-.*.*.4.-.h.D.a.%.4.-.P m W u @ 2 ; ",
"* 6 . _ P.b.M.4.-.4.X.x o.w.0.4.4.4.-.h.D.h.%.4.-.P m E d @ ; ; ",
"* 6   _ P.B.b.7.-.9./ k ~ *.%.%.%.-.+.p.D.h.%.4.-.P m E i O ; ; ",
"* 6   _ P.b.b.4.-.4.4.r.u.h.p.p.h.h.h.l.C.h.%.4.-.P m E i O 2 * ",
"* > . _ P.b.b.4.4.-.l.U.H.G.D.G.D.D.G.C.G.h.-.4.-.I x E i O ; * ",
"* 6 . _ P.B.b.9.-.-.y.a.p.a.a.h.p.h.h.h.j.y.-.-.-.I G W i O 2 * ",
"> > . _ P.b.N.4.-.-.-.$.%.%.%.-.%.%.%.%.-.-.-.4.-.I G W i O ; * ",
"* 6 . _ P.V.N.4.4.4.4.4.4.4.4.4.4.4.4.4.4.4.4.4.-.I x E i O 2 * ",
"* 6 . _ P.x.x.4.-.-.-.-.-.-.4.-.-.-.-.4.-.-.-.4.$.I G W u * ; * ",
"> > . ' T.e.G P P P P P E P P P P P P P P P P P T G b W u @ 2 * ",
"* ; X D u./ z b G G G x x x G b b G b G b G b G G x b P a O ; * ",
"* > o u E P W W W P W W W E W W E W E E E W W W W W W Q a o 2 * ",
"* ; o 8 h d u a i i i i i i i i u i i i a a u a u a a a 8 O * * ",
"2 2 2 * o o O o O O O O O O O O @ * O O o o o O o O O o * * 7 , ",
"q q , * 2 ; 6 > 2 ; ; 2 ; 2 2 ; ; 2 * 2 ; 2 ; 2 6 ; ; 2 * 2 B Z ",
"S Z 6 * * * * > * * * * * * * * * * * * , * * * * * * * * 6 M :."
};
