/* XPM */
static char *destroy_5[] = {
/* columns rows colors chars-per-pixel */
"64 64 210 2 ",
"   c #2D1E09",
".  c #331E0B",
"X  c #3A1D0C",
"o  c #35210B",
"O  c #3B220C",
"+  c #3D2B11",
"@  c #3A2710",
"#  c #471E0F",
"$  c #471E10",
"%  c #43230C",
"&  c #4B240D",
"*  c #4B290F",
"=  c #53250E",
"-  c #5B260F",
";  c #462610",
":  c #4E2510",
">  c #432C12",
",  c #4A2D15",
"<  c #532711",
"1  c #5B2612",
"2  c #542A11",
"3  c #5C2912",
"4  c #443216",
"5  c #46371A",
"6  c #4D3618",
"7  c #4C3C1D",
"8  c #4E3115",
"9  c #523D1E",
"0  c #5A3B1D",
"q  c #5B3317",
"w  c #62260F",
"e  c #63280F",
"r  c #622712",
"t  c #632B14",
"y  c #6A2C14",
"u  c #662818",
"i  c #6C2D18",
"p  c #752D12",
"a  c #732E1A",
"s  c #643115",
"d  c #6B3116",
"f  c #6C3419",
"g  c #633A1C",
"h  c #6B3C1D",
"j  c #683816",
"k  c #733416",
"l  c #793417",
"z  c #763C16",
"x  c #743219",
"c  c #7B351A",
"v  c #7D3919",
"b  c #723A1E",
"n  c #493C21",
"m  c #593F21",
"M  c #58411F",
"N  c #794515",
"B  c #4D4324",
"V  c #564623",
"C  c #594B26",
"Z  c #5D4E29",
"A  c #534B28",
"S  c #5D532D",
"D  c #5E5C3C",
"F  c #5A5533",
"G  c #624222",
"H  c #6A4222",
"J  c #664E2A",
"K  c #6B4E2A",
"L  c #684A27",
"P  c #734422",
"I  c #794A26",
"U  c #63552C",
"Y  c #6C512B",
"T  c #64582F",
"R  c #6A592F",
"E  c #74572E",
"W  c #635C32",
"Q  c #6C5D32",
"!  c #685F3A",
"~  c #665833",
"^  c #735B33",
"/  c #616036",
"(  c #6C6135",
")  c #65643D",
"_  c #6B663C",
"`  c #6D6B3D",
"'  c #66693E",
"]  c #746436",
"[  c #786437",
"{  c #72653C",
"}  c #79663A",
"|  c #736C3D",
" . c #7B6E3D",
".. c #75713E",
"X. c #7B713F",
"o. c #666A43",
"O. c #6C6D43",
"+. c #656641",
"@. c #716D41",
"#. c #796F40",
"$. c #6E7345",
"%. c #6F7449",
"&. c #657146",
"*. c #747444",
"=. c #7B7543",
"-. c #767946",
";. c #7C7B46",
":. c #727648",
">. c #7B7649",
",. c #757B4A",
"<. c #7C7D49",
"1. c #777F51",
"2. c #843B1B",
"3. c #8B3D1D",
"4. c #80371B",
"5. c #963D1E",
"6. c #943D21",
"7. c #86421A",
"8. c #8B431B",
"9. c #8B4A19",
"0. c #93421E",
"q. c #99461F",
"w. c #944B1B",
"e. c #9B4B1D",
"r. c #99521B",
"t. c #A34D1E",
"y. c #A2511E",
"u. c #AB5C1D",
"i. c #A55B1C",
"p. c #B35D1E",
"a. c #AE651C",
"s. c #B3631E",
"d. c #BC6C1E",
"f. c #B56C1C",
"g. c #BD731C",
"h. c #934421",
"j. c #9A4521",
"k. c #9D4921",
"l. c #92592E",
"z. c #A44A22",
"x. c #AB4D23",
"c. c #B14D26",
"v. c #AC5421",
"b. c #B45425",
"n. c #B95F22",
"m. c #866F3E",
"M. c #81713F",
"N. c #BD6421",
"B. c #B66020",
"V. c #C26B1E",
"C. c #C4741E",
"Z. c #CA761E",
"A. c #C4791D",
"S. c #CD7C1E",
"D. c #D37A1F",
"F. c #C06220",
"G. c #C46B20",
"H. c #CC6D21",
"J. c #CA7820",
"K. c #DA7B21",
"L. c #827542",
"P. c #837C46",
"I. c #8A7C45",
"U. c #827E49",
"Y. c #8A7E48",
"T. c #897441",
"R. c #76814C",
"E. c #7D824C",
"W. c #7F884E",
"Q. c #7D8551",
"!. c #7D8A52",
"~. c #758052",
"^. c #D5841E",
"/. c #DB861E",
"(. c #DD8C1E",
"). c #DD911D",
"_. c #CC821D",
"`. c #E08F1E",
"'. c #EA9C1E",
"]. c #E2961E",
"[. c #EDA31E",
"{. c #F6AB1E",
"}. c #F9B11E",
"|. c #DB8920",
" X c #D38220",
".X c #E28D20",
"XX c #E29220",
"oX c #848147",
"OX c #8B8047",
"+X c #83834B",
"@X c #8A844B",
"#X c #85894E",
"$X c #8B8A4E",
"%X c #91844B",
"&X c #928B4E",
"*X c #928147",
"=X c #828651",
"-X c #848B52",
";X c #8B8D52",
":X c #928D52",
">X c #9A8D50",
",X c #869155",
"<X c #8B9255",
"1X c #8B955A",
"2X c #8B995B",
"3X c #829058",
"4X c #929253",
"5X c #969756",
"6X c #95A15F",
"7X c #909D60",
/* pixels */
"+X:X<.=.=.L.P.@X<.L.=.+X+X$X$X+X*XL.#X+X<XQ.=X-X+X-X<.;.+X:.+X+X+XE.#X+XE.P.@XU.U.OXP.OXE.#X@XU.=.;.I.P.+X2XoXE.#X*.E.oX;.+XM.I.",
"L.@XE. .Y.;X,.,.>.#.I.+XU.+X+X<X$XI.*.;.-.~.#X,.!.,.-XE.;X-X<.OXP.U.| L.+XU.I.<.P.M.=.P.;.,XOXP.+XOX@X<.<.#XE.E.&X#XW.oXoXX.U.@X",
"U.%X-...@XU.@.:.<.$X>.P.X.-X#XL.oX+X<X#X;.<.<.,.*.<.+X<.,X,X,.-X;.L.=.L.=.=.P.+XX.P.;.;.E.=.+X@X=.m.@XL._ ;.oX+XP.oX#XOX+XL.P.+X",
"@XE.E.@X>.<.:.<.@X4X<.1.E.#XE.+X<.<.E.,X-X=.Q.:.+X=X+X-X-X<X<X#X#X+XI.@XM.L.+X$X$X#X+X-.$.#X#X=.P.P.L.U.;.1XOX<.E.$X@X:XI.U.T.<.",
"P.U.P.U.<.*.E.!.=XU.=X=.<.=.@X#XP.<.-X#X,.:.W.*.,.Q.~.6X-XE.E.OX&XI.Y.U.P.oXL.P.$X;.+X#X=.P.P.P.&X;.#X@X=.4XoX$X+XP.U.$X=.L.#X+X",
"Q.=.*.=.<.=.~.%.>.O.o.+X>. .$XoXoXL.=.' $.*.,.W.:.!.-X,XQ.1.$X$XY.L.L.L.+X4X=.M.#X@X#XI.T.U.;.<X@XM.=.P.@X@X<.+XoXoX#X;.P.L.$X+X",
"E.-XU.@.,.+X;.P.!.1.=.,.*.+X;.+XP.<.E.` :.<.;.#X;X-X3X:.-X;.#XP.U.+XU.P.$X@XE.OX;.*XP.;.@X$X+X$XX.P.#X=.@X@XQ.>.P.P.5XOX@X<X$X@X",
"+X<.,.@X@X>.=.#X<.>.U.M.<.E.$XI.X.E.<.E.<.P.@X*.P.>X<.=X-X+XE.*.<.S Q @XT.U.@X<XOXOX4X$XoXP.I.%XoX+X+X@X*X@X=.;.P.oX+X%X;.U.#X-X",
"=.*.+XU.=.*.+X+X=X<.*.=.+XU.#X@X;.U.P.<XOX+XoX+X$X4X<.U.oXE.+X<XZ O O R Y.@X+X4X@X$X#X;X+XOX@X+X@X+XP.OXP.%XI.oXoX<X4XE.+X:X-.<.",
"L.,.Q.E.=.>.=.,.U.@X@X>.L.O.| I.$X;X%XP.<X+X<.I.U.5X!.<.-XL.=.oX> o o V P.@X<.OX&XI.-.E.oX$XoXL.@XI.&XP.P.<X&XU.&X+X<.-.=.L...X.",
"+X<.:.-.#X=.*. .,.=X:.@.E.<.=.;.&XU.oX| ;.P.$XP.} E.W.+X-.<.<.Z % < s 2 O 4 B S [ ..L.oX=.@X@X%XI.P.=.;XOX$X&XU.@XL.#X$XL.P.X.P.",
"<.U.E.*.*.,.=.{ Y.=X:.:.*.;.U.@X@X;.=.<.W C Z U Z 9 Z | R 8 , % t t.V.d.z % & k j > 4 M S *.P.m.:X&X;.W.oX;.@X:X;X=.oX@X@XE.P.$X",
"*.=X-XX.=.$.{ =.P.:.=.,.*.=.=X#X*.=.$.S O O O % % & < * & & & - u v i.D./.g.G.XX`.9.. O X O ( +X<.+XP. .P.I.P.oX-X+X*.P.P.#.P. .",
"+X<.=.P.=.O.:.$XO.*.<.%.O.<.E.` *.E...O O * : * = t i 1 & & & - i d c C.`.'.|.J.D.Z.z = O O O *.I.$XOXM.@XOX4X{ +X@XP.+X<.=X@X>.",
"*.#X;.>.@.*.+XU.E.` O.*.@.<.-X;.;.@XZ % < y i y d y y t & = 2 = g b 2.j.J.N.c.z.e.d.e.x t O O | L.U.U.+XOX+X+XL.+X<.5XL.U.<.-.+X",
"<.<.;.<.,.,.@.*.;.=.| O.*.*.-X<.+X;.; % u i u t u u i t - 3 E  .U.L.2.3.h.z.x.z.q.3.a y t % O ( #X;.+XI.U.<.L.;X,.=.+X@XP.=.>.=.",
"+X;.+X,.+XoX<.` U.=.<.*.%.#XoX<.| * % * t u 3 = - 1 y r - t ;.,.,.+XL 2.h.j.q.q.0.v 3 & * 3 2 5 #X_ R M.oXM.+XE.#X&XoXE.oXE.+X;.",
"| _ *.;.=.M.E.$XOX;.X...-.;XM.> & 2 3 i 1 & - - - - 3 1 y H -X=.O.:.( s k 2.3.k y - & = & y u 3 h O O + oX#XX.+X<X#XoXE.oXE.+XE.",
"*.<.-.*.+X+X#XP.oX;.=.<.E.oXM O 3 x x y = - 0 ^ w w r y H _ ,.;.+X*.E.{ L Y s e - - 3 R 0 u u p.K.t o O ] X.=.E.$XoX#XoXP.P.<.` ",
"#X+X4X$X&X$XP.| U.oX-.@XP.;.U < f.r.r = - Y +X@Xw y p Y =.W.-X<.@X<.@X-X$.O.} d r j X.E.;.0 r w.y.x O o | oXP.+X4XE.E.;.=.>.;.;.",
"..=.:X@X*.L.E.oX#X+X&X+X;.L.( 9.'.f.r - - J #X=X{ I ^ <.E.;.#X+XP.#X-X,._ L.R.oXT.oXP.X.;.<.3 c c 2.7.N o > W $XoXR.E.#X@X<.@X+X",
"<XoXoX+X*.$X#XP.-.$XoXP.+X9 % 3.G.p.v e - t :.$.O.,.~.<.O.-.+X4X<XoX#X-.;.*X+X+XP.;.L.+XP. .2 & x 3.V.S.; o @ U.oXE.E.OXE.oX%X#X",
"@X$XoX#X@XP.<X;.=.@X#X#X9 & % i 5.5.4.w e g { E.$X<.,.E.%.-X%X;.+X$X;.*.+X;XoXU.U.U.#X#X] - < t 3.y./.s.; . @ U.#XE.;.X.*.<.+X+X",
"X.$X&X&X$X<.#X#X#XE.:X| % & d 3.2.c - w y ^ <.<X*.<.@.+.*.$X@X=.E.U.=.;.<.=.#X<.#X#X#X=.g l 2.k.n.^.].).N   S P.-.E.=.@X#X-.P.#X",
"oX+XoX@X+X<X;X-X;X#XoXJ % d n.d.3.3.k t ] X.oXE.` :.*.:.-.| E.E.+X#XP.#X<.@X@X=.oXP.R.;.k 0.j.v.N.N.G.XX].* n *.E.X.E.@X+X&X@XoX",
"#X@X<X<XP.OX@X4X-XU.P.6 % w./.s.3.5.h.[ U.U.U.E.:.@.o.E.<.+X;.*.<.!.,.#XP.oX+XP.M.1X-X;.H 0.j.k.x.b.b.v.].g.* F X.-.;XE.oX$XoXoX",
"-.oX$X$X$X;X;X$XU.@X_ % : d.(.8.8.k.l.+X+X#X;.-.E.#.*.Q.' %.E.;.#XE.E.@X+X,.+X+X;.<.;X+X .y 2.v.b.b.b.z.d.|.r.F -.;.;X-X4X@XM.&X",
"I.<XOX$XE.<X#XW.+X7 % O 3 ^.).0.h.q.P 2X-X:X+X*.Q.,.O.$.' ' -.E.-X+X+X-XoX#X+X=.E.X.E.,.;. .^ 7.8.x.v.k.N.D.9.) ,.;.2X3X@X@XOX&X",
";.OX+XQ.=.#X<XE.X.% O % r C.].y.h.5.y } #XL.U.E.,.Q.,._ :.O.E.!.#XP.,X;X*.X.#XoXE.+XU.=.E.L.X.M 1 0.z.t.G.B.f ` 1.2X1X1X;X-X#X<.",
"+XP.<X+XoX+X:XX.E.V * d c s.^.Z.k.k.c P ;X#X;X;.-X*.*.~.:.-.-X-XE.oXoX1X$X,.#X@X+X1X@XL.#X=.X.] - c h.q.t.h.t B 7X-XU.;X,X2XP. .",
"@X@X@X<.E.+XoX;.P.;.I C.e.k.G.V.x.e.p ^ -XU.=.-XW.=.=.;.,.+X<.$X#X;.oXoX$XoX#X#X..E.O.o.U.$.R.%.( g 2.3.2.t % 4 +X<.;.@X<XE.P.oX",
"&XP.&XOXI.=.oXE.U o 9.}.u.2.q.z.z.3.f <.Q.E.U.<.,.=.-.E.;.=.@XP.E.W.<.@XE.E.@X:X:.-.,.O.=.*...Y g q 3 t d 3 . 7 E.=X+X-X#XE.#X$X",
"P.=.;.I.oXE.+XL.@ O k C.q.3.r d I K *.E.o.E.E.+X+XOXW.;.=.E.$XI.=.*.W.E.<.;.;.<X;.%.<.;.$.` R y - - & % y 3 O + #X<.,XE.*.E.E.U.",
";.+X=.@X+X$X+X*.@ o % c 0.v - V [ E.*.Q.E.E.$X-.Q.;X+XoX*.+X#X+XM.-.E.,.#X;.<.;X:.O.;.=.+.o.h e - 3 - t y = o O E.L.P.,.-XU.=.E.",
"=.-.+X;XOXE.-X+X_ o 3 5.8.3.= - y g -.P.-.;.P.<.U.#X4XP.#XP.#X#X+XE.:.| *.=.E.OX<.O.o.o.*.o.H y = - u r % O O 4 @XP.X.;.#X+X#X+X",
"@X,X+X$X+X2X,XE.;._ 3.x.3.8.- - - w M.;.oXE.L.+X,.@.-.E.P.#X+X+XE.+X,.%.E.oX<.X.*.Q.R.*.<.O.| h 2 = = % # % > W ;.=.<XE.1X$X$XU.",
"+X:X-X;XQ.Q.E.,.| *.7.V.e.5.8.3.- r ^ =.<.oX..O.-X=.@XU.=.=XE.L.I.E.!.=.oX:X&XE.P.E.+X<.%.<.P.<.J - & & * ( X.#X@XE.$.*.+X+X+X;.",
";.Q.<X+X-X-X-X<.<X;.I N.S.u.h.3.- e t =.-.O.) O.+X<.&XI.=.;X<.#X#X*.;.| ;.#XoXE.-.OX#X#X<.<.;.J 3 & & & U <.;.oX#X-.-.oX+X#XE.P.",
"<.@X4X+XE.Q.-X-X#X+X{ 4.J.s.3.k = t K P.E.*.U.E.E.=.*...+X#.@XU.W.;.U.+X;.E.W.;X-X;X$XE.@X*.*.2 = & & % 6 @XoXE.=...<.<.P.=.P.$X",
"P.@XU.;X;XE.3X1X#X+X_ # C.C.3.v = 3 @. .} =.+X=.' *.*.-.+X<.+X>.#X*.+X#XoX$XE.!.<.!.,X-.,.;.! < = r 3 % & T oX#XW.-.+X$.P.P.U.#X",
"#X@X#X;.-X;X,X+XX.` V r.{._.3.c = e J O.| X.R.$X>.` ) ! =.,.$.*.+X*.*.#X<.@X+X*.+.O.,.=.*.@.s k x i i < O 4 *.-X#XE.-X-XE.#X;.X.",
";.U.+XQ.$X@X+XP.<.+X4 s.[.S.2.x & 2 Q %.O.| E I Y ) :.:.D o.O.:.+X<.,.#X<.OX*.#X*.o.&.{ #.0 x 0.q.p.d & O o A -.;. .#X+X;.W.#X+X",
"OXI.W.-X;X;X=.$X+X#XC 3 7.s.2.y & 2 | *.*.r y y p i _ D F +.:.%.O.<.+XU.+XoX$.P.oX=.E.*.<.g q.j.d.p.= o o o o T X.:.<.;.E.+X<.R.",
";.+X#X$X-X+X=.+X+XU.o   : u.7.c & = G R f 3.l p r p h ! +.:.:.@.<.,.L.@X<.+X+X<.;.;.>.,.] j.v.G.Z.3 O O o o o W  .E.-.;.#X$X#XP.",
":.;.-XoX1X#X+X@X;X..o   t V.0.v t % = - l 3.3.3.k e e *.$.$.:.*.=X>.#.+XL.;X#X+X#XE.[ 2 k z.F.[.|.g =.T 4 + A M.<.<.E.&.-XP.<.E.",
";.;.+XE.!.+X;XE.E...@   < 3.3.c v 3 & & z q.c 2.2.l f +.` %.+X:.U.<.@.#XI.P.P...,.E.q y 2.6.J.}.J.Y ;.;.=.,.<.<.<.*.*.$.:.W.+X-X",
"E.<X<.P.-X<.+X#X#X+ o   O : & y c c c x 2.s.2.a c 2.K | -.' ` <.<.+X .P.;X@X<.U.;.+X3 c 3.s./.s.s / R.<.-X*.*.;.,.,.*.*.%.,XE.-X",
"+X&XE.$X#XU.L.=.=.. . o   . o . 3 c x t 1 w.C.i.2.k 3 - G $.R.*.<.=.P.L.:X<.<.;.+X} 3 y w./.w.X o _ -X+X*.L.,.*.' ;.*.P.oX$X5X4X",
"$X+X$X<.<.U.U.=.P.+ o o @ B + o O t : O % # g.(.v y < 1 y L } ;. .$X@X+X+X;.@X<.V 2 3 u w.V.q O R ` R.#X@.>.<.E.=.*._ L.oXoXoX;.",
"I.L.@XE.;.<.$XoXoX_ C S -.!.-.@ o O O % % # u.A.1 u 1 x x i t - 3 G Q q 2 L #.g - & % 1 i s O S -.<._ @.>.;.| +X+XE.E.-.oXE.L.I.",
"+X@X=.=XP.P.OX;.;.;.@X@X..-.E.S o o O B 9 : d.(.a.9.i.A.C.x t = & = = = & 3 c c y & O % % > ` %.,.<X;.P.+XE.;.E.=.P.E.+X@X<.oXOX",
";XE.+X=.=.P.+X;.E.oXT.$X+X-.R.!.W A F D A & d.^.`.`.^.^.D.8.u u 1 & % & % x h.k.8.t O O @ *.{ E.;X;.E.+X+XU.R.E.<.E.+X+XP.X.P.$X",
"P.U.4XI.+X4XP.=.X.=. .@X;.;.<.#X,.R.:.' ) , s.K.C.2.y q.w.y 1 3 < & % % ; c k.x.k.f o O T ;.=.E.*.,.+XY.<.P.+X+X#XU.@X<.X.@XOX=.",
"P.@X$X&X@XU.P.P.M. .$XOX@X#X=.*.*.;.E.W.;.! H w.v 3 O % t % O O % % % % ; x B. XN.< o 4 <.E.-...*.+X-X=.*.<.=.+XU.;.U.P.;.:XU.,X",
"oX$X+X+XL.;.-.+XP.P.:XU.&X@X=.E.X.I.OX=.@X+X:.( #.V O O O O O 4 6 7 V V S G r.A.j 5 W ;.I.X.oX=...P.-X*.+X@X<.E.L.+X+XI.I.&X=.oX",
"@X#X@X$X@X+XP.#XU.&X%XoX#X@X#XoXP.$X+XE.L.;.*.#X#XE.5 o o O S Y.+X#X<.=.$XOXZ n ( +X..;.P.<.<X#X*.+X,.*.P.#X<.+X@XOXP.P.%X=.;X@X",
"E.@XE.$X+X2X%XE.P.<.P.=.$X@X+X@X@XE.@X+X+X#X;.E.#X#X<./ S / @XP.=.;.*XL.X.OXP.P.Y.#.U.I.+X-X+X&X<.oX*.,.<.*.<.I.@X+XI.OXU.@X;X+X",
"E.;.+X#X<.$XP.&XL.>.E.P.<...E.| P.OXI.@X$XE.+XP.*.E.E.:.W.E.@XX.*.P.$X;.;.+X$X+XP.#.U.+X<.-X+X@XP.,.#XE.+X:.#XP.$X@X@X5X&XY.;X1X",
";X$X&XoX@X$X#X$X>.| { +X;.E.P...-.<.@XX.oX;.E.,.+X-XE.$X-.@XoXP.E.P.@XX.=.T.L.;.=X@X+X+XI.U.%X@XL.oX$X%.*.=.-X;X:XU.L.&XU.U.-X:X",
"P.&X+XoX@X+XE.,.#X;.oX$X;.$XL.E.P.#X;X;.E.=.<.#X!.-X#X$XE.+X<.$XE.#X#XP.>.P.@X$X=X-X1X;X&XY.*XOXU.E.-X%.#.-X-XW.@XOX<.+X-X:X<.;X",
"<.U.=.+XE.$X$.R.;XOX;.#XP.oX+XOXoX;.+XoXE.U.<.+XE.<X+X~.-XE.#X#X+X+XP.=.*.+X@X;X+X%X@X>XP.L.P.=.oXE.;.=.+XU.;.#XE.+X:X;X;X1.#.T.",
"U.=.+X..-.*.*.E.;.oX-.#X@X;.@X@X#X-X+X<.3XU.+X-X-.#X<X+X+XW.E.E.<.P.P.P.P.Y.Y.OX@XL.7XL.L.L.E.W.<.<XL.;.=.;.$X+X#X-XU.U.P.P.Y.;X",
"+X+XL.@X$XP.;.<.=.=.:X@X+XOXM.;.P.$X<X;.+X2X,X-XE.#X#X+X$X#XE.<X$X@X+X;.=.OXY.Y.*XU.;X+XOX+X..=.;.<XU.U.;.,.U.+XP.;.P.U.L.>.+X$X",
"Y.L.+X+X<.@XU.P.@X+X#XP...@XP.+X;.E.#X#X5X<X+X1XE.Q.P.+X$XW.oX:X;X#X+X*.;.@X*X-X5XL.oX#X@X$X+XL.$X@X+XOXU.+XU.U.E.<.I.P.@XY.>.U."
};
