/* XPM */
static char *destroy_4[] = {
/* columns rows colors chars-per-pixel */
"64 64 222 2 ",
"   c #3B1F0C",
".  c #36210B",
"X  c #3C220C",
"o  c #3F280F",
"O  c #3E2E13",
"+  c #372A13",
"@  c #43230C",
"#  c #4A240D",
"$  c #48280F",
"%  c #53250E",
"&  c #58260E",
"*  c #4D2410",
"=  c #422A11",
"-  c #4A2A11",
";  c #542511",
":  c #562911",
">  c #5B2913",
",  c #5A2412",
"<  c #433519",
"1  c #493619",
"2  c #4C3C1C",
"3  c #463417",
"4  c #632B14",
"5  c #6A2E16",
"6  c #6C2E18",
"7  c #682518",
"8  c #752A11",
"9  c #7B2A12",
"0  c #722D1A",
"q  c #782610",
"w  c #723217",
"e  c #7C3116",
"r  c #743219",
"t  c #7B341B",
"y  c #7E381A",
"u  c #723A1C",
"i  c #6D2D12",
"p  c #4F3F20",
"a  c #7B3F20",
"s  c #4D401F",
"d  c #4E4321",
"f  c #4F4826",
"g  c #524422",
"h  c #5C4E29",
"j  c #554B28",
"k  c #5C512A",
"l  c #5C5B39",
"z  c #794724",
"x  c #61562E",
"c  c #635B32",
"v  c #615E39",
"b  c #7A5930",
"n  c #656035",
"m  c #6A6134",
"M  c #64643D",
"N  c #6B663B",
"B  c #6D6A3D",
"V  c #66693F",
"C  c #736C3D",
"Z  c #7B6E3E",
"A  c #7A673A",
"S  c #6F703F",
"D  c #74703F",
"F  c #7B713F",
"G  c #676A42",
"H  c #6C6D42",
"J  c #686741",
"K  c #726E41",
"L  c #7A6F40",
"P  c #6E7345",
"I  c #6D7549",
"U  c #657146",
"Y  c #747443",
"T  c #7B7543",
"R  c #757946",
"E  c #7C7A46",
"W  c #737649",
"Q  c #7B7648",
"!  c #757B4A",
"~  c #7C7D49",
"^  c #757F51",
"/  c #842D13",
"(  c #8C2E14",
")  c #922E14",
"_  c #982E14",
"`  c #843216",
"'  c #8C3316",
"]  c #84361C",
"[  c #8A3519",
"{  c #853B1B",
"}  c #8B3D1D",
"|  c #923216",
" . c #9C3116",
".. c #923C1D",
"X. c #9B3B1D",
"o. c #963619",
"O. c #A73418",
"+. c #9E3920",
"@. c #A53D22",
"#. c #A93E23",
"$. c #8D421D",
"%. c #88441A",
"&. c #94431E",
"*. c #9A451E",
"=. c #944C1C",
"-. c #9B4D1D",
";. c #9C541D",
":. c #A64E1F",
">. c #A4531E",
",. c #A65B1D",
"<. c #AB5A1E",
"1. c #AB561E",
"2. c #B55D1F",
"3. c #AC681E",
"4. c #B4611E",
"5. c #B6721E",
"6. c #894926",
"7. c #954320",
"8. c #9A4620",
"9. c #9A4A24",
"0. c #8C532C",
"q. c #83572F",
"w. c #93572E",
"e. c #865B32",
"r. c #9A5D32",
"t. c #A44D21",
"y. c #AC4B21",
"u. c #AE4721",
"i. c #B54824",
"p. c #AC5621",
"a. c #B45B21",
"s. c #BA5922",
"d. c #866B3C",
"f. c #85683A",
"g. c #82703E",
"h. c #8B723F",
"j. c #946236",
"k. c #BB6421",
"l. c #C36C1E",
"z. c #C5721E",
"x. c #CB741E",
"c. c #CD7B1E",
"v. c #C6791E",
"b. c #C64328",
"n. c #D3472B",
"m. c #CE5827",
"M. c #C46321",
"N. c #CB6C23",
"B. c #C46A20",
"V. c #D56926",
"C. c #CC7521",
"Z. c #D37D22",
"A. c #D87724",
"S. c #E07826",
"D. c #827542",
"F. c #897642",
"G. c #837C46",
"H. c #8A7C45",
"J. c #827E49",
"K. c #8A7E48",
"L. c #937D45",
"P. c #76814B",
"I. c #7D824C",
"U. c #7F884E",
"Y. c #7D8147",
"T. c #7D8551",
"R. c #7D8A52",
"E. c #758052",
"W. c #CB8A1E",
"Q. c #D4841E",
"!. c #DB8B1E",
"~. c #CF9C1E",
"^. c #DC971E",
"/. c #E49A1E",
"(. c #E4981E",
"). c #DCA91F",
"_. c #E3AF1F",
"`. c #F7BD1E",
"'. c #E1B21F",
"]. c #DD8B21",
"[. c #D98223",
"{. c #E58526",
"}. c #E48C24",
"|. c #EC8C26",
" X c #E49422",
".X c #EA9C23",
"XX c #E89A22",
"oX c #F69C25",
"OX c #EBA123",
"+X c #EDAA21",
"@X c #F1AF23",
"#X c #F2B421",
"$X c #F5BC20",
"%X c #FBCC1F",
"&X c #FCCC21",
"*X c #FAC521",
"=X c #FED220",
"-X c #FFDA20",
";X c #848047",
":X c #8A8047",
">X c #83834B",
",X c #8A844B",
"<X c #84894E",
"1X c #8B8A4E",
"2X c #91844B",
"3X c #928B4E",
"4X c #928147",
"5X c #818651",
"6X c #848C52",
"7X c #8B8D52",
"8X c #928D52",
"9X c #9A8E50",
"0X c #869155",
"qX c #8C9254",
"wX c #8B955A",
"eX c #8C995B",
"rX c #829058",
"tX c #929353",
"yX c #969756",
"uX c #A09351",
"iX c #95A15F",
"pX c #909D60",
/* pixels */
">X8X~ T T D.G.,X~ D.T >X>X1X1X>X4XD.<X>X7XT.5X6X>X5X~ G.>XR G.>X>X~ ,X>XY.E ,XJ.K.>XG.,XY.<X,XJ.T G.H.G.>XeX;XU.<XY Y.,XE J.D.H.",
"d.1XU.C K.8XR R Q L H.5X>X>X>X7X6XH.Y E R E.5XR R.P.R.I.7X6XY.>XG.J.C T ,X>XH.~ E D.T G.~ 7X>XF.>XH.<XE E <XU.~ 1X<XU.:XK.T K.>X",
"K.,XR F ,X~ K I ^ ,XQ J.F 6X<XD.Y.,X7X<XQ ~ ~ ! R ~ >X~ wX0X! 6XE F.Q G.F T G.>XD G.G.E Y.E ,X>XT g.K.G.N ~ >X<XG.>X<X,X>XQ E K.",
",XU.Y.,XQ ~ W ~ 1X8X~ ~ J.U.I.<X~ >XY.0X0XT U.W J.5X,X6X6XqX7X<X>X>XH.,XT G.:X<X1X,X>XY P <X<XT G.D.G.H.E qXK.E G.<X,X3XH.H.G.R ",
"Q J.G.J.~ Y T.T.6XT.5XQ Q Q ,X6XG.G.6X<XR I <XW R T.T.iX6X~ U.:X3XH.J.K.G.;XG.D.1XE U.<XT G.G.G.3XE <X,XT tX>X1X>X;XG.8XT G.>X>X",
"I.E T T ~ T I.W T J G >XE Z <X;X~ D.Q V I R ! I.W R.R.7XT.E.,X1X>XD.F.D.>XtXT g.1X>X,X;XG.H.G.qX>Xg.T G.,X,XE >X>XY.,XE G.D.<X>X",
"Y.6X~ K R >XE G.T.~ E W Y ;XG.;XG.~ Y.S W ~ E <X7X6X6XW 5X~ ,XY.G.<XK.G.5X,XJ.,XE L.;XE <X,X>X>XF G.,XE ,X,XT.T E ;XyX:X:XqX3X,X",
"5XJ.Q 5X>XQ Q <X~ Q G.g.~ U.1XH.L U.~ Y.~ G.,XY J.9X^ 6X6X,XU.P <XG.H.,XF.K.,XqXH.2XtX1XG.G.H.3X>X>X>X,X4X,XT E E H.>X1XT >X,X6X",
"T Y >XK.T Y ~ <XT.J.Y Q >XK.<X>XG.K.E 7X:X>XY.,X1X9X~ >XG.>X>X7X>XG.D.T H.,X>XtX1X3X,X0X;X;X,X>X,X>XG.:XF.3XF.>X;X8XtXU.;XtXY G.",
"G.W T.I.T G.T Q K.5X,XT Q C C H.<X7X3XG.0X<XG.:X;XeXR.~ 0XG.E >X,Xb ..X.0.;XE ,X3XH.R Y.>X8X:XD.,XH.3XH.G.0X3XG.3X,XY.R T T Y F ",
"~ ~ W R >XQ K L ~ J.! K ~ I.E T 3XG.;XC D.H.6XG.C >XT.>XR G.I.~ >XD.d.r.e.f.T G.L.D.G.G.Q ,X,X2XH.G.T 1X:X0X3XG.1XE ,X,XL K.T G.",
"E >XI.R W R T C >X5XI W R E J.,X:X~ E E ~ G.Y.>X,X6X<XQ 7XU.I.Y >XG.F.E <X6X<X9X3X;X8X,X:X>XG.g.8X1X~ U.;XD.,X8X<XT >X,X1XY.E ,X",
"Y 5X<XT R Y B T J.Y Q R H T 5X5XT E P ~ I.~ P >XY ~ W R U.E E <XP.>X,X2XT ~ G.D.tXqXT >X,X,XG.>XJ.>XG.Z D.;XG.J.6X>XY D.J.T F.Z ",
">X~ T G.T H Y ,XH Y ~ I Y Q U.B P >XY ! R R ~ <X6X1XY.U.! R Q <XE qX<X>XT :XH.G.F.,X,X,XH.;X,X>XH.7X>Xd.,X,XtXC >X,X~ <XQ 5X1XQ ",
"Y <XE T K W >XJ.I.B P Y K I.<X~ ~ ,XT Y J.<XT.H R 5X5X0XI.R <X<X>X:XE Z F ;X;X7X3X4X2XE E J.G.<XE H.:XU.,XK.,XG.>XQ tXF.J.~ R >X",
"E ~ E ~ ~ W K Y ~ F C H H T 6XE >X<X~ P <X~ P ! H W R Y W J.;XE Y.,X>X<XD >X1X7X1X,XY G.>XE G.>X<XE <XF.G.G.T 7XR R ,X>XK.T R L ",
"<XQ ,XR <XG.~ B K.Y ~ Y I <XG.>X1XH.V J I.T.R E ~ R.Y ~ E 1XE E W <XE n D S ;X2X1XF ~ <XE F F qX>XE H.H.G.g.<XU.<X3XU.E >XU.>XE ",
"K N R E T F U.1X:XT D F T 0XtX1XE <X~ v R.<XK.H.H.>XP n ~ E 6XE H g . . . O g c g.G.>X;XV E ,XI.Y Y.J.>X3X<XF ;XqX<XG.Y.>X;X>X~ ",
"Y G.Y Y K.>X>XG.>XE T J.I.U.>X,XY.R P M Y ~ T Q m 2 X . < J Y x 2 @ > @ X X   X . d Y.Y.F 1XT D.G.1X>XK.,XF E ;X1X<X1X;XQ G.R K ",
"<X>XqX7X7X1XG.C H.>XY <X:XT ;X;X;XE H Y ! R R 2 . . . X = c - $ : t 5 @ X X     o @ s Y.! Y.~ E K.0X5X<X3X>XG.>X1XY.Y.Y.T E G.Q ",
"D E 8X,XY G.G.;X<X>X1X>XE T <XH.<XY.~ V J V = . . $ @ @ @ # 4 $.M.i.4 $ @ @ @   @ 4 X m Y >XE G.G.>X<X0X>X;XT 1X<X! I.,X,X! ,X>X",
"tX;XG.>XY <X<XH.T 3X;XH.7XJ.1XuXF Y I.C V < . . @ 6 % @ % 5 >.z.A.p.% # % # % @ $ 0 # c ;XH.H.D.1X>X>XE >X,X~ ,X>XU.Y.,X>X;X2X<X",
",X1X;X<X,XG.0XE Y <X<X<X;X~ Y ,XE >XE U.V X : % 5 6 5 5 5 =.Q.c.{.A.4 % % % % @ 4 w $ c h g m T T E H.U.eX,X>X>X;XY.E F Y ~ <X,X",
"F ,X1X3X1XJ.<X6X<X>XtX>Xg.>XE <XI.H.D.<XY o 4 6 w >.$.{ 3.^.^.OX(.x...& 4 5 5 %.} w - : @ X . B C ! >X~ >X<XY.J.! I.E ;X<X~ E >X",
";X>X;X,X>X7X7X6X7X7X>XF.G.>X>X>X~ qX~ N n = @ r 2.x.c.^.&X=X$XOX!.2.} { *.>.1.x.,.0 4 : @ X . C 5X6XI.T.H G H W Y.T U.:X>X3X,X:X",
"U.1XqXqX;X:X1X7X6XK.G.G.H.,X8X7XE U.2 . @ @ @ w V.{. X+X`.`./.Q.c.1.} -.V.l.Z.].Q.,.] r $ @ X h U.~ ! R H J ~ H F ~ 6XU.>X,X;X;X",
"R ;X1X1X1X7X1X0X>X2X0XU.J.>XT G.G.d # : X , 5 6 >.S.].Q.Q.v.c.1.2.2.} &.N.}..X+X+X&X).r 4 @ @ o W K R J G.T ! 6XR E 7X6XtX:XF 3X",
"H.qX:X1X>XqX<X5X>X>X>X7X7XJ.6X6X6X+ $ 5 , [ #.] *.M.l.x.9.} *.7.*...q [ k.1.,.>.=._.-X3.0 5 > = Y Y P P I.I.~ ~ R ~ eX6X,X2X:XtX",
"G.,X>XU.E >X0X;X<XK.R H eXeX! I.R .   @ 6 @.n.#.{ &.>.1.$.*...*.t.o./ *.l.:...&.] ;.&X#X<.{ 4 1 L Q R ~ R <XP ! ^ eXeXtX6X6X>XG.",
"I.D.0X>XH.>X1XE Y.>X7X<X5XrX5X6Xf . X   ] n.i.] ] } ] [ *.[ / ( | ' ( y.a.a.9.7.$.&. X+X!.=.4 $ c Y.>X>X>XU.R ! pX7X~ 7X0XeXG.T ",
",X,X,XG.P.>X;Xg.G.7X0X>X5X7XG.U.< . @ % i.n.i.t $.$.e 9 / ( ( ( ( ) ) o.t.t.:.8.7.&.4..X].4.r 4 @ h <XQ ,X<X>X6X<X~ Q ,XqX~ G.>X",
"3XG.3X,X:XT >XU.E 5XI.R R ~ R ,Xx o $ 5 } 2.M.} ] ] 8 9 / { ) O.O.X.X.) ) *.t.[ ` } { <. X{.>.6 4 X c ;X,X1X<X7XJ.5X5X6X<X>X<X<X",
"G.E E H.>X>XI.H.Y Y <XT.>X1X<X>X>Xh @ 4 t >.M.N.p.] q / | e.h.w.e.A X. ._ ) | 9 8 8 $.] <.A.V.u.e $ g G.~ E G.E <XE 0XT.R P.~ J.",
"E Y.T ,XJ.<X>XT I.~ I.U.;X<XI.<XY.o @ & r 2.A.|.M.{ *...( [ >X<XF.Q 9.O. ...( / 9 8 } } $.&.& 4 r $ x ;XK.~ G.>X<XG.G.R <XK.R >X",
"T E >X1X,XJ.6X<XwXrX1X~ ~ G.T E B X @ # 0 Z..X].[.*...` ) ' >X<X>XY.R e.q.L 6.' 8 0 } $.{ 4 #   $ $ x H.~ R ;X,X,XG.F E 5XK.<X,X",
">X0XT.,X;XiXrXI.R <XU.~ C ;XJ.C E 1 @ # u  X!.x.4.9.&.' ' h.:X>X! >XR q.X.} ] ..9 9 } } ] % # # $ X N I.T G.<XE ~ T qXI.wX1X7XG.",
">X8X6X0X<XT.P.I.K I.! Y.>X1XD.J.<Xh @ # =.#XW.-.{ $.&./ ( e.>XD.H.I.d.O.) ) ( [ &.7.} ..t & # @ 1 c Y L F.T ;X<X<XY.I Y Y.>X>XE ",
"D.T.wX>X6X5X5XY.7XH.T ~ ~ D.>X5XR s # 4 w +XW.t $.e 8 9 / ( 6.0.F.T 6. .( ( &.8.7.} &.C.} & # - Y W H T G.G.E >X>XR R >X>X6X>XG.",
"J.,X8X>X>XT.6X<X6XY.T.~ ~ >X5XI.Y < @ $ 7 ~.).0 $.r 8 8 9 / ) _ ' Q d.) / / 8.8.7.7.Z.|.k.4 # $ j Q Q ~ ~ tX>XI.E T Y.E G.T E 1X",
"G.,XE 8X7XT.rXwX5X<X6XD ! ~ ,XR Y = X @ , W.&X%.e } ] 8 q 9 / / ( A J.d./ [ &.*.] >. X X{.k.$.> X R J.J.P.<XH.,XU.R >XP E G.H.<X",
"<X,X<XE <X7XwX>XT S R I Y R I.I Y d . X w Q.$X#X;.t $.{ 8 8 q 9 / y z e } *...{ p.Q.].OX}.4.*.5 X J ^ L U.Q R 6X<XG.<X5XU.<X~ F ",
"R H.>XR.<X,X<XD.E >XG.<XwX>XM I.I.O $ 6 %.%.y 5.OXC.{ } { e } } 8 / [ ` &.} >.5.^.(.+XOX9.; * $ < Y ,XG.Y 6XQ R E Z <X>XE U.<X>X",
",XH.P.7XqX6XT <XU.>XG.>X>X;XR Y R < * t 5 , > 7 3.oX>.] } $.7.7.{ } 7.$.} <./.`.=X*X+Xz.4 $ h j M J.~ Y T I <X~ T ! ~ Q I.<XY.! ",
"E <X<X1X,X,XT >X,X3X:Xz u T Y ! I.n . : * . $ 4 } A.A.s.y ] } ..} $.} } } v./.*X'.;.%.{ 4 p T.L F >XS L G.>XI.T Z I.R E <X1X<XG.",
"R R 7X>XwX<X>X,X7X>XH./ b H.E 6X>XE x + X X X : t a.M.V.i.@.+.X...] 4.-.t W.$X_.r ; # > , d Y C G.>XT C T J.R T ~ Q U.U 5XE G.U.",
"E T <X~ R.<X7XY.Y.G.F | j.Y.>XE E Y <XP c 1 X : 6 $.i.u...u.b.b.@.-.C.z.C.+X#X,., $ @ X X c J.J.K.Q T ~ Q R G.~ I.K R P ! U.Y.6X",
"~ 0XE ;X6XG.>X6X<XD >Xw.O.H.<XU.E B T ~ Y C = . > r ..r 4 a @.O.t N.B.C..X Xv.{ % @ @ X j P J.3XT J.P.Y.5XR Y E R ~ P Y W 6X~ 7X",
",X8XI.1X5XJ.G.T :XT ~ T ' h.,X>X~ Y.E ~ G.P ;Xc X > > @ * , > # ; 7.A.A.}.c.t % @ X 3 K G W >XQ L Y 0X>XR D.R W J R T J.Y.1XyXtX",
"1X>X1XE E H.>XT ;XY E E u R 6X,X>XE H W W W 6XK.l s 3 X @ @ @ @ $ r t.%.%.=.4 o B V W E.H I E E >XK P.T.K Q ~ I.T W C F ;X;X;XF ",
"H.T ,XI.E ~ 6X;X:XC ,X>XY ~ >XG.D P H l R.I.Y R D ~ T D B 2 @ X @ : ; $ @ 4 4 O G.~ ^ K J H ! U.R ~ N Y Q E C >X>X~ I.! ;XU.E H.",
">X,XQ 5XG.G.,XE E E ,X,XR R >XI.>X,XP J ~ E >XE B ~ Y ! Y T k 1 3 s g c d o = < ~ E ~ T ~ ~ Q Y ~ 0XG.G.,XI.Q Y.T G.Y.>X,X~ :X:X",
"7X>X>XT T G.>XE Y.;XH.7XK.R P.R.~ W J v M R J.F H ! R P.Y Y >X! ~ Y.eX6X<XN k P ~ U.<XT E ! K I.6XE A D.>XY.I.I.Q U.>X>XG.F D.7X",
"G.J.tX:X>XtXD.T F E Z ,XT E J.<X! ! Y U M Y R ! K 5X>XY I.K E E Q D 1X<XY.T P Y.E E >XD >X~ E Y.T D.} h.~ G.>X>X5XJ.1XE T 1XK.T ",
"G.,X,X3X,XH.J.G.D.Z ,XK.>X<XT W Y E 5XI.Q H Q H L T 8X<X6X~ T 1X>XJ.>X~ N C T >X,X,X,XE ;X>XT Y 0.O.f.Q Y E T <XJ.E G.G.E 3X>X7X",
"G.1X>X>XE E Y >XG.F.8XK.3X1XT E F ,X,XT 1X>XR P T.T 7XE ~ I.>XG.Y <X>X>XT g.>XT ;X7XY.U.G.T G.b ] f.5XK >X6XQ Y.G.>X>XG.F.3XT ;X",
"1X<X,X1X:X<XG.<XJ.7X,XG.<X2X<X>XE 1XH.~ G.G.W >X<XI.<X>XqXrX7X:X,X<XE T ,X,XG.,X,X>XD D.G.E qX>XT I.~ Y J.>X~ >X:X:XG.G.3XT 3X>X",
"Y.,X>X1X>XeX,XG.G.~ >XT 1X>X>X,X,XY.,X>X>X<X~ U.>X<X5X~ 6X5X<XG.E E ,XH.F H.G.G.K.T J.G.>X6X>X3XE >XR R Q Y G.H.,X,XH.,XG.,X7XI.",
"U.E >X<XE 1XG.3XG.T Y.G.G.Y >XC G.,XH.,X1XI.>XG.Q T.~ R I.>X<XF P G.8XE R ;X1X>XD.Q K.>X~ 6X<X4XG.Q 5XI.<XR 6XG.7X,X,XtX9XK.7XqX",
"7X,X3XY.,X7X<X1XT C C >XE >XE F R E ,Xg.;XE Y.R I.6XU.5X~ 1XG.H.Y.H.>XF Y F.G.E 5XK.,X>XH.G.3X:XG.G.<XY H T 6X7X8XH.E 3XJ.J.7X8X",
"J.7X,X;X,X>XU.R T.~ G.,XE 6XD.E Y.,XqXE Y.E ~ 6XR.7X,X<X>X>XE 1X>X<X1XE Q K.1X,X5X6XwX7X3XH.4X>XH.U.6XW Y 7X0XI.,XH.E U.6XwXQ 7X",
"J.G.Z <X>X,XI P.1X,XG.>XG.;X>X,X;XY.>XE I.G.J.>XP.tX>XT.<X;XU.0X>X>XG.T Y >X2X7X<X1XK.8XG.D.H.E ~ >XR E >X>XE <XU.;X8X1X8XJ.Q F.",
"J.Q ,XH R Y P U.E ;X! <X,XE ,X,X,X0X>X~ rXJ.,X6XR >X6X<XU.<XI.Y.~ H.G.G.D.:XK.,XH.F.pXF.E g.I.I.~ 0XG.T T E <XJ.>X6XJ.J.Q D.K.6X",
">X~ D.,X6XG.E J.F E 8X,X>XH.g.E G.,X7XE <XeXrX6XY.<XR.>X1X<XY.qX1X,X>X~ T :XH.K.:X>X6XK.:X>XC T E 6XG.H.E ~ J.>X~ E J.J.Q G.>X,X",
",XF.>X>X~ ,XG.Y.,X;X<XG.C 1XG.>XQ U.<X,XeX0X>XwXY.R.;X>X6X<X;X8X6X<X>XD E ,X2X5XyXF.;X<X,X1X>XG.1X,X,X>X~ J.>XJ.>XE H.H.K.,XQ ~ "
};
