/* XPM */
static char *destroy_8[] = {
/* columns rows colors chars-per-pixel */
"64 64 124 2 ",
"   c #574A25",
".  c #5B4C26",
"X  c #524A29",
"o  c #584C2B",
"O  c #57502B",
"+  c #5C532C",
"@  c #5F5A2F",
"#  c #5F5A31",
"$  c #555338",
"%  c #5D5C3C",
"&  c #614724",
"*  c #624C27",
"=  c #694926",
"-  c #654E29",
";  c #6A4F29",
":  c #704B27",
">  c #744E2A",
",  c #64542C",
"<  c #6B532C",
"1  c #6E5A2F",
"2  c #74532C",
"3  c #7B552E",
"4  c #75592F",
"5  c #7D592F",
"6  c #645631",
"7  c #645C32",
"8  c #6D5C34",
"9  c #615D3A",
"0  c #735630",
"q  c #7B5630",
"w  c #745B32",
"e  c #7C5B32",
"r  c #656135",
"t  c #6C6236",
"y  c #65643D",
"u  c #6B663D",
"i  c #66693D",
"p  c #6D6B3E",
"a  c #756236",
"s  c #7C6136",
"d  c #746439",
"f  c #7B663A",
"g  c #746C3D",
"h  c #7C6C3D",
"j  c #6F703F",
"k  c #74703F",
"l  c #7B713F",
"z  c #646642",
"x  c #686741",
"c  c #666A43",
"v  c #6C6D43",
"b  c #726E41",
"n  c #796F40",
"m  c #657146",
"M  c #6E7245",
"N  c #6E7549",
"B  c #747344",
"V  c #7B7543",
"C  c #757946",
"Z  c #7C7A46",
"A  c #737549",
"S  c #7A7649",
"D  c #757B4A",
"F  c #7C7D49",
"G  c #787F50",
"H  c #814C28",
"J  c #82562D",
"K  c #82592F",
"L  c #835D32",
"P  c #8A5E32",
"I  c #856235",
"U  c #8C6336",
"Y  c #836639",
"T  c #8C6739",
"R  c #846C3C",
"E  c #8B6A3A",
"W  c #946535",
"Q  c #946836",
"!  c #936C3B",
"~  c #996E3B",
"^  c #82713F",
"/  c #88703D",
"(  c #9D713B",
")  c #A3753C",
"_  c #827542",
"`  c #897643",
"'  c #837C46",
"]  c #8A7C45",
"[  c #837E49",
"{  c #8A7E48",
"}  c #937D45",
"|  c #7D8047",
" . c #76824C",
".. c #7D824B",
"X. c #7F884E",
"o. c #768051",
"O. c #7C8551",
"+. c #7D8A52",
"@. c #848047",
"#. c #8B8047",
"$. c #83834B",
"%. c #8A844B",
"&. c #84894E",
"*. c #8B8A4E",
"=. c #928147",
"-. c #91844B",
";. c #928A4E",
":. c #818651",
">. c #888750",
",. c #848B52",
"<. c #8B8D51",
"1. c #918E52",
"2. c #998F50",
"3. c #869254",
"4. c #8C9254",
"5. c #869559",
"6. c #8B955A",
"7. c #8C995B",
"8. c #929253",
"9. c #9A9956",
"0. c #919C5C",
"q. c #A09351",
"w. c #97A05E",
"e. c #909D60",
/* pixels */
"$.1.F V V ' ' $.F _ V $.$.*.*.$.#.` &.%.<.+.,.:.:.>.D ' $.C [ ] _ F &.@.X.Z *.[ [ %.' @...&.$.[ V ' ] ' %.7.| X.:.B ..#.Z ' _ ] ",
"R *.$.g { <.S D F h ] [ [ $.$.<.*.] B C A o.$.D +.D +...*.' I U L e d V $.[ { Z Z ^ V ] C 4.%.] @.%.*.Z Z &.$.| ;.,.X.%.@.V [ %.",
"[ -.C k { [ b A D >.[ [ l ,.,.V @.&.4.,.Z F F A V Z ^ R ~ ~ U Q L J f ` V l [ [ l [ Z | | Z %.%.C R { _ t F $.&.] ..&.#.@.V ' [ ",
"%.X...%.S F A F >.1.F F [ &...&.F Z ..3.3.V F d s e P Q ~ ) ( W R ' ] %.' ' ' *.%.&.[ f M &.$.l ] _ [ ' Z 6.@.Z Z *.*.*.] %._ F ",
"[ F _ [ F B ..+.:.:.:.V F V &.,.] Z ,.$.B 8 4 , - 6 0 T U W P U ;.] [ [ ' $.^ Z *.l ^ L R @.' ' *.Z &.%.V 8.@.<.@.[ ' <.V _ %.$.",
"X.V B V [ V o.A S x c >.V h *.@.[ V V c v b 8 O X 6 8 e q q J R %.^ ` _ @.1.V ^ &.*.&.P K Y f ` Y R V ' *.%.Z $.@.@.&.' ] Z &.$.",
"F ,.F b D $.Z [ :.F V A C @.Z @._ F ..k A F Z # O @ , ; 0 > 4 V [ $.] ' $.>.@.%.l #.@.R K L 5 3 > ^ &.V %.%.X.V Z @.9.' %.4.*.%.",
"$.[ G %.$.V S &.F S ' _ F ..*.{ V X.Z F F ' %.r o 8 i ..$.h V B $.[ { %.` ] *.4.#.#.8.#.3 2 > 3 < f %.%.] -.V Z ' ' $.*.V @.>.,.",
"V b $.[ B V F &.O.F B V [ [ &.*.V $.Z 4.@.@.$.%.%.2.S $.[ $.$.4.@.' _ V [ %.%.8.%.*.&.%.J 3 5 3 2 2 I ] ` ;.` [ #.4.8.X.$.1.Z Z ",
"' D O.$.V Z V S { >.>.V _ v g ] *.<.-.] 4.&.Z %.@.7.+.S ,.' V $.*.V Z ] @.%.Z *.;.] Z l J K 3 > 3 2 I J s #.*.] ;.&.Z V V V B h ",
"[ F B C $.F k n F [ D b F F V V -.[ @.g _ ' <.] g | +.*.C @...F %.[ [ <.$.Z V [ =.^ [ Y H J I L 2 > ; 1 - 1 Y V %.V &.&.V ] V Z ",
"Z $.O.B B D V g [ :.N A C ' [ >.*.F Z Z F F | @.%.,...[ <...$.B ..' ` Z &.&.$.2.;.#.;.E P _ V R E 2 ; , * . 2 ^ <.V #.%.*.F ' *.",
"B :.,.V B A d V [ B B b M S $.+.V Z M Z ..F A &.B | A C X.Z Z &. .%.*.%.C F ] ' 8.4.V { %.%.[ @.| f 4 1 a w . t >.[ B ] [ V _ V ",
"$.F V _ V p B $.w 0 < o g F ..p M $.C C D C F $.,.<.X...D C B ,.Z 4.*.%.V { ' ' / *.%.%.' $.%.F #.*.%.l %.%.4.7 $.*.[ $.S $.*.V ",
"B &.Z S b A _ L e 0 8 7 u F ,.Z F %.V B [ &.O.v C +.X.,...C *.&.X.#.Z l l %.@.*.;.=.-.Z ' [ ] &.' ' @.$.%.[ %.' D V 8._ [ F B $.",
"Z [ Z F S y 8 g F V g M v V ,.F $.*.Z M &.C M F i N S C A ..@.Z F %.%...k @.*.3.4.#.V Z $.Z Z %.&.C %.] ' Z V <.B p $.%.' V F n ",
"$.D $.B @ g Z p [ l Z B N &.' $.*.] p x ..o.S [ F ,.B F [ <.Z S D %.$.p Z g $.*.*.l F $.Z l l 4.$.Z ] { ^ @.@.| &.@.k | @...%.D ",
"g u B 7 t V ..*.%.l V k C 4.8.*.Z &.D 9 +.X.{ { @.@. .S ..C ,.Z v A u B ..C *.1.%.@.$.%.p Z %...B ..Z %.*.&.l &.4.$.7 Z @...@...",
"B [ B r @.$.$.] [ Z V F | @.&.%.| C j y B ..V Z $.u v b v c D Z ..B ..B B Z Z Z %.%.| | l &.Z ^ ` 4.%.' %.^ l @.*.&.r l [ [ F v ",
"&.$.4.*.*.*.' g [ $.V %.#.C ' $.[ ' M M D C $.%.$.A p A Z $.,.F &.Z *.,.M M $.&.@.@.&...Z | C ' [ ,.&.&.;.&.@.$.<.| Z | V V Z Z ",
"k Z <.%.B ' [ @.&.$.<.*._ V *.] $.Z F c i M $.,.S V A F X.V &.$.' *.,.D p `  .$.;.@.[ l C &.Z [ [ $.&.3.%.@.C *.X.| $.&.%.F %.$.",
"4.@.@.@.B &.&.[ V *.' ' <.F <.q.V C ..k x F A M b D o.F c C $.1.4.$.&.B V %.$.$.[ Z Z %.@.' ] ^ %.%.$.Z $.%.C %.$.$.Z %.F @.-.*.",
"%.*.@.&.%.[ 4.Z Z &.&.&.@.F B *.Z &.Z ....F g ..*.F D F A ,.;.V @.*.Z V $.1.$.@.' $...%.C ' Z V C Z [ X.7.&.%.%.$.| Z l B Z ..@.",
"l %.%.#.*.Z &.&.$.$.8.$.^ ..Z &.Z ] V ,.F b Z 4.B F A x B *.*.Z ..$.V C F V X.| $.&.&.Z V %.Z V g F %.Z X.$.F [ C ..C %.&.C [ ,.",
"@.%.t g @.<.<.,.<.<.@.] ] @.$.$...8.| S ..B $...u A b D D g F F $.,.| &.Z %.%.V @.F ..V V ' $.Z :.,.X.O.b c v A | Z | %.&.;.%.@.",
"&.Z @ t [ @.*.1.,.[ ' ' ' *.1.<.Z &.[ l [ @.[ X.A b c F | $.Z C F +.S $.[ @.$.[ _ 6.,.Z h C Z [ X.F D B u x F c B Z 3...@.%.@.' ",
"C k + + [ <.&.4.[ *.,.X.@.$.V [ F $.$.X.%.&.Z Z D V B O.z M | Z $...$.*.&.C %.Z Z Z 3.@.@.&...Z D b C c F V A 3.B Z <.<.8.] _ ;.",
"#.*.k + + $.&.&.*.$.%.<.<.F ,.>.,...4.5.,.1.$.B O.F v M z c C &.,.$.:.,.[ &.%.C F V $.D Z $.&.Z S B M B ......F Z F M i @.*.%.;.",
"' { $.r   + ..| %.F A M 7.7. .F 5.,.F ,...] [ | D +.D i A v | +.$.[ &.3.B l &.@.$.$.[ V | ^ l M B V C ..C X.M S F 7.F + @ i Z Z ",
"..' 3.t * , %.l F $.4.$.$.5.:.,.5.....@.>.,.,.Z ,.B B O.A B &.,.@.@.$.6.*.C $.*...6.%._ $.V B ..$.Z >.$.%.X.C  .e.,.F 7 + p l V ",
"%.%.%., . g @.' ' &.3.$.,.<.[ X.+.D %.,.,.[ V <.&.B l F D $.Z &.&.Z @.%.*.@.&.&.g ..v c $.M ..M Z ..X.V %.&.$.,.X.F Z < C Z ] @.",
";.' ` * 4 C @...Z ,.F Z A F C %.$.*.X.o.+...[ G S C Z | Z Z $.#...X.| %.....%.1.C C  .v S B k Z +.V V @.%.*.&.<.F ,.' f &.$.,.&.",
"[ V w * h @.$.[ g A &.+.$.4.$.&.$.F F D c | ..$.$.%.X.Z Z Z *.[ C B &...F Z Z 6.Z B F Z v v Z B B b V Z | Z [ Z &.Z R _ B ....[ ",
"C Z < - t *.F V ..F X.$.' &.X.$.*.+.B +.....*.B X.<.@.' V $.&.$._ Z ..D &.Z Z *.C v Z Z i v V B v _ _ @.%.Z ` ..&.' L V ,.[ V ..",
"V g < < 8 [ ,.$.6.5.*. .F @.V Z F B C [ D | ' Z [ :.8.[ &.Z $.,.$...C v V C Z *.S v m c M c F -.F Z ' ] F C [ *.*.' s V ,.@.*.@.",
"*.] 4 , 8 0.5.| D &.$.Z g [ F h $.[ ] ' ....' @.Z b V ....*.@.$.D $.Z N Z @.Z V A +.D M F c [ [ V Z Z  .V [ $.' S V <.Z 4.*.<.[ ",
"[ { L < g O.F  .g F F | @.<.] F &.[ _ V @.F B M ,.V %.[ V :.$.' ' ..+.V %.<.;.$.[ ..$.Z C F [ ..C ..B V _ V @.X.*...B g ..$.@.F ",
"V F s , V ,.,.F <.' B ..Z V [ ,.A B D V C v y v ..[ ;.' V 1.Z &.*.B V g Z X.$.| V { <.&.Z F Z S b A v V ' [ [ $.$.C C ^ [ ,.$.[ ",
"F %.Y ; g +.,.,.,.$.:.Z F &.O.X.B $.V [ F B @.F $.V B B $.g %.$.+.C [ *.Z ..X.,.,.<.$.X.*.B A A x S Z F Z 4.$.Z Z B F s ^ V Z *.",
"[ #.e e d o.3.6.X.$.,.b D [ %.S M C A h h Z ..V i B B C $...F V &.B @.,.[ *...,.D +.4.C | A c z v F [ $.F *.' *...C R 3 Z ] ' &.",
"&.#.s q L [ 4.$.C v Z N B Z F M B | C v g V D *.C u i y B D A A %.B B $.Z *.@.B x x D Z A o.,.F F A F V ..F B ,.&.a < s $.:.Z l ",
"Z ' [ V I U [ ` Z $.[ &.6...i +.F N A N v B $.%.v c A B % c v B $.F F $.Z #.B ,.A c v g b D +.c A B >.Z B +.F V Z w ; f Z X.X.%.",
"#.' X.<.{ L J %.$.&.` [ 7.$.Z B C n B B ..M | A y B A % $ c S v v G $.@...$.M [ F Z  .C F F A A x [ $.b S M $...l D 8 g | %.| Z ",
"Z &.&.*.$.U a $.@.;.%.*.Z l M C ..C Z V D N C M M A z % x B A M F S V <.' $.$.F Z Z Z F V O.G n V $.p V Z %...V l $.C Z ,.&.,.[ ",
"D D <.$.6.E _ %.<.&.@.@.Z [ [ ,.$.Z F B <.4.$.D D D 9 C N v C B :.S b %.] >.$.$.$.:.%...@.O.B n ' $.V g D F Z V F F ..m ,.F @.+.",
"Z V $.| +.Y { ..Z [ V *.*.| $.| Z Z $. .Z 1.+.c v A S x M M $.B [ F b $.' [ [ B Z +.*.F S b [ [ ] V V F V F ' F F B B M A ....&.",
"F 4.Z ' $.J _ &.X.g %.&.,.@.&...Z i Z F B S D D ,.A D D V i M F Z @.h Z <.%.Z @.Z &.@.b A M [ ;.V F ....,.B M V D F M B B ,.| ,.",
"%.1.F <._ L I V #.Z C ..$.%.&.%.Z ..F Z @.v $.,.$.4.,.B i M D B F V ' ] 8.Z F Z [ %.b ..c D $.Z V B ,.$.B V F B i 7 g [ ..<.9.8.",
"*.$.<.Z Z ] Y Y ' l C l Y ..&.%.[ Z v A A D ,.[ $...B V N N X.>.V *.%.%.*.Z %.X.X.F A G v N [ Z $.v  .$.B S Z .., X p Z ' $.#.l ",
"] V *.F Z Z &.I L e 5 2 2 F $.[ B v v % +.| B C B Z B ..F V +.F ..$.Z Z [ $.4.%.' D G B c v D ..S F u B S Z v V * 7 ..Z @...Z ] ",
"$.*.V :.[ [ %.Z L K 5 2 > g ....$.*.M i F Z $.Z g ..B F M V $.$.Z Z ..<...Z X.B F Z [ B Z F F M F 4.Z [ %.| V a & g | ..*.Z #.#.",
"<.$.[ V V _ ' Z @.I K 5 2 g  .X.F A x % y S [ k c A A  .B B $.Z Z ..7.,.&.$.| C F X.,.V V D b ..,.Z ..' [ [ V < < ..$.@.' l ' &.",
"[ ] 4.{ ' 8.' V l l J P 2 2 Z %.D D C c y A D D A $.%.p 2 w F V Z k *.,.| C B | F Z $.V $.C Z | C F $.%.F ] ..%.X...*.Z l *.{ V ",
"[ @.*.;.;.' [ ' ^ h { U K 2 2 M D S &...Z v V M b V <.s 2 > g ;.$.[ @.Z u g C #.&.#.%.C @.@.Z B A $.&.V B Z V $.[ V ] ' Z ;.[ <.",
"[ *.$.@.' Z B $.[ _ ;.R L 4 = 2 h @.%.V %.@.C M ..V ,.2 2 ; R Z B &.$.$.l ^ @.C [ <.@...] C @.V g [ &.B $.<.S | V *.$.] ] -.Z @.",
"*.$.*.*.{ $.[ &.$.*.*.] I 5 4 2 f ;.' F Z ' B $.$.$._ 2 a 8 R { %.&.F Z %.%.[ @.%.%.g ' ] Z 6.$.B ..D B [ ..F %.{ { Z ] ;.V 1.$.",
"..&.$.&.$.0.%.F ' F [ Z / K 4 2 5 Z %.@.$.&.Z $.$.$.s < w e P _ C Z %.^ f R _ ] ` b n _ :.,.$.*.Z $.C D S B [ ] *.[ { %.] %.<...",
"..Z %.&.Z *.' ;.' V ..' Z s 5 = ; 4 ^ %.<.F ..[ S _ L q e L L 5 a Y R 5 2 5 e e 0 > 2 q V >.%.%.` F $...$.A &.' *.*.%.8.;.{ >.6.",
"<.*.;.@.%.<.4.*.V g g @.[ V K 2 , ; < 4 l B V B Y L f ` h E 5 J 5 5 e 2 > q 0 0 w e q f { ' -.%.Z $.*.M M V ,.4.;.] ' ;.[ [ <.6.",
"_ ;.%.' %.....C :.Z [ %.V &.L 5 5 4 w ; < < 5 L q _ %.,.$...l I 5 e e 5 3 3 q q w w e $.;.{ =.%.' ..,.N B <.,...%.{ Z ..,.<.' <.",
"F [ V $.@.&.M D 4.#.Z %.[ @.s J e e J 5 e J L e e %.%.o.,...$.$.e q 3 2 0 _ ` f e 3 f 1.^ ' [ Z @.X.C V @.$.F &.X.[ 1.*.1.[ V ' ",
"[ V @.B C C B X.Z @.C &.%.Z { e J s h h [ f e L q [ ,.$.$.&...| V s s h V { [ %._ Y w._ Z ` Z ..Z 4._ Z V F *.$.$.,.$.[ S _ { >.",
"$.F _ >.,.' Z F V l ;.%.@.] ^ f s %.<.Z :.7.,.V g $.,.$.*.&.| 4.<.%.$.F n { { { -.$.<.@.#.$.k V Z ,.[ ' Z S @.$.Z Z F ' [ _ :.>.",
"%.] @.@.Z %.[ @.%.$.&.[ k *.[ ..Z X.$.*.6.<.$.6.$.+.[ $.&.&.$.*.3.%.@.b Z *.=.*.8._ @.&.%.*.@.[ *.%.%.%.F $.[ ' $.F ] ] { { S [ "
};
