/* XPM */
static char *destroy_7[] = {
/* columns rows colors chars-per-pixel */
"64 64 184 2 ",
"   c #2E1F0A",
".  c #311F0B",
"X  c #35210B",
"o  c #3C220C",
"O  c #37280F",
"+  c #3F280E",
"@  c #3E3114",
"#  c #43230D",
"$  c #4C250D",
"%  c #55250E",
"&  c #5B260F",
"*  c #5A280F",
"=  c #432D13",
"-  c #492910",
";  c #562710",
":  c #542B12",
">  c #5C2911",
",  c #453619",
"<  c #463A1B",
"1  c #4A3E1E",
"2  c #443215",
"3  c #573518",
"4  c #5B3318",
"5  c #5C3F1E",
"6  c #573B1C",
"7  c #64270F",
"8  c #65280F",
"9  c #642710",
"0  c #6B2710",
"q  c #642A12",
"w  c #6B2A12",
"e  c #6D2E18",
"r  c #732A11",
"t  c #7C2C12",
"y  c #702F19",
"u  c #653216",
"i  c #6C3116",
"p  c #6F341A",
"a  c #6B3C1D",
"s  c #723216",
"d  c #783317",
"f  c #733219",
"g  c #7B361A",
"h  c #743A1C",
"j  c #7B391C",
"k  c #6D3F22",
"l  c #733F22",
"z  c #7C3E20",
"x  c #52401E",
"c  c #63401F",
"v  c #4F4824",
"b  c #4F4523",
"n  c #544423",
"m  c #5E4120",
"M  c #544E2A",
"N  c #5A4F2B",
"B  c #5C522C",
"V  c #555338",
"C  c #5D5C3C",
"Z  c #664122",
"A  c #6B4122",
"S  c #664A26",
"D  c #6E4C2A",
"F  c #764423",
"G  c #7D4423",
"H  c #724827",
"J  c #7B4A27",
"K  c #744C2A",
"L  c #7A4D29",
"P  c #69572E",
"I  c #66582E",
"U  c #65512B",
"Y  c #75552E",
"T  c #7C522C",
"R  c #76582E",
"E  c #7D5A2F",
"W  c #645B32",
"Q  c #615D3A",
"!  c #785530",
"~  c #735C33",
"^  c #7B5B33",
"/  c #65643D",
"(  c #6B663D",
")  c #65693E",
"_  c #6D6A3E",
"`  c #6B6134",
"'  c #746336",
"]  c #7B6236",
"[  c #756439",
"{  c #7B6538",
"}  c #736C3D",
"|  c #7C6D3D",
" . c #6F703F",
".. c #75713F",
"X. c #7A713F",
"o. c #646642",
"O. c #686741",
"+. c #666A43",
"@. c #6C6D43",
"#. c #726E41",
"$. c #796F40",
"%. c #657146",
"&. c #6E7245",
"*. c #6E7549",
"=. c #747444",
"-. c #7B7543",
";. c #757946",
":. c #7C7A46",
">. c #737549",
",. c #7A7649",
"<. c #757B4A",
"1. c #7C7D49",
"2. c #787F50",
"3. c #852D13",
"4. c #81371A",
"5. c #843A1C",
"6. c #8B3D1D",
"7. c #963115",
"8. c #953C1C",
"9. c #A03D1A",
"0. c #8F411F",
"q. c #91411F",
"w. c #854422",
"e. c #8B4421",
"r. c #854B26",
"t. c #854E29",
"y. c #8F4D29",
"u. c #964320",
"i. c #994520",
"p. c #944F27",
"a. c #82532C",
"s. c #8E592E",
"d. c #90552B",
"f. c #835D33",
"g. c #A34B23",
"h. c #AB4C22",
"j. c #AF5124",
"k. c #B25325",
"l. c #B85826",
"z. c #846235",
"x. c #836438",
"c. c #846C3C",
"v. c #916C3B",
"b. c #82713F",
"n. c #826E41",
"m. c #827542",
"M. c #8A7542",
"N. c #837C46",
"B. c #8A7C46",
"V. c #827E49",
"C. c #8A7E48",
"Z. c #937D45",
"A. c #7D8047",
"S. c #76824C",
"D. c #7D824B",
"F. c #7E894E",
"G. c #768051",
"H. c #7C8551",
"J. c #7D8A52",
"K. c #858047",
"L. c #8B8047",
"P. c #83834B",
"I. c #8A844B",
"U. c #84894E",
"Y. c #8B8A4E",
"T. c #928147",
"R. c #91854B",
"E. c #928B4E",
"W. c #818751",
"Q. c #888750",
"!. c #848B52",
"~. c #8B8D51",
"^. c #918E52",
"/. c #998F50",
"(. c #869254",
"). c #8C9254",
"_. c #869559",
"`. c #8B955A",
"'. c #8C995B",
"]. c #929253",
"[. c #9A9956",
"{. c #929C5C",
"}. c #A09351",
"|. c #8F9C60",
/* pixels */
"P.^.1.-.-.N.N.P.1.m.-.P.P.~.Y.P.T.N.P.P.~.W.W.!.P.!.,.N.P.;.N.b.c.:.P.P.P.:.I.V.C.P.N.L.D.Y.I.N.-.V.B.N.P.'.P.U.F.=.A.L.:.V.m.B.",
"c.Y.P.} C.~.,.<.1.$.C.V.V.P.P.~.Y.N.=.:.<.G.H.,.J.<.J.D.L.v.p.0.5.z ~ X.P.P.C.1.-.c.-.N.1.!.L.N.K.L.P.:.:.U.D.D.E.U.F.P.K.-.V.I.",
"V.R.;...C.V.=.>.<.Q.N.N.X.!.!.m.P.P.).F.:.1.<.<.=.m.x.d.g.k.j.q.q.5.L N.X.X.V.V.-.N.:.A.D.:.K.Y.:.c.L.N._ :.K.P.B.D.U.L.P.-.N.V.",
"I.F.D.I.-.1.>.1.Q.^.1.1.P.F.D.P.:.V.D.(.!.-.-.Y l 5.q.g.k.l.k.h.s.V.C.I.X.B.V.Y.Y.U.N.R &.U.P.-.N.m.N.V.-.`.K.V.:.Y.I.^.B.K.M.1.",
"N.1.N.1.V.=.H.H.W.W.W.-.1.-.Y.!.N.V.W.P.#.k s i ; ; q t 8.j.9.6.E.B.V.V.K.P.b.N.Y.X.z.q.f.V.N.N.E.:.!.I.-.[.K.~.K.N.V.~.-.m.P.K.",
"H.-.-.=.1.-.G.>.,.O.+.P.-.| Y.V.:.m.:.@.@.[ Z X X # & 0 t 3.3.T L.b.M.m.P.].-.b.U.Y.K.0.q.t.f.f.w.| -.m.I.K.1.D.P.V.Y.:.N.N.Y.P.",
"P.!.V.#.;.P.:.N.W.1.-.<.;.P.:.V.N.1.D. .>.1.:.@ X o $ & 0 r w | V.P.N.N.I.E.K.K.X.T.N.f.4.4.4.s d b.U.-.I.I.W.m.N.V.[.K.L.).Y.I.",
"P.1.,.Q.P.-.,.U.1.,.V.b.:.D.Y.B.X.F.:.D.-.:.I.B X 2 B ,.-.R } =.P.V.C.I.M.V.Q.).L.I./.B.0 0 7 & * K P.I.C.I.-.:.N.N.P.~.-.K.Q.!.",
"-.=.P.V.=.-.1.P.W.1.=.-.P.V.U.I.-.K.N.).K.K.P.P.V.E.1.V.V.P.P.).I.:.m.-.V.I.K.].I.E.U.P.r r w 0 * w t.b.N.R.B.V.K.).].D.U.).-.:.",
"m.<.H.P.-.:.-.,.C.Q.Q.-.m.@.} C.Y.).R.N.).U.:.L.N.'.J.1.U.N.-.P.I.-.V.V.K.Y.V.I.E.B.X.| 3.r t 0 7 q 5.g J m.R.N.R.U.:.;.-.m.=.| ",
"P.1.>.=.P.1.#.-.<.2.<.#.1.1.-.:.R.V.P.} N.B.Q.N.} D.J.I.;.K.D.1.Y.K.V.Y.P.:.-.V.Z.b.N.t.7.3.g s 0 7 % % % ; F -.Y.X.U.Y.m.N.-.V.",
":.V.W.=.=.<.-.} C.W.>.#.;.N.V.I.I.D.-.:.1.:.D.K.P.Y.D.V.).D.P.>.:.V.b.N.U.!.P./.E.K.^.p.8.x.m.c.T w 7 % $ o q R Y.X.I.I.I.D.N.I.",
">.P.!.X.=.=.[ -.V.>.#.( &.-.W.W.-.-.&.:.F.,.=.P.-.D.<.=.P.:.1.P.S.U.Y.L.;.1.B.m.].).:.V.I.Y.K.P.A.K a c S x # n !.V...N.1.$.B.| ",
"P.1.-.:.-.@.=.P.K h > # _ 1.D._ =.P.;.<.<.1.<.F.!.Y.D.D.<.;.;.U.:.).Y.L.-.C.V.N.b.Y.I.L.B.V.L.D.L.Y.I.X.I.L.U.B V.I.1.Y.1.P.Y.-.",
"=.U.:.,.#.=.| 5.6.G S n W D.U.:.1.P.-.=.V.U.H.@.;.J.F.(.D.;.Y.U.P.L.:.-.-.K.K.~.R.T.R.-.:.P.N.Q.V.K.K.P.V.V.P.:.=.-.].m.V.1.>.P.",
":.K.:.1.<.B A [ 1.| } &.@.-.!.1.P.Y.:.&.U.;.&.1._ *.-.>.>.D.K.:.P.K.P.U...K.~.~.].I.=.V.K.:.N.K.P.-.P.B.B.N.-.~.;.W P.I.N.=.,.-.",
"P.<.P._ @ I :._ V.X.1.>.=.U.N.K.Y.N.@.) F.G.,.:.1.W.=.<.V.^.:.,.<.P.V.&.:._ P.Y.I.b.1.U.:.-.X.'.U.-.B.L.B.b.U.A.U...B A.U.F.P.1.",
"} ( *., B b.F.Y.I.-.=.X.-.U.].E.:.U.<.W H.P.L.L.V.P.D.,.D.;.!.:.@.,.( =.D.-.E.].I.V.P.P. .X.I.A...D.N.P.Y.U.X.U.).K.x ..K.A.K.1.",
"=.V...N V.P.D.N.K.-.-.1.S.K.U.P.A.*. ./ >.1.-.1.:.} @.@. .O.<.;.D.=.D.=.;.:.:.:.Y.I.A.K.X.U.-.:.N.~.P.V.I.b.:.A.Y.U.< ..V.N.<.#.",
"U.P.).I.Y.Y.B.} P.K.-.I.I.:.K.P.K.N.=.*.:.<.P.I.W.=.#.=.;.P.!.D.Y.:.I.!.%.&.P.U.A.K.P.D.:.A.-.N.V.~.U.U.E.P.N.P.).A...X.-.-.:.:.",
"..:.^.I.-.N.:.K.!.P.Y.I.:.-.I.C.P.:.1.) O.&.F.J.,.-.>.1.P.-.W.K.V.U.!.<._ N.;.P.E.K.N.X.;.U.:.V.V.P.U.!.U.K.-.Y.U.;.D.U.L.1.I.P.",
").K.K.P.=.U.U.V.-.Y.K.V.~.V.~./.-.;.D...( 1.>.=.@.<.H.1.@.;.P.].).K.P.;.:.T.P.P.V.:.N.U.K.N.B.b.R.P.U.:.I.P.:.I.P.P.A.L.D.P.R.U.",
"I.Y.:.U.I.V.).N.-.U.U.U.K.:.;.Y.:.U.:.P.1.1.@.D.Y.1.<.D.*.(.E.-.P.Y.-.-.P.~.P.K.K.V.D.Y.:.N.D.-.:.:.V.U.'.P.P.P.P.A.1.-.=.:.P.P.",
"X.I.K.b.Y.1.U.U.P.P.].P.m.P.-.U.:.B.:.W.1.=.:.^.=.1.=.o.>.I.Y.:.D.P.:.;.1.-.P.D.P.!.U.X.X.I.;.-.} <.I.-.P.U.P.V.;.F.-.L.U.<.N.U.",
"N.P.x B K.~.~.!.Q.~.P.N.C.K.P.P.D.).D.-.F.X.P.D._ >.#.<.=.#.D.:.P.U.A.U.:.I.I.-.K.V.S.N.X.:.V.:.Q.).H.D.@.@.@.*.A.-.D.I.U.E.I.L.",
"U...  x K.K.Y.~.!.K.V.V.K.K.^.~.-.(.V.| V.K.V.D.=.#.+.2.1.K.:.;.1.J.,.P.V.K.P.V.-.'.U.:.X.-.V.V.D.<.<.<._ O.1.@.=.-.!.D.K.I.V.K.",
"..W X X } ~.U.).V.L.~.P.P.K.-.V.1.P.P.P.U.U.:.;.D.$.=.H.) *.D.:.P.D.D.Y.U.:.P.V.V.-.).K.K.U.D.:.<.#.;.+.:.-.<.!.;.-.~.(./.K.X.R.",
"P.).` X # =.Y.U.Y.U.K.).~.V.!.U.~.S.(.'.W.^.U.=.H.<.@.=.o.+.;.P.!.I.W.!.K.U.P.-.D.X.D.<.:.F.Y.=.>.=.@.=.D.D.H.-.:.1.M M :.Y.I./.",
"N.L.D., o # ..:.I.1.=.&.'.`.G.D._.J.2.!.P.N.K.D.<.H.<./ >.@.A.J.U.V.U.).=.X.U.K.D.P.V.,.A.b.-.=.-.:.=.P.;.F.;.;.<.'./ O O v ..:.",
"A.N.~.x # # N.-.P.P.).U.W._.W.U._.D.D.K.Q.Q.~.-.U.>.;.H.;.;.U.(.A.K.P.).U.;.P.Y.P.`.L.m.P.-.=.A.D.:.W.P.P.U.>.S.|.Q.:.+ X n } X.",
"I.I.L.= $ I K.:.N.!._.P.!.~.V.F.W.,.U.J.Q.1.-.Q.F.=.-.,.<.P.:.U.U.:.V.P.Y.V.U.U.} D.@.+.P.*.S.&.A.D.P.:.I.J.P.!.P.D.-.- I A.N.P.",
"E.V.| $ 6 -.P.A.-.W.A.-.>.1.;.I.P.Y.F.D.J.F.P.1.1.-.;.A.-.:.P.C.A.F.N.Y.D.D.I.].;.<.<.@.-.=.=.-.F.-.X.P.L.E.U.~.1.!.m.F U.A.U.Y.",
"P.-.A $ P P.P.V...>.U.F.P.Y.P.U.P.D.1.2.+.D.P.P.K.K.P.:.:.A.Y.C.-.>.U.D.1.1.:.).-.>.1.-.&.*.-.=.=.#.-.:.D.:.V.-.U.:.t.f.;.D.D.V.",
"-.m.; $ x Y.:.-.D.1.D.P.P.Y.F.P.Y.D.=.J.D.D.Y.=.W.~.P.K.=.K.U.P.m.-.S.<.U.-.:.~.;.@.:.-./ @.:.=.@.m.-.K.L.D.B.K.W.:.w.{ F.K.-.D.",
"-.! > # : V.!.P.`._.^.S.1.V.-.:.1.=.-.K.;.;.N.1.P.P.].V.U.V.P.!.P.D.;.=.=.-.A.I.1.&.%.+.@.O.D.R.D.-.N.C.1.=.V.Y.Y.N.a.| U.P.Y.K.",
"!.x.s $ 3 {._.D.;.U.D.:.} V.D.} 1.P.V.N.D.P.:.K.<.=.=.D.P.P.P.P.S.P.,.&.1.P.N.-.=.J.<.&.<.#.1.V.;.:.-.D.;.K.P.N.:.-.I.m.).Y.~.V.",
"K.c.g & U H.D.S.} 1.<.D.K.~.N.V.U.V.-.-.V.V.=.&.!.-.P.V.-.!.P.N.C.D.J.-.P.).E.K.:.P.P.:.<.<.N.1.-.F.=.-.m.-.K.P.Y.A.=.| D.P.P.:.",
"N.,.p ; ( !.U.1.~.V.-.D.1.-.V.Q.>.-.,.-.;.@./ _ D.V.E.C.-.~.:.P.U.=.:.} -.U.P.D.-.L.!.U.:.1.N.<.#.*.@.-.N.V.V.K.D.;.;.] V.!.P.V.",
"1.L.h ; P H.!.!.!.D.D.-.1.P.H.F.=.P.-.V.D.=.K.1.P.-.=...P.$.I.P.U.;.V.P.:.A.S.).!.~.U.D.I.=.>.>.( ,.:.1.V.).P.D.-.=.K.w.c.-.:.Y.",
"V.B.G i m H.!.'.P.U.!.=.<.P.L.,.&.;.<.X.} -.P.-.) =.=.;.P.<.P.,.P.=.P.!.K.Y.D.!.<.J.).;.D.,.@.O.@.1.V.P.<.I.K.P.P.;.a.6.b.N.N.U.",
"Y.C.G 5.g m.).1.-. .:.*.;.;.D.&.=.:.;.*.} -.S.Y.>.( ) / -.<.@.=.I.=.=.F.V.I.P.=.o.+.<.-.,.G.J.<.V.>.1.-.D.,.=.!.U.c 8 h V.U.:.-.",
"-.V.K.^ 6.e.b.B.:.P.:.U.).P.) H.<.*.=.*.( -.P.P.&.O.>.=.C +.@.>.P.D.,.P.1.L.=.!.=.+.&.#.#.<.!.+.>.=.Q.:.;.!.1.=.N.Y q S -.F.U.P.",
"I.V.D.Y.c.0.6.C.P.U.b.V.'.K.;.=.-.=.=.&.1.>.1.=.) &.=.C V O.<.=.#.G.P.K.D.K.&.N.V.-.S.=.1.1.>.&.o.V.D.#.-.*.P.D.| <.c ' D.P.A.;.",
":.U.U.Y.P.5.r.P.P.E.I.Y.:.-.>.;.D.:.:.-.<.*.;.*.*.=.o.C O.=.*.@.<.,.-.Y.V.K.P.D.1.:.:.1.,.H.2.$.X.P._ -.N.P.F.-...D.=.-.U.Y.U.V.",
";.<.~.P.`.r.x.I.~.P.P.K.:.N.:.!.P.:.1.=.Y.).U.<.<.<.Q ;.*.&.;.=.Q.,.$.L.N.Q.P.P.P.H.P.P.K.H.=.$.V.K.:.} ;.:.1.m.1.1.D.%.!.:.V.D.",
":.-.P.:.J.w.M.P.A.N.-.E.Y.A.U.A.:.-.D.S.:.~.H.+.*.>.,.( &.&.P.=.V.1.#.P.V.V.:.=.,.F.Y.1.-.=.N.V.C.-.-.,.-.1.:.:.<.=.;.*.<.F.D.!.",
"D.).:.V.K.6.x.U.P.=.P.U.!.K.U.D.:._ :.D.=.,.<.<.W.=.<.<.=.) &.:.:.P.| :.^.L.1.K.:.U.P.#.>.@.P.~.-.V.S.D.U.=.&.-.,.1._ &.&.!.D.~.",
"K.^.D.Y.f.0.r.:.L.:.:.D.P.I.Y.P.1.D.-.:.P.&.P.Q.P.`.!...( &.S.=.1.-.N.N.].:.D.:.P.L...D.+.<.Q.-.-.=.(.K.=.:.:.&./ b ' V.D.Y.[.].",
"Y.P.Y.:.:.m.t.a.B.} -.' E D.U.P.P.-.&.>.>.<.I.V.P.D.=.=.*.*.P.!.m.I.Y.P.I.:.P.U.P.<.<.G.@.*.V.:.P.#.S.F.=.,.-.D.= X _ X.K.P.L.X.",
"C.-.I.D.:.:.Y.r.0.w.w r d c.P.N. .&.@.C F.D.=.<.>.:.-.D.,.-.J.1.1.P.:.:.V.U.).P.:.1.2.=.( @.<.F.<.,.( #.-.:.#.[ $ 1 D.;.K.D.N.B.",
"Q.Y.-.W.1.V.L.-.e.i.w 0 r [ P.D.I.I.>.o.1.:.P.:._ P.=.<.*.-.P.F.:.:.A.~.P.:.F. .D.:.V.=.;.V.1.&.S.).:.V.P.D.:.a * I D.P.I.:.K.L.",
"!.P.K.-.-.B.K.:.:.e.5.q w ~ S.F.<.;.O.C Q 1.V...@.>.<.S.#...P.-.V.D.'.(.P.U.D.;.1.P.H.-.:.<.} D.~.-.P.V.V.V.] w 4 D.D.K.V.X.N.Y.",
"V.N.].L.K.].N.X.=.| 0.6.r i -.P.<.S.=.) ) =.<.=.#.P.K.' f a V.-.-...Y.!.A.-.=.D.1.:.P.=.P.;.:.F.>.-.K.L.1.V.V.P.P.V.I.:.X.Y.V.-.",
"V.L.I.E.Y.K.V.N.b.| m.0.d 8 p [ ;.-.F.D.,._ -.*.$.=.).f r w ' Y.D.P.P.-.( } -.P.U.L.I.:.K.P.-.=.>.U.U.-.-.1.-.P.V.:.V.N.:.E.V.).",
"V.Y.P.P.N.-.;.P.N.m.^.s.6.& w w | B.I.=.I.P.;.*.D.-.P.w w w R :.=.U.U.K.-.b.P.-.V.~.K.A.N.-.K.-.} K.W.=.P.~.,.D.m.Q.P.N.B.R.m.K.",
"I.U.I.Y.C.P.V.U.P.E.I.N.e.s > q Y Y.C.:.N.V.>.P.P.F.{ w 9 7 J L.P.P.V.:.Y.L.1.L.L.P...N.B.:.).U...D.S.=.N.D.D.K.L.L.N.N.E.-.^.P.",
"D.Y.P.Y.D.{.R.1.N.1.V.:.z.q.q & u -.P.K.P.P.1.P.F.P.F w q s 6.x.-.:.C.c.^ f.n.N.M.~ ^ m.Q.J.P.E.:.P.=.<.-.>.:.B.P.L.B.I.B.Q.^.1.",
"F.-.P.U.:.Y.N.E.N.-.D.N.N.G 5.& & u x.Y.~.<.P.:.-.f.u.6.0.6.j 5.L E J g g g p p e e y e $.Q.P.I.B.1.P.D.P.;.!.V.Y.Q.I.].E.C.Q.`.",
"I.I.E.K.L.).!.Y.-.} } K.:.| 6.d ; & & Z { } X.{ r.e.w.f.! a.5.g 5.5.g s s s e e e q y H V.V.R.L.:.V.Y.*.=.-.~.~.].V.N.^.C.V.~.^.",
"N.).I.V.P.P.F.;.H.:.V.I.-.U.g 5.d q ; ; % > s 6.6.r.K.I.P.D.{ j d d f p f f y e e e e N.R.C.T.I.N.F.!.>.=.!.!.D.K.L.:.P.J.^.,.`.",
"N.V.-.D.A.Y.&.S.Y.I.V.P.V.K.F 5.j g j d g 5.5.z 5.M.P.G.!.D.P.m.g g d f l ^ x.K e f K ^.b.m.V.:.V.F.;.-.K.K.1.U.P.V.^.E.~.H.-.m.",
"V.-.K.=.;.=.=.D.:.P.;.P.I.:.b.d g g L f.n.T g 5.g N.!.P.P.F.S.K.$.J K { -.I.C.I.c.^ {.N.:.B.:.D.:.~.m.:.-.:.!.P.U.!.D.V.N.m.L.Q.",
"P.V.m.Q.~.V.:.:.X.X.E.Y.P.L.b.R J C.).-.P.|.!.f.Y P.!.P.Y.U.K.).~.I.P.1.-.L.N.C.C.V.~.K.L.P.} -.V.!.V.V.:.1.P.P.:.:.1.N.-.N.P.Q.",
"C.N.C.P.-.Y.V.K.Y.P.U.V.} I.V.V.:.F.P.Y.).~.K.`.1.J.P.K.Y.F.P.Y.).P.K.=.-.I.R.Q.[.m.K.U.I.Y.K.N.U.Y.I.L.1.V.V.V.P.1.C.B.C.C.,.V."
};
