/* XPM */
static char *destroy_6[] = {
/* columns rows colors chars-per-pixel */
"64 64 174 2 ",
"   c #2C1E09",
".  c #35200B",
"X  c #3B220C",
"o  c #3A280F",
"O  c #43230C",
"+  c #4B240D",
"@  c #43280F",
"#  c #52250E",
"$  c #59260E",
"%  c #54290F",
"&  c #5A290F",
"*  c #4E2610",
"=  c #462B12",
"-  c #4C2C13",
";  c #522710",
":  c #582710",
">  c #542B12",
",  c #5B2B12",
"<  c #423116",
"1  c #4B3216",
"2  c #433619",
"3  c #4B3419",
"4  c #453C1C",
"5  c #4C3B1C",
"6  c #533216",
"7  c #5B3216",
"8  c #523518",
"9  c #5C371A",
"0  c #543B1B",
"q  c #5B3B1C",
"w  c #642D14",
"e  c #6B2E16",
"r  c #6D2F18",
"t  c #702F18",
"y  c #6D3115",
"u  c #6E3018",
"i  c #623D1E",
"p  c #723117",
"a  c #793417",
"s  c #743219",
"d  c #7B341A",
"f  c #7E381A",
"g  c #653F20",
"h  c #4E421E",
"j  c #54401E",
"k  c #5C401F",
"l  c #4C4322",
"z  c #4F4C27",
"x  c #4E4C28",
"c  c #544321",
"v  c #5B4422",
"b  c #544A26",
"n  c #5C4B26",
"m  c #554D2A",
"M  c #5C4D2B",
"N  c #57522C",
"B  c #5B522B",
"V  c #5E592F",
"C  c #575534",
"Z  c #5D5733",
"A  c #5C5E34",
"S  c #555338",
"D  c #5D5C3B",
"F  c #634723",
"G  c #684121",
"H  c #634A26",
"J  c #644E29",
"K  c #6B4E28",
"L  c #724A25",
"P  c #63542D",
"I  c #6A532C",
"U  c #6B592F",
"Y  c #645630",
"T  c #6B5730",
"R  c #645C33",
"E  c #6B5C32",
"W  c #615D3A",
"Q  c #755F33",
"!  c #646135",
"~  c #6C6235",
"^  c #65653C",
"/  c #6B653C",
"(  c #65693E",
")  c #6D6B3D",
"_  c #726436",
"`  c #796437",
"'  c #736438",
"]  c #796738",
"[  c #736C3D",
"{  c #7B6E3D",
"}  c #6F703F",
"|  c #75713F",
" . c #7B713F",
".. c #656641",
"X. c #696741",
"o. c #666A43",
"O. c #6C6D43",
"+. c #726E41",
"@. c #796E40",
"#. c #657146",
"$. c #6E7244",
"%. c #6E7449",
"&. c #747444",
"*. c #7B7543",
"=. c #757946",
"-. c #7C7A46",
";. c #727548",
":. c #7A7749",
">. c #757B4A",
",. c #7C7D49",
"<. c #787F50",
"1. c #83361B",
"2. c #8B351C",
"3. c #84391A",
"4. c #8C3B1C",
"5. c #92371E",
"6. c #933D1D",
"7. c #9A3D1F",
"8. c #A03F1F",
"9. c #9E3C21",
"0. c #A33C21",
"q. c #A83C22",
"w. c #8B401E",
"e. c #96431D",
"r. c #9C421E",
"t. c #A1441F",
"y. c #A34A1E",
"u. c #9E4520",
"i. c #A54321",
"p. c #AD4522",
"a. c #AB4921",
"s. c #B34723",
"d. c #B34A22",
"f. c #876F3E",
"g. c #81703F",
"h. c #827542",
"j. c #8A7643",
"k. c #837C46",
"l. c #8A7C46",
"z. c #827E49",
"x. c #8A7E48",
"c. c #937B44",
"v. c #7D8047",
"b. c #77824D",
"n. c #7D824C",
"m. c #7F884E",
"M. c #768051",
"N. c #7C8551",
"B. c #7D8A52",
"V. c #848047",
"C. c #8B8047",
"Z. c #83834B",
"A. c #8A844B",
"S. c #84894E",
"D. c #8B8A4E",
"F. c #928147",
"G. c #91844A",
"H. c #928B4E",
"J. c #988D4F",
"K. c #818651",
"L. c #888750",
"P. c #848B52",
"I. c #8B8D51",
"U. c #918D52",
"Y. c #869155",
"T. c #8C9254",
"R. c #859359",
"E. c #8B945A",
"W. c #8A995A",
"Q. c #929253",
"!. c #9A9956",
"~. c #909859",
"^. c #A09351",
"/. c #98A15F",
/* pixels */
"Z.U.,.*.*.k.k.Z.z.-.*.Z.Z.D.D.Z.G.k.Z.Z.I.K.K.P.Z.L.>.k.z.=.z.Z.z.n.Z.Z.Z.-.A.z.z.C.k.A.z.S.A.k.*.k.j.k.Z.W.k.m.S.=.v.A.-.z.h.j.",
"f.D.n.[ x.I.:.=.:.{ l.Z.Z.Z.Z.I.D.l.&.-.;.M.N.=.B.b.B.n.P.P.,.A.k.k.[ *.Z.Z.l.,.k.g.*.k.-.Y.A.k.z.A.A.,.-.S.Z.n.D.S.m.C.z.*.z.A.",
"l.D.=. .C.z.+.;.,.L.k.,. .P.P.h.V.Z.T.K.,.,.,.>.&.,.Z.-.Y.R.<.L.-.h.*.k.*.*.k.V.| k.-.=.v.-.A.Z.*.f.C.k./ ,.Z.Z.h.Z.m.A.Z.h.k.Z.",
"A.m.v.A.:.,.;.,.L.U.:.,.Z.m.n.Z.,.,.v.Y.Y.*.m.&.z.Z.Z.Y.P.S.A c 0 m j.A.g.k.V.D.D.S.Z.=.$.S.S.*.k.g.k.z.-.Q.Z.,.V.D.A.D.l.Z.j.:.",
":.z.k.z.,.&.N.B.K.N.K.@.:.-.A.P.k.k.P.S.=.;.Z.=.:.N.<.,.m - t 2.2.w 5 Z.k.V.g.-.S.-.v.S. .k.k.k.D.k.S.A.*.Q.k.I.Z.k.z.D.*.h.Z.V.",
"N.*.&.*.z.*.b.;.:.X.#.L.-.{ D.k.k.{ *.( $.&.>.;.C b 6 , 1.0.0.t ; , * v Z.Q.*.g.D.~ o _ k.k.k.Y.Z.g.*.k.A.A.-.Z.Z.V.D.*.k.k.D.Z.",
"v.P.,.+.=.Z.-.:.K.,.-.=.=.Z.-.k.k.m ! } ;./ 5 > p 1.d d 1.9.: . X O + J A.L.V.A._ - 7 h D.A.Z.=.| k.S.*.A.x.S.*.-.z.!.Z.C.T.D.A.",
"L.,.:.L.Z.-.*.L.:.:.k.g.,.n.D.l.*.R o B c , 6.q.0.s r r r w X O + P @.A.j.l.Z.T.3 y p * j m 0 * n Z.Z.A.G.D.*.-.k.k.Z.G.-.Z.S.P.",
"*.&.Z.z.*.&.,.L.K.,.&.:.z.z.S.A.-.E ; w , w a a : * w t s : + + F k.h.*.z.A.Z.T.k w s d 1.d 7.d B l.k.C.k.G.j.V.C.T.Q.n.Z.T.=.k.",
"h.=.N.Z.*.-.*.=.x.L.D.*.h.O.[ k.D.! : , n ) B + + + + : : + + #  .*.h.z.k.D.k.C.D.6 u a f 2.i.3.b z.H.k.k.Y.U.z.H.A.v.| -.h.&.{ ",
"Z.,.;.=.Z.=.@.@.:.N.=.+.,.,.*.h.C.- 8 U k.j.D.k : ; : + # $ & 9 Z.k.z.D.Z.-.*.k.c.U ; # : r s u., h A I.C.D.H.k.A. .D.D.h.k.| k.",
",.z.n.=.;.:.*.[ Z.K.%.&.=.*.Z.E - v *.,.,.,.v.-.i , J { l.T I [ v.k.l.-.S.P.S.J.J._ + + O * t s 3.3.y h o ~ C.U.D.=.Z.A.D.,.k.D.",
"&.N.S.@.&.&.[ *.k.;.*.=.} *.Y # v *.$.-.n.,.$.S.&.=.=.&.m.-.-.K.n.S.D.C.-.,.k.k.U.F # # + O w d p u.s.r + j k.k.P.Z.&.k.k.@.k.{ ",
"S.,.*.k.*.O.&.Z.O.&.,.%.+.R + 8 &.Z.;.=.=.=.,.Z.P.I.z.N.,.&.&.S.,.T.D.Z.-.l.k.j.l.: & # $ + w a p u.p.i.7.@ n.[ Z.A.k.Z.:.L.D.-.",
"&.S.-.:.+.;.Z.:.n.) m 0 1 : w P ,.Z.*.&.z.P.B.O.&.B.N.Y.b.=.D.S.v.l.k.@.*.C.V.I.C.L w : I Q 7 a 6.y.r.d.a   [ k.,.:.Q.j.z.,.&.Z.",
",.k.-.,.,.;.&.&.-.5 p d p d p n Z.D.,.$.S.=.O.,.O.;.=.=.;.z.Z.-.Z.Z.Z.S.[ Z.D.P.I.D.I { Z.-.[ w y 0 0 w 4.p 5 D.=.-.P.Z.l.*.:.@.",
"Z.=.A.=.S.,.-.b - 1.i.p p y a & z.k.) ( n.N.-.-.=.P.*.=.z.I.V.=.=.Z.Z.) -.} Z.D.D. .,.A.*.*. .~ [ -.j.[ 0 a 3.h S.C.Z.v.Z.Z.S.=.",
"+./ &.-.*.{ 3 r 8.4.> 0 n U G & ] S.>.W N.K.l.x.A.Z.>.,.Z.=.P.:.$.=./ ;.v.*.H.H.A.V.Z.Z.} g.Z.n.| ,.k.Z.H.l 1.y ! S.k.,.V.v.z.n.",
"&.k.=.&.Z.! y 0.p 0 ) ,.,.v.S. .-.=.} ^ ;.v.*.:.,./ O.O.O.X.>.=.n.:.v.&.;.,.-.-.A.A.v.v.| S.*.-.g.T.Z.k.A.[ + 4.- -.S.Z.k.k.,.+.",
"S.Z.T.D.H.~ , w 5 V.| A.l.*.z.Z.V.-.$.;.,.>.z.D.P.+.[ ;.-.m.P.,.A.=.D.L.#.$.Z.S.Z.V.Z.V.,.v.*.k.Z.P.S.S.U.V.- a & ( v.v.&.-.-.-.",
" .-.T.C.&.~ + + ,.Z.H.C.k.*.A.l.S.,.,.( ( $.N.P.:.*.;.,.S.=.P.z.k.P.P.,.) k.>.S.H.V.k.*.=.Z.v.k.z.z.S.D.Z.-.# w h =.,.S.A.,.A.Z.",
"T.V.k.V.=.| O 0 | D.k.z.I.v.D.^.| =.,.| / ,.;.$.%.=.N.,.O.&.Z.Q.T.Z.Z.&.*.F.Z.Z.k.-.k.Z.V.k.l.h.D.A.Z.-.Z.I w 3 V.Z.V.A.z.z.G.L.",
"A.D.k.S.D._ + j *.S.S.D.Z.,.| D.k.Z.,.Z.n.>.[ n.D.,.:.,.$.Y.D.h.Z.D.=.*.Z.T.k.Z.Z.k.n.D.-.k.v.*.-.| ] | I & w ~ n.v.-. .=.,.S.Z.",
" .A.D.H.D.B O 8 Z.Z.T.Z.g.,.,.Z.v.z.*.P.,.@.-.T.&.,.$...;.A.D.-.v.Z.*.,.v.*.Z.,.S.P.S. . .A.=.*.[ &.] ' [ H # ~ =.n.-.Z.Z.=.z.Z.",
"V.Z.V.C.A.8 a + h.P.V.j.j.A.S.Z.v.T.v.*.m.&.Z.,.X.;.&.;.=.@.n.v.S.P.Z.S.-.A.A.g.V.z.b.-.*.k.k.,.P.P.S.M.O.O.1 M v.*.v.D.S.H.C.V.",
"S.D.T.T.b a s.y } z.k.z.z.A.D.T.-.I.z.@.z.V.l.m.&.+.O.b.,.Z.-.&.,.N.,.Z.k.,.n.V.*.T.S.-. .&.,.z.b.,.>.-./ ..I 6 [ -.S.v.V.D.V.z.",
"*.V.D.| # r.a.e.7 ` Y.Z.Z.z.*.z.-.S.S.Z.Z.S.-.-.M.*.&.N.( $.v.,.Z.n.n.Z.Z.,.S.k.k.,.I.Z.z.S.Z.-.>.&.=...,.-.v + 3 Y S.T.Q.k.g.J.",
"V.T.V.Z.R 8 6.a.4.e K I.I.,.P.S.P.M.I.W.P.U.Z.&.N.:.O.$...o.=.n.P.Z.L.P.k.S.Z.-.,.*.Z.>.,.V.S.-.*.&.O.=.v.[ + O + , 3 ^ D.A.C.Q.",
"k.C.v.N.,.) y 4.a f 9 $.E.E.<.,.R.P.,.P.Z.l.z.v.,.N.>./ ;.O.v.B.Z.k.I.Y.=.| S.V.Z.Z.z.*.v.g.| &.@.-.;.,.;.v.6 + * a u + < ! ,.k.",
"v.k.I.Z.k.[ y f a y ' S.S.R.P.P.R.,.v.Z.L.P.P.-.S.;.=.N.;.=.P.P.Z.V.Z.T.S.-.Z.A.Z.E.A.*.S.*.*.,.n.v.P.Z.Z.m.~ + * y * 3 2 < U | ",
"D.A.A.k.v.j e.4.y F R.,.P.I.z.m.P.=.S.P.P.N.*.I.m.&.g.=.=.Z.,.D.S.,.Z.Z.D.,.D.S.&.v.O.o.Z.$.b.$.,.v.Z.-.A.S.P + w - R A.T.,.z.V.",
"H.k.G.A.~ y 4.a , >.v.-.&.,.=.A.Z.L.S.M.N.n.z.,.-.=.=.v.,.*.Z.l.v.m.k.A.v.m.A.Q.;.=.>.O.*.&.| ,.m.-. .z.A.Z.; p w R L.P.S.n.S.D.",
"Z.*.*.k.8 6.d y # / D.N.v.D.Z.S.Z.,.,.M...n.v.Z.Z.z.m.-.,.n.D.k.=.&.S.m.=.-.-.T.=.&.z.*.$.O.*.*.&.+.*.h.v.| : 1.; | I.n.;.b.Z.z.",
"&.z.-.k.> i.a ; # 9 b.v.Z.D.m.S.L.m.&.N.m.v.T.&.K.I.Z.Z.[ k.S.S.h.-.b.>.L.-.,.I.&.O.:.,.( O.-.&.O.*.*.Z.V.,.v a , ) k.=.S.z.&.Z.",
"-.*.Z.D.8 i.6.+ # U D.,.,.z.-.:.v.*.=.k.=.,.k.,.z.Z.Q.k.S.k.Z.P.Z.,.=.+.&.*.k.Z.=.$.o.o.$...v.G.z.*.h.z.,.*.~ w y R  .,.P.Z.D.Z.",
"A.Y.m.D.l 9.r.+ # k.Z.,.[ z.v.[ ,.Z.k.k.Z.v.h.Z.=.&.*.v.Z.S.A.Z.,.Z.=.%.,.Z.k.*.&.B.b.$.:.O.v.Z.&.,.-.n.-.v.Z.6 4.j T.v.T.D.D.k.",
"Z.U.L.P.! a a.& + &.,.,.z.D.k.z.P.l.*.*.V.Z.+.$.P.-.A.k.*.m.v.k.z.n.B.*.Z.Q.H.V.k.v.Z.,.;.,.l.n.,.n.&.@.h.h.) w y.1 } =.Z.v.Z.z.",
"-.N.T.Z.} w d.y + U *.v.-.*.Z.A.&.=.>.*.=.O.^ O.Z.,.H.l.*.I.,.S.A.&.-.[ -.Z.Z.n.*.C.I.P.,.,.,.=.&.;.O.*.k.P ; p t.> } ,.Z.P.Z.,.",
",.A.U.Z./ w d.6.+ # [ | [ z.K.N.&.Z.*.k.,.&.z.,.S.*.&.&.x.@.D.z.m.=.x.Z.,.n.m.Y.P.I.D.N.A.&.;.;.^ *.:.,.*.# a u 5.> -.,.k.*.k.D.",
"k.G.,.I.n 1 : t.3.O # : T ,.A.*.;.=.;.@.[ *.Z.*.( &.&.&.Z.<.z.:.Z.=.Z.S.,.D.V.B.>.B.Y.*.b.=.o.X.O.,.Z.Z.>.P w d d h Z.&.-.k.z.Z.",
"S.A.Z.,.| Z.$.6 y.e # v &.*.,.%.;.,.=.O.&.*.>.D.&.) ( W -.;.$.&.A.&.| S.-.D.z.&...O.=.&.;.<.P.>.,.;.,.*.n.:.1 4., } S.P.v.S.,.| ",
"-.z.Z.m.D.D.S.k 3.s 6 S.E.Z.^ N.,.$.&.%.( *.Z.Z.$...;.;.D O.O.&.Z.b.,.Z.-.A.@.P.%.O.$.+.&.>.P...;.&.L.-.&.B.E > 0 | S.Z.-.B.S.A.",
"C.l.n.P.Y.S.g.B 1.r n k.T.Z.=.&.=.@.&.$.b.;.n.&.( $.;.D S X.=.;.O.<.Z.z.Z.V.=.-.z.*.b.&.,.:.;.$...z.z.@.*.%.! O P >.,.-.n.S.,.,.",
",.S.S.D.Z.A.[ 3 e.1.6 D.-.*.O.=.v.-.,.*.=.$.;.;.%.&...D X.;.;.O.:.:.h.D.,.V.Z.n.,.-.-.b.-.N.<.@. .Z.$.@.k.B , w R v.&.,.Z.S.S.k.",
"=.,.Y.V.~.,.1 1.t.s.e H ~ U 7 i k.-.-.=.I.T.S.=.=.>.W =.$.O.=.&.P.;.@.Z.h.L.Z.Z.S.n.A.n.A.b.;.@.k.Z.*.[ c X 2.t A ,.n.o.P.k.,.m.",
"=.*.Z.,.B.) O 6 - d t.w , w e.3.q &.v.n.k.I.N.O.$.;.:...$.$.Z.&.z.Z.+.Z.l.z.k.| -.N.I.=.=.+.k.l.z.k.-.=.= . d r A &.;.$.>.m.v.L.",
"n.I.,.V.P.-.-.n.,.4 3.i.3.e.a.f , / -.,.$.-.>.<.K.&.>.,.=.( ) ,.*.Z.{ k.U.A.,.z.-.S.Z.@.>.$.z.L.*.z.,.R . ; d = $.=.$.=.%.P.n.P.",
"A.Q.n.D.S.k.k.-.l.&.- e.a.a.u.p q n.:.-.Z.O.n.L.K.E.P.E i G _ &.=.-.k.k.Q.-.,.,.z.A.[ n.X.>.L.-.@.&.B * w t * N ( -.*.k.Z.D.!.Q.",
"S.Z.D.-.,.z.z.*.z.| ) 1 1.d.e.s w v X.:.;.>.Z.Z.z.,./ p 4.3.e [ h.D.D.Z.A.-.A.S.n.>.=.<.O.%.,.-.Z.R * ; , ; l n.*.;.) -.k.A.V. .",
"l.h.D.,.-.n.D.V.V.| A.-.< 6.i.s t r ; S P.,.;.;.=.-.K 3.w.f w K :.k.-.-.z.S.I.V.z.,.>.&.O.O.=.n.=.) c Z N m ) Z.z.,.n.,.V.v.-.C.",
"Z.A.*.K.z.k.C.-.-.-.A.A.! > p.d t d : S :.=.Z.k.} v.k e.3.p & U -.-.Z.P.v.=.N.&.&.[ z.&.=.z.n.$.,.Y.,.k.Z.n.-.Z.*.k.v.Z.A.z.C.C.",
"I.Z.z.*.*.h.Z.-.V.V.k.D.x.5 6.7.r s r 3 ! ,.k.&.) ^ y y.d p # > _ &.E , 9 P P c 6 + Y &.-.>.[ Z.P.-.v.z.Z.k.>.b.:.m.Z.Z.k.[ k.D.",
"z.k.Q.C.V.Q.k.*.{ *.{ A.=.N , i.d r t w 1 R ;.;.Z 6 y.6.a p O # # + + & d u u p a s , @ ~ =.,.n.=.:.Z.C.,.z.Z.Z.S.Z.A.,.*.A.Z.-.",
",.A.A.H.D.V.k.k.h.{ D.l.A.z.m , 2.e t t e > - > y r.d.r.p d w O O O O r s s s s r t : c  .Z. .&.&.S.S.*.*.-.*.Z.,.-.z.k.-.H.k.L.",
"z.D.Z.V.k.-.&.Z.k.h.U.k.H.D.*.< 1.w w r r r r 7.d.y.t.w - # 4.4.& w p t p s r e 1.s l ,.k. .Z.*.&.Z.K.&.Z.I.=.n.h.Z.Z.l.l.G.k.V.",
"D.D.A.D.l.m.k.L.z.U.H.z.Z.A.,.* 0.9.1.5.2.f 6.p.8.t.w R Y.} 6 e.d.s.s.6.t r 1.9.s.> ! k.k.,.T.Z.[ Z.>.;.k.n.,.A.C.C.h.k.H.*.U.Z.",
"v.A.Z.S.S.~.A.k.k.,.k.-.D.Z.k.5 r 0.q.0.2.1.3.7.q.9.5 n.Y.P. .= 3.7.p > j c 1 p r = m.j.Z.P.Z.H.,.Z.;.>.-.;.Z.j.A.A.l.x.l.L.I.n.",
"m.-.Z.S.,.D.k.H.h.-.Z.k.-.&.v.[ 4 d 2.+ l x l @ d a z >.b.n.D.[ l 5 V *.*.Z.Z.R M [ z.Z.v.P.S.C.h.,.Z.v.Z.;.S.k.L.A.A.!.U.l.L.T.",
"I.D.H.k.A.I.P.I.-.[ [ z.k.v.-.*.V , 3 ~ V.,.n.$.z l =.L.=.D.k.l.,.l.A.| *.h.h.-.N.A.A.Z.x.k.G.C.k.V.D.$.&.*.D.Y.Q.l.k.U.x.<.E.U.",
"h.U.A.k.D.n.n.-.N.-.k.D.-.L.h.-.4 . -.-.,.*.-.S.B.L.Z.D.V.Z.,.D.Z.Z.S.,.h.k.A.A.L.L.R.I.H.x.G.A.z.m.P.;.&.P.Y.b.Z.C.-.v.P.U.:.I.",
":.k.*.S.Z.S.$.>.D.A.k.Z.z.v.Z.A.b B Z.k.n.z.k.K.>.Q.Z.N.Y.v.m.Y.Z.Z.k.*.&.x.A.I.A.L.A.U.h.h.z.-.k.m.-.*.Z.Z.,.S.S.z.U.I.U.n.-.h.",
"Z.*.Z.[ =.&.=.b.-.Z.=.Z.A.-.C.A.D.P.v.,.R.z.Z.K.=.Z.P.S.Z.m.n.v.,.z.k.k.h.A.x.Z.C.h./.h.k.k.k.b.,.I.h.-.*.-.D.k.S.P.,.z.*.h.x.H.",
"Z.z.h.A.P.k.k.,.*.*.H.D.Z.C.h.-.h.D.Y.*.Z.W.Y.P.v.S.P.v.D.Z.V.T.D.A.Z.=.*.C.l.x.C.z.I.z.C.Z.[ *.-.I.z.z.-.>.Z.Z.,.-.,.l.-.k.Z.L.",
"A.h.Z.Z.-.D.k.k.A.Z.S.V.[ A.z.z.-.S.S.D.~.Y.Z.E.n.B.V.Z.I.Z.Z.D.T.S.Z.@.-.A.G.P.!.h.V.S.A.D.V.k.D.D.Z.C.z.z.z.z.z.-.l.l.l.x.:.,."
};
