/* XPM */
static char *destroy_1[] = {
/* columns rows colors chars-per-pixel */
"64 64 168 2 ",
"   c #34230D",
".  c #3C2E15",
"X  c #44270F",
"o  c #55270F",
"O  c #5B270F",
"+  c #55280F",
"@  c #492C13",
"#  c #562712",
"$  c #532B11",
"%  c #5B2A12",
"&  c #403319",
"*  c #45381A",
"=  c #4A3D1D",
"-  c #5B3217",
";  c #5F371A",
":  c #5E3C1C",
">  c #56371C",
",  c #60280F",
"<  c #612710",
"1  c #642A12",
"2  c #6B2B14",
"3  c #6D2E18",
"4  c #742E16",
"5  c #7B2E16",
"6  c #702F18",
"7  c #603A1C",
"8  c #733115",
"9  c #7B3217",
"0  c #74301A",
"q  c #7D361B",
"w  c #493E21",
"e  c #5F401F",
"r  c #63401F",
"t  c #5B4B28",
"y  c #524924",
"u  c #5D522D",
"i  c #555338",
"p  c #5D5C3C",
"a  c #684724",
"s  c #654A26",
"d  c #664D29",
"f  c #634625",
"g  c #67502B",
"h  c #6F562D",
"j  c #665F33",
"k  c #6B5C33",
"l  c #615D3A",
"z  c #676236",
"x  c #6C6337",
"c  c #64643D",
"v  c #6B663D",
"b  c #65693E",
"n  c #6D6B3E",
"m  c #716437",
"M  c #726638",
"N  c #736C3E",
"B  c #7B6E3E",
"V  c #6F703F",
"C  c #74713F",
"Z  c #7A713F",
"A  c #656642",
"S  c #686741",
"D  c #676A43",
"F  c #6C6D43",
"G  c #726E41",
"H  c #796F40",
"J  c #6E7245",
"K  c #6E7549",
"L  c #657146",
"P  c #747344",
"I  c #7B7543",
"U  c #757946",
"Y  c #7C7A46",
"T  c #727649",
"R  c #7A7649",
"E  c #757B4A",
"W  c #7C7D49",
"Q  c #757F51",
"!  c #787F50",
"~  c #853216",
"^  c #82371A",
"/  c #843A1B",
"(  c #8B3C1D",
")  c #933E20",
"_  c #87401B",
"`  c #8C401D",
"'  c #92421E",
"]  c #98461E",
"[  c #9B491D",
"{  c #A34B1E",
"}  c #A84F1E",
"|  c #A3521E",
" . c #AB531F",
".. c #A7591E",
"X. c #AC5C1C",
"o. c #B65D1F",
"O. c #B95D1F",
"+. c #BD6A1F",
"@. c #B7641E",
"#. c #9E4920",
"$. c #A54D21",
"%. c #AD5320",
"&. c #B15920",
"*. c #876F3E",
"=. c #81703F",
"-. c #BA6420",
";. c #C4691F",
":. c #C8751E",
">. c #C36A20",
",. c #CD7721",
"<. c #D07520",
"1. c #D27A20",
"2. c #827542",
"3. c #8A7643",
"4. c #837C46",
"5. c #8A7C46",
"6. c #827E49",
"7. c #8A7E48",
"8. c #937D45",
"9. c #7D8147",
"0. c #76814C",
"q. c #7D824C",
"w. c #7F884E",
"e. c #768051",
"r. c #7C8551",
"t. c #7D8952",
"y. c #D4871E",
"u. c #DD931F",
"i. c #E3951F",
"p. c #F0B41F",
"a. c #D58420",
"s. c #DF8D20",
"d. c #DE9120",
"f. c #E99E21",
"g. c #E39023",
"h. c #F4B920",
"j. c #F8BA22",
"k. c #F7C121",
"l. c #FDD020",
"z. c #848047",
"x. c #8A8047",
"c. c #83834B",
"v. c #8A844B",
"b. c #84894E",
"n. c #8B8A4E",
"m. c #928147",
"M. c #91844B",
"N. c #928B4E",
"B. c #818651",
"V. c #888750",
"C. c #848B52",
"Z. c #8B8D52",
"A. c #928D52",
"S. c #9A8E50",
"D. c #869155",
"F. c #8C9254",
"G. c #859359",
"H. c #8B955A",
"J. c #8C995B",
"K. c #929253",
"L. c #989251",
"P. c #9A9956",
"I. c #91975B",
"U. c #909859",
"Y. c #A09351",
"T. c #93A15F",
"R. c #98A15F",
"E. c #909D60",
/* pixels */
"c.A.W I I 2.4.b.R 2.I c.c.n.n.c.m.2.b.c.Z.C.C.C.c.C.E 2.c.U 4.c.c.q.v.c.9.Y v.6.6.x.4.z.9.C.v.4.I 4.5.4.c.J.z.b.B.P 9.x.I 6.2.5.",
"*.n.q.N 7.A.R E Y B 5.c.6.c.c.F.n.4.P Y T Q t.R t.E t.w.C.C.9.x.4.4.P I b.6.7.W Y 2.I 5.Y Z.c.5.c.7.v.Y Y b.q.9.N.C.w.v.z.I 6.v.",
"5.n.U Z v.W G T W V.R 6.Z C.b.I c.v.F.b.Y W E E U 6.c.Y G.H.0.C.R 2.2.2.I I 4.z.Z 4.4.Y 9.Y z.v.I *.x.4.M W c.c.4.q.b.v.c.2.4.z.",
"v.w.9.v.R W T W V.A.q.W c.C.9.c.W W 9.G.D.I c.T 6.c.c.D.C.F.Z.b.b.z.7.v.=.4.z.n.n.b.c.P K b.b.I 4.2.4.6.U H.z.4.z.v.v.Z.7.4.7.R ",
"R 6.2.6.9.P w.r.B.B.B.H R I n.C.4.6.C.c.U T w.E R r.! R.C.q.c.x.N.5.6.6.4.z.2.Y b.Y b.b.2.z.4.4.n.Y C.x.I K.4.Z.z.4.4.n.I 2.b.z.",
"r.I P I W I e.T R S D V.I B n.z.6.2.I b J T E q.K t.C.D.e.Q n.v.x.2.3.2.c.K.I =.n.v.b.5.5.4.I F.z.2.I 4.n.v.W c.z.c.b.Y 2.4.n.c.",
"9.C.W G R c.R 4.B.W I E U c.Y 4.Y W 9.J U W Y b.D.C.C.T C.4.b.Y 6.V.4.5.v.Z.c.7.I m.z.2.b.c.6.v.I 5.b.I x.7.r.I Y z.P.z.v.F.n.v.",
"b.6.R V.b.I R b.W R 4.2.W 9.n.x.I c.Y 9.Y Y v.P 4.S.! C.C.c.w.P c.6.5.v.3.6.v.F.5.v.K.n.z.4.5.N.4.c.c.v.M.n.I Y 4.4.v.n.I z.b.C.",
"I G c.4.I U W c.r.W P R 6.6.b.v.R z.4.Z.z.z.c.v.n.L.W c.4.c.c.Z.z.4.2.2.4.v.c.K.v.N.b.D.c.4.v.b.v.v.4.m.4.M.4.z.x.F.K.w.c.Z.U 4.",
"4.E r.q.I Y I R 7.V.v.R I G N 7.n.Z.N.4.F.b.Y x.4.J.t.W D.4.I b.v.U 2.6.z.n.4.v.N.5.I 9.c.A.7.2.v.4.N.z.4.F.N.7.N.b.Y I I 2.P H ",
"6.W T U c.R H I W B.E G W W I I N.4.v.M 4.4.Z.4.N q.t.v.U 4.q.W b.c.c.n.c.Y I z.8.2.4.z.I c.v.N.5.2.I b.x.n.N.6.v.2.b.b.2.4.I 4.",
"W z.W U U E I N 6.B.J P U 4.c.v.M.W U 6.R 4.q.z.v.V.q.4.Z.w.6.U W 4.3.I b.C.c.S.N.x.n.v.v.c.2.2.S.Z.Y w.z.4.v.A.Z.I z.v.v.q.4.v.",
"P B.b.H I J M P R P P R J I r.c.P U P U q.R J c.P W T U w.Y U C.q.b.n.v.I E 4.4.K.F.Y z.v.n.z.v.W z.5.B 4.x.4.6.C.6.P 2.4.H 5.B ",
"b.W I 4.I F U v.G P 6.K G W q.F P c.U U E W W w.C.F.W w.E U Y c.Y F.n.z.I x.4.3.5.v.x.x.6.z.x.W 7.n.v.Z v.v.K.M c.v.6.b.W B.v.I ",
"P b.U R F T c.4.w.n F U G W b.Y E v.I P z.b.r.F U t.c.D.q.T n.b.q.x.4.I 2.z.z.Z.M.8.M.Y 4.6.4.V.4.4.z.c.x.c.b.2.c.R K.3.6.R T c.",
"4.6.Y W W T P P W Z N F P U C.W c.n.9.J b.U J W n K R U E 9.z.Y c.z.c.c.C c.Z.Z.F.v.P 4.c.Y 4.c.V.I b.7.4.Y 2.Z.U R b.v.4.U W I ",
"c.E v.U c.z.W n 6.I Y T J b.z.c.n.4.n b 0.r.U 4.W C.U E 6.Z.Y R E c.6.G U V b.n.n.=.Y b.Y I I F.c.Y 5.x.z.=.c.w.b.M.9.9.c.c.c.Y ",
"G x T Y I =.w.n.v.I I Z I Z.K.v.z.b.Y p t.c.z.7.z.z.W R c.U C.I F R S P c.I n.N.v.4.c.c.F I x.9.P W 4.c.n.b.Z c.F.b.z.Y c.c.c.9.",
"P 6.U P c.c.9.4.z.U I R 0.c.b.v.Y U J c T 9.I R W n F F F S W E q.U 9.P U Y Y Y v.v.9.z.Z b.I 4.2.A.b.4.v.=.Y q.n.v.b.c.4.4.W F ",
"b.z.F.Z.N.n.5.G z.c.I n.x.I z.c.z.I J T R E z.n.B.P N K U c.C.q.v.U b.C.J F c.c.9.c.c.c.Y 9.U 2.6.C.C.b.N.z.4.b.K.9.9.9.I Y Y I ",
"Z I Z.v.P 2.z.z.b.c.n.v.4.I v.7.q.9.W D S J w.C.I R T W c.U b.c.4.n.C.E n 4.9.b.N.v.4.I U b.4.4.4.c.b.b.b.x.I n.b.U c.b.v.W v.c.",
"F.z.z.c.P b.b.4.I n.z.4.F.Y Z.Y.I P q.Z v W T J P E q.W S E c.K.F.c.b.U I x.c.C 4.I 2.c.z.4.4.4.N.c.b.U v.c.Y v.c.c.9.x.q.6.M.V.",
"v.n.z.n.v.4.F.Y I b.C.b.z.Y I v.Y v.Y q.q.W N q.n.R E q.T C.n.2.b.V.I I c.Z.j u z.4.w.b.I 4.c.I I Y 4.b.J.b.c.c.b.9.Y I P Y c.c.",
"Z n.n.N.n.W b.C.b.c.A.c.2.9.U b.9.4.I C.W G Y F.P W P A T v.n.I W 4.I U W M   P B.b.b.I I x.U U G W c.Y c.b.6.4.U q.I c.b.U 6.b.",
"z.c.z.v.z.F.Z.C.Z.Z.z.4.5.c.b.c.9.F.9.U q.P z.q.S T G E T N Y c.c.b.z.b.N e t =.z.z.0.Y I 4.4.Y B.Z.c.e.P D F P 9.U q.v.b.N.v.z.",
"b.v.F.F.4.x.n.A.C.6.6.4.4.v.N.Z.Y Z.6.B c.z.6.w.P G F W W c.Y U x d g k # 0 s z.=.J.C.I B U 6.z.q.! E U S D R F I Y D.q.z.v.4.z.",
"U z.n.n.Z.Z.n.F.6.M.Z.c.6.c.I 6.W c.b.c.v.b.Y U E I T r.c j f > 1 2 1 1 ` 6 @ z.Y R C.z.4.b.q.U E P U D Y U K D.U U A.Z.K.x.2.N.",
"7.F.x.n.9.F.b.C.b.c.b.Z.Z.6.C.b.C.r.Z.H.B.A.c.U r.R F F > O 4 8 ( ] ^ _ ..2 r I q.I c.W Y c.n.U U P J P W c.q.Y U R J.C.v.v.x.L.",
"4.x.9.r.Y c.F.Y v.6.U F J.H.Q W G.C.! C.q.5.7.9.W q.0.t 1 ^ ' #. .o.] / q 6 1 f c.6.4.I 9.=.I P H Y T 9.U b.K W ! J.H.H.C.C.b.Y ",
"9.4.Z.b.4.b.F.I 9.c.F.c.B.G.C.C.G.q.q.z.V.b.Z.U t.U z % 8 ' } O.&.$.[ ( ^ ' { 2 Y H.v.I c.I P Y c.Y B.c.c.w.U E E.Z.6.V.D.I.4.H ",
"n.v.v.4.9.b.4.2.6.Z.G.c.C.Z.4.w.C.R b.C.C.q.I C.w.P : , 8 ' %.<.>.$.+.+.@.| | 9 k 9.F A c.K 0.P Y c.c.Y v.b.c.C.c.q.U n.F.W 4.z.",
"N.4.N.7.x.I c.c.Y B.W U U W U v.W n.b.0.r.c.6.W R N + , ( #.&.g.f.s.i.u.| 9 4 2 7 U E G U P P U w.U I z.v.n.b.Z.W B.V.C.b.c.C.n.",
"z.P U 7.z.c.c.4.C T C.b.c.n.c.b.b.W W ! D 9.z.c.c.Z + 6 /  .>.a.h.l.h.d.' ~ / 2 % P R 4.J F I U I G I 2.9.Y 6.U b.4.C.r.U q.9.6.",
"U c.2.x.c.n.W I q.W q.q.z.n.w.c.v.w.P t.q.q.Z.P b.I + 2 9 $.$.-.h.p.y.i.X.5 ~ 2 a F Y U c S I P n I R z.v.W 5.c.B.2.5.R c.c.I w.",
"I I z.Z.x.c.C.b.H.G.Z.q.W z.I W W U E 4.U 0.4.W W b.- 1 / ( %.,.f.+.#.| :./ 2 2 N F D D T D W M.W Y 4.4.W I c.n.n.4.Z U C.z.b.z.",
"V.F.B.n.c.J.H.W U b.q.W N 4.W N 6.6.z.2.q.z.I z.Y u % _ / ( &.>.1.$./ ] | q 4 < k r.0.J W F Y c.I 4.U q.U W c.4.Y I F.w.F.n.Z.6.",
"z.A.C.Z.B.r.q.0.N W 0.W z.N.4.4.b.5.I I 4.c.N J C.@ 2 %.0 / ] [  .' 5 ~ 9 8 2 O B 9.c.W K W 4.W Y q.P H 3.I z.c.v.q.U T c.q.c.W ",
"Y r.H.c.C.t.C.W Z.4.I q.R I c.C.T U R U U F c F y # 1 % 1 q ( q 4 5 4 ' ( 2 2 O k x.C.b.Y W 4.E P K F I 6.4.4.c.b.U P 9.c.V.c.4.",
"R v.K.z.c.t.C.C.C.c.c.U W b.r.c.P c.I 4.q.P I *   w X X : 2 8 3 ( 9 2 2 1 1 2 1 V Z.b.w.v.U T E c R Y W W F.z.Y U Z W Y 4.I 4.n.",
"4.v.4.F.Z.r.t.J.c.c.C.P 0.9.v.R J U T I N I = t l P G P z.v g % , O O 1 7 k $ % g t.V.U 0.R D S F W 6.c.q.b.4.n.w.U c.P Y 4.4.b.",
"n.v.b.Y C.V.F.c.I J Y K U U r.F P Y T J N I K n.T v c c P E K G =.x m m Y V.I u . S U U T e.C.E W T W I q.R P C.C.4.c.C.q.c.W Z ",
"Y z.c.w.n.n.b.4.Y c.Y b.F.c.c q.Y K P K F I c.z.F D R T p D S U c.q.W b.4.z.G C.w & J N P T C.A T P V.Y T C.W U Y Z b.b.U C.w.v.",
"x.4.q.C.F.V.Z n.w.c.4.z.J.z.Y P U H P P W K q.P c P T p i c E P G 0.c.z.c.c.P Y 4.z E U W W T F A 6.q.G U K b.6.Z E W 4.9.b.9.Y ",
"Y b.C.n.V.c.I c.v.N.x.v.Y I J 0.9.U W I E K U T K P A l v U T F W R I v.Y c.c.W W Y Y W I r.r.I B b.V B 5.z.q.I Z q.U U b.b.C.6.",
"E R Z.v.H.b.c.v.Z.c.c.b.Y 4.6.C.z.Y Y T n.F.c.E E T l T T S U U r.R G x.5.C.c.c.c.q.n.q.x.q.I H 5.c.I G U 4.R I W W c.L C.4.6.r.",
"U U c.W t.b.V.9.q.Y =.v.n.9.c.9.Y I w.q.Y A.t.D J P W A J J c.U 6.W N b.6.4.4.P R r.n.R E P R 6.5.I I W U R Y 9.W G U K E q.9.C.",
"9.F.W 4.C.Y b.b.b.B c.Z.C.z.b.q.Y F Y 9.P U E T B.U E 0.P b F Y Y c.B I A.v.9.z.Y b.c.G T J c.A.R 6.0.9.b.P P U E R F P K C.W F.",
"v.A.9.n.C.6.4.I v.I U w.c.c.n.c.Y W R W z.J c.C.B.F.C.C v J E U R Y 5.4.A.R 9.Y c.x.C q.S T b.I I G D.c.U 2.E U v W I c.Y n.P.K.",
"n.c.n.Y 9.6.z.Y z.P W q.4.r.C.c.z.W F T T E b.5.W 9.P U K K r.C.I v.n.c.v.I c.b.c.E E ! F K z.Y z.F E c.G R Y c.I P n I 4.c.x.Z ",
"5.2.n.q.Y Y V.z.x.N v.z.0.C.c.4.F J F p C.9.T U T Y P c.W I B.W c.c.Y 4.z.b.F.c.Y R ! G v F E q.E W v P R Y G c.c.W q.U c.z.I 5.",
"V.v.H B.W 4.v.Y Y Y v.x.U U c.q.z.v.T A R Y 9.Y n q.G W J I c.c.Y Y c.b.q.Y q.P 9.W 6.U U c.R K W F.Y 4.b.W U q.I 4.9.c.n.Y v.x.",
"C.c.c.I I 5.z.Y 9.z.7.Z.z.U 0.t.W U D p c W 6.I F T T r.P P c.Y Y 9.J.C.b.b.q.U E b.t.I Y T G c.C.W 9.z.c.6.q.W R w.c.b.4.Z 4.n.",
"4.6.K.7.6.L.2.I H I H x.U U 4.b.E E U D c P E E P c.c.P q.P 9.I R C Z.b.c.I J z.9.Y c.N c.W Y 9.T W c.7.W 4.6.b.C.W n.Y Z n.x.I ",
"4.c.b.N.n.z.4.4.2.B n.6.n.v.I T E Y c.q.R n I J I P F.c.b.W P N.c.c.b.Y z G U c.n.v.v.Y z.c.U P P b.b.I I W I b.6.U 5.4.I N.6.F.",
"4.n.c.z.2.W P c.5.3.A.5.N.n.I W Z 7.v.I n.c.U K E I Z.W W q.b.Y P C.c.z.I 2.c.Y 4.Z.c.9.4.I 9.I N 4.C.P c.Z.R q.2.b.c.7.3.M.I c.",
"n.n.v.n.x.c.4.C.c.V.N.4.b.v.n.z.Y n.x.9.I 4.T c.C.c.n.6.F.G.n.7.c.b.W I v.x.4.v.x.b.N 4.4.4.F.b.P c.E P 4.q.9.c.5.7.4.4.N.I A.c.",
"c.v.9.n.c.U.v.Y 4.W 4.I n.c.c.v.v.q.v.c.c.b.W c.c.c.! W C.C.v.4.I 4.v.4.Z 7.4.4.5.H 6.4.V.C.c.N.Y c.U E I T Y 5.v.x.x.v.5.v.Z.q.",
"w.I b.b.9.n.4.N.2.I c.Y Y P c.N 4.x.7.v.Z.W c.Y R C.W E r.9.n.Z P 4.n.Y I v.n.c.4.I 7.c.W V.v.v.5.R c.q.c.U C.6.n.V.v.K.N.7.V.H.",
"V.v.N.6.x.F.F.n.I N N c.Y 9.Y I I 9.v.2.z.U z.E w.C.w.v.U n.z.4.q.7.x.I I 3.4.I B.c.v.c.4.4.N.v.Y c.n.J P I Z.Z.K.4.4.A.6.6.Z.I.",
"4.Z.c.5.v.w.q.U t.W 5.v.I n.4.Y Y b.Z.Y 9.Y 6.b.t.C.b.V.c.c.Y n.9.b.b.4.I 5.n.V.V.B.H.Z.N.7.8.x.4.q.C.T P C.C.q.x.x.Y c.C.A.R Z.",
"4.6.I c.c.b.J 0.n.x.4.c.4.z.c.x.z.Y z.W w.4.4.c.q.F.v.r.D.z.q.F.c.c.4.I U c.M.V.b.V.7.A.*.4.6.Y 4.w.U Y z.c.W b.c.6.K.N.Z.r.I 3.",
"6.R x.J P T P q.Y c.U b.n.Y x.n.b.D.c.W G.6.c.C.U c.C.w.q.w.w.Y Y 4.4.4.I 7.7.v.x.3.R.2.4.2.W q.Y F.2.I I Y b.c.b.C.9.z.2.2.7.Z.",
"c.6.2.v.Z.4.Y W I I N.n.c.x.2.I 4.n.Z.U c.J.G.C.q.c.C.c.n.b.9.F.n.v.c.W I x.7.7.M.z.Z.c.x.c.N I Y C.6.4.Y W c.c.W Y R 6.I 4.c.V.",
"7.4.z.c.Y n.4.4.v.c.b.z.N v.6.c.2.w.b.v.U.G.c.J.9.t.z.6.n.c.b.n.F.b.x.P U v.M.n.K.2.z.b.v.n.z.4.n.n.v.v.W 6.6.6.c.Y 5.5.7.7.R W "
};
