/* XPM */
static char *destroy_0[] = {
/* columns rows colors chars-per-pixel */
"64 64 130 2 ",
"   c #3E220D",
".  c #4B260F",
"X  c #53250F",
"o  c #422C12",
"O  c #482B12",
"+  c #532810",
"@  c #5C2B13",
"#  c #4A3317",
"$  c #5F3517",
"%  c #652B14",
"&  c #6C2C16",
"*  c #712F15",
"=  c #633014",
"-  c #6E3115",
";  c #723216",
":  c #733218",
">  c #7D351A",
",  c #4D3E20",
"<  c #52401F",
"1  c #4D4221",
"2  c #584A27",
"3  c #5B512C",
"4  c #555338",
"5  c #5D5C3C",
"6  c #614E29",
"7  c #71582F",
"8  c #615B32",
"9  c #685E32",
"0  c #615D3A",
"q  c #6A6337",
"w  c #65643D",
"e  c #6A663C",
"r  c #65693E",
"t  c #6D6A3D",
"y  c #736C3E",
"u  c #7C6E3E",
"i  c #6F703F",
"p  c #74713F",
"a  c #7A703F",
"s  c #646542",
"d  c #686741",
"f  c #666A43",
"g  c #6C6D43",
"h  c #726E41",
"j  c #796F40",
"k  c #657146",
"l  c #6E7245",
"z  c #6E7946",
"x  c #6E7549",
"c  c #747444",
"v  c #7B7543",
"b  c #757946",
"n  c #7C7A46",
"m  c #727549",
"M  c #7A7649",
"N  c #757B4A",
"B  c #7C7D49",
"V  c #757F51",
"C  c #787F50",
"Z  c #86371C",
"A  c #853C1B",
"S  c #8A3C1D",
"D  c #953D1E",
"F  c #9E3B20",
"G  c #934C19",
"H  c #984120",
"J  c #A84223",
"K  c #AB4F21",
"L  c #AB5620",
"P  c #B65E22",
"I  c #876F3E",
"U  c #81703F",
"Y  c #BD6F20",
"T  c #CC6325",
"R  c #CE6825",
"E  c #D66A26",
"W  c #D47025",
"Q  c #827542",
"!  c #8A7643",
"~  c #837C46",
"^  c #8A7C45",
"/  c #827E49",
"(  c #8A7E48",
")  c #937D45",
"_  c #7D8147",
"`  c #76814C",
"'  c #7D824C",
"]  c #7F884E",
"[  c #768051",
"{  c #7C8551",
"}  c #7D8952",
"|  c #DC8124",
" . c #D88B22",
".. c #E88526",
"X. c #E29323",
"o. c #E4A122",
"O. c #F0AC22",
"+. c #F4B422",
"@. c #F8BF21",
"#. c #FED51F",
"$. c #FECD20",
"%. c #848047",
"&. c #8B8047",
"*. c #83834B",
"=. c #8A844B",
"-. c #84894E",
";. c #8B8A4E",
":. c #928147",
">. c #91844B",
",. c #928B4E",
"<. c #818651",
"1. c #888750",
"2. c #848B52",
"3. c #8B8D51",
"4. c #928D52",
"5. c #9A8E50",
"6. c #869155",
"7. c #8C9254",
"8. c #859359",
"9. c #8B955A",
"0. c #8C995B",
"q. c #929253",
"w. c #989251",
"e. c #9A9956",
"r. c #91975B",
"t. c #909859",
"y. c #A09351",
"u. c #93A15F",
"i. c #98A15F",
"p. c #909D60",
/* pixels */
"*.4.B v v Q ~ -.M Q v *.*.;.;.*.:.Q -.*.7.<.<.2.*.2.B n *.b ~ =.*.B -./ *.n =./ / &.~ *.B -.=.~ v ~ ^ ~ *.t.B -.] c _ &.n ~ ! ^ ",
"I ;.' y ( 3.M N n u ^ *./ *.*.7.;.~ c n N V ] M } N 2.' 3.2._ *.~ / y Q *./ ^ B ~ U v ^ b 7.*.^ / &.=.B B =.*._ ,.2.] =.%.v / *.",
"^ ;.b a =./ h m B 1.M / a 2.-.v %.*.7.-.n B B N c / *.B 7.8.V 2.n Q v ~ v v ~ *.v ~ ~ _ _ v &.=.c I &.~ t B *.*.~ ' -.=.-.Q ~ / ",
"=.] _ =.M B m B 1.4.' B *.2._ *.B *._ 8.2.v ] m *.<.*.2.2.7.3.2.*.*.^ ;.U ~ ~ ;.;.-.' b x -.-.n ~ Q ~ ~ b 7.*.~ ~ ;.=.;.^ ~ ^ M ",
"M / Q / _ c ] { <.<.<.v M v ;.2.~ B 2.*.N m -.z N [ [ i.2.' _ &.,.^ / / ~ %.Q ~ ;.n -.-.Q ~ ~ ~ ,.B -.=.v w.%.;.*.Q ~ ;.v Q *.*.",
"{ v c v B v [ m M d f 1.v u ;.%.%.Q v d l m N ' N } } 3.{ [ ;.=.&.Q ! Q -.4.v U -.=.-.I ^ ~ n 7.=.U v ~ =.-.B *.*.*.;.n Q ~ ;.*.",
"_ 2.B h M *.M ~ <.B v m b *.n %.n B _ l m B B -.3.2.2.m 2.B -.~ / -.^ ~ =.3._ &.n ) ~ n -.-.*.=.a ~ -.v &.( { v n %.e.~ =.7.;.=.",
"-./ M 1.-.v M -.B M ~ Q B _ ;.^ a *.B _ _ Q &.c ~ 5.C 2.2.*.] p ' ^ ^ =.! / =.9.&.=.w.;.%.Q ^ >.%.*.*.=.>.;.v n ~ ~ -.>.v *.-.2.",
"v c *./ c v B 2.{ B c v / *.-.=.n ~ B 4.%.*.*.=.;.w.M *.*._ *.3.*.^ Q v ^ =.*.q.;.;.-.3.*.~ =.-.=.&.^ :.~ >.~ ~ %.7.q.' *.;.b ~ ",
"Q N *.' v n v M ( 1.1.v Q g y ^ ;.7.>.~ 7.-._ &.%.0.2.M 2.~ n =.=.b n ^ ~ ;.~ =.,.^ b _ *.3.&.Q =.~ ;.~ ~ 7.,.^ ,.;.~ b n Q p v ",
"/ ' m b *.M j j B { m h B B v n >.~ &.y Q ~ ;.~ y ' } -.c *.' B *.*./ ;.*.n n %.) n ~ ~ v =.;.>.^ ~ b ;.&.7.,.~ =.a -.-.j ^ v ~ ",
"B / ' b c N j y / 1.x c b ~ / =.>.n b B B ~ _ *.=.1.*.B 3.*.*.c / ~ ! n -.2.*.5.5.&.,.=.&.*.~ U 4.,.n -.~ n =.5.;.v =.=.1.*.n =.",
"c { 2.a v l y v / c v b l v { <.c n l B ' b l *.b _ N m ] n b -.` -.;.=.v N ~ U 3.7.v =.*.;.*.&./ *.~ u ~ ~ ~ ~ -.*.c Q ~ j ^ u ",
"*.B v ~ v g c -.g c B x h B ' t c *.b b B B B *.-.;.' ' N b v 2.B 7.;.=.n &.~ ~ ^ =.=.&.~ %.&.B ^ 1.=.U ;.=.t.t *.;.~ *.B <.;.v ",
"c ;.b M g c *.~ ] t h m y B 1.B B *.v c ~ -.} l m 2.<.6.' b ;.-.*.&.B a U %.%.7.:.) >.v ~ / ^ -.~ ^ %.*.&.&.*.Q ' M t.! / B m *.",
"B ~ B B B m c c B u y g l b 2.B *.;.B l -.N f B t x b b b B %.B ~ *.*.*.p %.3.3.7.=.v B *.n B =.-.b =.~ ~ n Q 3.N n -.&.^ c M v ",
"*.b =.B *.~ B t ~ v B m m -.~ *.;.~ t r ' [ M ~ M 2.c B / ;._ M N *.*.g b y *.;.;.a B =.n n a 6.-.n ^ ^ %.~ _ ' -.,.*.n *.*.*.b ",
"h q c b v v ' ;.&.n a p b ;.q.,.%.*.B 5 } ] &.^ / *._ N _ N 2.M g M e c *.b ,.,.=.%.*.*.i a =.] c B Q -.>.-.a %.7.=.%.B %.] *._ ",
"c / b v *.*.*.~ *.n v B _ _ -.=.B b l w c B b n / t f h l f N M _ v _ c m n B B ;.&._ _ a -.n U Q 3.-.~ =.a n _ ;.-.-.=.~ ~ M h ",
"-.*.7.;.,.;.~ p ~ *.c =.&.n %.*.%.n t m B N / ;.<.c y x v *.2._ -.M -.2.l i *.*._ %.*.%.B _ B Q / 3.2.-.w.%.~ -.7._ _ n v n n n ",
"y n 4.=.c Q _ %.-.*.,.=.n Q =.~ *._ _ d d l ] <.v M m B *.c 2.*.~ -.2.B t ~ B -.,.*.~ v b -.B ~ ~ *.-.2.-.&.a ;.-.b *.-.=.B =.*.",
"q.%.%.*.v -.-.~ c ,.~ %.3.B 3.y.v b B p e B m c l N ] B g b *.q.7.*.-.b v &.*.*.~ n Q =.%.%.I ~ >.-.*.n =.*.B =.%.*._ &._ / >.1.",
"-.;.%.-.=.~ 7.n b ;.2.;.%._ a ;.B *.B ' _ B g ' ;.M N *.x 2.;.Q *.;.v c -.3./ *.*.~ ' ;.B Q ~ v n B ~ -.0.-.*.*.-._ n a c B *.-.",
"a =.;.,.;.B ;.2.*.*.7.B ! _ B -._ ^ Q 2.B h n 7.c B h s m ;.=.v ' *.Q b _ v *._ *.2.-.v a =.b b y N =.b *.-./ ~ b ' b =.-.M n -.",
"&.%.%.=.&.7.3.2.3.3.*.! ^ &.*.*.B t.B v ] c *.' t m h N b y _ *.*.2.B -.n =.=.Q %./ ` v U B ~ B <.2.<.' l g g x ' n *.=.-.,.&.*.",
"-.-.7.7.~ &.=.7.2./ ~ / *.&.3.3.b 3.~ u / %.^ ' m g f B B *.n c b } B *.~ %.] ~ v 7.2.n a b ~ / ] B N m d d M g a b 2.] %.=.~ %.",
"b %.;.;.3.3.;.7./ >.7.' / *.v / n -.*.-.=.-.n b ` v m { w m B n *._ B =.-.b *./ ~ B 3.*.%.-.*.n N h b f ~ b N 2.b b 4.2.q.&.Q ,.",
"^ 7.&.;._ 7.-.2.=.-.*.3.3.B 2.2.2.` 7.8.<.4.-.c { M g c w f e 7 t v -.2.~ -.*.v B v *.N B %.-.b M c l c _ ' B B b B 0.2.=.=.&.w.",
"~ &._ } n *.7.B ;.B c l 0.9.' B 8.2.C 2.*.^ ( _ N ' N w m 5 @ ; @ . q B b a -.%.*.*./ v ' U a c c v c _ b *.z B C 0.9.9.2.2.-.n ",
"' ~ 3.-.~ *.;.n *.*.7.*.<.8.<.2.8.' _ *.1.2.3.b } b c ] 3 @ : * S * X   8 B *.=.*.9.=.v -.c p B *.B 2.*.-.] b N p.3.B 3.6.r.^ h ",
"=.&.;./ ' =.%.Q ~ ;.8.*.2.3./ ] 2.N -.2.2.B v 2.-.v a B . D D P | W A @ < B -.-.y _ g d *.l ' x B *.*.v =.] *.2.<.B v =.7.B ~ *.",
"4.~ >.&.&.b *._ b <._ b c ' b =.*.=.*.[ { *.*.B M b b 3 @ J E O.@.X.S ; # _ ;.,.z B N g n c y n ] b v *.&.,.-.3.B 2.-.2.-.*.2.;.",
"%.v N ^ / *.*.~ c c -.{ ' ;.*.-.*.B B V f _ _ *.*./ ] o . Z ..$.#.+.R Z # B n 7.b c B n h g b v v h v Q _ B ~ n -.~ 7.' m ' _ / ",
"b *.v &.*.3._ v B B ] ] *.;.] *.1.] c { ] ' ;.b *.;.*.q @ Z T Y o. .L ; 3 B B 3.b g n b e f v c g v v *.&.B ~ *.-.Q ^ m *.*.v ] ",
"v b *.3.&.*.2.-.9.8.;._ B %.v B _ v N ~ b b ~ B / <.q.a = > F L D & % O q b n &.M l f f m f _ >.B v Q ~ B b / ;.;.~ u b 2./ -.*.",
"=.7.*.=.*.p.9.B N -.*.B y ~ B u B *.^ n *.*.Q %.b c b M 1 o @ G - . = w B *.~ v m } N c M g _ / v / b ] M _ *.~ B v 7.] 7.;.3.^ ",
"*.4.2.7.<.{ B ` y B _ B *.;.~ B 2./ Q v ~ %.c l 2.v =.~ v _ q 2 6 8 x v %.4.,._ ~ _ -.B z B ~ B B ' c j Q v / *.;._ c c ' *.*.n ",
"v { 7.*.2.2.2.B 3.~ c ' M n *.=.c c M v b g w g *.B ,.^ v 3.B -.*.p n y n -.*.*.v ( 2.-.B B ~ N h x g v / ~ ~ *.*.b b *.*.2._ ~ ",
"B &.4.*._ } 2.2.2./ <.b B *.<.{ c *.b / B c *.B ] v c c / h ;.' ] b / -.B _ _ 6.2.3.-.] =.c m m e M n B ~ 7.*._ b c B B Q v / ;.",
"~ >.n 7.3.{ 2.0.*.-.2.c b / ;.v m c m v y n / v w c c b *.B / v -.b *.2.~ ;.' 2.N } 3.N _ M f f g B *.*.N ;.~ ;.*.b *.l _ ^ ~ -.",
"-.=.*.n 2.1.7.*.c i B x c b ' l c B b l y v N ;.m t w w c N m c &.c c *.B ;./ p s d b b M C } B B m B v ' M c 2.2.B -.2._ -.B a ",
"n *.-.] ;.;.-.~ n *.~ -.7.*.w { B x c x f v *.*.l d b c 5 f g c *.B B *.B &.c 2.m g l y h N 2.s m v 1.n b 2.B b n a *.-.b 2.-.=.",
"&.~ ' 1.7.1.v =.*.-.^ ~ 0.*.b l b u c c B x _ c w l m 5 4 d N g g ' *.*.*.%.l ~ %.b _ m C B m l s / ' h v x *.B a N B n _ -.B b ",
"n -.2.;.2.*.v *.*.,.&.;.n v c B _ b B a N x b m x c s 0 d c m h B M M =.B *.*._ B n M B v <.C j u -.i u ~ *.] n a *.c B ;.-.-.%.",
"N M 3.*.r.-.*.;.3.-.*.*.B ~ n 6.=.n B m 1.7.-.N N N 0 m z f b v <.m h =.~ =.*.%.*.<.-._ =.B m j ~ *.v h b ~ b a B B ] k 2.M / { ",
"b b *._ { *.1._ _ ~ v =.;._ *._ n b ' _ ~ 3.{ g g c B s l x *.c / *.h *.&.~ B c M ] ;.M M c ~ / ^ v v B b M ~ B B h m l N ' *.-.",
"_ 7.B ~ 2.~ *.2.-.p *.-.2.%.-.' b y B B c b N N 2.m N N v r l B v -.I n 3.=._ &.B -.*.c b g <.,.v *.' B -.m c b N M c c x 2._ 6.",
"=.4._ ;.2./ ~ v &.v B ] %.=.;.%.B B M n ( l ' 2.*.r.} c q l N c M b Q ~ q.M B B %.&.y ' f N *.v h h 6.*.c ~ M b e B v ~ _ ;.e.q.",
";.*.;.n B ~ *.v *.p B _ ~ ' 2.*.*.M g N c N -.~ *.*.c v x x { 2.v ;.;.*.=.B *.-.' B N [ f x ~ B =.h ` ] c M n *.v m y n ~ =.%.a ",
"^ Q ;.' n B ;.%.&.y =.*.` 8.*.~ p g g 5 } _ m N c b c _ B v <.B B *.Q B ~ *.7.*./ N B c d g N _ M N e c M b y *./ B _ b *.B Q ^ ",
"1.=.j <./ ~ =.Q n n =.&.c b *.' *.=.m f B B *.~ t *.c C c v *._ n B _ ;.' B ] c B B / c B *.M m B 7.n ~ =.' M _ v ~ _ *.=.B %.=.",
"2.*.*.v v ~ %.n _ %.^ 3.*.m ` } B b s 5 0 B ~ p d m m ` c c *.B ~ _ t.6.-.*._ b B ] ] v v N h ] 2.b *.~ *.B ' ' M ] *.-.~ a ~ ;.",
"~ / q.^ &.q.~ v a v u =.b n ~ *.N N c f w c N N c -.*.c ' c _ v n p 3.3.*.c c %.B ~ *.p *.b B _ b M *.&.B ~ _ 2.2.*.=._ a =./ v ",
"n =.*.,.;.*./ v ! u ;.( =.;.b m N n -.' n g v l h v 4.*.-.B v ;.*.B *.b q y b *.*.=.=.n %.-.b a c -.-.v c B v =./ M ~ ~ n w./ 3.",
"~ ;.-.*.Q b v -.Q ^ 4.~ ,.,.v ~ v ^ &.c =.-.b l [ v 7.B B ` =.B c -.=.*.a Q %.b ~ 3._ *.^ a ~ v p ~ 2.c *.1.B _ Q -.*.~ ^ >.n %.",
";.;.&.;.&.] ~ 1.*.1.;.%.*.=.-.%.n ;.&.B ~ Q m *.-.*.=.*.7.8.;.&.-.-./ v ;.=.~ =.=.*.c Q ~ B 7.-.c *.N c / *.B *.=.^ Q ^ ,.v 4.*.",
"_ ;._ ;.] r.>.B ~ B *.v ;.&.*.=.;._ =.*.*.-.B *.*.-.C B 2.2.;.~ b a =.~ U &.~ ~ ^ j *.^ -.2.*.,.n %.c N n m ~ ^ &.*.^ =.^ 1.3.' ",
"*.v -.-.n ;.~ ,.Q v _ n n c *.y ~ =.^ =.;.B *.B b <.B N ' _ ;.a c ~ ;.B b &.;.*.M v ( *.M -.*.>.Q B -._ *.m 2./ ;.;.=.q.,.( 1.7.",
"3.1.,./ &.3.2.;.v y y *.B _ B a b n =.n %.b *.N *.2.] 2.b ;.~ ~ ' ^ =.a v ! ~ v <.=.-.*.^ ~ ,.=.~ _ ;.m l a 2.3.,./ ~ 4./ / 3.r.",
"Q 3.=.~ =.] ] b } B ^ =.n ;.Q B ~ -.;.Q _ n ~ -.} 3.=.1.*.*.B ;.*.-.-.~ v ^ ;.1.1.1.8.1.,.( :.%.~ <.2.x c 3.2.' &.&.n *.<.3.~ 3.",
"/ / v *.*.-.c ` ;.:.~ *.~ %.*.=._ B &.B ' ~ / *.` q.*.[ 6.%.' 3.*.*.~ a c / >.3.=.;.( 5.~ Q ~ b *.' b n *.&.N -.] / 4.;.4.<.v ! ",
"/ v &.l b c c ' n *.b *.=.n =.=.;.2.*.B 8./ -.1.b -.2.-.' -.] B _ %.~ ~ v =./ =.=.Q p.! Q U *.' B 3.Q n v n ;.*.*.2.*./ M Q =.1.",
"*.B Q 1.;.~ n B v b 4.;.*.^ U n ~ ;.7.v *.0.8.2.' *.2./ ;.-.%.7.;.=.*.M v ( ^ >.:.*.;.*.=.*.p v n 3.^ ~ b B *.*.*.b ~ / Q ~ / 1.",
"=.! *.*.b ;.~ ~ ;.%.-.~ y ;.~ *.n ] *.;.0.6.*.9._ } %.*.-.-.*.;.7.-.*.a b =.>.-.q.Q *.-.=.;.*.Q ;.;.*.=.~ *./ / B ~ ^ / ( ( M B "
};
