/* XPM */
static char *destroy_2[] = {
/* columns rows colors chars-per-pixel */
"64 64 199 2 ",
"   c #3B1E0B",
".  c #36210B",
"X  c #3C220B",
"o  c #3D2C12",
"O  c #43230C",
"+  c #4B240E",
"@  c #54250E",
"#  c #5B250E",
"$  c #50290F",
"%  c #402710",
"&  c #4F2610",
"*  c #432B12",
"=  c #4A2D12",
"-  c #542611",
";  c #5B2710",
":  c #532A13",
">  c #5C2913",
",  c #433115",
"<  c #4A3316",
"1  c #453419",
"2  c #4A3618",
"3  c #44381B",
"4  c #553F1E",
"5  c #64270F",
"6  c #642B14",
"7  c #6C2E15",
"8  c #6D2F18",
"9  c #692710",
"0  c #782C12",
"q  c #673C1D",
"w  c #733016",
"e  c #753219",
"r  c #7C351A",
"t  c #78381A",
"y  c #4B3D20",
"u  c #4E4223",
"i  c #514222",
"p  c #564B27",
"a  c #594E2A",
"s  c #564A28",
"d  c #5B522B",
"f  c #5D5D3C",
"g  c #5A5735",
"h  c #6C4A28",
"j  c #62562C",
"k  c #7E572D",
"l  c #70532C",
"z  c #645C33",
"x  c #6B5C31",
"c  c #615D39",
"v  c #775931",
"b  c #65643D",
"n  c #6B663C",
"m  c #6D6B3E",
"M  c #69663A",
"N  c #736235",
"B  c #736C3E",
"V  c #7C6E3E",
"C  c #6F703F",
"Z  c #74713F",
"A  c #7A713F",
"S  c #646642",
"D  c #686741",
"F  c #666A42",
"G  c #6C6D42",
"H  c #736E41",
"J  c #796F40",
"K  c #6E7245",
"L  c #6E7549",
"P  c #6F7848",
"I  c #657146",
"U  c #747344",
"Y  c #7B7543",
"T  c #757946",
"R  c #7C7A46",
"E  c #727549",
"W  c #7B7648",
"Q  c #757B4A",
"!  c #7C7D49",
"~  c #787F50",
"^  c #757F51",
"/  c #912C13",
"(  c #81361A",
")  c #8C361D",
"_  c #85391C",
"`  c #8C3B1D",
"'  c #923A1E",
"]  c #9A3A1C",
"[  c #95371E",
"{  c #9D3A20",
"}  c #A23A20",
"|  c #8F441C",
" . c #94421E",
".. c #9B441E",
"X. c #9D4A1E",
"o. c #A5461F",
"O. c #A34D1F",
"+. c #A84A1F",
"@. c #A8461F",
"#. c #A4521E",
"$. c #AD531E",
"%. c #AE5A1D",
"&. c #B3561F",
"*. c #B55D1F",
"=. c #B85B1F",
"-. c #BD641F",
";. c #B3621E",
":. c #834120",
">. c #944120",
",. c #964B25",
"<. c #A74220",
"1. c #AB4521",
"2. c #AD4821",
"3. c #A54F20",
"4. c #B14E21",
"5. c #AF5720",
"6. c #A7592A",
"7. c #B45522",
"8. c #B95821",
"9. c #876F3E",
"0. c #986535",
"q. c #81703F",
"w. c #BF6320",
"e. c #A76431",
"r. c #C16C1E",
"t. c #C6711E",
"y. c #C9741E",
"u. c #CE7A1E",
"i. c #D27F1E",
"p. c #C55824",
"a. c #D15C27",
"s. c #C76F20",
"d. c #CD6D22",
"f. c #C96623",
"g. c #D76926",
"h. c #DB7326",
"j. c #DE7926",
"k. c #D77324",
"l. c #E07826",
"z. c #827542",
"x. c #8A7643",
"c. c #837C46",
"v. c #8A7C45",
"b. c #827E49",
"n. c #8A7E48",
"m. c #937D45",
"M. c #7D8147",
"N. c #76814B",
"B. c #7D824C",
"V. c #7F884E",
"C. c #768051",
"Z. c #7C8551",
"A. c #7D8952",
"S. c #D5841E",
"D. c #D7881F",
"F. c #DD8D1E",
"G. c #DC911E",
"H. c #E69C1E",
"J. c #E0941E",
"K. c #E9A71F",
"L. c #F0B81F",
"P. c #DB8322",
"I. c #D68421",
"U. c #E28724",
"Y. c #E48C23",
"T. c #E49B21",
"R. c #EA9B23",
"E. c #E09520",
"W. c #EAA322",
"Q. c #EDAC21",
"!. c #F0A723",
"~. c #F0B221",
"^. c #848047",
"/. c #8A8047",
"(. c #83834B",
"). c #8A844B",
"_. c #84894E",
"`. c #8B8A4E",
"'. c #91844B",
"]. c #928B4E",
"[. c #928147",
"{. c #828651",
"}. c #888750",
"|. c #848B52",
" X c #8B8D52",
".X c #928D52",
"XX c #9A8E50",
"oX c #869155",
"OX c #8C9254",
"+X c #859359",
"@X c #8B955A",
"#X c #8C995B",
"$X c #929253",
"%X c #9A9956",
"&X c #939657",
"*X c #A09351",
"=X c #93A15F",
"-X c #98A15F",
";X c #909D60",
/* pixels */
"(..X! Y Y z.c.(.b.W Y (.(.`.`.(.[.c.(.(.`.A.|.|.B.}.Q c.(.E c.(.(.! ).(.B.R ).b.(.).z.).M._.`.c.U c.v.c.(.#X! (.A.U M.(.R b.z.v.",
"q.`.B.V n. XW Q R V v.b.(.(.(. X`.v.U R Q C.V.W A.N.|.B. X|.B.).c.c.B A (.(.v.! c.q.U v.T OX(.x.)./.).! R _.(.B.`. X_.)./.A b.).",
"c.`.T V ).b.H E ! }.c.! A |.|.z.^._.OXA.R ! Q Q U b.(.Q oX@XQ  XR q.c.c.A Y c.(.A c.c.R B.R /.).A 9.v.c.N M.(._.x.(.V./.(.Y c.(.",
").B.B.).W ! E ! }..X! ! (.V.B.(.Q ^.B.oX|.W (.E (.B.).oX|.OXoX_._.(.v.).z.c.^.`.`._.B.T K _._.Y c.c.c.c.T &Xb.R M.`.). Xv.n.z.R ",
"c.! z.b.B.U B.A.{.{.{.W ! W ).|.x.B.|.(.T E _.Q W Z.C.-X|.B.B./.].v.(.b.c.^.z.R `.R (.oXR c.c.c.`.R `.).Y &X(.`.(.c.c.`.Y z.(.(.",
"B.W U Y ! Y C.E W D F (.Y V `.^.c.z.Y m K E Q B.L A.{.+XB.^ `.`.).z.x.z.(.$XY q._.)._.9.x.c.c.oX).q.U c.).).R ^.(.(._.c.c.c.`.(.",
"(.|.b.H T (.R ! Z.! Y Q T (.R c.c.Q B.C T Q R _. XoX|.E |.! _.c.c.(.x.c.). Xc.).T [.c.R `._.(.).A c._.Y ).).Z.R c.c.%Xc.).OX`.).",
"(.B.W {.(.z.W _.! W b.q.R B.`./.U (.R M.! c.).U c..X! |.|.(.B.U (.b.n.).x.b.).OX/.'.XX`.c.c.v.'.^.(.(.).[.).Y R R v.(.`.Y b.`.|.",
"U U (.b.U Y ! _.{.! U Y b.(._.).W c.R OX^.(.(.(.`.%XW (.^.B.(.OX).c.z.z.v.).(.$X`.]._.oX(.^.).(.).(.x./.c.].v.(.^.OXOX(._.$XU c.",
"z.Q Z.(.Y R Y W n.}.}.Y z.G B v.`.OX].x.OX_.R ).c.#X|.! oXx.Y `.).T c.b.c.`.R ).].v.T M.(.].v.c.).v.$X^.q.OX].c.].`.R Y Y Y U V ",
"(.! E T (.W H J W B.Q H M.Q Y R ].c./.B c.c.`.x.B B.A.(.T ^.B.Q (.(.c.`.(.c.T M.m.z.x.c.Y (.).'.v.c.A  X). X].c.).R _.`.Y x.U c.",
"c.b.B.T U Q z.B (.{.L U W c.b.).'.R T R R R M.(.(.`.B.b. XB.(.U B.c.x.R _.|.(.XX]./.`.`.).(.c.9.].).R V.^.R '.].`.A ^.).).(.c.).",
"E {._.J Y U m U c.E U Q K Y Z.{.U T U ! B.! K (.U Q E T B.R ! _.M.(.`.).Y M.R x.$XOXY (.).).^.(.(.(.c.V v.c.x.R _.(.A c.! U v.V ",
"(.M.Y c.Y G E ).G U c.E H ! B.m U (.T T W Q M.(. X`.(.B.Q T T (.! OX).).R v.c.x.v.).).).c.^.).B.v.`.).q.).).#XB (.).B.(.! }.).Y ",
"U ).T ! G U (.c.B.m H E B !  XT Q ).Y U (._.Z.G E |.A.oXB.T `._.B./.c.U A ).^.$X[.m.'.R c.b.x.`.c.v.^.V.(.^.(.c.(.W &Xz.b.! Q (.",
"! c.T ! ! E U U c.U B K G T oXR (.`.! K _.T K Q m E T T E b.^.R (.(.(.(.U c.`.|.OX).U c.(.R ! (.(.T ).v.x.c.R  XW T `.(.x.T W J ",
"(.W ).Q (.M.! m b.Y R K E _.c.(.`.v.m b B.Z.Q R ! |.U W (.`.R ! Q (.(.G T B (.'.[.A ! ).R A A OX_.! v.v.^.q.(.V._.].B.M.^.B.(.W ",
"U M U R Y z.(.`.).Y Y A T  X$X).R _.Q f A.(.v.n.b.(.Q ! (.T |.R G W n U (.T ].e.6.c.(.(.m R ).M.U ! c.(.`.(.A (.OX).^.M.^._.(.B.",
"U c.T U (.(.B.c.^.R Y ! M.^._.`.M.P K b E ! T c.b.n G H G D ! Q B.Y B.U U R k +.6.).M.M.A _.T c.x. X(.c.).q.A V.`.)._.(.R c.! B ",
"_.(.OX`.].`.v.B ^.(.U )./.T c.(.c.c.U U T Q (.).|.U n E T (.|.Q `.T _.(.K K q 0 k (.^.(.R B.R R b.oX_._.$X^.^.^. XM.M.M.W R R W ",
"A R `.).U c.c.^._.(.].).R c._.x.(.R Q F D K (.|.Y Y E B.(.T _.c.c._.|.Q m A 4 N ).(.c.Y T (.c.^.c.(._.oX(./.R `._.M.! _.).Q `.(.",
"OX^.^.(.U _._.^.U ].c.^.`.! `.*XY T B.Z n ! E L K Q C.T G W M.j o o u d n N M ^.c.Y x.(.^.c.v.q.`.(.(.! _.^.R ).^.B.^.).^.c.'.`.",
"(.`.^.`.).c.OXR T `._.`.^.Q Y `.c._.R (.! B.m B.|.U d * s z < O + + O X . d (.b.c.b.V._.c.R ! Y R R c.(.#X).(.(.B.M.R A U R (.(.",
"A ).`.].`.! _._.(.(.OX(.q.(.T _.M.x.Y  XQ B R OXd . X X O + + > 8 8 6 > + X m M.(._._.Y A (.! Y B Q ).! (._.B.c.T V.R )._.T R _.",
"/.(.^.).(. X X|. X X(.x.v.(._.(.M.OXB.Y B.A B.M . O > - + @ @ e r { ( e 6 O x x B ^.N.z.Y R (.R {.|.B.B.K F G U B.T (.^._.].)./.",
"_.`.OXOXc./.`..X|.b.c.c.c.).]. X! |.c.V (.c.b.p X 6 e 6 # # 5 w _ 3.<.( 6 + = X . M._.R A T c.c.B.! ^ Q D D ! G A R oXB.(.).^.c.",
"U ).`.`.`. X`.OX(.).oXB.b.(.Y (.! (.(._.(.`.z 2 O 6 e e 7 7 7 r  .&.O.` t > @ + X a `.(.c.|.(.R Q U E G c.Y Q |.U R  X X$Xc.q.].",
"v.OX^.`.(.OX_.|.).(.).OX.X! |.(.|.Z.oXoXZ.z X O @ 8 | ..#.X.`  .5.3...$.) r w 8 O * B.W R (._.T Y U G U B.B.B.Q Q ! #X|.`.`.).XX",
"c.).B.V.T (.OX! `.R Y K #X@XC.B.+X|.B.{.(., O 6 w ( 5.w.d.s.;.r.u.3. .5.e 5 7 # + < b.T B.q.A E U R E B.T B.T Q ~ #X#X@X`.|._.R ",
"B.z.OX(./.(.`.Y (.(.oX(.{.+X|.|.+XB.! (.G . - 8 _ 4.a.g.l.P.F.Y.I.y.3. .0 5 # @ + + N Y (.Y U R (.R (.(._.(.T Q ;X|.!  X|.#Xv.U ",
").).).c.M.(.^.R c.`.oX(.|. Xb.B.|.T (.|.z X & e <.8.g.l.Y.R.R.W.F.D.=.] 0 9 5 # + O X g (.K N.K ! ^.(.R ).V.(.|.(.B.Y ).OX! x.(.",
"].c.].)./.Y (.(.T |.! T U B.T ).(.`.(.C.B.* O ) 2.p.h.U.R.W.W.W.H.D.y.r.O._ r # - - X a T Z A T V.R U (.).`._. Xb.|.}.|._.B.|.`.",
"c.T T v.(.(.B.c.U U |.|.(.`.(._.(.B.! C.g X + ) 1.&.h.I.T.Q.H.G.W.W.U.l.7. ._ w 7 : X z K m W Y U B Y c.M.R c.Q _.c.oX(.E B.B.b.",
"T (.z.).R `.^.W B.Q B.B.^._.V.(.`.(.U A.G X & ` @.4.r.-.S.~.K.L.Q.!.Y.k.8.1.` r 6 O O m b G T A m W Y ^.).! x.(.(.c.c.T _.b.Y B.",
"R T (.`.).(.{.}.@XOX`.B.Q ^.Y ! Q Y T R T 1 + > r (  . .r.G.T.G.S.I.U.j.a.1.[ t @ = b F K D B.).R R x.c.M.T (.`.`.x.Y ! _.)._.(.",
"). XZ.).^.=X#XM.Q _.(.R B ^.b.B ! (.v.Y (.2 O + # # w  .=.t.r.*.%.8.d.f.1.} ' e @ * b K Q G c.(.T ! T B.W R (.c.Q Y OXB.OX`. Xc.",
")..X|. X{.Z.M.N.B Q Q (.(.).c.R _.b.Y Y ^.1 O & + # r  .=.=.O. .>.2.8.8.{ { r w - O d R T Q c.! R B.U U x.z.c.(.`.M.P U B.(.(.! ",
"R B.@XB.|.A.|.!  Xb.U ! R c.(. XU W W Y T 1 X 6 7 7 e  .+.+.' -.,.>.2.} } ) w - O * T _.R ! c.Q U E G z.c.c.c.(.(.T U ^.(._.(.c.",
"! ).$X(.B.Z.|.|.|.(.(.! Q (.Z.Z.U (.T c.Q 3 X : 6 e o.t ( _ _  .` ' { [ { r 8 O s `. XB.).E E E b W R Q ! OX(.M.! A B.! x.Y R `.",
"c.'.R .X XB.+X#X(.(.|.Z Q (.).Y E T E A B M o X   - %.t...e 7 # 9 5 w t 8 8 & O z A.|.T M.T F D G ! b.(.Q `.c.`.B.T (.K M.c.c._.",
"_.).(.! _. XoX(.T C R L T T Z.K U ! T K B A Q M o   $  .e w > @ @ @ ; 7 @ + X i b D T T W ^ A.! ! E ! Y B.! U |.oXR _.|.B._.R U ",
"R c.(.A.`.`._.x.R (.R _.OX(.b B.! K U K D n M.).b y X   O $ > + + + + + O < d |.E G K B H ^ |.S U W }.R E |.Q T R A _.(.T _._.).",
").c.B. X X|.Y _.B.`.v.^.&X(.T U T J U E h : T U b K c u <   O + O O X O p ^.U R l U N.U ! ! E K D b.! U W K _.B.A Q Q c.B._.R M.",
"R _._.`.|.).Y (.(.]./.).! U U ! M.T R ,.] v E E E U S f D M i i a d 1 o M (.^.B.h t Y ! W Z.~ J V (.Z A c.^.B.Y V B.T R _.|.(.b.",
"E Q  X(.OX X(.). X(.(.(.R c.R oX(.W c.6.6. X_.Q Q Q c U K G E Y (.T U c.x.|.(.(.(.t ( ,.0.! U J c.(.z.B T c.Q z.! ! B.I |.c.R {.",
"! Y (.B.A.(. XB.! c.q.`.`.M.(.M.R Y (.B.M.`.A.F G U ! S K K (.U ! (.H (.c.c.c.U ! :./ 2.7.J c.b.b.W Y ! Y Q c.R ! U T K Q B.B.|.",
"M.OXR c.|.R (._._.U (. X|.(._.B.R m R ! U T Q E |.E N.Q T b K Q R (.V R .X).R c.! 0.o.7.0.K n.].Y (.N.M._.U U R W Q K U K |.M. X",
")..XM.`.|.b.c.Y /.R T B.^.)._.).R ! R R (.K B.`.(.OX|.U M K M.U R Y x.c.$X! B.R ^.).V z.D Q {.Y H H oX(.U R W E m Q Y c.B.`.%X$X",
"`.(.`.R ^.c.b.Y (.A ! Q v.A.|.(.(.T G W E Q (.c.(.(.U T E L (.|.z.`.`.(.).R )._.(.Q E ~ G L c.R (.G N.{.H W R B.Y E m R c.).^.Y ",
"v.Y ).B.T !  X^.(.B ).(.M.A.(.c.C K G f A.M.E Q U Q U B.! U Z.! ! (.R R b._. X(.! Q ! U D G Q B.W M.n U R W H (.(.! M.! ^.M.c.v.",
"}.).W (.R ^.).R Y R ).).U T (.B.).).E b ! R (.R m B.H ! K Y (.(.R R B.`.B.R V.U B.R b.T ! B.! K ! oXR c.(.B.T B.Y c.B.(.`.R c./.",
"|.(.(.Y R x.c.R M.^.v. X(.T N.A.Q E F f c ! b.A D Q E B.U U (.T c.! #XoX(._.M.T ! _.(.Y W Q B B. XT (.b.(.b.B.M.R B.(.(.c.A c.`.",
"c.c.$X/./.$Xc.Y U Y q.).R T c._.Q Q E F b U Q E U (.(.U (.U B.R T A  X|.B.Y U M.R R (.A (.T R (.U ! (./.R c.^._.|.! ).M.U `.n.Y ",
"c.(.(.].).^.c.c.q.V ).n.`.).Y E T Y _.B.! G Y L U Y OX(.`.Q Y ).(.(.(.T M V T ^._.).).! ^.^.T U U (._.Y Y ! Y (.b.R b.c.z.].b. X",
"(.`.(.(.c.! U (.c.v..Xb.].].Y M.A ).).U ).(.T U B.W  XR Q N.(.c.U |.(.).U q.(.R c. XM.M.v.T R Y H ^.{.U (. XW B.z.(.(.v.v.'.R ^.",
").`.).`./.(.c.|.b..X).^.(.)._.^.c.`.v.B.z.c.T (.|.(.(.(.&XoX`.)._._.R Y ).).c.(.).(.A c.^.c.OX_.U (.Q E b.B.B.(.n.).R x.].Y .X(.",
"B.).M.`.B.&X'.! c.! ^.R `.).^.).`.B.).(.(.(.Q (.(.(.{.N.|.|.).c.A R [.v.T v.c.b.n.J (.c.}.{.(.].R (.U Q W E R v.).).v.).x.}. XB.",
"B.R _._.B.`.c.].z.W M.R R U B.B R /.v.). XB.B.^.W Z.! E N.B.`.Y U c.`.R Y ^.`.(.c.J c.).! |.).).x.! (.B.(.Q |.c.`.).).%X].n. XOX",
" X).].c.). X|. XY B B (.c.B.c.U T c.`.A c.T (.T B.oX(. XT ].c.v.B.v.(.A Y x.c.W Z.).(.(.v.c.'.).R (.`.K Z U  X X.Xv.c.].b.b. X@X",
"c..X(.v.`.B.(.T V.! x.`.T _.x.R c._.`.R B.R c._.A. X(.`.B.(.R `.(._._.c.R v.).).}.|.@X X].n.[.).c.B.|.E U  XoXN.(./.R B.{. Xb. X",
"c.b.Y (.(._.K N. X/.c.(.c.M.(.).^.R (.c.B.c.c.(.N.&X(.B.oXM.(.oX(.(.c.Y U (.'. X(.].n..Xx.z.c.R ^.B.T R (.(.! _.B.^.].`..X(.W z.",
"b.U (.U T U U B.R (.T (.).c.).)._._._.! +Xb.(.|.T (.oXB.(.V.B.! M.c.c.c.R n.b.).).z.;Xx.R z.B.B.! OXq.R Y R `.^._.|.(.(.W z.).}.",
"(.b.z.). Xc.R R Y Y ].`.(./.q.c.c.`.OXU (.;XoX|.B.(.|.(.`._.M.OX`.).(.R Y ).v.m.[.b. Xb./.(.A U R _.(.c.R W (.(.R R ! b.c.W b. X",
").z.).(.T `.c.^.).(._.^.B ).c.(.c.B._.`.#XoX(.#XB.A.c.(.`._.(.`.OX_.n.U T ).[.|.%Xz.^._.).`.^.c.`.`.).).! (.b.c.(.! v.x.n.n.W c."
};
