/* XPM */
static char *destroy_3[] = {
/* columns rows colors chars-per-pixel */
"64 64 205 2 ",
"   c #321F0A",
".  c #35220C",
"X  c #3C230C",
"o  c #3B2C12",
"O  c #421F0A",
"+  c #43230C",
"@  c #4B230D",
"#  c #42280F",
"$  c #53230D",
"%  c #5B250E",
"&  c #4D2610",
"*  c #432A11",
"=  c #522610",
"-  c #562812",
";  c #5C2912",
":  c #592710",
">  c #443216",
",  c #453518",
"<  c #4A3619",
"1  c #453A1D",
"2  c #4C3B1D",
"3  c #533B1D",
"4  c #642B14",
"5  c #6A2D16",
"6  c #6D2E18",
"7  c #692710",
"8  c #712E14",
"9  c #7B2A11",
"0  c #6E3B1F",
"q  c #743217",
"w  c #733219",
"e  c #7C331A",
"r  c #7B3C1E",
"t  c #7A3818",
"y  c #6E3D21",
"u  c #743E20",
"i  c #4C401F",
"p  c #4D4221",
"a  c #4D4928",
"s  c #534423",
"d  c #564926",
"f  c #5A4A25",
"g  c #544C2A",
"h  c #5A4A25",
"j  c #5E5A33",
"k  c #6E4526",
"l  c #61482C",
"z  c #724223",
"x  c #784A28",
"c  c #64552D",
"v  c #74542E",
"b  c #625A32",
"n  c #615E3B",
"m  c #6E5532",
"M  c #765A31",
"N  c #795931",
"B  c #65643D",
"V  c #6B663C",
"C  c #6D6A3E",
"Z  c #6B6237",
"A  c #72673A",
"S  c #7A6539",
"D  c #736C3E",
"F  c #7B6E3D",
"G  c #6F703F",
"H  c #75713F",
"J  c #7A713F",
"K  c #696742",
"L  c #676A42",
"P  c #6B6D42",
"I  c #656744",
"U  c #726E41",
"Y  c #7A6F40",
"T  c #6E7245",
"R  c #6E7549",
"E  c #657146",
"W  c #747444",
"Q  c #7B7543",
"!  c #757946",
"~  c #7C7A46",
"^  c #727649",
"/  c #7D7649",
"(  c #757B4A",
")  c #7C7D49",
"_  c #777F51",
"`  c #892D14",
"'  c #85351B",
"]  c #8B361C",
"[  c #843A1B",
"{  c #8A3C1D",
"}  c #923216",
"|  c #933C1E",
" . c #9A3C1E",
".. c #993418",
"X. c #8F421E",
"o. c #94431D",
"O. c #9A431F",
"+. c #9D4A1E",
"@. c #A44C1E",
"#. c #AB4D1F",
"$. c #A3441E",
"%. c #A6521E",
"&. c #AC531F",
"*. c #AE581F",
"=. c #B2541F",
"-. c #B45A1F",
";. c #BA5D1F",
":. c #B7611F",
">. c #BB631F",
",. c #BB691E",
"<. c #BF701F",
"1. c #984622",
"2. c #865B30",
"3. c #8C532B",
"4. c #A54320",
"5. c #AA4620",
"6. c #AD4A21",
"7. c #A34C21",
"8. c #B14E23",
"9. c #B64224",
"0. c #AB5120",
"q. c #B45320",
"w. c #B45C22",
"e. c #BE5C21",
"r. c #BA5522",
"t. c #856F3F",
"y. c #826639",
"u. c #81703F",
"i. c #BF6520",
"p. c #C46C1F",
"a. c #C1661F",
"s. c #C3731E",
"d. c #CA751E",
"f. c #CD7C1F",
"g. c #D07D1F",
"h. c #C55A25",
"j. c #C26122",
"k. c #C56B21",
"l. c #CD6C22",
"z. c #C86722",
"x. c #D76D25",
"c. c #CD7421",
"v. c #DE7526",
"b. c #D37C21",
"n. c #DB7B24",
"m. c #D57524",
"M. c #827542",
"N. c #837C46",
"B. c #8A7C45",
"V. c #827E49",
"C. c #8A7E48",
"Z. c #897643",
"A. c #937D45",
"S. c #7D8147",
"D. c #76814B",
"F. c #7D824C",
"G. c #7F884E",
"H. c #768051",
"J. c #7D8551",
"K. c #7D8A52",
"L. c #DB8C1F",
"P. c #D4821E",
"I. c #DD931E",
"U. c #E0971F",
"Y. c #D58321",
"T. c #DE8224",
"R. c #DD8C21",
"E. c #E28425",
"W. c #E38B24",
"Q. c #E59323",
"!. c #EA9724",
"~. c #E59A21",
"^. c #EB9C23",
"/. c #ECA222",
"(. c #EDAA22",
"). c #F1AC23",
"_. c #F3B422",
"`. c #F6B922",
"'. c #848047",
"]. c #8A8047",
"[. c #83834B",
"{. c #8A844B",
"}. c #84894E",
"|. c #8B8A4E",
" X c #91844B",
".X c #928B4E",
"XX c #95884B",
"oX c #818651",
"OX c #848C52",
"+X c #8B8D52",
"@X c #888750",
"#X c #928D52",
"$X c #9A8D50",
"%X c #869255",
"&X c #8C9254",
"*X c #859359",
"=X c #8C955A",
"-X c #8C995B",
";X c #929353",
":X c #9A9956",
">X c #939657",
",X c #A09351",
"<X c #93A15F",
"1X c #98A15F",
"2X c #909D60",
/* pixels */
"[.#X) Q Q M.N.@X) M.Q [.[.+X|.[. XN.[.[.+XK.K.@XG.@X( N.[.! N.[.[.F.[.[.F.N.{.V.V.{.N.].S.@X}.N.Y / B.N.[.-X'.}.J.W S.'.Q C.M.B.",
"t.|.[.D C.#X! ! / Y B.[.V.[.[.+X|.B.H ~ ( H.[.( K.( K.G.OXOXS.].N.N.D M.[.[.B.) M.M.W B.~ &X{.B.{.].|.~ ~ }.F.S.|.+XG.{.].Q V.[.",
"C.{.! H {.) U ^ ( @XN.V.J OXOXQ [.[.&X}.~ ) ( ) W V.[.~ =X=X( +X/ M.Q N.u.W N.[.H N.N.! S.~ '.[.J t.{.M.V ~ [.[.N.[.}.{.[.M.N.'.",
"{.G.S.{./ ) ^ ) @X#X) ) [.OXS.[.~ S.F.*XOXQ oX^ V.oX'.%XOX&XOXOX}.[.B.{.N.N.N.|.|.}.[.! R }.}.Q N.N.N.N.~ =X'.N.N.|.{.|.B.'.N./ ",
"/ [.M.) V.! J.J.@XoXoXY / Q |.}.N.~ @X[.( ^ G.! ! K.J.<XOX( S.].XXC.'.'.N.'.u.~ |.~ '.}.Q N.B.N.|.N.|.].Q >X'.+X[.N.N.+XQ N.'.[.",
"F.Q Q ! / Q D.^ W K E @XQ J |.'.[.M.Q L T W ( G.^ K.K.+XJ.J.|.{.{.M.Z.Q [.;XQ u.|.|.}.B.B.C.~ +X[.u.W B. X[.~ [.[.'.|.~ N.N.|.[.",
"S.OX) U ( [.~ ) oX) Q ( ^ [.~ [.N./ S.W ^ ) ~ }.+X*XoX^ oX) }.N.) [.C.M.{.@X[.].Q ].N.N.}.[.'.}.J N.}.Q {.{.oXQ N.N.:XN.].&X|.{.",
"@X) / @X[.~ Q @X/ / N.M.~ S.|.B.W [.) S.! N.{.W N.$X_ OXOX[.G.W [.C.C. XZ.B.}.&X]. X;X|.N.N.C. X[.[.].}.{.{.Q ~ N.N.[.|.~ V.@XOX",
"Q U [.V.^ Q ) @XK.) W Q V.V.}.}.~ V.~ &X].'.[.[.|.;X) V.N.[.[.+X[.N.M.M.N.{.[.;X{..X}.%X[.N.{.[.}.].B.].B.XXN.[.'.&X&X[.[.#X! N.",
"N.( J.V.Q M.W ! V.@X}./ M.U D B.|.+X XN.&X}.~ ].N.-XOX) %XN.~ [.}.Q ~ C.'.|.N.{..XB.~ S.'.#XB.N.{.N..X].N.+X.XB.XX}.~ Q ~ Q W F ",
"V.D.^ ! [./ D Y / oX( U S.) Q M.XX[.].D ~ B.@XN.D [.K.[.! N.F.) }.[.N.+X[.~ ~ '.A.N.N.N.Q }.{.XXB.N.Q +X].}.#XN.|.Q }.|.Q B.W N.",
"~ C.F.! ! ( M.D [.oXT W ^ ~ V.@X X! ~ ! ) N.S.[.[.+XF.N.+XG.[.! ~ N.Z.Q }.}.[.$XXX].|.{.{.[.N.u.#X X! G.'.~ {.#X|.Q '.{.@XS.N.{.",
"^ [.@XW ! W C Q N.W Y ( W Q oXJ.Q ~ T ~ G./ ^ [.Q ( ( ! [.~ ~ [.S.OX|.{.Q ( N.u.+X&XQ [.{.|.'.[.V.'.N.F N.'.N.N.@XC.H N.N.Y B.F ",
"[.) Q N.Q U W }.P ^ ) ^ U ) F.C ^ [.! ! ( ! ) G.@X+X[.D.( ! ! OX~ &X{.N x 2.y.u.B.{.{.].N.'.].) C.+X{.u.{.{.>XA [.}.V.[.) @X}.Q ",
"W }.~ ~ P ^ [.V.F.D P ! D ) +X! ) [.Q W N.}.K.P ^ OXoX%XD.! |.}.F.].M e | @.O.r B.A.XXQ N.V.B.|.N.C.'.[.{.].[.N.G.! >XM.V.! ^ [.",
"~ ~ ~ ) / ( U W ~ W D T P ~ OX) [.|.~ T }.( P ) C T ! ! ^ [.'.~ V.[.y ` } 8...] N {.W N.[.~ ) [.}.Q }.N.N.Q M.+X! / @X{.B.~ / Y ",
"[.( }.~ [.N.) C N.Q ) ^ ^ [.'.'.|.'.P B G.J.( ~ ) K.! ! V.+X) / ! [.S 0 [ ` 3.q x J ) |.~ J J =X[.~ B.C.].N.'.G.}.{.F.~ }.[.[.( ",
"U V ^ ~ Q J G.|.{.Q H H ~ &X;X{.'.[.( j J.[.B.C.C.'.( ) [.! OX! P ~ V W Q w |.|.{.N.[.'.G ~ [.S.W ) N.[.{.'.J '.&X|.'.N.'.[.V.S.",
"W N.! W [.[.[.N.[.~ Q ) S.[.}.{.~ ! T B ^ ) Q / ) C P P P L ! ~ F.! F.W ^ ~ N./ {.{.S.S.J }.~ u.N.+X[.C.{.~ ~ [.|.}.}.[.V.V.) U ",
"}.[.;X|.|.|.B.D N.[.Q {.N.Q '.[.'.~ T ^ ! ! [.|.}.U D T Q oXOX) |.b p p a j Q }.S.[.[.[.~ S.~ Q N.OXOX}..X'.N.[.+XS.S.S.Q Q ) Q ",
"H ~ #X{.W N.~ '.OX[.|.{.~ Q {.B.[.) ) L L T oX[.~ Q K g 2 V OXA h X + +     X s N.[.N.Q Q }.~ N.N.'.}.%X}.].~ |.}.! [.[.].( {.[.",
"&X'.'.'.W |.}.N.Q |.N.'.+XS.|.,XW ! S.W V ) ^ R B 1 . X X 3 s + + = 4 5 4 = &   X D N.[.'.~ B.N..X}.[.~ }.'.~ ].[.[.S.{.F.'. X+X",
"[.|.N.}.{.V.&XN.Q }.}.}.'.) Q |.N.[.~ [.) D.D W o X @ + + + @ : 5 q ]  .| e q 4 X d F.|.N.N.'.~ Q ! N.}.=X}.].[.[.S.~ H W ) [.[.",
"J  X&XXX|.S.[.OX}.[.;XV.M.[.! [.S.B.Q @XS.H ! o X ; 8 @ @ ; w e | 4.5.5.1. .e ; @ s [.A Q [.! Q U ) {.! [.}.F.V.! G.~ {.}.! N.}.",
"'.'.'.{.].&X+X@X+XOX'.B.B.[.[.[.S.&XS.~ D.W Q . @ e ] : $ 4 { 8.q.0.=.@.| l.t + @ 3 > X 2 Q S.Q @X+XoXD.U L P ^ S.~ [.{.[..X{.].",
"}.|.&X&X'.].}.#XOX[.) B.C.].+X&X~ OXV.F V.C.D # = e ] ; $ 7 X.a.h.w.-.-.[ o.[ $ @ @ + + . W N.[.S._ ( ! L K ) P W Q OXG.[.{.'.'.",
"~ '.|.|.+X+X+X+XC.{.+XG.[.[.Q C.~ }.[.[.Q 2 O   - e | e 8 e o.k.c.:.>.z.=.| o.{ 5 4 ; & + Z [.Q ( ^ ! I N.Q ( OXQ ~ +XOX#X].Q XX",
"C.&X'.|.S.&X[.OX[.OX'.+X+X) OX[.OXH.+X*Xo + = ; 5 | =.O.X.o.:.T.E.b.T.W.n.p.l.;.O.{ { 6 + 2 }.W Q ^ U ^ F.D.) ) ( ) -XOX|.{.{.#X",
"~ C.[.G.~ [.&X) |.) ^ T -X-XH.F.*XOX) (   = w ] o.r.x.l.z.c.W.!.^.^.Y.c.E.E.v.v.e.#.O.5 @ 3 J T D Q ^ S.( }.T ! _ -X-X=X|.OX}.~ ",
"F.N.&X[.N.[.+XQ [.[.&X[.[.*XK.@X-X( S.g X 4 ' | | #.m.E.W.!.^.b.Q.~.p.:.g.W.n.v.;.[ q $ @ 3 W ~ [.S.@X[.[.G.! D.2X+X) +X%X=XB.W ",
"{.[. XV.S.[.'.N.N.@X*XS.OX+XV.G.OX~ [.o + 4 ; ; 4 ' -.E.!.Q.Y.s.d.f.,.d.W.^.W.n.*.[ w $ @ + 2 P ! S.G.Q {.}.[.OXoX) Q {.&X) N.'.",
".XB.|.].].~ [.S.Q OXS.~ ! ) ! {.V.}.}.a X & & $ % 5 @.d.W.I.p.,.O.7.d.L.g.b.W.n.%.{ { [ q 4 + s K.~ Q '.].|.}.+XF.@X@XOX}.S.OX|.",
"[.Q ~ B.'.'.[.V.W ^ @XOX[.|.[.}.[.) ) ^ # + @ % % 5 +.p.~.(.L.s.w.7.w.f.d.s.W.T.a.-.=.6. .6 + 1 W D M.~ S.~ V./ @X~ +XF.( D.[.V.",
"Q [.Q {.[.+X) Q D.S.D.[.[.|.G.F.+XJ.W j + = 4 r 7 [ *.p.~._.(.I.R.8.w.<.P.R.^.b.:.;.#.$.| 6 @ 2 C Q Q C.].) B.S.}.~ N.( [.[.Q S.",
"Q ~ [.@X].[.OX[.=X&X|.( ! '.Q ~ ) W ^ c X 4 ] 9.6.&.p.p.R.(._.I.:.w.P.`._./.!.c.i.*.[ 7 : = + f V.Q N.N.) ! [.|.|.N.Q ~ OX'.+X'.",
"[.%X[.}.[.2X-XS.( }.[.) H N.[.D [.V.B.Q # = e m.e.=.*.e.R.).`.I.,.I.P.~.).^.Y.&.o.X.t @ @ + 2 W Q ) ~ D.~ N.[.V.! M.&XF.&X|.+XV.",
"[.+XOX&XoXJ.( D.D ) ( S.'.@XB.) }.N.Q Y * & e x.r.o.{ { p./.(.f.d.d.R./.^.Q.p.{ ] [ e % $ 3 N.) ! F.W W Z.Q '.[.|.S.W ^ F.G.[.) ",
"M.J.&X[.OXOX@XF.+XC.W F.~ ~ [.@XW ! ! U X = e 9.o.e { { %.Q.^./.P.b.(./.Y.p.p.%.+.o.o.w @ # V ( U ^ P Q V.N.N.[.[.! ! [.'.@X[.N.",
") {.#X'.S.K.OX}.OXS.oX~ ) [.oXoXW [.~ Q   = e ] : 4 [ o.i.W.!.^./.^.^.R.p.p.a.;.-.8.o.e 5 + p ^ B / ~ ) ~ &X[.! ~ H ) ~ N.Q ~ |.",
"N.{.) ;X+XK.K.=XOX}.@XU ( V.{.! ^ ! ^ F o & e | % % q 7.l.E.W.W.Q.Q.Q.T.p.;.=.=.#.O.6 - @ X g I P ) V.[.) |.N.|.G.! [.T ~ B.N.}.",
"|.].}.~ OX+X&XS.~ C ) R ^ ~ J.P W ~ ! L . + 5 ] 5 $ % e q.e.v.E.E.n.E.n.-.{ { @.6.' ; + 2 g K./ ) ^ ) Q F./ W OXOX~ @XOXF.}.! Q ",
"~ [.[.G.}.{.}.N.) [.~ }.&XS.V D.( T W R 1 . & 4 = & : ' 6.q.x.v.v.j.z.w.X.o.%. .$.w = * W ( oXI ^ / @XQ ! K.) ~ N.H [.}.~ G.}.{.",
"].N.D.+X%X+XM.+X[.}.N.N.-X'.W 2 ! U W W ( 1     + @ 4  .h.5.h.x.r.#.#.[ e ' { { ' 4 + < / ( ^ T B C.F.W Q R [.) H ( ) ~ S.}.~ D.",
"/ }.+X|.@X{.W V.'..X].|.~ Q T < A ~ ~ Q ( T V s X + ; e ' { 1.4.5.6.4.e ; @ ; 6 ; @   V Q J.J.Y H [.D H N.[.G.Q F [.^ ~ }.|.}.N.",
"( ( %X'.=X}.[.}.+X}.'.'.~ N.~ M M ~ ~ ^ @X&XOX^ g # + = - 4 8 ' | | ] e @ @ + @ X < U S.{.D.! F N.[.Q U W '.~ Q ) / S.E OX~ N.J.",
"~ Q [.S.K.[.+X[.) N.Q .X|.S.N { 9 x [.) N.@XJ.L P n , X X + @ ; 5 4 4 4 @ + + h b F.|.~ / W ~ v z S ~ ! ~ ! ~ ) ( W ! T ( G.F.@X",
") &X) '.OX~ C.}.}.H [.+XOX'.z ' ` ` S ~ U ~ ( ( J.! ( ( Z g o + + + + + X X X N.! +XC.U ^ L k 9 ' 0 D.V.}.^ ^ Q / ( ^ W R OXS.OX",
"{.#XS.|.@XV.~ Q {.Q ! F.[.{.x { ....` x B.T S.+X[.&XOXW V T T d s g c c 2   p ! V.].P F.L ^ 7 }  .v %X'.W M.) ^ L S.Q N.S.|.:X>X",
"|.'.+X~ S.C.V.~ N.H ~ S.B.J.) x [ { { ' q m }.B.[.S.W Q T R [.OXQ {.{.[.}.H [.}.[.( ^ J.L P 4 $.3.D D.G.W / ! [.Q ! D Q '.[.].Q ",
"B.Q @XF.~ ) @X[.'.H }.[.D.OX[.N.A z k l y v ^ ^ T ~ W F.~ W J./ [.[.N.Q B.[.&X{.V.( ( U B 2 r 1.F / V U / / H [.'.( F.! '.S.N.B.",
"@X|.Q oXN.N.{.Q Q ~ {.{.! ! [.F.'.}.^ I ) V.[.N.P [.W ( ^ Q [.F.~ ~ [.OXS.~ G.W S.) ) Q j i / T ( %X~ N.[.F./ [.Q N.S.[.{.) '.].",
"@XS.C.Q Q N.].~ F.'.B.|.C.! D.K.! ( K j n ( N.W P ^ ( D.^ W [.) ~ S.-XOXOX[.D.! ) G.}.~ Q ( U F.+X~ S.C.'.[.D.D./ K.[.[.N.F N.|.",
"V.N.;X].'.;XN.W Q Q F {.~ ~ N.[.( ( ^ T B ^ ! ^ U [.[.W F.^ S.Q ~ W |.OXS.Q T S.) ~ [.H [.( ~ F.( ~ [.{.) B.V.[.oXF.}.S.Q {.C.Q ",
"N.[.[..X.X'.C.~ u.F }.C.[.}.~ ^ ( ~ [.D.~ C / P Y W &X[.|.! Q |.[.) '.~ V D ~ '.[.{.{.~ '.[.~ H ^ [.}.Q W ~ Q }.V.Q B.N.Q ;X[.+X",
"C.|.[.'.N.Q ! [.B.M.#XC.XX|.W N.J C.].W }.{.^ ^ J.Q &X) ) D.{.~ W }.[.}.Q M.'.~ V.#X[.S.N.Q '.Q D ~ OXU [.+X! F.M.[.[.B.Z. XQ '.",
"|.}.{.|.C.G.N.@X[.@X{.[.[. X}.[.N.+X].S.M.N.! G.[.[.}.C.=X%X|.].[.}.V.Q {.{.V.[.].[.D N.N.~ &X[.W [.( ! N.[.) [.{.{.N.N..XQ #X[.",
"S.|.'.}.[.-X X) B.) '.Q |.}.'.{.|.S.{.[.[.|.) [.[.oXV.( OXOX{.N.Q ~ {.N.Q C.B.V.B.Q V.B.@XOX[..X~ [.! ( ~ T ~ B.].].B.{.B.@X+XF.",
"G.~ [.}.) |.N. XN.Q S.~ ~ W [.D ~ {.Z.{.+XS.[.~ ! OX( ( D.S.}.M.W N.|.~ Q '.|.[.M.Q V.[.) oX{.{.N./ [.F.[.( @XN.|.@X{.>XXXC.@X&X",
"@X{..X'.{.+X+X|.Q D D C.N.~ N.W ~ ~ {.Q V.~ S.( [.OXoX+X) .XN.N.S.N.{.Q Y N.Q N.J.{.[.C.N.N..X{.N.) |.T ^ H +X+X;XN.B.#XV.) *X#X",
"N.#X{.N.|.F.G.! J.) B.}.~ |.N.~ N.[.+X~ S.~ V.OXK.+X[.+XS.[.~ +X[.}.|.N.M.B.{.@X@XOX*X+XXX]. X].N.[.OX^ W +X+XD.].].) S.oX#X) #X",
"N.C.W [.[.}.W ( +X].N.[.N.~ '.}.[.~ '.V.G.N.) [.D.;X[.J.%XS.F.+X[.[.N.W ^ [.{.+X[. X{.$Xt.N.C.~ [.[.! ~ [.'.) OXG.V..X|.#XJ.Q N.",
"V.^ '.W W ! T G.Q [.~ }.}.N.{. X}.OX[.S.*XV.[.@X( [.%X[.[.}.G.~ S.N.B.N.M.].C.{.{.M.2XN.N.M.) D.! &XN.Q Q N.}.[.[.%XS.C.M.N.C. X",
"[.V.M.}.OXN.Q V.Q Q ;X[.'.N.M.Q N.|.&XQ [.-X*XOXG.[.K.V.|.}.S.&X|.{.[.) Q C.B.{. XV.@X'.].[.H Q ~ +XC.N.~ ! [.F.) ~ / [.~ / V.OX",
"V.N.].].~ |.'.N.}.[.@X'.D .XN.[.~ G.[.|.=X&X[.=XS.K.'.'.}.}.[.|.&X}.].U ~ {. X}.:XM.[.}.{.|.'.N.}.|.[.].) [.V.C.[.~ B.B.C.C./ V."
};
