/* XPM */
static char *Wall_with_dirt_16[] = {
/* columns rows colors chars-per-pixel */
"16 16 107 2 ",
"   c #663641",
".  c #673641",
"X  c #663841",
"o  c #673841",
"O  c #6A3942",
"+  c #6B3B42",
"@  c #6C3B42",
"#  c #6C3C42",
"$  c #6C3D42",
"%  c #723F44",
"&  c #6D4042",
"*  c #6E4143",
"=  c #6E4243",
"-  c #704243",
";  c #704343",
":  c #734144",
">  c #784545",
",  c #794746",
"<  c #7B4448",
"1  c #7C4448",
"2  c #7E4748",
"3  c #7F4748",
"4  c #7F4749",
"5  c #7F4849",
"6  c #7F7447",
"7  c #804848",
"8  c #854E4A",
"9  c #8C554B",
"0  c #8F584C",
"q  c #90594C",
"w  c #925B4C",
"e  c #935B4C",
"r  c #935C4D",
"t  c #955E4D",
"y  c #A85D58",
"u  c #AB5F59",
"i  c #817446",
"p  c #817648",
"a  c #807748",
"s  c #AB6059",
"d  c #AC6059",
"f  c #AC6159",
"g  c #AC6259",
"h  c #AF6558",
"j  c #AF6559",
"k  c #B16759",
"l  c #B1655A",
"z  c #B3675A",
"x  c #B16959",
"c  c #B36959",
"v  c #B56C5A",
"b  c #B96F5B",
"n  c #B9705A",
"m  c #BA705B",
"M  c #BA715B",
"N  c #BB715B",
"B  c #BB725B",
"V  c #BC725B",
"C  c #BD735B",
"Z  c #BE735B",
"A  c #BE725D",
"S  c #C1785C",
"D  c #C2795C",
"F  c #C3795C",
"G  c #C47A5C",
"H  c #C57A5C",
"J  c #C57B5C",
"K  c #C57B5D",
"L  c #C67C5D",
"P  c #C97E5E",
"I  c #CA7F5E",
"U  c #CA805D",
"Y  c #CB815D",
"T  c #C9805E",
"R  c #CA805E",
"E  c #CB815E",
"W  c #CC815E",
"Q  c #CC825E",
"!  c #CD825E",
"~  c #D0865E",
"^  c #D1875E",
"/  c #D1885F",
"(  c #D68B60",
")  c #D58C60",
"_  c #D78F60",
"`  c #DA9060",
"'  c #DC9362",
"]  c #DD9461",
"[  c #DE9562",
"{  c #DF9662",
"}  c #E09762",
"|  c #E29962",
" . c #E29963",
".. c #E49C63",
"X. c #E79F64",
"o. c #EBA164",
"O. c #EBA264",
"+. c #ECA364",
"@. c #EDA464",
"#. c #F5A967",
"$. c #F5AC66",
"%. c #FBB268",
"&. c #FDB468",
"*. c #FEB568",
"=. c #FFB668",
"-. c #FFB669",
";. c #FFB66A",
/* pixels */
"a =     o o o o o o o o o   = i ",
"= > q q q q q q q q q q 0 t > = ",
"  r -.%.*.*.*.*.*.*.*.*.-.#.9 X ",
"X 0 %.o.[ [ [ [ [ [ [ [ / k 1 $ ",
"X q *.[ G I I I T I L W M u 7 $ ",
"X q *.[ T M k c h F ..W C f 7 @ ",
"O q *.[ I k b G C / o.W C f 1 $ ",
"  q *.[ I c F ^ T ` o.W b u 7 $ ",
"X q *.[ I k C T J / +.W M u 7 @ ",
"O q *.[ I F ^ ` / ..+.T C u 3 @ ",
"  q *.[ H ..+.+.@.@.| W M u 3 $ ",
"X 0 -.| T W W I W W W ^ C f 3 @ ",
"X r $.F M M M C B B B B c s 3 # ",
"O 8 A y f s u f u u u s s k 5 O ",
"= : > 7 3 3 3 3 7 3 3 3 3 7 : ; ",
"6 : @ @ @ $ @ $ @ @ @ $ @ O ; a "
};
