/* XPM */
static char *Dirt_19_128x128_8[] = {
/* columns rows colors chars-per-pixel */
"8 8 53 1 ",
"  c #717345",
". c #787947",
"X c #7A7947",
"o c #7A7A47",
"O c #7B7B47",
"+ c #7C7B47",
"@ c #7E7C47",
"# c #797A48",
"$ c #7A7B49",
"% c #7A7C48",
"& c #7B7C49",
"* c #7D7C48",
"= c #7D7D48",
"- c #7C7D49",
"; c #7E7D48",
": c #7E7C49",
"> c #7D7E49",
", c #7E7E49",
"< c #7F7E49",
"1 c #7F7F49",
"2 c #817F48",
"3 c #807E49",
"4 c #827F48",
"5 c #837F49",
"6 c #847F48",
"7 c #857F48",
"8 c #7E804A",
"9 c #7F804A",
"0 c #7F814B",
"q c #808049",
"w c #818049",
"e c #828049",
"r c #838049",
"t c #80804A",
"y c #83814A",
"u c #82824B",
"i c #82834B",
"p c #848048",
"a c #848049",
"s c #848149",
"d c #868149",
"f c #848249",
"g c #878249",
"h c #86814A",
"j c #87834B",
"k c #86844B",
"l c #81834C",
"z c #82854D",
"x c #83854D",
"c c #81854E",
"v c #84854C",
"b c #84854D",
"n c #84864D",
/* pixels */
":30ldded",
"XX:0egde",
"eeX#0wee",
"knl%e%:l",
"i0%:0X@i",
"i0X @%X:",
"kwX:e@:e",
"wwilwd0k"
};
