/* XPM */
static char *character_up[] = {
/* columns rows colors chars-per-pixel */
"8 8 60 1 ",
"  c #4B3E3A",
". c #51422F",
"X c #53422E",
"o c #4C403B",
"O c #5A4E37",
"+ c #5B5135",
"@ c #5A5236",
"# c #5F5138",
"$ c #5F533A",
"% c #604439",
"& c #63473C",
"* c #68493E",
"= c #60543A",
"- c #635C3A",
"; c #645D3A",
": c #66583D",
"> c #67583D",
", c #66583E",
"< c #695B3F",
"1 c #514541",
"2 c #534845",
"3 c #544845",
"4 c #5C5D4F",
"5 c #5D5A51",
"6 c #5C5A52",
"7 c #5B5E50",
"8 c #694C42",
"9 c #694D42",
"0 c #6B4D43",
"q c #6B4E43",
"w c #6C4D42",
"e c #75554A",
"r c #655955",
"t c #686547",
"y c #66674A",
"u c #706147",
"i c #746448",
"p c #746549",
"a c #746649",
"s c #7A7947",
"d c #7E7C49",
"f c #7D7E49",
"g c #70605A",
"h c #71605A",
"j c #606062",
"k c #616162",
"l c #786660",
"z c #837F49",
"x c #818049",
"c c #828049",
"v c #838049",
"b c #83814A",
"n c #82824B",
"m c #848149",
"M c #848249",
"N c #87834B",
"B c #86844B",
"V c #83854D",
"C c #84854C",
"Z c #84854D",
/* pixels */
"d-.ytX;m",
"sO9669#m",
"c>ejke:z",
"Bpl ohtV",
"Cug&*hib",
"Cu9w*w<d",
"v$r22r$z",
"c+1741#b"
};
