/* XPM */
static char *character_right[] = {
/* columns rows colors chars-per-pixel */
"8 8 60 1 ",
"  c #4A3F3A",
". c #51412E",
"X c #52412E",
"o c #4B403B",
"O c #574F35",
"+ c #5B4F37",
"@ c #5F4438",
"# c #5C5236",
"$ c #5F5138",
"% c #5E5139",
"& c #62473B",
"* c #67483E",
"= c #605439",
"- c #65553C",
"; c #635C3A",
": c #655D3A",
"> c #65593F",
", c #675A3F",
"< c #69583D",
"1 c #504440",
"2 c #504540",
"3 c #534845",
"4 c #544845",
"5 c #5B5E4F",
"6 c #5A5A51",
"7 c #5B5A51",
"8 c #694C42",
"9 c #694D42",
"0 c #6B4D43",
"q c #6B4E43",
"w c #6C4C41",
"e c #745449",
"r c #655955",
"t c #676748",
"y c #686749",
"u c #726347",
"i c #746347",
"p c #736449",
"a c #74664A",
"s c #7E7C49",
"d c #70605A",
"f c #71605A",
"g c #606062",
"h c #616162",
"j c #786660",
"k c #807E49",
"l c #827F48",
"z c #847F48",
"x c #857F48",
"c c #7F804A",
"v c #808049",
"b c #83814A",
"n c #82824B",
"m c #848048",
"M c #848049",
"N c #848249",
"B c #86814A",
"V c #87834B",
"C c #82854D",
"Z c #81854E",
/* pixels */
"skcZxmmm",
"O%,ai<%:",
"1r0dje0.",
"53w&oh6y",
"54*@oh7y",
"or0dfeqX",
"$=,pp-%;",
"mnnZmmcV"
};
