/* XPM */
static char *character_down[] = {
/* columns rows colors chars-per-pixel */
"8 8 59 1 ",
"  c #4B3F3A",
". c #4C3F3B",
"X c #53422F",
"o c #52432F",
"O c #5B4F37",
"+ c #5A5136",
"@ c #5D5037",
"# c #5C5236",
"$ c #5E5139",
"% c #604439",
"& c #63473C",
"* c #67493E",
"= c #62553A",
"- c #64553C",
"; c #635C39",
": c #635D3A",
"> c #66583D",
", c #695B3F",
"< c #514541",
"1 c #534845",
"2 c #544845",
"3 c #5C5D4F",
"4 c #5B5A51",
"5 c #5C5A51",
"6 c #5B5E50",
"7 c #694C42",
"8 c #694D42",
"9 c #6B4D43",
"0 c #6B4E43",
"q c #6C4D42",
"w c #75554A",
"e c #655955",
"r c #686447",
"t c #676849",
"y c #716146",
"u c #716348",
"i c #736449",
"p c #77684B",
"a c #7A7947",
"s c #7E7C49",
"d c #7D7E49",
"f c #70605A",
"g c #71605A",
"h c #606062",
"j c #616162",
"k c #786660",
"l c #837F49",
"z c #818049",
"x c #828049",
"c c #838049",
"v c #83814A",
"b c #82824B",
"n c #848149",
"m c #848249",
"M c #87834B",
"N c #86844B",
"B c #83854D",
"V c #84854C",
"C c #84854D",
/* pixels */
"s+<63<#m",
"a$e21e=x",
"x,0*00,x",
"Npg%%giC",
"Buk.okul",
"B>whhw8d",
"m@7447+b",
"x:otro:B"
};
