/* XPM */
static char *character_left[] = {
/* columns rows colors chars-per-pixel */
"8 8 60 1 ",
"  c #4A3F3A",
". c #4B3F3B",
"X c #52412E",
"o c #53432F",
"O c #5A4E37",
"+ c #5B5136",
"@ c #5B5236",
"# c #5D5037",
"$ c #5F5339",
"% c #5E5939",
"& c #604438",
"* c #62473B",
"= c #67483E",
"- c #62553A",
"; c #63553C",
": c #65563D",
"> c #655D3A",
", c #675A3F",
"< c #6B5C3F",
"1 c #504440",
"2 c #534845",
"3 c #544845",
"4 c #5A5D4F",
"5 c #5B5E4F",
"6 c #5B5A52",
"7 c #5C5B52",
"8 c #6B4C41",
"9 c #694C42",
"0 c #694D42",
"q c #6B4D43",
"w c #6B4E43",
"e c #745449",
"r c #655955",
"t c #676749",
"y c #696848",
"u c #706247",
"i c #726348",
"p c #756549",
"a c #776549",
"s c #7E7C49",
"d c #70605A",
"f c #71605A",
"g c #606062",
"h c #616162",
"j c #786660",
"k c #807E49",
"l c #827F48",
"z c #847F48",
"x c #857F48",
"c c #7F804A",
"v c #808049",
"b c #83814A",
"n c #82824B",
"m c #848048",
"M c #848049",
"N c #848249",
"B c #86814A",
"V c #87834B",
"C c #82854D",
"Z c #81854E",
/* pixels */
"skcZxmmm",
"%O:ia<-@",
"X9ejfwr1",
"y7h.&=27",
"t6ho*935",
"oweffw6O",
"tO;upw$O",
"kkZCZxkV"
};
