/* XPM */
static char *enemy_up[] = {
/* columns rows colors chars-per-pixel */
"32 32 168 2 ",
"   c #11151C",
".  c #22241D",
"X  c #262A1F",
"o  c #29291E",
"O  c #171C26",
"+  c #1A1E23",
"@  c #191E28",
"#  c #1D222C",
"$  c #1E2325",
"%  c #1E2536",
"&  c #1C2439",
"*  c #222525",
"=  c #2B2C23",
"-  c #222528",
";  c #26292F",
":  c #292A2D",
">  c #2E3021",
",  c #333423",
"<  c #383724",
"1  c #373926",
"2  c #3A3A25",
"3  c #32332B",
"4  c #3C3D29",
"5  c #252B36",
"6  c #2A2E36",
"7  c #20273A",
"8  c #232A3D",
"9  c #2D333D",
"0  c #333433",
"q  c #3A3C31",
"w  c #36393C",
"e  c #393B3E",
"r  c #413F29",
"t  c #3F432D",
"y  c #45452D",
"u  c #48442E",
"i  c #534E2E",
"p  c #4C502F",
"a  c #53512E",
"s  c #434335",
"d  c #464932",
"f  c #4E5333",
"g  c #545332",
"h  c #595732",
"j  c #575A35",
"k  c #5C5B34",
"l  c #5D5E38",
"z  c #645C33",
"x  c #5E633A",
"c  c #626336",
"v  c #626239",
"b  c #656D3E",
"n  c #756D3E",
"m  c #73713F",
"M  c #7A733F",
"N  c #252D43",
"B  c #282F43",
"V  c #273045",
"C  c #2A3245",
"Z  c #2B3449",
"A  c #2E384E",
"S  c #323741",
"D  c #343A44",
"F  c #3D3E41",
"G  c #323B4D",
"H  c #2F3950",
"J  c #333D53",
"K  c #333E5A",
"L  c #3F4041",
"P  c #3F434E",
"I  c #364055",
"U  c #3C4354",
"Y  c #37415B",
"T  c #39445C",
"R  c #354161",
"E  c #3B4661",
"W  c #3E4A63",
"Q  c #3E4A69",
"!  c #454646",
"~  c #40444F",
"^  c #46494F",
"/  c #4C4D4E",
"(  c #474B55",
")  c #494C51",
"_  c #454C5A",
"`  c #4D5157",
"'  c #4E535E",
"]  c #535454",
"[  c #565659",
"{  c #57585A",
"}  c #5A5A5D",
"|  c #696F43",
" . c #756F41",
".. c #6D7243",
"X. c #747444",
"o. c #7B7643",
"O. c #767946",
"+. c #7C7A46",
"@. c #757749",
"#. c #747948",
"$. c #7C7D49",
"%. c #414D65",
"&. c #424E6A",
"*. c #495166",
"=. c #45526C",
"-. c #49536A",
";. c #525866",
":. c #5B5C60",
">. c #555C6C",
",. c #585D69",
"<. c #455272",
"1. c #495671",
"2. c #4B5975",
"3. c #4D5A7B",
"4. c #505C72",
"5. c #515E7E",
"6. c #5E6063",
"7. c #566075",
"8. c #5C6474",
"9. c #52627E",
"0. c #5E667A",
"q. c #636466",
"w. c #62666E",
"e. c #6B6B6C",
"r. c #6C6E72",
"t. c #6F7173",
"y. c #717273",
"u. c #747679",
"i. c #77797C",
"p. c #7C7D7D",
"a. c #827C46",
"s. c #827E49",
"d. c #7E824B",
"f. c #848147",
"g. c #80814C",
"h. c #82854C",
"j. c #86844D",
"k. c #84834B",
"l. c #89854B",
"z. c #8F864A",
"x. c #88874E",
"c. c #89844B",
"v. c #86894E",
"b. c #8A884E",
"n. c #8A894D",
"m. c #918A4E",
"M. c #838450",
"N. c #848751",
"B. c #858B52",
"V. c #8C8C50",
"C. c #8A8D52",
"Z. c #948E50",
"A. c #899257",
"S. c #929556",
"D. c #515F83",
"F. c #546384",
"G. c #566588",
"H. c #586789",
"J. c #627596",
"K. c #637499",
"L. c #667A99",
"P. c #7E8083",
"I. c #838484",
"U. c #888A8C",
"Y. c #929394",
"T. c #A7A7A6",
"R. c #A7A8A7",
"E. c gray66",
/* pixels */
"c.+.a.$.o.a.j y u d d t ..h.$.s s o.j.n r u d d 4 i h.h.h.k.a.a.",
"k.a.a.@.C.X.# K <.3.Q N 4 S.b [ { k z.4 N W 3.<.T # m x.k.b.a.a.",
"$.+.+.$.M.y 7 %.3.H.1.Y $ B.x [ } z f.- I =.H.5.%.7 g V.a.k.a.l.",
"g.$.$.$.g., % G E Q J C O | v [ } z n O C J Q E G % < a.a.b.l.b.",
"+.d.+.O.x.1 N &.3.D.<.T @ X.c [ } z n @ T <.F.3.&.N 4 z.c.h.a.o.",
"a.O.+. .j., C =.T Y G T # 4 = { } , 4 # T J Y Y &.C < Z.a.k.a.a.",
"d.+. .o.$., C =.T T J Y 9 } L [ } F } 9 T J T T &.C < c.k.a.a.a.",
"$.+.@.O.+., C =.W E I T S p.{ [ { { p.S T Y E E =.Z < c.$.c.+.O.",
"@.+.$.$.a., Z 2.T T J T D U.q.[ { q.U.S W J T T 1.Z , l.v.k.k.$.",
"+.k.k.a.l., V %.&.%.T W D p.] [ } ] p.D W T %.%.%.V , c.v.k.$.+.",
"k.l.a.a.x.< Z 1.=.&.W W D p./ [ } / p.D W W &.&.=.Z < z.k.k.k.c.",
"k.c.x.h.b.< H G.W W Y W 9 { : { } : [ 9 %.T W W G.H 1 j.d.a.$.k.",
"k.b.x.C.V.< A G.F.G.2.W D p.] { } / t.S %.2.G.F.F.H > O.+.l.c.k.",
"k.b.v.B.n.< Z %.J H.F.&.; [ : - - : [ ; %.F.H.J %.Z , d.O.A.x.c.",
"k.h.h.k.b.1 V W E F.3.V 0 i.) % % ^ i.0 V 3.F.E W C 1 d.B.B.C.a.",
"c.c.k.a.j.4 C =.F.H.E # 5 r.` A A ` r.5 # T H.F.=.Z < C.g.j.j.k.",
"+.a.k.$.h.1 C =.3.<.C 0 _ E T W W T E _ 0 C <.3.=.C < c.k.$.O.k.",
"k.j.C.M.C.1 Z &.&.T D 3 w.5.J 9.9.I 5.w.0 D T &.&.Z , b.a.$.v.k.",
"j.B.B.d.k.2 & Y E -.} * w.F.G J.L.I F.w.: } -.E Y & 4 x.$.+.h.k.",
"k.x.h.B.v.O.X B T 8.I.0 ,.<.I 9.9.T <.>.0 p.8.T B = $.j.O.O.+.k.",
"k.g.C.j.+.j.l 8 &.0.E.F B *.%.=.=.%.*.B e R.0.&.8 h h.O.a.g.d.k.",
"a.B.b.a.x.n.l } 4.0.T.P.w e.I =.=.I e.e P.T.0.4.:.i k.$.o.$.j.k.",
"O.h.B.j.k.n.k e.7.0.Y.Y.e.6 N Z Z N 6 e.Y.Y.0.7.e.g k.+.$.#.d.g.",
"j.h.g.a.+.v.k Y 3.>.Y.p.I.F + ^ ^ + L I.p.Y.>.3.Y j k.@.@.X.k.V.",
"c.k.$.a.o.j.g Q K.&.,.p.u./ / e.e./ / u.p.,.&.K.Q g a.+.+.+.k.a.",
"j.$.a.a.+.m.g R J.3.J ' y.! L q.q.L ! y.' J 3.K.R h b.O.d.h.a.s.",
"k.x.c.+.o.z.k U 8.u.u.G ( ] ! i.p.! ] ( G u.i.8.U h k.d.g.a.a.k.",
"x.c.k.$.k.m.v y.t.r.y.>.& S + 6.q.+ S & >.y.y.y.y.g j.$.a.a.c.k.",
"g.l.v.c.+.k.h P ;.t.r.%.- X = X X = X - %.r.y.;.~ g d.a.c.z.c.C.",
"x.c.j.h.o.c.a & %.Z G T q b.k.k.l.a.a.q T G Z %.& p k.B.k.c.v.N.",
"a.$.$.#.k.l.+.= N V Z A 3 v.d.h.l.+.a.3 H Z V 8 = m a.h.h.j.a.s.",
"a.a.k.a.a.k.c.M .       f b.h.v.b.+.c.g       . $.x.+.k.$.a.a.g."
};
