/* XPM */
static char *enemy_down[] = {
/* columns rows colors chars-per-pixel */
"32 32 167 2 ",
"   c #11151C",
".  c #22241D",
"X  c #262A1F",
"o  c #29291E",
"O  c #171C26",
"+  c #1A1E23",
"@  c #191E28",
"#  c #1D222C",
"$  c #1E2325",
"%  c #1E2536",
"&  c #1C2439",
"*  c #222525",
"=  c #2B2C23",
"-  c #222528",
";  c #26292F",
":  c #292A2D",
">  c #2E3021",
",  c #333423",
"<  c #383724",
"1  c #373926",
"2  c #3A3A25",
"3  c #32332B",
"4  c #3C3D29",
"5  c #252B36",
"6  c #2A2E36",
"7  c #20273A",
"8  c #232A3D",
"9  c #2D333D",
"0  c #333433",
"q  c #3A3C31",
"w  c #36393C",
"e  c #393B3E",
"r  c #413F29",
"t  c #3F432D",
"y  c #45452D",
"u  c #48442E",
"i  c #534E2E",
"p  c #4C502F",
"a  c #53512E",
"s  c #434335",
"d  c #464932",
"f  c #4E5333",
"g  c #545332",
"h  c #595732",
"j  c #575A35",
"k  c #5C5B34",
"l  c #5D5E38",
"z  c #645C33",
"x  c #5E633A",
"c  c #626336",
"v  c #626239",
"b  c #656D3E",
"n  c #756D3E",
"m  c #73713F",
"M  c #7A733F",
"N  c #252D43",
"B  c #282F43",
"V  c #273045",
"C  c #2A3245",
"Z  c #2B3449",
"A  c #2E384E",
"S  c #323741",
"D  c #343A44",
"F  c #3D3E41",
"G  c #323B4D",
"H  c #2F3950",
"J  c #333D53",
"K  c #333E5A",
"L  c #3F4041",
"P  c #3F434E",
"I  c #364055",
"U  c #3C4354",
"Y  c #37415B",
"T  c #39445C",
"R  c #354161",
"E  c #3B4661",
"W  c #3E4A63",
"Q  c #3E4A69",
"!  c #454646",
"~  c #40444F",
"^  c #46494F",
"/  c #4C4D4E",
"(  c #474B55",
")  c #494C51",
"_  c #454C5A",
"`  c #4D5157",
"'  c #4E535E",
"]  c #535454",
"[  c #565659",
"{  c #57585A",
"}  c #5A5A5D",
"|  c #696F43",
" . c #756F41",
".. c #6D7243",
"X. c #747444",
"o. c #7B7643",
"O. c #767946",
"+. c #7C7A46",
"@. c #757749",
"#. c #747948",
"$. c #7C7D49",
"%. c #414D65",
"&. c #424E6A",
"*. c #495166",
"=. c #45526C",
"-. c #49536A",
";. c #525866",
":. c #5B5C60",
">. c #555C6C",
",. c #585D69",
"<. c #455272",
"1. c #495671",
"2. c #4B5975",
"3. c #4D5A7B",
"4. c #505C72",
"5. c #515E7E",
"6. c #5E6063",
"7. c #566075",
"8. c #5C6474",
"9. c #52627E",
"0. c #5E667A",
"q. c #636466",
"w. c #62666E",
"e. c #6B6B6C",
"r. c #6C6E72",
"t. c #6F7173",
"y. c #717273",
"u. c #747679",
"i. c #77797C",
"p. c #7C7D7D",
"a. c #827C46",
"s. c #827E49",
"d. c #7E824B",
"f. c #848147",
"g. c #86864C",
"h. c #83834B",
"j. c #898249",
"k. c #8A854B",
"l. c #8E854B",
"z. c #89854C",
"x. c #89854B",
"c. c #86894E",
"v. c #868A4E",
"b. c #898A4E",
"n. c #8A894D",
"m. c #918A4E",
"M. c #838650",
"N. c #858B52",
"B. c #8A8D52",
"V. c #948E50",
"C. c #899257",
"Z. c #929556",
"A. c #515F83",
"S. c #546384",
"D. c #566588",
"F. c #586789",
"G. c #627596",
"H. c #64759A",
"J. c #617398",
"K. c #667A99",
"L. c #7E8083",
"P. c #838484",
"I. c #888A8C",
"U. c #929394",
"Y. c #A7A7A6",
"T. c #A7A8A7",
"R. c gray66",
/* pixels */
"h.a.a.$.h.+.z.+..       g j.+.b.c.h.b.f       . M j.j.a.a.h.s.s.",
"s.s.g.h.h.s.m = 8 C Z H 3 a.+.g.h.d.v.3 A Z C B = +.g.h.#.$.+.a.",
"M.c.k.j.N.h.p & %.Z G T q a.a.g.j.h.b.q T G Z %.& a j.o.h.g.j.z.",
"B.k.l.k.s.d.g ~ ;.y.r.%.- o = o o = X * %.r.t.;.P h j.+.k.c.g.h.",
"j.j.a.a.$.g.g y.y.y.y.>.& S + q.6.+ S & >.y.r.t.y.v m.j.$.h.k.z.",
"j.a.a.h.d.j.h U 8.i.u.G ( ] ! p.i.! ] ( G u.u.8.U k l.o.+.j.z.j.",
"s.a.h.d.$.b.h R J.3.J ' y.! L q.q.L ! y.' J 3.J.R g m.+.s.a.$.g.",
"a.j.+.+.+.s.g Q H.&.,.p.u./ / e.e./ / u.p.,.&.H.Q g g.o.s.$.h.j.",
"B.d.X.X.X.h.j T 3.>.U.p.P.L + ^ ^ + F P.p.U.>.3.T k c.+.h.h.h.g.",
"h.d.#.$.+.h.g e.7.0.U.U.e.6 B Z Z B 6 e.U.U.0.7.e.k n.h.g.N.h.$.",
"h.h.$.o.+.h.i :.4.0.Y.L.e e.I =.=.I e.w L.Y.0.4.} l n.z.a.b.N.s.",
"h.d.h.s.$.h.h 8 &.0.T.e B *.%.=.=.%.*.B F R.0.&.8 l g.O.g.N.h.j.",
"j.+.$.$.g.$.= B T 0.p.0 >.<.T 9.9.I <.,.0 P.0.T B o O.c.N.h.z.j.",
"h.h.O.$.z.4 & T E -.} : w.S.I K.G.G S.w.* } -.E T & 2 j.d.N.N.g.",
"j.c.$.a.b., Z &.&.T D 0 w.5.I 9.9.J 5.w.3 D T &.&.C 1 B.M.B.g.h.",
"d.$.$.h.k.< C =.3.<.C 0 _ E T W W T E _ 0 C <.3.=.C 1 h.$.j.a.+.",
"h.g.g.h.B.1 C =.S.F.T # 5 r.` A A ` r.5 # E F.S.=.C 4 g.a.h.j.k.",
"a.B.N.N.d.1 C W E S.3.C 0 i.^ % % ) i.0 C 3.S.E W V 1 b.h.h.h.j.",
"j.z.C.$.d., Z %.J F.S.%.; [ : - - : [ ; &.S.F.J %.C 1 n.N.c.b.j.",
"j.k.g.+.O.> H S.S.S.2.%.S t./ } { ] p.D W 2.S.S.S.A < B.B.z.b.j.",
"j.+.a.d.g.1 H S.W W T %.9 [ : } { : { 9 W T W W S.H 1 b.h.z.k.j.",
"k.s.h.h.n.< C =.&.&.W W D p./ } [ / p.D W W &.=.1.C 1 z.a.s.g.j.",
"+.+.h.c.k., V %.%.%.T W D p.] } [ ] p.D W T %.&.%.V , g.a.j.h.+.",
"$.h.h.c.g., Z 1.T T J W S I.q.{ [ q.I.D T J T T 2.Z , a.+.+.+.X.",
"O.+.k.$.k.< C =.E E Y T S p.{ { [ { p.S T I E W =.C , +.O.X.+.$.",
"a.s.a.h.k.1 C &.T T J T 9 } F } [ L } 9 T J T T =.C , $.o. .+.d.",
"a.a.h.s.V.1 C &.Y Y J T # 4 , } { = 4 # T G Y T =.C , g. .+.$.s.",
"o.a.h.k.l.4 B &.3.S.<.T @ n z } [ c X.@ T <.A.3.&.B 1 z.O.o.d.+.",
"b.g.b.s.a.1 % G E Q J C O n z } [ v | O C J Q E G % , h.$.+.$.h.",
"g.a.j.s.B.g 7 %.5.F.=.I * f.z } [ x N.$ Y 1.F.3.%.7 y M.$.+.+.$.",
"a.a.b.h.z.m # T <.3.W N 4 l.k { [ b Z.4 N Q 3.<.K # X.B.@.s.a.j.",
"a.a.h.h.h.h.i 4 d d u r n g.o.s s $.h...t d d u y j a.o.$.a.+.j."
};
