/* XPM */
static char *enemy_left[] = {
/* columns rows colors chars-per-pixel */
"32 32 171 2 ",
"   c #0E1219",
".  c #12151D",
"X  c #22231D",
"o  c #29271C",
"O  c #27291E",
"+  c #292A1E",
"@  c #171C25",
"#  c #1A1D24",
"$  c #1A1F28",
"%  c #1D222C",
"&  c #1E2325",
"*  c #1E2536",
"=  c #1D2539",
"-  c #222526",
";  c #2B2C23",
":  c #222528",
">  c #262A2F",
",  c #292A2C",
"<  c #2E3021",
"1  c #333424",
"2  c #383724",
"3  c #373926",
"4  c #3A3A25",
"5  c #3D3D29",
"6  c #34362A",
"7  c #252B37",
"8  c #292D36",
"9  c #20273A",
"0  c #232A3C",
"q  c #2E333D",
"w  c #333433",
"e  c #3A3C31",
"r  c #37393C",
"t  c #393B3D",
"y  c #413F29",
"u  c #3F432D",
"i  c #45452D",
"p  c #48442E",
"a  c #534E2E",
"s  c #4D502F",
"d  c #54522E",
"f  c #424335",
"g  c #464932",
"h  c #4E5333",
"j  c #545432",
"k  c #595732",
"l  c #575A34",
"z  c #5C5C34",
"x  c #5D5E38",
"c  c #635D33",
"v  c #5D633B",
"b  c #62623A",
"n  c #64683A",
"m  c #756E3E",
"M  c #73713F",
"N  c #7A733F",
"B  c #252D42",
"V  c #282F43",
"C  c #273146",
"Z  c #293245",
"A  c #2B3449",
"S  c #2E384E",
"D  c #323741",
"F  c #343A44",
"G  c #3D3E41",
"H  c #323B4D",
"J  c #2E3950",
"K  c #333D53",
"L  c #343E5B",
"P  c #3F4041",
"I  c #3F434E",
"U  c #364056",
"Y  c #3B4355",
"T  c #37425B",
"R  c #3A445C",
"E  c #354161",
"W  c #3B4661",
"Q  c #3E4A63",
"!  c #3D4A69",
"~  c #454645",
"^  c #40444E",
"/  c #46494F",
"(  c #4C4D4E",
")  c #474C55",
"_  c #464C5A",
"`  c #4A4C51",
"'  c #4D5157",
"]  c #4E535E",
"[  c #535455",
"{  c #555659",
"}  c #575859",
"|  c #5A5A5C",
" . c #696F43",
".. c #736F41",
"X. c #6D7343",
"o. c #747444",
"O. c #7B7543",
"+. c #767945",
"@. c #7C7A46",
"#. c #757748",
"$. c #737949",
"%. c #7C7D49",
"&. c #424D66",
"*. c #424E6A",
"=. c #495165",
"-. c #45526C",
";. c #49536A",
":. c #525866",
">. c #5B5C60",
",. c #555C6C",
"<. c #585D69",
"1. c #455272",
"2. c #495671",
"3. c #4B5975",
"4. c #4D5A7B",
"5. c #515C72",
"6. c #515E7E",
"7. c #5F6063",
"8. c #566075",
"9. c #5C6474",
"0. c #52627E",
"q. c #5E667A",
"w. c #646567",
"e. c #62666E",
"r. c #6B6B6C",
"t. c #6C6E72",
"y. c #6F7175",
"u. c #717273",
"i. c #747679",
"p. c #77797C",
"a. c #7C7D7D",
"s. c #827D46",
"d. c #827E49",
"f. c #8A7F48",
"g. c #7E824B",
"h. c #838147",
"j. c #85864D",
"k. c #83834B",
"l. c #89854B",
"z. c #8E864B",
"x. c #89864D",
"c. c #8A844B",
"v. c #86894E",
"b. c #86894E",
"n. c #8A884D",
"m. c #8A894E",
"M. c #918A4F",
"N. c #838650",
"B. c #888750",
"V. c #858B51",
"C. c #898A52",
"Z. c #8C8D51",
"A. c #898C51",
"S. c #948E50",
"D. c #899257",
"F. c #929556",
"G. c #81817F",
"H. c #515F83",
"J. c #556484",
"K. c #546384",
"L. c #566588",
"P. c #586788",
"I. c #627497",
"U. c #63759A",
"Y. c #667A99",
"T. c #7E8083",
"R. c #838487",
"E. c #888A8B",
"W. c #929394",
"Q. c #A7A7A6",
"!. c gray66",
/* pixels */
"s.s.j.C.O.s.s.%.%.@.c.k.k.c.s.h.h.k.h.k.h.h.k.Z.d.f.k.k.C.B.f.k.",
"s.s.s.j.s.s.d.@.h.%.d.%.c.x.A.j.g.v.k.@.g.j.g.g.k.s.d.f.c.v.d.s.",
"h.n.k.n.k.h.s.x.h.h.h.@.j.D.A.j.%.%.@.%.k.%.$.o.@.k.s.d.z.c.j.s.",
"k.h.d.s.c.d.h.%.v.v.g.g.@.%.V.g.h.s.%.+.%.O.%.#.@.g.h.d.c.k.k.%.",
"k.x.Z.s.z.S.c.c.j.c.m.j.%.g.g.Z.c.n.x.j.+.%.@.#.@.+.h.%.d.C.k.h.",
"j.M j 4 5 4 4 2 2 2 2 3 < 1 3 4 1 2 5 %.k.h.h.h.d.n.k.j.g.k.d.@.",
"a $ 9 * B Z Z A A C A J J A Z A Z A = ; k a j l j k k j l s M c.",
"5 L &.H *.*.-.-.2.&.-.J.J.&.Q -.-.*.R V 0 >.r.R ! E Y u.^ = ; %.",
"g 1.6.W 4.T R W R &.*.Q K.K W K.4.*.W R *.5.8.4.U.I.9.u.:.&.B X ",
"g 4.P.! H.T R W R &.-.Q J.L.K.L.1.R ;.9.q.q.q.,.*.4.p.u.u.A Z   ",
"p ! -.K 1.K K T K R Q R 3.K.4.R Z D | a.Q.Q.W.W.<.K i.u.t.H Z . ",
"y B U Z R R R R Q Q Q &.&.&.Z % w w , w t T.W.a.a.] H ,.&.T J . ",
"m 5 - @ $ % q D D D F q D > w 7 _ e.e.,.V t r.R.i.u.) = : e 1 j ",
"j.z.h.m m 5 | a.E.a.a.} t.{ p.t.W 6.K.1.=.r.8 P ( ~ [ D O s.d.c.",
"O.z c c c 1 G | w.[ ( , ( , / ' R U K R &.U B # ( P ~ # ; s.@.@.",
"f } >.| | | | | | | | | | : * S Q 0.Y.0.-.-.A / r.w.a.7.+ j.j.n.",
"f { { { { | { { { { { } | : * S Q 0.I.0.-.-.A / r.w.p.7.o k.k.v.",
"%.n v b b ; P | w.[ ( , [ , ` ' R K H U &.U B # ( G ~ # ; h.g.k.",
"k.F.V. .o.5 | a.E.a.a.| a.{ p.t.W 6.K.1.=.r.8 P ( ~ [ D O n.Z.n.",
"X.5 & $ $ % q D D D F q F > w 7 _ e.e.<.B r r.R.i.u.) = - e 6 h ",
"u B T Z R R R R R Q Q Q Q *.Z % w w - w G T.W.a.a.] H ,.&.T J . ",
"g ! 2.K 1.H K U K R Q R 3.K.4.W Z F 7.G.!.Q.W.W.<.K i.u.t.H Z . ",
"g 4.P.! H.T R W R &.-.Q J.L.K.L.1.R ;.9.q.q.q.,.*.4.i.t.y.A Z   ",
"p 1.4.W 4.R R Q R *.-.Q K.K W K.4.*.W R *.5.8.4.U.I.9.y.:.&.B X ",
"i L &.H *.-.-.-.3.&.2.J.J.&.Q -.-.*.R B 0 | r.R ! E Y u.I = ; N ",
"l % 9 * B Z Z A A Z A J S A C Z Z A = + x x z x l j z b k d @.c.",
"d.o.i 1 3 1 1 1 1 2 4 4 2 4 3 5 3 3 4 +.j.m.m.v.j.M.z.M.j.c.j.k.",
"O.C.N.k.B.j.%.@.d.j.x.n.Z.m.n.j.k.Z.k.C.@.x.h.@.O.@.O.k.@.O.h.s.",
"%.#.%.%.@.m O.%.%.s.d.k.C.C.k.s.%.N.g.A.j.s.j.d.d.d.@.%.c.k.$.s.",
"d.d.@.@.O.@...#.%.k.s.j.x.v.k.h.k.C.V.k.C.n.V.k.%.s.c.h.v.j.%.h.",
"@.s.@.@.g.+.@.@.@.h.j.c.n.n.k.c.s.j.V.x.h.C.k.k.h.%.x.c.j.c.%.d.",
"c.k.%.k.@.d.%.%.#.@.k.k.k.k.f.c.@.h.j.k.k.d.+.j.c.j.k.x.k.x.s.d."
};
