/* XPM */
static char *enemy_right[] = {
/* columns rows colors chars-per-pixel */
"32 32 172 2 ",
"   c #0E1219",
".  c #12151D",
"X  c #22231D",
"o  c #29271C",
"O  c #27291E",
"+  c #292A1E",
"@  c #1A1D24",
"#  c #1A1F28",
"$  c #171C25",
"%  c #1D222C",
"&  c #1E2325",
"*  c #1E2536",
"=  c #1D2539",
"-  c #222526",
";  c #2B2C23",
":  c #222528",
">  c #262A2F",
",  c #292A2C",
"<  c #2E3021",
"1  c #333424",
"2  c #383724",
"3  c #373926",
"4  c #3A3A25",
"5  c #3D3D29",
"6  c #34362A",
"7  c #252B37",
"8  c #292D36",
"9  c #20273A",
"0  c #232A3C",
"q  c #2E333D",
"w  c #333433",
"e  c #3A3C31",
"r  c #37393C",
"t  c #393B3D",
"y  c #413F29",
"u  c #3F432D",
"i  c #45452D",
"p  c #48442E",
"a  c #534E2E",
"s  c #4D502F",
"d  c #54522E",
"f  c #424335",
"g  c #464932",
"h  c #4E5333",
"j  c #545432",
"k  c #595732",
"l  c #575A34",
"z  c #5C5C34",
"x  c #5D5E38",
"c  c #635D33",
"v  c #5D633B",
"b  c #62623A",
"n  c #64683A",
"m  c #756E3E",
"M  c #73713F",
"N  c #7A733F",
"B  c #252D42",
"V  c #282F43",
"C  c #273146",
"Z  c #293245",
"A  c #2B3449",
"S  c #2E384E",
"D  c #323741",
"F  c #343A44",
"G  c #3D3E41",
"H  c #323B4D",
"J  c #2E3950",
"K  c #333D53",
"L  c #343E5B",
"P  c #3F4041",
"I  c #3F434E",
"U  c #364056",
"Y  c #3B4355",
"T  c #37425B",
"R  c #3A445C",
"E  c #354161",
"W  c #3B4661",
"Q  c #3E4A63",
"!  c #3D4A69",
"~  c #454645",
"^  c #40444E",
"/  c #46494F",
"(  c #4C4D4E",
")  c #474C55",
"_  c #464C5A",
"`  c #4A4C51",
"'  c #4D5157",
"]  c #4E535E",
"[  c #535455",
"{  c #555659",
"}  c #575859",
"|  c #5A5A5C",
" . c #696F43",
".. c #736F41",
"X. c #6D7343",
"o. c #747444",
"O. c #7B7543",
"+. c #767945",
"@. c #7C7A46",
"#. c #757748",
"$. c #737949",
"%. c #7C7D49",
"&. c #424D66",
"*. c #424E6A",
"=. c #495165",
"-. c #45526C",
";. c #49536A",
":. c #525866",
">. c #5B5C60",
",. c #555C6C",
"<. c #585D69",
"1. c #455272",
"2. c #495671",
"3. c #4B5975",
"4. c #4D5A7B",
"5. c #515C72",
"6. c #515E7E",
"7. c #5F6063",
"8. c #566075",
"9. c #5C6474",
"0. c #52627E",
"q. c #5E667A",
"w. c #646567",
"e. c #62666E",
"r. c #6B6B6C",
"t. c #6C6E72",
"y. c #6F7175",
"u. c #717273",
"i. c #747679",
"p. c #77797C",
"a. c #7C7D7D",
"s. c #827D46",
"d. c #827E49",
"f. c #8A7F48",
"g. c #7E824B",
"h. c #838147",
"j. c #84834B",
"k. c #89824A",
"l. c #8A854B",
"z. c #89864C",
"x. c #8A854B",
"c. c #87894E",
"v. c #86894E",
"b. c #89894E",
"n. c #8D894D",
"m. c #8A894D",
"M. c #918A4F",
"N. c #828650",
"B. c #878750",
"V. c #888750",
"C. c #868A50",
"Z. c #848C52",
"A. c #898A51",
"S. c #8A8D51",
"D. c #948E50",
"F. c #899257",
"G. c #929556",
"H. c #81817F",
"J. c #515F83",
"K. c #536283",
"L. c #556384",
"P. c #566588",
"I. c #586788",
"U. c #627497",
"Y. c #63759A",
"T. c #667A99",
"R. c #7E8083",
"E. c #838487",
"W. c #888A8B",
"Q. c #929394",
"!. c #A7A7A6",
"~. c gray66",
/* pixels */
"d.s.z.j.z.j.j.k.z.%.d.j.h.z.h.@.x.d.j.j.j.j.@.#.%.%.d.@.j.%.j.x.",
"d.@.k.j.x.z.%.h.j.v.C.h.z.C.z.s.k.j.b.b.x.j.h.@.@.@.%.g.%.@.s.@.",
"h.%.z.c.h.k.s.%.j.C.b.A.v.N.A.j.h.j.c.z.z.s.j.@.#...@.@.@.@.d.s.",
"s.$.v.x.%.@.d.d.d.z.s.z.Z.g.N.@.s.j.C.A.j.d.s.%.@.O.m %.%.%.#.%.",
"s.h.O.@.j.O.@.O.@.h.z.@.C.j.S.v.z.b.n.S.b.z.j.s.@.%.z.V.j.N.A.O.",
"j.j.k.j.M.x.M.z.c.n.n.z.+.4 3 3 5 3 4 2 4 4 1 1 1 1 1 3 2 i o.s.",
"k.@.d k b z j l x z x x + = A C C C A S J A C A A C C V * 9 % l ",
"N ; = I u.Y E ! T r.| 0 V T *.-.-.Q &.P.P.2.&.3.-.-.-.*.H &.L i ",
"X V &.:.y.9.U.Y.4.8.5.*.R W *.4.K.W K K.Q -.*.R Q R R 4.W 4.1.p ",
"  Z A y.t.i.4.*.,.q.q.q.9.;.R 1.P.L.P.P.Q -.&.R W R T J.! I.4.g ",
". A H t.u.i.K <.Q.Q.!.~.H.7.F C W 4.K.3.T Q R K U K H 1.K 2.! g ",
". J T &.,.H ] a.a.Q.R.G w - w w % Z *.Q Q Q Q R R T R R C T B u ",
"h 6 e - = ) u.i.E.r.r V <.e.e._ 7 w > F q F F F D q % # # & 5 X.",
"b.S.b.O D [ ~ ( P 8 r.=.1.L.6.W t.p.{ a.| a.a.W.a.| 5 o. .N.G.v.",
"j.g.h.; @ ~ G ( @ V U &.U H K R ' ` , [ , ( [ w.| P ; b b v n %.",
"c.v.j.o 7.p.w.r./ A -.-.0.U.0.Q S * : | } { { { { { | { { { { f ",
"b.j.j.+ 7.a.w.r./ A -.-.0.T.0.Q S * : | | | | | | | | | | >.} f ",
"@.@.s.; @ ~ P ( @ V U &.R K U R ' / , ( , ( [ w.| G 1 c c c z O.",
"k.s.s.O D [ ~ ( P 8 r.=.1.L.6.W t.p.{ t.} a.a.W.a.| 5 m m h.x.j.",
"j 1 e : = ) u.i.E.r.t V ,.e.e._ 7 w > D q F F D D q % # $ - 5 m ",
". J T &.,.H ] a.a.Q.R.t w , w w % Z &.&.&.Q Q Q R T R R C U B y ",
". A H t.u.i.K <.Q.Q.!.!.a.| F C R 4.K.3.R Q R K T K K 1.K -.! i ",
"  Z A u.u.p.4.*.,.q.q.q.9.;.R 1.P.L.P.P.Q -.&.R W R T J.! I.4.g ",
"X V &.:.u.9.U.Y.4.8.5.*.R W *.4.K.W K L.Q *.&.R W R T 4.W 6.1.g ",
"@.; = ^ u.Y E ! T r.>.0 V T *.-.-.Q &.P.P.-.&.2.-.-.*.*.H &.L 5 ",
"x.M s l j k k j l j a k ; = A C A C A J J A C A A C C V * 9 # a ",
"@.d.j.g.z.j.b.d.h.h.h.v.%.5 1 2 4 3 1 < 3 2 1 1 2 4 4 5 4 j M z.",
"h.j.C.d.%.h.%.@.#.@.@.%.z.z.b.x.S.g.g.@.z.n.x.j.x.x.D.x.s.S.z.v.",
"%.v.j.x.s.h.g.@.#.%.O.%.%.%.s.h.g.Z.@.@.g.g.c.c.%.h.d.x.s.d.h.v.",
"s.z.x.x.s.s.j.@.o.$.%.j.@.@.%.%.z.Z.F.j.@.h.h.h.z.s.h.v.b.j.b.h.",
"s.d.c.x.f.s.s.j.g.g.v.g.@.v.c.%.z.S.z.x.%.d.@.h.@.d.s.s.j.s.s.s.",
"j.d.B.A.j.j.d.s.S.v.g.h.h.h.j.h.h.s.k.j.j.x.@.%.@.s.s.O.A.j.s.s."
};
