/* XPM */
static char *Dirt_19_128x128_4[] = {
/* columns rows colors chars-per-pixel */
"4 4 15 1 ",
"  c #7D7B47",
". c #7A7A48",
"X c #7B7C48",
"o c #7D7D48",
"O c #7D7E49",
"+ c #7E7E49",
"@ c #7F7E49",
"# c #817F49",
"$ c #827F49",
"% c #7F804A",
"& c #81804A",
"* c #82814A",
"= c #81824B",
"- c #858049",
"; c #858149",
/* pixels */
" %;;",
"*OO#",
"*.OO",
"#O##"
};
