/* XPM */
static char *character_down[] = {
/* columns rows colors chars-per-pixel */
"4 4 13 1 ",
"  c #6B633F",
". c #6F663D",
"X c #70673F",
"o c #574D46",
"O c #5D5444",
"+ c #5E5444",
"@ c #674D45",
"# c #684E45",
"$ c #655651",
"% c #766D45",
"& c #787047",
"* c #777149",
"= c #787149",
/* pixels */
" ooX",
"=@#*",
"&$$%",
".++."
};
