/* XPM */
static char *character_right[] = {
/* columns rows colors chars-per-pixel */
"64 64 205 2 ",
"   c #0A0707",
".  c #0E0B0A",
"X  c #0C0807",
"o  c #120D0C",
"O  c #180F0E",
"+  c #17140D",
"@  c #141414",
"#  c #1E1513",
"$  c #1D1E12",
"%  c #1C1C1D",
"&  c #171718",
"*  c #231714",
"=  c #221C13",
"-  c #261B19",
";  c #2B1D1B",
":  c #1F2114",
">  c #242314",
",  c #292617",
"<  c #25251A",
"1  c #2B261B",
"2  c #31221E",
"3  c #32281F",
"4  c #31331E",
"5  c #232424",
"6  c #2C2523",
"7  c #272828",
"8  c #2A2926",
"9  c #352521",
"0  c #392722",
"q  c #362922",
"w  c #3B2A25",
"e  c #342D2B",
"r  c #3C2D2A",
"t  c #3D3B22",
"y  c #3C302B",
"u  c #383620",
"i  c #2F3031",
"p  c #313233",
"a  c #3D3331",
"s  c #3D3C3C",
"d  c #412E27",
"f  c #422E29",
"g  c #45312B",
"h  c #4A342E",
"j  c #423D23",
"k  c #413532",
"l  c #4C3730",
"z  c #453B37",
"x  c #4E3933",
"c  c #463C3A",
"v  c #4A3C39",
"b  c #503730",
"n  c #533B34",
"m  c #5A3E36",
"M  c #553E38",
"N  c #593F38",
"B  c #3F403D",
"V  c #434226",
"C  c #444628",
"Z  c #454A2A",
"A  c #4F512F",
"S  c #50532F",
"D  c #4F423C",
"F  c #564037",
"G  c #5B4037",
"H  c #55413C",
"J  c #5C433A",
"K  c #5B5C35",
"L  c #545331",
"P  c #4F5331",
"I  c #62463D",
"U  c #64493E",
"Y  c #684A3F",
"T  c #625B33",
"R  c #65653A",
"E  c #6B663B",
"W  c #6D6B3E",
"Q  c #746C3D",
"!  c #7B6E3D",
"~  c #7B703F",
"^  c #70703F",
"/  c #424242",
"(  c #4A4C4D",
")  c #4A4748",
"_  c #524441",
"`  c #544C4A",
"'  c #4D4E50",
"]  c #4F5051",
"[  c #535455",
"{  c #565758",
"}  c #57595A",
"|  c #5A5B5D",
" . c #5C5453",
".. c #654B41",
"X. c #6B4D43",
"o. c #714F44",
"O. c #6E5146",
"+. c #6D554D",
"@. c #725146",
"#. c #74554A",
"$. c #79574B",
"%. c #75594B",
"&. c #7B5A4D",
"*. c #665A57",
"=. c #735B53",
"-. c #7E5D51",
";. c #735F58",
":. c #676C42",
">. c #6E7445",
",. c #6F7549",
"<. c #747443",
"1. c #7B7543",
"2. c #767945",
"3. c #7D7A45",
"4. c #737649",
"5. c #757B4A",
"6. c #7C7D49",
"7. c #7D7648",
"8. c #74635D",
"9. c #7D6259",
"0. c #7B6157",
"q. c #777749",
"w. c #5D5E60",
"e. c #5E6062",
"r. c #626364",
"t. c #666769",
"y. c #66696B",
"u. c #6A6B6C",
"i. c #796761",
"p. c #7E6B65",
"a. c #6D6E70",
"s. c #706F70",
"d. c #6E7072",
"f. c #727375",
"g. c #747679",
"h. c #76797B",
"j. c #797A7C",
"k. c #80703F",
"l. c #876F3E",
"z. c #815C4E",
"x. c #825E52",
"c. c #827542",
"v. c #837B45",
"b. c #8A7C45",
"n. c #827E49",
"m. c #8A7E48",
"M. c #8A7542",
"N. c #846254",
"B. c #8A6455",
"V. c #8A6659",
"C. c #8D6A5B",
"Z. c #876458",
"A. c #916759",
"S. c #926C5D",
"D. c #937B44",
"F. c #836D65",
"G. c #957061",
"H. c #9A7B66",
"J. c #997566",
"K. c #946F60",
"L. c #A17B6C",
"P. c #7E824C",
"I. c #7B844B",
"U. c #7D8551",
"Y. c #7D8A53",
"T. c #758052",
"R. c #848147",
"E. c #84834B",
"W. c #8A844B",
"Q. c #85894E",
"!. c #8B8A4E",
"~. c #8C8047",
"^. c #91844B",
"/. c #928B4E",
"(. c #928147",
"). c #818752",
"_. c #848C52",
"`. c #8B8C52",
"'. c #918E52",
"]. c #9A8D50",
"[. c #869155",
"{. c #8B9254",
"}. c #8C955A",
"|. c #8C9A5B",
" X c #849259",
".X c #929353",
"XX c #979755",
"oX c #97A25F",
"OX c #AA8770",
"+X c #AA8871",
"@X c #7D7E80",
"#X c #7E8082",
"$X c #828384",
"%X c #858788",
"&X c #87898B",
"*X c #8A8B8D",
"=X c #888788",
"-X c #8D8E90",
";X c #8E9091",
":X c #929395",
">X c #969798",
",X c #97989A",
"<X c #999A9C",
"1X c #9E9FA1",
"2X c #A1A3A4",
/* pixels */
"E.'.6.1.7.c.v.E.6.v.1.E.E.!.`.E.(.v.E.E.`.).)._.Q.Q.6.3.E.4.v.E.E.6.W.E.I.v.W.n.n.W.v.W.P.Q.W.v.1.v.M.v.E.|.R.E.U.<.I.R.3.R.c.b.",
"c.W.I.! m.`.2.6.7.! b.n.E.E.E.`.!.n.<.3.5.T.).2.Y.5._.P.`._.P.W.v.v.Q 1.E.E.m.6.v.k.1.v.2.`.W.v.E.W.Q.3.3.Q.I.P.!.`.Q.R.~.~ n.E.",
"m.W.2.~ m.n.<.4.5.`.6.6.~ _._.c.R.E.{.Q.3.6.6.5.<.n.E.5.}.[.5._.3.c.1.v.~ 1.v.R.~ v.3.I.P.3.~.E.3.k.W.c.E 3.n.Q.v.E.Y.W.E.c.v.E.",
"W.I.P.W.2.7.4.6.W.'.6.6.E.I.P.E.6.3.P.[._.1.U.4.E.P.W.[._.{.[.Q.Q.E.b.W.1.v.R.!.!.Q.E.2.>.Q.Q.1.v.l.v.n.3.}.E.v.R.W.^.!.n.n.M.6.",
"6.n.c.n.6.<.P.Y.).n.).1.n.7.E.Q.v.v._.Q.5.<.Q.4.2.U.T.oX_.P.E.W./.m.n.n.v.R.c.c.!.I.R.!.3.b.v.v./.3.Q.W.3.XXE.!.E.v.b.{.1.v.W.R.",
"I.1.1.1.6.1.T.4.q.:.:.W.7.! Q.R.6.c.1.:.>.4.2.I.4.Y.).`.U.5.W.!.W.c.M.c.E..X1.c.!.W.Q.k.v.n.3.{.R.k.<.c.W.E.3.P.E.3.Q.c.v.c.!.E.",
"P._.n.<.4.n.6.6.).6.1.5.2.R.v.R.v.6.I.W 4.6.I.Q._._._.4.).6.Q.v.v.E.v.v.W.`.E.n.~ W.R.~ W.W.R.E.~ b.Q.3.W.W.Q.1.v.R.XXE.~.{.!.E.",
"E.n.5.).E.v.7.E.5.6.n.k.6.I.Q.m.1.I.v.I.3.3.W.<.n.].5. X_.Q.I.<.E.n.m.W.M.m.E..X~.^..X!.R.v.m./.E.E.E.W.(.W.1.3.3.b.E.W.3.E.!._.",
"1.>.E.n.2.7.6.Q.).n.<.7.v.E.Q.W.3.v.3.{.~.E.R.W.!.].6.E.R.E.E.{.W.v.c.1.n.W.E..XW.!.Q.[.R.~.W.E.W.R.v.^.b./.v.P.R.{..XI.R.!.2.v.",
"v.5.P.P.<.1.1.2.n.n.E.7.1.W Q n.Q.{.^.v.`.Q.3.m.v.|.Y.3.[.c.1.W.W.1.3.v.R.W.v.W.^.b.~ I.E.!.R.c.W.R./.l.k.`.^.b./.R.P.^ 3.c.<.1.",
"n.6.2.2.E.7.~ <.6.).5.<.3.P.1.c.^.v.~.Q 3.n.!.v.Q I.Y.Q.<.P.E.2.E.E.v.!.E.v.3.n.D.3.R.v.~ W.!.^.b.c.~ {.W.{./.v.W.~ Q.Q.c.v.~ v.",
"2.v.P + > = = = < - $ = : > > > > > > > > > > > > , > > , > , = > > , > , > > , , > , , , > > = > , : > > : , > , : , Q W.6.6.W.",
"2.P o ; 2 9 9 9 0 w w d d d h 2 * b h b n n n G G G I I I I Y Y Y I I G G m m n n b h h h h h * 2 g w w q 0 q 9 2 9 ; o E 1.c.~ ",
"A . 9 w j k h h b x n F G G I w 2 Y Y Y Y @.Y @.@.$.$.$.&.&.z.z.z.&.$.$.o.@.o.O.Y Y Y Y I I I ; 0 G n n l l h h g d w ; o W !.1.",
"  2 9 H X.J ..X.O.X.+.O.O.#.&.n d N.-.N.N.N.V.V.C.C.A.C.K.K.K.K.S.S.A.C.A.B.B.N.B.x.-.-.$.%.&.q h %.O.X.X.U I H J ..g 9 - > 4.P.",
". 2 n H b D F F F J J U U Y O.g 3 %.@.@.$.&.&.z.z.z.B.B.V.A.A.V.B.B.B.N.B.z.z.&.&.$.#.@.@.X.@.9 g X.J G J O.J n M x M r ; $ 7.1.",
"  9 l l n l b n n n m m I I #.h q &.#.-.-.-.x.x.-.-.9.9.V.;.i.i.p.p.F.i.8.*.+.x.-.$.$.#.#.@.%.9 g X...J J '.v w #.x x f ; > ).4.",
"  9 l n r c ) `  .| *.` ` x U l 0 &.$.&.-.x.x.x.e.u.y.t.;.[ e.y.d.h.h.a.t.w.[ -.x.-.-.$.#.@.#.9 g O...I J OXZ.N.$.x x g ; > n.n.",
"  9 l g s u.h.=X<X2X:X$Xf.| v h w -.$.&.-.-.x.Z.=Xf.s.-Xi.[ r.u.f.@Xh.s.y.e.[ x.x.x.-.#.#.#.-.9 g O...I ..+XO.U B.x x d ; > 6.:.",
"  9 l f c r.u.@X;X,X&Xj.t.} _ h w N.N.Z.V.V.V.K.$Xf.f.*Xi.[ e.y.s.h.h.s.y.e.[ -.x.-.-.-.#.#.#.9 h O...I Y +XO.J C.n n d ; = v.1.",
"  3 x g / t.a.$X:X<X*Xj.u.r.6 o + 3 q h x M ..O.] r.t.r.;.| t.s.h.@Xg.a.t.w.[ x.x.-.&.$.#.@.#.9 g O...J ..H.C.C.$.x x d ; $ W.E.",
"  3 F g a e.f.#X:X<X*X@Xf.p o 0 w 2 2 ; ; * - * # # * * 0 6 e v _ +.F.9.9.-.=.x.-.$.=.$.#.O.#.9 g X.I I U J.F g @.l n g ; > ^.E.",
". - l J h y c v v _ _ H < o f ..%.%.&.&.-.&.z.x.&.o.G b g 0 ; * # . Y A.x.x.x.x.$.$.#.#.@.O.@.9 g O...J J %.M h H M F r # , Q.n.",
"T + - x X.I U Y Y Y O.0 X w H ..U X.@.%.N.V.N.B.A.K.A.X.Y &.+.X.I 2 * C.V.N.Z.x.x.x.x.&.&.#.$.2 f @.........U J J U g # : <.6.Q.",
"v.W o 6 i i a a k z a o 9 x M N J Y ..@.@.n f r f N x.-.m -.#.@.@.M o d X._ J _ N M v x v l z e c _ v c 9 ; 1 ; ; - # $ 6.^.W.E.",
"I.!.Z p ' ' ] [ } | ] o 9 N -.X.M ..X.@.n l n I n l n I m I @.f d H 2 @ r.t.r.| { e.w.[ ( / ( @X%X@Xf.[ 7 < V u t t Z 2.E.W.R.~.",
"<.E.C i [ { ' ' } [ ] o 0 n I ..N I X.I N #.$.x.-.+.N n J m X.l w n n o s $Xg.| y.-X*Xt.] ) ( @X$X@Xd.{ 7 K ,.Y.2.2.`._..X~.~ /.",
"n.{.j p } @X#X@Xy.w.w.o 9 x X.Z.x.N N ..#.x.G.J.G.x.o.X.&.N N ..3 d J 9 o p / r.e.a.u.| [ ( ) g.2Xj.} a.5 K P.4.2.2.}._.E.W.W./.",
"1.~.V p r.*Xf.OX$Xy.t.. 9 x I @.X.N I o.$.A.J.L.J.K.$.@.&.I n I J w g l + % % / s.-X-Xu.{ ' ( @X*X$Xg.| 7 R ,.I.P.|.|..X`.[.Q.3.",
"6.v.C p r.#Xf.j.h.t.e.o 9 n X.Z.-.N _ ....-.F.K.Z.&...I o.X.n n ..g g M o ) /   % 5 5 & & @ @ 5 % % % @ . + : : < > > > > < $ t ",
"W.W.C p | r.r.e.e.y.r.o 9 n ..#.@...X.#.b ..@.$.@.I b l I X.n b O.O...M o s f.[ [ { { ] } } | { } } { | | | w.| w.w.| e.[ ( w.& ",
"^.v.V p { [ { } w.u.r.o w M M J ..#.$.x.O.f g g f k X.&.#.X.n n O.O...N o ( 1X;X%X:X*X&X<X,X,X:X:X:X>X,X>X,X>X>X>X>X>X,X%Xh.<X5 ",
"3.1.t p | [ [ { w.a.w.o 0 M N ..X.@.&.x.K.x.X...X.x.B.x.$...n n #.X...H o ( 1X>X>X>X>X>X,X1X>X=X>X-X*X1X<X<X<X,X<X>X>X<X%Xg.<X8 ",
"2.E.t p | | r.| w.y.e.o 9 M M ....O.#.-.I l n n M x b $.$...b n O.O...M O s g.} | w.| w.| w.} [ w.} ] w.| r.r.e.*.r.w.r.{ ( r.& ",
"1.3.V p r.#Xg.j.h.t.r.o w b n N I X.#.#.h x M N M n h N $...n n ..g g M O ) /   % 5 5 & & @ @ 5 % % % @ . @ > > > > $ > > > > C ",
"E._.V i r.*Xu.@X$Xt.r.@ 9 b X.x.&.H J @.J X.#.$.#.o...I $.Y n U J w g l O % % / a.-X-Xy.[ ' ( #X*X$Xg.} 7 R E.6.6.1.}.I.{.!.!.n.",
"n.'.C p w.g.=X#Xu.e.| o 9 b ..&.#.N J o...$.x.x.x.&.@.X.$.G J ..9 w I 9 o i / r.w.a.a.| [ ( ) h.2Xj.w.u.5 L n.6.R.I.^ ^ P.R.E.3.",
"1.U.Z p  .} [ { | ] ] o 0 l ..&.#.N J o...o.#.#.#.#...X.@.M X.b w M b o s $Xg.w.t.-X-Xr.[ ) ( j.$X@Xa.{ 7 T n.n.Q.2.2.3.E.Q.I.3.",
"2.W.C p ' ' [ [ } | [ o w x ..x.$.H J O.b n N N N M l ..Y J @.d r J 9 @ t.t.w.w.w.w.w.[ ) / ( j.=X@Xf.[ 7 u C t t t B ^ v.~ R.!.",
"v.Q o 6 e e a a k c a . 9 l m m J I X.o.N f h l l h M o.G &.%.O.@.M o r X._ H H M n v v l z v e v _ v v 0 ; ; ; > = # $ 1.v.n.Q.",
"W o - x Y U U U ..Y @.9 X w H ..I X.#.$.x.Z.C.K.G.S.A.Y Y &.@.O.I 2 * C.B.B.N.N.z.x.&.&.#.#.$.9 g @.Y Y X.Y U J I I g # : I.3.~ ",
"o - x J k k l D D _ M _ < o r ..&.=.$.-.-.-.x.&.z.Y I b h 3 ; * # X Y A.N.x.x.-.&.&.%.%.#.O.#.9 g O.U ` J O.F g G F F w # 4 U.E.",
"X 9 x g p y.f.#X:X,X-X@Xf.p o w 0 2 2 ; ; * * * # # * * 2 6 e z D +.C.9.0.;.-.-.-.$.$.#.@.@.@.9 g Y J J J OXA g O.h x g 1 > P.2.",
"  9 x g / e.@XY.:X<X&Xj.a.w.6 o O 9 0 g n M ..O.] w.t.r.N.| t.f.h.@Xg.d.r.w.[ x.x.-.$.$.#.@.#.9 h @...J J H.C.C.%.n b g ; > Q.v.",
"  9 x f / w.a.@X-X,X&Xh.u.} _ h r x.x.x.Z.V.V.C.$Xf.d.$X8.[ e.u.d.h.h.d.t.e.[ x.x.-.&.$.$.#.=.0 g O.Y I U +XO.U V.n x f ; $ v.I.",
"  9 x f s y.@X&X,X2X>X$Xs.w.v g w -.-.&.-.x.x.x.*Xf.f.:Xi.} r.u.d.j.h.d.t.w.[ -.x.-.-.&.#.#.$.9 h O...J J OXO.J V.n x g ; > P.Q.",
"  9 l n f c ) `  .*. .` ` v ..l w &.$.-.-.x.Z.x.r.y.y.t.8.[ r.y.d.#Xh.d.t.w.[ -.x.&.$.$.$.#.$.9 g O...I ..OXN.N.&.x x d ; > I.Q.",
"  9 h l n h b l n m m G J ..#.l 0 &.#.$.-.x.x.Z.-.9.9.9.B.8.8.9.p.p.p.i.8.*.=.-.x.-.$.=.#.O.#.9 g O...J U H.x d @.l x g ; > XX.X",
"X 2 x H x x F H F J J U U U O.g 0 $.@.#.%.&.&.x.N.N.N.B.B.A.A.A.A.B.B.z.x.x.z.&.$.%.$.@.O.O.@.2 g ..J J J O.J F F x M r ; , n.~ ",
"  2 0 H X.U ..X.X.O.O.O.%.%.-.x w N.-.N.N.N.N.B.V.C.A.S.S.S.G.G.S.S.A.A.C.V.B.N.N.N.-.&.&.$.&.0 l %.O.X.X...J J J ..d 9 - > c.b.",
"A . 9 0 g g h l x x n m F G I w 2 Y I Y X.Y o.o.@.$.$.&.&.z.z.z.z.z.$.$.@.@.o.X.X.Y Y I I G I , w G n b h h h h h r 0 ; o R E.~.",
"`.P . 2 2 3 9 9 q w w y d f h 2 = b h b n n m m m G G I I I Y Y I I I G I m m n n n n h h h h * 2 f w r w 0 0 3 6 2 ; + E ~ c.!.",
"7.n.K = > , > = = = = > > > : > > : > $ $ = > = = , > > > > > > = > , , > > > > > > > = > > > : * > > > > = > > > > > R ~ W.E.7.",
"n.m.W./.!.R.v.v.l.~ W.~.W.W.3.2.5.2.Q.T.6.W 4.>.~ ~ {.Q.Q.6.1.W.E.v.E.2.E Q 3.E.W.W.W.3.R.I.2.~ <.E.Q.1.<.v.1.E.v.3.n.v.3./.R._.",
"n.W.E.E.c.2.1.E.v.l./.n./.!.~ 3.! m.~.<.W.E.2.>.T.1.!.3.6.I.E.3.<.Q.E.R.~ 1.R.3.v.`.P.P.b.~ 3.~ Q 3.Q.<.E.!.2.P.c.E.E.n.M.^.3.R.",
"W._.W.!.~.I.v._.E.{.W.R.Q.W.W.P.v.!.R.6.v.v.5.E.Q.E.Q.E.}.[.!.R.Q.Q.3.3.!.~.3.E.W.E.~ c.n.R.{.Q.<.P.5.4.n.P.6.E.~.~.c.n./.1./.E.",
"P.E.E.Q.Q.|.W.3.v.P.R.~ !.E.R.W.W.I.W.E.E.!.6.I.E.).6.6._._.W.3.~ 3.^.b.~ m.v.v.b.1.n.m.E._.E./.3.E.5.4.7.4.v.b.W.E.~.W.v.W.`.E.",
"I.3.Q.Q.3.!.v./.c.1.P.P.P.~ I.Q 3.~.b.W.`.I.E.3.2.Y.6.5.I.I.!.~ >.v.!.3.2.E.!.E.7.7.n.E.6.Q.Q.W.c.2.Q.P.E.5.).n.!.!.~.XX/.m.`.}.",
"'.W./.R.W.`.!.`.3.Q Q R.3.P.R.~ 3.3.W.~ v.2.E.5.Q._.I.`.2.!.R.b.P.R.W.~ 1.b.v.1.U.W.W.v.m.v.^.~.v.E.Q.<.>.~ `.`./.n.c./.n.n. X'.",
"v.`.W.v.W.E.I.3.U.3.v.W.3.Q.v.3.3.Q.'.3.I.3.v.Q.U.`.W._.E.E.3.!.I.W.Q.v.v.v.W.`.W.).}.`./.m.(.W.m.I._.2.<._._.I.W.~.P.I._.`.7.`.",
"n.v.~ I.E.Q.<.T.!.~.v.E.v.R.E.W.I.3.E.v.I.v.v.E.T..XE.U.[.P.R.[.E.E.v.1.<.n.^.`.W.W.W.'.v.c.n.1.3.I.2.v.E.E.3.Q.Q.n.'.W.'.n.1.c.",
"n.7.W.<.<.2.>.I.3.E.2.Q.W.3.W.W.Q.!.E.I. Xn.E._.2.E._.Q.P.Q.I.R.P.v.v.c.1.m.n.W.W.c.oXv.3.c.R.I.6.{.v.1.1.3.Q.E.E._.E.n.1.v.m.`.",
"E.n.c.W.[.3.v.6.1.3./.!.E.~.k.3.v.!.{.2.E.|._._.I.Q.Y.R.Q.Q.P.{.!.W.E.6.1.W.b.m.(.n.`.E.~.E.~ <.3._.n.n.2.6.E.E.3.3.n.n.7.n.E.W.",
"m.v.E.E.3.W.v.3.W.E.Q.v.^ W.v.E.3.E.Q.W.|.}.E.}.P.Y.R.E.!.Q.E.!.`.Q.E.1.2.W.^.W.XXc.E.E.W.!.E.v.!.W.W.~.v.E.n.n.6.P.b.v.m.W.7.6."
};
