/* XPM */
static char *character_down[] = {
/* columns rows colors chars-per-pixel */
"64 64 200 2 ",
"   c #0A0707",
".  c #0D0907",
"X  c #0E0A0A",
"o  c #070707",
"O  c #120D0C",
"+  c #180F0E",
"@  c #15140D",
"#  c #141414",
"$  c #1E1512",
"%  c #1E1C12",
"&  c #1C1C1D",
"*  c #171718",
"=  c #221715",
"-  c #231C14",
";  c #261B19",
":  c #2B1D1B",
">  c #1F2115",
",  c #242315",
"<  c #282515",
"1  c #2D221C",
"2  c #2D2C1A",
"3  c #26261A",
"4  c #32221E",
"5  c #232424",
"6  c #2D2925",
"7  c #272828",
"8  c #2B2626",
"9  c #352522",
"0  c #392722",
"q  c #3B2A25",
"w  c #3C2D2A",
"e  c #342C28",
"r  c #3E3C23",
"t  c #3C302C",
"y  c #2F3031",
"u  c #323233",
"i  c #3D3331",
"p  c #3D3B3C",
"a  c #402D27",
"s  c #422E28",
"d  c #413D23",
"f  c #45312B",
"g  c #4A342E",
"h  c #413532",
"j  c #4C3730",
"k  c #463B37",
"l  c #4E3933",
"z  c #463C3A",
"x  c #4A3C39",
"c  c #503730",
"v  c #533B34",
"b  c #5A3E36",
"n  c #553E38",
"m  c #593F38",
"M  c #3F4227",
"N  c #3F403D",
"B  c #454326",
"V  c #454529",
"C  c #46492B",
"Z  c #534D2B",
"A  c #55522E",
"S  c #4F423D",
"D  c #594037",
"F  c #55413C",
"G  c #5C433A",
"H  c #564036",
"J  c #5D5B35",
"K  c #4E502D",
"L  c #62463D",
"P  c #64493E",
"I  c #684B3E",
"U  c #5D6138",
"Y  c #6A653C",
"T  c #6D6B3E",
"R  c #676338",
"E  c #736C3E",
"W  c #7C6E3E",
"Q  c #7A713F",
"!  c #76703F",
"~  c #424243",
"^  c #4A4C4D",
"/  c #4A4748",
"(  c #524441",
")  c #544C4A",
"_  c #4D4E50",
"`  c #4F5051",
"'  c #535455",
"]  c #565758",
"[  c #57595A",
"{  c #5A5B5D",
"}  c #5C5453",
"|  c #654B41",
" . c #6B4D43",
".. c #6E5146",
"X. c #6F5248",
"o. c #715146",
"O. c #74554A",
"+. c #79574B",
"@. c #75594B",
"#. c #7B5A4E",
"$. c #6D5A54",
"%. c #605856",
"&. c #735B53",
"*. c #7E5D51",
"=. c #735F58",
"-. c #6C6D42",
";. c #676A43",
":. c #716D41",
">. c #796F40",
",. c #6F7446",
"<. c #697246",
"1. c #747444",
"2. c #7B7542",
"3. c #767946",
"4. c #7C7A45",
"5. c #737648",
"6. c #757B49",
"7. c #7C7D49",
"8. c #7D7649",
"9. c #74635D",
"0. c #7D6259",
"q. c #7B6157",
"w. c #5D5E60",
"e. c #5E6062",
"r. c #626364",
"t. c #666769",
"y. c #66696B",
"u. c #6A6A6C",
"i. c #686867",
"p. c #796761",
"a. c #7E6B65",
"s. c #6D6E70",
"d. c #706F70",
"f. c #6E7072",
"g. c #727375",
"h. c #747679",
"j. c #76797B",
"k. c #797A7C",
"l. c #80703F",
"z. c #815C4E",
"x. c #825E52",
"c. c #827542",
"v. c #837C46",
"b. c #8A7C46",
"n. c #837E49",
"m. c #8A7E48",
"M. c #846254",
"N. c #8A6455",
"B. c #8A6659",
"V. c #8D6A5B",
"C. c #876458",
"Z. c #916759",
"A. c #926C5D",
"S. c #846D65",
"D. c #957061",
"F. c #9A7B66",
"G. c #997566",
"H. c #946F60",
"J. c #A17B6C",
"K. c #7D824C",
"L. c #7F894E",
"P. c #7E8551",
"I. c #7C8952",
"U. c #848047",
"Y. c #83834B",
"T. c #8A844B",
"R. c #84894E",
"E. c #8B8A4E",
"W. c #8B8047",
"Q. c #91844A",
"!. c #928A4E",
"~. c #828651",
"^. c #848C52",
"/. c #8B8C52",
"(. c #918E52",
"). c #8C9255",
"_. c #8C965A",
"`. c #8B995C",
"'. c #869257",
"]. c #929253",
"[. c #959858",
"{. c #91A05F",
"}. c #909D60",
"|. c #AA8770",
" X c #AA8871",
".X c #7D7E80",
"XX c #7E8082",
"oX c #828384",
"OX c #858788",
"+X c #87898B",
"@X c #8A8B8D",
"#X c #888788",
"$X c #8D8E90",
"%X c #929395",
"&X c #969798",
"*X c #97989A",
"=X c #999B9C",
"-X c #8E9091",
";X c #9E9FA1",
":X c #A1A3A4",
/* pixels */
"Y.(.7.2.2.v.n.Y.8.c.2.U.Y.A   X o o o o   . O <.K.K.6.Q 7.3.7.n.n.7.Y.n.7.4.Y.n.Y X   o o o o   .   Z v.U.`.U.L.Y.1.K.U.Q U.l.m.",
"c.T.K.W m.(.8.6.4.>.b.Y.K X 1 9 9 0 0 9 9 9 ; O <.K.I.L.^.^.K.W.v.7.E 2.Y.U.b.R O - e 9 9 0 9 0 9 : . K 7.Y.K.K.!.^.L.T.T.Q U.T.",
"b.E.3.! T.7.,.,.6.~.n.K X 9 9 l j g l l j v j : O r M M C C u k r d d d r r r O - l l l j j j j l 9 9 . B 7.v.Y.v.Y.R.T.Y.c.v.Y.",
"T.K.K.T.8.8.5.7.E.(.8.% 9 q F G j j f t s f G v 1 u y y y u u u u u y y y u u 8 H G f t s f v j G G q 1 % ).Y.7.K.T.T.E.b.v.v.4.",
"4.n.c.U.K.1.P.I.~.7.~., : f  .l v w p S S u g I w _ ] { t.r.[ [ ] { r.r.{ ] ^ w I g u S ~ p s v l | f 1 , [.U.E.Y.v.v.E.2.c.Y.Y.",
"K.8.1.2.7.2.7.,.8.;.<., 9 f | l c z i.r.e.t.t L e _ [ j.%XI.w.' ] r.XX@Xg.] ^ w L f t.r.e.y.z g x | g 9 < Y.7.K.U.U.E.4.v.v.E.Y.",
"K.^.n.:.3.U.4.v.~.7.2.> 9 g | H c / j.s.f.g.x P t ' ' OXs..Xw.' ] r.g.g.OX` ' t P k g.d.u.j.( v n | g 9 , T.Y.2.7.U.[.b.W.).E.T.",
"Y.K.8.~.Y.8.4.^.6.8.v., 9 l | F v ) +XXXXXXXx I i ] ] XX.X.X[ ] { %.j.oX.X' ] i P x OXoXk.+X) c m | l 9 < T.2.4.v.v.Y.E.4.n.E.^.",
"2.:.Y.n.1.2.7.~.P.7.1., 0 j ..D c } ;X$X%X%Xx | i w.w.s..X.Xw.w.e.r.j.oXy.[ [ i | F %X%X-X=X} v D | c q , !.c.U.U.).].K.R.(.3.v.",
"n.6.~.K.2.8.2.4.Y.T.Y., q v ..G v %.:X&X&X;X( I h w._ w.t.t.u.u.u.y.i.r.e.' w.h P ( =X=X*X:X%.b G ..v q - ).!.b.!.T.7.Q 2.2.1.W ",
"n.7.5.3.Y.4.>.>.4.P.5.- q v ..G b } %X+X@X$XS  .i ' _ w.e.r.e.e.r.e.r.r.w._ ' h ..( $X@X#X%X} b G X.v q < E.E.v.E.2.R.E.c.v.! v.",
"7.n.K.1.5.6.2.:.n.~.,.- a D O.( L ) oXh.k..X( 0 X X O O O O O O X # O O O O O X 0 S .Xk.k.oX) b P O.H q < 4.Q.(.E.2.Y.T.T.K.n.T.",
"1.P.R.W 1.1.T 2.4.1.! , f D O.P L ( g.t.s.h.; X 9 0 0 0 9 0 0 0 q 9 9 q 9 9 9 9 . 3 g.u.u.g.) L P X.D f , v.c.4.^.U.2.v.n.2.v.W ",
"Y.K.2.v.2.-.1.T.-.1.7.> a D O.| L x w.w.e.u X w l l l l x v v n n l v c l v m c q O u e.{ w.x P | X.D s < W.[.E Y.T.7.Y.7.Y.T.2.",
"1.R.4.4.-.5.Y.n.K.T :., g L q...O.| x ( 8 O s m m | | |  .v m F D P o.L  .L +.n D w O 8 ( k P O...q.P g , W.Y.4.Y.4.].c.n.7.5.Y.",
"4.n.6.4.7.6.:.1.4.2.E % 1 a c f g c f g + 0 | | v x.#.#.x.G L L ( +.x.o.B.| ..m | | q O g g g g f v q 1 , 4.c./.6.8./.T.v.1.8.2.",
"Y.6.T.6.Y.K.4.T m.1.7.% = 4 q 0 0 0 q q $ 0 @.| L +.O.O.+.L  . . .X.#. .*.m v L | @.9 $ q q q 0 4 q 4 - , v.K.K.R.E.K.4.Y.K.U.K.",
":.Y 1.7.2.c.K.E.W.2.1., c I M.O.#.*.*.M.0 4 @.| L m m m m  .X.X.O.| m m m L  .| | O.9 9 x.#.#.#.+.M.I c < R.Q U.).T.U.v.U.L.U.K.",
"1.n.1.1.U.U.Y.v.U.4.2., g P *.o.O.#.@.x.9 4 #.O.| m L m G X.O.+.+. .b L m  . .| o.#.4 q x.*.#.O.O.#.P c < l.Q R.E.Y.R.R.7.v.4.T ",
"R.Y.].E.).E.b.E U.U.3.< v I M.O.#.#.*.M.g : #.@.o.o.o.o.o.O.x.x.x.O. .|  .L X...@.*.: j x.*.#.#.O.M.I c < Y.v.Y.).U.K.4.2.4.4.4.",
"! 4.(.T.1.c.7.U.R.Y.E., v I M.+.*.*.*.B.l : #.M.m j L  .G g | Z...j | +.o.D v X.*.#.1 v B.*.*.*.@.M. .v , W.2.E.K.K.K.R.W.6.E.U.",
"].U.v.Y.1.E.R.U.! E.U., v ..M.#.*.*.x.B.H ; #.M.f n  .#. .l j x.f | *.Z.C.o.j v B.#.= H N.x.x.*.#.M.I v , U.4.T.Y.Y.K.W.U.U.Q.^.",
"Y.E.U.R.T.n.).4.2.E.E., b  .B.#.x.M.M.N.I - z.V.g m O.x.O.n n | f o.S.G.D.@.v f M.z.; | Z.x.M.x.#.M...b 2 R.Y.Y.Y.K.4.2.1.7.Y.Y.",
"Q T.E.!.E.v.R.R.R.Y.)., b o.B.z.x.M.M.V...= z.H.g m +.x.O.m n | f +.A.J.G.M.G s B.z.= X.S.M.M.x.z.V.o.b , R.7.v.3.K.2.W.R.6.v.R.",
"U.Y.U.T.T.).E.^././.U., b o.Z.z.=.r.@XXX` = +.D.c D O.M.O.n b  .f X.S.G.D.#.n s A.#.$ ` #X#Xe.*.z.B.o.b % ;.-.,.K.Q Y.T.R.!.T.Y.",
"R.E.).).7.W.T.).^.n.v., b O.Z.M.M.s.g.g.r.= I A.g b o.#.o.v j x.j G *.Z.x.O.g m A. .- r.g.d.y.0.M.Z.+.b - ;.4.-.Q 3.^.K.Y.T.v.U.",
"3.W.E.E.E./.R.).n.T.)., L O.V.N.0.u.f.f.i.= G Z.m g P o.| f c N. .c | +.o.m l x.N.L ; i.g.d.u.0.N.V.+.L , 1.5.'.3.4./.R.].U.l.!.",
"b.).U.E.U.).R.R.T.R.W.3 L #.A.N.x.t.%XoXr.; v  .o.|  . . .m O.z.+.j L o. .v L x. .v - r.#X$Xr.0.N.A.+.L , K.K.6.K.3.`.'.T.!.W.].",
"4.W.U.I.4.Y.).K.E.7.1., L #.A.Z.S.=.a.9.0.9 s I b P o.+.+.+.O.+.o.L o.#.+.G b b P g 4 M.9.p.=.B.N.A.#.L , R.,.5.7.`._.).E.^.Y.K.",
"U.v.^.R.U.Y.E.4.K.U.)., P z.A.Z.=.' ' ' { 8 0 *.#.L v G | | I  . . . .| m b L #.+.0 6 { ' ] ' =.Z.H.z.L < K.3.K.}./.7./.^.`.b.! ",
"T.T.T.v.K.Y.U.c.v./.'., I z.A.Z.=.w.r.e.u.e : @.O.O. .G v v v v c v c c m  .X.+.O.1 e t.e.r.e.9.Z.A.z.I < ^.U.^.~.K.4.T.).4.v.U.",
"(.v.!.W.W.2.Y.K.4.K.K., I z.D.Z.a.y.u.u.d.k =  ...s j | P v c v n c n |  .g s X.| = z g.i.u.y.S.Z.A.z.I , E.^./.K.~.^.^.R.K.R.E.",
"U.2.4.b.Y.U.Y.v.T ,.R.< L z.A.Z.a.f.g.d.h.H $ L O.s q 9 ( |  .X.o.o.| m 0 0 s o.P $ n h.d.g.f.a.B.A.*.L , 7.v.7.R.7.).K.6.K.K.n.",
"3.K.8.m.U.E.K.1.K.K.K., L z.A.N.a.k.k.k..X$.. 4 v m n s a f o. . .X.s w w b m n 4 . $..Xk.k..Xa.B.A.#.L , 7.c.Y.R.c.c.6.R.U.1.K.",
"2.2.Y.E.W.Y.^.Y.`.'.!.< L +.A.x.a..Xk.k.h.S.I = + 9 c G f f  .| |  .f s ( c 9 + ; | S.h.k.k.j.a.N.Z.+.L , 2.n.E.E.v.Q 4.R.U.E.Y.",
"T.'.P./.U.{.`.3.6.Y.U.< b o.A.x.p.s.s.g.u.0.A.V.w # O 9 g b n m n n n j 0 O # w Z.A.=.s.s.s.s.p.x.Z.+.b , K.Y.v.4.2.).K.).E.).v.",
"Y.].^./.~.P.K.K.! 4.K., D O.N.N.9.y.t.t.r.0.x.B.| r.N O + O + O O + O $ O z t.| N.x.C.r.t.y.y.9.x.Z.o.b < c.v.Y.E.K.1.1.Y.Y.Y.7.",
"4.K.).K.^.^.^.7./.v.1., b o.N.M.%.w.w.w.w.&.x.B.( t.oXy & / p ^ / N ~ & y XXy.( B.x.=.w.w.w.w.$.x.B.o.b , v.v.Y.R.3.1.K.U.^.U.7.",
"7.T.].Y.K.I.^.^.^.K.K., b o.M.z.&.' ] ' ' *.x.M.( w.h.~ & ~ g.;X;Xg.~ & ~ h.w.( x.x.#.' ' ' ' $.x.M.o.b , ).U.K.2.! K.4.v.8.n.E.",
"v.Q.7.(./.P.I._.R.Y.^., n ..M.#.x.*.x.*.*.x.*.M.G { w.r.~ o { =X%X'   ~ r.e.%.( x.*.x.*.x.x.*.x.#.N. .b , T.U.Y.K.6.Y.1.4.v.v.Y.",
"R.W.Y.4.^.^.).U.3.T 7.> v  .M.+.*.x.x.x.x.#.#.x.n w.t.w.s.& w.%XoX' & d.w.t.{ F x.#.#.x.x.x.x.*.#.x. .v , 4.1.^.^.K.R.^.K.R.7.! ",
"2.Y.Y.I.E.E.Y.v.4.U.7.< v I M.O.+.*.*.*.*.#.#.x.v w.$Xs.$X5 w.&X%X{ 5 $Xs.$Xw.v x.#.#.*.*.*.*.#.+.x.I v , I.7.3.Q Q R.Y.4.L.K.E.",
"T.U.K././.^.2./.R.Y.c., c P z.O.+.#.*.#.#.+.O.*.x w.@Xs.%X5 { %X$X] 5 @Xu.$Xw.l *.O.O.#.#.*.#.#.o.x.| c , ,.R.7.Q 6.K.4.K.Y.K.3.",
"7.Y.R.E.^.T.2.Y.T.!.T., c P *.O.@.#.@.#.+.O.O.#.x ' r.{ u.* { *XOX` * u.[ t.' x #.O.O.+.+.#.+.O.o.*.P j , Y.K.2.Q L.1.4.R.E.R.v.",
"6.6./.U._.^.Y.T.E.Y.Y.< j L #...O.O.+.+.O.O.o.+.l ^ ` ` ' * w.*X=X{ * ' ' ' ^ x #.O.o.O.+.@.+.O.o.*.L j , 7.3.2.7.4.K.<.^.v.U.P.",
"4.2.Y.K.P.Y./.K.K.4.2.< f L @. .O.o.O.o.o.X.X.O.k ~ ^ ^ _ # w.;X*X] # _ ^ / ~ l O...X.o.O.O.X... .@.L f , 7.v.4.7.1.1.,.6.K.K.^.",
"K.).7.v.^.7.Y.R.R.W Y.< g L #...O.O.@.@.O.X.o.#.x ^ / ^ ^ # [ &X*X{ # ^ ^ ^ ^ x #.X.o.@.O.+.O.O.o.#.L f , 1.,.4.6.6.,.1.3.^.K.R.",
"Y.!.K.E.^.U.c.2.T.2.3.; = : q 9 9 9 9 0 9 9 9 9 e .Xk.h..X5 ' OX%X] 5 .Xg.k.k.e 4 9 0 9 0 9 q 9 9 q : = % c.6.1.;.4.2.v.K.E.[.].",
"E.Y.E.7.K.v.n.2.Y.E 4., : q g f f f f j f f s f x OXoX:X@X& w.%X&X[ & @X;XOXOXx f f s f f f f f s j q : % 2.4.K.4.1.T 4.v.Y.W.Q ",
"b.c.T.K.4.7.^.U.U.! E., f D O.|  ...o.o.X. . .X.( XX.Xk.OX& w.$X%X[ > OXj..XXX( O... . .o.X.X. .| +.G s - 4.-.Y.U.7.K.4.Y.K.4.b.",
"Y.T.2.~.U.U.T.4.4.2.T., w v ..G | | P | | | | | x f.d.w.h.> ` +X*X[ & g.{ f.f.x  .L | | | | | | L  .v a < K.2.K.2.7.K.Y.T.K.W.W.",
"/.K.Y.2.c.c.v.4.U.U.b., q v  .G G L L L G G G | x ] ' s.{ @ w.;X=X[ # { u.] [ k | G G G | L L G G  .v q , 7.K.K.4.P.U.Y.v.Q c.E.",
"v.U.].W.U.].v.2.! 2.W < q c | G P I | | | G G | 9 7 7 5 7 X w.=X*X[ X 7 5 7 7 9  .G | | P | | P m | l q , v.K.R.~.Y.T.7.Q E.Y.2.",
"v.Y.Y.!.!.v.v.4.c.W T., q j | X.F.F. X X|.F.@. .: 3 ;.U R % e.=X*Xw.* J Z A 2 : | o.G.F.|.|.F.F.o.| g 9 , 7.Q Y.n.4.v.v.4.!.v./.",
"n.E.Y.Y.v.7.1.Y.v.c.(., 9 l G G B B.O.X.C.H H G : d /.7.7.3 e.=X*Xw., Y.! l.C 1 G H v V.Y ..M.l G G c 0 , /.3.K.c.Y.Y.b.b.!.4.U.",
"E.E.T.E.b.K.v./.n.(.T., 9 j D H a q.P G C.r l G : B Y.n.).> e.=X*X{ , 2.Y.W.M 1 G g f V.P P x.w H F g 9 , U.7.Y.T.W.c.v.!.2.!.Y.",
"K.E.U.R.L.[.T.7.v.n.U., 4 g G F o.#.B.B.#...D G ; V K.6.^., r.=X*X{ < c.2.b.d : G G O.#.B.B.#.O.n D f 9 , 1.4.b.T.W.W.T.v.T.(.K.",
"K.4.Y.R.7.E.c.!.c.2.K., 4 q P v j v v l j j v P ; M 6.3.L.> r.&X*X{ , 4.1.Y.V = P n g j j v j l v P w 0 , 5.R.v.T./.T.].!.m./.).",
"/.T.!.U.T./.^./.2.T E , : q f n l l l l v l n f $ C L.Y.3., r.&X*X{ , 2.! v.d $ f F v j v j j l n f q : % 2.^.).].v.v.!.n.n./._.",
"v./.T.v.E.K.K.3.P.4.v.E O 1 9 q f s f s s f w = > K.E.Y.K., r.;X=Xe., U.c.c.v., $ q f f f f f f w 9 1 O J ^.^.K.Y.b.7.Y.~./.v./.",
"v.n.2.Y.Y.R.,.K.E.T.v.Y.Y X ; 1 3 : : : : : = % 5.).Y.K.^.> ] OXOX' , 2.1.n.Q.Y., = : : : : : : : : O R Y.n.4.^.K.U.(.!.(.~.2.v.",
"n.2.Y.,.3.3.1.K.4.Y.3.Y.T.R , , , , , > 3 , 2 K.3.Y.'.Y.Y., ` g.h.^ > c.4.T.n.W.c.2 2 - , % , , , 3 R 2.2.4.R.U.R.^.K.n.8.c.m.T.",
"Y.n.l.T.^.c.7.7.2.Q (.R.U.W.c.4.v.E./.4.Y.}.'.^.K.Y.I.U.E.> r.;X=Xw., 4.Q T.b.T.m.n./.Y.U.U.! 3.4./.v.v.4.6.Y.Y.n.4.4.n.4.8.m.^.",
"T.v.W.Y.4.E.v.v.E.U.R.v.! T.v.n.4.K.Y.R.).'.K._.K.I.U.U.E.C * 5 5 * B 1.4.T.T.T.[.c.U.Y.W.R.U.v.Y.T.Y.T.n.n.n.v.K.7.b.b.m.m.8.n."
};
