/* XPM */
static char *character_left[] = {
/* columns rows colors chars-per-pixel */
"64 64 206 2 ",
"   c #0A0707",
".  c #0E0B0A",
"X  c #0C0807",
"o  c #120D0C",
"O  c #180F0E",
"+  c #11100B",
"@  c #1B170F",
"#  c #141414",
"$  c #1E1513",
"%  c #1D1E12",
"&  c #1C1C1D",
"*  c #171718",
"=  c #231714",
"-  c #231C13",
";  c #261B19",
":  c #2B1D1B",
">  c #1F2114",
",  c #242314",
"<  c #292616",
"1  c #25241B",
"2  c #2D221C",
"3  c #2A2B18",
"4  c #32221E",
"5  c #322B1C",
"6  c #2F311D",
"7  c #232424",
"8  c #272828",
"9  c #2B2725",
"0  c #352521",
"q  c #392723",
"w  c #362922",
"e  c #3B2A25",
"r  c #342D2B",
"t  c #3C2D2A",
"y  c #3C302B",
"u  c #3D3C22",
"i  c #2F3031",
"p  c #313233",
"a  c #3D3331",
"s  c #3D3C3C",
"d  c #412E27",
"f  c #422E29",
"g  c #45312B",
"h  c #4A342E",
"j  c #423F24",
"k  c #413532",
"l  c #4C3730",
"z  c #453B37",
"x  c #4E3933",
"c  c #463C3A",
"v  c #4A3C39",
"b  c #503730",
"n  c #533B34",
"m  c #5A3E36",
"M  c #553E38",
"N  c #593F38",
"B  c #3E4126",
"V  c #3E403D",
"C  c #444326",
"Z  c #424529",
"A  c #4A492B",
"S  c #534D2B",
"D  c #4F423D",
"F  c #564036",
"G  c #5A4037",
"H  c #55413C",
"J  c #5C433A",
"K  c #585833",
"L  c #62463D",
"P  c #64493E",
"I  c #684A3F",
"U  c #635C34",
"Y  c #635F38",
"T  c #5F6238",
"R  c #6B663A",
"E  c #6D6B3E",
"W  c #666B3F",
"Q  c #746C3D",
"!  c #7C6E3D",
"~  c #7A703F",
"^  c #70703F",
"/  c #424242",
"(  c #4A4C4D",
")  c #4A4748",
"_  c #524441",
"`  c #544C4A",
"'  c #4D4E50",
"]  c #4F5051",
"[  c #535455",
"{  c #565758",
"}  c #57595A",
"|  c #5A5B5D",
" . c #5C5453",
".. c #654B41",
"X. c #6B4D43",
"o. c #714F44",
"O. c #6E5146",
"+. c #6D554D",
"@. c #725146",
"#. c #74554A",
"$. c #79574B",
"%. c #75594B",
"&. c #7B5A4E",
"*. c #665A57",
"=. c #735B53",
"-. c #7E5D51",
";. c #735F58",
":. c #676C42",
">. c #6E7345",
",. c #6F7549",
"<. c #747443",
"1. c #7B7543",
"2. c #767845",
"3. c #7D7A45",
"4. c #737649",
"5. c #757B4A",
"6. c #7C7D49",
"7. c #7D7648",
"8. c #74635D",
"9. c #7D6259",
"0. c #7B6157",
"q. c #777749",
"w. c #5D5E60",
"e. c #5E6062",
"r. c #626364",
"t. c #666769",
"y. c #67696B",
"u. c #6A6B6C",
"i. c #796761",
"p. c #7E6B65",
"a. c #6D6E70",
"s. c #706F70",
"d. c #6E7072",
"f. c #727375",
"g. c #747679",
"h. c #76797B",
"j. c #797A7C",
"k. c #80703F",
"l. c #876F3E",
"z. c #815D4E",
"x. c #825E52",
"c. c #827542",
"v. c #837B46",
"b. c #8A7C45",
"n. c #827E49",
"m. c #8A7E48",
"M. c #8A7542",
"N. c #846254",
"B. c #8A6455",
"V. c #8A6659",
"C. c #8D6A5B",
"Z. c #876458",
"A. c #916759",
"S. c #926C5D",
"D. c #937B44",
"F. c #836D65",
"G. c #957061",
"H. c #9A7B66",
"J. c #997566",
"K. c #946F60",
"L. c #A17B6C",
"P. c #77824C",
"I. c #7E834C",
"U. c #7D844B",
"Y. c #7D8551",
"T. c #7D8A53",
"R. c #758052",
"E. c #848147",
"W. c #84834B",
"Q. c #8A844B",
"!. c #85894E",
"~. c #8B8A4E",
"^. c #8C8047",
"/. c #91844B",
"(. c #928B4E",
"). c #928147",
"_. c #818752",
"`. c #848C52",
"'. c #8B8C52",
"]. c #918E52",
"[. c #9A8D50",
"{. c #869155",
"}. c #8B9254",
"|. c #8B9459",
" X c #8C9A5A",
".X c #829058",
"XX c #929453",
"oX c #959655",
"OX c #95A15F",
"+X c #AA8770",
"@X c #AA8871",
"#X c #7D7E80",
"$X c #7E8082",
"%X c #828384",
"&X c #858788",
"*X c #87898B",
"=X c #8A8B8D",
"-X c #888788",
";X c #8D8E90",
":X c #8E9091",
">X c #929395",
",X c #969798",
"<X c #97989A",
"1X c #999A9C",
"2X c #9E9FA1",
"3X c #A1A3A4",
/* pixels */
"W.].6.1.1.c.n.W.n.1.1._.n.'.~.W.).c.!.W.'.Y._._.W._.6.c.W.4.v.W.W.I.!.n.W.3.Q.n.n.Q.c.E.I.!.Q.v.1.c.m.v.W. XW.W.U.<.U.b.1.v.c.b.",
"c.Q.U.! m.'.7.5.1.1.m.n.n.W.W.'.!.b.2.3.5.R._.2.T.P.`.U.`.`.I.E.v.v.Q 1.W.W.b.6.3.c.1.b.3.}.Q.v.E.Q.~.3.3.!.U.I.'.'.!.^.W.1.W.Q.",
"n.Q.2.! Q.n.<.4.5.~.v.6.~ `.`.c.E.W.}.U.3.W.5.5.<.n.W.5.|.}.5.`.3.c.1.b.1.1.v.W.~ v.v.2.U.7.E.W.2.l.Q.c.R 6.W.!.b.W.T.Q.W.1.3.E.",
"Q.U.U.Q.2.7.4.6.~.].6.6.n.!.6.!.6.n.I.{.`.<._.2.W._.W.{.`.}.{.!.!.E.m.Q.v.c.n.~.~.!.W.1.>.!.!.1.v.v.3.b.3.}.n.3.3.~.Q.~.b.m.v.7.",
"n.n.c.n.n.<.I.Y._.n._.<.6.7.!.!.v.c.`.!.5.<.T.2.7.R.R.OX'.6.W.^.(.m.n.n.v.E.k.v.~.3.W.!.3.b.c.v.~.v.`.Q.1.oXE.~.W.v.b.'.1.v.E.E.",
"P.7.<.1.6.7.R.,.7.:.:.!.7.! !.E.W.c.3.:.,.<.5.U.5.T.`.`.U.R.~.~.Q.c.M.c.W.].1.k.!.~.!.E.v.E.6.}.^.~ 1.c.Q.W.3.W.W.E.!.1.b.3.~.W.",
"6.`.6.<.2.W.3.3._.6.7.4.2.W.c.W.c.P.I.^ 4.6.3.!.`.{..X4.T.6.!.3.n.!.n.M.Q.~.W.E.~ /.b.3.Q.!.E.Q.~ v.!.7.Q.Q._.3.3.E.oXb.^.}.~.Q.",
"!.n.7._.!.1.7.!.5.7.v.c.3.U.~.b.~ U.3.I.6.3.Q.<.c.[.6..X`.Q.U.<.W.v.m.Q.M.n.~.}.b.Q.XX~.v.v.m./.W.W.E.Q.).Q.1.3.3.b.!.~.3.n.`.`.",
"1.<.W.n.7.<.6.!._.6.<.7.n.Q.W.~.3.v.3.}.^.W.W.W.~.[.5.n.E.U.W.}.E.v.k.1.b.W.W.XXQ.~.!.{.W.b.Q.E.Q.E.v.b.v./.b.E.E.}.XXU.W.~.1.E.",
"c.5.Y.I.<.1.1.2.n.Q.Q.<.1.:.Q b.!.}./.v.}.W.3.b.b. XT.3.`.v.~ Q.Q.7.3.b.v.~.v.Q.(.M.~ U.W.~.E.3.Q.b.Q.b.b.}.(.v.(.W.I.~ 1.1.<.~ ",
"W.6.4.2.W.7.^ 1.5._.2.<.3.U.1.1./.b.^.Q 3.b.!.v.Q U.T.!.2.E.I.3.W.I.E.~.W.3.~ v.D.3.E.E.1.^.~./.m.c.3.~.E.~.(.v.Q.k.!.!.1.n.~ 3.",
"3.n.I.2.K > - - 1 , - - , - , , , > , , , , , < < 1 , , 3 , , - < , < , , 3 3 < < , < , < < , - < < > , , , , < < > , < - K c.W.",
"<.!.!.U . : 0 0 0 w e e e e g : = h h h h b n n n m m G L G L L I I L L L L L m m m n n b b l - 4 h f d d e e e w 0 0 0 2 . S ! ",
"!.5.Y . : q t g g h h x l n G e 2 L G L L I I X.O.o.@.@.$.$.z.z.z.&.z.z.z.I @.@.@.I I X.I P I 4 e I G m F n b l l g g g q 0 . A ",
"<.!., ; 0 g ..J J J P ..X.O.$.h e &.%.&.&.x.x.N.B.V.B.C.A.S.S.K.K.K.K.S.A.A.C.C.C.B.N.N.x.-.N.e l 0.#.O.#.O.O...........J 0 4   ",
"3.n.- : t F x F F J O.J J J ..g 4 @.X.O.@.$.$.&.&.z.z.x.x.B.B.V.A.A.A.V.B.B.B.x.z.&.&.$.$.@.#.w g O.I ..P _ J J F H n x F l 4 . ",
"I.7., : g x l #.d n H.J J P O.g 0 #.O.$.%.%.&.-.N.=.*.8.i.p.p.p.i.8.;.V.9.9.9.-.x.x.-.-.$.$.-.q h %.I L J G n n n h h n x l 0   ",
"E R % : y x x &.9.N.+XJ P P O.h 0 $.O.#.%.-.-.x.&.[ | t.d.h.#Xd.y.e.{ =.t.u.u.r.x.x.x.-.-.=.-.q l P z ` `  .*. .` ` s t x h 0   ",
"2.3.% : f x n B...O.+X..J ..O.g 0 $.#.$.$.-.-.x.-.{ e.t.d.j.j.f.u.e.{ i.>Xf.f.-XF.x.x.x.$.&.-.q h v | f.$X,X3X1X&Xj.u.s g l 0   ",
"!.W.< : g x n B.L X.+X..P ..O.h 0 %.#.$.&.-.-.x.-.[ e.t.d.h.j.a.u.e.{ 8.%Xa.f.%XK.A.V.V.x.x.x.e h _ } y.j.*X<X:Xj.u.r.D g l 0   ",
"Q 3.< : f x n %.C.C.]...J ..X.h 0 $.@.$.$.=.-.z.&. .w.t.a.g.j.j.d.t.} 9.*.t.r.[ X...M b g q 0 $ o 0 e.u.j.=X1X>XT.d.r./ f x 0   ",
"}.E., : g x l @.f F J...J ..X.g 0 @.+.@.$.$.$.-.x.&.=.0.9.F.+.v c r 9 0 ; - $ $ = = ; : : 4 0 0 0 . p f.#X;X1X>X*Xg.e.a g n 0   ",
"E.~.3 = e M M J g F #.L _ ..X.g 0 @.X.+.@.$.$.&.&.N.N.N.A.I X $ - 2 e g n J X.&.z.z.&.-.&.&.=.#...e o 1 H H _ D ) c a l J l ; . ",
"~ Q.W., = y P J J P I ..I X.@.f 4 &.$.$.&.-.x.x.x.N.B.V.C.- 0 L X.#.$.I X.A.S.G.S.V.B.x.&.@.X...I J e . w O.P P ....J ..F ; + E ",
"^.W.E.v.% $ ; : : 2 2 0 z v H c r v l v x x M H _ H _ X.t o M @.O.%.&.m @.M h h l h f N o.X...J M N x 0 + a z g a t t r 9 . :.^.",
"!.!.}.}.~ C C A B C 5 8 { f.$X&X#X( / ( ] w.w.w.w.w.t.t.# 0 J d f #.J I I h N N N N M l @.N N $.x...v q o ] } } { ] ( ( p h E.n.",
"2.E.'.~.~.'.~.~.b.^.W 7 { d.j.%Xg.( ) ] t.=X;Xt.w.g.$Xs o b m d h X.M #.X.I O.%.&.#.o.L o.J N #.&...x 0 + ] [ | w.[ w.[ p C c./.",
"n.'.b.~.I.}.W.U.I.T.R 7 d.| j.3Xg.( ( [ | u.s.e.r./ p o 4 L e q ..J m $.X.@.-.x.x.x.$.X.@.N N #.&...x 0 + w.r.u.#X%Xf.w.i C Q.(.",
"c.Q.U.T.3.E.}.U.!.3.K 7 | g.%X=X#X( ' [ u.;X;Xs./ & & O l f e _ ..b ..$.....o.#.#.@.X.J @.J M $.z.X.b 0 o r.t.%X$Xu.=Xr.i Z !.3.",
"Z - , , , , , > , < % . # & & & 7 # # # * 7 7 &   / ) O M f f ..n b ..$.N h n M M M n l @.@.X.L N n M q . r.t.h.j.f.%Xr.i A v.! ",
"* r.] { r.r.e.r.e.r.e.e.e.[ | e.[ | w.w.w.w.| w.| g.s o N ..@.O.b n ..#.$.b b M n n l ..-.=.+.X...N x q o r.y.r.| r.| | p B v.3.",
"7 1Xg.&X1X<X<X<X<X<X<X<X1X=X=X,X&X>X2X<X<X>X>X<X<X2X( o N ..X.+.b n X.$.-.V.x.X...X.x.C.x.$.@.X...N M q o r.y.| { { [ } p C !.!.",
"7 1Xh.%X<X,X,X,X,X<X<X<X<X<X>X>X,X,X<X1X-X=X>X%X;X2X) o M ..X.@.n n X.@.$.X.f g g g g O.x.&.#...L H M q o w.u.w.w.{ [ } p u n.n.",
"* w.( [ e.w.| | | e.| | | } } } { | } } [ } } [ [ g.c o M X.O.O.b n X.J b b L #.#.+.J b #.O.L #.#.L v q o r.y.w.w.r.w.w.p j 7.6.",
"j % , , , , , , 3 , + . # & & & 7 # # * & & 7 &   / ) o M g g ..n n X.o.L ..-.F.S.K.-.X...N N &.x.X.b q o r.r.#X#Xg.#Xr.p j `.n.",
"_.}.!.~.W. X|.U.2.!.W 8 | f.%X=X#X( ( { u.;X=Xf./ & & # l g e J ..b ..z.@.$.A.J.J.J.K.$.X.L N O.#.L b q o r.t.%X#Xd.;Xr.i A '.3.",
"n.'.`.'.Y.R.5.5.E 6.K 8 u.| j.3Xf.( ( [ | u.a.e.e./ i o 4 J e q X.N N $.o.o.x.J.J.G.x.@...N N x.Z.O.b 0 o w.w.y.j.&Xf.| p B E.6.",
"c.Y.|.W.`.`.!.I.'.v.K 8 { d.#X%Xj.( ) [ t.=X;Xt.w.g.$Xs o n F e b X.N J n N @.&.-.-.#.N L X.L N L L b q o ' ' w.[ ] } { i C W.3.",
"6.Q.].E.2.B Z Z Z Z 6 7 [ f.$X&Xj.( / ) [ | r.| | r.t.r.+ q J t f @.J N L b l v J n l n @.....M O.$.N q o [ w.w.{ [ ' ' p u n.!.",
"v.).3.!., $ ; ; : : : w v v _ c r v k v v x M H _ _ _ X.y o M O.+.$.&.N x.x.N g d f M @.@.....J N N v 0 o a a a k t r t 2 . R !.",
"!.Q.6.% $ g J P J J ........O.d 4 &.#.%.&.&.x.N.N.N.B.B.C.- 4 L X.@.$...X.B.S.A.V.B.V.-.$.@.X.....J e . 5 O.I ..I P P ..x 1 + U ",
"1.W.6 $ e N M J g F %.J J P O.g 0 $.O.#.#.%.$.&.-.-.x.N.A.P X $ = : q g b L o.$.z.z.&.-.&.&.%.%...f o 1 H D _ H v z k g J x : . ",
"^.v., : g n h O.j F +XJ J P O.g 4 #.O.@.$.%.&.-.x.-.;.9.N.F.+.D z r 0 0 : - $ = - - ; : : 4 4 e 0 o p f.#X;X1X>X$Xf.r.a g x 0   ",
"3.!., 1 f x x &.Z.C.H.......O.g q $.@.$.%.$.-.x.-. .| r.a.g.#Xh.a.t.| 9.r.r.r.] X.P F n k e 0 O o 9 e.u.j.=X<X>X%Xs.r./ g l 0   ",
"2.5., ; f x n V.J O.@X..J ..@.l 0 $.$.+.$.&.-.x.-.{ w.t.d.j.j.d.u.w.[ i.&Xa.f.&XC.C.V.Z.x.x.x.f h H { u.j.-X,X;X#Xu.r.c g x 0   ",
"2.7., : g l x V.P O.@XI ....O.g 0 $.@.$.&.-.-.x.-.[ e.t.d.h.j.f.u.r.{ i.;Xa.f.*XZ.x.x.-.-.-.-.q h v w.d.&X>X3X1X*Xg.u.s g l 0   ",
"6.}., : f x x &.N.N.J...J ..@.g 0 =.@.$.$.&.-.x.-.[ w.t.d.h.j.d.y.w.{ ;.t.u.u.e.x.x.x.-.-.$.&.q l L c ` `  .*. .` ) c t l l 0   ",
"E.].> : g x l @.f x J...J ..X.g 0 #.@.+.$.&.&.-.N.+.*.8.i.p.F.p.i.8.;.V.9.9.;.-.Z.x.-.-.&.$.&.0 h #.I J m m n n n n l n l l 0   ",
"~.E.< : e J x M M G O.J J J ..g 4 @.X.@.@.#.$.$.&.x.x.x.B.B.B.B.A.A.A.B.B.B.B.z.x.&.&.$.#.$.$.5 g O.....P J J F F M x x J x 5 . ",
"b.1.< ; 0 g ..J H J P X.X.O.#.h e &.%.&.&.-.x.N.N.Z.B.C.A.A.A.S.G.G.S.A.S.C.V.C.V.B.N.N.0.&.N.e n -.#.O.O.O.O.O.....P ..H w 2   ",
"!.Q.U + 2 q t g h h l l b n J e : L J L I I I I o.@.@.@.$.$.&.&.z.z.z.$.$.$.#.@.@.X.I I I L I 4 d L F F m n b l x g g g q 4 . S ",
"!.I.6.R + : 0 4 4 w e e e e g : = h h l h n n n m m m G G L L P I I L L L L J G m m m b b b l ; 4 h f d d e e q w 0 w 0 4 . S '.",
"v.v.}.m.R < , - - , - , , , - , > > , % % - , , - , < , , , < , , > < < , % > , , , < , , > , , - , , < - , , , , , , , $ K n.1.",
"v.W.W.(.Q.E.W.c.k.~ Q.E.Q.~.1.>.4.3.U.U.7.:.2.,.<.~ '.!.'.5.1.Q.W.v.W.3.R ! 3.W.W.Q.~.1.E.W.1.^ <.W.!.<.1.3.1.W.n.3.v.v.1.].v.'.",
"E.~.!.W.v.3.2.E.v.l.].b.(./.1.I.1.b.E.2.Q.!.<.>.P.<.'.3.7.P.W.3.^ !.W.W.~ 1.E.1.v.~.I.3.v.2.3.1.E I.!.<.n.'.7.U.c.W.U.b.M.).3.E.",
"~.~.Q.Q.^.U.c.`.W.~.Q.E.W.Q.Q.U.c.~.Q.I.c.c.<.I.!.W.~.n. X.X~.^.W.!.I.1.Q.^.I.Q.W.W.~ v.b.v.}.!.~ U.5.<.n.U.6.W.m.Q.v.c.].1.].W.",
"I.Q.W.!.!. X/.6.v.I.E.1.~.E.W.Q.~.E.W.W.W.~.6.!._._.n.5.`.`.~.v.~ U.).b.~ b.v.n.m.1.n.m.W.`.W.].3.I.<.5.7.<.v.m.Q.Q.m.Q.v.~.'.6.",
"U.3.W.!.3.'.c.(.v.3.I.3.3.2.W.Q 3.Q.b.Q.'.6.U.v.3.T.6.2.U.I.Q.~ ^ v.}.3.2.E.~.W.c.1.n.W.n._.Q.Q.b.7.!.I.!.2.`.v.~.Q.^.oX(.m.'.|.",
"'.Q.(.E.Q.'.`.'.~ Q Q W.v.I.3.~ 2.3.Q.1.E.3.U.5.W.`.I.'.2.~.E.v.U.v.Q.~ 1.v.c.7._.Q.Q.n.v.v./.^.3.W.~.>.>.~ '.'.].v.v.(.n.n.'.].",
"n.].W.b.Q.I.U.2.T.3.b.Q.1.!.v.3.v.W.].3.I.1.3.!.T.`.!.!.W.W.3.~.W.!.!.v.1.b.Q.~._.`.|.'.(.m.).Q.b.I.`.4.<.`.`.P.E.Q.3.W._.'.n.'.",
"7.v.1.U.U.!.<.P.~.^.v.!.v.I.E.Q.E.3.W.3.U.v.n.W.P.}.W.R.`.U.W.'.W.W.v.~ <.W.Q.'.!.Q.m.].c.v.v.3.3.T.1.3.E.W.6.`.!.6.].~.].6.1.M.",
"W.1.E.<.2.2.<.Y.3.W.2.W.~.3.Q.Q.!.{.W.U..Xn.W.`.3.!.`.!.W.T.U.I.6.E.v.v.c.Q.m.Q.Q.M.OXc.3.c.6.U.3.{.c.3.1.3.!.n.W.`.W.E.7.n.m.'.",
"_.n.c.~.`.c.3.3.1.1.].!.W.^.k.3.c.~.}.3.!. X{.`.I.!.`.n.~.!.E.}.~.Q.W.6.1.Q.m.m.).W.'.n.^.W.~ 2.3.~.n.b.3.6.E.I.I.3.7.n.1.n.W._.",
"m.c.m.W.3.~.v.E.Q.W.!.b.^ Q.v.W.3.I.!.Q.|.|.W.|.6.T.E.E.~.U.!.~.{.!.n.<.3.Q./.Q.oXc.E.!.Q.~.W.c.~.~.W.W.6.W.n.b.I.3.b.m.m.m.7.n."
};
