/* XPM */
static char *character_up[] = {
/* columns rows colors chars-per-pixel */
"64 64 204 2 ",
"   c #0A0707",
".  c #0C0907",
"X  c #0E0B0A",
"o  c #0B0708",
"O  c #120D0C",
"+  c #180F0E",
"@  c #15140C",
"#  c #141414",
"$  c #1E1512",
"%  c #1E1D12",
"&  c #1C1C1D",
"*  c #171718",
"=  c #231715",
"-  c #221C14",
";  c #261B19",
":  c #2B1D1B",
">  c #1F2216",
",  c #242315",
"<  c #282516",
"1  c #2D221C",
"2  c #29281B",
"3  c #32221E",
"4  c #2E301D",
"5  c #232424",
"6  c #2C2924",
"7  c #272828",
"8  c #2B2626",
"9  c #352521",
"0  c #392722",
"q  c #3B2925",
"w  c #342D2B",
"e  c #3C2D2A",
"r  c #352822",
"t  c #3D302C",
"y  c #3F3C22",
"u  c #2F3031",
"i  c #313233",
"p  c #3D3331",
"a  c #3D3C3C",
"s  c #402D27",
"d  c #422E28",
"f  c #413E23",
"g  c #45312B",
"h  c #4A342E",
"j  c #413532",
"k  c #4C3730",
"l  c #463B37",
"z  c #4E3933",
"x  c #463C3A",
"c  c #4A3C39",
"v  c #503730",
"b  c #533B34",
"n  c #5A3E36",
"m  c #553E38",
"M  c #593F38",
"N  c #3E4125",
"B  c #3F472D",
"V  c #3F403D",
"C  c #414226",
"Z  c #444729",
"A  c #4C4829",
"S  c #53512E",
"D  c #4E423D",
"F  c #594037",
"G  c #55413C",
"H  c #5C433A",
"J  c #564036",
"K  c #5A5833",
"L  c #4C5230",
"P  c #62463D",
"I  c #64493E",
"U  c #694D3F",
"Y  c #615D35",
"T  c #5C653D",
"R  c #6B653A",
"E  c #6D6B3E",
"W  c #65663A",
"Q  c #746C3E",
"!  c #7C6E3E",
"~  c #71673B",
"^  c #7A713F",
"/  c #75703F",
"(  c #424243",
")  c #4A4C4D",
"_  c #4A4748",
"`  c #524441",
"'  c #544C4A",
"]  c #4D4E50",
"[  c #4F5051",
"{  c #535455",
"}  c #565758",
"|  c #57595A",
" . c #5A5B5D",
".. c #5C5453",
"X. c #654B41",
"o. c #6B4D43",
"O. c #6E5146",
"+. c #6F5248",
"@. c #715146",
"#. c #74554A",
"$. c #78574B",
"%. c #75594B",
"&. c #7B5A4E",
"*. c #6C5A54",
"=. c #605856",
"-. c #735B53",
";. c #7E5D51",
":. c #735F58",
">. c #6D6D42",
",. c #676A43",
"<. c #716D41",
"1. c #796F40",
"2. c #6E7445",
"3. c #6B7548",
"4. c #747444",
"5. c #7B7442",
"6. c #767946",
"7. c #7C7A45",
"8. c #737648",
"9. c #757B49",
"0. c #7C7D49",
"q. c #7D7649",
"w. c #74635D",
"e. c #7D6259",
"r. c #7B6157",
"t. c #5D5E60",
"y. c #5E6062",
"u. c #626364",
"i. c #666769",
"p. c #66696B",
"a. c #6A6A6C",
"s. c #676867",
"d. c #796761",
"f. c #7E6B65",
"g. c #6D6E70",
"h. c #706F70",
"j. c #6E7072",
"k. c #727375",
"l. c #747679",
"z. c #76797B",
"x. c #797A7C",
"c. c #80703F",
"v. c #815C4E",
"b. c #825E52",
"n. c #827542",
"m. c #837C46",
"M. c #8A7C45",
"N. c #837E49",
"B. c #8A7E49",
"V. c #846254",
"C. c #8A6455",
"Z. c #8A6659",
"A. c #8D6A5B",
"S. c #876458",
"D. c #916759",
"F. c #926C5D",
"G. c #846D65",
"H. c #957061",
"J. c #9A7B66",
"K. c #997566",
"L. c #946F60",
"P. c #A17B6C",
"I. c #7D824B",
"U. c #7F894E",
"Y. c #7E8551",
"T. c #7D8A52",
"R. c #768352",
"E. c #858047",
"W. c #8C8047",
"Q. c #83834B",
"!. c #8A844B",
"~. c #84894E",
"^. c #8B8A4E",
"/. c #928A4E",
"(. c #93864C",
"). c #828651",
"_. c #848C52",
"`. c #8B8C52",
"'. c #918E52",
"]. c #8B9255",
"[. c #8C965B",
"{. c #8B985B",
"}. c #879356",
"|. c #929253",
" X c #959858",
".X c #93A05E",
"XX c #909D60",
"oX c #AA8770",
"OX c #AA8871",
"+X c #7D7E80",
"@X c #7E8082",
"#X c #828384",
"$X c #858788",
"%X c #87898B",
"&X c #8A8B8D",
"*X c #888788",
"=X c #8D8E90",
"-X c #929395",
";X c #969798",
":X c #97989A",
">X c #999B9C",
",X c #8E9091",
"<X c #9E9FA1",
"1X c #A1A3A4",
/* pixels */
"Q.'.0.5.7.n.0.!.0.n.5.Q.Q.`.^.E.M.m.Q.E.`.Y.Y.).Q.Q.0.7.Q.N * 5 5 * Z E.I.7.^.m.Q.E.n.W.I.~.Q.N.1.7.M.n.Q.].E.I.~.4.I.E.7.B.n.M.",
"n.!.I.! B.'.7.9.q.1.B.N.N.E.I.`._.B.4.7.9.9.).9.T.R._.I._.> y.>X<Xu.% m.Q.E.M.I.n.c.q.N.0.~.E.M.E.!.^.0.0.~.U.I.^._.~.Q.E.5.B.Q.",
"N.(.6./ B.0.<.8.9.^.q.N./ 2.2 , > , , , , , 2 2.4.I.E.9.}.< ) z.k.[ % c.^ ^ 7.E.~ 2 , > , , , , % , ~ n.R 0.E.Q.m.Q.~.W.Q.5.7.E.",
"!.I.I.!.q.0.8.0.^.'.9.0.W X : : : : : : : : * % 9.Q.Q._._., { $X$X} , !.7.m.E.E., $ : : - : : : : : X R 7.[.E.0.m.^.W.`.M.B.m.7.",
"7.N.n.N.I.4.I.T.).Y.).Y O 1 r s g s g g g g e % - 9.9..X`., y.>X>Xu.- N.7.E.Q % $ e g h s s e h s r : O Y |.m.`.Q.m.N.^.q.n.Q.E.",
"I.7.4.q.0.q.R.8.q.W ,., 1 0 d M z z z v z b F t $ B T._.Y.>  .;X:Xu., n.E.'.y = g M z z v b z z m g q : , Q.0.E.E.m.^.7.m.m.^.Q.",
"I._.N.<.6.E.7.7.Y.0.q.> 3 e X.z k z b b z h J I ; Z _.8.T.,  .:X>Xu., M.E.!.C - X.b k z v m v z b I s 1 < !.I.7.7.E. XE.!.].^.!.",
"Q.0.9.!.Q.7.q.~.0.q.m.- 9 h H m #.%.C.Z.%.#.H H ; A 9.T._., t.:X:Xy., !.n.M.C : H F #.&.Z.Z.$.#.m H h 9 < !.5.7.m.E.Q./.5.E.~._.",
"q.4.Q.E.8.5.0.Q.Y.0.4., r h F b s V.I I A.f h H : A 0.7.m., t.:X>Xu.- c.n.W.N : H h g A.P I V.s b F h r , /.M.E.E.].|.I.~.^.7.0.",
"7.9.Y.I.q.7.5.9.Q.Q.Q., 9 h H H v S.O.O.A.b J I : L T.0.`.- t.:X>Xy., N.m.^.Z 1 I b A A.O.@.V.A H P h r , ^.^.N./.Q.0.4.5.n.4.! ",
"N.0.4.4.E.9.Q 5.9.N.9.- 0 z X.+.J.J.OXOXJ.J.#.X.: 4 T T K @ t.-X>Xu.@ E Y Y 2 : o.#.J.J.OXOXP.J.+.X.h 0 < ^./.m.^.n.~.^.5.M.^ m.",
"0.E.I.4.q.9.5.Q B.).3.- q z X.H P X.X.X.X.I H X.r 7 7 7 7 X t.;X:Xt.X 6 5 7 7 9 o.P ` X.X.I I X.H o.v q , 7.!.'.^.5.E.!.!.I.N.!.",
"4.I._.^ 4.4.~ q.N.<.4., q b o.H H ` P P P H P X.x } } g. .# } :X>Xt.#  .g.} } x I H H P X.H H ` G O.z q , N.m.m._.E.4.M.N.5.m.! ",
"Q.0.q.m.5.<.8.!.>.4.0.% q m O.H X.X.X.X.X.P P X.c j.j. .k.5 } :X&X{ & l. .g.k.c X.I P X.X.X.X.X.H O.m q , W.|.~ Q.!.0.Q.0.Q.!.q.",
"/ ~.7.7.<.8.Q.m.I.E >., g F #.o.o.O.O.o.o.o.o.@.` +X+Xx.#X& | -X&X .> #Xz.+X+X` @.o.o.o.O.o.O.O.o.#.F h , W.Q.n.I.7.|.n.0.7.8.E.",
"0.0.7.0.9.9.<.4.0.5.Q % 1 0 h g g g h h h h h d x $X#X1X&X&  .-X;Xt.& =X1X#X$Xx d h g h h h h d g h q : - m.7.`.9.7.^.Q.M.q.9.5.",
"Q.9.!.9.Q.m.0.E E.4.0.% = : 0 3 r r r 0 r 9 r 3 w +Xz.k.+X5 } -X$X{ 5 +Xk.z.+Xw 3 9 9 9 9 9 9 9 3 0 1 = , m.I.I.~.(.I.7.~.E.Q.I.",
"Q R 4.7.5.5.I.^.W.5.4., h P &.@.#.$.$.$.#.#.@.$.c ) ) ) ) # | :X-X .# ) _ ) ) c $.#.#.#.$.$.$.#.@.&.P h < Q.^ E.].~.E.I.E.I.E.I.",
"4.E.6.4.E.E.Q.N.E.7.5., h P #.o.@.#.#.#.#.O.@.#.k ( _ ) ] #  .:X<Xt.# ] ) _ ( l #.O.O.#.#.#.O.O.o.#.P h < 7.^ I.^.~.~.E.m.m.6.E ",
"~.Q.].^.`.^.M./ E.m.6.< h P &.@.#.#.#.#.#.#.@.&.c _ { { { * | >X:X .* { { { ) z #.#.+.#.$.$.$.#.@.&.P h < E.E.~.^.I.E.7.4.7.7.7.",
"Q 7.'.!.4.m.n.Q.~.E./., v I ;.#.$.$.&.$.#.$.#.&.c { i. .a.* ] %X:X .* a. .i.{ c &.#.#.&.$.$.&.#.@.&.P v < W.^ ^.~.6.I.~.!.I.Q.E.",
"|.E.E.Q.6.~.~.E.4.^.E., v I ;.#.$.&.;.;.&.$.#.;.c t.&Xa.=X5 } =X:Xt.5 =Xa.&X .b ;.#.$.&.;.;.;.$.#.r.U v , E.I.W.E.I.E.W.E.E.(.`.",
"~.^.E.~.!.m.].7.6.^._.< b U b.#.;.;.;.;.;.&.&.b.m t.=Xg.=X5 | -X;X| 5 =Xg.=Xy.c b.$.&.;.;.;.;.&.#.v.U v 2 ~.Q.Q.~.I.0.^ 4.0.I.E.",
"^ !.^./.^.0.~.~.Q.Q.'., b o.V.$.;.;.b.b.b.&.&.b.M | i.y.g.& { $X;Xt.& h.y.i. .G b.&.&.b.b.b.b.;.&.V.o.n < ~.0.m.6.I.6.W.~.9.m._.",
"E.E.E.W.Q.].^._.`.~.E.< n U C.&.;.b.;.;.;.b.&.V.F t. .u.(   [ =X:X| o ( u. .t.M b.&.v.&.V.;.;.b.&.C.o.n - ,.>.4.I.6.Q.W.~.^.W.W.",
"~.^.].].E.W.^.'._.N.m., n @.C.v.*.{ ..{ { ;.V.V.G y.z.( & ( l.<X<Xl.( & ( l.u.` V.V.;.{ { { { *.v.Z.o.n - ,.9.E ^ 6._.I.Q.^.E.E.",
"7.E.^.^.^.`._.^.W.!.]., n @.Z.v.*.t.t.t.t.-.V.C.G i.#Xu & _ a ) ) a ( & u +Xi.H S.V.-.t.u.t.t.*.b.C.@.F , q.3.}.6.7.`._.|.M.5.(.",
"B.].E.^.I.].~.~.Q.Q.E.2 F #.A.v.d.p.i.i.u.r.V.C.o.u.V O + O + O + + + + # V i.o.C.V.r.s.s.s.i.w.b.A.@.F , I.I.0.7.0.{._.!.^.W.|.",
"7.W.I.U.7.Q.].I.^.0.4., H #.Z.C.d.g.g.j.g.e.D.A.t # O r h b m M M M m z 9 O # e D.D.e.a.j.j.j.d.C.A.#.P , ~.2.6.9.{.{.[._._.~.7.",
"I.n.`.~.E.Q.'.^ I.Q.].< P &.D.C.f.l.l.l.l.G.o.= O r b H g h X.X.X.o.d d H z r O = U G.z.z.z.z.f.C.D.#.P < I.4.R.XX`.I._.}.[.N.^ ",
"!.!.!.N.I.Q.E.7.m.`.}., P $.F.C.f.+X+X+X+X*.o 3 b H J q q h O.o.o.O.g q q m H b 3 . *.x.x.x.x.f.C.F.v.P < ~.I._.).I.q.W.].0.m.E.",
"'.m./.W.W.5.Q.I.7.Y.0., P v.F.D.f.j.j.j.z.` + P #.e q r G X.O.O.+.O.I H 0 q e #.P $ D z.k.k.k.e.D.D.v.P < ^.~.`.N._.).`.~.E._.^.",
"E.6.9.M.E.E.I.E.2.4.~.< U v.L.D.d.p.g.p.h.c = o.+.d v o.P b v b b b n X.X.k d O.O.= l a.a.a.p.d.D.F.v.U , 0.m.0.~.7.].I.4.R.I.N.",
"7.E.5.W.I.^.E.q.I.6.U.< U b.H.D.w.t.u.t.i.w : @.$.+.o.M v b b b b b b v n o.#.$.#.: w s.y.s.y.w.F.L.v.I , 0.m.E.Q.m.m.7.U.B.5.I.",
"q.6.E.`.!.Q._.Q.{.}.^., P v.L.D.:.{ { {  .9 0 $.&.P b M P o.o.o.X.X.X.X.n b M ;.&.0 9  .{ { { :.D.F.v.P , 6.I.^.^.N.^ 0.~.Q.^.E.",
"!._.Y.^.E.XX}.0.6.Q.E., P $.F.C.S.:.d.d.e.9 h X.M b P $.&.+.P #.$.#.$.$.&.@.X.M P g 9 e.w.d.w.Z.D.F.v.P , m.~.n.0.^ ].I.}.^.`.m.",
"E.'._.].).R.I.I.Q 0.6., P $.D.C.e.u.-X%Xi.; v @.b.P b o.+.P b $.v.#.n X.o.o.X.@.o.n = u.$X-Xp.b.C.D.$.P < c.E.Q.^.I.4.4.Q.Q.Q.0.",
"7.Y.].I._.T._.0.].m.5., P $.D.C.e.p.k.g.i.= H b.b.v M @.$.X.k o.b.v h X.@.X.h n F.n ; s.j.j.a.S.C.F.$.P , m.m.E.U.6.4.0.E._.E.0.",
"7.!.|.E.E.T._._.~.I.T., F #.A.V.;.a.k.k.u.= o.L.b v +.S.D.;.P g b.b m @.&.@.n g F.o.= u.k.j.g.:.b.A.$.n , ].Q.0.6.^ I.0.m.6.E.^.",
"0.(.7.|.`.R.}.{.Q.Q._., n #.C.V.:.y.%X#X' $ v.F.d m -.H.K.D.+.d o.M m #.b.$.M k H.$.$ [ #X&Xi.:.b.Z.@.n , W.E.~.U.4.E.4.m.n.N.~.",
"~.!.Q.0._.`.}.E.6.E 0.> n @.C.;.b.b.b.G.@.= b.C.d P b.K.P.D.-.h X.m m $.b.$.P k F.$.; +.L.b.b.b.;.C.@.n , 0.4.~.`.I.~.T.I.U.0.^ ",
"6.B.Q.U.^.!.~.m.I.E.m., n o.S.&.b.b.b.L.X.= b.S.d b -.H.K.L.@.d o.b m +.b.#.M g D.b.; P D.b.b.b.&.C.o.n , T.0.6.6.! ~.~.7.~.U.W.",
"!.M.I._.}.`.5.`.U.Q.M.< b o.C.&.b.b.;.Z.n = &.C.b k #.b.Z.;.P j b.k v o.$.o.m g b.v.= G S.b.b.;.&.S.o.b , 2.~.0.^ 9.0.7.I.~.I.6.",
"7.Q._.^.).W.4.E.Q.(.Q.< v U V.%.b.b.;.S.z : ;.b.@.b H o.$.X.b o.L.X.h P o.P k M b.&.: b S.;.;.;.%.V.o.b , E.I.q.^ E.4.0.~.^.~.m.",
"4.0._.E.[._.Q.W.^.Q.Q.< b X.b.#.&.&.&.V.h : &.&.o.@.P o.o.X.#.b.;.&.#.+.+.o.@.@.&.&.: h V.;.&.&.#.V.I v , N.9.5.0.0.I.,._.0.m.Y.",
"7.7.Q.I._.Q.`.I.I.0.^ < h I ;.#.$.%.&.V.r 3 &.#.o.X.o.M X.H o.$.$.$.#.H H H M o.#.&.: q b.$.$.$.@.r.U h , 9.n.0.9.4.6.2.9.I.I.~.",
"I.].0.E._.7.E._._.Q W., v U V.#.&.;.&.S.r 3 %.o.X.X.P M M M X.+.+.+.o.G M M M P o.$.9 9 V.&.;.&.#.V.U v , 4.4.7.9.9.2.4.4._.I._.",
"W.`.I.^.~.N.7.q.W.5.9., = 3 q 0 r 0 q q $ r #.I X.b M b.o.&.@.X.o.o.P #.$.@.$.P X.#.q # e q 0 0 0 q 3 = % n.9.4.E 0.4.E.Q.^. X|.",
"^.E.`.7.I.N.N.5.E./ 7., 3 q b g h v h h O 0 X.X.M o.X.b.@.b.$.X.X.X.n b.&.&.b.m X.P 0 + h h v h h v s 3 % 7.q.Q.q.4.Q ^ E.E.E.^ ",
"M.7.!.I.7.0.^.E.E./ !., h P &.O.$.P c ` 8 X d M m &.X.@.H o.X.M n M m X.X.X.X.M M d O 8 ` c P $.o.r.P h , 7.E Q.E.0.I.6.Q.I.m.W.",
").^.5.).0.m.W.7.7.7.W.< g F #.X.P c t.| y.p X e b M b v z b z m b b b z v v b c q O i y.| t.c P I #.F s , I.6.I.4.m.I.Q.^.0.E.W.",
"`.I.E.5.7.n.E.0.I.E.N., s J #.I H ' j.i.a.k.: o 9 9 0 9 0 9 9 q q 9 q 9 0 0 9 9 o : l.a.a.j.' P I #.F s , m.I.I.0.I.Q.Q.m./ m.^.",
"m.N.|.W.E.|.m.5.! 5.! < q n O.I n ' $X+X+XT.D r O O X O O O # X O O O # X O O X q ` +Xz.+X@X' n I O.J s , m.I.~._.N.!.0.^ ^.B.5.",
"0.W.~./.!.E.E.n.c.! !., q J O.H m ..-X&X-X,XD O.p { ] t.i.y.t.u.t.u.y.t.t.[ { p O.` &X&X%X;X..n H O.J q - 0.^ Q.0.7.N.0.7./.N.`.",
"N.^.Q.Q.m.0.4.Q.m.m.'.< 0 b O.G b =.1X;X<X<XG I j t.[ t.p.u.p.g.a.a.p.p.u.[ | k X.` <X:X:X1X=.b H O.b 0 , ^.6.I.n.!.E.M.M.(.7.E.",
"!.^.W.^.W.I.m.`.Q.(.^., 0 z O.H c { <X=X-X=XG I p t.t.i.+X+Xt.t.t.t.z.#Xa.t.| j I c -X-X=X>X..b G O.z 0 , Q.0.Q.W.W.7.M./.5.'.E.",
"E.^.Q.~.I. X!.0.n.I.E., r h X.F b ' %X+X#X#Xc I p } ] +X[.x.y.| { t.z.+X+X} { j I c #X@XT.=X' b F X.z 9 , 4.0.M.Q.W.W.!.M.!.`.I.",
"I.6.Q.~.0.^.N./.5.q.E., 9 h X.J v _ z.a.h.k.l I i { ] +X+Xk.s.} { u.z.a.*X{ { e I l k.h.g.+X_ v J I h 9 , 6.~.m.^.`.!.|./.B.`.].",
"`.!./.E.W.].^.^.5.~ Q , 6 h X.z b x p.u.u.u.p I p ] } +X+X+Xy.{ { t.+X&Xz.| ] e I j u.u.y.p.a k b X.h 6 % 5.~.`.`.B.7./.N.N.`.[.",
"N.`.E.M.^.I.I.6.T.7.N.< 3 g o.z v s a x ( p h I w ) { t.i.i. .| |  .u.u. .} ] w X.j p V ( a e b z X.g 9 % `.}.I.W.W.0.I.).`.m.`.",
"n.m.5.I.Q.~.4.R.^.W.m.> 1 q F G z z d d t g H z 8 i i i u u i i i i u u i i i 9 v X.d h d d z k G H q 1 > E.6._.I.E.'.!.'.N.5.m.",
"Q.q.E.4.6.4.2.I.7.I.6.S X 9 r z z j z z k J z ; O g Z y C C N C N C y y f f f O ; k z z v z k k z r 9 X A n.~.E.~._.I.B.q.m.B.^.",
"Q.Q.n.!._.m.7.0.5.^ /.^.S X 3 9 9 9 9 9 3 r : @ E ).T.N.^.~.E.}.^.W.Q.0.^ !.M.~ @ ; 9 9 9 9 9 9 9 1 X S 7.9.N.Q.0.0.7.N.q.m.N.`.",
"B.m.E.Q.7.^.m.m.^.Q.~.0.Q S . o       . . . X 4.I.R.N.N.~.I.I.^.~.~.N.Q 7.!.B.Q.6.X o     o     X o S E.0.N.Q.N.E.0.M.B.B.B.q.0."
};
