/* XPM */
static char *exit_64[] = {
/* columns rows colors chars-per-pixel */
"64 64 212 2 ",
"   c #010F03",
".  c #011403",
"X  c #031C03",
"o  c #0B1F05",
"O  c #052203",
"+  c #0A2304",
"@  c #052A03",
"#  c #0D2A03",
"$  c #0E2409",
"%  c #0E280A",
"&  c #112501",
"*  c #112E03",
"=  c #11260B",
"-  c #142A0C",
";  c #033302",
":  c #023B02",
">  c #0D3902",
",  c #133302",
"<  c #153A03",
"1  c #1C3D02",
"2  c #1A3409",
"3  c #1A2E11",
"4  c #172C10",
"5  c #1D3212",
"6  c #223313",
"7  c #253915",
"8  c #293A17",
"9  c #2D3D1B",
"0  c #273A18",
"q  c #303D1C",
"w  c #014C01",
"e  c #094402",
"r  c #1D4302",
"t  c #1A4702",
"y  c #015401",
"u  c #005E00",
"i  c #0B5301",
"p  c #165801",
"a  c #204602",
"s  c #234C02",
"d  c #255202",
"f  c #265903",
"g  c #2A5B02",
"h  c #295503",
"j  c #305C01",
"k  c #34411E",
"l  c #2E401A",
"z  c #016300",
"x  c #0B6300",
"c  c #026B00",
"v  c #0C6C00",
"b  c #126A00",
"n  c #1C6C00",
"m  c #146700",
"M  c #007300",
"N  c #007E00",
"B  c #1C7200",
"V  c #1A7C00",
"C  c #2C6402",
"Z  c #276901",
"A  c #326B03",
"S  c #3D6E01",
"D  c #257400",
"F  c #2B7300",
"G  c #2B7D00",
"H  c #327302",
"J  c #397A01",
"K  c #364620",
"L  c #3A4723",
"P  c #3D4C25",
"I  c #447D01",
"U  c #444C26",
"Y  c #46552C",
"T  c #4B542B",
"R  c #44552B",
"E  c #54592E",
"W  c #585D2F",
"Q  c #4F5D30",
"!  c #535C32",
"~  c #5B5D33",
"^  c #615F38",
"/  c #5B6334",
"(  c #5E663C",
")  c #6B663C",
"_  c #646C3B",
"`  c #6D6C3D",
"'  c #65653A",
"]  c #736D3E",
"[  c #7B6E3E",
"{  c #6D723F",
"}  c #73703F",
"|  c #7B703F",
" . c #676B42",
".. c #6B6D42",
"X. c #676741",
"o. c #716D41",
"O. c #7A6F40",
"+. c #6E7345",
"@. c #6E7449",
"#. c #697746",
"$. c #747444",
"%. c #7B7543",
"&. c #757945",
"*. c #7C7A46",
"=. c #737549",
"-. c #757B4A",
";. c #7C7D49",
":. c #7D7649",
">. c #757F51",
",. c #80703F",
"<. c #837542",
"1. c #837C46",
"2. c #8A7C46",
"3. c #837E49",
"4. c #8A7E48",
"5. c #8A7643",
"6. c #937B44",
"7. c #028100",
"8. c #0B8500",
"9. c #038900",
"0. c #0C8900",
"q. c #138A00",
"w. c #1B8D00",
"e. c #178500",
"r. c #1D9100",
"t. c #248C00",
"y. c #2F8400",
"u. c #3C8401",
"i. c #3A8901",
"p. c #249200",
"a. c #2C9600",
"s. c #2C9A00",
"d. c #309500",
"f. c #3B9101",
"g. c #349A00",
"h. c #3B9D00",
"j. c #33A200",
"k. c #3CA300",
"l. c #3FAC00",
"z. c #418C01",
"x. c #488901",
"c. c #419401",
"v. c #489900",
"b. c #549301",
"n. c #519D01",
"m. c #5A9901",
"M. c #518A01",
"N. c #44A200",
"B. c #4CA500",
"V. c #4DAB00",
"C. c #46AA00",
"Z. c #52A700",
"A. c #53AA00",
"S. c #5CAD00",
"D. c #5AA101",
"F. c #4CB400",
"G. c #53B500",
"H. c #5CB500",
"J. c #55BB00",
"K. c #59BD00",
"L. c #63AE00",
"P. c #63A200",
"I. c #64B200",
"U. c #6BB500",
"Y. c #62BD00",
"T. c #6DBC00",
"R. c #72B600",
"E. c #73BB00",
"W. c #5BC400",
"Q. c #5EC900",
"!. c #64C300",
"~. c #6CC600",
"^. c #62CB00",
"/. c #6BCB00",
"(. c #72C700",
"). c #7AC400",
"_. c #74CA00",
"`. c #7ACD00",
"'. c #6ED100",
"]. c #74D200",
"[. c #7CD400",
"{. c #7DD800",
"}. c #76814C",
"|. c #7D824C",
" X c #7F884E",
".X c #7C8551",
"XX c #7D8A53",
"oX c #758052",
"OX c #81D700",
"+X c #84DA00",
"@X c #848047",
"#X c #8A8047",
"$X c #83834B",
"%X c #8A844B",
"&X c #84894E",
"*X c #8B8A4E",
"=X c #91844A",
"-X c #928A4E",
";X c #95884B",
":X c #828651",
">X c #848B52",
",X c #8B8C51",
"<X c #918E52",
"1X c #9A8D50",
"2X c #869154",
"3X c #8C9254",
"4X c #8B995C",
"5X c #89945A",
"6X c #929252",
"7X c #959757",
"8X c #A09351",
"9X c #97A25F",
/* pixels */
"$X<X;.%.%.<.1.%X*.<.$.%X$X*X,X$X=X<.&X$X3X.X:X:X&X:X;.%.$X&.1.%X3.|.&X$X$X*.%X3.3.%X<.%X|.&X%X1.%.1.2.' k = O = P $.;.%X%.1.<.2.",
",.*X|.[ 4.,X-.-.*.O.4.3.3.$X$X,X*X2.$.%.&.oX&X-.XX-.XX&X3X>X|.$X1.1.} <.$X3.4.;.1.,.%.1.*.,X%X<.$X} 8 X X . . . O 8  X@X3.<.3.$X",
"4.%X&.| %X3.o.=.-.,X:.3.| &X&X:.$X$X3X X*.;.-.-.$.;.$X;.5X2X}.&X*.,.%.<.%.%.1.@X| 1.1.|.|.%.@X%XW $ X . X 2 s , . X U %X$X<.1.$X",
"%X|.|.%X:.;.=.-.*X<X;.;.@X&X|.&X;.*.|.2X2X%.&X=.$X$X$X2X>X3X>X&X&X$X2.%X,.<.$X*X*X&X|.&.#.&X&XE X . . j L.`.OXOXI . O { 2.3.5.*.",
"*.3.5.3.;.$..X.X:X:X:X$.*.%.&X,X<.@X>X&X-.$. X-.-..X.X9X,X-.$X%X-X#X$X1.1.@X,.1.&X|.@X*X%.1.' O . + b.+XOX[.).).+Xg . 5 $.<.&X$X",
"|.*.$.$.;.%.|.@.:.X...$X%.O.&X@X@X%.%. .@.$.-.|.=.XXXX,X.XoX%X*X%X,.5.:.&X6X*.,.*X%X&X,.<.} $ . * U.OX`.`.E.R.R.).b.. O U <.&X$X",
"|.>X3.O.-.$X*.*..X;.%.-.&.@X1.3.1.;.|.` =.;.*.&X,X>X>X=..X*.&X@X1.&X2.<.%X<X1.$X,.=X@X,.$X5 . * T.[.`.`.R.R.R.E.E.P.X X + |.%X%X",
"$X;.-.:X%X:.*.&X-.;.3.,.;.|.*X4.| $X*.|.|.*.%X$.1.1X>.>X2X$X|.$.&X1.4.%X5.3.%X3X2.*X6X*X8 X + U.[._.(.U.U.R.T.U.E.P.O X X K %X>X",
":.o.$X3.%.$.;.:X:X;.$.:.$X3.&X$X*.3.*.,X@X$X$X$X,X1X-.3.@X$X$X3X%X1.,.%.1.%X$X6X*X*X&XU X X D.[._.(.L.U.U.U.U.U.E.M.X # X X _ 3.",
"1.-..X|.%.*.%.-.4.%X%X:.:.] ] 4.*X,X-X2.3X%X1.#X@X4XXX;.2X%.*.%X%X%.<.3.@X*X1.*X=X2.T O . M.{._.(.I.U.U.I.U.U.U.E.j . t X X 9 O.",
"3.;.=.&.$X-.O.O.-..X-.o.;.;.%.%.;X1.@X] *.1.,X<.] $X.X%X$.@X|.;.$X$X$X*X$X%.*.|.6.) + . J [.(.(.I.L.I.U.U.I.U.U.P.* . g # X + $.",
"*.@X$X$.$.-.%.O.4.:X@.$.&.1.$X%X%X;.*.*.;.*.|.$X%X*X&X*.3X|.$X$.@X1.2.%.&X&X$X1X%X-   h ].(.(.I.L.I.I.I.I.L.I.L.I   o A r . X E ",
"$..X&X| $.$.) %.1.=.%.-.+.%..X:X%.%.+.;.|.*.@.&X$.|.@.&.|.*.;.&X}.&X*X%X%.-.<.<.k . 1 ~._.~.I.S.L.L.H.L.I.I.L.b.<   < H f X X 6 ",
"&X;.%.1.%.o.$.%X..$.;.=.] ;.|.` +.$X&.&.-.-.;.$X>X*X$X}.;.&.*..X*.3X*X$X%.4.1.U X + I.`.~.I.A.S.S.S.L.S.S.S.D.j . X f A A , X $ ",
"$.%X*.-.o.=.$X3.|.` ..$.o.;.*X&.;.%X*.$.1.&X.X..&. X&X2X}.&.&X&X|.#X1.[ | #XW X . n.].~.Y.A.S.S.S.S.S.S.S.S.x.+ . < A d H < . X ",
";.3.*.*.-.-.o.$.*.%.] ..+.&.,X;.$X&X;.+.$X;.#.;.) @.-.&.=.3.$X%.$X@X$X&X} { + . J [.~.Y.Z.A.A.S.A.A.S.S.S.b.r . X C h d A O X = ",
"|.-.%X-.$X@X;.` 3.%.*.$.$.>X*.@X*X@X..' |..X-.1.;.>X%.-.3.,X;.*.=.$X3...$.- . g ].(.Y.Z.A.A.A.A.A.A.S.A.Z.A X . t C s h d . X U ",
"] ) $.*.%.%.|.*X%X%.%.} &.,X6X-X1.&X-.^ :X.X4.2.3.$X-.;.|.*.>X*...-.) $.6 . r ~.~.Y.B.V.B.Z.A.Z.A.A.A.Z.x., . + C s s g # X - -.",
"$.1.&.$.$X$X$X1.@X*.%.;.|.$X&X%X*.#.$.' $.|.%.*.3.) ......X.-.&.$X$.|.k . # H./.!.V.N.B.B.Z.B.V.V.A.A.v.f . . d g s d t X X ! ` ",
"&X$X6X,X*X*X2.] 1.$X&.%X1.%.@X$X@X1.$.@.-.-.3.%X>Xo.o.=.*.|.,X|.$X;.T X X n._.!.A.N.B.B.B.B.B.B.B.A.v.S + . < C s s d + X 6 *.%.",
"| *.*X*X%.<.|.@X&X$X-X%X1.%.*X2.|.;.|.) X.@.&X&X:.-.$.;.|.*.&X*.1./ O . x./.!.F.v.N.N.B.N.B.B.B.B.B.u.t . O f d s h , X X _ %X;.",
"3X@X@X@X$.&X&X1.$.*X@X1.3X;.*X8X%.&.;.} X.;.$.@...-..X*...&.@X6X{ O   C /.!.G.v.k.N.N.N.B.N.N.B.V.i.C X . r d s d t X X L $X%X*X",
"%X*X1.&X%X1.3X%.&.*X&X&X@X;.| &X*.&X;.|.|.-.` |.*X*.-.|.=.>X*X) $ . r !.~.H.h.k.v.N.N.N.N.N.N.N.c.J > . # d s s d # X $ ` ;.$X%X",
"| %X,X;X*X|.&X&X&X$X6X$X,.*.*.&X|.2.<.>X;.O.;.,X$.;.$.X.+.*X*.- . # H./.K.h.h.h.k.h.k.N.k.N.N.v.u.d X X r s s d < . X W &X&.*.&X",
"@X@X{ k 5 5 0 Q &X,X$X<.2.$X$X$X*.3X|.*.|.%.$X|.` =.o.-.=.) 4 X X B./.W.h.g.h.h.h.h.h.h.v.k.k.i.F + . # s s s t X X 6 %X$X*X%X%X",
"&X/ o X X X . . - T 1.1.1.$X-X,X*.&X1.[ 1.@X1. X$.o...>.$.5 X . z./.!.N.g.h.h.g.h.h.h.h.h.k.f.F t . O s s s h # X X #.}.@X%X1.@X",
"' X + u.B.B.i.,   X 5 / @X$X%.3.1.$X&X|.&X&X*.*..XO.o.-.4 O . A ^.!.C.d.g.g.g.g.h.g.h.h.h.h.F Z X . 1 d s d 1 X X k ,X,X1X#X,.;X",
"k X i.Q.K.W.Q.J.A O . O k $.>X>X,X}.3X5X.X<X&X$.oX-...5 O   d ^.!.V.a.d.d.g.g.g.g.g.g.g.g.y.F , . # d s s s + X $ &.4X>X&X*X%X6X",
"$ # J.J.J.J.J.K.Q.V.p . . = Y -.2XXX-.>X&X2.3.*.;.-.5 O . 1 W.!.G.a.a.a.d.d.g.g.g.g.g.g.y.F p . X t d s s * X X T 5X5X5X&X,X&X*.",
". , J.J.J.J.J.J.J.W.Q.i.,   X 7 #.}.|.3.:X:X&X*.}.5 O . , G.!.G.a.a.a.a.a.s.a.a.s.a.s.d.D Z X . < s s s < X X 3 4X>X$X,X2X4X2.O.",
"X # J.J.F.F.K.W.J.G.J.W.J.H O . O L -.>X>X;.%.}.3 X X + A.!.J.s.p.a.a.p.a.a.a.a.a.a.s.D D < . + s s s 1 O X X +.>X;.%.%X3X;.1.$X",
"= X h.r.0.0.r.j.F.W.J.J.J.Q.V.f . X - Y |.|.` - O X X N.Q.K.s.p.p.p.p.a.p.p.a.a.a.a.y.D p X X a d a a , X O k ,X;.>X:X,X&X|.&X&X",
"8 . x 0.8.8.8.8.q.j.F.J.J.J.J.W.c.< . X - K $ X X X c.Q.K.s.w.p.p.t.p.p.p.a.p.p.s.t.Z Z @ . , d s a < o X $ $.*.&X*.,X.X$.|.|.3.",
"T X : 9.8.8.8.0.0.8.0.j.J.J.J.J.W.J.H O . X O . X c.^.J.s.w.p.w.r.r.w.p.p.p.p.a.t.n B e . O s s a 1 + X X Y 2.;.&X1.1.-.&X$X%.|.",
"o.$ . x 8.7.8.8.8.8.8.8.q.j.J.J.J.J.W.F.f .   + v.Q.J.s.e.r.r.r.w.t.r.p.t.p.p.p.B n p X X r d s r , X X 4 %.*.%X%X1.| *.&X$X*X$X",
"*XY X @ 8.7.7.8.8.8.8.8.8.8.r.l.J.J.J.J.W.f.Z F.Q.F.r.e.q.w.q.w.w.w.w.w.r.w.w.V m n @ . , s s r 1 + X X / 1.&X*.;.%.3X|.5X*X*X1.",
"3.>X- . w 9.7.7.7.8.7.8.8.8.8.7.r.l.J.J.K.Q.^.J.j.e.q.q.e.q.q.r.w.r.w.w.w.r.V m b e . O s s a 1 * X X q <.%.@X&X*X@X&.$.$X$X$X;.",
":.|._ X X M 8.N 7.7.7.7.7.8.8.8.8.7.w.s.j.g.a.q.8.0.q.q.e.e.q.q.e.q.q.w.w.e.b b p X X r d s r 2 X X + ] 1.1.1.@X&X&.{ |.$X&X$X*.",
"*.%X6X9 X ; 7.7.7.7.7.7.7.7.7.8.7.8.7.7.N 8.N 8.q.8.0.0.q.8.q.q.q.q.q.q.e.b b b + . * d s a 1 # . X T ;.*.3X$X|.*.$.*.;.<.%.1.*X",
"1.%X*.&X$ . y 7.N 7.7.7.7.7.7.7.7.8.8.9.8.8.8.8.8.0.8.0.q.8.8.q.0.q.q.q.b x b > . O s s s 1 * X X 6 $X3.}.*X1.%X|.&.$X@.@X1.1.&X",
"&X%X|.;.! X X c 7.7.7.7.7.7.N 7.7.7.7.7.8.7.8.8.8.8.8.8.8.0.0.0.0.q.0.b x v i X X 1 d s 1 1 X X X ( ;.%.|.*.$.>X&X|.&X>X|.&X*.| ",
"*.1.%X|.&X5 X @ M 7.7.7.7.N 7.7.7.7.7.7.7.7.7.7.8.7.7.8.8.8.8.0.0.0.v x x x O . # d s a 1 # X X L =.%X*.$.XX;.&.%.[ &X&X*.|.&X&X",
"%X1.}.>X2X_ X X : M 7.7.7.7.N N 7.7.N N 7.7.7.7.7.7.8.7.7.7.8.8.8.v x x v ; . O s s a 1 , X X - X.1.;.$.:.+.%X|.| -.|.:.|.&X*.}.",
"*.%X,X*X%X%X9 X X w M 7.N 7.7.7.N 7.7.7.N N 7.7.7.7.7.7.7.8.7.8.c z x z e . X 1 d a 1 1 o X X ~ O.$X` %.1.$X|.%.| |.&.*.&X&X&X1.",
"&.&.,X@X5X&X*.$ X O u c 7.N 7.N 7.N N 7.7.7.7.N 7.N 7.7.7.7.7.c x z x y X . , d a < 1 * X X q O.:.$X%.] &.3.-.%.;.;.|. .>X1.1.|.",
"*.*.$X}.XX&X,X! X X @ u c 7.7.N 7.7.7.7.7.N 7.7.7.N N 7.7.N c u u z z O X O s a 1 1 , X X = *.3.1.1.%.;.%.-.1.;.-.$.&.+.-.|.|.,X",
"|.,X;.@X,X*.$X&X9 X . : z z N 7.N 7.7.N N 7.N 7.7.7.N 7.N z u u u z ; . X 1 r 1 1 1 + X X ! 3.%X:.|.|.;.>X$.$.*.-.;.+.$.+.2X}.,X",
"%X3X|.*X&X3.:.%.%.$ X . w z u N 7.N N 7.7.7.N 7.N 7.7.N z u u u z : X X * r 1 1 1 * X o q -.$X:.%.o.2X$X$.<.-.$.) ;.%.1.|.*X7X6X",
"*X$X*X*.|.1.$X%.@XT X X X y z u c N 7.N 7.N N 7.7.7.c u u z u z w X . o 1 1 1 1 1 X X 4  .@.1.*.$X] }..XO.:.*.$X%.$.` | @X@X%X| ",
"2.%.*X;.%.;.*X@X1.] 8 O X X y z u z M N 7.7.7.7.N z u z u u z y X X X 1 1 1 1 1 + X X ~ ) ..-.|.%.-.) $.-.*...$X3.|.|.;.@X|.<.#X",
":X%X%.:X|.1.%X*.*.| |.= X X X y z u u z c c c c u u u u z z y O . X 1 1 1 1 a * X X R %.&.|.*.@.|.5X%.@X%X|.*.|.%.1.|.$X*X*.@X#X",
",X$X3.%.<.<.@X*.|.@X,.{ X X X X y z u u u u u u z u u u z y O . X , a 1 1 1 < X X 0 &X$.:.-.o.|.,X%.|.3.$X*.}.}.-.|.$X$X1.| 1.*X",
"1.1.3X#X$X6X<.%.%.%.[ $XL X O X X w z u u z u z u u u z y O . X , 1 1 1 1 1 + X = $.|.] &X&.*.|.$.*.$X%X;.1.$X%X&X$X%X|.| *X3.:.",
"1.%X%X;X-X@X$X%.,.[ %X4.%X8 X o X X : u z u u z u z z w X X X * a 1 1 1 1 * X o ` %X%X*.@X@X%.$.$.&X&X%.$.*.%.%X3.*.1.1.%.6X1.,X",
"$X*X$X$X<.*.&.$X1.<.<X2.-X$X= X + X . O w u z z z u : X X . # r 1 1 1 1 < o X T 1.,X$X|.1.*.1.%.] 1.>X$.$X,X-.;.<.%X$X1.2.-X<.@X",
"%X&X%X*X#X|.1.,X3.<X*X1.$X%X$.+ X + + . X O ; : ; X . X X # 1 1 1 1 1 1 + X k $X$X%X} <.@X1.3X&X$.|.-.$.3.$X;.$X4.$X1.<.-X%.,X%X",
"$X*X|.*X$X4X=X;.1.;.@X*.*X$X@X' O X + + o X . . . . . o * a 1 1 1 1 1 + X 7 <.@X2.O.$X2.%X>X$X-X*.3.&.-.:.$.1.2.%X$X#X%X2.%X,X|.",
"|.%.$X&X*.*X1.-X<.:.@X1.*.$.|.] E X X o & + X X X + * 1 1 1 1 1 1 1 + X - %.*X$X<.:.3.$X;.&X$X%X1.*.&X|.&X&.>X;.*X%X%X7X-X4.,X3X",
",X%X-X@X%X,X,X,X%.] ] @X*.$X*.} *.T X X X & & & & , 1 1 1 1 1 1 1 + . = ) 1.%.1.:X:X$X$X1.1.=X#X1.;.*X+...%.,X,X-X<.1.-X4.>.2X<X",
"1.,X%X@X%X|.|.&..X;.1.*X*.&X<.1.%.&X/ X X X + & & & 1 1 1 1 1 , o X - ` :.2.%X%X%X>X5X,X;X%X=X%X2.&X>X@.$.,X>X|.%X%X*.$X:X<X;.,X",
"1.3.%.|.$X&X$.}.*X#X*.%X1.|.@X%X@X*.$XW + X X X & & * 1 r < # X X - } %.$.$X=X,X$X-X4.<X2.<.4.*.;.|.&.%.$X$X*.&X X*.<X*X<X$X%.5.",
"3.%.$X$.&.$.+.|.*.$X&.&X%X*.#X*X&X2X|.;.#.5 X X X o o * + X X X 7 $.1.%.%.#X3.%X%X<.9X<.%.,.|.}.;.,X<.*.%.*.&X$X&X,X$X3.:.<.%X,X",
"$X;.<.%X,X*.%.;.%.%.6X%X@X4.,.1.1.*X,X*.>X4XY $ X X X X X O # R *X%X$X*.%.#X2.=X=X$X*X$X%X@X} %.%.2X$X1.*.;.$X$X*.*.1.3.<.*.;.,X",
"%X<.%X$X*.*X@X@X%X$X&X1.] *X1.$X*.|.&X*X3X2X&X XU 5 o o - k { ,X,X$X%X} *.%X%X%X1X<.$X&X%X*X@X1.*X%X%X%X3.3.3.3.|.*.4.3.4.4.:.*."
};
