/* XPM */
static char *enemy_left[] = {
/* columns rows colors chars-per-pixel */
"16 16 236 2 ",
"   c #191F30",
".  c #1C222D",
"X  c #1D232D",
"o  c #192030",
"O  c #35392D",
"+  c #38382B",
"@  c #252C3A",
"#  c #272E3B",
"$  c #2B303C",
"%  c #2C313D",
"&  c #3E3E31",
"*  c #31353B",
"=  c #32353C",
"-  c #3E4334",
";  c #3D403B",
":  c #3F443D",
">  c #4E4B2E",
",  c #44483F",
"<  c #484A3F",
"1  c #4B4C3F",
"2  c #4A5033",
"3  c #525535",
"4  c #555434",
"5  c #595734",
"6  c #575B37",
"7  c #5B5935",
"8  c #595936",
"9  c #595937",
"0  c #5B5B36",
"q  c #5C5C36",
"w  c #5D5C37",
"e  c #5B5F3A",
"r  c #5D5D38",
"t  c #5C5E39",
"y  c #5C5D3A",
"u  c #615E38",
"i  c #5F603A",
"p  c #626038",
"a  c #63613A",
"s  c #63613B",
"d  c #69643C",
"f  c #6E6A3B",
"g  c #6B6D3F",
"h  c #6F6F3F",
"j  c #262E45",
"k  c #273047",
"l  c #2F3541",
"z  c #2E374E",
"x  c #2F384E",
"c  c #2E384F",
"v  c #2F384F",
"b  c #373D4A",
"n  c #2E3A5A",
"m  c #2F3A5A",
"M  c #313B51",
"N  c #313B52",
"B  c #303B53",
"V  c #323C52",
"C  c #333D53",
"Z  c #313C54",
"A  c #323C55",
"S  c #333E55",
"D  c #333D56",
"F  c #333D57",
"G  c #343F57",
"H  c #323D58",
"J  c #333E58",
"K  c #343F58",
"L  c #343E59",
"P  c #343F59",
"I  c #3B4045",
"U  c #3A4247",
"Y  c #3C424E",
"T  c #3D424E",
"R  c #37435E",
"E  c #38445C",
"W  c #38445E",
"Q  c #3A465E",
"!  c #3D4861",
"~  c #3E4962",
"^  c #404143",
"/  c #414344",
"(  c #44474A",
")  c #484A4D",
"_  c #484B4E",
"`  c #494B4E",
"'  c #4E5142",
"]  c #535447",
"[  c #5E5B44",
"{  c #565448",
"}  c #575A4F",
"|  c #5A5B4D",
" . c #5E5F4F",
".. c #4A4B51",
"X. c #4B4C52",
"o. c #484C54",
"O. c #494C54",
"+. c #494D54",
"@. c #4B5250",
"#. c #4B5351",
"$. c #4C5056",
"%. c #4B535D",
"&. c #515150",
"*. c #525250",
"=. c #555557",
"-. c #565656",
";. c #565657",
":. c #5B5E51",
">. c #565759",
",. c #575858",
"<. c #5A5A59",
"1. c #5B5B5A",
"2. c #5F605F",
"3. c #696C42",
"4. c #606349",
"5. c #67634F",
"6. c #6D7140",
"7. c #767747",
"8. c #7A7741",
"9. c #797744",
"0. c #7E7D43",
"q. c #7A7A47",
"w. c #7B7A47",
"e. c #7F7A46",
"r. c #7F7B47",
"t. c #7B7C45",
"y. c #7B7B48",
"u. c #7C7B48",
"i. c #7D7B48",
"p. c #7C7D48",
"a. c #7C7D49",
"s. c #7E7C48",
"d. c #7F7C49",
"f. c #7D7E4A",
"g. c #636753",
"h. c #474F61",
"j. c #474F63",
"k. c #414D66",
"l. c #414D67",
"z. c #424E67",
"x. c #464E64",
"c. c #434F69",
"v. c #495063",
"b. c #4A5162",
"n. c #4A5163",
"m. c #4B5262",
"M. c #45506C",
"N. c #44526D",
"B. c #45536E",
"V. c #49536B",
"C. c #4A546C",
"Z. c #5A5F68",
"A. c #5B5F68",
"S. c #465372",
"D. c #485570",
"F. c #495672",
"G. c #4D5C78",
"H. c #4E5E7A",
"J. c #505E7D",
"K. c #515F7D",
"L. c #5D6167",
"P. c #5C6068",
"I. c #57617A",
"U. c #5D667E",
"Y. c #5D677E",
"T. c #606061",
"R. c #616263",
"E. c #6F737B",
"W. c #71747D",
"Q. c #7D7E7F",
"!. c #827D41",
"~. c #837B46",
"^. c #807E45",
"/. c #847F45",
"(. c #867E44",
"). c #807C48",
"_. c #807E48",
"`. c #817F49",
"'. c #827E48",
"]. c #827E49",
"[. c #847F48",
"{. c #847E49",
"}. c #847F49",
"|. c #7F814A",
" X c #7F814B",
".X c #838044",
"XX c #818047",
"oX c #828049",
"OX c #828248",
"+X c #81814A",
"@X c #81824B",
"#X c #848049",
"$X c #858049",
"%X c #868049",
"&X c #84824A",
"*X c #85824A",
"=X c #878548",
"-X c #85844B",
";X c #86844A",
":X c #86844B",
">X c #87844B",
",X c #87854B",
"<X c #86864B",
"1X c #83834C",
"2X c #82834D",
"3X c #81844C",
"4X c #82844C",
"5X c #83844C",
"6X c #83844D",
"7X c #85854D",
"8X c #86854C",
"9X c #85864E",
"0X c #88844B",
"qX c #8A844B",
"wX c #88874D",
"eX c #8A874D",
"rX c #88864E",
"tX c #89884C",
"yX c #8A8B4F",
"uX c #8C894C",
"iX c #8C894D",
"pX c #8C8A4E",
"aX c #8B8C4E",
"sX c #8F8C4E",
"dX c #878A50",
"fX c #868E53",
"gX c #8B9055",
"hX c #909153",
"jX c #919453",
"kX c #4A5A80",
"lX c #4F5D80",
"zX c #4E5E80",
"xX c #526082",
"cX c #526182",
"vX c #7D7F80",
"bX c #929292",
/* pixels */
"~.&Xe.e.i._.0X5X X_. X5X}.&XeX}.",
"8XuXuXeXaX<XdXgXeXoXd.7.d.&X0XoX",
"t.p u w w 0 3 e 0 h .X8.0.^.oX<X",
"; k c A B R K c J @ 1 } #.| , p ",
"%.lXN.! z.D.J.cXS.V.U.I.kXW.m.. ",
"I n K C G Q N.B = *.Q.bXZ.Z.j.o ",
"f > + +.L.+.( ` m.x.Y ,.2.% & d ",
"[ 5.{ >.R.;.^ b N.G.z.l <.X.5 sX",
"4.g.] ;.R.;./ b N.G.z.l <...0 jX",
"6.2 O +.L.$.` ` m.j.Y >.2.$ - 3.",
"I n K B A Q N.C * *.vXbXZ.P.j.  ",
"%.lXN.! c.D.J.cXS.C.U.I.kXE.m.. ",
": j c A A Q J z A @ ' :.#. .< p ",
"9.y 0 4 5 y i y 6 g <X.X!.(.(.<X",
"d.2X_.d.<XuXhXtXtXfX8X5X_.}.5Xd.",
"_.i.y.q.q.&X<X&XoX8X2X5X&X<X<X_."
};
