/* XPM */
static char *enemy_down[] = {
/* columns rows colors chars-per-pixel */
"16 16 239 2 ",
"   c #181F30",
".  c #1C222D",
"X  c #192030",
"o  c #35392D",
"O  c #38382B",
"+  c #252C3A",
"@  c #272E3B",
"#  c #2B303C",
"$  c #2C313D",
"%  c #3E3E31",
"&  c #32353B",
"*  c #32353C",
"=  c #3E4334",
"-  c #3D403B",
";  c #3F443D",
":  c #4E4C2E",
">  c #44483F",
",  c #484A3F",
"<  c #4B4B3E",
"1  c #4A5033",
"2  c #525535",
"3  c #555434",
"4  c #585734",
"5  c #595734",
"6  c #565A37",
"7  c #5A5935",
"8  c #595936",
"9  c #585837",
"0  c #5B5B36",
"q  c #5C5C36",
"w  c #5D5C37",
"e  c #5B5F3A",
"r  c #5D5E38",
"t  c #5C5E39",
"y  c #5C5D3A",
"u  c #605D38",
"i  c #5F603A",
"p  c #626038",
"a  c #63613A",
"s  c #62613B",
"d  c #69643C",
"f  c #6E6A3B",
"g  c #6B6D3F",
"h  c #6F6E3E",
"j  c #262E45",
"k  c #273047",
"l  c #2F3541",
"z  c #2F374E",
"x  c #2E374F",
"c  c #2E384E",
"v  c #2E384F",
"b  c #303541",
"n  c #373D4A",
"m  c #2E3A5A",
"M  c #2F3A5A",
"N  c #313B51",
"B  c #313B52",
"V  c #303B53",
"C  c #323C52",
"Z  c #333D53",
"A  c #313C54",
"S  c #323C55",
"D  c #333E55",
"F  c #333D56",
"G  c #323C57",
"H  c #343F57",
"J  c #323C58",
"K  c #333E58",
"L  c #343F58",
"P  c #343E59",
"I  c #343F59",
"U  c #3B4045",
"Y  c #3A4246",
"T  c #3C424E",
"R  c #3D424E",
"E  c #37435E",
"W  c #38445C",
"Q  c #39465D",
"!  c #38445E",
"~  c #3D4761",
"^  c #3E4862",
"/  c #404142",
"(  c #414244",
")  c #44474A",
"_  c #484A4D",
"`  c #484B4E",
"'  c #4E5141",
"]  c #5E5B44",
"[  c #535448",
"{  c #565448",
"}  c #575A4F",
"|  c #5A5B4D",
" . c #5D5F4F",
".. c #4A4B51",
"X. c #4A4C51",
"o. c #484C54",
"O. c #494C54",
"+. c #4A4D54",
"@. c #4B5251",
"#. c #4B5351",
"$. c #4C5057",
"%. c #4B535D",
"&. c #4B545D",
"*. c #515150",
"=. c #525250",
"-. c #555557",
";. c #565656",
":. c #5B5E51",
">. c #565759",
",. c #565858",
"<. c #575859",
"1. c #5A5A59",
"2. c #5B5B5A",
"3. c #5F605F",
"4. c #696C42",
"5. c #606349",
"6. c #67624F",
"7. c #6D7140",
"8. c #767747",
"9. c #7A7741",
"0. c #797744",
"q. c #7F7D43",
"w. c #7A7A47",
"e. c #7B7A47",
"r. c #7F7A46",
"t. c #7E7B47",
"y. c #7B7C45",
"u. c #7B7B48",
"i. c #7C7B48",
"p. c #7D7B48",
"a. c #7C7D48",
"s. c #7C7D49",
"d. c #7E7C48",
"f. c #7E7D49",
"g. c #7D7E4A",
"h. c #636752",
"j. c #474E60",
"k. c #474F61",
"l. c #474F63",
"z. c #414D66",
"x. c #424D67",
"c. c #424E67",
"v. c #464E64",
"b. c #434F69",
"n. c #495062",
"m. c #4A5162",
"M. c #4B5163",
"N. c #4B5262",
"B. c #44506C",
"V. c #45506C",
"C. c #44526D",
"Z. c #45536E",
"A. c #49536B",
"S. c #4A546C",
"D. c #5A5F68",
"F. c #465372",
"G. c #485570",
"H. c #495671",
"J. c #4D5C78",
"K. c #4E5E7A",
"L. c #505F7D",
"P. c #515F7D",
"I. c #5D6167",
"U. c #5C6068",
"Y. c #57617A",
"T. c #5D667E",
"R. c #5D677E",
"E. c #606161",
"W. c #626263",
"Q. c #70737B",
"!. c #71747D",
"~. c #7D7E7F",
"^. c #827D41",
"/. c #837B46",
"(. c #807E45",
"). c #827E47",
"_. c #847F45",
"`. c #867E44",
"'. c #807C48",
"]. c #817E48",
"[. c #817F49",
"{. c #827E48",
"}. c #827F49",
"|. c #847F48",
" X c #847E49",
".X c #847F49",
"XX c #7F814A",
"oX c #838045",
"OX c #818047",
"+X c #828049",
"@X c #828248",
"#X c #80814B",
"$X c #82814A",
"%X c #80824B",
"&X c #83834B",
"*X c #848049",
"=X c #868049",
"-X c #858349",
";X c #85804A",
":X c #84814A",
">X c #85824A",
",X c #868549",
"<X c #85844B",
"1X c #86844A",
"2X c #86844B",
"3X c #87844B",
"4X c #87854B",
"5X c #86864B",
"6X c #82834D",
"7X c #81844C",
"8X c #82844C",
"9X c #83844C",
"0X c #83844D",
"qX c #84844D",
"wX c #85854D",
"eX c #86854C",
"rX c #85864E",
"tX c #88854B",
"yX c #8A844B",
"uX c #88874D",
"iX c #8A874D",
"pX c #89864E",
"aX c #89884C",
"sX c #8A8B4F",
"dX c #8C894C",
"fX c #8C894D",
"gX c #8C8A4E",
"hX c #8B8C4E",
"jX c #8F8C4E",
"kX c #878A50",
"lX c #868E54",
"zX c #8B9055",
"xX c #909253",
"cX c #919453",
"vX c #4A5A80",
"bX c #4E5D80",
"nX c #526182",
"mX c #7D7F80",
"MX c #929392",
/* pixels */
" X$X<Xs . X d jXcX4.  . s <Xs.[.",
"pXyX$X> M.k.% 4 7 = k.M.< _.eX<X",
"=X=X(.| !.D.$ X...# U.Q. ._. X<X",
" Xs.q.@.vXD.3.2.2.3.D.vX@.^.[.=X",
"7X8.9.} Y.MX<.b l <.MXY.:.OX7X7X",
"XXs.OX< R.~.R z.z.R mXR.' <XeX$X",
"[.$Xh @ A.*.v.K.K.k.*.S.@ g lXeX",
"$XpX7 J F.* M.Z.Z.M.& F.S 6 aX$X",
"7XzXe z nXV ` n n ` Z nXv y aX=X",
"yXkX2 L L.Z.) / ( ` Z.L.J i xX<X",
"[.<X7 E G.Q o.;.;.$.Q G.Q y fX=X",
"p.hXq V z.H I.W.W.I.S b.S 4 <Xw.",
"t.pXq S ~ Z o.>.;.o.V ^ S 3 s.w.",
"t.fXu z Z.L O { [ o L Z.v 7 [.u.",
"=XfXs k bXm : 6.h.1 m bXj y 6Xp.",
"/.eXy.- &.U f ] 5.7.U %.; 0.s.(."
};
