/* XPM */
static char *exit_16[] = {
/* columns rows colors chars-per-pixel */
"16 16 244 2 ",
"   c #001500",
".  c #002400",
"X  c #0E2504",
"o  c #002C00",
"O  c #0C2E00",
"+  c #0E2E00",
"@  c #0D2A04",
"#  c #112903",
"$  c #102A06",
"%  c #102C04",
"&  c #142F06",
"*  c #083A02",
"=  c #0D3108",
"-  c #113603",
";  c #143500",
":  c #153603",
">  c #183503",
",  c #123A00",
"<  c #153900",
"1  c #143903",
"2  c #173B02",
"3  c #183900",
"4  c #193A00",
"5  c #183B01",
"6  c #193803",
"7  c #1D3E02",
"8  c #183805",
"9  c #19320B",
"0  c #1C340E",
"q  c #1D360F",
"w  c #213314",
"e  c #243A13",
"r  c #2B3F17",
"t  c #283A18",
"y  c #2B3B1A",
"u  c #2F3B1A",
"i  c #004301",
"p  c #004401",
"a  c #004B01",
"s  c #154302",
"d  c #1A4103",
"f  c #1B4103",
"g  c #1A4500",
"h  c #1A490F",
"j  c #035302",
"k  c #025901",
"l  c #155C01",
"z  c #224707",
"x  c #274E03",
"c  c #255100",
"v  c #345E02",
"b  c #32560E",
"n  c #305E0D",
"m  c #294212",
"M  c #39451E",
"N  c #3C4B1E",
"B  c #006900",
"V  c #006D00",
"C  c #026E01",
"Z  c #017300",
"A  c #017400",
"S  c #007700",
"D  c #007B00",
"F  c #007C00",
"G  c #007F00",
"H  c #037E01",
"J  c #0A7800",
"K  c #127000",
"L  c #276002",
"P  c #256E00",
"I  c #356606",
"U  c #396E0B",
"Y  c #3D4522",
"T  c #354921",
"R  c #3E4E26",
"E  c #417F01",
"W  c #44601D",
"Q  c #425024",
"!  c #485725",
"~  c #4E522B",
"^  c #4A512C",
"/  c #48562D",
"(  c #55562E",
")  c #5A5835",
"_  c #5A5D34",
"`  c #565E38",
"'  c #5F5F3B",
"]  c #616038",
"[  c #686A3B",
"{  c #6D6B3D",
"}  c #6C6B3F",
"|  c #656240",
" . c #6F6F40",
".. c #6D6D46",
"X. c #716F47",
"o. c #747444",
"O. c #777645",
"+. c #777745",
"@. c #767746",
"#. c #777746",
"$. c #787247",
"%. c #797644",
"&. c #7B7844",
"*. c #787947",
"=. c #7B7846",
"-. c #7A7847",
";. c #7A7A46",
":. c #7B7B47",
">. c #7E7B47",
",. c #7C7C47",
"<. c #797348",
"1. c #797B48",
"2. c #7A7B49",
"3. c #7B7B4A",
"4. c #7C7B48",
"5. c #7D7B48",
"6. c #797C49",
"7. c #7A7C48",
"8. c #7B7F49",
"9. c #7C7C48",
"0. c #7C7D48",
"q. c #7C7D49",
"w. c #7D7D49",
"e. c #7E7C48",
"r. c #7F7D49",
"t. c #7D7E48",
"y. c #7D7E49",
"u. c #7E7E48",
"i. c #7C7C4A",
"p. c #7C7D4A",
"a. c #7D7E4A",
"s. c #817C46",
"d. c #827D46",
"f. c #817E47",
"g. c #827E47",
"h. c #837E47",
"j. c #827F47",
"k. c #867D46",
"l. c #817D48",
"z. c #817F48",
"x. c #807F49",
"c. c #817F49",
"v. c #827E48",
"b. c #837E48",
"n. c #837F49",
"m. c #807C4A",
"M. c #847F48",
"N. c #847E49",
"B. c #028000",
"V. c #018200",
"C. c #048100",
"Z. c #018400",
"A. c #008601",
"S. c #028701",
"D. c #0A8600",
"F. c #108500",
"G. c #158E01",
"H. c #1C8A00",
"J. c #188F00",
"K. c #1F9A00",
"L. c #318500",
"P. c #338900",
"I. c #3C8A00",
"U. c #259700",
"Y. c #2A9300",
"T. c #209801",
"R. c #279E00",
"E. c #289D01",
"W. c #309700",
"Q. c #3C9500",
"!. c #319F01",
"~. c #389E01",
"^. c #3AA000",
"/. c #458300",
"(. c #4D9600",
"). c #419E01",
"_. c #429E00",
"`. c #519700",
"'. c #46A400",
"]. c #4DA500",
"[. c #4AAB00",
"{. c #51A500",
"}. c #40B200",
"|. c #50B200",
" X c #5EB100",
".X c #5BBB00",
"XX c #6DB700",
"oX c #66BE01",
"OX c #4CC200",
"+X c #73C501",
"@X c #7C804B",
"#X c #7F804A",
"$X c #7F814A",
"%X c #7A804C",
"&X c #7E834D",
"*X c #82D300",
"=X c #808049",
"-X c #838048",
";X c #828049",
":X c #828149",
">X c #838149",
",X c #80804A",
"<X c #80814A",
"1X c #83824A",
"2X c #83834B",
"3X c #858049",
"4X c #868048",
"5X c #868049",
"6X c #848249",
"7X c #878249",
"8X c #87814B",
"9X c #84834B",
"0X c #86824B",
"qX c #85844B",
"wX c #87854B",
"eX c #81844C",
"rX c #83844C",
"tX c #83864E",
"yX c #84844C",
"uX c #85874C",
"iX c #85864D",
"pX c #85874D",
"aX c #84874F",
"sX c #8A804B",
"dX c #88854A",
"fX c #88844B",
"gX c #8A854B",
"hX c #89854C",
"jX c #88854D",
"kX c #88864D",
"lX c #8B854E",
"zX c #88864E",
"xX c #8B864E",
"cX c #8C844C",
"vX c #8D844C",
"bX c #87884C",
"nX c #8B894E",
"mX c #8C884F",
"MX c #90894F",
"NX c #828750",
"BX c #828751",
"VX c #8C8950",
"CX c #8B8D51",
"ZX c #938D51",
/* pixels */
"v.e.e.rXwX%X&XNXj.j.$Xe.M x ! sX",
"e.e.3.v.e.7.NXrXh.h.bXN `.*Xv ' ",
"7.&.3.>.6Xj.eX$Xj.MX( (.+XXXc w ",
"7.O.o.3.,.1.%X%XxX) U +X X/.d 1 ",
",.6X&.6X*.1.*.rX| I .X].{.d g m ",
"sX<.mXwX&.*.7.X.b |.).[.L 2 6 X.",
"W U Q $.CXbX..m '.~.~.L.: , / ZX",
"P OX).n ` X.e Q.!.Y.W.s 5 q NXiX",
"h G T.}.I.z P.E.H.U.l 5 + _ jX6X",
"] k S.G T.E.G.F.J.K - 1 y hX7.v.",
"VXT B S.G D C.D.J * 7 $ } $Xe.&X",
"iX4.= A V.V.G Z i > + ^ 6XO.*.rX",
"v.sX( o C A V a % - t 7.7.e.7.6X",
"jXj.xXY . j i @ 5 9 O.6Xe.e.N.6X",
"wXiXj.6Xy   # 5 & { xXsXe.e.xXjX",
"j.e.v.h.iXQ X 0 [ vXjXv.$X6X6XN."
};
