/* XPM */
static char *exit_8[] = {
/* columns rows colors chars-per-pixel */
"8 8 64 1 ",
"  c #0D2705",
". c #142E04",
"X c #0C3B00",
"o c #173506",
"O c #22360D",
"+ c #034B01",
"@ c #064800",
"# c #004F00",
"$ c #005E03",
"% c #204406",
"& c #265D00",
"* c #2C4215",
"= c #1E6A0D",
"- c #2A7E01",
"; c #287C03",
": c #397E0A",
"> c #394320",
", c #4A7F08",
"< c #44661B",
"1 c #497615",
"2 c #537E1D",
"3 c #495327",
"4 c #495428",
"5 c #5A6B26",
"6 c #5C6330",
"7 c #676B3B",
"8 c #696B3E",
"9 c #6F6F3E",
"0 c #746E46",
"q c #797246",
"w c #7D7647",
"e c #747844",
"r c #797847",
"t c #7A7A46",
"y c #7B7B47",
"u c #7D7D47",
"i c #77724B",
"p c #7E7C49",
"a c #7D7F49",
"s c #7E7E48",
"d c #827A4B",
"f c #817E48",
"g c #807E49",
"h c #038301",
"j c #018E00",
"k c #1D8B00",
"l c #1C8C02",
"z c #139600",
"x c #34A200",
"c c #558B0D",
"v c #4EB400",
"b c #5FB000",
"n c #7F804A",
"m c #7F814B",
"M c #828149",
"N c #82814B",
"B c #87824B",
"V c #87834B",
"C c #80844C",
"Z c #82854C",
"A c #8A824B",
"S c #8E864E",
"D c #8E874F",
"F c #898850",
/* pixels */
"pgpZA9c5",
"ttuZqcbo",
"wdCi1v&*",
":20<xkoe",
"=z;kko3V",
"8$jh@Otn",
"S4#+.7Cg",
"MB> 6SpB"
};
