/* XPM */
static char *collectible_32[] = {
/* columns rows colors chars-per-pixel */
"32 32 177 2 ",
"   c #27170A",
".  c #2B1B0D",
"X  c #2A170C",
"o  c #381803",
"O  c #301D0F",
"+  c #331D06",
"@  c #2C1E11",
"#  c #2E2006",
"$  c #2D220E",
"%  c #3C2306",
"&  c #32220C",
"*  c #3B2309",
"=  c #3E2A0E",
"-  c #2D2412",
";  c #302113",
":  c #3F2910",
">  c #2D2D2B",
",  c #3C322F",
"<  c #333226",
"1  c #432B0D",
"2  c #422D12",
"3  c #5D5C34",
"4  c #5B5C3A",
"5  c #625E36",
"6  c #5E653D",
"7  c #64653A",
"8  c #69663B",
"9  c #666A3F",
"0  c #6C6B3E",
"q  c #716E3D",
"w  c #6E723D",
"e  c #77703F",
"r  c #6D6D42",
"t  c #646440",
"y  c #726F41",
"u  c #6E7142",
"i  c #6D7548",
"p  c #737444",
"a  c #7A7644",
"s  c #757946",
"d  c #7C7B46",
"f  c #747748",
"g  c #767A49",
"h  c #7C7D49",
"j  c #C15B10",
"k  c #C6770C",
"l  c #C57E0B",
"z  c #CB7B0E",
"x  c #C2631D",
"c  c #DB6E1B",
"v  c #D26519",
"b  c #C87C12",
"n  c #D67B10",
"m  c #DF741F",
"M  c #D77604",
"N  c #F46B0C",
"B  c #EF7016",
"V  c #F07718",
"C  c #F9781B",
"Z  c #D66D26",
"A  c #DE7423",
"S  c #DE792D",
"D  c #D26F30",
"F  c #EC7924",
"G  c #E67529",
"H  c #ED7D2C",
"J  c #F77A22",
"K  c #F87B24",
"L  c #F27A27",
"P  c #E47F3E",
"I  c #807743",
"U  c #827C46",
"Y  c #897E47",
"T  c #837E48",
"R  c #897E48",
"E  c #E87E46",
"W  c #E57E46",
"Q  c #7E824B",
"!  c #7A8250",
"~  c #CC8A0F",
"^  c #C6830C",
"/  c #CA8B1B",
"(  c #F58204",
")  c #F68B03",
"_  c #F88A00",
"`  c #F0800B",
"'  c #F58B0C",
"]  c #FB890F",
"[  c #F6900C",
"{  c #FF920C",
"}  c #F28516",
"|  c #F58C13",
" . c #F38C1F",
".. c #FD9410",
"X. c #F49019",
"o. c #F79A1F",
"O. c #F89A1F",
"+. c #F79714",
"@. c #E7890A",
"#. c #E1B71A",
"$. c #FFBB16",
"%. c #FCB31D",
"&. c #FEBC1E",
"*. c #CE8E28",
"=. c #F48C25",
"-. c #F6992E",
";. c #F69328",
":. c #ED8237",
">. c #F1943E",
",. c #D0A827",
"<. c #DAAE23",
"1. c #DCB029",
"2. c #DBB829",
"3. c #E3BA2B",
"4. c #E8BC29",
"5. c #FEBC23",
"6. c #FCBC2C",
"7. c #FCB528",
"8. c #E2BD30",
"9. c #FDB732",
"0. c #FBBD32",
"q. c #FCBE38",
"w. c #FFC324",
"e. c #FCC32C",
"r. c #FFCA2E",
"t. c #FFD52F",
"y. c #E2C03E",
"u. c #FDC332",
"i. c #FDC833",
"p. c #FCC33B",
"a. c #FDCA3D",
"s. c #FFD231",
"d. c #868047",
"f. c #84834B",
"g. c #8A844B",
"h. c #85894E",
"j. c #8A894E",
"k. c #91874C",
"l. c #848650",
"z. c #848B51",
"x. c #898B51",
"c. c #869055",
"v. c #889155",
"b. c #899258",
"n. c #EB874E",
"m. c #DEBE53",
"M. c #F7A540",
"N. c #FDC544",
"B. c #FDCA43",
"V. c #FDCB4C",
"C. c #FFD146",
"Z. c #FFD648",
"A. c #FDCD5A",
"S. c #FCCC55",
"D. c #FED05A",
"F. c #F6DDAF",
"G. c #F5DDBF",
"H. c #F7E0B2",
"J. c #F6E2BD",
"K. c #C6CBCB",
"L. c #D5DCCC",
"P. c #F0DAC2",
"I. c #EEDDD5",
"U. c #DFE2D5",
"Y. c #F6E5C7",
"T. c #F6E7CC",
"R. c #FCEFCC",
"E. c #F3E6D3",
"W. c #F5EAD4",
"Q. c #F4EDDC",
"!. c #F5F1DC",
"~. c #F4EDE7",
"^. c #F5F1E2",
"/. c #F5F2EC",
"(. c #F5F8EA",
"). c #F4F9FC",
"_. c #F4F4F3",
/* pixels */
"g.d T h a I g.l.f.d Q ! h.Q Q f.h d T T U I f.f.U U f.h.Q f.U U ",
"f.d T f l.T f.f.d.h.Q g h h.v.h.Y U I f.f.d h f.I U d g.f.j.U U ",
"T d a h h g a f.Q d p d ! v.! f.Y U f.I g.f.d Y Y T f.f.f.f.U f.",
"Q h h T h a h f.d g d Q f.! h.f.f.Y g.g.d.g.d.g.Y f.d.d Y g.g.x.",
"a f.a T l.h a U g.g.f.Y j.z.i u q 0 y a k.f.f.g.f.R g.g.g.Q T a ",
"T g g y T f a U g.a d f.p 7 $ - ; X @ < 8 e g.Y R d.d.j.f.d.U d ",
"h h y a a f a h s s h 7 $ * ^ #.<.v S K., . r f.f.U f.Y T T T U ",
"T h f g a u a ! Q s 0 1 l 4.6.C.Z.$.V./.P j 2 q T Y Y f.h g.U g ",
"f g d h I e Q j.f.6 . ^ t.7.:.P.E.N.i.E.=.{ b - r Y I Q j.d.d.Q ",
"h T f.Y T d Q d.d 3 % 3.e.' 6.B.M.F.D.E.E N c * 0 h.d.T h.Q d a ",
"f.h.T T f.j.T j.u $ ~ e.H %.a.J.7.V.^.).E.>.;.^ $ p j.d.Q d.d.f.",
"d.g.f.f.d.j.d Q 8 % 3.6.' w.+.=.:.T.(._.).Q.R.G o 0 h.Q Q d Q f.",
"f.j.j.x.h.d.d.p & ~ e.H p.e.' ( | q.B.^.!.A.=.} x - 6 u a h.g.d.",
"f.j.h.h.g.f.h.r $ 3.$.;.T.-.B | ' _ p.W.A.F.E C A   9 Q g v.g.g.",
"g.f.f.f.f.Q b.i & 2.a.[ 6.) ` [ ' ) N.^.u.V.I.;.M - u Q z.z.v.I ",
"g.g.d.d f.Q f.u # m.R.;.%.;.[ [ ' _ p.^.N.$.P K c . p h.Q f.h.h.",
"d d.h.f.d Q h.w > L.V.X.T.!.0.) } V N.Q.a.5.` ] n & 0 f.f.Q h f.",
"f.f.z.! Q Q T 8 - 8.w. ./.!.;.( H %.a.~.B.&.G K m . 0 f.T d h.f.",
"f.z.z.Q Q d d.u + *.W.n.G.C.$.| 6.e.N.W.a.7.} ' z & 0 f.d d f.f.",
"f.j.Q c.h.g g f.3 , U.N.} e.6.H &.i.Q.V.5.G J A % 7 f.d.h d d f.",
"g.f.z.f.a Q Q s t @ / e.F 7.i.0.5.S.Q.p.%.} ' k $ u Q d Q Q Q Q ",
"T h.j.T j.g.Q p h 5 % 3.u.[ 6.&.p.T.B.6.G L A % 7 a a T a d f.f.",
"g f.z.f.d.d.d.Q T u $ l t.6.' [ 0.N.w.5.' ..k $ q a g d d i Q Q ",
"h.f.f.f.d Q h.f.s d 8 2 ,.s.e.i.r.w.u...@.x 1 q a Q g s s e f.v.",
"g.f.d d.d d f.h.g r Q 7 : l 2.2.1.D Z j * @ 4 Q g s a g d a f.Y ",
"f.h T f.T d.h Q h t p d 4 $ $ $ . O @ - 6 u a g Q T Q d Q f.I T ",
"f.g.g.I a Y f.s g s u p g g 9 0 r u 7 0 f.T g a d f.d f.f.T d.f.",
"g.j.f.d g.g.j.T Y f.T g f.f.z.f.f.Y U Y f.h Y T d d h f.Y Y d.f.",
"f.f.h.f.a T T d d.g.f.Q f.g Q T g T I d.a U l.j.T h g g.g.g.g.x.",
"g.g.h.h.d I T d d d.d Q z.h.f.f.f.Y I f.l.j.R g.f.h g z.f.g.f.j.",
"T d d g f.d.d.d.h.Q Q f.Q z.h.f.f.d U g.g.k.U d Q h T f.f.g.T Y ",
"T Y d.d T f.T T f.h.v.v.Q h.f.h.j.U U g.g.f.g.d f.Y h T h T T T "
};
