/* XPM */
static char *destroy_1[] = {
/* columns rows colors chars-per-pixel */
"32 32 72 1 ",
"  c #5B2B12",
". c #632A13",
"X c #682813",
"o c #722C14",
"O c #6D3316",
"+ c #663A1C",
"@ c #6B391C",
"# c #7B3617",
"$ c #7C3817",
"% c #7A3618",
"& c #773F1D",
"* c #553E20",
"= c #653F21",
"- c #504A2A",
"; c #5A4E2A",
": c #5B532C",
"> c #604A2A",
", c #64542F",
"< c #6B532E",
"1 c #60582F",
"2 c #685530",
"3 c #6E5D33",
"4 c #64643F",
"5 c #6E6338",
"6 c #6F693C",
"7 c #72683A",
"8 c #7B723F",
"9 c #656540",
"0 c #6D6E42",
"q c #746E40",
"w c #6F7245",
"e c #747445",
"r c #7A7644",
"t c #767947",
"y c #7C7A46",
"u c #757649",
"i c #757A49",
"p c #7C7D49",
"a c #813619",
"s c #833A19",
"d c #8B3D1C",
"f c #96431D",
"g c #9A471C",
"h c #9B4E1C",
"j c #A14E1E",
"k c #934220",
"l c #A54D20",
"z c #AA4F20",
"x c #BD6521",
"c c #C46F20",
"v c #C57220",
"b c #CA7222",
"n c #CB7B20",
"m c #827C46",
"M c #827F48",
"N c #897F48",
"B c #7E824C",
"V c #7F8350",
"C c #D08221",
"Z c #E49C21",
"A c #F7BF20",
"S c #858047",
"D c #8C8047",
"F c #83834B",
"G c #8A844B",
"H c #85894E",
"J c #8A894E",
"K c #878751",
"L c #848B52",
"P c #898C52",
"I c #869055",
"U c #899156",
/* pixels */
"GymMrmFKFBBBBBBFmyMMmmFMmNFFBFmm",
"FmpiKMpFSHBypLUHSmrSSppFmmpGFJmm",
"pyypiyyFSiepBLVHNmGmFSmSmmGFSFmF",
"FyypprpGrtpBHVVBmNGFGGSGmmGySGGJ",
"yMypMpyMFGGSJHSFMmmJGFFGFNDGGBmr",
"MuyqMurMGrpSpBBpMNFGGmFDNFGJFSmy",
"ppqruurpttiBFBiBFGpmGGDmGmNMFmMm",
"MpuyrwupStBiiBpFFmmJGNpFFmMMpGyp",
"ryipmepJS6BppuFpreiJSSrSMmmmJFBp",
"yMGMMypFB0tFr0uBpBeFHypyFJFMHFyy",
"FFMMFGmGpeepuppHHB8SmmBmFHGFFSmG",
"GGHFFHmFSBtypepGSrp:BSmryFFMByBF",
"FJGPJSMHFpySweyy67=3FprpBp0wtFGS",
"FJHPFHFFFHJpte>@$$s,pSSSewtBpUGG",
"MFFFFBILVVHBB1#jjfk&Bpp8pBBBILUS",
"GGFmFBBFHVBFe dbCnj$5eetByFLBFHS",
"ymSBBBFFBppBy.dcAZgo<e0rqmmFFMpF",
"FHPHHBpypypMeOdcvghXqwwpyyyFmpHF",
"HHVVypMFpmy0*%$kdaa.8HpieemMpyFF",
"SJBUHipBere;;;<+X.+ qKpwepFFpyyF",
"SFLHrBBetwey009e88F6-0uiemiBBFBp",
"FHHmJGStyeutw44euMSperperrpprpFF",
"pFHHSSpBpyHiwwwpyrGpFFypmrprptBB",
"HFFmyBJFypyBFiwuymGpStwFpByteeBJ",
"FFpSypFFy0pBpyuBFFFFpuwpttryytSm",
"FpmmyGpBB9eyetrppHFpBpuyBmFpBFmS",
"FJDm8SSiit6eeFtyBF8tFmprpFyBFmmF",
"GGFpGGJSSFStFHLFFpmmGpMMpypSmmDG",
"FFHJyymmSDFBBBLS8SmSmmFGppyFGGGP",
"GGHFymSrySpBLFBFHSrFKKNNFpyLGGJK",
"mpptSFFFHBBBFLFFSmmGGJmpFpMFFGMM",
"MMBmmFmmFHUUVFFHJyNGGGNyFMpMpmmF"
};
