/* XPM */
static char *destroy_8[] = {
/* columns rows colors chars-per-pixel */
"32 32 64 1 ",
"  c #5E4E2A",
". c #5F552D",
"X c #654E28",
"o c #694D28",
"O c #774F2B",
"+ c #7B4F2A",
"@ c #6C512B",
"# c #72522C",
"$ c #7A552D",
"% c #7E582F",
"& c #685430",
"* c #645C31",
"= c #695E36",
"- c #745C32",
"; c #7B5B32",
": c #656135",
"> c #6F6335",
", c #64653F",
"< c #6C6539",
"1 c #6D6B3D",
"2 c #726436",
"3 c #7A6236",
"4 c #736639",
"5 c #7C6639",
"6 c #746F3F",
"7 c #7B6A3C",
"8 c #76723F",
"9 c #7B703F",
"0 c #656540",
"q c #6D6D43",
"w c #736F41",
"e c #6F7245",
"r c #747444",
"t c #7A7644",
"y c #767946",
"u c #7C7A46",
"i c #757649",
"p c #757A49",
"a c #7C7D49",
"s c #835D32",
"d c #885930",
"f c #836436",
"g c #896234",
"h c #826538",
"j c #836B3C",
"k c #896C3C",
"l c #946737",
"z c #85713F",
"x c #9B723D",
"c c #827542",
"v c #827C46",
"b c #897B46",
"n c #827E49",
"m c #7E814B",
"M c #7E884E",
"N c #848047",
"B c #8B8047",
"V c #83834B",
"C c #8A844B",
"Z c #85894E",
"A c #89894D",
"S c #878751",
"D c #858B52",
"F c #898D52",
/* pixels */
"CuvntvVSBaMVmmnkhunnvvVCvvVVVVvv",
"VvapSnmVmZar7kxlhccnvtaNvvaVVAvv",
"auuapuuVau6& -dgCvVvVjhczvCVNVvV",
"VuuaatnVuyu8.43wnbbVCB%$3vCuNAVA",
"inuanauvVCVvVDmVnvnCCVdO$fvCCVnu",
"nuiwniinCuvVnmVaVbVCBzsj$oX7Vvvu",
"mvwt7=tarypmVmaaVCvvACCnv774nvnv",
"aaq75<iaVymppmaVAatACbvnVvnnuCau",
"t1<nvraAV1maapaayruANvtVabvmV8Na",
"aannvuaVm6yVuqpaaarNAaauVZNvZ8au",
"VCnnVVnCarqmpuaAAmtVNvNvCZVVmNNV",
"VVAVVAnaNVyumeuVVuVNmVuuuVZnmvmV",
"v<CFANVAVaaVqraumMVvVNtuMm1etVZN",
"v*8DVZVnVZCaprqaVVVaaVmNreymumVC",
"V8.vVmFDMmSVarrMZZmNVattummyD1:z",
"C2>vVMmVDMmVapaVVVVVmryrmaZZV8mV",
"t@taumVVmaamVVuAuauVirqrrcvnVjmn",
"a@9ZZVauaumaaVVVmyaapeenuuaVvtZV",
"C-aMumnVavurmvnVmtVVnVaprtvnatVV",
"N%yDZyamytrutraVaaVZDSaeraVVa5cV",
"NjjVtmmrrerNeqqeamVueepppapm9-mN",
"aZkjABVyurpye00eyvVvuuarttuar8Vm",
"uVvvNNmmauZpeeryauCamVuavruuarmV",
"AVjcumAVuaymVpqyuvCuVuenuMur1rmF",
"Vnujj39VuqaamupmVVVZaieatytt.rVv",
"Vvvnh+-ma0rarytvuZVyaatamnV4>Vvn",
"VCCvtg#rurerrt#taV9uVmataVanVvbV",
"CCVaCbs#vVuuV7#vVNvvVvnauuanvvCC",
"VVZCvaj$-nAav;%f9j3733VFaauVCCCF",
"CCZZtvu$##-7hctf%$$$O5bbVauDCCCS",
"naupNVNh;33%jDMVj;7bjCcumavVDCVn",
"nvVvvVvtvZDAaVVZAuvCCVVuAbanavvn"
};
