/* XPM */
static char *destroy_3[] = {
/* columns rows colors chars-per-pixel */
"32 32 130 2 ",
"   c #3C2811",
".  c #45250E",
"X  c #4B250E",
"o  c #41280F",
"O  c #55240F",
"+  c #462612",
"@  c #4C2610",
"#  c #452B12",
"$  c #4B2B12",
"%  c #562610",
"&  c #5C2710",
"*  c #552811",
"=  c #5A2B12",
"-  c #483317",
";  c #4C3519",
":  c #4B3B1C",
">  c #513D1E",
",  c #602712",
"<  c #662E14",
"1  c #6A2D15",
"2  c #702F16",
"3  c #6D3016",
"4  c #733216",
"5  c #783015",
"6  c #743319",
"7  c #7B3519",
"8  c #7C3B1E",
"9  c #4F4221",
"0  c #524422",
"q  c #5A4925",
"w  c #574F2D",
"e  c #594D29",
"r  c #5F552D",
"t  c #5E5B34",
"y  c #714E2C",
"u  c #63572E",
"i  c #78512B",
"p  c #7C582E",
"a  c #615C35",
"s  c #646236",
"d  c #6C6234",
"f  c #636439",
"g  c #696338",
"h  c #66683C",
"j  c #6B6D3E",
"k  c #7A6639",
"l  c #726C3D",
"z  c #786C3E",
"x  c #7F713E",
"c  c #656540",
"v  c #6D6E42",
"b  c #756F41",
"n  c #6F7245",
"m  c #747444",
"M  c #7A7644",
"N  c #767946",
"B  c #7C7B46",
"V  c #747749",
"C  c #757A49",
"Z  c #7C7D49",
"A  c #82351C",
"S  c #88331D",
"D  c #843A1B",
"F  c #8D3C1C",
"G  c #933E1E",
"H  c #A03618",
"J  c #993E20",
"K  c #9C421E",
"L  c #9C491F",
"P  c #A2461F",
"I  c #AD451F",
"U  c #A24A1F",
"Y  c #AC4E1E",
"T  c #AE591E",
"R  c #B55E1F",
"E  c #BE641F",
"W  c #834D29",
"Q  c #81522C",
"!  c #855D32",
"~  c #A14320",
"^  c #A74B21",
"/  c #AD4B21",
"(  c #B74E22",
")  c #B35322",
"_  c #BA5A21",
"`  c #836A3C",
"'  c #84703F",
"]  c #BF6621",
"[  c #BF6A21",
"{  c #C16B1F",
"}  c #C5731E",
"|  c #C16921",
" . c #CA6B22",
".. c #CD7621",
"X. c #D07422",
"o. c #D87324",
"O. c #D47A22",
"+. c #DC7925",
"@. c #E47C26",
"#. c #847542",
"$. c #827C46",
"%. c #827F49",
"&. c #897F48",
"*. c #7D824C",
"=. c #7F8350",
"-. c #D3821F",
";. c #D9901F",
":. c #D08021",
">. c #DB8323",
",. c #DE8C21",
"<. c #DC9120",
"1. c #E38725",
"2. c #E18923",
"3. c #E49123",
"4. c #E89424",
"5. c #E79D22",
"6. c #E99823",
"7. c #E9A321",
"8. c #F4AD23",
"9. c #858047",
"0. c #8C8047",
"q. c #83834B",
"w. c #8A844B",
"e. c #85894E",
"r. c #8A894E",
"t. c #838752",
"y. c #848B52",
"u. c #898C52",
"i. c #869055",
"p. c #899156",
/* pixels */
"w.B $.Z M $.q.r.9.*.*.*.*.*.*.q.Z B %.%.#.$.q.q.$.&.q.q.q.q.$.$.",
"q.$.%.V t.%.Z q.*.e.*.B Z y.u.y.&.$.M 9.q.B *.9.#.#.B q.q.r.$.%.",
"Z B B Z Z C B q.$.Z m Z *.i.*.e.0.#.w.$.q.q.$.9.9.$.q.q.&.q.$.q.",
"q.B B Z Z M Z w.B N B *.t.=.*.q.%.&.w.q.w.w.9.q.q.%.w.B 9.r.q.r.",
"B %.M Z %.%.B %.q.w.w.9.r.q.q.q.q.#.&.w.w.q.9.w.q.&.0.w.w.*.B B ",
"%.C Z b %.V m %.w.M B q.*.*.q.Z %.q.q.q.0.$.q.&.&.%.q.r.9.9.$.$.",
"Z Z b M m V V %.m N Z *.*.*.C *.q.$.` #.r.w.q.&.w.$.&.%.q.Z %.$.",
"%.Z M C M b V Z q.N *.C C *.Z q.q.6 I F ' $.$.q.q.&.&.%.Z w.B B ",
"V M B $.$.m Z r.q.j *.$.Z N Z B M k W ! x 9.M 9.Z &.&.*.r.9.9.Z ",
"M t.q.%.%.B B q.*.v N 9.B n N Z m f f q.e.B B B q.e.9.$.e.*.Z B ",
"q.q.%.%.q.w.%.w.B m n Z g : 9 u # = X # d $.*.$.&.q.e.q.q.*.$.q.",
"w.w.e.q.q.e.$.q.9.*.N s . * X 1 D P G 3 - M #.M B q.t.Z *.#.*.q.",
"q.r.w.u.e.9.q.q.q.B B 0 3 6 O U _ Y L 3 . o r *.*.*.v m x q.e.9.",
"q.r.e.u.q.e.q.q.q.y.0 X 7 K 7 ] O.X.E U D 4 ; $.n n N *.*.i.r.w.",
"&.q.q.q.q.*.i.=.=.j X A L o.>.3.6.} 1.@.T 2 # M B Z *.N i.y.u.9.",
"w.w.q.B q.q.*.q.e.f X = 1 | 6.} E } >.>.L 4 = 0 *.B e.e.*.e.q.q.",
"B $.e.*.Z *.q.q.q.v . , 1 E 7.;.T [ -.2.E / A # m #.$.%.q.%.Z *.",
"9.e.e.e.e.*.Z B Z l X ^ ) R 7.7.| <.8...U 3 @ q B B B q.$.Z e.q.",
"e.e.=.=.Z Z %.%.Z M + P U D O.5.-.5.,.T F 7 $ N N m $.q.Z B q.q.",
"9.r.=.i.q.Z B *.N l # S , D X.4.6.4.E R / 7 X t m B q.q.Z B B q.",
"9.q.y.e.B Z q.m N n   3 % 2 _ @.o. .L ~ J . a V N Z C *.*.q.*.*.",
"q.e.r.$.r.9.q.a l N f : . 6 ~ ( ( K < 7 < : Z V M M Z B M Z 9.*.",
"Z q.y.e.q.9.$.p i B e.C w # X < 7 6 . # e B B z k M B B B N *.q.",
"e.q.q.$.B *.q.A G Q m *.q.C a 9 - > # r q.B n 2 8 *.B N N m *.e.",
"q.q.Z 9.B B q.M Q 8 y B *.M C *.q.q.B q.Z V a D ` B M B B M q.9.",
"q.B $.q.B w.Z *.*.c m B m N N 9.Z e.q.N Z B g V *.$.*.Z Z q.$.9.",
"q.w.w.#.#.9.9.B C N j m N q.N B *.q.m B q.q.Z M Z q.B q.q.$.&.q.",
"w.w.q.Z w.w.r.B 9.9.9.M q.q.y.q.q.B #.&.q.B %.%.B C %.%.&.$.w.9.",
"e.q.e.w.B B q.B 9.w.q.*.*.*.=.q.B 9.$.9.#.%.t.w.Z Z C q.w.0.r.u.",
"w.w.q.e.B #.9.M *.9.B *.=.e.q.9.9.9.B q.r.r.&.&.q.Z B u.q.q.w.r.",
"$.B B C 9.q.q.q.e.*.q.*.e.e.q.q.q.#.#.r.w.r.$.B q.B %.q.q.t.%.&.",
"&.q.q.B B q.&.$.q.q.i.i.=.q.e.e.e.B &.w.w.q.q.B q.&.B %.Z $.$.%."
};
