/* XPM */
static char *destroy_5[] = {
/* columns rows colors chars-per-pixel */
"32 32 156 2 ",
"   c #2C1F0B",
".  c #331C0B",
"X  c #36220D",
"o  c #3B230C",
"O  c #3E2814",
"+  c #3F2F18",
"@  c #43240D",
"#  c #4A240D",
"$  c #55260F",
"%  c #58260F",
"&  c #502E0F",
"*  c #4C2610",
"=  c #432C12",
"-  c #492F14",
";  c #532710",
":  c #5A2711",
">  c #522D12",
",  c #5B2912",
"<  c #4D3317",
"1  c #48361C",
"2  c #46391A",
"3  c #4A3C1C",
"4  c #553314",
"5  c #5A3116",
"6  c #52351A",
"7  c #583E1C",
"8  c #632B14",
"9  c #6A2D15",
"0  c #6A2D18",
"q  c #712F14",
"w  c #633216",
"e  c #6B3315",
"r  c #653518",
"t  c #6E3519",
"y  c #643D1D",
"u  c #683D1D",
"i  c #723317",
"p  c #7C3316",
"a  c #75331A",
"s  c #7B3719",
"d  c #7A391A",
"f  c #63421D",
"g  c #6B401F",
"h  c #77471E",
"j  c #7D531F",
"k  c #4E4527",
"l  c #544523",
"z  c #5A4525",
"x  c #574A24",
"c  c #5A4D29",
"v  c #5F552E",
"b  c #5B5730",
"n  c #5E5B31",
"m  c #624525",
"M  c #6D4625",
"N  c #654825",
"B  c #6E4E25",
"V  c #684A28",
"C  c #724423",
"Z  c #794624",
"A  c #744E2A",
"S  c #63552B",
"D  c #69532E",
"F  c #635A2F",
"G  c #6C592A",
"H  c #71562B",
"J  c #7B532E",
"K  c #7D5828",
"L  c #675534",
"P  c #625B32",
"I  c #6B5D33",
"U  c #735730",
"Y  c #745A32",
"T  c #6C6235",
"R  c #66623C",
"E  c #6D663A",
"W  c #6B6A3D",
"Q  c #756336",
"!  c #75653A",
"~  c #7A6538",
"^  c #736C3D",
"/  c #6F723F",
"(  c #77723F",
")  c #7E723F",
"_  c #6C6D44",
"`  c #726F41",
"'  c #6E7245",
"]  c #747545",
"[  c #7A7644",
"{  c #757947",
"}  c #7C7B46",
"|  c #767749",
" . c #767A49",
".. c #7C7D49",
"X. c #80371B",
"o. c #843C1C",
"O. c #8B3C1D",
"+. c #923C1F",
"@. c #844518",
"#. c #8B461A",
"$. c #8F4A1A",
"%. c #91431D",
"&. c #924E1A",
"*. c #984B1C",
"=. c #9D541C",
"-. c #975A18",
";. c #A14A1F",
":. c #AB551F",
">. c #A55E1B",
",. c #A9591D",
"<. c #B05F1E",
"1. c #AD6A1F",
"2. c #B5611F",
"3. c #BA651F",
"4. c #BD6A1F",
"5. c #B07019",
"6. c #BD721C",
"7. c #854621",
"8. c #9B4520",
"9. c #825822",
"0. c #A74D23",
"q. c #A94C23",
"w. c #A65220",
"e. c #AE5124",
"r. c #A35A21",
"t. c #B15324",
"y. c #B45A22",
"u. c #B95C23",
"i. c #9D6821",
"p. c #87713E",
"a. c #B96123",
"s. c #C3721F",
"d. c #CC7A1F",
"f. c #C76624",
"g. c #CC7222",
"h. c #CE7B20",
"j. c #D37A21",
"k. c #827C46",
"l. c #827E49",
"z. c #897F48",
"x. c #7E824C",
"c. c #7E884E",
"v. c #7F8851",
"b. c #DB8B1E",
"n. c #DC8B20",
"m. c #EE9622",
"M. c #8C8047",
"N. c #83834B",
"B. c #8A844B",
"V. c #85894E",
"C. c #8A894E",
"Z. c #848751",
"A. c #868B52",
"S. c #8A8C52",
"D. c #869055",
"F. c #899155",
/* pixels */
"B.} l...[ l.B.B.N.} x.x.x.x.x.N.l.} l.l.[ k.B.N.k.k.N.N.N.N.k.k.",
"N.k...| Z.l.x.N.N.V.x.....Z.S.Z.k.k.k.k.N.} } N.k.k.} N.N.C.k.k.",
"..} } ....| } N.k...] ..x.D.v.V.z.k.N.k.B.N.} M.k.k.B.V.k.N.k.N.",
"N.} } ....[ l.N.} { { N.V.x.x.x.[ p.z.N.B.B.k.B.k.k.M.} N.C.B.C.",
"| l.[ ..l...} l.B.B.B.k.C.Z.N.B.o + } C.B.N.N.N.B.z.B.M.B.x.} [ ",
"l...| ` l.| [ l.N.} E E T W T x w $.4 f H v ( M.z.N.N.C.M.N.k.k.",
"x.k.` [ | ] | ..[ n @ @ $ : # % a 3.b.j.s.> o I N.k.z.l.N.k.l.k.",
"....| } [ ` | ..x.= 8 0 0 9 $ N H O.a.e.:.d $ 3 k.k.l.l...B...} ",
"[ } } ..k.( x.T 6 , , % % 9 8 } [ M O.#.t $ , w D l p.x.V.N.N.} ",
"..l.N.l.} } } 7 $.9 4 ~ 8 e ^ ....} I u 8 Q z %.*.. ^ x.V.x.} } ",
"N.B.l.k.N.B.W h s.9 5 x.! |  .B.B.x.( N.p.} { : o.=.@ T N.x.N.B.",
"N.B.V.N.N.N.@ i +.q u } x.' ..N.N.} N.N.N.x.g s <.b.& b x.) } N.",
"N.C.C.V.V.I e 4.%.Z [ ..] ] ..} x.x.N...N...d t.u.g.5.c ( N.C.N.",
"N.C.C.V.^ O -.s.+.p.B...| ] _ ..N.N.N.l.} N.Q 7.q.q.j.K x.F.C.M.",
"N.B.x.N.F # =.j.*.t Z.N...] ' c.N.V.x.k.N.} } T t 0.,.m D.A.S.N.",
"M.B.N.k.P 1.w.:.0.A N.l...| ..B.x.B.N.V...] | ^ f i e = x.N.N.N.",
"[ k.B.} . @.%.9 U  .x.x.N.N.} N.} x.} N.{ ] _ r , % , o } N...x.",
"N.V.A.v.n o.O.% w } } k...N.N.V.x.{ } }  .' ' M , : # 3 l...C.N.",
"V.Z.v.x.} r.<.o.8 Y [ _ l.l.l.N.x.} B.N.N.N.} [ 5 # G ..} { N.N.",
"N.C.V.A.V.B s.o.% Q [ } | [ ..l.} ..N.c.Z.N.} z % # c B...} } N.",
"M.N.Z.C.( j b.s $ W ] ~ Q _ _ ] } x.N.} _ ] E a %., X ] N.x.x.x.",
"x.V.V.} N.< -.o.# T C p 9 L R ' | N.N...} | J y.1.@ o 3 [ } N.N.",
"..N.V.V.[   d +., $ O.o.p D ] { } [ B.} ..y O.m.i.R S W } { x.x.",
"V.N.N.k.c X o * a 9 @.,.s f R { } k.B.} [ 8 2.>.z x.[ { { ] x.C.",
"N.N.k.N.T 2 n 2 # @ # 6.t 8 t V Y Y I ^ > : #.< W { [ [ } [ N.M.",
"V.} k.k.} B.} { 3 k 6 d.s.s.,.8 : # , o.9 o 1 | x.k.x.} x.N.} N.",
"N.B.B.} ) z.N.{ { { P =.&.e e * * o , f.#.X ] [ } N.} N.N.k.k.M.",
"B.B.N.} B.B.C.} k.N.N.( R X o x P T Q 9.G ^ k.l.}  .N.x.k.k.B.N.",
"N.N.V.C.} } k.k.N.M.N.x.x.] / l.} k.k.B.k.k.l.C.l. .} N.B.B.B.S.",
"B.B.C.N.} k.x.[ x.B.[ x.Z.N.N.k.N.k.k.N.V.B.z.z.N.x.} Z.M.B.C.Z.",
"k.} } { N.N.M.N.N.x.x.N.V.Z.N.N.N.k.k.z.B.S.k.k.x.} k.N.N.B.l.l.",
"k.N.N.} } B.k.k.N.V.D.A.c.N.V.V.C.} k.M.z.B.N.} N.N...N...k.k.N."
};
