/* XPM */
static char *destroy_4[] = {
/* columns rows colors chars-per-pixel */
"32 32 160 2 ",
"   c #38170C",
".  c #35220C",
"X  c #3C220C",
"o  c #431E0C",
"O  c #4A1E0F",
"+  c #44220D",
"@  c #4A240E",
"#  c #57230F",
"$  c #4D2612",
"%  c #432E13",
"&  c #4C2E14",
"*  c #542511",
"=  c #5C2514",
"-  c #532A12",
";  c #5B2B13",
":  c #453114",
">  c #463718",
",  c #4C3719",
"<  c #473A1C",
"1  c #4C3B1C",
"2  c #513318",
"3  c #543C1E",
"4  c #652D14",
"5  c #6A2D14",
"6  c #7B2B12",
"7  c #722719",
"8  c #702F18",
"9  c #6E3115",
"0  c #753717",
"q  c #7D3116",
"w  c #753917",
"e  c #7D331A",
"r  c #7C3919",
"t  c #544725",
"y  c #5A4221",
"u  c #554A26",
"i  c #564E2A",
"p  c #594D29",
"a  c #5D522B",
"s  c #5A5630",
"d  c #5E5B34",
"f  c #605631",
"g  c #635C32",
"h  c #656237",
"j  c #696236",
"k  c #69673C",
"l  c #66683E",
"z  c #6C6D3D",
"x  c #716D3C",
"c  c #7A6B3D",
"v  c #71713F",
"b  c #656540",
"n  c #6D6E42",
"m  c #756F41",
"M  c #6F7145",
"N  c #747445",
"B  c #7A7644",
"V  c #757947",
"C  c #7C7A46",
"Z  c #757649",
"A  c #767A49",
"S  c #7C7D49",
"D  c #802F14",
"F  c #932E14",
"G  c #853216",
"H  c #8C3316",
"J  c #81321B",
"K  c #8C361A",
"L  c #833A1C",
"P  c #8B3C1D",
"I  c #963417",
"U  c #9B3115",
"Y  c #953B17",
"T  c #92351A",
"R  c #933C1C",
"E  c #913F20",
"W  c #A53D22",
"Q  c #B33C25",
"!  c #854419",
"~  c #8E401D",
"^  c #93431D",
"/  c #9F461F",
"(  c #964A1E",
")  c #9C4B1D",
"_  c #95501B",
"`  c #9F511E",
"'  c #A5461E",
"]  c #A44E1E",
"[  c #AB561F",
"{  c #AA5C1D",
"}  c #A6611C",
"|  c #AE641D",
" . c #A26B1A",
".. c #B3661E",
"X. c #B36B1E",
"o. c #BA7B1D",
"O. c #8B4221",
"+. c #8E4E29",
"@. c #83572F",
"#. c #8A552D",
"$. c #8D582F",
"%. c #825F35",
"&. c #8C5B31",
"*. c #A34421",
"=. c #A24D20",
"-. c #B24025",
";. c #B84C23",
":. c #AA5720",
">. c #AF5D21",
",. c #B25B20",
"<. c #BA5E22",
"1. c #856336",
"2. c #8A6637",
"3. c #806539",
"4. c #846A3D",
"5. c #8C6B3B",
"6. c #84713E",
"7. c #8B713E",
"8. c #BB6721",
"9. c #C26D1F",
"0. c #C45A24",
"q. c #CB6E23",
"w. c #C27420",
"e. c #C87422",
"r. c #DA7C23",
"t. c #817542",
"y. c #887140",
"u. c #827C46",
"i. c #8C7F47",
"p. c #827F48",
"a. c #897F48",
"s. c #7E824C",
"d. c #7F8350",
"f. c #C9811F",
"g. c #C58A1F",
"h. c #C9881E",
"j. c #D38A1E",
"k. c #DFAC1F",
"l. c #EBA61F",
"z. c #F4B51E",
"x. c #D68121",
"c. c #DE8723",
"v. c #E18A23",
"b. c #E49422",
"n. c #E89322",
"m. c #E39C20",
"M. c #DEA220",
"N. c #F2A622",
"B. c #F2B420",
"V. c #FCC720",
"C. c #858047",
"Z. c #83834B",
"A. c #8A844B",
"S. c #85894E",
"D. c #8A894E",
"F. c #878751",
"G. c #848B52",
"H. c #898C52",
"J. c #869055",
"K. c #899156",
/* pixels */
"A.C p.S B p.Z.A.C.C.s.s.s.s.d.s.C.S s.Z.u.u.Z.Z.t.p.Z.Z.Z.Z.u.u.",
"Z.u.p.Z F.p.s.Z.s.S.s.A S S.J.S.Z.6.c C.Z.C S Z.a.t.C Z.Z.D.u.p.",
"S C C S S Z B Z.s.C Z s.s.J.d.A.A.u.A.C.A.C.u.C.C.u.A.Z.u.A.u.Z.",
"Z.C C S S B p.Z.C V B C S.d.d.s.u.u.A.Z.A.A.p.A.u.p.A.C Z.D.Z.D.",
"S S B C F.S C p.A.A.A.C.D.Z.s.Z.t.&.7.D.A.Z.C.A.a.i.A.A.A.Z.C B ",
"p.A C N S Z B u.Z.B s.C.s.s.Z.S p.5.6.C.A.Z.Z.a.a.p.A.D.C.Z.u.u.",
"S S m B Z Z Z S B A A s.Z.s.S S Z.A.u.u.A.A.a.p.Z.u.p.p.Z.p.p.u.",
"p.C Z C B m Z p.s.N s.V A s.S Z.A.u.C D.A.u.u.Z.Z.a.p.p.S A.C C ",
"Z C C S u.N S D.Z.z s.u.s.z C C k t p x u.u.B Z.S a.p.Z.D.Z.s.C ",
"C Z.Z.u.Z.C C Z.s.z Z z < X p p ; ; X X % x C B Z.S.C.u.A.s.C C ",
"Z.A.p.p.Z.A.Z.A.C N g . @ + @ ) <.# @ + ; y S u.A.Z.Z.Z.Z.u.Z.Z.",
"Z.A.Z.Z.Z.Z.u.Z.Z.p.u ; L w { b.x.5 # 4 5 2 , g C p.G.p.s.u.s.Z.",
"Z.D.D.K.S.C.p.Z.s.a : ; q.b.V.l.9.^ <.j.| 4 @ 1 s.A n N v A.A.Z.",
"Z.D.D.D.Z.Z.s.Z.h # 4 J 8.x...[ ) K q.w.M.g.= & N M A A s.K.A.A.",
"A.Z.Z.Z.Z.s.G.G.> X *.-.L ^ R K R Y :.T ( B.{ $ v s.s.s.J.J.K.C.",
"A.A.Z.C Z.S.s.Z.> $ ;.*.J 6 G F F I *./ K X.c.~ & v Z.S.s.Z.Z.Z.",
"v C.Z.s.s.Z.Z.Z.g * ^ r.=.H P 7.4.R I G 6 L [ ^ ; j u.p.Z.Z.S s.",
"Z.S.H.G.s.s.C C a o } n.>.R P Z.s.3.+.L G P 4 o @ x C p.u.S S.Z.",
"D.K.d.d.s.C C Z.j O o.X.e G L 2.p.O.U R O.=.9 + g N u.Z.s.V Z.Z.",
"Z.A.d.J.Z.C C s.a    .g.7 6 6 U @.%.H R ^ c.8.4 g S p.Z.S C u.Z.",
"C.Z.H.Z.B s.s.Z s @ _ h.8.r q L q L R ` j.N.>.4 i p.V s.C Z.s.s.",
"C.S.D.s.D.6.c B h - = * e.<.L ~ P E ) z.k.| - d B B S C B C Z.Z.",
"s.Z.S.A.Z.#.1.Z.C s > @ ~ 0.*.Q / { f.M.* $ 3 C u.B C C C V s.s.",
"Z.Z.Z.s.C 4.$.Z.C S Z u ; 9 4 q ~ r.n.! + 1 l u.B s.C V V v s.K.",
"Z.Z.s.C.c s.c Z.C n S S h p <   - w w @ z Z M C V V B C C C Z.u.",
"Z.C C.Z.s.A.C s.S l N C Z A B j g k a t S C Z C s.t.Z.S S Z.u.C.",
"Z.D.A.c c C.C.V S V v N B Z.S C C A.N C Z.s.p.B $.1.C Z.Z.p.p.Z.",
"A.A.C.s.D.D.A.C.C.Z.C B s.Z.S.Z.Z.s.t.p.Z.u.p.B 3.C p.S p.u.i.Z.",
"s.Z.A.D.u.C Z.C C.C.Z.s.s.s.S.u.B u.u.C.t.p.Z.A.p.S C p.A.A.A.H.",
"D.A.A.Z.B u.Z.v s.Z.C s.G.Z.s.Z.Z.C.u.Z.F.A.A.a.Z.A C G.A.C.D.D.",
"s.C S V Z.C.A.A.S.s.s.Z.d.G.Z.S.Z.t.u.A.A.D.u.C d.S p.Z.Z.F.p.a.",
"p.C.Z.C u.Z.C.u.Z.A.K.J.d.Z.Z.S.D.u.u.A.A.A.A.C Z.p.S p.p.u.u.p."
};
