/* XPM */
static char *destroy_2[] = {
/* columns rows colors chars-per-pixel */
"32 32 109 2 ",
"   c #3F260F",
".  c #45260F",
"X  c #4C250E",
"o  c #4A290F",
"O  c #52250E",
"+  c #442D13",
"@  c #4C2910",
"#  c #522710",
"$  c #562810",
"%  c #5D2B13",
"&  c #453116",
"*  c #483015",
"=  c #4A3619",
"-  c #473A1D",
";  c #4E3A1C",
":  c #5C3010",
">  c #503C1C",
",  c #632B13",
"<  c #6A2D14",
"1  c #722E14",
"2  c #683014",
"3  c #6F3018",
"4  c #7A3617",
"5  c #773519",
"6  c #7F341B",
"7  c #7C3C1C",
"8  c #4E4425",
"9  c #514524",
"0  c #594E29",
"q  c #5B552E",
"w  c #565334",
"e  c #734422",
"r  c #61592F",
"t  c #615C31",
"y  c #725A31",
"u  c #7C5A31",
"i  c #6A6336",
"p  c #66673B",
"a  c #6E6A3B",
"s  c #656540",
"d  c #6D6E42",
"f  c #746F40",
"g  c #7E6D41",
"h  c #6F7145",
"j  c #747445",
"k  c #7A7644",
"l  c #767946",
"z  c #7C7A46",
"x  c #757649",
"c  c #757A4A",
"v  c #7C7D49",
"b  c #823517",
"n  c #84361C",
"m  c #89361C",
"M  c #843A18",
"N  c #8C3C1D",
"B  c #973F20",
"V  c #9C3A20",
"C  c #9B471E",
"Z  c #A6411C",
"A  c #A24C1E",
"S  c #A94E1F",
"D  c #B65E1F",
"F  c #9F4720",
"G  c #A04920",
"H  c #B44722",
"J  c #B14D22",
"K  c #B55023",
"L  c #BB5124",
"P  c #8D6937",
"I  c #816638",
"U  c #896E3C",
"Y  c #9F6132",
"T  c #916B3A",
"R  c #93763F",
"E  c #C36F1F",
"W  c #C4711F",
"Q  c #CC7E1F",
"!  c #C55F22",
"~  c #C96E21",
"^  c #C97520",
"/  c #D67524",
"(  c #D07E20",
")  c #E27827",
"_  c #8F7641",
"`  c #827C46",
"'  c #827F48",
"]  c #897F48",
"[  c #967E45",
"{  c #7E824C",
"}  c #7F8350",
"|  c #7F8952",
" . c #DD8F1F",
".. c #ECAC1F",
"X. c #E38425",
"o. c #E39D20",
"O. c #EA9A23",
"+. c #ECA421",
"@. c #858047",
"#. c #8C8047",
"$. c #83834B",
"%. c #8A844B",
"&. c #85894E",
"*. c #8A894E",
"=. c #878751",
"-. c #848B51",
";. c #898C52",
":. c #869055",
">. c #899156",
/* pixels */
"%.z ` ' k ` $.=.%.z { | { { { $.z k @.' k ` &.%.` ` { $.$.$.` ` ",
"$.` v c =.' v $.$.&.{ c v &.:.&.%.` k %.$.z z @.` ` z $.$.*.` ` ",
"v z z v v c z $.z z x v { :.} &.] ` %.` %.%.` @.' ` %.%.` $.` &.",
"$.z z v v k v %.z z l { &.} { { ' ` ' %.@.*.` %.` ' ] z @.%.%.*.",
"k } z z ' v z ` @.%.%.` *.$.$.$.] ` @.*.%.$.&.] %.] %.#.*.$.z z ",
"' c k f ' x k ' &.k z %.{ { { v ' ' $.@.%.` %.' ] ' %.*.$.` ` z ",
"{ z f k x x x v j z c { $.{ c { *.%.z ] *.#.%.' $.` ] ' $.' ' ` ",
"' z x z k f x $.$.l { c c { v $.%.z k *.#.' ` %.%.' ' ' v %.z z ",
"x z z v z j { *.&.a { z v z v z j j k [ R z k @.v ` ` { *.$.{ z ",
"z $.$.' ` z ` $.z d j &.k d c { z v j 7 P { z z %.*.@.z &.@.z z ",
"$.$.' ' $.*.` %.` j h v z c v j r p a i @.` @.` %.&.$.%.{ $.@.&.",
"%.%.*.$.$.*.` v $.{ l z r & ; o % $ + $.@.{ ` k k { -.' { z z %.",
"$.*.*.;.*.' ' &.$.z z a o , O < C N # > i { a ` { { d j k &.&.@.",
"$.*.&.*.%.&.$.$.{ &.z = # C M n A G 5 , * { &.' j h l v z >.%.#.",
"%.$.{ &.$.{ :.-.| { q % N ! / ( E C 1 , o j { a z { { c -.;.>.` ",
"%.%.` z { $.{ $.$.{ 8 < K ) O.+. .D b , # ; z j { z &.&.| $.&.$.",
"z ` @.{ { { $.$.$.c 9 3 K ~  .....) J M % 9 d k f ` ' ' $.' v { ",
"$.&.*.&.&.$.z z z z r # 2 M ^  .E / H m @ p d z z z z $.' ' =.$.",
"*.=.| { z z $.{ v z q o , n J F F J V 1 . k v z x j ` ' v z $.$.",
"@.&.| :.&.c v $.l k p   , A N 5 4 m 6 # p =.z h j z $.$.v z z $.",
"@.{ ;.&.z { { v l x j a - : 2 # X O @ 0 h j c c l v c { { { { $.",
"$.&.&.` *.%.$.a z u e c h w 8 = ; + a v y f v j k z z z k z &.{ ",
"v $.&.*.*.%.{ $.z U _ { h d j c z k %.z u Z T z ' k z k z x z $.",
"&.$.$.v a { &.$.c z x { $.c d l ` ` %.z ` Y g ' z { z l j j { >.",
"%.$.v ' k z $.$.k f v v v z c $.' $.$.&.v x h v l k k z z l %.` ",
"$.z ` ` ` %.{ { { p x z x c j v z &.$.z { z k z { ` $.v { $.` ` ",
"%.%.%.` a @.@.c c l d j j $.z z z &.j k $.{ z k v &.z $.$.` ' %.",
"$.&.` { *.%.%.{ ' $.` z { &.&.$.{ $.` ' $.` ' ' z c ' z ' ` %.@.",
"$.$.&.%.] ` @.z @.%.$.{ { { &.` k ` ` @.` ` $.*.v v z $.%.#.*.=.",
"&.%.&.&.k ` @.k z @.z { -.$.{ $.&.` ` %.=.=.] ] $.v z -.%.%.*.=.",
"` z z x $.@.$.%.&.{ { $.&.-.| $.%.` ` %.%.;.` z { z ' $.$.*.' ' ",
"' ' $.` z &.` ` $.&.:.:.{ $.$.$.*.z ` #.#.$.%.z $.%.z ' v ` ` ' "
};
