/* XPM */
static char *destroy_6[] = {
/* columns rows colors chars-per-pixel */
"32 32 106 2 ",
"   c #3F210B",
".  c #4C240D",
"X  c #5C280F",
"o  c #462E13",
"O  c #492D13",
"+  c #522710",
"@  c #552A12",
"#  c #5B2B13",
"$  c #483417",
"%  c #553216",
"&  c #543518",
"*  c #5A361B",
"=  c #51391C",
"-  c #5C3A1D",
";  c #652E14",
":  c #692F16",
">  c #6D3017",
",  c #65361A",
"<  c #6C3619",
"1  c #643C1E",
"2  c #6B3C1D",
"3  c #753317",
"4  c #7B3517",
"5  c #763319",
"6  c #7C3419",
"7  c #743B1D",
"8  c #7A3C1C",
"9  c #5B3E20",
"0  c #763E20",
"q  c #574423",
"w  c #5C4423",
"e  c #514A26",
"r  c #5E4825",
"t  c #5C4D2A",
"y  c #5D522C",
"u  c #634523",
"i  c #6A4322",
"p  c #644926",
"a  c #6A4926",
"s  c #624F29",
"d  c #6C4E2A",
"f  c #754320",
"g  c #7C4321",
"h  c #714C27",
"j  c #704C28",
"k  c #65522B",
"l  c #6A552D",
"z  c #6F582E",
"x  c #76522B",
"c  c #695730",
"v  c #665C36",
"b  c #6A5C32",
"n  c #735E32",
"m  c #676035",
"M  c #6A6337",
"N  c #6A6837",
"B  c #65633B",
"V  c #6C6639",
"C  c #6C6A3D",
"Z  c #716437",
"A  c #726639",
"S  c #736C3C",
"D  c #796E3D",
"F  c #74703D",
"G  c #7B713F",
"H  c #656440",
"J  c #6D6D43",
"K  c #756F40",
"L  c #6F7145",
"P  c #747444",
"I  c #7B7644",
"U  c #767946",
"Y  c #7C7A46",
"T  c #757649",
"R  c #757A49",
"E  c #7C7D49",
"W  c #83361B",
"Q  c #8A361D",
"!  c #83391B",
"~  c #8B3C1C",
"^  c #923E1D",
"/  c #983D1F",
"(  c #80431D",
")  c #94411D",
"_  c #A5451F",
"`  c #A4481F",
"'  c #894320",
"]  c #9A4120",
"[  c #AC4721",
"{  c #AB4821",
"}  c #B64923",
"|  c #83713F",
" . c #807744",
".. c #827C46",
"X. c #827E49",
"o. c #897F49",
"O. c #7E814B",
"+. c #7E884E",
"@. c #8C8047",
"#. c #83834B",
"$. c #89844B",
"%. c #86894E",
"&. c #89894E",
"*. c #878751",
"=. c #848B52",
"-. c #8A8C52",
/* pixels */
"$.Y ..E I ..#.*.....O.+.O.O.*.E E I $.X.I ..#.@.I @.#.#.#.#.....",
"#...X.R *.X.E #.#.%.O.R E *.=.A Z .. ...#.Y O.#. ...E #.#.&.....",
"E Y Y E R Y Y #.Y E T U B b 0 6 ; w $. .Y m ..#.#...#.#.#.@...#.",
"#.Y Y E E I E $.V y k 8 6 5 W + O l $.#.1 @ Z k D ..@.E #.&.#.&.",
"R E I X.*.Y I ..D @ 1 < X ; # . D  ...$.a 3 W ~ M @.$.@.@.#.I I ",
"X.Y Y K E T I K w b E S @ w u p E $.O.$.| + # ! 7 s N &.#.#... .",
"O...K I P T K % M U R O.O.O.E E %.$.Y o.n X . : ) } %  .#.E #...",
"E Y T T V 1 : 1 #.U O.R R O.E #.#...I &.| a A i ( ( 3 M E $...U ",
"T Y I d 6 3 1 , I C O.E E R E Y U U F &.@.#.I I P  .d < ..#.#.Y ",
"Y #.K 5 h I #...Y J U $.I J R O.E O.U #.#.#.Y I $.&.@.; s #.I Y ",
"$.$.S $ E $...$.O.P J O.R E E %.&.O.G #.@.Y #. .X.#.G @ D #...#.",
"X.$.F o #.&.E #...O.U Y E P E #.#.Y #.#.#.O...I I S p w O. .O.#.",
"#.#.h 4 Y ....#.#.E Y #.K L E U O.O.#.#.#.#.G O.O.R C w F #.$.@.",
"#.#.2 ` f I =.#.#.%.&.E R T J E #.#.#.E E #.#.O.P F Y O = D #.#.",
"..#.U 4 ! V -.+.+.+.#.#.E T L +.#.&.O.#.#.E E P Y O.O.$ > @ e G ",
"$.$.z ~ a #.O.#.%.+.*.E E U E $.O.#.#.#.Y T P U O.E #., - E O.O.",
"E I 8 4 - O.#.%.O.O.O.O.#.#.E #.Y O.U #.R T J I F  .I : a O.O.O.",
"$.#.g 4 q #.Y U E I O...E #.$.#.#.U Y ..R L L E Y Y Y l 2 O.%.@.",
"#.=.x ) q E ..$.E I U P O...X.#.O.U #.#.X.#.E E T P D f 3 P #.O.",
"$.$.u ~ ; w F O.U I G E P T X.O.Y #.O.%.*.*.R L P E z 6 2 Y I #.",
"#.O.O.Z ! w #.T U P P #.J J J L Y O...Y L P R R T Y U * l #.O.O.",
"..%.$.n ! A #.C E P R P L H B T U #.#.#.Y U E P I I F * N Y #.#.",
"Y #.O.% ~ 8 u 0 S U $.O.L J P U Y I $.E O.#.U Y ..I $ 3 F U O.O.",
"$.#.O.U M ! ` ) k Y L O.#.T b P I ..$.E #.Y P X.I y # * L F O.-.",
"#.#.E @.G m ( ^ , v R Y X.j ) i $...$.%.E T P E C = 9 C U Y #...",
"#.O...#.O.#.s / 6 9 T I L ( ! % K Z M M k A T U +.X.#.E X.#.....",
"@.$.$.Y G @.G 2 6 : - t f ` 6 #   @ 5 > 5 % P P Y #...#.#.....$.",
"$.$.O.O.#.@.&.k Q W W / } f k 3 ^ ~ > Q 6 V $.X.Y R X.E @. .$.$.",
"%.$.%.$.Y Y #.N 8 Q i 8 W B %.M 8 j b d a X.#.$.E O.Y #.$.$.$.-.",
"#.#.$.%.Y ..#.G $ m E U N #.#.#.#.X. .#.#.*.$.o.#.R Y =.$.#.&.*.",
"..E Y U @.#.@.#.F O.#.#.#.=.#.#.#. . .$...-...Y #.Y X.#.*.$.X...",
"..#.#.Y E #.....O.%.-.=.O.#.%.%.&. .o.&.$.$.$.Y #.$.Y X.E ....#."
};
