/* XPM */
static char *destroy_0[] = {
/* columns rows colors chars-per-pixel */
"32 32 44 1 ",
"  c #5B3A1D",
". c #6A2C15",
"X c #732E17",
"o c #773417",
"O c #793118",
"+ c #5D4925",
"@ c #62532F",
"# c #645B33",
"$ c #666035",
"% c #64653F",
"& c #6C683A",
"* c #736D3D",
"= c #656540",
"- c #6D6D43",
"; c #756F41",
": c #6F7245",
"> c #747445",
", c #7A7644",
"< c #767947",
"1 c #7C7A46",
"2 c #757649",
"3 c #767A49",
"4 c #7C7D49",
"5 c #833B1A",
"6 c #97461D",
"7 c #D07823",
"8 c #827C46",
"9 c #827F48",
"0 c #897F48",
"q c #7E824C",
"w c #7F8350",
"e c #E49325",
"r c #EFB023",
"t c #858047",
"y c #8C8047",
"u c #83834B",
"i c #8A844B",
"p c #85894E",
"a c #8A894E",
"s c #878751",
"d c #848B52",
"f c #898C52",
"g c #869055",
"h c #899156",
/* pixels */
"i184,8usu1qwqquu119988uu88uuqu88",
"u893s94uupu34pgd988uu14u888uua08",
"4114411u14<4qgqa08t8ut8t88iutu8u",
"u1144,4i1<1qdwqq980iiiti80i,tiup",
"49,19419uiitaduu080uiuuiu0iyiu11",
"442;42,9i11t4qu490uuy0u00uiaut88",
"48;,,2,4><43uq44ui10auy0i8099998",
"9424,:24u<q33q4ui41ai01u90994a1,",
"21148*qat-q14341>><pi1,0408qatq4",
"19u9u1qu1:<u1-3q1q<tiq,1upttpt11",
"ui99ui8i1>>4133iaq,ut8q8uiiuqttu",
"uisuup8utq<1q:4ut1uttq811uwqq8qu",
"uaaaf8uuu11t:>41qqttuu11q4::,pit",
"uapfupuqudpq<>-&>uqq1utq>:<q4gii",
"uuuuuqgdwwpuq:@..+*tu41*4qq3dgh8",
"iyu8uuqupwqu1&o7e5#p3>1<q1uppupt",
"18iqqquuu43ta#Oer6$u2<-,>899u94u",
"tppdpq1141q444 5o *q2:-4111u94pu",
"pfww448u41,;u91*&<pu9i44<>89q<iu",
"tpugp<4u<,>1<,944tqpwd4:;1uu4419",
"tufu44q<<->9:-->,qu1->33<4<41uqu",
"qpp8iiq>1<3<:=%:<ttq1<42,,44,1uq",
"4ufutu4u41p3:::<11i1qu118,114<qq",
"puqu8qpu<11qu3-<18i4u1:91q1<>>th",
"uuq011qp1-4q11<qtutp42:4<<,11<u0",
"u8881y4qq%>1>3114pu44421q8u44u10",
"uai8*yt<<<>><u444u>,iq4,4u1uq80u",
"iut4iiiqti1>quputq88i19u1449t8yt",
"uupi81u8ituqqqdt1t1u889i441uiiif",
"aupu18q,1i1qduquut,isa00u41diuas",
"88q<tuttpquqqduuu88yia81s19uua90",
"99u81u80uuggwiupa10iiui1u9194889"
};
