/* XPM */
static char *destroy_7[] = {
/* columns rows colors chars-per-pixel */
"32 32 95 2 ",
"   c #3D2D12",
".  c #45240C",
"X  c #442D13",
"o  c #542910",
"O  c #5C2D13",
"+  c #453719",
"@  c #64280F",
"#  c #642C12",
"$  c #692E14",
"%  c #732A11",
"&  c #782F13",
"*  c #633E1D",
"=  c #753116",
"-  c #7B3216",
";  c #743319",
":  c #7B351A",
">  c #7C391B",
",  c #4F4322",
"<  c #5C4623",
"1  c #5E4C29",
"2  c #5F562D",
"3  c #634723",
"4  c #6C4321",
"5  c #614926",
"6  c #6C4A27",
"7  c #6F4E29",
"8  c #754424",
"9  c #7D4222",
"0  c #724A26",
"q  c #7B4927",
"w  c #734B29",
"e  c #7C4D29",
"r  c #7D522C",
"t  c #645531",
"y  c #665E31",
"u  c #6B5C32",
"i  c #7B5730",
"p  c #755C33",
"a  c #7C5B32",
"s  c #646236",
"d  c #696135",
"f  c #65653D",
"g  c #6C673C",
"h  c #6D6A39",
"j  c #726336",
"k  c #71653A",
"l  c #7D6639",
"z  c #726A3D",
"x  c #7E6C3C",
"c  c #6E703F",
"v  c #656540",
"b  c #6D6D43",
"n  c #746F40",
"m  c #6F7245",
"M  c #747444",
"N  c #7A7544",
"B  c #757947",
"V  c #7C7A46",
"C  c #757649",
"Z  c #757A49",
"A  c #7C7D49",
"S  c #813719",
"D  c #893718",
"F  c #81381C",
"G  c #893D1D",
"H  c #A03C1A",
"J  c #8A401E",
"K  c #834523",
"L  c #874D27",
"P  c #874E28",
"I  c #894E28",
"U  c #82532B",
"Y  c #865A2F",
"T  c #90542B",
"R  c #845B31",
"E  c #8B5D31",
"W  c #AF5426",
"Q  c #B15124",
"!  c #856537",
"~  c #836D3D",
"^  c #82703F",
"/  c #837642",
"(  c #827C46",
")  c #8A7D45",
"_  c #827F49",
"`  c #897F49",
"'  c #7E814B",
"]  c #7E884E",
"[  c #83834B",
"{  c #8A844B",
"}  c #85894E",
"|  c #89894D",
" . c #878751",
".. c #858B52",
"X. c #898D52",
/* pixels */
"{ V ( A N ( [  .` V ' ] ' [ ) E P N _ _ ( ( [ { ( / [ } ' [ ( ( ",
"[ ( _ Z  ._ ' [ [ } A z a T Q Q P x / _ [ ^ V [ / ( V { [ | ( ( ",
"A V V A Z V V [ V A g O o & H K { / [ ( | U Y ~ ^ ( [ [ ( { ( [ ",
"[ V V A A N A { V V N s   1 4 p _ ) { [ { ^ - = 8 [ { N [ | [ | ",
"N  .N V _ A N _ { { { [ _ ..' [ _ / ` [ { ( % % @ P ~ { { [ ( N ",
"A Z N N _ C N _ [ N ' ( _ ' [ A _ { [ { { ! G r $ @ o 6 [ ( ` N ",
"A ( n N a 1 M A M V Z ' ' ' A A [ { A ` { ) { ` ( p d 1 ( ( [ ( ",
"_ V v i i t m [ ' V ' Z Z ' A [ { A N | { ` ( [ [ [ ` [ M [ V V ",
"C f 2 V ( M ' | [ m ' V A Z A V N B V | [ ' x [ V ( ^ [ ' y [ V ",
"V N [ ( ( V V [ ' h B [ V b Z A ' ' c ' { ' ' N [ | [ ( [ h V V ",
"[ [ _ _ [ { [ { V M M A Z V A } [ ' x } [ ^ [ ( { [ | [ [ ] [ { ",
"[ [ { [ [ | V [ [ ' B V ' M Z { [ V [ [ [ [ ( N N [ } ' ' x ' [ ",
"N , | | } [ [ [ [ ( V [ n M A V ' ' [ [ [ ' N ' ' ' c c c } { { ",
"N X y | [ [ } [ [ ..} A Z M b A } [ [ V ( [ [ ' M m Z ' [ c [ { ",
"[ d . V [ ' X.] ] ]  .[ Z C m ] } | ' [ [ V ( c A ' ] B .., + x ",
"{ 5 < ( [ [ ' [ [ ] ' [ A V A [ ' [ [ [ A M B B ' V [ } } p c [ ",
"N o j ' ' [ [ } ' A ' ' { [ V [ N ' B [ Z M b N M / ( _ ` R A ' ",
"~ O u ..] ' N V ' N ' ( ' [ [ [ [ B V [ C m m A V V V [ ( ~ } [ ",
"/ $ c [ N ' ( [ V N V M ' ` _ [ [ B [ [ _ { A V B M ( _ A N _ [ ",
"[ $ h ..[ A ' ' A N c A M M A ' V ( ' } ] ..A m M A [ [ V r ~ [ ",
"[ r K ` x ' ] M B m M [ b b b C V ' [ N m M Z Z B V Z ' j # ' ' ",
"( ..U Y { { ' B V M Z B m v v m B [ [ V V N A M N N V ' N k [ [ ",
"A [ ~ / [ { [ ' V B [ ' m m M B V N [ ' ' [ A V [ N A N A Z ' ' ",
"[ [ U ! V ' [ [ V A B ' [ Z b Z N ` | V [ A m [ N ' N B f z ' | ",
"{ [ ^ R Y 0 a [ N m A A ' B B [ ` [ [ } A C M A A B N M X c [ ` ",
"[ V [ ( P D 4 ] ' f M V M B M ' A ..[ V ' V C Z ' V [ 7 3 [ N ` ",
"[ | { N ^ I = j A B c M N x ; x V [ c V [ _ ( N V [ V ( [ ( [ [ ",
"{ | [ ( { ) - @ ^ [ ( B ' 0 $ ~ ' [ ( _ { V _ _ V A [ V ` ( ) { ",
"[ [ [ { V V Y = * ` ' ' ( > F K l a e i w w _ | A A V [ { { { | ",
"| | [ } N ( V > $ O 4 r J ! ~ 9 D F > - : 4 ` ` [ A V ..[ { |  .",
"( V V B [ [ [ q > q 8 G r } [ ' e 8 l ~ r ( / V ' V _ [ [ [ [ ` ",
"` [ [ ( V [ ` ^ x } X.( N [ [ } } V ` { { { { V { [ V [ A ( ( _ "
};
