/* XPM */
static char *enemy_down[] = {
/* columns rows colors chars-per-pixel */
"64 64 211 2 ",
"   c #040505",
".  c #0B0C0C",
"X  c #06080B",
"o  c #14150E",
"O  c #19180D",
"+  c #0C0E14",
"@  c #0E1115",
"#  c #0E121B",
"$  c #131414",
"%  c #12161C",
"&  c #161A1C",
"*  c #1A1B1C",
"=  c #171813",
"-  c #2C2D1A",
";  c #262518",
":  c #312E1A",
">  c #2D321E",
",  c #33331D",
"<  c #38361E",
"1  c #141A26",
"2  c #191D24",
"3  c #191E2A",
"4  c #141926",
"5  c #141929",
"6  c #1C222F",
"7  c #1D2123",
"8  c #1E2533",
"9  c #232423",
"0  c #232529",
"q  c #2B2C2C",
"w  c #292927",
"e  c #2F3521",
"r  c #363A22",
"t  c #3B3D22",
"y  c #393720",
"u  c #202734",
"i  c #232936",
"p  c #252C3B",
"a  c #292F3C",
"s  c #282C36",
"d  c #2E3033",
"f  c #29303F",
"g  c #333435",
"h  c #34353A",
"j  c #37383B",
"k  c #3B3B3C",
"l  c #42391F",
"z  c #423F22",
"x  c #3F4226",
"c  c #444123",
"v  c #4B4C2C",
"b  c #474829",
"n  c #544E2B",
"m  c #53522D",
"M  c #5B552F",
"N  c #5B582E",
"B  c #4E5231",
"V  c #545531",
"C  c #555A33",
"Z  c #5B5B33",
"A  c #5B5B36",
"S  c #605C33",
"D  c #6A5E34",
"F  c #5E6438",
"G  c #626236",
"H  c #69683B",
"J  c #746D3D",
"K  c #786C3D",
"L  c #7A713F",
"P  c #74713F",
"I  c #272F41",
"U  c #292F41",
"Y  c #2A3243",
"T  c #2C354A",
"R  c #2F384C",
"E  c #363A41",
"W  c #3B3E42",
"Q  c #323A4D",
"!  c #373D4A",
"~  c #2F3953",
"^  c #2C3652",
"/  c #333D53",
"(  c #343F59",
")  c #3E4044",
"_  c #3E4249",
"`  c #374156",
"'  c #364159",
"]  c #3A455C",
"[  c #3D485F",
"{  c #3C4762",
"}  c #3E4963",
"|  c #424344",
" . c #44474B",
".. c #4B4C4C",
"X. c #484848",
"o. c #4C4E52",
"O. c #454B58",
"+. c #4F5052",
"@. c #4E525B",
"#. c #525354",
"$. c #545659",
"%. c #56585A",
"&. c #5B5C5C",
"*. c #4F504F",
"=. c #6E6D40",
"-. c #726E41",
";. c #796F40",
":. c #6E7345",
">. c #697247",
",. c #747443",
"<. c #7B7542",
"1. c #767946",
"2. c #7C7A46",
"3. c #767B4A",
"4. c #7C7D49",
"5. c #777648",
"6. c #414C65",
"7. c #424E6A",
"8. c #4B5264",
"9. c #45526C",
"0. c #48546D",
"q. c #555A64",
"w. c #5C5E63",
"e. c #545A67",
"r. c #434F70",
"t. c #465371",
"y. c #495674",
"u. c #4B5876",
"i. c #4D5B7B",
"p. c #485579",
"a. c #505E7E",
"s. c #5E6064",
"d. c #5B616E",
"f. c #52617E",
"g. c #5C6272",
"h. c #626364",
"j. c #63666A",
"k. c #67696C",
"l. c #6B6C6D",
"z. c #696A67",
"x. c #6B6D72",
"c. c #646874",
"v. c #6E7073",
"b. c #6C717D",
"n. c #727374",
"m. c #747679",
"M. c #77787A",
"N. c #7B7C7D",
"B. c #81713E",
"V. c #817542",
"C. c #837C46",
"Z. c #8B7C46",
"A. c #827E49",
"S. c #8A7F48",
"D. c #7D824B",
"F. c #7C864E",
"G. c #7E8551",
"H. c #7D8952",
"J. c #848147",
"K. c #83834B",
"L. c #8A844B",
"P. c #84894E",
"I. c #8B8A4E",
"U. c #8B8047",
"Y. c #938A4E",
"T. c #93864B",
"R. c #848B52",
"E. c #8B8C52",
"W. c #828651",
"Q. c #928E52",
"!. c #8C9255",
"~. c #8C965A",
"^. c #8C995B",
"/. c #859057",
"(. c #939253",
"). c #939C5B",
"_. c #979858",
"`. c #91A05F",
"'. c #909D60",
"]. c #4E5C81",
"[. c #515F81",
"{. c #546384",
"}. c #56658A",
"|. c #5A6A8D",
" X c #586886",
".X c #5D6E92",
"XX c #5F7094",
"oX c #7D7E80",
"OX c #777C8C",
"+X c #607295",
"@X c #65779A",
"#X c #7F8083",
"$X c #7F8288",
"%X c #828385",
"&X c #84868A",
"*X c #878889",
"=X c #8A8B8C",
"-X c #888887",
";X c #8D8E90",
":X c #878A96",
">X c #8E9199",
",X c #919294",
"<X c #969799",
"1X c #9B9B9D",
"2X c #979899",
"3X c #9E9FA0",
"4X c #9498A2",
"5X c #9FA0A2",
"6X c #A3A4A5",
"7X c #A9AAAB",
"8X c #AFB0B0",
/* pixels */
"4.2.S.S.Z.Z.2.4.A.J.K.4.U.P.L.(.M . .   X . . . Z Y.L.2.,.J.L.!.E.K.K.E.J.C./.V . . . X   . . N I.C.I.J A.P.K.I.C.C.I.2.L.J.C.J.",
"I.K.2.2.C.4.2.A.K.J.3.2.C.A.!.Z . 3 u % 2 u 8 3 . D T.L 4.K.L.I.!.A.K.I.A.R.H . 3 u u 2 % u 3 . N Z.Z.K.I.Y.<.<.4.2.C.E.I.V.4.J.",
"E.U.V.2.J.D.R.P.K.I.2.<.<.S.H . 6 a Q 6 p Q R Q # z Y.<.C.C.C.D.A.D.P.K.D.^.b # Q R Q p 6 Q a 6 . Z J.P.P.1.K.2.F.,.,.1.,.U.<.A.",
"V.<.D.E.I.Q.A.K.W.1.J.J.C.m . 8 Y / ' u Y ' / 6.1 b E.,.<.C.J.K.E.K.A.R.F.E.V 1 6./ ' Y u ' / Y 8 . Z K.K.C.U.E.3.:.P.K.K.<.C.2.",
"E.2.E.P.D.2.U.J.F.R.E.-.3.> 5 Q ] ` ] i Y ] ` 6.4 b U.<.2.P.P.D.I.2.D.4.P.Q.b 4 6.` ] Y i ] ` ] Q 5 > C.I.Z.1.G.1.K.D.L.Z.L.E.C.",
"Q.E.D.Z.Y.C.Z.Q.E.E.<.:.1., 6 ' 6.' { 8 Y { ] 9.3 c Q.<.C.Y.U.P.U.L.(.K.E.).b 3 9.] { Y 8 { ' 6.' 8 - J.K.J J <.E.R.E.U.C.Y.I.E.",
"!.E.S.Y.(.L.I.I.A.W.1.K.P.> i O.6.@.j.x.x.w.O.9.6 t z , , t t , : y t r r t < 6 9.O.w.x.x.j.@.6.O.i ; J.2.D.<.V.Y.C.I.4.P.L.<.F.",
"D.E.I.C.U.S.U.L.Z.2.,.<.4.- ..h.8.h.l.1X=Xz.q.t.u   # # # 1 X $ % X 1 # # #   u t.q.z.=X1Xl.s.8.h.X.< (.<.K.4.C.4.L.).F.I.K.I.D.",
"K.Q.<.Q.C.C.U.U.J.4.K.A.3.- l.<Xx.k.l.l.l.l.w.u.p 2 f a E 0 9 =X*X9 0 E a Y 2 p u.e.n.l.l.l.j.x.2Xl., P.C.L.E.K.I.C.F.U.I.L.P.L.",
"J.<.Y.Z.Z.K.P.V.D.4.E.K.2., j.,Xx.k.n.j.k.n.d.y.Y I E #.g . &.;X=X%.. g #.E I Y y.d.n.l.j.x.k.x.,Xj.< (.C.Q.C.C.P.,.2.C.K.K.I.A.",
"E.C.Q.2.C.C.2.A.P.<.4.,.4., | &.e.j.z.2X%Xh.q.T Y _ &.#.= X.l.=X=Xk.X.= #.&._ Y T w.z.%X<Xz.j.e.&.| < I.Z.L.L V.2.A.J.L.Y.P.L.C.",
"<.A.L.<.2.I.D.P.P.K.C.1.L., U 0.}.e.v.%X$Xj.! T  .h.l.k j ,X#.#XoX+.;Xj k l.h. .T ! j.$X$Xx.q.}.0.Y : 2.U.L <.<.<.V.(.J.Z.(.Z.C.",
"E.C.L C.L.K.F.2.D.D.A.K.U., T i.|.}.|.' 6.] T o.l.l.$.j q v.X.v.x.| v.q j $.l.l.o.T ] 6.' |.}.|.i.T - I.E.Z.J.D.2.A.V.<.<.J.D.E.",
"Z.J.4.I.K.D.C.<.D.2.D.J.J., ^ [..X|.@X{ T ( @.M.v.l.+...* k #.m.n.o.k * ..+.l.v.M.@.( T { @X|..X[.^ - <.J.L.2.2.2.U.C.4.W.<.I.P.",
"Z.2.K.K.1.D.D.K.K.J 2.2.<.; ~ {.+X+X|.] ' q.%XN.l.n.s.g g %XX.m.n.X.%Xg g s.n.l.N.#Xq.' ] |.+X+X{.~ e F.K.I.P J.K.W.2.2.D.I.V.Z.",
"<.J.L.C.<.J ,.<.K.1.2.-.W.e ^ {.+X|.{ ] e.=X%Xn.m.N.h.j j &X| n.n.) %Xh j h.N.m.n.%X=Xe.] { |.+X{.^ , J.4.2.,.J.<.A.A.4.2.I.J.I.",
"(._.I.4.C.<.1.H ,.3.V.,.L.r T [..X7.{ g.;X=XN.N.N.#Xh...$ q #.m.m.#.q $ ..h.#XN.N.N.=X=Xg.{ 7..X[.T < I.F.1.<.U.<.2.A.W.I.D.Q.L.",
"E.D.R.:.,.:.1.1.2.,.,.K.K.- Y 8.}.9.7.N.1X%X%X%X#X=X#.. % 2 s s s i 1 % . #.=X%X%X%X%X1XN.7.9.}.8.Y < !.E.J.L P.P.J.2.R.Z.2.!.4.",
"W.D.F.3.:.,.,.4.4.C.4.<.4., o.z.d.9.9.m.3X*X=X&X,Xh.X 8 f a Y Y Y Y a f 8 X h.,X&X=X*X3Xm.9.9.d.z.o., E.L.<.C.D.D.E.K.H.4.K.<.2.",
"G.C.C.R.>.D.4.4.<.3.2.,.,.- x.1Xm.9.t.m.6X;X;X,X%X9 j.Q a Q ] ] ] ] Q a Q j.9 %X,X;X;X6Xm.t.7.m.1Xx.- D.K.J.L.E.L.K.P.~.U.R.4.,.",
"A.P.I.P.2.,.D.;.<.F.J.C.<.; h.%Xc.9.y.m.7X,X,X6Xj j N.w.Y ' 6.{ { 6.' Y s.N.h j 6X,X,X7Xm.y.9.c.-Xs.: 4.I.U.Y.J.K.<.L.P.I.P.P.4.",
"1.2.P.D.2.4.3.<.4.P.:.<.<.- W %.8.t.i.b.8X2X5X%.+ @.N.h.! ] y.0.0.y.] ! h.N.@.+ %.5X2X8Xm.i.t.8.%.W y ).A.V.P.F.E.<.E.!.E.D.Z.U.",
"L.F.P.2.P.P.K 2.1.4.R.,.C., 8 ] 9.7.i.v.7X3XoXX u ( e.q.Q y.u.0.t.y.y.Q q.e.( u X M.3X7Xv.i.7.9.] 8 r ~.F.C.K.2.Z.P.L.I.F.J.A.2.",
"L 2.P.D.W.P.2.E.R.,.2.4.A.: 8 ' 6.} y.x.6X3X$.  Q } ' ( t.6.] 9.9.' 6.t.( ' } R   &.1X6Xx.y.} 6.' 8 , 4.>.4.=.1.K.!.E.W.2.K.U.P.",
"P.Z.C.2.:.K.1.F.P.J.I.F.=.O 6 / ] { t.k.6XN.* X.s.6.} i.} Q 9.{.{.9.Q { i.} 7.h.| ; %X6Xk.t.{ ] / 6 o H ,.W.P.K.~.R.D.E.!.2.U.C.",
"I.C.<.V.1.4.,.2.4.K._.H o 4 Y Q ` ] 7.j.7X| g W h.g.p.{.Y { {.+X+Xf.] Y {.p.c.h.W 9 *.7Xj.7.] ` Q Y 4 o H W.K.R.W.R.H.D.J.Q.I.4.",
"2.K.W.J.D.,.1.K.K.A.P o 3 T R ' { ] 7.$.,Xj X.& ..OX}.y.Y 9.|.@X@X X} Y y.}.&X..* j | <X@.7.] { ' T T 3 o H J.E.4.W.R.W.K.!.G.2.",
"4.L.K.K.,.,.K.I.D.I.n + a Q ' ' } } { ] h.g $.+ X.>X}.t.Y 9.|.@X@X X{ Y t.}.4XX.$ ..k j.] { } } ( ' Q p + m K.J D.D.H.K.!.R.Q.J.",
"C.E.I.!.F.!.<.4.2.E.Z @ p { 6.} { t.' ] O.9 #.$ ..:X].i.Y [ f.+X+Xf.] Y u.].>XX.= X.q O.] ] 7.{ { 6.{ p @ Z E.1.4.~.`.J.I.K.!.I.",
"J.I.J.W.2.<.C.I.I.P.m @ a ] { 9.9.r.{ Q ] 7 X.d h.c.y.a.' / 0.{.{.9.Q ' a.t.b.h.g j 0 { Q 6.7.9.9.{ ] p @ G ^.~.P.R.K.U.I.J.<.<.",
"D.<.A.P.1.C.V.P.K.S.Z + a { { 7.y.u.p.' ( i w $.l.6.} u.y.Q ] 9.9.' Q y.u.{ 8.l.#.9 a / ] p.p.y.7.{ [ p + C K.D.<.K.I.K.U.<.D.2.",
"A.K.D.,.D.!.2.P.2.J.V + p { { 7.y.[.[.r.Q Q & w ! ' / / ] / ] u.y.] / ] / / ' _ 9 2 / Q t.[.[.y.7.{ [ p @ F 3.,.C.K.K.J.Z.2.<.J.",
"I.R.D.P.R.W.W.D.E.!.G + p [ { 9.u.[.}.i.{ T Q & 4 ~ O.M.%.R / / / Q T w.N.O.~ 1 & Q T { i.}.[.u.9.{ [ p + Z R.2.D.K.<.S.U.I.C.Y.",
"K.Z.4.!.I.2.D.K.R.I.A @ p { 7.9.i.{.}.{.y./ Y s % ! %XN.h. .Y T T Y  .h.N.%X! % s Y / y.{.}.{.i.9.7.{ p + F !.C.V.J.L.D.C.L.L.L.",
";.Z.~.R.E.4.W.'.3.4.A @ p [ ] 9.i.{.|.{.i.9.Y u $ h.m.&.h. .p Y Y p X.h.w.n.w.$ u Y 9.i.{.|.{.i.9.] [ p @ G W.K.<.E.K.Z.P.E.C.D.",
"2.P.R.R.!.^.^.4.1.3.F + a ] Q } T T }.}.i.u.6.a $ o.k.;Xk.a a a a a a l.;Xj...$ a 6.u.i.}.}.T T { Q ] p + V K.I.4.!.L.2.H.K.U.C.",
"(.U.L.I.R.^.4.3.2.W.C @ p [ ] { 3 4 [.|.a.y.t.9.& 9 $.&.& % % # # % % & &.$.9 2 9.y.u.a.|.[.4 3 { ] [ p + S E.P.W.P.!.D.I.A.E.S.",
"Y.<.Z.(.E.E.2.,.R.4.m @ p 6.9.y.7.9..X}.f.u.9.9.i 0 | k | . 9 k k 9 . k k | 0 i 9.9.u.{.|..X9.6.y.9.} p + G Y.A.E.E.E.E.I.E.J.1.",
"A.Z.L.J.D.R.<.<.=.4.v + p 6.i.u.}..XXX|.{.i.0.9.8 o.=X*X1Xk k =X%Xj ) 3X=X,Xo.8 9.0.i.{.|..X.X}.u.a.6.p @ M I.R.E.I.J.C.!.!.I.P.",
"U.U.Y.P.L.K.2.D.:.,.v @ p 9.|.i.{.|..X|.{.u.0.9.i j &.%.h.q g N.m.d g m.l.N. .8 9.0.i.{.|..X|.{.i.|.9.p + F !.E.W.E.E.U.U.A.J.Z.",
"P.2.1.P.U.2.F.2.C.P.Z @ p 9..Xi.I i I p u i 9.9.i h o.o.| $ j N.m.g = | #.+.h i 0.] 8 i a I i Q f..X9.p @ G E.K.W.P.4.I.Y.I.L.L ",
"J.K.1.,.<.2.4.K.L.I.G + p 9.{.i.a.}.|.}.i.y.y.9.i E h.s.o.= k oXm.j * ..h.h.E i 9.0.y.i.}.|.{.f.i.{.9.p @ Z Q.<.2.E.C.L.P.C.I.P.",
"I.T.J.D.U.D.K.L.U.K.G + p 6.t.y.6.6.9.6.] ] 0.9.8 ) x.z.l.q g oXm.g q l.z.x.) 8 0.7.` { 6.9.} 9.u.t.6.p @ Z Q.,.C.P.P.,.L.C.K.!.",
"K.L.4.L.P.D.3.P.I.C.Z @ p { { 9./ T / R Y Y 9.9.8  .N.n.%Xj g oXM.d j %Xn.N. .8 0.{ U T R / T ] y.] { p @ G I.P.J.C.C.,.L.E.2.J ",
"2.2.2.<.2.D.4.E.K.U.Z @ a ] Q 9.|..X+X.X}.a.0.9.8  .=X%X,Xk g oXM.g k ,X%X=X .8 9.y.a.}..X+X.X}.9.Q ] p @ m I.A.J C.I.Y.I.!.J.P.",
"J 4.A.C.L.P.P.I.D.C.N + p { ` 9.a u a i 8 i 6.9.i h w.w.k.q j oXm.g q k.w.w.h i 9.] 8 u i a 8 Q y.` [ p @ m K.K.C.K.K.K.,.,.A.,.",
"4.A.K.L.4.C.I.!.K.C.Z @ p 6.y.u.y.i.{.i.y.9.9.6.8 W ;X;X2X| g oXM.d | 2X;X=XW u 7.9.9.y.i.{.i.u.u.0.6.p + m C.U.I.D.V.<.1.,.H -.",
"3.K.K.L.2.K.Y.P.D.P.M @ p { 9.y.T Y T T Y Y 6.6.8 _ =X&X6XX.g #XM.q X.6X&X=X_ 8 9.] a Y T R Y ( u.7.{ p @ C 2.A.J 4.C.K.1.I.3.K.",
"<.1.<.C.L.P.2.1.E.Z.N @ p { 7.t.] { 6.{ ' ` 6.6.8 _ l.s.<X) h oXM.g | <Xs.l._ u 6.{ / ' { 6.] } y.6.{ p @ n <.4.,.,.3.4.4.2.A.4.",
"K.5.4.A.V.(.2.D.2.I.S @ p [ 6.t.9.y.i.y.7.} 6.{ u E N.#XN.q h oXm.g q N.#XN.E i 6.} } 9.y.i.y.t.t.6.[ p @ v ,.F.A.K.,.-.<.2.P.,.",
"<.I.K.4.P.A.I.K.J ).S + p ] 6.7.i 8 i u 8 8 ] { u E %.$.l.* j oXm.g * l.$.%.E u 6.( 3 8 u i 8 T t.{ ] p + A 1.J I.,.-.<.2.<.4.K.",
"L C.<.C.C.,.K.W.2.Z.M @ p ] { 9.i.{.}.{.i.9.{ ] i h $.%.n.g g oXM.g g n.$.$.h i [ 6.9.i.{.}.{.i.9.{ ] p @ n 4.2.<.J ,.,.L P.F.,.",
"I.C.D.I.U.J.<.E.Q.Y.N @ p ] { 7.Y I Y U i p ] ] p & * 0 h * k oXm.j & h 0 * & p { ( u p I Y a R 9.{ ] p @ B E.K.J <.1.,.,.D.C.2.",
"A.<.C.V.P.P.<.I.C.(.H + p ] { 7.( ( ] ' / Q ] [ a + c S b o k N.m.h O t Z x + a { ' T / ' ] ( ] 9.{ ] p @ V W.1.<.,.2.K.1.,.4.K.",
";.,.V.<.<.2.P.Y.C.(.G + p [ 6.9.i.}.|.{.i.t.6.] p + S E.Q.c h oXM.d c ).E.C # a { 6.y.i.}.|.{.i.7.6.] p + Z E.A.3.<.2.<.D.F.3.C.",
"C.1.E.K.D.(.!.J.K.U.D @ p R { 6.t.i.[.i.t.6.{ T p # m U.C.l j oXM.h t L.J.v # p R { 6.t.i.[.i.t.6.{ T p @ m K.G.K.4.,.,.A.K.,.<.",
"W.P.A.2.I.P.Z.C.2.C.S @ p Y R ( { 7.y.7.{ ( R Y p @ n Z.Q.z h N.m.g z !./.B @ a Y R ' { 7.y.7.{ ( R Y p @ Z A.3.P.3.<.P.P.3.A.P.",
"I.L.!.U.Z._.C.C.<.W.Z @ i p Y R / ] } ] / R Y p i + S E.L.< h oXm.g t /.3.C @ i p Y R / ] } ] / R Y p i + n W.G.A.2.K.1.,.A.W.D.",
"K.I.C.C.2.P.A.J.D.K.<.$ 8 Q / ] 7.y.i.y.6.] / Q i . 2.P.Z.z h oXm.g r R.!.>.@ i Q / ] 7.y.i.t.6.] / Q u $ A =.,.5.G.<.4.<.<.<.F.",
"K.L.V.<.E.Z.C.J.E.K._.- 1 ] 6.t.{.|.+X|.{.t.{ ] 4 , L.2.I.c j oXm.h x ~.).W.- 5 [ 6.y.{.|.@X|.f.9.{ ] 1 - E.D.W.H.D.,.4.A.V.A.4.",
"4.C.Z.C.I.L.I.C.2.J.).Z + Q 6.9.a.|.+X|.a.9.6.Q + Z U.<.(.z j oXM.h v ~.R.E.Z + Q 6.9.a.|.+X|.a.9.6.Q + A K.E.I.4.5.4.,.L.D.F.L.",
"J.2.<.L.U.W.K.V.K.K.4.H o 8 / ' } t.p.t.} ( / p = <.<.L S.v 9 N.m.* F ^.4.K.2.$ p / ' } t.p.t.{ ( / u = 2.C.I.3.:.,.4.U.L 1.L.A.",
"P.C.<.J.J.F.R.I.D.K.K.K.b + & & & 2 7 & & * * + c L.A.L.<.-.O l.j.O R.R.K.H.F.b + & & * * 2 & * * & + v P.V.K 2.3.3.I.A.J D.I.B.",
"Z.V.A.2.S.D.,.W.K.A.^.P.2.B.J H ,.2.1.P L J V.,.A.I.2.D.J.E.V * * m 4.A.V.4.W.K.3.3.1.D.,.1.J B.,.J.K.K.P.<.<.4.K.C.V.<.<.4.Q.K."
};
