/* XPM */
static char *enemy_up[] = {
/* columns rows colors chars-per-pixel */
"64 64 211 2 ",
"   c #040505",
".  c #0B0C0C",
"X  c #06080B",
"o  c #14150E",
"O  c #19180D",
"+  c #0C0E14",
"@  c #0E1115",
"#  c #0E121B",
"$  c #131414",
"%  c #12161C",
"&  c #161A1C",
"*  c #1A1B1C",
"=  c #171813",
"-  c #2C2D1A",
";  c #262518",
":  c #312E1A",
">  c #2D321E",
",  c #33331D",
"<  c #38361E",
"1  c #141A26",
"2  c #191D24",
"3  c #191E2A",
"4  c #141926",
"5  c #141929",
"6  c #1C222F",
"7  c #1D2123",
"8  c #1E2533",
"9  c #232423",
"0  c #232529",
"q  c #2B2C2C",
"w  c #292927",
"e  c #2F3521",
"r  c #363A22",
"t  c #3B3D22",
"y  c #393720",
"u  c #202734",
"i  c #232936",
"p  c #252C3B",
"a  c #292F3C",
"s  c #282C36",
"d  c #2E3033",
"f  c #29303F",
"g  c #333435",
"h  c #34353A",
"j  c #37383B",
"k  c #3B3B3C",
"l  c #42391F",
"z  c #423F22",
"x  c #3F4226",
"c  c #444123",
"v  c #4B4C2C",
"b  c #474829",
"n  c #544E2B",
"m  c #53522D",
"M  c #5B552F",
"N  c #5B582E",
"B  c #4E5231",
"V  c #545531",
"C  c #555A33",
"Z  c #5B5B33",
"A  c #5B5B36",
"S  c #605C33",
"D  c #6A5E34",
"F  c #5E6438",
"G  c #626236",
"H  c #69683B",
"J  c #746D3D",
"K  c #786C3D",
"L  c #7A713F",
"P  c #74713F",
"I  c #272F41",
"U  c #292F41",
"Y  c #2A3243",
"T  c #2C354A",
"R  c #2F384C",
"E  c #363A41",
"W  c #3B3E42",
"Q  c #323A4D",
"!  c #373D4A",
"~  c #2F3953",
"^  c #2C3652",
"/  c #333D53",
"(  c #343F59",
")  c #3E4044",
"_  c #3E4249",
"`  c #374156",
"'  c #364159",
"]  c #3A455C",
"[  c #3D485F",
"{  c #3C4762",
"}  c #3E4963",
"|  c #424344",
" . c #44474B",
".. c #4B4C4C",
"X. c #484848",
"o. c #4C4E52",
"O. c #454B58",
"+. c #4F5052",
"@. c #4E525B",
"#. c #525354",
"$. c #545659",
"%. c #56585A",
"&. c #5B5C5C",
"*. c #4F504F",
"=. c #6E6D40",
"-. c #726E41",
";. c #796F40",
":. c #6E7345",
">. c #697247",
",. c #747443",
"<. c #7B7542",
"1. c #767946",
"2. c #7C7A46",
"3. c #767B4A",
"4. c #7C7D49",
"5. c #777648",
"6. c #414C65",
"7. c #424E6A",
"8. c #4B5264",
"9. c #45526C",
"0. c #48546D",
"q. c #555A64",
"w. c #5C5E63",
"e. c #545A67",
"r. c #434F70",
"t. c #465371",
"y. c #495674",
"u. c #4B5876",
"i. c #4D5B7B",
"p. c #485579",
"a. c #505E7E",
"s. c #5E6064",
"d. c #5B616E",
"f. c #52617E",
"g. c #5C6272",
"h. c #626364",
"j. c #63666A",
"k. c #67696C",
"l. c #6B6C6D",
"z. c #696A67",
"x. c #6B6D72",
"c. c #646874",
"v. c #6E7073",
"b. c #6C717D",
"n. c #727374",
"m. c #747679",
"M. c #77787A",
"N. c #7B7C7D",
"B. c #81713E",
"V. c #817542",
"C. c #837C46",
"Z. c #8B7C46",
"A. c #827E49",
"S. c #8A7F48",
"D. c #7D824B",
"F. c #7C864E",
"G. c #7E8551",
"H. c #7D8952",
"J. c #848147",
"K. c #83834B",
"L. c #8A844B",
"P. c #84894E",
"I. c #8B8A4E",
"U. c #8B8047",
"Y. c #938A4E",
"T. c #93864B",
"R. c #848B52",
"E. c #8B8C52",
"W. c #828651",
"Q. c #928E52",
"!. c #8C9255",
"~. c #8C965A",
"^. c #8C995B",
"/. c #859057",
"(. c #939253",
"). c #939C5B",
"_. c #979858",
"`. c #91A05F",
"'. c #909D60",
"]. c #4E5C81",
"[. c #515F81",
"{. c #546384",
"}. c #56658A",
"|. c #5A6A8D",
" X c #586886",
".X c #5D6E92",
"XX c #5F7094",
"oX c #7D7E80",
"OX c #777C8C",
"+X c #607295",
"@X c #65779A",
"#X c #7F8083",
"$X c #7F8288",
"%X c #828385",
"&X c #84868A",
"*X c #878889",
"=X c #8A8B8C",
"-X c #888887",
";X c #8D8E90",
":X c #878A96",
">X c #8E9199",
",X c #919294",
"<X c #969799",
"1X c #9B9B9D",
"2X c #979899",
"3X c #9E9FA0",
"4X c #9498A2",
"5X c #9FA0A2",
"6X c #A3A4A5",
"7X c #A9AAAB",
"8X c #AFB0B0",
/* pixels */
"K.Q.4.<.<.V.C.K.4.<.<.P.K.K.J.,.B.J 2.,.D.3.3.3.K.R.4.V.A.4.m * & V E.K.D.2.I.A.,.V.K L P 2.<.P H K B.A.K.^.A.K.W.,.D.U.2.A.V.Z.",
"B.I.D.K A.I.3.3.2.K Z.K.v + & * * * 2 * * & & + b F.H.D.R.R.O k.l.O -.<.K.A.L.c + & & & & 7 2 * & & + b K.K.K.D.I.R.P.K.K.<.A.K.",
"A.I.1.L L.D.,.:.3.L.C.2.= i / ( { t.p.t.} ' / p $ 5.K.4.^.F * n.N.9 v S.L <.<.= p / ( } t.p.t.} ' / i o H 2.K.K.V.K.W.L.K.<.C.K.",
"L.F.D.L.1.4.5.4.L.E.K.A + Q 6.9.a.|.+X|.a.9.6.Q + C E.R.~.v g M.oXj z (.<.U.Z + Q 6.9.a.|.+X|.a.9.6.Q + C ).K.2.2.L.L.I.Z.C.Z.2.",
"2.A.V.A.A.,.D.H.W.D.E.- 1 ] } 9.f.|.+X|.{.y.6.[ 4 - W.).~.x g M.oXj c I.2.L., 1 ] } t.{.|.+X|.{.9.6.] 1 - _.A.E.K.A.C.E.1.V.K.K.",
"F.<.<.<.4.1.G.:.1.=.A $ u Q / ] 6.t.i.p.7.] / Q i @ >.!.R.r g M.oXj z Z.K.2.. i Q / ] 7.p.i.p.7.] / Q 8 $ <.K.D.K.A.P.<.Z.C.I.K.",
"D.R.4.,.1.K.2.C.G.K.n + i p Y R / ] } ] / R Y p i @ C 3./.t g M.oXj < L.E.S + i p Y R / ] } ] / R Y p i @ Z R.<.A.A._.C.U.!.I.L.",
"K.4.3.K.K.<.5.P.3.A.Z @ p Y R ( { 7.p.7.{ ' Q Y a @ B /.~.z g M.N.j z Q.Z.n @ p Y R ( { 7.p.7.{ ( R Y p @ S C.5.A.C.K.I.5.K.P.R.",
"<.,.K.A.1.1.4.K.G.K.m + p R } 6.t.i.[.i.t.6.} R p # v K.L.t j M.oXj l Z.L.m # p R { } t.i.[.i.t.6.} R p @ D L.K.J.!.(.D.K.E.1.A.",
"C.3.F.D.1.2.<.3.A.E.Z + p ] 6.7.i.{.|.{.i.y.6.} a # C E.).c d M.oXg c Q.E.S + p { 6.t.i.{..X}.i.9.6.[ p + G (.Z.Y.K.2.<.<.V.,.;.",
"K.D.1.1.K.<.,.<.3.R.V @ p ] } 9.] ( ] ' / R ] ] a + x Z t O j n.N.k o b S c + a ] { Q / ' ] ( ( 7.} ] p + H (.C.L.<.P.P.V.Z.<.A.",
"2.A.D.1.1.3.<.J K.E.B @ p ] } 9.R a Y I p u ( } p & * w j * j M.oXk & g w * & p ] ] p i I Y I Y 7.} ] p @ M Y.Q.E.<.K.L.L.D.C.L.",
"1.K.P.L 1.,.J <.2.2.n @ p ] } 9.i.{.}.{.i.9.6.[ i h $.$.n.g g M.oXg g n.%.$.h i ] } 9.i.{. X{.i.9.} ] p @ M Z.2.R.K.,.C.A.<.Z.L ",
"K.4.1.2.<.-.,.L.J 3.A + p ] } t.T 8 i u 8 3 ( 6.u E %.$.l.* g M.oXj * l.$.%.E u } ] 8 8 u i 8 i 7.6.] p + S ).J K.L.A.K.4.K.I.<.",
",.K.5.5.-.1.K.A.D.,.v + p [ 6.t.t.p.i.p.9.} } 6.i E N.#XN.q g M.oXj q N.#XN.E u } 6.} 7.p.i.p.9.t.6.[ p @ S I.<.D.2.(.V.A.4.:.K.",
"4.A.5.4.4.3.,.,.4.<.n @ p } 6.y.} ] 6.{ ] / } 6.u _ l.s.<X| g M.oXj ) <Xs.l._ 8 6.6.` ' { 6.{ ] t.7.} p @ M C.E.1.5.P.L.Z.<.3.<.",
"K.3.L.1.K.A.4.J A.2.C @ p } 7.u.( Y R R Y a ] 9.8 _ =X*X6XX.q M.#Xg X.6X*X=X_ 8 6.6.Y Y R R Y R y.9.} p @ M P.D.P.T.K.2.K.K.K.3.",
"-.H 1.2.<.V.D.I.U.A.m + p 6.0.u.u.i.{.i.y.9.9.7.u W ;X;X2X| d M.oXg | 2X;X;XW 8 6.9.9.y.i.{.i.p.u.y.6.p @ Z C.K.!.L.A.4.K.K.A.4.",
",.A.1.,.K.K.K.C.K.K.m @ p [ ` y.Q 8 a i u 8 ] 9.i h w.w.k.q g M.oXj q k.w.w.h i 9.6.i 8 i a u a 9.` [ p + N A.D.I.K.P.K.A.A.4.J ",
"P.K.!.I.Y.I.Z.K A.L.m @ p ] Q 9. X.X+X.X{.a.y.9.8  .=X%X,Xk g M.oXg k ,X%X=X .8 9.0.a.{..X+X.X|.9.Q ] a @ Z U.K.E.4.D.2.,.2.2.2.",
"K 2.E.L.,.C.2.K.P.I.G @ p } ] y.] R / R T U } 0.8  .N.n.%Xj d M.oXg j %Xn.N. .8 9.9.Y Y R / R / 9.{ } p @ Z C.I.P.3.D.P.L.4.L.K.",
"!.K.A.K.,.P.P.A.,.Q.Z @ p 6.t.u.9.} 9.6.} ` 7.0.8 _ x.k.l.q g M.oXg q l.k.x._ 8 9.0.] ] 6.9.6.6.y.t.6.p + G K.L.K.K.D.U.K.J.T.I.",
"K.I.A.P.L.A.E.2.<.Q.Z @ p 9.{.i.f.{.|.{.i.y.0.9.i j h.h...& j M.oXk $ o.s.s.E i 9.y.y.i.{.|.{.a.i.{.9.p + G I.K.K.D.2.<.,.2.K.K.",
"L L.I.T.I.4.K.W.K.E.G @ p 9..Xf.Q i I a i 8 ] 0.i h +.#.| $ g M.N.j $ | o.o.g i 9.9.i u p I i I i..X9.p @ Z K.C.5.F.2.U.P.1.A.P.",
"C.K.A.U.U.E.E.R.E.!.F + p 9.|.i.{.|..X|.{.i.0.9.8  .M.l.M.g d n.N.g q h.%.&.j i 9.0.i.{.|..X|.{.i.|.9.p @ v 1.:.D.5.K.L.K.T.U.U.",
"P.I.!.~.A.U.I.E.R.L.M @ p 6.a.u.{..X.X|.{.i.0.9.8 o.,X=X3X| j %X*Xk W 1X*X=Xo.8 9.0.i.{.|.XX.X Xu.i.6.p + v 4.=.<.1.R.D.K.L.J.A.",
"1.K.E.I.E.E.E.E.A.Y.G + p } 9.y.6.9..X|.{.u.9.9.i 0 | k k . 9 k k w . z k | w i 9.9.u.{.}..X9.7.y.9.6.p @ m 4.R.1.5.E.E.(.C.<.Y.",
"S.E.A.I.D.!.K.W.K.E.S + p [ ] } 3 1 a.|.a.u.y.9.2 9 $.&.& % % # # % % & &.$.w & 9.0.p.a.|.[.1 3 } ] [ p @ C W.5.3.4.^.R.L.L.U.(.",
"C.U.K.H.5.K.!.4.L.K.V + p ] Q } R R {. Xi.u.6.a $ ..k.;Xl.a a a a a a k.;Xk.o.$ p 6.y.i. X{.R R } Q ] a + F 3.1.4.^.~.~.R.R.K.2.",
"D.C.E.K.C.K.E.<.K.R.G @ p [ ] t.i.{.|.{.i.9.Y u $ w.n.w.h. .p Y Y p  .w.&.n.h.$ u Y 9.i.{.|.{.i.9.] [ p @ A 4.3.'.R.4.E.R.~.C.;.",
"I.L.I.A.D.K.J.V.C.!.F + p } 7.9.i.{. X{.p./ Y s % ! %XN.h. .Y R R Y  .h.N.%X! % s Y / p.{. X{.i.9.7.} p @ A I.R.K.D.5.L.!.4.C.K.",
"T.A.I.U.U.<.K.D.5.R.C + p [ } 9.u.[. Xi.{ T Q * 1 ~ O.N.w.R Q / / / R &.N.O.~ 1 & Q T { i. X[.u.9.} [ p + G !.I.K.R.W.R.P.D.R.I.",
"J.<.5.Z.K.K.K.A.,.3.F @ p [ } 7.p.[.[.r.Q / 2 w _ ' / / ] / ] u.u.{ / ] / / ' ! w & Q Q r.[.[.p.7.} [ p + V K.2.P.2.!.D.1.D.K.A.",
"5.D.<.U.K.I.D.<.D.K.C + p [ } 7.p.p.p.' / a 9 #.l.8.{ u.p.Q ] 9.9.] Q p.u.} 6.l.$.w i ( ' p.u.p.7.} [ p + C S.K.P.V.Z.3.P.A.1.D.",
"<.<.K.I.U.K.R.K.~.^.G @ p ] } 9.9.7.6.Q { 0 j g h.b.t.a.' Q 9.{.{.9./ ' a.y.c.h.d X.7 ] Q } r.9.9.} ] p @ m K.I.I.C.<.5.W.K.I.K.",
"L.!.K.L.J.`.~.4.1.E.Z @ p } 6.} { 7.] ] O.q  .$ X.>X].u.Y ] f.+X+Xf.[ Y i.].:X..$ #.9 O.] ] t.{ } 6.} p @ Z E.2.4.<.!.F.!.I.E.A.",
"K.Q.R.E.K.H.D.D.J K.m + p Q ' ( } } { ] k.k ..$ X.4X Xt.Y }  X@X@X|.9.Y t. X>XX.+ $.g h.] { } } ' ] Q a + n L.D.I.K.1.1.K.K.K.4.",
"2.F.~.K.R.R.R.4.E.J.H o 3 T R ' { ] 7.@.<X| j * ..&X}.y.Y }  X@X@X|.9.Y y.}.OX..&  .j ,X$.7.] { ' R T 3 o P A.K.K.1.1.D.K.R.D.2.",
"4.L.Q.K.D.G.R.R.R.K.R.H o 1 Y Q ` ] 7.j.6X+.w W h.c.p.{.Y ] f.+X+X{.} Y {.p.g.h.W g | 7Xj.7.] ` Q Y 1 o H _.K.4.5.,.4.2.V.<.A.I.",
"A.L.4.(.E.D.R.~.K.P.R.1.H o 6 / ] } t.k.6X&X; | h.7.} i.} Q 9.{.{.9.Q } i.} 6.s. .* M.6Xj.t.} ] / 6 O =.F.L.C.K.F.1.K.:.2.C.C.P.",
"P.U.K.5.R.E.!.K.1.=.4.>.4., 8 ] 6.} p.x.6X1X&.  R } ' ( t.6.] 9.9.] 6.t.( ' } Q   $.3X6Xx.p.} 6.] 8 : A.4.2.,.R.E.2.P.W.D.P.2.L ",
"5.A.K.F.I.I.K.C.2.K.A.F.~.r 8 ] 9.7.i.v.7X3XN.X u ( e.q.Q p.p.t.0.u.p.Q q.e.( u X oX3X7Xv.i.7.9.] 8 , A.1.R.4.3.2.K P.P.5.P.F.K.",
"L.C.D.E.!.E.<.E.F.K.V.A.).y W %.8.t.i.n.8X2X5X%.+ O.M.h.! ] y.0.0.y.] ! h.M.O.+ %.5X2X8Xn.i.t.8.%.W - <.1.:.P.4.<.3.4.2.D.K.2.2.",
"4.K.P.I.K.L.<.K.K.T.U.L.4.: s.-Xc.9.p.m.7X,X,X6Xj j N.s.Y ] 6.} } 6.] Y w.N.j j 6X,X,X7Xm.p.9.c.-Xh.; <.C.K.F.1.;.D.1.5.P.I.K.A.",
"1.4.R.U.~.P.K.L.E.K.K.K.K.: x.1Xm.7.t.m.6X;X;X,X&X9 j.Q a Q ] ] ] ] Q a Q k.9 &X,X;X;X6Xm.t.9.m.1Xx.- ,.1.2.3.<.4.4.D.>.R.C.A.G.",
"5.<.K.D.H.K.E.D.D.A.<.L.E., o.z.d.9.9.m.3X*X*X*X,Xh.X 8 f a Y Y Y Y a f 8 X h.,X*X*X*X3Xm.9.9.d.z.o., 4.<.3.C.4.4.,.1.:.3.D.D.R.",
"D.!.2.C.R.2.K.P.P.L K.E.!.< Y 8.{.9.7.N.1X%X%X%X#X=X#.. % 2 s s s s 2 % . #.=X#X%X%X%X1XoX7.9.{.8.Y - K.K.,.,.2.3.3.:.1.:.R.D.E.",
"L.Q.D.I.W.A.C.<.U.<.1.D.L.< T ]..X7.{ g.;X=XN.N.N.#Xh...$ q #.M.M.#.q $ ..h.#XN.N.N.=X;Xg.{ 7..X].T r L.,.V.3.1.H 2.<.A.4.I._.(.",
"I.K.I.2.4.A.A.<.K.,.5.4.K., ^ {.+X|.} ] e.*X%Xn.M.N.h.j j &X| n.n.| *Xj j h.N.M.n.%X*Xw.] } |.+X{.^ e R.-.5.2.K.1.,.J <.A.K.K.<.",
"Z.V.I.D.2.2.R.K.K.K L.K.F.e ~ {.+X+X|.] ' q.%XN.l.n.s.g g %X .n.M.X.%Xg g s.n.l.N.%Xq.' ] |.+X+X{.~ ; <.3.2.J K.K.D.D.2.K.K.2.Z.",
"K.I.<.W.4.A.U.2.<.2.U.K.1.- ^ [..X|.@X} R ( @.M.v.l.+...& k o.n.n.#.k & ..+.l.v.M.@.( R } @X|..X[.^ , K.K.D.5.D.<.A.D.K.L.2.K.U.",
"E.D.K.<.<.V.A.2.D.K.Z.E.L.- T i.|.{.|.] 6.] R O.l.l.$.j q v.| x.v.X.v.q j $.l.l.O.R ] 6.] |.{.|.i.T , U.K.A.D.D.2.F.K.K.C.L C.E.",
"A.C.(.Z.K.(.V.<.<.<.L U.2.: U 0.{.e.x.$X$Xj.! T  .h.l.k j ;X+.oX#X#.,Xj k l.h. .T ! j.$X%Xv.e. X0.U , L.2.A.K.K.P.D.L.2.<.I.A.1.",
"C.L.K.T.I.K.K.2.V.L I.C.I.< | &.e.j.z.<X&Xk.w.R Y _ &.#.= X.k.=X=Xl.X.$ #.&._ Y R e.h.%X2Xk.j.e.&.| , 4.,.4.<.K.A.2.Z.A.2.Q.A.E.",
"A.I.K.K.C.5.,.K.C.Z.Q.C.(.< j.,Xx.j.x.k.l.n.d.y.Y I E #.g . %.=X;X&.. g #.E I Y p.d.v.k.k.n.k.x.,Xk., 5.K.E.4.D.V.K.K.Z.Z.T.<.J.",
"I.P.L.I.U.K.A.E.K.E.I.A.P., l.<Xx.j.l.l.l.v.w.u.p 2 Y a E 0 9 *X*X9 0 E a f 2 p u.w.l.l.l.l.j.x.<Xl.- 3.A.K.4.K.U.U.C.Z.T.<.Q.K.",
"D.L.K.I.F.).L.4.C.4.K.<.(.<  .h.8.s.l.1X=Xk.q.t.u   # # # 1 X % $ X 1 # 1 #   u t.q.z.*X1Xl.h.8.h...- 4.<.1.2.Z.L.U.S.U.Z.L.E.D.",
"F.1.K.P.4.I.C.T.V.1.D.2.K.; s O.6.O.j.x.x.w.O.9.6 < t r r t y : , t t , , z t 6 9.O.w.x.x.j.@.6.O.s > K.K.3.W.A.I.L.L.(.Y.S.E.!.",
"E.L.T.A.U.E.E.E.<.J J K.K.- 8 ] 6.] { 8 Y ] ] 9.3 b ).E.K.(.L.L.K.L.T.C.<.Q.c 3 9.] { Y 8 { ] 6.] 6 , 1.:.<.E.E.Q.C.C.T.C.D.E.Q.",
"C.E.L.C.L.D.K.5.G.2.C.L.A.> 4 Q ] ` ] i Y ] ` 6.1 b Q.K.4.D.5.I.D.K.P.2.<.L.b 1 6.` ] Y i ] ` ] Q 4 > 3.-.E.R.D.K.U.2.D.P.E.2.E.",
"C.A.<.K.K.P.:.3.E.T.A.K.K.C . u Y / ] u Y ] / 6.1 V E.D.R.K.K.E.K.K.A.<.,.E.b 1 6./ ` Y u ] / Y 8 . m A.K.K.2.W.K.A.(.I.E.D.<.V.",
"A.<.U.,.1.1.,.F.2.K.1.K.K.K.Z . 6 a Q 6 p Q R Q # b ^.D.K.P.D.A.D.A.C.C.<.Y.z # Q R Q p 6 Q a 6 . H S.<.<.2.I.K.K.R.D.K.<.C.U.E.",
"K.A.V.L.E.C.2.4.<.<.Y.I.K.C.Z.M . 3 u % 2 u u 3 . H R.A.I.K.A.!.I.L.K.4.L T.D . 3 8 u 2 % u 3 . Z !.A.A.2.3.K.K.A.2.4.A.<.2.K.I.",
"U.C.K.K.5.I.A.A.L.K.P.A.J I.A.I.M . .   X . . . V /.A.K.E.K.K.E.!.K.K.,.5.K.Y.Z . . . X   . . M (.K.K.U.4.K.K.A.4.2.Z.C.S.S.5.A."
};
