/* XPM */
static char *enemy_left[] = {
/* columns rows colors chars-per-pixel */
"64 64 215 2 ",
"   c #030404",
".  c #07080C",
"X  c #0A0B0C",
"o  c #06070A",
"O  c #15140D",
"+  c #1D1B0F",
"@  c #0C0E14",
"#  c #0E1115",
"$  c #0E121C",
"%  c #131414",
"&  c #11151C",
"*  c #161A1C",
"=  c #1A1B1C",
"-  c #191912",
";  c #2C2D1A",
":  c #252317",
">  c #302E1B",
",  c #332D17",
"<  c #2D321E",
"1  c #32331D",
"2  c #39361E",
"3  c #151A25",
"4  c #191D24",
"5  c #191E2A",
"6  c #141926",
"7  c #131A29",
"8  c #1B212E",
"9  c #1D2124",
"0  c #1E2533",
"q  c #1F2739",
"w  c #242423",
"e  c #232629",
"r  c #2B2C2C",
"t  c #292927",
"y  c #2F3420",
"u  c #363A22",
"i  c #3B3D22",
"p  c #343621",
"a  c #202634",
"s  c #232936",
"d  c #252C3B",
"f  c #292F3C",
"g  c #2A2E35",
"h  c #2B303A",
"j  c #333335",
"k  c #34353A",
"l  c #37383A",
"z  c #3B3C3C",
"x  c #41391F",
"c  c #423E22",
"v  c #3F4225",
"b  c #4C4B2C",
"n  c #464527",
"m  c #544E2C",
"M  c #54522D",
"N  c #5A552E",
"B  c #5B582F",
"V  c #535531",
"C  c #5C5B33",
"Z  c #575A33",
"A  c #4D5130",
"S  c #615D33",
"D  c #6A5D34",
"F  c #5E6338",
"G  c #626336",
"H  c #6D6C3D",
"J  c #66673A",
"K  c #746D3E",
"L  c #7B6E3E",
"P  c #70673B",
"I  c #74713F",
"U  c #7B713F",
"Y  c #262F40",
"T  c #282F42",
"R  c #2A3243",
"E  c #2C354A",
"W  c #2F384C",
"Q  c #363A41",
"!  c #3A3D42",
"~  c #323A4D",
"^  c #373D4A",
"/  c #2C3652",
"(  c #2F3952",
")  c #333D53",
"_  c #353F59",
"`  c #3E4144",
"'  c #3E4249",
"]  c #374156",
"[  c #364159",
"{  c #3A455C",
"}  c #3D485F",
"|  c #394257",
" . c #3C4662",
".. c #3E4963",
"X. c #434344",
"o. c #44474C",
"O. c #4B4C4C",
"+. c #474847",
"@. c #4C4E52",
"#. c #454B58",
"$. c #4F5051",
"%. c #4E525B",
"&. c #525354",
"*. c #545659",
"=. c #56585A",
"-. c #5B5C5C",
";. c #6E6B41",
":. c #726E41",
">. c #786F40",
",. c #6D7245",
"<. c #6A7147",
"1. c #747443",
"2. c #7B7542",
"3. c #767946",
"4. c #7C7A46",
"5. c #737648",
"6. c #767B4A",
"7. c #7C7D49",
"8. c #7C7648",
"9. c #414C65",
"0. c #424E6A",
"q. c #484F63",
"w. c #4B5364",
"e. c #45526C",
"r. c #49556E",
"t. c #555A64",
"y. c #5B5E63",
"u. c #555A67",
"i. c #434F70",
"p. c #465371",
"a. c #495674",
"s. c #4B5976",
"d. c #4D5B7B",
"f. c #485579",
"g. c #505E7E",
"h. c #5F6063",
"j. c #5B616E",
"k. c #566279",
"l. c #626363",
"z. c #63656A",
"x. c #66686C",
"c. c #6B6C6D",
"v. c #696967",
"b. c #6B6D72",
"n. c #646975",
"m. c #6E7074",
"M. c #6C717D",
"N. c #727374",
"B. c #747679",
"V. c #77787A",
"C. c #7B7C7D",
"Z. c #81723E",
"A. c #817542",
"S. c #837C46",
"D. c #8B7C46",
"F. c #827E49",
"G. c #8A7E49",
"H. c #7D824C",
"J. c #7D854D",
"K. c #7D8551",
"L. c #7D8952",
"P. c #838147",
"I. c #83834B",
"U. c #8A844B",
"Y. c #85894E",
"T. c #8B8A4E",
"R. c #8A8047",
"E. c #928A4E",
"W. c #92864B",
"Q. c #848B52",
"!. c #8B8C51",
"~. c #848551",
"^. c #928E52",
"/. c #988A50",
"(. c #8C9255",
"). c #8C965A",
"_. c #8C985B",
"`. c #869057",
"'. c #939253",
"]. c #959A59",
"[. c #93904F",
"{. c #91A05F",
"}. c #909D60",
"|. c #4E5C81",
" X c #515F82",
".X c #536384",
"XX c #56668A",
"oX c #5A6A8C",
"OX c #586885",
"+X c #5E6E92",
"@X c #5F7094",
"#X c #7D7E80",
"$X c #777B86",
"%X c #607295",
"&X c #65779A",
"*X c #7F8083",
"=X c #828384",
"-X c #848589",
";X c #87888A",
":X c #8B8B8D",
">X c #888887",
",X c #8D8E91",
"<X c #868A96",
"1X c #8F9091",
"2X c #8D929F",
"3X c #929294",
"4X c #97999A",
"5X c #9B9C9D",
"6X c #969798",
"7X c #9E9FA0",
"8X c #9498A2",
"9X c #9FA0A2",
"0X c #A3A4A5",
"qX c #AAAAAB",
"wX c #AFB0B0",
/* pixels */
"D.I.P.4.I.I.U.Q.F.L F.U.U 2.I.2.6.7.K 4.I.T.P.Y.R.F.E.[.7.2.I.T.F.H.P.F.7.7.T.Y.U I.7.F.K.Q.!.'.2.D.R.!.2.!.P.I.H.(.^.!.D.!.T.7.",
"A.F.4.D.I.!.T.Y.2.1.2.S.D.T.5.6.I.F.6.7.U.W.I.7.R.F.2.R.Y.F.F.Q.I.2.T.!.I.I.F.F.7.J.7.Y.F.H.H.].P.4.P.S.F.F.2.^.!.!.!.4.2.R.I.8.",
"F.2.2.F.A.S.(.P.!.A.D.H.2.Y.7.2.I.I.S.4.7.P.7.3.W.U.F.U.Q.].7.H.H.F.P.T.I.Q.2.S.Y.Y.Y.T.S.J.Q.T.I.I.7.U T.E.W.2.U.G.H.!.H.A.4.G.",
"4.P.I.D.2.D.R.4.I.2.A.U.F.7.F.D.P.P.F.1.R.I.1.Y.Y.P.'.U.Q.Q.(.Y.3.Y.Q.(.I.P.A.7.H.4.H.Y.Q.5.5.F.F.I.U.S.2.4.D.E.D.E.F.Y.!.4.4.G.",
"G.P.R.T.!.4.F.T.H.2.Y.R.S.Y.A.R.7.4.I.7.Y.R.2.R.U.H.!.Q.(.!.U.Q.H.6.4.J.5.7.7.,.Q.Y.4.4.<.,.5.F.2.7.I.I.7.F.D.D.R.'.E.H.T.I.F.F.",
"H.J.Y.U.F.Y.].Y.'.7.Y.P.1.F.'.Y.Y.F.Y.H.H.I.7.2.I.Q.!.).).7.4.~.(.A.U (.5.5.7.Y.Y.Y.7.3.H.3.,.2.K H.H.I.U.D.I.S.D.U.S.7.^.H.F.D.",
"1.Q.I.T.F.F.F.F.(.U.2.2.I.U.4.4.E.U.Y.7.6.I.7.J.4.2.4.7._.Q.H.Q.4.A.S.2.I.3.>.3.7.L 6.J.7.1.6.7.1.H.F.J.H.4.I.R.R.U.F.R.F.Q.4.7.",
"Y.T.A.P.P.P.F.F.P.E.U.!.Q.I.H.3.Y.(.T.!.Y.I.Y.4.H.2.3.6.7.}.Y.H.Y.Y.T.7.T.Y.4.J.!.4.2.L 7.7.6.J 2.I.2.4.Y.F.A.R.U.T.!.P.Y.Y.F.H.",
"Y.H.Y.4.!.H.2.4.P.D.S.^.4.P 2.!.H.I.H.I.T.R.I.S.,.;.Q.4.6.6.Q.T.4.I.T.S.H.I.7.U.Q.5.7.2.2.7.4.5.I.I.H.H.Y.Y.H.P.D.F.!.J.Q.I.I.F.",
"F.Y.I.P.F.I.Q.S.R.'.'.E.D.].T.F.Y.S.F.R.S.I.T.Y.5.7.7.~.6.7.T.(.P.D.I.!.U.F.I.F.1.7.Y.H.6.S.1.6.7.K 4.H.I.2.6.7.7.Q.!.Q.7.T.P.P.",
").Y.7.].].2.C S D G J B B S C N N C B C C S G C b b M Z F C C G Z Z M C m 1.].Y.4.Q.,.P.7.6.3.A.8.4.H.7.S.4.!.Y.5.6.2.!.P.4.6.I.",
"I.I.P Z ; % # # # @ @ @ # # # # # # # # # @ @ # # @ # # @ # # # # @ # # # O H J.7.5.1.S.3.2.Y.1.:.6.Y.I.7.1.I.F.2.I.,.1.P.2.4.7.",
"F.n O @ 3 0 s d d d d d d d d d d d d d d d d d d d d d f d d d d d d d f 5 O H F.F.2.2.1.7.Y.U.Q.2.P.R.U.7.4.6.7.Y.3.6.F.2.F.R.",
"Z.# s ~ { ~ d R W } { { { { } ....9.} { ..9.e.e.e.0.9.} { } ..} } } { ..~ E 3 + > 1 ; : ; 1 ; p y : 1 1 1 1 1 ; ; < 1 y M G.F.I.",
"K * ) 9...) R ~ ..9.......9.9.0.e.p.] ~  .p..X+XoXg.e.{ W { 0.........9.[ W R 8 0 0 ! l.b.@.R E / ( / E Y X.x.c.O.s 8 5 . J (.I.",
"P * [ e.p.{ W _ 9.e.0.0.e.0.p.p.a.s.e.e.e.a.s.s.d.s.a.....p.p.e.0.e.e...[ [ ~ ) | { =.>X5Xx.w.|..X.X Xd.r.-.3X4Xl.#.[ ~ 0 X C '.",
"I =  .g..X0.)  .p.d._ T s.s e.} E a.Y XX) 9.g.Y .XOX0.5 E d.s.s.a.a.e. ... .]  .9.e.w.n.B.j.OX+X%X%X+XoXXXu.b.m.w.9.9.{ R 8 . N ",
"4.4 i.XXoXa.} 0.d.XX_ Y .X0 a. .R d.s +XE 9.OXs XX+Xe.3 E .X.X X Xd.i.i...} } ....0.p.e.e.e.e.0.XX%XoXOXu.z.x.x.l.%.| ] ) f 5 X ",
"7.9 f.%X%Xd...a. X+X} R XXs s.9.W .Xf %X) e.oXY +X@X+X XXXoXXXXX Xf...|  .0.0.p.a.d.d.a.p.0.0. ...oX&XoXm.x.N.c.c.z. .} | ~ a . ",
"I * p.oX+Xa.} 0.s..X[ Y .Xa a. .E d.s +XW 9.OXd XXoXXXoXXX.X.Xd.0.[ ~ } { *.z.x.b.m.N.B.B.B.C.j.[ } ..[ =X4Xx.c.5Xb.0 s a 8 &   ",
"U = ..g..X0.)  .p.d.) d s.0 0.[ R a.0 OXR } d.a .X.X.Xg.d.d.a. .~ _ } #.l.3XqX0X0XqXwXqX0X7X5X1Xu.[ E 9.*X=Xx.c.:Xb.R E R d 4 o ",
"K * [ e.p.} W _ 9.p.~ s e.0 ..] R e.s d.R { a.s s.s.s.a.s.e.) E ~ s 9 w j l X.V.5X7X5X3X,X;X=X,X;Xt._ { z.l.N.c.v.y. .{ | ~ a . ",
"A.* ) ....) R W  .9.{ } ..{ 9.9.9.e.9.r.e.r.a.e.r.r.e.a.9.R R ~ * t +.&.=.o.j = &.$X9X6X:X;X=XV.=X=X%.W ^ u.j.y.t.#.{ ] ) W a . ",
"2.@ d ~ } ~ s R E { { { { ..9.9.9.9.e.e.e.e.e.e.e.e.e.e.f a g * w =.g % @ * ! o.  . =.0X3X;X=XC.N.C.V.#.E E a.d.p.e.e.9...~ 5 X ",
"F.n - @ 3 s s d d d f d s a a 0 0 a s 0 0 0 a s s 0 s * % % & 3 ^ c.l.O.+.O.l.y.~ a @ l =X1X*XC.B.c.N.c.o.R R d a 8 5 3 3 $ X C ",
"T.U.2.C 1 X @ # # # @ * k Q Q ` ' ! k O.o.` Q k l @.e w @.l.^ ( [ 9.n.<X2X$Xk.9..._ #.l w l.:X=XV.N.c.c.l.' Y 4   i n n n c D /.",
"4.F.2.R.U.4.C M m S c * =.-.C.c.:X:Xh.:XC.b.l.@.-.:XX.*.x.B.=X#.) ..a.|.XXXXf...[ u.V.#Xx.. &.l.l.h.$.*.c.-.Q R $ c /.R.!.E.W.U.",
"H.I.U 2.4.Y.!.D.R.!.S e =.*.*Xh.;X,Xy.=XN.x.l.$.=.;Xz -.,X-.C.V.) s.g.s.p.a..Xd._ t.l.y.~ 0 X O.l j O.l z &.&.f & 1 2.2.1.2.U 4.",
"I.2.G.'.T.D.U.^.D.^.b k N.c.C.6X0X4Xx.3X=Xc.@.X.l.5XX.* x.l.l.=.} a.| R R R R ..p.~ ^ R f f & % l j * t z % j Q $ 1 S.4.2.S.4.1.",
"!.K b c n c 2 c x n O * j = r X.X.X.r z l t % % r z X & f o.o.E ) ~ ~ } e.e...~ 9.a. .| ~ f 4 r ;X=Xz m.3XX.X e 3 i E.Y.F.S.Y.P.",
"V + w l l l l l z k z z j l j l j j l j j l z l j z w & f d R ~ { { e.k.oXoX.Xe.} s.a.9.} R g &.X.+.&.X.&.c.-.w o i R.Y.P.F.U.Y.",
"* b.C.#X#X#X#XC.#X#XC.#X#X#X#X#X#X#X#X#X#X#X#X#XC.;Xz # f R E ) s.e..X%X&X&X%X.Xe.r.r...{ R g B.N.B.N.m.*X:X,X;X% 1 Y.H.I.H.T.(.",
"= x.N.V.B.V.V.B.V.V.B.B.V.B.B.V.V.V.B.V.V.B.B.B.N.=Xz # f R E ) a.e..X%X&X&X%X.Xe.r.r...{ R g B.N.N.N.b.#X:X:X;X& , R.T.!.F.(.!.",
"M + 4 k k j j j l g l l j j j j r r j j j j l j j l w & f d R ~ { { e.k.OXOXk.e.{ a.a.9.} R s &.` X.@.X.&.x.-.w o 2 U.4.Y.H.F.I.",
"7.Q.F b v u i i i n O * j = r X.X.X.r ! l t * % j X.X & f o.o.W ) ~ ~ { ..9.{ ~ 9.a.} | ~ f 4 r =X=Xz m.3XX.X e 3 i '.H.I.Y.Y.Y.",
"F.Q._.).).Q.`.(.U.].i l N.c.C.6X0X4Xx.3X=Xc.O.X.B.7Xz * c.l.l.y.} a.[ R R R R ..p.~ ^ R f f & % l j * t z - j Q $ p F.7.Q.Y.T.T.",
"A.H.6.Q.].(.6.`.P.!.C e =.*.*Xh.;X,Xy.=XN.x.l.$.c.:Xz -.,Xy.#XC.) s.g.s.p.a..Xd._ t.l.h.~ 0 X O.l j O.l z &.&.f $ p !.Y.H.H.F.P.",
"7.L.I.!.Q.,.Z V b Z v * =.-.C.c.:X:Xh.:XC.b.l.$.V.3Xz &.x.N.=X#.)  .a.|.XXXXf...[ u.V.C.z.o &.l.l.h.$.*.c.-.Q R $ i ].^.!._.Q.F.",
"Q.J.4.Z ; # # # & # @ * k Q Q ' ' ! k O.o.` l k o.@.e w O.y.^ ( [ q.M.<X8X-Xn.0..._ #.l w l.:X=XV.N.c.c.l.' f 4   1 n b V n J `.",
"I.b % @ 6 s s f d d f d s a s a 0 a s 0 0 0 s s 0 0 s * % % & 3 ' c.l.+.X.O.l.l.~ s @ l =X3X*XC.B.c.N.c.o.R R d a 8 5 3 3 $ X V ",
"6.@ d ~ } ~ s R E ..{ ..} 9.9.9.e.9.e.e.r.r.e.r.e.e.e.e.f a g = w &.j % % = ! `   . =.0X3X;X=XC.N.C.V.#.E E a.d.p.e.e.9...~ 5 X ",
"6.* ) 9.9.) R W ..9.| _ .._ ....} e.{ a...0.r.} r.r.e.a.9.R R ~ 4 w l o.O.z w : -.$X9X3X:X;X=XV.=X=X%.W ^ y.j.u.t.#.{ ] ) W a . ",
"6.* [ e.a.} W [ 9.a.E a e.8 ..) f e.0 g.Y ] a.0 s.d.s.a.s.e.) E ) f e r z X.O.=X5X7X5X3X,X;X=X,X;Xt._ { z.x.N.N.x.y. .{ | ~ a . ",
"H.= ..g..X0._  .p.d.) d s.0 e.| R a.a OXE ..d.s .X.X.Xg.d.d.a. .) )  .#.x.3X0X0X0XqXwXqX0X7X5X1Xu._ E 9.=X=Xc.c.:Xb.R E R d 4 o ",
"1.= p.oXoXa.} 0.d.XX[ Y .Xa a...E d.s +XW 0.OXf oXoXXXoXXX.X.Xd.p.[ ~ { { %.z.x.b.m.N.B.B.B.C.j.[ { ..[ *X6Xz.c.5Xb.0 s a 8 &   ",
"4.4 f.%X%Xd...a. XoX} R XXs s.9.W .Xf %X) e.oXY +X+X+X XXXoXXXXX Xf.9.|  .0.0.p.a.d.d.a.p.0.0. ...oX&XoXb.v.b.c.c.z. .} | ~ a . ",
"K = e.XXoXp.} 0.d..X_ f .X0 a.} R s.0 +XE ...Xs XX+Xe.3 E .X.X X Xd.0.0...} }  ...0.p.e.0.e.e.0.XX%XoXOXu.z.x.z.h.#.| ] ) f 5 X ",
"Z.=  .g..X0.)  .p.s.} W s.R p..._ s.W XX{ e.k.~ .XOX9.5 E d.s.s.a.a.e. ... .[ { 9.e.w.n.B.j.OX+X%X%X+XoXOXu.b.m.w.9.9.{ R 8 X N ",
"1.= _ e.e.{ W _ 9.0.e.e.e.p.p.a.s.s.a.e.a.s.s.g.d.s.a.....e.e.e.0.0.e..._ [ ~ ) | { =.>X5Xv.w.|..X.X Xd.r.-.3X4Xl.#.[ ~ 0 X Z T.",
"P.* ) 9...) R W ..9.........9.0.0.r.] ~ { p..X+XoXd.e.{ W { 9.........9.[ W R 8 0 0 ! h.b.@.R E / / / E R X.z.c.o.s 0 6 X S D.F.",
"P.@ q ~ { ~ d R W } { { { { } ....9.} { ..9.e.e.e.9...} { } ..} } } { 9.~ E 3 O 1 p u > > 1 1 2 1 y < ; > 1 2 1 1 : ; 1 C P.F.T.",
"I.b - @ 3 a s d d d d d d d d d d d d d d d d d d d d d d d d d d d d d d 5 O J 7.].].7.I.!.(.T.R.J.4.U.7.T.[.Y.!.P.P.F.U.Y.I.K ",
"Y.Y.4.Z ; % @ # @ @ # # # @ @ # # @ # # # # # # @ # @ @ @ # @ @ @ @ # # # O J 3.,.J.F.U.I.U.!.J.7.I.P.!.R.F.S.F.2.4.F.U.I.Y.T.F.",
"2.A.4.I.!.C m Z M C V A m Z b m Z M M M J C F G F N G C V G F Z F Z G C M J Q.Q.7.S.A.R.P.2.P.3.4.U.R.D.L T.^.T.F.H.K F.F.3.E.Y.",
"2.L U.!.H.;.Y.S.I.!.Q.!.6.6.:.2.4.F.I.U.T.^.^.T.(.U.E.!.I.Q.(.Q.6.J._.!.Y.P.I.Y.H I.Y.E.Y.7.U 2.1.I 4.P.2.L D.^.7.2.K 4.W.I.2.I.",
"7.4.6.T.Q.3.K.6.K.P.6.I.7.;.J.7.F.R.P.F.Y.1.2.Y.!.Q.F.Y.U.I.S.4.1.H.).3.K !.Q.Y.3.7.J.P.!.H.Y.R.P.P.2.H.2.A.S.I.S.S.2.K.!.4.2.U.",
"I.6.5.7.K.5.S.Y.Y.6.2.K 2.Y.F.1.H T.D.K P.F.4.Q.Q.^.!.Q.7.2.4.H.F.2.Y.7.H.7.Q.).I.F.Q.I.U.H.Y.2.2.I.4.4.2.4.Y.!.7.E.T.3.6.J.7.F.",
"S.6.1.5.H.K.4.2.7.2.1.2.K 3.I.1.7.H.I.D.F.Y.!.Y.!.T.!.Y.(.!.F.I.I.P.Q.).H.Q.Q.Q.(.Y.2.2.I.!.P.S.F.Q.R.P.A.I.1.F.R.S.!.Y.5.1.4.F.",
"A.T.I.4.1.2.I.4.1.4.4.6.1.:.5.5.F.Z.I.T.S.Y.F.F.!.P.!.(.I.Y.I.2.I.T.I.{.L.Q.K.H.Q.T.!.U.Q.Y.4.F.F.7.F.A.'.P.4.J.].T.!.Y.Y.3.S.T.",
"2.G.R.3.7.7.3.Y.3.2.I.3.3.2.:.7.I.2.P.E.1.1.U.T.R.F.!.H.4.F.H.D.P.I.R.P.Y.Q.H.!.Q.T.`.Y.).L.Q.Q.7.4.7.2.P.T.S.R.J.7.R.U.I.3.!.4.",
"2.K U T.F.1.1.I.F.H.3.3.U 4.8.7.3.7.1.T.U.I.Y.E.R.(.T.T.L.Y.F.R.D.R.T.U.!.I.P.'.4.J.!.T.R.7.F.T.4.H.Q.2.D.E.I.T.T.Y.F.D.Y.I Y.I.",
"7.H.3.H.S.2.7.6.I.H.5.H.Y.2.4.4.Y.5.3.(.!.F.F.T.F.(.T.F.I.!.U.T.4.2.P.Y.Q.(.'.7.Y.P.H.Y.Q.Y.7.H.T.T.2.P.'.Y.Y.U.I.I.E.U.2.R.A.P.",
"^.T.T.J.F.2.Q.7.:.6.H.F.Y.7.Y.F.6.J F.P.4.I.T.U.P.T.P.!.R.D.U.F.2.H.2.(.!.J.U.R.R.F.F.Y.6.2.(.^.I.A.U.H.F.U.T.Y.U.2.U.!.F.2.F.S.",
"I.A.F.U.4.H.H.Y.2.S.I.4.5.Y.1.7.Y.:.1.Y.K (.I.L F.Y.3.G.S.H.T.E.F.4.2.U.P.4.7.7.Y.4.R.4.3.4.7.I.T.D.Y.!.F.S.F.T.H.J.!.S.S.F.P.R."
};
