/* XPM */
static char *enemy_right[] = {
/* columns rows colors chars-per-pixel */
"64 64 215 2 ",
"   c #030404",
".  c #07080C",
"X  c #0A0B0C",
"o  c #06070A",
"O  c #15140D",
"+  c #1D1B0F",
"@  c #0C0E14",
"#  c #0E1115",
"$  c #0E121C",
"%  c #131414",
"&  c #11151C",
"*  c #161A1C",
"=  c #1A1B1C",
"-  c #191912",
";  c #2C2D1A",
":  c #252317",
">  c #302E1B",
",  c #332D17",
"<  c #2D321E",
"1  c #32331D",
"2  c #39361E",
"3  c #151A25",
"4  c #191D24",
"5  c #191E2A",
"6  c #141926",
"7  c #131A29",
"8  c #1B212E",
"9  c #1D2124",
"0  c #1E2533",
"q  c #1F2739",
"w  c #242423",
"e  c #232629",
"r  c #2B2C2C",
"t  c #292927",
"y  c #2F3420",
"u  c #363A22",
"i  c #3B3D22",
"p  c #343621",
"a  c #202634",
"s  c #232936",
"d  c #252C3B",
"f  c #292F3C",
"g  c #2A2E35",
"h  c #2B303A",
"j  c #333335",
"k  c #34353A",
"l  c #37383A",
"z  c #3B3C3C",
"x  c #41391F",
"c  c #423E22",
"v  c #3F4225",
"b  c #4C4B2C",
"n  c #464527",
"m  c #544E2C",
"M  c #54522D",
"N  c #5A552E",
"B  c #5B582F",
"V  c #535531",
"C  c #5C5B33",
"Z  c #575A33",
"A  c #4D5130",
"S  c #615D33",
"D  c #6A5D34",
"F  c #5E6338",
"G  c #626336",
"H  c #6D6C3D",
"J  c #66673A",
"K  c #746D3E",
"L  c #7B6E3E",
"P  c #70673B",
"I  c #74713F",
"U  c #7B713F",
"Y  c #262F40",
"T  c #282F42",
"R  c #2A3243",
"E  c #2C354A",
"W  c #2F384C",
"Q  c #363A41",
"!  c #3A3D42",
"~  c #323A4D",
"^  c #373D4A",
"/  c #2D3852",
"(  c #333D53",
")  c #353F59",
"_  c #3E4144",
"`  c #3E4249",
"'  c #374156",
"]  c #364159",
"[  c #3A455C",
"{  c #3D485F",
"}  c #394257",
"|  c #3C4662",
" . c #3E4963",
".. c #434344",
"X. c #44474C",
"o. c #4B4C4C",
"O. c #474847",
"+. c #4C4E52",
"@. c #454B58",
"#. c #4F5051",
"$. c #4E525B",
"%. c #525354",
"&. c #545659",
"*. c #56585A",
"=. c #5B5C5C",
"-. c #6E6B41",
";. c #726E41",
":. c #786F40",
">. c #6D7245",
",. c #6A7147",
"<. c #747443",
"1. c #7B7542",
"2. c #767946",
"3. c #7C7A46",
"4. c #737648",
"5. c #767B4A",
"6. c #7C7D49",
"7. c #7C7648",
"8. c #414C65",
"9. c #424E6A",
"0. c #484F63",
"q. c #4B5364",
"w. c #45526C",
"e. c #49556E",
"r. c #555A64",
"t. c #5B5E63",
"y. c #555A67",
"u. c #434F70",
"i. c #465371",
"p. c #495674",
"a. c #4B5976",
"s. c #4D5B7B",
"d. c #485579",
"f. c #505E7E",
"g. c #5F6063",
"h. c #5B616E",
"j. c #566279",
"k. c #626363",
"l. c #63656A",
"z. c #66686C",
"x. c #6B6C6D",
"c. c #696967",
"v. c #6B6D72",
"b. c #646975",
"n. c #6E7074",
"m. c #6C717D",
"M. c #727374",
"N. c #747679",
"B. c #77787A",
"V. c #7B7C7D",
"C. c #81723E",
"Z. c #817542",
"A. c #837C46",
"S. c #8B7C46",
"D. c #827E49",
"F. c #8A7E49",
"G. c #7D824C",
"H. c #7D854D",
"J. c #7D8551",
"K. c #7D8952",
"L. c #838147",
"P. c #83834B",
"I. c #898249",
"U. c #8B844B",
"Y. c #85894E",
"T. c #8B8A4E",
"R. c #8A8047",
"E. c #928A4E",
"W. c #92864B",
"Q. c #848B52",
"!. c #8B8C51",
"~. c #848551",
"^. c #928E52",
"/. c #988A50",
"(. c #8C9255",
"). c #8C965A",
"_. c #8C985B",
"`. c #869057",
"'. c #939253",
"]. c #959A59",
"[. c #93904F",
"{. c #91A05F",
"}. c #909D60",
"|. c #4E5C81",
" X c #515F82",
".X c #536384",
"XX c #56668A",
"oX c #5A6A8C",
"OX c #586885",
"+X c #5E6E92",
"@X c #5F7094",
"#X c #7D7E80",
"$X c #777B86",
"%X c #607295",
"&X c #65779A",
"*X c #7F8083",
"=X c #828384",
"-X c #848589",
";X c #87888A",
":X c #8B8B8D",
">X c #888887",
",X c #8D8E91",
"<X c #868A96",
"1X c #8F9091",
"2X c #8D929F",
"3X c #929294",
"4X c #97999A",
"5X c #9B9C9D",
"6X c #969798",
"7X c #9E9FA0",
"8X c #9498A2",
"9X c #9FA0A2",
"0X c #A3A4A5",
"qX c #AAAAAB",
"wX c #AFB0B0",
/* pixels */
"I.P.D.A.A.!.H.G.U.D.A.D.!.Y.S.T.I.6.3.2.3.I.3.Y.D.6.3.P.Y.1.3.D.E.U.G.A.F.2.Y.A.L U.(.K Y.<.;.P.6.<.P.4.6.L.A.1.Y.G.H.3.I.F.Z.I.",
"A.D.1.D.!.Y.7.Y.Y.T.I.D.G.Y.Z.P.^.(.1.5.Y.A.D.I.I.Y.H.^.(.3.G.3.D.Y.A.R.!.P.T.P.U.T.L.3.P.D.J 5.D.Y.6.P.D.G.5.<.6.~.1.D.H.U.T.^.",
"P.Z.I.1.U.E.P.L.U.P.Y.'.P.1.U.T.G.6.P.Q.Y.G.P.P.6.^.).~.P.P.1.3.T.U.(.L.D.T.(.D.T.D.D.!.(.2.4.Y.3.3.7.Y.G.4.H.I.5.6.<.A.G.2.G.6.",
"P.Y.I P.A.D.Y.T.T.L.E.S.1.~.G.3.T.A.6.I.T.!.K.3.'.P.L.!.Y.T.I.S.I.D.Y.K.T.T.).I.E.Y.P.U.T.<.6.2.6.7.3.U <.2.G.D.Y.<.<.D.U.U K 1.",
"3.!.2.P.U.I.6.H.I.A.U.P.1.6.3.6.~.Q.K.).Y.`.T.~.!.G.~.P.L.I.L.P.S.G.A.6.G.!.D.I.T.U.<.<.E.P.1.P.6.;.1.<.<.P.7.<.Y.2.6.6.7.I.D.1.",
"T.A.<.T.P.!.T.).P.3.P.'.Z.D.6.D.D.3.P.Q.U.!.U.Q.G.J.Q.K.{.L.T.L.1.P.P.P.(.!.P.!.6.D.Y.A.T.P.C.D.5.4.;.<.4.3.3.<.1.L.7.<.6.L.E.A.",
"D.3.<.4.P.!.A.U.D.<.L.A.L.I.!.D.A.P.!.L.1.1.Y.(.Q.`.~.G.).~.L.P.L.A.!.(.Y.!.U.!.Y.!.Y.6.A.P.G.6.<.I.<.K 1.<.1.6.3.3.J.G.2.<.5.A.",
"D.6.H.5.2.T.E.6.!.Y.A.1.3.3.L.1.1.Y.G.U.P.!.A.L.).~.6.G.6.Y.1.A.G.1.1.6.~.!.^.~.~.3.A.P.K A.T.H <.D.Y.1.K 1.5.P.Y.D.4.J.6.4.5.I.",
"Y.1.3.!.~.1.A.A.L.A.Z.1.G.1.P.P.I.Y.G.!.P.H.6.2.P.Q.!.K 2._.G.<.3.A.L.U.Y.D.Q.!.P.1.<.Y.D.L.I.D.6.H.-.6.L.5.P.J.5.J.<.~.Y.5.6.6.",
"L.1.L.W.3.K 7.6.!.A.L 1.P.3.I <.1.U 6.Y.E.Y.L.H P.G.P.P.!._.H.5.Q.(.~.I.!.E.Y.(.!.^.^.T.Y.L.D.3.1.<.4.7.!.~.!.I.D.P.-.G.!.T.L 1.",
"Y.E.2.D.A.K G.L.U.^.U.L S.U.Y.3.2.I.1.P.I.Z.A.6.~.~.J V Z G Z F Z F G V C J N F G F C J M M M Z m b Z m A V C M C m C !.P.3.Z.1.",
"D.T.Y.P.Y.D.3.1.D.A.D.I.!.P.L.6.H.!.U.L.Y.D.H.,.<.J O # # # @ @ @ @ # @ @ # # @ # # # # # # @ # # # @ # # # # # # @ % ; Z 3.Y.Y.",
"K L.Y.I.D.P.P.!.Y./.E.6.Y.3.H.I.T.(.!.L.6.].).6.J O 5 d d d d d d d d d d d d d d d d d d d d d d d d d d d d d d s a 3 @ - b P.",
"T.A.P.C 1 ; : 1 1 2 1 > ; < y 1 2 1 1 > > u p 1 O 3 R ~ 8.{ { { {  .{ [ {  .8.w.w.w.8. .{ { 8. . .{ { { [ { { E R d ~ { ~ q X L.",
"D.S.C X 7 0 g X.z.l...R E / / / E R +.v.g.! 0 0 8 R W ] 8. . . . .8.[ W { w.s.oX+X.Xi.{ ~ ' e.9.9.8. . . . .8. .W R (  .8.( * L.",
"T.B . 0 ~ ] @.k.6X3X=.e.s. X.X.X|.q.c.5X>X*.{ } ( ~ ] )  .w.9.9.w.w.w. . .p.a.s.f.s.a.p.w.p.a.a.p.i.i.w.w.w.9.8.) W [ w.w.) = <.",
"N X 8 R | 8.8.q.n.v.y.OXoX+X%X%X+XOXh.N.b.q.w.8.{ ' |  .| w.d.d.a.s.s.E 5 8.OX.X~ j.w.[ XXW a.)  .i.R s.W [ s.i.| ( 8..Xf.| = C.",
". 5 f ( ' } @.g.l.z.l.y.OXoX%XXX9.w.w.9.w.i.9. . .[ [  .9.9.s. X X.X.XE 3 w.+XXXs .X .E +X0 s.R | d.0 .Xf ) .Xs.9.[ p.oXXXi.= K ",
". a ~ } [ | l.x.x.v.c.v.oX&XoX .| 9.9.i.d.s.s.d.i.9.9.| } 8.d. XXXXXoXXX X+X+X+XY oXw.( %Xf .XW 8.s.s XXR [ oX Xd. .s.%X%Xd.4 3.",
"  & 8 a s 0 v.4Xz.l.6X*X]  .{ ] h.V.N.N.N.N.n.v.z.l.$.{ [ ( ] i.s..X.XXXoXXXoXoXf OX9.W +Xs s.E  .d.a .XY ] .Xs.9.[ d.oXoXi.= <.",
"o 5 d R R R v.:Xx.z.=X*X8.E ) y.1X5X7X0XqXwXqX0X0XqX3Xz.@.| ( ( | d.s.s.f..X.X.Xs s. .R OXa p.R } w.0 s.d ( s.i.| ) 9..Xf. .= G.",
". a ~ } [ | t.c.M.M.c.l.[ ) r.;X,X=X;X,X3X4X7X5X=Xo...z r e f ( R ( w.a.d.a.s.a.0 p.' T f.0 w.f (  .8 w.a E p.8.] W [ p.w.] * 4.",
". a W ( ' [ @.r.y.h.t.^ W $.=X=XV.=X;X:X3X9X$X=.: e z o.X.z w 4 ~ R R 8.p.w.e.e.[ e.9. .p.[ w.[  . .)  .) } 8. .W R ( 8.8.( * 5.",
". 5 ~  .8.w.w.i.s.d.E E @.B.V.M.V.=X;X3X0X*..   _ ! = % % j %.w = g a f w.w.w.w.e.w.e.e.w.w.8.w.8.8.8.{  .{  .E R s ~ { ~ d @ 5.",
"V X $ 3 3 5 8 a d R R X.x.M.x.N.V.*X3X=Xz @ s ~ k.k.o.O.O.k.x.` 3 % % % * s 0 0 s s 0 0 0 s a 0 a s a s d f d d f s s 7 # % b L.",
"`.J b V n n 1   5 f ` k.x.x.M.B.=X:Xk.w l @.)  .9.b.-X8X<Xm.0.] W ^ t.o.w e +.X.k Q _ X.o.k ! ` ` Q Q k * @ # & # # # ; B 3.H.~.",
"D.Q._.!.^._.i $ R Q =.z.&.#.g.k.k.%.. l.V.B.y.]  .d.XXXX|.d.| ( @.=XM.z.%.z 3XB.#.k.v.V.:Xg.:X:Xz.V.*.&.= v Z b V Z ,.~.!.L.K.6.",
"P.D.G.G.Y.!.p $ f %.%.z z o.k z o.X 0 ~ g.k.r.) s..Xp.i.a.f.a.( V.#Xt.,X=.z :Xx.#.k.c.M.=Xt.,X;Xg.*X&.*.e C !.P.`.5.(.].Q.5.G.A.",
"T.T.P.Q.6.D.p $ Q k - z r = k l % & f f R ^ ~ i. .R R R R ] d.[ t.k.k.z.* z 7XN...o.z.=X3Xz.6X0X6XV.x.M.l i ].U.).`.Q.).)._.Q.D.",
"P.P.Y.L.G.'.i 3 e . O.1Xn.z =X=Xr 4 f ~ } [ d.8.~ [ 8. .[ ~ ~ ( W X.X.f & X ..j % = r l z r ..O...r = j = O n i c i u v n F Q.6.",
"P.D.G.P.3.U.2 o w *.z.%...+.O._ %.s R { 8.p.p.[ w.j.OXOXj.w.[ { ~ R d f & w l j k z j g j k r r j j k j z l g l j j j k k 4 + M ",
"!.(.D.!.T.I., % ;X:X:X#Xv.M.M.M.N.g R [  .e.e.w..X%X&X&X%X.Xw.d.( E R f # z =XN.N.N.N.B.B.N.B.B.B.N.N.B.N.N.B.B.N.B.B.N.B.N.z.= ",
"(.T.G.L.G.Y.1 % ;X,X:X*Xn.N.N.M.N.g R [  .e.e.w..X%X&X&X%X.Xw.a.( E R f # z ;XV.#X#X#X#X#X#X#X#X#X#X#X#X#XV.#X#XV.#X#X#X#XV.v.= ",
"Y.U.D.L.Y.I.i . w =.z.%.O.%.O...%.g R { 8.p.a.[ w..XoXoXj.w.[ | ~ R d f & e z k z z l j j z j j l k l k z z k z l l l l l w + V ",
"P.P.D.D.Y.E.i 3 e . O.3Xn.z =X;Xr 5 f ~ } | d.8.~  .w.w.{ ~ ( ( E X.X.f & X z r % % r l z r ..O...r = j = O n x c 2 c n c b K !.",
"<.3.A.1.3.A.1 $ Q k % z r = k l % & f f R ^ ~ i. .R R R R } d.[ *.k.k.c.* ..5Xk...+.z.=X3Xz.6X0X6XV.x.M.k n ^.A.^.U.S.T.'.F.1.L.",
"3.U 1.<.1.1.1 & f %.%.z z o.k z o.X 0 ~ t.k.r.) s..Xd.i.a.f.a.( B.V.=.,X=.z ;X*.#.k.c.M.=Xt.,X;Xg.*X&.*.e S !.I.S.!.Y.1.1.U P.G.",
"U.W.E.!.I./.c $ R Q =.z.&.#.g.k.k.%.. z.#XB.y.]  .d.XXXX|.d. .( @.=XN.z.&...:X=.+.k.v.V.:Xg.:X:Xz.V.*.&.= c S M M C 3.U.I.1.D.3.",
"/.D c n n n i   5 Y ` k.x.x.M.B.=X:Xk.w z @.)  .9.j.$X2X<Xb.8.] / ^ k.+.e e +.l k Q _ X.o.k ! ` _ Q Q k * @ # # # @ X 1 C 1.U.T.",
"C X $ 3 3 5 8 a d R R X.x.M.x.N.V.*X1X=Xz @ a ~ g.k.o.O.o.k.x.^ 3 % % % * s 0 s s a 0 0 0 s a 0 0 a a s d f d d d s s 3 @ - n D.",
"X 5 ~  .8.w.w.i.s.d.E E @.B.V.M.V.=X;X3X0X*..   O.! = @ % g *.e * g a d w.w.w.w.w.w.w.w.w.w.8.8.8.8. .{ { { { E R s ~ { ~ d @ 1.",
". a W ( ' [ @.r.t.h.y.^ W $.=X=XB.=X;X:X3X9X$X&.= j X.&.%.O.t * ~ R R 8.p.w.e.e.w.p.e.w.e.8.w.8.8.8.{  .[ { 8.| W R (  . .( = A.",
". a ~ } [ | t.c.x.M.k.k.[ ) r.;X,X=X;X,X3X4X7X5XB...z j w 9 s ~ R ( w.p.p.a.s.s.s p.[ R s.s w.R '  .0 i.s ~ i.8.) W [ i.w.] = K ",
"o 5 d R R R b.:Xz.z.=X*X8.E ] y.1X5X7X0XqXwXqX0X0XqX3Xk.@.[ ) ~ | d.s.s.f..X.X.Xa s.[ R OX0 p.R ] 9.0 s.d ( s.i.| ( 8..Xf. .= U ",
"  & 8 a s 0 v.5Xx.z.6X=X]  .[ ] h.V.N.N.N.N.n.v.z.k.&.{ [ ~ ] 9.s..X.XXXoXXXoXXXd OX8.W +Xs s.E | d.a .XY ] .Xs.9.[ d.oXXXi.* I ",
". a ~ } [ | l.x.x.M.c.n.oX&XoX .| 9.9.i.d.s.s.d.i.9.9.| }  .d. XXXXXoXXX X+X@X+XY oXw.( %Xf .XW 8.s.s XXR [ oX Xd. .s.%X%Xd.9 6.",
". 5 f ( ' } $.k.z.z.l.y.OXoX%XXX9.9.w.w.w.i.9. . .[ [  .u.u.s. X X.X.XE 3 w.+XXXs OX8.E +Xs s.R | d.0 .XY ) .Xs.9.[ d.oXXXu.4 1.",
"N . 8 R { 8.8.q.n.v.y.XXoX+X%X%X+XOXh.N.b.q.w.8.{ ' |  .| w.d.d.a.s.s.E 5 9.OX.XY f.8.( XXY d.E [ w.s s.T ) s.i.| ( 9..Xf. .= I ",
"'.C . 0 ~ } @.k.3X3X=.e.s. X.X.X|.q.c.5X>X*.[ } ( ~ ] ]  .w.w.9.w.i.i. . .p.a.s.s.s.d.w.w.w.a.p.i.i.9.w.9.9.w.8.) W [ i.w.] * P ",
"P.).J . 5 8 s o.z.z...T E / / / E R +.v.k.! 0 0 8 R W ] 8. . . . .9.[ W { w.f.oX+X.Xi.| ~ ' i.w.9.8.8. . . .8. .~ R (  .8.( * K ",
"P.D.F.M y 1 < ; ; 1 1 1 1 1 : y p ; 1 ; : ; 1 > + 3 R ~  .{ { { {  .{ [ { 8.9.w.w.w.8. .{ { 8. . .{ { { { { { W R d ~ { ~ s # C.",
"I.A.1.D.5.<.Y.6.5.3.6.U.I.P.1.~.U.P.6.<.1.1.D.D.H O 5 f d d d d d d d f d d d d d d d d f d d d d d d d d d d d d s 0 3 @ O b D.",
"6.3.1.P.<.>.P.1.D.P.<.6.L.Y.5.;.<.P.1.<.A.7.4.6.H.H O # # # @ # # # # @ # # @ # # @ @ # # # # # # # # # @ @ @ # # # % ; C P L.P.",
"L.5.3.P.!.1.4.4.P.!.6.A.6.G.3.7.Z.<.5.6.P.>.Q.3.Y.'.<.m C M C B G Z Z F C M b b C G S C C B C N N S S B B J J D S C 1.].].6.P._.",
"P.P.T.6.Q.!.~.6.6.5.1.L.G.3.K 6.5.<.A.5.G.Y.6.<.A.L.D.U.!.P.S.P.(.T.6.5.~.5.6.4.Y.T.L.A.I.D.A.Y.A.T.].S.E.'.'.I.A.~.L.D.P.L.P.D.",
"D.P.L.~.H.!.D.S.P.G.Y.Y.G.G.P.G.4.3.6.1.7.6.2.Q.Y.6.L.G.A.T.L.3.T.Q.5.4.3.Q.-.>.A.P.I.T.L.G.L.G.!.1.P 3.^.A.A.L.3.1.G.!.3.P.G.P.",
"G.D.Y.P.I.^.T.U.R.Z.D.Y.3.1.L.3.J 4.5.6.L 1.3.!.H.3.P.T.6.T.P.Y.G.P.}.G.5.<.1.G.3.P.P.Y.!.T.(.Y.2.G.I.~.!.Y.E.L.D.D.P.P.L.Z.E.P.",
"6.3.Q.D.I.A.U.I.I.U.3.G.H.D.G.<.6.4.<.6.H.5.L 6.2.:.2.L.1.A.Z.3.~.G.~._.6.3.7.3.H.6.L.5.6.Y.Y.E.3.3.Y.L.1.1.Y.(.A.D.D.D.T.P.!.<.",
"S.D.G.^.6.A.U.F.A.L.A.Y.L.G.G.K 1.>.<.G.2.6.Y.Y.Y.6.4.4.(.U A.(.~.3.6.)._.!.Q.L.1.6.L.G.G.Y.D.P.Y.'.D.<.P.Y.6.'.Y.].T.A.U.~.K.G.",
"A.D.L.T.G.^.'.I.A.S.D.6.P.L.6.Z.D.4.>.,.3.3.Y.~.>.6.6.4.H.3.4.G.Q.Y.!.).Q.!.G.U.I.1.I.Y.6.P.6.6.I.Z.Y.A.I.Y.1.G.T.A.1.!.!.I.P.F.",
"S.1.1.!.Y.A.E.A.E.S.1.1.A.Y.L.D.D.4.5.Q.Y.G.3.G.6.A.P.P.(.~.Y.2.Y.(.Q.~.Y.'.U.Y.Y.<.L.I.<.D.P.P.A.D.6.D.Y.Z.1.P.3.I.A.7.A.P.P.3.",
"F.3.Z.G.!.G.F.Y.1.W.E.U.U 6.L.P.T.Q.H.A.T.Y.Y.Y.A.1.~.L.T.P.D.G.G.6.).Q.U.A.U.W.2.6.L.6.3.D.P.L.1.6.Y.1.G.A.Z.!.L.(.A.Z.A.Z.1.D.",
"7.L.I.1.3.!.!.!.^.1.D.D.A.P.3.I.].G.G.D.Y.6.K.6.A.D.L.P.!.T.7.L.Q.A.A.Y.I.1.A.I.6.P.W.U.6.6.D.I.4.4.T.A.D.1.<.7.Y.T.!.P.A.3.D.Z.",
"6.T.!.A.!.^.(.G.I.L.!.7.!.R.S.1.'.!.~.J.D.6.P.U Y.T.6.6.D.P.G.D.T.L.:.3.[.E.D.I.Y.P.T.L.3.K D.5.1.L.1.U Y.D.L D.~.Y.P.L.D.P.I.S."
};
