/* XPM */
static char *Dirt_19_128x128_64[] = {
/* columns rows colors chars-per-pixel */
"64 64 76 1 ",
"  c #555338",
". c #5D5C3C",
"X c #615D3A",
"o c #65643D",
"O c #6A663D",
"+ c #65693E",
"@ c #6D6B3E",
"# c #736C3E",
"$ c #7C6E3E",
"% c #6F703F",
"& c #74713F",
"* c #7A703F",
"= c #646642",
"- c #686741",
"; c #666A43",
": c #6C6D43",
"> c #726E41",
", c #796F40",
"< c #657146",
"1 c #6E7245",
"2 c #6E7549",
"3 c #747444",
"4 c #7B7543",
"5 c #757946",
"6 c #7C7A46",
"7 c #727549",
"8 c #7A7649",
"9 c #757B4A",
"0 c #7C7D49",
"q c #757F51",
"w c #787F50",
"e c #876F3E",
"r c #81703F",
"t c #827542",
"y c #8A7643",
"u c #837C46",
"i c #8A7C46",
"p c #827E49",
"a c #8A7E48",
"s c #937D45",
"d c #7D8147",
"f c #76814C",
"g c #7D824C",
"h c #7F884E",
"j c #768051",
"k c #7C8551",
"l c #7D8A52",
"z c #848047",
"x c #8B8047",
"c c #83834B",
"v c #8A844B",
"b c #84894E",
"n c #8B8A4E",
"m c #928147",
"M c #91844B",
"N c #928B4E",
"B c #818651",
"V c #888750",
"C c #848B52",
"Z c #8B8D51",
"A c #928D52",
"S c #9A8E50",
"D c #869155",
"F c #8C9254",
"G c #859359",
"H c #8B955A",
"J c #8C995B",
"K c #929253",
"L c #989251",
"P c #9A9956",
"I c #91975B",
"U c #909859",
"Y c #A09351",
"T c #93A15F",
"R c #98A15F",
"E c #909D60",
/* pixels */
"cA044uub8t4bcnncxubcZBBBbB0uz9uccdbcztnppxuxdCnu,8iucUdhb3dx6pyy",
"eng#aZ886*icpccZni369qh9l9lzCCdvup#4b0i0ut4u5Zxuvxv06bcdNChxc4pc",
"in5*x0>29Vu8*CCtzcFb609938z0FHjC6y4t*4pp*u6dd6xb4rxuO0pbygbvbtuc",
"vhdv808pVK00zbgc00dFZ4k8cbcGCFCbbcivtupnnbc52bb4uyuu6Hx6dnvnuui8",
"8ptpd3kkBBB,04bCu0Cb97h58ljRCdcxNacpuzu6n6bn4puunubn4LcnzuiZ4ycz",
"k43404j28-<v4$nzut4;139h7lBGkjnvatytcK4rnvbruptZv*4uvc0zzzb4y6bc",
"dC0>8c6uB0495c6p60d3706bCZC2B0vdpbitnVux*Muuvncb*ub4vvB40zPpxFnn",
"bp8Vb48b08pr0dna$b050uz5uSwCDch&cuivyiVFavKnuuiMzccvsV46uucn6pnC",
"4>cu840bkp34ppbb8z0KzccvnL8ccdcZcut4uvcKnNbDcixcnxumuMizzFKdbZ60",
"u9kc3448pVV4t>#inZMuFc5xzJC8Zu4nv4upzvuvNi3dcZxuvzMuyFNuNv044t3$",
"p075b4>,8w930044Nux#uiny#dkb8dd0cpuncu4csuuu4bnMit*DvDNuv6bn4i*u",
"0ph3394#cV7>5upVM56000dcbZb8Zhb3zui6bBbNNxNvxzueAndbc*vAZ4zvVc4n",
"3Bb,33@4p34934BB&616g51b3075h66bfbnx40uyAF4cvnccpcu$yzyuCu34u4y$",
"b04u4>3n:387:0g@5c55080hZngg953B0Fnc4xuuivxxucx0iZcevvU@cnpb8Bn4",
"3b68:3cuh@:3>0n50c63ubk:5ChDg5nbdx0$4xzKMsM6upunuuzbxcc6c8Lyp87z",
"0u6007330*#1:6C0cv01b919@2835pz0pvcb&cnCFv3uc6ucb4ciu6tZ86bnu494",
"c9n5cd0@p4032bzcnu@ogj668C560Z589cz:6%cnnr0n664Fb6iizrbdbMddccc6",
"#O364rbnm4&*5FKvub0.lhiaic90d6C6:8-3d4NZv0zc@*cd30tbvb*bFnzuccpg",
"3u53pcduc640ddbv02%o30660@::1;80g4d37006vv5z*b6uyZbuvr6cnbbcpu0@",
"bcFnNni>uc3vx4zczu3789pnB3#74kCdn5nB11zbczbz6d4upCbnNcucZddd4466",
"#6Av3u0zbcNvu4nibd0-;1hB8470h4BzubC9@yfCNcu*5b0upzbCbx4nbfdbv0np",
"Fzzc3nbu3npuZ8ZY3503O07319k0;9bNFzb54xczu6ubzueunbb6vz0xczgxgpmZ",
"vnzbvuF64nCbz04buc0z0f:gn8907Znubn64nnucczgv6u0445zbJbcccd6*30gc",
"*vnNn0nbbcKdyd6hdy4Cd#6K303-1nn40p4504b5bbb4*z06>8v5bb0u9g6xb5pb",
"xczvcZZCZZcyycbzdHd4g3cg@7>79#0dcCzb0vn*zpg446z6BZbf>;:3d6gcbMvv",
"hnFKzxnZCpuupnnA6Cp$zzuh3>:jdg040l8puzhu4FC6$60zdw99-;0@36Dgzvzz",
"5cnnZZnFpmFhpc4u6bbzvb65f,3k=3z5c0gbb6cuu0Zcubc8935=u47G36ZZNxrN",
"iFzndFbBbbcZZzCbCjZJBAb3k0:3=;5hZbbCubc604g05bb48>33fgf060HCnvvK",
"ui0B5cFdnp81JHjgGC0Chup09k9+7:dlbuCD34cudzp4dt*3347g3b28wEHFCCc0",
"duZbibA*dzZBBGBCGj0cVVZ9C33g75bCdzcFC6bvbHv4b3&0zdBcbh3fEC0ZGIu*",
"nvMpdbuuuZGdCZpbB5nCCc4Zh3469c0nb0zcnubb#g:;p1f50zb4nbzCc06nK5uz",
"Nunxx4cg6B063d5ccnbfBgp0065064vudbzvggvK709:4335h44cxnCZ0CBZbcCn",
"z46icccu13nkdncbb00q;ddccxh650ni63Bh080F43003:443>46d8p6buFk3fzc",
"5d4apn04f0ghcnhcnh3lkcn3kZcp4pbct8d9b4dn9:85o;63@4tcx0ucbuu3bp4g",
"46cZxcCbJHn00u40835u90u6pBKubucbc051340v0:<;3-0M06tu05znnu*6bcZp",
"nGbnzEHd6bc0#z0$pci6cduc636dpbcb9c935cu43l930:0p4p5g40bu84FhFnZu",
"pACZBk0f#09gpnu0bp44zp3:B6cu4bz6pdh4vNNg6zb52d805g34y4cznd53czb0",
"4kHzClC0Zu3g6tcV35845:o:dpNi4A0bn36#6bbd6xbb00p537:4uuucb55zcBz0",
"8nKczlCbCpb50bBg3z6u03p0h433v#nzl3abdfgDCZnhv387o8600Fcd4305u4un",
"ux0AZjGHbbC>90n6293,#4c4+345cj04b4cCuvcC8lD3f6:-:0pc9nuvh3c30uub",
"nvc6BZFd5%0254w13d71#49n3@+o3923c33bunp3-;633jCw07w4g65CCuBBgb5*",
"6zbhnnbu0zuhHd+g8232:3cc:;83.;;8c08c0x3C1;1>>wl=74V63l846$bb0bbv",
"xigCZZtZbcycUc615433f3d3+13. -9>:wbugc2uu6d30077+pd>82b0490u0bdd",
"5bCnCv3pcNxv6410d564927723=.-32:804nuccd066j4kw,ec&*uch4$g35bnb0",
"59ZvHbcvZbcc5uuCc603ZFb998.52:53B8,cunczbgndvf3,6c4>506t08h<Cu0b",
"64BdkbZddu4vndcd04cfuZk;170-12c3pp#cau036kn88>uppt406805f3317hdB",
"0F6uC6cCb&cnCxbg6@601699k3f93+:06c$6Zvdx6Cc>9:cV4zf0C33680132BdF",
"cAdZCuu4x40hccbv0060p:cZBKl&@%f386uuA8p5zx>g;9n44#Gc3t93+04uzZPK",
"ncZ6zup4c&60ukCbz0:877bpzf4322kZ4nvbn6bhg09w:2z6c:fh>88c48#4uvc4",
"itn005Zzc#nzfCcu>::.ld59304d04B00zu0ibZzu9w3;:9d80O>86&cd0h5zdti",
"cn4Bdzv646vv35ggcn3o05cu@g3q14zg80dZd8h300p36p020Fuub08z4uddv0zx",
"Zcp44yu0czinc3fl07;.o8u&;87f35z60zJCbbd50hl449>dZ6dpczff8hbcu$uZ",
"puKapLy4$4$n660c993<+3983cc3g3g64&nZ04&d00c&c05h70cx0uzbbpv0*na4",
"ucbNnpp4r$nxnv4976bg8@32>4Abb04vb0c6O#6cvxv0zc4&3bn8404b06uu6NpZ",
"pnzzu63cuuAuNn404ic4nc51f4Z08fv63bbp4tz4uZzdi4u4:dB3cZ8dtnciiM4c",
"nnvnihuZpNNzcvvzunxdtu3bCcnpJGnxbbp4Zx0vxb&uu0Fb&z93pg0caauuN4Ac",
"dnzbbUx0u0z6nczvvdvccn8gbbw0DCvu46mu*iuui,ciBCcN0z3963uivcxvuVAg",
"h4bb0nuNt4uu63c#0xivZ0bu4B07fgn*5un06cncu,ic0Bbvy8bgc9BunnvKNaVF",
"VVNpxZZZ4##cu0045uv4z6d9gZhn5Nuy5uv44ytukvvpiuMx0zn114nFNpuNppZI",
"tAvuvhh5l8pn4bu6ubZ6d60blZbncd0nzbbu4unVVCHZNamvuhC23ZChxx6cBZpV",
"pp4bcb29nMubuzznz5vuguuVfFbfDdgGccu43pMZCVaSrup60c56cc5Bh0AnAp4u",
"p4x:335d6z3bv6xvbCc0GpcB7bCbcbgzduuutvpvxtEuuy0d0Fy*40nzbZzp8uaV",
"cutVCuu644Nbcit6unZ3bJDCdbBznbdFnvc84aiamzZpzc&40Zcu80cz060putcV",
"aucc6nu0nzbz#Mc0uhbnIDcHglzcbbcAZbc>6nmZLycbvnzubncx0zppp0iiaa8p"
};
