/* XPM */
static char *destroy_2[] = {
/* columns rows colors chars-per-pixel */
"8 8 59 1 ",
"  c #605432",
". c #665832",
"X c #665D37",
"o c #695832",
"O c #6D5F36",
"+ c #645F39",
"@ c #696037",
"# c #70663A",
"$ c #797343",
"% c #7F7342",
"& c #7A7947",
"* c #7A7A47",
"= c #7E7A47",
"- c #7E7C47",
"; c #797A48",
": c #7B7C49",
"> c #7D7D48",
", c #7C7D49",
"< c #7E7C49",
"1 c #7D7E49",
"2 c #7E7E49",
"3 c #8F4919",
"4 c #A5531D",
"5 c #A5591C",
"6 c #B15F1E",
"7 c #827C46",
"8 c #837F47",
"9 c #857E47",
"0 c #817F48",
"q c #807E49",
"w c #807F49",
"e c #827F48",
"r c #837F49",
"t c #7E804A",
"y c #7F804A",
"u c #7F814B",
"i c #808049",
"p c #818049",
"a c #828049",
"s c #838049",
"d c #80804A",
"f c #81814A",
"g c #81814B",
"h c #83814A",
"j c #848048",
"k c #848049",
"l c #848149",
"z c #878148",
"x c #868149",
"c c #848249",
"v c #86814A",
"b c #85834A",
"n c #87834B",
"m c #80834D",
"M c #83834C",
"N c #81844C",
"B c #82844C",
"V c #83844C",
"C c #84864D",
/* pixels */
"<qtub9bb",
"&&<tabbq",
"aa&@O7qq",
"bC#53O:b",
"Nu.64+=a",
"Nu$ .%&<",
"b8;:a=<a",
"a8aN8ban"
};
