/* XPM */
static char *destroy_4[] = {
/* columns rows colors chars-per-pixel */
"8 8 60 1 ",
"  c #73491D",
". c #714020",
"X c #6B5528",
"o c #7C5925",
"O c #685C31",
"+ c #6A663B",
"@ c #786737",
"# c #71683A",
"$ c #716B3E",
"% c #757242",
"& c #777645",
"* c #787746",
"= c #7A7947",
"- c #7F7946",
"; c #7F7B46",
": c #797A48",
"> c #7E7C49",
", c #7E7E48",
"< c #7E7E49",
"1 c #7E7F49",
"2 c #8C3E1B",
"3 c #864E1B",
"4 c #9D4E1C",
"5 c #8C501B",
"6 c #AA521C",
"7 c #AB5B1E",
"8 c #B25A1E",
"9 c #8F4921",
"0 c #894B29",
"q c #856025",
"w c #827946",
"e c #827C47",
"r c #847F47",
"t c #807F48",
"y c #817F48",
"u c #807E49",
"i c #827F48",
"p c #827F49",
"a c #847F48",
"s c #867F48",
"d c #7E804A",
"f c #7F814B",
"g c #818049",
"h c #828049",
"j c #838049",
"k c #83814A",
"l c #82824B",
"z c #848049",
"x c #858049",
"c c #848149",
"v c #848249",
"b c #878249",
"n c #86814A",
"m c #86834B",
"M c #87834B",
"N c #84854B",
"B c #82844C",
"V c #82854D",
"C c #83854D",
"Z c #84854D",
/* pixels */
">u>Vnnun",
"==>>;ncc",
"uj+o Oc,",
"MB 865%M",
"Vd3904#j",
"BwX27q&d",
"ne:$@&;j",
"jcjVcndn"
};
