/* XPM */
static char *destroy_6[] = {
/* columns rows colors chars-per-pixel */
"8 8 60 1 ",
"  c #6D4422",
". c #764625",
"X c #764D27",
"o c #734D29",
"O c #77502A",
"+ c #72532D",
"@ c #7A592F",
"# c #6B5B33",
"$ c #6F5930",
"% c #785A31",
"& c #706237",
"* c #706337",
"= c #756236",
"- c #746336",
"; c #7B6034",
": c #7B6134",
"> c #7A6237",
", c #726439",
"< c #746739",
"1 c #776B3B",
"2 c #70693C",
"3 c #76693C",
"4 c #78693A",
"5 c #78693B",
"6 c #7E6B3B",
"7 c #78703F",
"8 c #7C703E",
"9 c #707143",
"0 c #777041",
"q c #767241",
"w c #7D7340",
"e c #7C7542",
"r c #7E7542",
"t c #787846",
"y c #7A7846",
"u c #7A7A46",
"i c #7A7A47",
"p c #7B7B47",
"a c #7E7844",
"s c #7C7B47",
"d c #797A48",
"f c #7A7B49",
"g c #7F7D48",
"h c #7E7C49",
"j c #7F7E49",
"k c #7F7F49",
"l c #807441",
"z c #827A46",
"x c #807D47",
"c c #807E47",
"v c #807E49",
"b c #827E48",
"n c #808049",
"m c #81814A",
"M c #82804A",
"N c #81824B",
"B c #848049",
"V c #848149",
"C c #848249",
"Z c #87834B",
/* pixels */
"hv7+18BB",
"y,*$a @c",
"1=yfnc-r",
":lNyms2*",
"%<svht15",
"wOt9nf#0",
"B;.oo1qv",
"vc:r6zvZ"
};
