/* XPM */
static char *destroy_0[] = {
/* columns rows colors chars-per-pixel */
"8 8 55 1 ",
"  c #7D6B39",
". c #717345",
"X c #787947",
"o c #7A7947",
"O c #7A7A47",
"+ c #7B7B47",
"@ c #7C7B47",
"# c #7E7C46",
"$ c #797A48",
"% c #7A7B49",
"& c #7B7C48",
"* c #7D7C48",
"= c #7C7D48",
"- c #7D7D48",
"; c #7E7C49",
": c #7D7E49",
"> c #7E7E49",
", c #7F7E49",
"< c #7F7F49",
"1 c #806A36",
"2 c #816D39",
"3 c #826E39",
"4 c #817F48",
"5 c #807E49",
"6 c #827F48",
"7 c #837F48",
"8 c #837F49",
"9 c #847F48",
"0 c #857F48",
"q c #7E8049",
"w c #7F804A",
"e c #7F814A",
"r c #808049",
"t c #818049",
"y c #828049",
"u c #838049",
"i c #80804A",
"p c #83814A",
"a c #82824B",
"s c #848048",
"d c #848049",
"f c #848149",
"g c #868149",
"h c #848249",
"j c #878249",
"k c #86814A",
"l c #87834B",
"z c #86844B",
"x c #81834C",
"c c #82854D",
"v c #83854D",
"b c #81854E",
"n c #84854C",
"m c #84854D",
"M c #84864C",
/* pixels */
";5exggyg",
"oo;eyggy",
"yyo$qryy",
"zMx 3=;x",
"nq# 3X#x",
"neX.#&o;",
"yr$;#;;y",
"y7xxggyz"
};
