/* XPM */
static char *destroy_5[] = {
/* columns rows colors chars-per-pixel */
"8 8 62 1 ",
"  c #56351B",
". c #6C3819",
"X c #753C1B",
"o c #76481D",
"O c #7F4E1F",
"+ c #644826",
"@ c #694820",
"# c #694925",
"$ c #774822",
"% c #705429",
"& c #70542A",
"* c #765A2C",
"= c #7C5A29",
"- c #785C2C",
"; c #6A5B32",
": c #6F5D34",
"> c #765F35",
", c #6F6B3D",
"< c #776639",
"1 c #716B3F",
"2 c #7C6B39",
"3 c #7A7846",
"4 c #7A7947",
"5 c #7D7A47",
"6 c #7A7C48",
"7 c #7D7D48",
"8 c #7E7D48",
"9 c #7E7C49",
"0 c #7D7E49",
"q c #7C7F49",
"w c #7F7F49",
"e c #894B1D",
"r c #864F22",
"t c #885423",
"y c #81582A",
"u c #8A6937",
"i c #806D3D",
"p c #846F3D",
"a c #827C46",
"s c #807D48",
"d c #827F48",
"f c #837F48",
"g c #837F49",
"h c #857F48",
"j c #7F804A",
"k c #818049",
"l c #828049",
"z c #83814A",
"x c #81824A",
"c c #80824B",
"v c #82824B",
"b c #82834B",
"n c #848048",
"m c #848148",
"M c #848049",
"N c #868149",
"B c #848249",
"V c #86814A",
"C c #85834A",
"Z c #87834B",
"A c #81854E",
"S c #84854C",
/* pixels */
"9s6jxxxm",
"44;+t*mh",
"s2.<p$=s",
"Ceu6Siex",
"br<9j3 4",
"S@X>5y%4",
"x1-o#&7a",
"xab9amxC"
};
