/* XPM */
static char *destroy_3[] = {
/* columns rows colors chars-per-pixel */
"8 8 61 1 ",
"  c #77401D",
". c #6F4726",
"X c #664A2A",
"o c #714822",
"O c #7A4A24",
"+ c #655732",
"@ c #695932",
"# c #6A5832",
"$ c #6B5A34",
"% c #777240",
"& c #7C7343",
"* c #7B7444",
"= c #7F7745",
"- c #797946",
"; c #7A7947",
": c #7D7844",
"> c #7D7845",
", c #7E7C47",
"< c #7E7D47",
"1 c #7A7B48",
"2 c #7C7D49",
"3 c #7E7C49",
"4 c #7D7E48",
"5 c #7E7E49",
"6 c #87491F",
"7 c #A7581D",
"8 c #C96E22",
"9 c #CD7422",
"0 c #857743",
"q c #807B45",
"w c #807F48",
"e c #807E49",
"r c #827F48",
"t c #837F49",
"y c #847F48",
"u c #857F48",
"i c #7E804A",
"p c #7F804A",
"a c #7F814B",
"s c #E88D24",
"d c #808049",
"f c #818049",
"g c #828049",
"h c #838049",
"j c #83814A",
"k c #82824B",
"l c #82834B",
"z c #848048",
"x c #848049",
"c c #848149",
"v c #868149",
"b c #848249",
"n c #86814A",
"m c #85834A",
"M c #87834B",
"N c #80844D",
"B c #83844C",
"V c #83854C",
"C c #83854D",
"Z c #85854C",
"A c #888048",
/* pixels */
"3eaamzmz",
";;3a0Ame",
"gg;+.%rr",
"mC@78o;Z",
"VaX9s <g",
"g:$O6@*3",
"m<*33::g",
"mrgVzmgM"
};
