/* XPM */
static char *destroy_8[] = {
/* columns rows colors chars-per-pixel */
"8 8 59 1 ",
"  c #7F693B",
". c #7D6B3C",
"X c #7E6B3C",
"o c #7E6C3C",
"O c #7E6F3D",
"+ c #717345",
"@ c #7B7341",
"# c #7B7443",
"$ c #7C7642",
"% c #797545",
"& c #797645",
"* c #787746",
"= c #797846",
"- c #787947",
"; c #7B7946",
": c #7A7A47",
"> c #7B7B47",
", c #7C7946",
"< c #7C7A46",
"1 c #7D7B47",
"2 c #7F7C47",
"3 c #797A48",
"4 c #7B7B48",
"5 c #7A7B49",
"6 c #7A7C48",
"7 c #7D7D48",
"8 c #7E7D48",
"9 c #7E7C49",
"0 c #7F7E48",
"q c #7F7E49",
"w c #7F7F49",
"e c #827440",
"r c #807542",
"t c #807543",
"y c #847541",
"u c #837744",
"i c #827945",
"p c #837B45",
"a c #807B46",
"s c #807C46",
"d c #807D47",
"f c #867C46",
"g c #817D48",
"h c #807D49",
"j c #817E48",
"k c #817F48",
"l c #807E49",
"z c #847F48",
"x c #7E804A",
"c c #7F804A",
"v c #808049",
"b c #818049",
"n c #83814A",
"m c #82834B",
"M c #848049",
"N c #848249",
"B c #87834B",
"V c #81834C",
"C c #83854D",
/* pixels */
"9l>.feiM",
"%%19MyOd",
"dl>>cvVd",
"$CV6m119",
"@c69c>1l",
"d9-+16><",
"fo&@i<>i",
"Vu.u.uVM"
};
