/* XPM */
static char *destroy_7[] = {
/* columns rows colors chars-per-pixel */
"8 8 63 1 ",
"  c #7B512A",
". c #78552E",
"X c #7C562F",
"o c #755C32",
"O c #7B5A30",
"+ c #746236",
"@ c #7F6538",
"# c #716839",
"$ c #7E6B3B",
"% c #796A3C",
"& c #7F6E3E",
"* c #777342",
"= c #717345",
"- c #777444",
"; c #787242",
": c #797442",
"> c #797444",
", c #797645",
"< c #7A7744",
"1 c #7B7845",
"2 c #787947",
"3 c #7A7946",
"4 c #7B7A46",
"5 c #7A7A47",
"6 c #7F7845",
"7 c #7E7A45",
"8 c #7C7946",
"9 c #7C7A46",
"0 c #7C7C47",
"q c #7F7C46",
"w c #7E7C47",
"e c #7F7E47",
"r c #797A48",
"t c #7A7B49",
"y c #7A7C48",
"u c #7B7C48",
"i c #7E7C49",
"p c #7F7E49",
"a c #7F7F49",
"s c #7F7F4A",
"d c #806839",
"f c #826939",
"g c #817240",
"h c #847140",
"j c #807643",
"k c #807844",
"l c #877844",
"z c #807C46",
"x c #807C47",
"c c #817D47",
"v c #847C46",
"b c #817F48",
"n c #807E49",
"m c #7E804A",
"M c #808049",
"N c #818049",
"B c #83814A",
"V c #82834B",
"C c #848049",
"Z c #848249",
"A c #87834B",
"S c #80824C",
"D c #83854D",
/* pixels */
"in* l$fD",
">;75Bfoc",
"7c5rcNBe",
"#DSyV5y<",
"+i5em5e6",
"he2=iy>;",
"vO*%6776",
"B$.@X&iA"
};
