/* XPM */
static char *destroy_1[] = {
/* columns rows colors chars-per-pixel */
"8 8 54 1 ",
"  c #706E41",
". c #6E7043",
"X c #767544",
"o c #787644",
"O c #777846",
"+ c #787845",
"@ c #797947",
"# c #7A7947",
"$ c #7A7A47",
"% c #7E7C47",
"& c #797A48",
"* c #7B7C49",
"= c #7D7C48",
"- c #7D7D48",
"; c #7C7D49",
": c #7E7C49",
"> c #7D7E49",
", c #7E7E49",
"< c #7F7F49",
"1 c #924C1B",
"2 c #835023",
"3 c #8F5524",
"4 c #826332",
"5 c #817E47",
"6 c #817F48",
"7 c #807E49",
"8 c #827F48",
"9 c #837F49",
"0 c #847F48",
"q c #7F804A",
"w c #7F814A",
"e c #808049",
"r c #818049",
"t c #828049",
"y c #838049",
"u c #80804A",
"i c #82814A",
"p c #83814A",
"a c #82824B",
"s c #848048",
"d c #848049",
"f c #848149",
"g c #868149",
"h c #848249",
"j c #878249",
"k c #86814A",
"l c #87834B",
"z c #86844B",
"x c #81834C",
"c c #81844D",
"v c #83844D",
"b c #83854D",
"n c #81854E",
"m c #84854C",
/* pixels */
":7wctfff",
"##:wfjff",
"tt##w57t",
"zmc43X:m",
"cwO21 %t",
"mwO.X##:",
"ft&:t%:t",
"fttc0fwz"
};
