/* XPM */
static char *word_score_16[] = {
/* columns rows colors chars-per-pixel */
"80 16 137 2 ",
"   c #75703F",
".  c #5D6E4F",
"X  c #5D7053",
"o  c #686942",
"O  c #726F40",
"+  c #6C754B",
"@  c #747343",
"#  c #7B7644",
"$  c #767946",
"%  c #7C7B46",
"&  c #73764A",
"*  c #767B4C",
"=  c #7C7D49",
"-  c #6B7653",
";  c #6B7955",
":  c #61775D",
">  c #6B7C5D",
",  c #707951",
"<  c #787F53",
"1  c #5D7C6E",
"2  c #5A7F76",
"3  c #637C63",
"4  c #697F64",
"5  c #617F6E",
"6  c #827D46",
"7  c #827E48",
"8  c #7E814B",
"9  c #768154",
"0  c #7B8254",
"q  c #74835D",
"w  c #7F8B58",
"e  c #58827F",
"r  c #6C8162",
"t  c #6B846B",
"y  c #6F8A6F",
"u  c #718563",
"i  c #76886A",
"p  c #648374",
"a  c #6A8674",
"s  c #6D8974",
"d  c #668C7E",
"f  c #6B8C7D",
"g  c #748D72",
"h  c #738D79",
"j  c #83834B",
"k  c #89864C",
"l  c #848952",
"z  c #59898A",
"x  c #668B81",
"c  c #6A8E82",
"v  c #648E8E",
"b  c #6D9183",
"n  c #67958E",
"m  c #6B938C",
"M  c #719285",
"N  c #73958C",
"B  c #74988B",
"V  c #669591",
"C  c #6D9693",
"Z  c #6F9894",
"A  c #6B999C",
"S  c #709791",
"D  c #769B96",
"F  c #789A90",
"G  c #739D9D",
"H  c #799E9C",
"J  c #7BA19F",
"K  c #589CB3",
"L  c #6B9DA4",
"P  c #649DAA",
"I  c #719EA1",
"U  c #6CA3AF",
"Y  c #7CA3A3",
"T  c #74A5AC",
"R  c #7CA6AA",
"E  c #7DA9AE",
"W  c #6DA5B2",
"Q  c #71A5B1",
"!  c #77A8B3",
"~  c #7DACB4",
"^  c #77ACBB",
"/  c #7EAEBA",
"(  c #7BB0BE",
")  c #74AFC5",
"_  c #7AB3C5",
"`  c #7FB8CD",
"'  c #7CBBD2",
"]  c #81A6A9",
"[  c #83AAAB",
"{  c #82AEB5",
"}  c #86B0B7",
"|  c #83B2BC",
" . c #8BB5BD",
".. c #82B5C3",
"X. c #8BB7C1",
"o. c #8CB9C4",
"O. c #83BACD",
"+. c #8DBDCD",
"@. c #90BECD",
"#. c #86BCD1",
"$. c #8ABFD3",
"%. c #91C1CE",
"&. c #9AC2CC",
"*. c #84C0D6",
"=. c #92C2D2",
"-. c #9AC4D1",
";. c #95C6D8",
":. c #98C6D9",
">. c #9BCADC",
",. c #A0C7D3",
"<. c #A1CFE1",
"1. c #A5D3E4",
"2. c #ACD5E5",
"3. c #A4D7E9",
"4. c #A6D9EA",
"5. c #ABDBED",
"6. c #B2DDED",
"7. c #BADEEC",
"8. c #A7DEF3",
"9. c #B2DFF0",
"0. c #B6E0EF",
"q. c #BBE1EE",
"w. c #ADE0F3",
"e. c #B5E1F1",
"r. c #BBE4F3",
"t. c #BFE8F7",
"y. c #BBE7F8",
"u. c #BEE9FA",
"i. c #C2E3EF",
"p. c #C2E6F4",
"a. c #C3E8F6",
"s. c #C9EAF6",
"d. c #C3ECFC",
"f. c #CBEEFB",
"g. c #C6F0FF",
"h. c #CBF1FF",
"j. c #D2F2FF",
/* pixels */
"7 = 7 q B ~ @.=.@.=.+.| F g 8 6 6 = 7 j 9 f E o.%.+.=.o.Y M 0 6 6 = = = g [ %.=.$.o.R i 6 j j 6 g ~ X.$.:.:.;.;.@.} D s 6 8 j 6 m O.:.;.;.;.;.;.;.;.;.;.;.-.^ q ",
"= * C >.r.d.r.r.r.r.r.t.r.5.T 0 = % $ b %.e.d.r.r.r.r.r.u.r.%.g = = r  .9.a.r.r.r.t.a.2.Y < j j #.f.r.r.9.r.r.e.r.t.p.5.Y < j j W s.r.7.r.e.e.r.e.r.r.e.e.a.e.c ",
"= A d.r.5.5.4.4.5.4.4.3.4.j._ = = * L d.a.0.5.4.3.4.5.4.4.q.r.d = r ;.h.6.5.4.4.4.4.5.e.h.| 0 = O.p.4.5.5.4.5.4.4.5.5.7.h.^ 0 7 W p.5.5.5.5.4.4.5.5.4.4.3.0.6.d ",
"p 4.p.4.5.5.7.r.t.d.g.t.s.e.p = = m d.q.4.5.5.r.d.d.d.d.6.f...* & | f.4.5.5.u.d.d.r.5.5.5.h.J = #.a.5.5.9.7.t.f.t.5.5.8.6.t.m 6 W s.5.5.5.9.r.a.r.a.a.a.a.h.5.d ",
"A r.5.5.5.e.i.) L N H &.6.U = = 4 >.r.4.6.5.a.;.R H J | 2.e.d % c r.5.5.5.a.@.G I :.a.5.4.r.<.r +.p.5.5.9.7.A F o.a.5.5.5.f.T = W s.5.5.5.r.2.P L L L P L G f = ",
"m r.0.5.5.5.q.6.-.{ M 1 : % % j G a.6.5.4.a.+.: = % % O > t $ j ~ a.5.5.t.%.. 7 8 3 2.7.5.5.a.S #.p.5.5.e.9.z 4 ! f.5.5.5.f.E 6 Q a.5.5.5.e.7.-.-.-.-.-.-...> j ",
"q O.f.5.5.5.4.e.y.f.g.6.o.d 8 k ( a.5.5.6.d.v * j j j % & & l k %.r.5.5.f.C @ = j % | a.4.5.r.~ #.p.4.5.9.p.5.r.a.9.5.5.5.f.C j Q s.5.5.5.5.6.r.y.r.y.e.a.d.n k ",
"j 4 O.f.d.e.5.4.3.4.5.0.d.d.T 0 ..a.4.5.0.a.c = l j % $ = 8 l j ;.r.4.5.u.B * * l j E a.5.5.t.~ #.p.5.5.5.5.6.6.5.5.5.5.h.O.u j Q f.5.5.5.5.5.5.5.5.5.4.e.r.n j ",
"j j + b o.4.d.f.u.5.5.5.4.r.r.V ~ a.5.5.6.f.S j = 8 * @ % j 8 j O.r.4.5.d.D j j 8 % | d.4.5.a.R O.p.5.5.5.6.6.5.5.5.e.p.^ > 7 j W a.5.5.5.e.i.e.t.t.y.r.u.8.f j ",
"l l s - o X a I %.r.e.5.5.5.p._ G a.5.5.4.a.=.r % j j $ ; i * j ~ a.5.5.p.=.; 8 = s 2.0.5.5.r.N #.a.5.5.e.7.6.e.5.5.5.a.^ * = 7 T s.5.5.5.r.2.z s p p p e t $ j ",
"7 L u.5.X.Y N m L 2.r.5.5.5.p.O.a 4.r.4.5.5.a.>.E Y R } >.d.U 8 d e.6.5.5.t.=.Y R 1.t.5.5.e.1.4 #.p.5.5.r.2.K q.e.5.5.5.h.T = j W a.5.5.5.r.6.^ [ ] ] ] ] ] ~ f ",
"t >.s.9.u.f.g.g.d.e.5.5.5.5.s.P = L f.6.4.5.5.r.d.g.d.d.e.p.>.r * / h.4.5.5.r.d.d.r.5.4.5.f.A j O.p.5.5.e.e.2 A f.5.5.5.0.y.x 8 T s.5.5.5.5.q.a.g.g.g.g.g.f.j.' ",
"W f.6.4.4.4.4.4.4.4.5.5.e.h.=.4 j & ^ d.r.5.4.4.3.3.3.3.3.9.f.G j > =.h.6.4.4.4.3.4.5.e.h./ & j $.p.4.4.0.e.s + O.s.3.2.4.r.=.u Q a.5.5.4.4.4.3.3.3.3.3.3.3.q._ ",
"n ;.r.f.d.d.a.u.u.u.f.d.2.~ > 7 j j @ C <.u.f.u.u.d.d.d.f.r.>.m k 7 - { e.g.d.u.d.d.f.5.G + 7 7 #.h.d.d.h.u.d 8 p 4.h.d.d.f.h.P W h.d.d.g.a.g.u.d.d.g.a.d.d.j.#.",
"j , a N R } o. .X. .R M 3 @ k k j j 6 % - c Y  . . . .[ D f , j j j 7 @ t D  . . .[ S > $ j k k s Y I ] Y m 0 j % t Y ] I Y J i s ~ ~ } } ~ ~ } ~ } ~ } ~ { | c ",
"6 = j 6 % * @ @ O O 7 7 7 j j 7 j = 6 j j l 8 $ @   # # % j j 6 7 = j 7 j j $ @   # k 7 j = j 7 6 # 6 # 8 8 l j 7 7 7 6 % % 6 j %   @   @ $ $ $     #   @   @ 6 "
};
