/* XPM */
static char *Wall_with_dirt_64[] = {
/* columns rows colors chars-per-pixel */
"64 64 67 1 ",
"  c #766D3D",
". c #78703E",
"X c #6F3E43",
"o c #717140",
"O c #7C7340",
"+ c #7D7241",
"@ c #7C7341",
"# c #797643",
"$ c #7B7642",
"% c #7F7642",
"& c #757843",
"* c #7E7843",
"= c #7E7944",
"- c #7E7847",
"; c #7F7B46",
": c #7D7648",
"> c #7E7B48",
", c #7B7E48",
"< c #7F7E4A",
"1 c #80703F",
"2 c #837341",
"3 c #827342",
"4 c #817745",
"5 c #857843",
"6 c #837946",
"7 c #807B47",
"8 c #867945",
"9 c #877A44",
"0 c #837D47",
"q c #837F47",
"w c #857F47",
"e c #8A7B47",
"r c #837E49",
"t c #807F4A",
"y c #827F4B",
"u c #867C48",
"i c #8A7F48",
"p c #8B7F4A",
"a c #AB6158",
"s c #7D824A",
"d c #7E844B",
"f c #7F814D",
"g c #7C864F",
"h c #81814B",
"j c #858149",
"k c #868049",
"l c #878149",
"z c #85824B",
"x c #85844B",
"c c #84854B",
"v c #86804C",
"b c #80864D",
"n c #87844E",
"m c #88804A",
"M c #8A814A",
"N c #88824A",
"B c #89824D",
"V c #8C834D",
"C c #89864F",
"Z c #8F874D",
"A c #88894F",
"S c #8E8A4D",
"D c #8D8951",
"F c #8F8E51",
"G c #928E51",
"H c #CB815E",
"J c #F4AC66",
/* pixels */
"vG,$XXXXXXXXXXXXXXXXXXXXXXXXXXXXXXXXXXXXXXXXXXXXXXXXXXXXXXXX=r2e",
"1Sd XXXXXXXXXXXXXXXXXXXXXXXXXXXXXXXXXXXXXXXXXXXXXXXXXXXXXXXXk+qn",
"uZ&.XXXXXXXXXXXXXXXXXXXXXXXXXXXXXXXXXXXXXXXXXXXXXXXXXXXXXXXXc%=k",
"BgsVXXXXXXXXXXXXXXXXXXXXXXXXXXXXXXXXXXXXXXXXXXXXXXXXXXXXXXXX8k8>",
"XXXXXXXXXXXXXXXXXXXXXXXXXXXXXXXXXXXXXXXXXXXXXXXXXXXXXXXXXXXXXXXX",
"XXXXXXXXXXXXXXXXXXXXXXXXXXXXXXXXXXXXXXXXXXXXXXXXXXXXXXXXXXXXXXXX",
"XXXXXXXXXXXXXXXXXXXXXXXXXXXXXXXXXXXXXXXXXXXXXXXXXXXXXXXXXXXXXXXX",
"XXXXXXXJJJJJJJJJJJJJJJJJJJJJJJJJJJJJJJJJJJJJJJJJJJJJJJJJJXXXXXXX",
"XXXXXXXJJJJJJJJJJJJJJJJJJJJJJJJJJJJJJJJJJJJJJJJJJJJJJJJJJXXXXXXX",
"XXXXXXXJJJJJJJJJJJJJJJJJJJJJJJJJJJJJJJJJJJJJJJJJJJJJJJJJJXXXXXXX",
"XXXXXXXJJJJJJJJJJJJJJJJJJJJJJJJJJJJJJJJJJJJJJJJJJJJJJJJJJXXXXXXX",
"XXXXXXXJJJJJJJJJJJJJJJJJJJJJJJJJJJJJJJJJJJJJJJJJJJJJJaaaaXXXXXXX",
"XXXXXXXJJJJJJJJJJJJJJJJJJJJJJJJJJJJJJJJJJJJJJJJJJJJJJaaaaXXXXXXX",
"XXXXXXXJJJJJJJJJJJJJJJJJJJJJJJJJJJJJJJJJJJJJJJJJJJJJJaaaaXXXXXXX",
"XXXXXXXJJJJJJJHHHHHHHHHHHHHHHHHHHHHHHHHHHHHHHHHHHHaaaaaaaXXXXXXX",
"XXXXXXXJJJJJJJHHHHHHHHHHHHHHHHHHHHHHHHHHHHHHHHHHHHaaaaaaaXXXXXXX",
"XXXXXXXJJJJJJJHHHHHHHHHHHHHHHHHHHHHHHHHHHHHHHHHHHHaaaaaaaXXXXXXX",
"XXXXXXXJJJJJJJHHHHHHHHHHHHHHHHHHHHHHHHHHHHHHHHHHHHaaaaaaaXXXXXXX",
"XXXXXXXJJJJJJJHHHHHHHHHHHHHHHHHHHHHHHHHHHHHHHHHHHHaaaaaaaXXXXXXX",
"XXXXXXXJJJJJJJHHHHHHHHHHHHHHHHHHHHHHHHHHHHHHHHHHHHaaaaaaaXXXXXXX",
"XXXXXXXJJJJJJJHHHHHHHHHHHHHHHHHHHHHHHHHHHHHHHHHHHHaaaaaaaXXXXXXX",
"XXXXXXXJJJJJJJHHHHHHHaaaaaaaaaaaaaaaaaaJJJJHHHHHHHaaaaaaaXXXXXXX",
"XXXXXXXJJJJJJJHHHHHHHaaaaaaaaaaaaaaaaaaJJJJHHHHHHHaaaaaaaXXXXXXX",
"XXXXXXXJJJJJJJHHHHHHHaaaaaaaaaaaaaaaaaaJJJJHHHHHHHaaaaaaaXXXXXXX",
"XXXXXXXJJJJJJJHHHHHHHaaaaaaaaaaaaaaaaaaJJJJHHHHHHHaaaaaaaXXXXXXX",
"XXXXXXXJJJJJJJHHHHHHHaaaaHHHHHHHHHHHHHHJJJJHHHHHHHaaaaaaaXXXXXXX",
"XXXXXXXJJJJJJJHHHHHHHaaaaHHHHHHHHHHHHHHJJJJHHHHHHHaaaaaaaXXXXXXX",
"XXXXXXXJJJJJJJHHHHHHHaaaaHHHHHHHHHHHHHHJJJJHHHHHHHaaaaaaaXXXXXXX",
"XXXXXXXJJJJJJJHHHHHHHaaaaHHHHHHHHHHHHHHJJJJHHHHHHHaaaaaaaXXXXXXX",
"XXXXXXXJJJJJJJHHHHHHHaaaaHHHHHHHHHHHHHHJJJJHHHHHHHaaaaaaaXXXXXXX",
"XXXXXXXJJJJJJJHHHHHHHaaaaHHHHHHHHHHHHHHJJJJHHHHHHHaaaaaaaXXXXXXX",
"XXXXXXXJJJJJJJHHHHHHHaaaaHHHHHHHHHHHHHHJJJJHHHHHHHaaaaaaaXXXXXXX",
"XXXXXXXJJJJJJJHHHHHHHaaaaHHHHHHHHHHHHHHJJJJHHHHHHHaaaaaaaXXXXXXX",
"XXXXXXXJJJJJJJHHHHHHHaaaaHHHHHHHHHHHHHHJJJJHHHHHHHaaaaaaaXXXXXXX",
"XXXXXXXJJJJJJJHHHHHHHaaaaHHHHHHHHHHHHHHJJJJHHHHHHHaaaaaaaXXXXXXX",
"XXXXXXXJJJJJJJHHHHHHHaaaaHHHHHHHHHHHHHHJJJJHHHHHHHaaaaaaaXXXXXXX",
"XXXXXXXJJJJJJJHHHHHHHaaaaHHHHHHHHHHHHHHJJJJHHHHHHHaaaaaaaXXXXXXX",
"XXXXXXXJJJJJJJHHHHHHHaaaaHHHHHHHHHHHHHHJJJJHHHHHHHaaaaaaaXXXXXXX",
"XXXXXXXJJJJJJJHHHHHHHaaaaHHHHHHHHHHHHHHJJJJHHHHHHHaaaaaaaXXXXXXX",
"XXXXXXXJJJJJJJHHHHHHHJJJJJJJJJJJJJJJJJJJJJJHHHHHHHaaaaaaaXXXXXXX",
"XXXXXXXJJJJJJJHHHHHHHJJJJJJJJJJJJJJJJJJJJJJHHHHHHHaaaaaaaXXXXXXX",
"XXXXXXXJJJJJJJHHHHHHHJJJJJJJJJJJJJJJJJJJJJJHHHHHHHaaaaaaaXXXXXXX",
"XXXXXXXJJJJJJJHHHHHHHJJJJJJJJJJJJJJJJJJJJJJHHHHHHHaaaaaaaXXXXXXX",
"XXXXXXXJJJJJJJHHHHHHHHHHHHHHHHHHHHHHHHHHHHHHHHHHHHaaaaaaaXXXXXXX",
"XXXXXXXJJJJJJJHHHHHHHHHHHHHHHHHHHHHHHHHHHHHHHHHHHHaaaaaaaXXXXXXX",
"XXXXXXXJJJJJJJHHHHHHHHHHHHHHHHHHHHHHHHHHHHHHHHHHHHaaaaaaaXXXXXXX",
"XXXXXXXJJJJJJJHHHHHHHHHHHHHHHHHHHHHHHHHHHHHHHHHHHHaaaaaaaXXXXXXX",
"XXXXXXXJJJJJJJHHHHHHHHHHHHHHHHHHHHHHHHHHHHHHHHHHHHaaaaaaaXXXXXXX",
"XXXXXXXJJJJJJJHHHHHHHHHHHHHHHHHHHHHHHHHHHHHHHHHHHHaaaaaaaXXXXXXX",
"XXXXXXXJJJJJJJHHHHHHHHHHHHHHHHHHHHHHHHHHHHHHHHHHHHaaaaaaaXXXXXXX",
"XXXXXXXJJJJaaaaaaaaaaaaaaaaaaaaaaaaaaaaaaaaaaaaaaaaaaaaaaXXXXXXX",
"XXXXXXXJJJJaaaaaaaaaaaaaaaaaaaaaaaaaaaaaaaaaaaaaaaaaaaaaaXXXXXXX",
"XXXXXXXJJJJaaaaaaaaaaaaaaaaaaaaaaaaaaaaaaaaaaaaaaaaaaaaaaXXXXXXX",
"XXXXXXXaaaaaaaaaaaaaaaaaaaaaaaaaaaaaaaaaaaaaaaaaaaaaaaaaaXXXXXXX",
"XXXXXXXaaaaaaaaaaaaaaaaaaaaaaaaaaaaaaaaaaaaaaaaaaaaaaaaaaXXXXXXX",
"XXXXXXXaaaaaaaaaaaaaaaaaaaaaaaaaaaaaaaaaaaaaaaaaaaaaaaaaaXXXXXXX",
"XXXXXXXaaaaaaaaaaaaaaaaaaaaaaaaaaaaaaaaaaaaaaaaaaaaaaaaaaXXXXXXX",
"XXXXXXXXXXXXXXXXXXXXXXXXXXXXXXXXXXXXXXXXXXXXXXXXXXXXXXXXXXXXXXXX",
"XXXXXXXXXXXXXXXXXXXXXXXXXXXXXXXXXXXXXXXXXXXXXXXXXXXXXXXXXXXXXXXX",
"XXXXXXXXXXXXXXXXXXXXXXXXXXXXXXXXXXXXXXXXXXXXXXXXXXXXXXXXXXXXXXXX",
"=uOgXXXXXXXXXXXXXXXXXXXXXXXXXXXXXXXXXXXXXXXXXXXXXXXXXXXXXXXXFs+5",
"h#k.XXXXXXXXXXXXXXXXXXXXXXXXXXXXXXXXXXXXXXXXXXXXXXXXXXXXXXXX=6MD",
"n>3DXXXXXXXXXXXXXXXXXXXXXXXXXXXXXXXXXXXXXXXXXXXXXXXXXXXXXXXX=:hA",
"k6kcXXXXXXXXXXXXXXXXXXXXXXXXXXXXXXXXXXXXXXXXXXXXXXXXXXXXXXXXpp>>"
};
