/* XPM */
static char *collectible_16[] = {
/* columns rows colors chars-per-pixel */
"16 16 232 2 ",
"   c #6D4C19",
".  c #6A4C1D",
"X  c #68531C",
"o  c #6A521D",
"O  c #544523",
"+  c #544927",
"@  c #5B4C24",
"#  c #5A4E25",
"$  c #565125",
"%  c #5A4E34",
"&  c #555632",
"*  c #515135",
"=  c #6A5F2E",
"-  c #625B30",
";  c #6D5B30",
":  c #636338",
">  c #60633C",
",  c #64673F",
"<  c #656A3F",
"1  c #666A3F",
"2  c #5B6540",
"3  c #646740",
"4  c #666C40",
"5  c #676C44",
"6  c #686B42",
"7  c #6A6F42",
"8  c #6A6C44",
"9  c #647045",
"0  c #6C7045",
"q  c #6D7245",
"w  c #707141",
"e  c #727444",
"r  c #737545",
"t  c #747444",
"y  c #767646",
"u  c #767746",
"i  c #787645",
"p  c #757847",
"a  c #7B7846",
"s  c #7B7B47",
"d  c #7C7845",
"f  c #7C7A46",
"g  c #7C7B47",
"h  c #7E7B47",
"j  c #7C7C47",
"k  c #7F7C46",
"l  c #7F7E47",
"z  c #737748",
"x  c #7A7B48",
"c  c #7B7B4A",
"v  c #7C7B48",
"b  c #7D7B48",
"n  c #7A7C48",
"m  c #7C7C48",
"M  c #7C7D48",
"N  c #7D7D48",
"B  c #7C7D49",
"V  c #7D7D49",
"C  c #7E7C48",
"Z  c #7E7D48",
"A  c #7F7D49",
"S  c #7C7E48",
"D  c #7E7E48",
"F  c #7C7D4A",
"G  c #7D7E4A",
"H  c #7A7F4C",
"J  c #864704",
"K  c #874A0D",
"L  c #814414",
"P  c #8A4D14",
"I  c #80451A",
"U  c #875D1C",
"Y  c #B05D11",
"T  c #876011",
"R  c #856316",
"E  c #876811",
"W  c #8A771D",
"Q  c #875B37",
"!  c #8A7B3A",
"~  c #D8730D",
"^  c #F37D06",
"/  c #F07D17",
"(  c #817B45",
")  c #817C46",
"_  c #807C47",
"`  c #817D47",
"'  c #837C46",
"]  c #817E47",
"[  c #837E47",
"{  c #807C48",
"}  c #807D48",
"|  c #817E48",
" . c #807F48",
".. c #807F49",
"X. c #817F49",
"o. c #827E48",
"O. c #837E48",
"+. c #837F48",
"@. c #857E48",
"#. c #847F48",
"$. c #857F48",
"%. c #847E49",
"&. c #867E48",
"*. c #8D7F4B",
"=. c #7F8049",
"-. c #7F804A",
";. c #7F814B",
":. c #7D834D",
">. c #B3841F",
",. c #F78800",
"<. c #FF850B",
"1. c #F5890C",
"2. c #F58D12",
"3. c #FF9315",
"4. c #F89814",
"5. c #FCA81E",
"6. c #FFAF1E",
"7. c #F8B01E",
"8. c #FFBA1F",
"9. c #FFBE1F",
"0. c #DA9C21",
"q. c #D88836",
"w. c #F89D23",
"e. c #F69F29",
"r. c #FF8F35",
"t. c #FD963D",
"y. c #DFA023",
"u. c #D6A730",
"i. c #F8A521",
"p. c #EEB926",
"a. c #FFB321",
"s. c #FEB32C",
"d. c #FBB82F",
"f. c #F7AD36",
"g. c #F9B031",
"h. c #FFCB39",
"j. c #808049",
"k. c #818049",
"l. c #828049",
"z. c #838049",
"x. c #828149",
"c. c #838149",
"v. c #80804A",
"b. c #80814A",
"n. c #83804A",
"m. c #80824B",
"M. c #81824B",
"N. c #81834B",
"B. c #83824A",
"V. c #83834B",
"C. c #848048",
"Z. c #858048",
"A. c #858049",
"S. c #878148",
"D. c #868049",
"F. c #878049",
"G. c #858349",
"H. c #84814A",
"J. c #85814A",
"K. c #84824A",
"L. c #85824A",
"P. c #84834A",
"I. c #85834A",
"U. c #84834B",
"Y. c #85834B",
"T. c #86834A",
"R. c #82844B",
"E. c #83854B",
"W. c #85854A",
"Q. c #85844B",
"!. c #87844A",
"~. c #87844B",
"^. c #87854B",
"/. c #81834C",
"(. c #82834C",
"). c #81844C",
"_. c #82844C",
"`. c #83844C",
"'. c #82864D",
"]. c #83864E",
"[. c #83874F",
"{. c #84854C",
"}. c #84854D",
"|. c #84874D",
" X c #87864C",
".X c #84874E",
"XX c #85874E",
"oX c #86864E",
"OX c #86874E",
"+X c #898149",
"@X c #888249",
"#X c #88824A",
"$X c #89834A",
"%X c #88834B",
"&X c #89854B",
"*X c #8A854A",
"=X c #8A854B",
"-X c #8B864B",
";X c #89874C",
":X c #8B864D",
">X c #88864E",
",X c #86884E",
"<X c #88894D",
"1X c #8B894E",
"2X c #828A51",
"3X c #858A52",
"4X c #878C52",
"5X c #898A50",
"6X c #898D53",
"7X c #FD9A45",
"8X c #F6AF49",
"9X c #F9BC51",
"0X c #FFBF55",
"qX c #D5A773",
"wX c #F5B866",
"eX c #F1BD7C",
"rX c #F8C448",
"tX c #FFC751",
"yX c #F8C856",
"uX c #F8CC65",
"iX c #FCC368",
"pX c #F6D168",
"aX c #FFD774",
"sX c #FAD17C",
"dX c #FADA89",
"fX c #FADD90",
"gX c #FEDF92",
"hX c #FAE08D",
"jX c #F7D9BB",
"kX c #F2DFBC",
"lX c #F5E3AD",
"zX c #F2F7F1",
/* pixels */
"o.C C `.R.H :.`.) ) ( o.' V.V.) ",
"C C c o.C s 4X3X$X&X&XV.D.D.T.D.",
"v s c h V.V.6 $ O % q $X%.&XT.l ",
"v i e s C - T u.y.qXQ = D.%.o.l ",
"h o.h &X> R 9.iXaXgXr.J 0 &XT.=.",
"T.V.T.T.# 0.5.f.wXzXjXq.@ `.l V.",
"T.<X<X8 E s.8X^ 4.dXlXt.L 2 |.&X",
"T.V.3X1 ! tXe.2.,.sXyX7XK 9 6X`.",
"V.R.|.: *.0XkXw.1.dXrX<.P 4 &X/.",
"|.[.V.q ; eX9Xi.d.hXg./ . p =.o.",
"D.|.) `.* >.6.7.uXpX3.Y & /.S =.",
"`.`.V.R.e X p.8.h.a.~ . e s u `.",
"V.o.( /.u 6 o W U   + 7 V.C S o.",
"|.' ' V.s h z 3 , 6 /.V.c C D.D.",
"T.|.o.o.%.V.|.<X*.*.D.D.C C &X&X",
"o.C o.o./.|.|.|.' &.&Xo.V.V.`.o."
};
