/* XPM */
static char *character_right[] = {
/* columns rows colors chars-per-pixel */
"16 16 211 2 ",
"   c #352821",
".  c #372C23",
"X  c #392824",
"o  c #392925",
"O  c #3A2925",
"+  c #3D2B24",
"@  c #3E2B24",
"#  c #392D24",
"$  c #3E3E28",
"%  c #3C3430",
"&  c #49332C",
"*  c #4B362F",
"=  c #4E352D",
"-  c #4C352F",
";  c #4F3730",
":  c #4D3832",
">  c #403B39",
",  c #4B3F3A",
"<  c #4C3F3A",
"1  c #503830",
"2  c #513931",
"3  c #503832",
"4  c #513932",
"5  c #503A33",
"6  c #533B33",
"7  c #533C33",
"8  c #543C34",
"9  c #573F36",
"0  c #573F37",
"q  c #454329",
"w  c #4F4B2E",
"e  c #514F30",
"r  c #594038",
"t  c #5A4139",
"y  c #5E453B",
"u  c #5E443C",
"i  c #5F443C",
"p  c #5E453C",
"a  c #565332",
"s  c #555433",
"d  c #585737",
"f  c #5D5835",
"g  c #5F5A35",
"h  c #585738",
"j  c #5C5B3B",
"k  c #5E5B3B",
"l  c #62453A",
"z  c #60453C",
"x  c #61463D",
"c  c #62463E",
"v  c #64463C",
"b  c #64463D",
"n  c #63483F",
"m  c #63613A",
"M  c #63633A",
"N  c #646139",
"B  c #666439",
"V  c #65643A",
"C  c #67653A",
"Z  c #66653B",
"A  c #67653B",
"S  c #66653D",
"D  c #68663A",
"F  c #69663B",
"G  c #6B673B",
"H  c #6D673B",
"J  c #6B673C",
"K  c #66683D",
"L  c #6A693B",
"P  c #6C683B",
"I  c #6E683B",
"U  c #6B683C",
"Y  c #68683E",
"T  c #6A6A3E",
"R  c #6B6A3F",
"E  c #6D683C",
"W  c #6E693C",
"Q  c #6E683D",
"!  c #6F6A3D",
"~  c #6D6C3F",
"^  c #706B3D",
"/  c #716B3D",
"(  c #706E3F",
")  c #454344",
"_  c #464445",
"`  c #594640",
"'  c #594740",
"]  c #504947",
"[  c #564844",
"{  c #514E4D",
"}  c #524E4D",
"|  c #5D4F4A",
" . c #5D534F",
".. c #595B4C",
"X. c #5A5B4C",
"o. c #525356",
"O. c #535656",
"+. c #5B5655",
"@. c #5C5756",
"#. c #664A41",
"$. c #674B42",
"%. c #694B41",
"&. c #6A4C43",
"*. c #6C4C42",
"=. c #6D4F45",
"-. c #6F5045",
";. c #6E5046",
":. c #6F5046",
">. c #6F5146",
",. c #6E5347",
"<. c #6F5447",
"1. c #715045",
"2. c #745347",
"3. c #715349",
"4. c #725349",
"5. c #725449",
"6. c #77554A",
"7. c #77564A",
"8. c #75564C",
"9. c #79574B",
"0. c #7C594C",
"q. c #635A58",
"w. c #605B5A",
"e. c #717242",
"r. c #7B7944",
"t. c #7C7A47",
"y. c #7C7D47",
"u. c #7E7C46",
"i. c #7B7B4A",
"p. c #7A7C49",
"a. c #797E4B",
"s. c #7D7D49",
"d. c #7E7C48",
"f. c #7E7E48",
"g. c #7F7E48",
"h. c #7C7D4A",
"j. c #64635A",
"k. c #636458",
"l. c #6D615D",
"z. c #6D615E",
"x. c #7A6057",
"c. c #70705F",
"v. c #5E5F61",
"b. c #5E6061",
"n. c #646161",
"m. c #636566",
"M. c #636567",
"N. c #646668",
"B. c #66696B",
"V. c #6E6968",
"C. c #686B6D",
"Z. c #696C6D",
"A. c #716866",
"S. c #716967",
"D. c #766D6A",
"F. c #776D6A",
"G. c #707262",
"H. c #7B7979",
"J. c #817B45",
"K. c #807C45",
"L. c #817D46",
"P. c #807C47",
"I. c #837C46",
"U. c #827D46",
"Y. c #817E47",
"T. c #827E47",
"R. c #867D47",
"E. c #847E47",
"W. c #807D48",
"Q. c #807E48",
"!. c #817E48",
"~. c #807F49",
"^. c #847D48",
"/. c #857F48",
"(. c #847E49",
"). c #836053",
"_. c #846053",
"`. c #846156",
"'. c #846257",
"]. c #836555",
"[. c #807A7A",
"{. c #7F804A",
"}. c #7F814A",
"|. c #7D814C",
" X c #818049",
".X c #828149",
"XX c #81804A",
"oX c #81814A",
"OX c #82814A",
"+X c #81824A",
"@X c #848048",
"#X c #858048",
"$X c #858049",
"%X c #868049",
"&X c #858349",
"*X c #85814B",
"=X c #84824A",
"-X c #85834B",
";X c #86834A",
":X c #82834C",
">X c #80844D",
",X c #83854C",
"<X c #81854E",
"1X c #83864E",
"2X c #84844C",
"3X c #888349",
"4X c #8A854B",
"5X c #89844C",
"6X c #88854C",
"7X c #88854E",
"8X c #828750",
/* pixels */
"!.p.d.OXOXp.|.8XK.K.u.!.J.}.OXK.",
"d.d.p.!.d.p.8X8XR.%X3X#X/.%X&X%X",
"e.B S B J P ~ T P ^ ^ P H H e.u.",
". & = 4 t >.2.0.9.=.%.6 = 4 O f ",
"X q.[.[ v `.D.A.H.l.).#.p ].t w ",
"   .V.% 6 u ' < | x.9.c 0 ,.; s ",
"d +.> 3 =.4.1.l + ] w.{ n.$ K 2X",
"k C.o.3 :.8.4.c 4 ) N.v.N.k.G.X.",
"X.Z.O.= 4.u #.#.4 ) B.v.m.j.c...",
"f @.% 3 =.%.%.c + ] w.{ n.q M !.",
"   .V.% 6 c u , | x.9.c r ,.: s ",
". q.[.[ c `.D.V.H.l.`.#.y ].r e ",
"# & = 4 t >.1.9.7.1.%.7 * : O g ",
"r.D P L C m T e.T D L C M C / %X",
"-X,XK.!.OXOX,X:XK.R.%X4Xp.}.4X7X",
"!.u.!./.OX8X|.,X!.R.7XK.d.u.OX%X"
};
