/* XPM */
static char *character_down[] = {
/* columns rows colors chars-per-pixel */
"16 16 212 2 ",
"   c #352721",
".  c #342821",
"X  c #392D23",
"o  c #392824",
"O  c #392925",
"+  c #3A2925",
"@  c #3D2B24",
"#  c #3E2B24",
"$  c #3A2E24",
"%  c #3D3531",
"&  c #49332C",
"*  c #4B362F",
"=  c #4E352D",
"-  c #4C352F",
";  c #4F3730",
":  c #4D3832",
">  c #413C3A",
",  c #503830",
"<  c #513931",
"1  c #503832",
"2  c #513932",
"3  c #503A33",
"4  c #533B33",
"5  c #543C33",
"6  c #553D34",
"7  c #573F36",
"8  c #573F37",
"9  c #434128",
"0  c #42422A",
"q  c #524C2E",
"w  c #4D403B",
"e  c #524F30",
"r  c #594038",
"t  c #5A4139",
"y  c #5E443C",
"u  c #5F443C",
"i  c #5E453C",
"p  c #5E463C",
"a  c #555234",
"s  c #575736",
"d  c #5C5735",
"f  c #5D5A35",
"g  c #5F5A35",
"h  c #5E5E37",
"j  c #535538",
"k  c #5B5839",
"l  c #5C5F3E",
"z  c #62453A",
"x  c #60453C",
"c  c #61473E",
"v  c #62463E",
"b  c #64463C",
"n  c #65473D",
"m  c #63483F",
"M  c #60613B",
"N  c #63613A",
"B  c #666239",
"V  c #65633A",
"C  c #676439",
"Z  c #67653A",
"A  c #67653B",
"S  c #63633C",
"D  c #66653D",
"F  c #686339",
"G  c #6B673A",
"H  c #6B673B",
"J  c #6C643A",
"K  c #67683D",
"L  c #66693D",
"P  c #6B693C",
"I  c #696A3E",
"U  c #6B6B3F",
"Y  c #6D683C",
"T  c #6D693C",
"R  c #6C693D",
"E  c #6C6A3E",
"W  c #6E6B3E",
"Q  c #6B6C3F",
"!  c #716C3E",
"~  c #706D3F",
"^  c #454344",
"/  c #464445",
"(  c #564844",
")  c #594841",
"_  c #514A48",
"`  c #524F4E",
"'  c #534F4E",
"]  c #5D4F4B",
"[  c #5D504B",
"{  c #5D534F",
"}  c #5A5A4C",
"|  c #5A5C4D",
" . c #535456",
".. c #545656",
"X. c #5B5655",
"o. c #5C5756",
"O. c #664A41",
"+. c #674B42",
"@. c #694B41",
"#. c #6A4C43",
"$. c #6C4C42",
"%. c #6D4F45",
"&. c #6F5045",
"*. c #6E5046",
"=. c #6F5046",
"-. c #6F5146",
";. c #6F5448",
":. c #715045",
">. c #745347",
",. c #715349",
"<. c #725349",
"1. c #705548",
"2. c #725449",
"3. c #77554A",
"4. c #77564A",
"5. c #75564C",
"6. c #79574B",
"7. c #7C594C",
"8. c #635A58",
"9. c #605B5A",
"0. c #747242",
"q. c #757744",
"w. c #767746",
"e. c #787645",
"r. c #7A7A46",
"t. c #7B7B46",
"y. c #7C7946",
"u. c #7D7B47",
"i. c #7E7B46",
"p. c #7E7B47",
"a. c #7D7C47",
"s. c #7F7F47",
"d. c #7D7B48",
"f. c #7B7C48",
"g. c #7C7D48",
"h. c #7D7E48",
"j. c #7D7E49",
"k. c #7F7E48",
"l. c #7E7F49",
"z. c #7C7D4A",
"x. c #636359",
"c. c #64655B",
"v. c #6D615D",
"b. c #6D615E",
"n. c #6F6F5E",
"m. c #7A6057",
"M. c #5E5F61",
"N. c #5E6061",
"B. c #646161",
"V. c #636566",
"C. c #636567",
"Z. c #646668",
"A. c #66696B",
"S. c #6F6A69",
"D. c #686B6D",
"F. c #696C6D",
"G. c #716866",
"H. c #716967",
"J. c #776E6B",
"K. c #786E6B",
"L. c #707160",
"P. c #7B7979",
"I. c #817D47",
"U. c #827C46",
"Y. c #807E47",
"T. c #827E47",
"R. c #817E48",
"E. c #827E48",
"W. c #837F48",
"Q. c #827F49",
"!. c #837F49",
"~. c #847E48",
"^. c #857E48",
"/. c #857F48",
"(. c #847E49",
"). c #846053",
"_. c #856053",
"`. c #846257",
"'. c #846655",
"]. c #846358",
"[. c #817A7A",
"{. c #7F824B",
"}. c #808049",
"|. c #828049",
" X c #838149",
".X c #80814A",
"XX c #81814A",
"oX c #83804A",
"OX c #82814A",
"+X c #80824B",
"@X c #83824A",
"#X c #858049",
"$X c #858249",
"%X c #858349",
"&X c #84824A",
"*X c #85824A",
"=X c #85834A",
"-X c #84834B",
";X c #83854B",
":X c #85844B",
">X c #87844B",
",X c #84834C",
"<X c #81844D",
"1X c #83844C",
"2X c #81854E",
"3X c #84844C",
"4X c #87844D",
"5X c #86874E",
"6X c #8A854B",
"7X c #838A51",
"8X c #848952",
"9X c #898B50",
/* pixels */
"R.d.0.$ o   a l k a   o X q. XU.",
"u.z.S & 8.X.o.D.F.X.X.8.& G $X|.",
"t.u.D = [.H.> ....> S.[.= ! &Xu.",
"t.e.h < ( % : = < ; % ( < G R.U.",
"t.R.B t n 5 %.<.&.&.5 m t G ;Xz.",
"&X@XW &.`.c #.x 5.;.p ].:.U |.T.",
",X9X! >.K.( %.m ;.:.p J.:.l <X%X",
"&X&XU 7.H.3 c +.c c w G.7.0.8X%X",
" X<XI 4.P.[ # : 1 # ] P.3.W R. X",
"%X8XL :.v.m._ / ^ _ m.v.%.G z.z.",
" X5XG @.`.7.o.D.Z.8.4.`.#.A {.s.",
"{.2XP 4 +.y ` N.M.' u +.< N q.{.",
" XT.B * u r B.C.C.B.7 y * A f.T.",
"&X/.J : '.;.0 x.x.9 ;.'.< A /.R.",
" X%XW O 7 ; L n.n.A : r o 0.6X4X",
" Xz. Xg a s 2X| } ~.d q d z. X/."
};
