/* XPM */
static char *character_up[] = {
/* columns rows colors chars-per-pixel */
"16 16 213 2 ",
"   c #352821",
".  c #392E23",
"X  c #3A2E23",
"o  c #392824",
"O  c #392925",
"+  c #3A2925",
"@  c #3D2B24",
"#  c #3D3531",
"$  c #49332C",
"%  c #4B362F",
"&  c #4E352D",
"*  c #4C352F",
"=  c #4F3730",
"-  c #4D3832",
";  c #413C3A",
":  c #503830",
">  c #513931",
",  c #503832",
"<  c #513932",
"1  c #503A33",
"2  c #533B33",
"3  c #543D33",
"4  c #553D34",
"5  c #573F36",
"6  c #573F37",
"7  c #45452B",
"8  c #47442A",
"9  c #524D2F",
"0  c #4C403B",
"q  c #4D403B",
"w  c #524E30",
"e  c #594038",
"r  c #5A4139",
"t  c #5E443C",
"y  c #5F443C",
"u  c #5E453C",
"i  c #5E463C",
"p  c #555131",
"a  c #525334",
"s  c #585335",
"d  c #5F5833",
"f  c #5E5D37",
"g  c #5F5D37",
"h  c #555738",
"j  c #5B5A3A",
"k  c #5C5E3D",
"l  c #62453A",
"z  c #60453C",
"x  c #61473E",
"c  c #62463E",
"v  c #64463C",
"b  c #65473D",
"n  c #63483F",
"m  c #5F613A",
"M  c #63613A",
"N  c #666239",
"B  c #64623A",
"V  c #676539",
"C  c #65643A",
"Z  c #67643B",
"A  c #67653B",
"S  c #66673C",
"D  c #6A653A",
"F  c #6B663A",
"G  c #666A3F",
"H  c #6E683B",
"J  c #69693D",
"K  c #6B693C",
"L  c #68683E",
"P  c #68683F",
"I  c #696A3F",
"U  c #6B6B3E",
"Y  c #6B6B3F",
"T  c #6D683C",
"R  c #6D693C",
"E  c #6C693D",
"W  c #6E683D",
"Q  c #6C6A3E",
"!  c #6E6B3E",
"~  c #6F6D3E",
"^  c #706C3E",
"/  c #454344",
"(  c #464445",
")  c #564844",
"_  c #594841",
"`  c #514A48",
"'  c #524F4E",
"]  c #534F4E",
"[  c #5D504B",
"{  c #5D534F",
"}  c #5A594B",
"|  c #5A5C4E",
" . c #535456",
".. c #545556",
"X. c #5B5655",
"o. c #5C5756",
"O. c #664A41",
"+. c #674B42",
"@. c #694B41",
"#. c #6A4C43",
"$. c #6C4C42",
"%. c #6D4F45",
"&. c #6F5045",
"*. c #6E5046",
"=. c #6F5046",
"-. c #6F5146",
";. c #6F5448",
":. c #715045",
">. c #745347",
",. c #715349",
"<. c #725349",
"1. c #705548",
"2. c #725449",
"3. c #77554A",
"4. c #77564A",
"5. c #75564C",
"6. c #79574B",
"7. c #7C594C",
"8. c #635A58",
"9. c #605B5A",
"0. c #747442",
"q. c #767442",
"w. c #767746",
"e. c #787645",
"r. c #7A7A46",
"t. c #7B7B46",
"y. c #7C7946",
"u. c #7D7B47",
"i. c #7E7B46",
"p. c #7E7B47",
"a. c #7D7C47",
"s. c #7F7F47",
"d. c #7D7B48",
"f. c #7B7C48",
"g. c #7C7D48",
"h. c #7F7D49",
"j. c #7D7E48",
"k. c #7D7E49",
"l. c #7F7E48",
"z. c #7E7F49",
"x. c #7C7D4A",
"c. c #636459",
"v. c #64645A",
"b. c #6D615D",
"n. c #6D615E",
"m. c #7A6057",
"M. c #726F5F",
"N. c #5E5F61",
"B. c #5E6061",
"V. c #646161",
"C. c #636566",
"Z. c #636567",
"A. c #646668",
"S. c #66696B",
"D. c #6F6A69",
"F. c #686B6D",
"G. c #696C6D",
"H. c #716866",
"J. c #716967",
"K. c #776E6B",
"L. c #786E6B",
"P. c #6F7260",
"I. c #7B7979",
"U. c #817C46",
"Y. c #817D47",
"T. c #837C46",
"R. c #807E47",
"E. c #827E47",
"W. c #817E48",
"Q. c #827E48",
"!. c #837F48",
"~. c #837E49",
"^. c #827F49",
"/. c #837F49",
"(. c #847E48",
"). c #857F48",
"_. c #846053",
"`. c #856053",
"'. c #846257",
"]. c #846655",
"[. c #846358",
"{. c #817A7A",
"}. c #7F824B",
"|. c #7D824D",
" X c #808049",
".X c #838149",
"XX c #80814A",
"oX c #81814A",
"OX c #83804A",
"+X c #82814A",
"@X c #80824B",
"#X c #81834B",
"$X c #83824A",
"%X c #858049",
"&X c #858249",
"*X c #858349",
"=X c #84824A",
"-X c #85824A",
";X c #85834A",
":X c #84834B",
">X c #83854B",
",X c #85844B",
"<X c #87844B",
"1X c #84834C",
"2X c #81844D",
"3X c #83844C",
"4X c #84844C",
"5X c #87844D",
"6X c #86874E",
"7X c #8A854B",
"8X c #838A51",
"9X c #848952",
"0X c #898B50",
/* pixels */
"Q.d.x.g w a |.| } U.p 9 d 3X$XU.",
"u.x.L + e - G P.M.D - e   ^ &X&X",
"y.y.N 1 ].;.7 v.v.8 ;.].1 H &Xu.",
"y.w.f = u e V.S.Z.V.e u - D &Xu.",
"r.}.N 2 +.z  .o.B.] z +.2 H ,Xa.",
"&X$X! @._.6.o.Z.S.9.6._.@.L  Xa.",
",X0X! %.b.m.` / ( ` m.b.-.M >X,X",
"&X$X! 3.I.[ @ 2 2 @ [ I.3.L 9X,X",
"$X>XL 7.J.q z z +.z q J.7.H }.}.",
">X8XL :.L._ :.<.n $._ L.>.! x.a.",
"$X>X! -.'.u <.5.u #.z '.-.C a.$X",
"2X>X! e b 4 %.%.<.%.4 b e M w.}.",
"(.Q.C 2 ) # & 2 & = # ) 2 C a.U.",
"1X(.H & {.J.;  . .; D.{.& L %X%X",
"&X&XZ $ 8.X.X.G.F.o.{ 8.$ S 7X,X",
"Q.x.q.X O   h k j s   o . 0.$X(."
};
