/* XPM */
static char *character_left[] = {
/* columns rows colors chars-per-pixel */
"16 16 211 2 ",
"   c #352821",
".  c #382C23",
"X  c #392D23",
"o  c #392824",
"O  c #392925",
"+  c #3A2925",
"@  c #3C2B24",
"#  c #3E2B24",
"$  c #3C3430",
"%  c #49332C",
"&  c #4B362F",
"*  c #4E352D",
"=  c #4C352F",
"-  c #4F3730",
";  c #4D3832",
":  c #403B39",
">  c #4C3F3A",
",  c #503830",
"<  c #513931",
"1  c #503832",
"2  c #513932",
"3  c #503A33",
"4  c #533B33",
"5  c #533C33",
"6  c #543C34",
"7  c #573F36",
"8  c #573F37",
"9  c #42422A",
"0  c #47452B",
"q  c #4E4B2E",
"w  c #524F30",
"e  c #594038",
"r  c #5A4139",
"t  c #5E453B",
"y  c #5E443C",
"u  c #5F443C",
"i  c #5E453C",
"p  c #555335",
"a  c #575534",
"s  c #595633",
"d  c #595734",
"f  c #595737",
"g  c #5B5C3C",
"h  c #5D5D3D",
"j  c #62453A",
"k  c #60453C",
"l  c #61463D",
"z  c #62463E",
"x  c #64463C",
"c  c #64463D",
"v  c #63483F",
"b  c #605B36",
"n  c #63613A",
"m  c #666339",
"M  c #64623A",
"N  c #65653A",
"B  c #66653B",
"V  c #67653B",
"C  c #69663B",
"Z  c #6B663B",
"A  c #6B673B",
"S  c #6C643A",
"D  c #6B673C",
"F  c #67683D",
"G  c #6A683B",
"H  c #6C683B",
"J  c #6D683B",
"K  c #69693D",
"L  c #6B683C",
"P  c #6B683D",
"I  c #6A6A3D",
"U  c #6B6A3F",
"Y  c #6D683C",
"T  c #6E693C",
"R  c #6E6B3D",
"E  c #6C6C3E",
"W  c #6C6E3F",
"Q  c #716B3D",
"!  c #706A3E",
"~  c #716C3E",
"^  c #454344",
"/  c #464445",
"(  c #594740",
")  c #504947",
"_  c #564844",
"`  c #514E4D",
"'  c #524E4D",
"]  c #5D4E4A",
"[  c #5D4F4A",
"{  c #5D534F",
"}  c #5A5A4B",
"|  c #5B5A4B",
" . c #525356",
".. c #535656",
"X. c #5B5655",
"o. c #5C5756",
"O. c #664A41",
"+. c #674B42",
"@. c #694B41",
"#. c #6A4C43",
"$. c #6C4C42",
"%. c #6D4F45",
"&. c #6F5045",
"*. c #6E5046",
"=. c #6F5046",
"-. c #6F5146",
";. c #6E5347",
":. c #6F5447",
">. c #715045",
",. c #745347",
"<. c #715349",
"1. c #725349",
"2. c #725449",
"3. c #77554A",
"4. c #77564A",
"5. c #75564C",
"6. c #79574B",
"7. c #7C594C",
"8. c #635A58",
"9. c #605B5A",
"0. c #676D40",
"q. c #747141",
"w. c #7A7442",
"e. c #7C7A47",
"r. c #7C7D47",
"t. c #7E7C46",
"y. c #7B7B4A",
"u. c #7A7C49",
"i. c #797E4B",
"p. c #7C7D49",
"a. c #7D7D49",
"s. c #7E7C48",
"d. c #7E7E48",
"f. c #7F7E48",
"g. c #7C7D4A",
"h. c #626459",
"j. c #64645B",
"k. c #6D615D",
"l. c #6D615E",
"z. c #7A6057",
"x. c #71715F",
"c. c #5E5F61",
"v. c #5E6061",
"b. c #646161",
"n. c #636566",
"m. c #636567",
"M. c #646668",
"N. c #66696B",
"B. c #6E6968",
"V. c #686B6D",
"C. c #696C6D",
"Z. c #716866",
"A. c #716967",
"S. c #766D6A",
"D. c #776D6A",
"F. c #6F7160",
"G. c #7B7979",
"H. c #817B45",
"J. c #807C45",
"K. c #817D46",
"L. c #827C46",
"P. c #827D46",
"I. c #817E47",
"U. c #827E47",
"Y. c #867D47",
"T. c #847E47",
"R. c #807D48",
"E. c #807E48",
"W. c #817E48",
"Q. c #827E48",
"!. c #837E49",
"~. c #847D48",
"^. c #857F48",
"/. c #836053",
"(. c #846053",
"). c #846156",
"_. c #846257",
"`. c #836555",
"'. c #807A7A",
"]. c #7F804A",
"[. c #7F814A",
"{. c #7D814C",
"}. c #818049",
"|. c #828149",
" X c #81804A",
".X c #81814A",
"XX c #82814A",
"oX c #81824A",
"OX c #848048",
"+X c #858048",
"@X c #858049",
"#X c #868049",
"$X c #858349",
"%X c #85814B",
"&X c #84824A",
"*X c #85834B",
"=X c #86834A",
"-X c #87854B",
";X c #82834C",
":X c #80844D",
">X c #83854C",
",X c #81854E",
"<X c #83864E",
"1X c #84844C",
"2X c #85854D",
"3X c #86854C",
"4X c #888349",
"5X c #8A854B",
"6X c #89844C",
"7X c #88854E",
"8X c #828750",
/* pixels */
"Q.u.s.XXXXi.{.<XJ.t.t.s.J.[.XXJ.",
"s.s.u.Q.s.s.8X<XY.#X$X#X#X#X$X#X",
"s.C n n A J E K J ! Q R J Q K q.",
"d O 4 = 6 v ;.3.7.,.>.e 4 = % X ",
"q e `.t O./.k.G.A.S.).O._ '.8.@ ",
"d ; ;.e k 6.z.] > ( y 6 $ B.{   ",
"2XW 0 b.' 9.) @ c $.#.*.4 $ X.d ",
"} x.j.n.v.N./ 4 O.O.y <.- ..V.h ",
"} F.h.m.c.V./ 4 k <.5.%.4 ..C.| ",
"<X0.9 b.` o.) + j >.3.%.- $ X.a ",
"a ; *.e y 6.z.+.> ( y 6 $ B.{   ",
"p e `.y O.).l.G.Z.S.).k _ G.8.@ ",
"d @ 4 % 4 @.;.3.7.,.>.e < = % X ",
"5XW A C N n N 0.P C K N N G A w.",
"#X<XR.J.#XXX<X;XJ.^.1X5Xs.[.5X6X",
"Q.s.Q.Q.XX<X{.;XQ.^.6XJ.s.t.XX^."
};
