/* XPM */
static char *destroy_0[] = {
/* columns rows colors chars-per-pixel */
"16 16 200 2 ",
"   c #6A6B42",
".  c #6D6E44",
"X  c #737041",
"o  c #737241",
"O  c #707142",
"+  c #737342",
"@  c #747342",
"#  c #767543",
"$  c #717344",
"%  c #757344",
"&  c #717445",
"*  c #727445",
"=  c #727446",
"-  c #737646",
";  c #747444",
":  c #777645",
">  c #747646",
",  c #757746",
"<  c #767746",
"1  c #777746",
"2  c #767747",
"3  c #787644",
"4  c #787645",
"5  c #787746",
"6  c #797746",
"7  c #797846",
"8  c #787947",
"9  c #797947",
"0  c #7B7946",
"q  c #787A47",
"w  c #7B7A47",
"e  c #7B7B47",
"r  c #7C7945",
"t  c #7D7A45",
"y  c #7F7A45",
"u  c #7C7946",
"i  c #7D7B46",
"p  c #7C7B47",
"a  c #7E7B47",
"s  c #7C7C47",
"d  c #7E7C46",
"f  c #7F7C46",
"g  c #7F7C47",
"h  c #7F7D47",
"j  c #7F7F47",
"k  c #747748",
"l  c #777948",
"z  c #777949",
"x  c #777A48",
"c  c #787948",
"v  c #7B7948",
"b  c #787A48",
"n  c #797A48",
"m  c #797B48",
"M  c #7A7A48",
"N  c #7A7B48",
"B  c #7A7B49",
"V  c #7B7B4A",
"C  c #7C7B48",
"Z  c #7D7B48",
"A  c #797C49",
"S  c #7B7D48",
"D  c #7A7C49",
"F  c #7B7D49",
"G  c #7C7C48",
"H  c #7D7C48",
"J  c #7C7D48",
"K  c #7D7D48",
"L  c #7C7D49",
"P  c #7D7D49",
"I  c #7E7C48",
"U  c #7E7D48",
"Y  c #7E7D49",
"T  c #7F7D49",
"R  c #7D7E48",
"E  c #7C7E49",
"W  c #7D7E49",
"Q  c #7E7E48",
"!  c #7F7E48",
"~  c #7F7F49",
"^  c #7C7D4A",
"/  c #7D7F4A",
"(  c #7E7E4A",
")  c #7A7F4C",
"_  c #95531C",
"`  c #93581E",
"'  c #9B5E1D",
"]  c #8F5622",
"[  c #807C47",
"{  c #807D47",
"}  c #817D47",
"|  c #827C46",
" . c #837C46",
".. c #827D46",
"X. c #817E47",
"o. c #837E47",
"O. c #867D47",
"+. c #807C48",
"@. c #807D48",
"#. c #817E48",
"$. c #807F49",
"%. c #817F49",
"&. c #827E48",
"*. c #827F48",
"=. c #837F48",
"-. c #827F49",
";. c #837F49",
":. c #847D48",
">. c #847F48",
",. c #857F48",
"<. c #847E49",
"1. c #867E48",
"2. c #867F48",
"3. c #7C804B",
"4. c #7E804A",
"5. c #7F804A",
"6. c #7F814A",
"7. c #7C804C",
"8. c #7E814C",
"9. c #7F814C",
"0. c #7E834D",
"q. c #818048",
"w. c #808049",
"e. c #818049",
"r. c #828048",
"t. c #838048",
"y. c #828049",
"u. c #828149",
"i. c #838149",
"p. c #81804A",
"a. c #81814A",
"s. c #80804B",
"d. c #83804A",
"f. c #83814A",
"g. c #81824A",
"h. c #80824B",
"j. c #80834B",
"k. c #81834B",
"l. c #82824A",
"z. c #83824A",
"x. c #82834B",
"c. c #83834B",
"v. c #848048",
"b. c #858048",
"n. c #858148",
"m. c #858049",
"M. c #848149",
"N. c #868049",
"B. c #878049",
"V. c #858249",
"C. c #858349",
"Z. c #878249",
"A. c #85814A",
"S. c #85814B",
"D. c #85824A",
"F. c #84834A",
"G. c #85834A",
"H. c #84834B",
"J. c #86824A",
"K. c #87824A",
"L. c #86834A",
"P. c #83844B",
"I. c #83854B",
"U. c #85844B",
"Y. c #87844A",
"T. c #86844B",
"R. c #87854B",
"E. c #80834C",
"W. c #82834C",
"Q. c #81844C",
"!. c #81844D",
"~. c #82844C",
"^. c #83844C",
"/. c #83854D",
"(. c #81854E",
"). c #82864E",
"_. c #83864E",
"`. c #83874F",
"'. c #84844C",
"]. c #85854D",
"[. c #86854C",
"{. c #84874D",
"}. c #87864C",
"|. c #86864D",
" X c #86874E",
".X c #888349",
"XX c #89824A",
"oX c #89834A",
"OX c #89844A",
"+X c #8A854B",
"@X c #89864C",
"#X c #8B864D",
"$X c #89864E",
"%X c #84884F",
"&X c #808550",
"*X c #828750",
"=X c #828850",
"-X c #838A51",
";X c #848952",
":X c #898B50",
/* pixels */
"&.I I ^.Q.3.9.=XX.X.[ &. .c.C.[ ",
"I I V &.I 0 =X^.O.C.C.c.:.C.C.C.",
"I 0 V a &.c.^.4.:.C.XXXX:.XXC.+.",
"N : ; V F F 4.4.&.C.XX&.C.C.:.+.",
"N X.a c.: V : F F h t.a C.C.'.I ",
"U.U.C.C.0 8 V 9.c.h t.a S.E.X.c.",
"@X:XU.c.^.4.& $ N t.4.h x & E.@X",
"C.C.E.*X*X^.O ] ` o I : I c.;X'.",
"c.^.4.t.I I ; _ ' o : $ a X.&.c.",
"'.-X4.I N # 0 # o 4.9.x : c.I 4.",
"^.%Xc.N - N   . I 4.8 x 0 N I 4.",
"^.U.n.Q.N 3.k & I C.I V N 8 8 ^.",
"C.[ a c.& : F V c.4.V : h N h c.",
"'.C. .c.I : F 9.4.h X.h h 4.C. .",
"C.c.X.X.C.&.^.^.X. .S.@XI I XX$X",
"&.h c.:.^.=X=X'.C. .#X&.4.c.C.:."
};
