/* XPM */
static char *destroy_2[] = {
/* columns rows colors chars-per-pixel */
"16 16 210 2 ",
"   c #4D2E14",
".  c #5F2C13",
"X  c #5E3115",
"o  c #58361A",
"O  c #59371D",
"+  c #553A1D",
"@  c #553E1E",
"#  c #5B391D",
"$  c #762F15",
"%  c #7B3517",
"&  c #7A3319",
"*  c #7A3718",
"=  c #4F4222",
"-  c #604423",
";  c #604F2B",
":  c #62552D",
">  c #635E36",
",  c #685B31",
"<  c #676437",
"1  c #696337",
"2  c #6D6738",
"3  c #72683B",
"4  c #766F41",
"5  c #786F41",
"6  c #717445",
"7  c #727445",
"8  c #737646",
"9  c #747444",
"0  c #757445",
"q  c #777745",
"w  c #767746",
"e  c #777746",
"r  c #767747",
"t  c #787645",
"y  c #797746",
"u  c #7F7744",
"i  c #777947",
"p  c #797845",
"a  c #787947",
"s  c #797947",
"d  c #7B7946",
"f  c #797A47",
"g  c #7B7B47",
"h  c #7C7945",
"j  c #7D7945",
"k  c #7F7944",
"l  c #7D7A44",
"z  c #7C7946",
"x  c #7C7A46",
"c  c #7D7B46",
"v  c #7C7B47",
"b  c #7E7B47",
"n  c #7C7C47",
"m  c #7E7C46",
"M  c #7F7C46",
"N  c #7F7D47",
"B  c #7F7F47",
"V  c #747748",
"C  c #787748",
"Z  c #787A48",
"A  c #797B48",
"S  c #7A7A48",
"D  c #7A7B49",
"F  c #7B7B4A",
"G  c #7C7B48",
"H  c #7D7B48",
"J  c #7F7B48",
"K  c #797C49",
"L  c #7A7C49",
"P  c #7B7D49",
"I  c #7D7C48",
"U  c #7C7D48",
"Y  c #7D7D48",
"T  c #7C7D49",
"R  c #7D7D49",
"E  c #7E7C48",
"W  c #7E7D48",
"Q  c #7F7D49",
"!  c #7D7E48",
"~  c #7D7E49",
"^  c #7D7F49",
"/  c #7E7E48",
"(  c #7F7E49",
")  c #7F7F49",
"_  c #7C7D4A",
"`  c #7C7E4A",
"'  c #7D7F4A",
"]  c #7A7F4C",
"[  c #973E1D",
"{  c #96421D",
"}  c #98411E",
"|  c #A0431F",
" . c #A64F1E",
".. c #885C30",
"X. c #846F3D",
"o. c #C1711F",
"O. c #C25C23",
"+. c #847040",
"@. c #877541",
"#. c #807C47",
"$. c #807D47",
"%. c #817D47",
"&. c #827C46",
"*. c #837C46",
"=. c #827D46",
"-. c #817E47",
";. c #817F47",
":. c #837E47",
">. c #867D47",
",. c #807C48",
"<. c #807D48",
"1. c #817E48",
"2. c #807F48",
"3. c #817F48",
"4. c #807F49",
"5. c #817F49",
"6. c #827E48",
"7. c #837F48",
"8. c #827F49",
"9. c #837F49",
"0. c #847D48",
"q. c #847F48",
"w. c #857F48",
"e. c #847E49",
"r. c #867E48",
"t. c #867F48",
"y. c #7F804A",
"u. c #7F814A",
"i. c #7E814C",
"p. c #7E834D",
"a. c #DF8624",
"s. c #DC9321",
"d. c #E79523",
"f. c #808049",
"g. c #818049",
"h. c #828048",
"j. c #838048",
"k. c #828049",
"l. c #838049",
"z. c #838149",
"x. c #81804A",
"c. c #83804A",
"v. c #82814A",
"b. c #83814A",
"n. c #81824A",
"m. c #80824B",
"M. c #80834B",
"N. c #81834B",
"B. c #82824A",
"V. c #83824A",
"C. c #82834B",
"Z. c #83834B",
"A. c #848048",
"S. c #858048",
"D. c #858148",
"F. c #858049",
"G. c #848149",
"H. c #868049",
"J. c #878049",
"K. c #858249",
"L. c #858349",
"P. c #878249",
"I. c #85814A",
"U. c #85814B",
"Y. c #86814A",
"T. c #85824A",
"R. c #84834A",
"E. c #85834A",
"W. c #84834B",
"Q. c #86824A",
"!. c #86834A",
"~. c #83844B",
"^. c #83854B",
"/. c #85844B",
"(. c #87844A",
"). c #86844B",
"_. c #87854B",
"`. c #80834C",
"'. c #82834C",
"]. c #81844C",
"[. c #81844D",
"{. c #82844C",
"}. c #83844C",
"|. c #83854D",
" X c #81854E",
".X c #82864E",
"XX c #83864E",
"oX c #82874F",
"OX c #83874F",
"+X c #84844C",
"@X c #85854D",
"#X c #86854C",
"$X c #84874D",
"%X c #87864C",
"&X c #86864D",
"*X c #86874E",
"=X c #888349",
"-X c #89824A",
";X c #89834A",
":X c #89844A",
">X c #8A854B",
",X c #89864C",
"<X c #8B864D",
"1X c #89864E",
"2X c #84884F",
"3X c #818650",
"4X c #828750",
"5X c #838A51",
"6X c #848952",
"7X c #898B50",
/* pixels */
"6.E E }.R.i.p.5X&.;.N Z.&.Z.Z.&.",
"E E F 6.E d p.5X>.r.Q.r.>.Q.z.Q.",
"E d F b 6.Z.}.u.;.Q.=XQ.r.=XQ.N ",
"d q 9 F P P P E 6.Q.=X6.Q.Q.6.N ",
"P ;.d R.i d t P d X.X.b Q.A.R.N ",
"(.Z.Q.Q.g Z > : - , z.k Z.Z.N Z.",
"%X7X(.Z.}.< . & { X 2 N i 8 p.,X",
"Q.Z.p.}.3X# O.d.o.$ @ i b p.5X(.",
"Z.}.p.;.u.#  .s.a.| + 0 b ;.6.}.",
"%X5XE N d = & { [ & < F q ;.E u.",
"'.%X6.P 4 3 ; o   : 3 C d g E u.",
"}.}.Z.Z.u b V 8 b Z...@.g d i p.",
"Z.;.b u.8 q Z d Z.u.F Z E d P Z.",
"%X6.>.Z.E t P p.N N N E N u.A.>.",
"%X}.6.;.Q.6.p.Z.;.;.r.Q.E u.,X<X",
"6.E 6.6.'.5X}.%XZ.>.<X;.Z.E Z.r."
};
