/* XPM */
static char *destroy_4[] = {
/* columns rows colors chars-per-pixel */
"16 16 222 2 ",
"   c #492A13",
".  c #582710",
"X  c #552C15",
"o  c #4E3016",
"O  c #4C3C1D",
"+  c #553314",
"@  c #553D1F",
"#  c #563C1E",
"$  c #692D16",
"%  c #683414",
"&  c #773D15",
"*  c #7E3F1F",
"=  c #533F20",
"-  c #533F22",
";  c #524224",
":  c #5C4224",
">  c #5C4624",
",  c #554A28",
"<  c #544D2A",
"1  c #644523",
"2  c #6E4E25",
"3  c #764820",
"4  c #60552D",
"5  c #635935",
"6  c #685E36",
"7  c #696135",
"8  c #6E6637",
"9  c #636038",
"0  c #68633B",
"q  c #68673B",
"w  c #6E693E",
"e  c #6E7042",
"r  c #767542",
"t  c #727445",
"y  c #737646",
"u  c #747444",
"i  c #767746",
"p  c #767747",
"a  c #787645",
"s  c #797745",
"d  c #7E7744",
"f  c #787846",
"g  c #7B7B47",
"h  c #7C7945",
"j  c #7F7A44",
"k  c #7C7946",
"l  c #7D7946",
"z  c #7D7B46",
"x  c #7C7B47",
"c  c #7E7B47",
"v  c #7C7C47",
"b  c #7D7C47",
"n  c #7E7C46",
"m  c #7F7F47",
"M  c #777A48",
"N  c #7A7B49",
"B  c #7B7B4A",
"V  c #7C7B48",
"C  c #7D7B48",
"Z  c #797C49",
"A  c #7A7C49",
"S  c #7C7C48",
"D  c #7C7D48",
"F  c #7D7D48",
"G  c #7C7D49",
"H  c #7D7D49",
"J  c #7E7C48",
"K  c #7E7D48",
"L  c #7F7D48",
"P  c #7E7D49",
"I  c #7F7D49",
"U  c #7D7E48",
"Y  c #7E7E48",
"T  c #7F7F48",
"R  c #7C7D4A",
"E  c #7D7F4A",
"W  c #7A7F4C",
"Q  c #862D17",
"!  c #803019",
"~  c #83341B",
"^  c #89311A",
"/  c #8C371D",
"(  c #803C18",
")  c #843E19",
"_  c #893A18",
"`  c #8F381A",
"'  c #8B3C1B",
"]  c #963517",
"[  c #93391C",
"{  c #8B4E19",
"}  c #9C441E",
"|  c #9C511A",
" . c #A64A1D",
".. c #A24E1D",
"X. c #A45B1D",
"o. c #AA671B",
"O. c #B26A1E",
"+. c #B1701D",
"@. c #B7761E",
"#. c #BB701F",
"$. c #835D32",
"%. c #845C33",
"&. c #A74322",
"*. c #AE5C20",
"=. c #B55B21",
"-. c #B25D22",
";. c #88673A",
":. c #826A3D",
">. c #856E3C",
",. c #86703F",
"<. c #86713F",
"1. c #B96820",
"2. c #BF6B21",
"3. c #C87F1F",
"4. c #CE7723",
"5. c #827B45",
"6. c #877944",
"7. c #827D45",
"8. c #807C47",
"9. c #807D47",
"0. c #817D47",
"q. c #827C46",
"w. c #837C46",
"e. c #827D46",
"r. c #807E47",
"t. c #837E47",
"y. c #847D47",
"u. c #867C46",
"i. c #847F47",
"p. c #807C48",
"a. c #807D48",
"s. c #807E48",
"d. c #817E48",
"f. c #807F48",
"g. c #807F49",
"h. c #827E48",
"j. c #827F48",
"k. c #837F48",
"l. c #837F49",
"z. c #847F48",
"x. c #857F48",
"c. c #847E49",
"v. c #857F49",
"b. c #867E48",
"n. c #867F48",
"m. c #7F8049",
"M. c #7C804B",
"N. c #7E804A",
"B. c #7F804A",
"V. c #7F814A",
"C. c #7E804B",
"Z. c #7E834D",
"A. c #D88F21",
"S. c #D99020",
"D. c #808049",
"F. c #818049",
"G. c #828048",
"H. c #828049",
"J. c #838149",
"K. c #81804A",
"L. c #81814B",
"P. c #83804A",
"I. c #83814A",
"U. c #80824B",
"Y. c #81824B",
"T. c #80834B",
"R. c #81834B",
"E. c #82824A",
"W. c #83824A",
"Q. c #82824B",
"!. c #82834B",
"~. c #83834B",
"^. c #848048",
"/. c #858048",
"(. c #858049",
"). c #858149",
"_. c #868049",
"`. c #878049",
"'. c #868149",
"]. c #858249",
"[. c #858349",
"{. c #85814A",
"}. c #84804B",
"|. c #85824A",
" X c #84834A",
".X c #85834A",
"XX c #84834B",
"oX c #86824A",
"OX c #86834A",
"+X c #83844B",
"@X c #83854B",
"#X c #85844B",
"$X c #87844A",
"%X c #86844B",
"&X c #86854B",
"*X c #87854B",
"=X c #80824C",
"-X c #81844C",
";X c #81844D",
":X c #83844C",
">X c #80864F",
",X c #82864E",
"<X c #83864E",
"1X c #83874F",
"2X c #84844C",
"3X c #85854D",
"4X c #84874D",
"5X c #87864C",
"6X c #86864D",
"7X c #86874E",
"8X c #888249",
"9X c #89824A",
"0X c #89834A",
"qX c #8A854B",
"wX c #89864C",
"eX c #8B864D",
"rX c #89864E",
"tX c #84884F",
"yX c #828750",
"uX c #838751",
"iX c #838A51",
"pX c #898B50",
/* pixels */
"h.J J :X:XM.M.iXr.r.q.h.r.:XG.u.",
"J J B h.J Z iX:Xu.b.XXXXb.b.+X*X",
"g c B c G.G.G.C.6.6.8Xb.XX0XXXc ",
"g i u B J Z M.C.q.u.8Xh.u.h.b.r.",
"g r.g G.i u < 5 : O 8 b XXXX*Xb ",
"0XXX5XG.c = % o.| . X 7 XXG.m.G.",
"5XpX*X:X4 $ 4.S...2.+.  M p :X*X",
"XXG.=X:X  &.' ^ ] } #.X.6 M.yX5X",
"}.=XE h.= 1.&.%.;.` & ~ : h.h.=X",
"5XiXE I = @._ { $.^ -.& 6 =XJ G.",
"=XtX5.s = { X.[ ~ o.A.3 w v Z C.",
"=X5X;.6.u - ) / =.A.X 9 c g p :X",
"XXr.c b t i q , 2 1 e i g c b ^.",
"0Xb.u.XXc i J Z.h.c h.c :.b u.XX",
"5X:Xr.r.XXh.:X=Xr.u.}.8XJ M.0XrX",
"h.J G.u.=XiX:X5XG.^.rXG.G.G.G.b."
};
