/* XPM */
static char *destroy_3[] = {
/* columns rows colors chars-per-pixel */
"16 16 214 2 ",
"   c #522310",
".  c #5C2B12",
"X  c #4E3619",
"o  c #4E3B1E",
"O  c #56371B",
"+  c #59331A",
"@  c #612A13",
"#  c #633016",
"$  c #6D3317",
"%  c #603319",
"&  c #62351A",
"*  c #673518",
"=  c #71351A",
"-  c #7D3619",
";  c #583F22",
":  c #5E3E21",
">  c #534021",
",  c #574726",
"<  c #624E28",
"1  c #76582F",
"2  c #605932",
"3  c #715B33",
"4  c #785832",
"5  c #656135",
"6  c #6B6437",
"7  c #6B6438",
"8  c #7B6137",
"9  c #7B6336",
"0  c #7E6236",
"q  c #746B3F",
"w  c #706E3E",
"e  c #6D7043",
"r  c #727141",
"t  c #747342",
"y  c #737545",
"u  c #747444",
"i  c #747644",
"p  c #767744",
"a  c #767745",
"s  c #747646",
"d  c #787645",
"f  c #787746",
"g  c #797746",
"h  c #7B7844",
"j  c #797846",
"k  c #787947",
"l  c #797947",
"z  c #7B7B47",
"x  c #7C7945",
"c  c #7F7944",
"v  c #7C7946",
"b  c #7D7B46",
"n  c #7C7B47",
"m  c #7E7B47",
"M  c #7C7C47",
"N  c #7E7C46",
"B  c #7F7C46",
"V  c #7F7F47",
"C  c #777A48",
"Z  c #797A48",
"A  c #797B48",
"S  c #7A7A48",
"D  c #7A7B48",
"F  c #7A7B49",
"G  c #7B7B4A",
"H  c #7C7B48",
"J  c #7D7B48",
"K  c #797C49",
"L  c #7A7C49",
"P  c #7B7D49",
"I  c #7A7D4A",
"U  c #7C7C48",
"Y  c #7D7C48",
"T  c #7D7D48",
"R  c #7C7D49",
"E  c #7E7C48",
"W  c #7E7D48",
"Q  c #7E7D49",
"!  c #7F7D49",
"~  c #7D7E48",
"^  c #7D7E49",
"/  c #7E7E48",
"(  c #7F7F49",
")  c #7C7D4A",
"_  c #7C7F4A",
"`  c #7D7F4A",
"'  c #7F7F4A",
"]  c #7A7F4C",
"[  c #893B1B",
"{  c #8D3D1B",
"}  c #95411D",
"|  c #994A1C",
" . c #9C481D",
".. c #9E491D",
"X. c #A34D1E",
"o. c #AA551F",
"O. c #AC581E",
"+. c #804E29",
"@. c #8C552C",
"#. c #BF5F22",
"$. c #826E3E",
"%. c #C4741F",
"&. c #C15C23",
"*. c #D16E23",
"=. c #C97022",
"-. c #C97720",
";. c #807442",
":. c #817D46",
">. c #807C47",
",. c #807D47",
"<. c #827C46",
"1. c #837C46",
"2. c #827D46",
"3. c #807E47",
"4. c #827E47",
"5. c #837E47",
"6. c #877C47",
"7. c #867D47",
"8. c #857F47",
"9. c #807C48",
"0. c #807D48",
"q. c #837D48",
"w. c #817E48",
"e. c #817F48",
"r. c #807F49",
"t. c #817F49",
"y. c #827E48",
"u. c #837F48",
"i. c #837F49",
"p. c #817F4A",
"a. c #847F48",
"s. c #857F48",
"d. c #847E49",
"f. c #867E48",
"g. c #867F48",
"h. c #7F8149",
"j. c #7D804B",
"k. c #7F804A",
"l. c #7F814A",
"z. c #7F824A",
"x. c #7F824B",
"c. c #7E834D",
"v. c #DF8125",
"b. c #D98822",
"n. c #DF8A23",
"m. c #DB8C21",
"M. c #DC9320",
"N. c #EA9C22",
"B. c #808049",
"V. c #818049",
"C. c #828048",
"Z. c #838048",
"A. c #828049",
"S. c #838149",
"D. c #83804A",
"F. c #83814A",
"G. c #80824A",
"H. c #81834B",
"J. c #82824A",
"K. c #83824A",
"L. c #83834B",
"P. c #848048",
"I. c #858049",
"U. c #868048",
"Y. c #868049",
"T. c #878049",
"R. c #858249",
"E. c #858349",
"W. c #878249",
"Q. c #84814A",
"!. c #85814A",
"~. c #85814B",
"^. c #85824A",
"/. c #84834A",
"(. c #85834A",
"). c #84834B",
"_. c #86824A",
"`. c #87824A",
"'. c #83844B",
"]. c #83854B",
"[. c #85844B",
"{. c #87844A",
"}. c #86844B",
"|. c #87854B",
" X c #81834C",
".X c #82834C",
"XX c #81844C",
"oX c #81844D",
"OX c #82844C",
"+X c #83844C",
"@X c #81854E",
"#X c #82864E",
"$X c #83864E",
"%X c #83874F",
"&X c #84844C",
"*X c #85854D",
"=X c #86854C",
"-X c #84874D",
";X c #87864C",
":X c #86864D",
">X c #85864E",
",X c #888248",
"<X c #89834A",
"1X c #89844A",
"2X c #8A854B",
"3X c #89864C",
"4X c #8B864D",
"5X c #89864E",
"6X c #84884F",
"7X c #828750",
"8X c #828850",
"9X c #838A51",
"0X c #848952",
"qX c #898B50",
/* pixels */
"y.E E +X].] x.8Xy.3.M (.1.K.K.3.",
"E E G y.E E 8X+X6.f.(.6.6.(.(.(.",
"G m G m K.3.].k.(.(.<X(.(.1X(.1.",
"z p u G M I I k.$.@.6.y.f.f.y.m ",
"z 3.z (.p G k I 6 1 U.m K.(.K.E ",
"{.(.(.(.m u o O = + 5 c K.K.M K.",
";XqX(.K.K.< - | *.X.. 6 C y +X3X",
"(.(.x.7Xy   o.n.%.v. .; I x.8X;X",
"K.+Xk.k.u # O.M.%.n...+ h C.M ].",
"6X8Xj.E w $ } b.N.=.[ , p C.E K.",
"].;XK.s k > @ &.&.} & e d M I k.",
"+XK.K.@.1 I 2 ; * X w 9 9 k k ].",
"K.3.m 1.4 q G M k.C.G 3 c m E (.",
";Xy.f.K.M k E k.C.m 3.m m M 6.f.",
"{.+XE 3.6.k.c.K.3.3.~.(.E k.1XqX",
"y.M K.f.].8X%X;XK.6.3Xy.K.y.K.y."
};
