/* XPM */
static char *destroy_7[] = {
/* columns rows colors chars-per-pixel */
"16 16 217 2 ",
"   c #603316",
".  c #673216",
"X  c #6C3F1F",
"o  c #793719",
"O  c #703A1B",
"+  c #753F23",
"@  c #684B27",
"#  c #714627",
"$  c #774724",
"%  c #7B4522",
"&  c #7D4622",
"*  c #7C4725",
"=  c #724B27",
"-  c #734F2A",
";  c #7D4C28",
":  c #65572E",
">  c #6E552C",
",  c #7C572E",
"<  c #7E562F",
"1  c #645D31",
"2  c #6F5A32",
"3  c #6A5D33",
"4  c #685C34",
"5  c #7E5830",
"6  c #7D5F34",
"7  c #6E6135",
"8  c #6D6638",
"9  c #726537",
"0  c #756437",
"q  c #7C6336",
"w  c #766438",
"e  c #73683B",
"r  c #71693C",
"t  c #76693D",
"y  c #766C3D",
"u  c #7B693B",
"i  c #7F693B",
"p  c #7C6E3E",
"a  c #7D713F",
"s  c #6A6B42",
"d  c #6D6E44",
"f  c #717343",
"g  c #777641",
"h  c #767442",
"j  c #777345",
"k  c #717445",
"l  c #727445",
"z  c #727446",
"x  c #737646",
"c  c #757445",
"v  c #767544",
"b  c #747646",
"n  c #757646",
"m  c #757746",
"M  c #777746",
"N  c #787140",
"B  c #797240",
"V  c #787541",
"C  c #787644",
"Z  c #797645",
"A  c #787746",
"S  c #777947",
"D  c #797945",
"F  c #797846",
"G  c #787947",
"H  c #797947",
"J  c #7B7946",
"K  c #787A47",
"L  c #7A7A47",
"P  c #7B7A47",
"I  c #7D7945",
"U  c #7E7A45",
"Y  c #7F7A45",
"T  c #7C7946",
"R  c #7C7A46",
"E  c #7C7B46",
"W  c #7D7B46",
"Q  c #7C7B47",
"!  c #7E7A46",
"~  c #7E7B47",
"^  c #7F7B47",
"/  c #7C7C47",
"(  c #7E7C46",
")  c #7F7C47",
"_  c #7F7D47",
"`  c #7D7E47",
"'  c #7F7F47",
"]  c #747748",
"[  c #777948",
"{  c #777949",
"}  c #777A48",
"|  c #787948",
" . c #7B7948",
".. c #787A48",
"X. c #797A48",
"o. c #797B48",
"O. c #7A7A48",
"+. c #7A7B48",
"@. c #7B7B4A",
"#. c #7D7B48",
"$. c #797C49",
"%. c #7A7C48",
"&. c #7B7C48",
"*. c #7B7D49",
"=. c #7D7C48",
"-. c #7D7D48",
";. c #7C7D49",
":. c #7D7D49",
">. c #7E7C48",
",. c #7F7D48",
"<. c #7F7D49",
"1. c #7C7E49",
"2. c #7D7E49",
"3. c #7E7E48",
"4. c #7F7E48",
"5. c #7E7E49",
"6. c #7F7F49",
"7. c #7C7D4A",
"8. c #7D7F4A",
"9. c #7E7E4A",
"0. c #884C26",
"q. c #9E582B",
"w. c #826236",
"e. c #846438",
"r. c #856538",
"t. c #83683A",
"y. c #83693A",
"u. c #806C3C",
"i. c #826F3E",
"p. c #837040",
"a. c #817241",
"s. c #837341",
"d. c #817443",
"f. c #867440",
"g. c #807843",
"h. c #827843",
"j. c #807844",
"k. c #867A45",
"l. c #807C47",
"z. c #817D47",
"x. c #837C46",
"c. c #827D46",
"v. c #827D47",
"b. c #817F47",
"n. c #837E47",
"m. c #857E47",
"M. c #897A44",
"N. c #807C48",
"B. c #807D48",
"V. c #807E48",
"C. c #807F49",
"Z. c #827E48",
"A. c #827F48",
"S. c #837F48",
"D. c #827F49",
"F. c #837F49",
"G. c #847F48",
"H. c #847E49",
"J. c #847F49",
"K. c #897F49",
"L. c #7C804B",
"P. c #7F804A",
"I. c #7F814A",
"U. c #7C804C",
"Y. c #7E814C",
"T. c #808049",
"R. c #818049",
"E. c #818149",
"W. c #828048",
"Q. c #838048",
"!. c #828049",
"~. c #828149",
"^. c #838149",
"/. c #80814A",
"(. c #81814A",
"). c #80804B",
"_. c #82814A",
"`. c #81824A",
"'. c #80824B",
"]. c #81824B",
"[. c #80834B",
"{. c #82824A",
"}. c #83824A",
"|. c #83824B",
" X c #82834B",
".X c #858048",
"XX c #858148",
"oX c #858049",
"OX c #848149",
"+X c #878048",
"@X c #868049",
"#X c #858348",
"$X c #858249",
"%X c #868249",
"&X c #84824A",
"*X c #85824A",
"=X c #84834A",
"-X c #85834A",
";X c #84834B",
":X c #87824A",
">X c #83844B",
",X c #85844B",
"<X c #87844A",
"1X c #86844B",
"2X c #80824C",
"3X c #80834C",
"4X c #81844C",
"5X c #82844C",
"6X c #82844D",
"7X c #83854D",
"8X c #81864F",
"9X c #84854C",
"0X c #86854C",
"qX c #84874D",
"wX c #8A854B",
"eX c #89864E",
"rX c #818650",
/* pixels */
"Z.>.>.6X`.j t.q.w.v.d.`.x.`.#Xx.",
">.>.@.Z._ 4   0.k.#Xf.* u.#X#X#X",
"@.~ H ~ Z.`.`.6XH.#XM.o . > |.N.",
"H t 2 M &.&.U.>.Z.H.K.Z.B 9 #.N.",
"h a ~ `.H H H &.&._ Q.~ +X#XC ~ ",
"#X`.1X.XH H S `.`._ Q.U #X|._ Z.",
"1 g 1X`.9X`.l S 8Xv.I._ S x @.v.",
"7 : 6X8X8X8XH &.1X>X~ S &.I.r 8 ",
"@ y Y.v.>.>.`.`.&.I.S M ~ v.h.>X",
"- y L._ H A #.Z._ `.Y.[ M v.p U ",
"d.r.`.~ M S s d >.`.H [ A _ 0 ~ ",
"8Xy.`.>X&.L.x l >.`.>.@.~ A f `.",
"x.d.& u l M H @.`.I.[ M >.r 3 v.",
"wXQ.r.O A M 0 = >._ Z.v._ _ H.#X",
"1X>Xv.$ X q w.* * $ # H.>.C.+XeX",
"v._ v.i., < i.8X6 i p.Z.6X`.#XH."
};
