/* XPM */
static char *destroy_1[] = {
/* columns rows colors chars-per-pixel */
"16 16 204 2 ",
"   c #653219",
".  c #783319",
"X  c #604726",
"o  c #6C4D27",
"O  c #6A4828",
"+  c #7C4321",
"@  c #784C2A",
"#  c #6A5B34",
"$  c #6E5D35",
"%  c #6E683D",
"&  c #6E6D3F",
"*  c #706C3E",
"=  c #6A6B42",
"-  c #6D6E44",
";  c #767442",
":  c #717445",
">  c #727445",
",  c #727446",
"<  c #737646",
"1  c #747444",
"2  c #757445",
"3  c #777544",
"4  c #767744",
"5  c #777645",
"6  c #747646",
"7  c #767746",
"8  c #777746",
"9  c #767747",
"0  c #787141",
"q  c #787542",
"w  c #797644",
"e  c #787645",
"r  c #787746",
"t  c #797746",
"y  c #797846",
"u  c #787947",
"i  c #797947",
"p  c #7B7A47",
"a  c #7B7B47",
"s  c #7D7944",
"d  c #7C7945",
"f  c #7F7A45",
"g  c #7C7946",
"h  c #7C7A46",
"j  c #7D7B46",
"k  c #7C7B47",
"l  c #7E7B47",
"z  c #7C7C47",
"x  c #7E7C46",
"c  c #7F7C46",
"v  c #7F7E47",
"b  c #7F7F47",
"n  c #757748",
"m  c #777949",
"M  c #777A48",
"N  c #787948",
"B  c #7B7948",
"V  c #787A48",
"C  c #797A48",
"Z  c #797B48",
"A  c #7A7A48",
"S  c #7A7B48",
"D  c #7A7B49",
"F  c #7B7B4A",
"G  c #7C7B48",
"H  c #7D7B48",
"J  c #797C49",
"K  c #7B7D48",
"L  c #7A7C49",
"P  c #7B7D49",
"I  c #7C7C48",
"U  c #7D7C48",
"Y  c #7C7D48",
"T  c #7D7D48",
"R  c #7C7D49",
"E  c #7D7D49",
"W  c #7E7C48",
"Q  c #7E7D48",
"!  c #7E7D49",
"~  c #7F7D49",
"^  c #7D7E48",
"/  c #7C7E49",
"(  c #7D7E49",
")  c #7E7E48",
"_  c #7F7E48",
"`  c #7C7D4A",
"'  c #7D7F4A",
"]  c #7A7F4C",
"[  c #843917",
"{  c #86411B",
"}  c #9F4E1D",
"|  c #B85F21",
" . c #C97223",
".. c #807C47",
"X. c #807D47",
"o. c #817D47",
"O. c #827C46",
"+. c #837C46",
"@. c #827D46",
"#. c #817E47",
"$. c #837E47",
"%. c #867D47",
"&. c #807C48",
"*. c #807D48",
"=. c #817E48",
"-. c #807F49",
";. c #817F49",
":. c #827E48",
">. c #827F48",
",. c #837F48",
"<. c #827F49",
"1. c #837F49",
"2. c #847D48",
"3. c #847F48",
"4. c #857F48",
"5. c #847E49",
"6. c #867E48",
"7. c #867F48",
"8. c #7C804B",
"9. c #7E804A",
"0. c #7F804A",
"q. c #7F814A",
"w. c #7C804C",
"e. c #7E814C",
"r. c #7E834D",
"t. c #D68921",
"y. c #818048",
"u. c #808049",
"i. c #818049",
"p. c #828048",
"a. c #838048",
"s. c #828049",
"d. c #838149",
"f. c #81804A",
"g. c #80804B",
"h. c #83804A",
"j. c #82814A",
"k. c #83814A",
"l. c #81824A",
"z. c #80824B",
"x. c #80834B",
"c. c #81834B",
"v. c #83824A",
"b. c #82834B",
"n. c #83834B",
"m. c #848048",
"M. c #858048",
"N. c #858148",
"B. c #858049",
"V. c #848149",
"C. c #868049",
"Z. c #878049",
"A. c #858249",
"S. c #858349",
"D. c #878249",
"F. c #85814A",
"G. c #85814B",
"H. c #85824A",
"J. c #84834A",
"K. c #85834A",
"L. c #84834B",
"P. c #86824A",
"I. c #87824A",
"U. c #86834A",
"Y. c #83844B",
"T. c #83854B",
"R. c #85844B",
"E. c #87844A",
"W. c #86844B",
"Q. c #87854B",
"!. c #80834C",
"~. c #81834D",
"^. c #82834C",
"/. c #81844C",
"(. c #81844D",
"). c #82844C",
"_. c #83844C",
"`. c #83854D",
"'. c #81854E",
"]. c #80854F",
"[. c #82864E",
"{. c #83864E",
"}. c #83874F",
"|. c #84844C",
" X c #85854D",
".X c #86854C",
"XX c #84874D",
"oX c #87864C",
"OX c #86864D",
"+X c #86874E",
"@X c #888349",
"#X c #89824A",
"$X c #89834A",
"%X c #89844A",
"&X c #8A854B",
"*X c #89864C",
"=X c #8B864D",
"-X c #89864E",
";X c #84884F",
":X c #828750",
">X c #828850",
",X c #838A51",
"<X c #848952",
"1X c #898B50",
/* pixels */
":.W W _.d.w.r.,X@.@.@.d.@.d.Y.@.",
"W W F :.v P r.>X%.P.P.d.2.P.d.P.",
"P d F l :.p.Y.e.2.P.%X#XP.#XP.v ",
"d 5 1 F K P e.W d.:.#X:.%.:.P.W ",
"P :.d Y.u F m P d v m.l P.P._.W ",
"E.Y.E.P.d u d r.d.; v l Y.d.9.d.",
"oX1XoX_._.e., $ @ o P.v M < r.*X",
"P.d.r._.r._.# }  .{ * u K _.>XE.",
"d._.r.d.W P O | t.[ % 5 d @.e.d.",
";X>XP W l & X + .   5 m 5 d.P d.",
"E.;Xd.P , u = - 5 ; & m u K W e.",
"_._.d.d.K 8.n : v P.W d l u u Y.",
"P.:.v e.> 5 d d d.e.m 5 K K v :.",
"E.:.%.d.K w 8.r.W v d.v v W P.2.",
"E.Y.W @.P.e._.d.@.2.P.#Xv e.%X-X",
":.K d.P._.>X[.;X:.P.-X@.:.e.P.2."
};
