/* XPM */
static char *destroy_6[] = {
/* columns rows colors chars-per-pixel */
"16 16 231 2 ",
"   c #552F16",
".  c #5D3A1C",
"X  c #6A2E16",
"o  c #603016",
"O  c #6C3014",
"+  c #623B1D",
"@  c #603E1F",
"#  c #6A381B",
"$  c #693D1F",
"%  c #6E3C1D",
"&  c #703418",
"*  c #703618",
"=  c #7A341A",
"-  c #7E3619",
";  c #773B1F",
":  c #623F20",
">  c #67411F",
",  c #5D4220",
"<  c #6B4122",
"1  c #6F4726",
"2  c #6C4A26",
"3  c #6B4D28",
"4  c #6E4F29",
"5  c #714523",
"6  c #754421",
"7  c #7A4623",
"8  c #784725",
"9  c #754927",
"0  c #7A4925",
"q  c #714D28",
"w  c #63512A",
"e  c #65512B",
"r  c #62552F",
"t  c #68512B",
"y  c #68522D",
"u  c #6B562E",
"i  c #6C542C",
"p  c #70532B",
"a  c #76512B",
"s  c #73542D",
"d  c #6E5830",
"f  c #6F5D34",
"g  c #6D5F35",
"h  c #715931",
"j  c #715A33",
"k  c #745B31",
"l  c #745C32",
"z  c #795B31",
"x  c #7E5931",
"c  c #7A5D32",
"v  c #6D6439",
"b  c #6F6439",
"n  c #6F683A",
"m  c #746235",
"M  c #776237",
"N  c #7F6436",
"B  c #70673A",
"V  c #796639",
"C  c #7F6739",
"Z  c #71683A",
"A  c #71693C",
"S  c #716C3F",
"D  c #726E3E",
"F  c #776D3C",
"G  c #766E3E",
"H  c #776E3E",
"J  c #7B6A3B",
"K  c #7A6D3C",
"L  c #7A713F",
"P  c #7C703F",
"I  c #6A6B42",
"U  c #6D6E44",
"Y  c #747141",
"T  c #757240",
"R  c #757241",
"E  c #777341",
"W  c #747344",
"Q  c #737445",
"!  c #727446",
"~  c #757645",
"^  c #767645",
"/  c #777645",
"(  c #757546",
")  c #757746",
"_  c #767746",
"`  c #777746",
"'  c #7A7742",
"]  c #7C7742",
"[  c #7F7643",
"{  c #787644",
"}  c #787645",
"|  c #797746",
" . c #767846",
".. c #777847",
"X. c #777947",
"o. c #7B7842",
"O. c #7B7845",
"+. c #7B7A45",
"@. c #787947",
"#. c #797947",
"$. c #787A47",
"%. c #7A7A47",
"&. c #7B7A47",
"*. c #7C7845",
"=. c #7F7944",
"-. c #7D7A45",
";. c #7C7946",
":. c #7D7B46",
">. c #7C7B47",
",. c #7E7B47",
"<. c #7C7C47",
"1. c #7F7C46",
"2. c #7F7C47",
"3. c #777848",
"4. c #787948",
"5. c #7B7948",
"6. c #797B48",
"7. c #7A7A48",
"8. c #7A7A49",
"9. c #7C7B48",
"0. c #7D7B48",
"q. c #797C49",
"w. c #7A7C48",
"e. c #7B7D49",
"r. c #7B7F4A",
"t. c #7C7C48",
"y. c #7D7C48",
"u. c #7C7D48",
"i. c #7D7D48",
"p. c #7C7D49",
"a. c #7D7D49",
"s. c #7E7C48",
"d. c #7E7D48",
"f. c #7F7D48",
"g. c #7E7D49",
"h. c #7F7D49",
"j. c #7D7E48",
"k. c #7C7E49",
"l. c #7D7E49",
"z. c #7E7E48",
"x. c #7F7E48",
"c. c #7F7E49",
"v. c #7F7F49",
"b. c #7C7D4A",
"n. c #7A7F4C",
"m. c #85361C",
"M. c #863E1F",
"N. c #8B3C1C",
"B. c #8A431F",
"V. c #864520",
"C. c #807B47",
"Z. c #817C46",
"A. c #807C47",
"S. c #807D47",
"D. c #817D47",
"F. c #827C46",
"G. c #837C46",
"H. c #827D46",
"J. c #827E47",
"K. c #837E47",
"L. c #807E48",
"P. c #817E48",
"I. c #807F48",
"U. c #817F48",
"Y. c #807F49",
"T. c #817F49",
"R. c #827E48",
"E. c #837F48",
"W. c #847F48",
"Q. c #857F48",
"!. c #847E49",
"~. c #857F49",
"^. c #867E48",
"/. c #867F48",
"(. c #7F8049",
"). c #7E804A",
"_. c #7F814A",
"`. c #7D804C",
"'. c #7E834D",
"]. c #818048",
"[. c #808049",
"{. c #818049",
"}. c #818149",
"|. c #828048",
" X c #828049",
".X c #838249",
"XX c #81814A",
"oX c #80804B",
"OX c #83804A",
"+X c #81824A",
"@X c #80824B",
"#X c #81834B",
"$X c #82824A",
"%X c #83824A",
"&X c #83824B",
"*X c #82834B",
"=X c #83834B",
"-X c #858048",
";X c #858148",
":X c #848049",
">X c #858049",
",X c #848149",
"<X c #858149",
"1X c #868049",
"2X c #848249",
"3X c #85804A",
"4X c #84824A",
"5X c #84834A",
"6X c #85834A",
"7X c #87824A",
"8X c #83844B",
"9X c #87844A",
"0X c #86844B",
"qX c #87854B",
"wX c #80824C",
"eX c #80834C",
"rX c #83834C",
"tX c #82844C",
"yX c #83844C",
"uX c #82844D",
"iX c #81854F",
"pX c #82864E",
"aX c #83874F",
"sX c #84854C",
"dX c #84874D",
"fX c #86864D",
"gX c #888349",
"hX c #8A854B",
"jX c #8B864D",
"kX c #89864E",
"lX c #828850",
/* pixels */
"R.s.s.rXrXn.'.s.P H.<..XG..X9XH.",
"s.s.8.R.D h 9 X , <Xd K G.<X.X<X",
"s.*.8.&.e p   . ] <X+ - z C..Xs.",
"w.} f : { 8..X).R.<Xi < N.4 <XC.",
"<.h 5 l &.&.8.w.&..X<X*.H.2 G s.",
"9Xw s.<X&. .3..X).<..XZ.R.t { .X",
".X7 C .X8X.X!  .iX|..X*. .r g ;X",
"<X8 a lXiXiX .w.8X9X<.` w.u + T ",
".XO v |.<.w..XrXw.).` W &.k m .X",
"fX6 3 <.*.` 8..Xs..X'.&.` q s s.",
"rXV % q.`  .I U s.).&.3.&.y Z ).",
"iXK 0 B.G '.! n s.<Xw.&.n   D iX",
"Q.H.{ N.< ` c * T L A W n v w.R.",
"fXH.Q.m m.; B.# X = $ *.<..XQ.<X",
"<XiXs.o.1 x M s.C.c C.gXw.s.hXkX",
"H.s..XR..XdXiX9XG.G.kXR..XR..XQ."
};
