/* XPM */
static char *destroy_8[] = {
/* columns rows colors chars-per-pixel */
"16 16 214 2 ",
"   c #75572E",
".  c #6C5930",
"X  c #765D32",
"o  c #7A5E32",
"O  c #7C5F33",
"+  c #7C5D35",
"@  c #7D6134",
"#  c #7E6135",
"$  c #7C6336",
"%  c #71673B",
"&  c #756638",
"*  c #7B6439",
"=  c #796639",
"-  c #7F6639",
";  c #746B3B",
":  c #736D3D",
">  c #716C3F",
",  c #7C6A3B",
"<  c #7B6C3B",
"1  c #7E6C3C",
"2  c #7E6F3E",
"3  c #7F6E3F",
"4  c #76713F",
"5  c #79723F",
"6  c #7D703F",
"7  c #6A6B42",
"8  c #6D6E44",
"9  c #777041",
"0  c #717445",
"q  c #727445",
"w  c #727446",
"e  c #737646",
"r  c #757445",
"t  c #747545",
"y  c #777645",
"u  c #747646",
"i  c #757746",
"p  c #777746",
"a  c #767747",
"s  c #7A7141",
"d  c #787241",
"f  c #797241",
"g  c #7B7340",
"h  c #797543",
"j  c #7F7443",
"k  c #7D7643",
"l  c #787644",
"z  c #787744",
"x  c #787746",
"c  c #797746",
"v  c #7C7544",
"b  c #777947",
"n  c #797846",
"m  c #787947",
"M  c #797947",
"N  c #7B7946",
"B  c #787A47",
"V  c #7B7A46",
"C  c #7B7A47",
"Z  c #7B7B47",
"A  c #7C7844",
"S  c #7D7845",
"D  c #7C7945",
"F  c #7D7A45",
"G  c #7F7A45",
"H  c #7C7946",
"J  c #7D7B46",
"K  c #7C7B47",
"L  c #7E7B47",
"P  c #7C7C47",
"I  c #7E7C46",
"U  c #7E7C47",
"Y  c #7F7C47",
"T  c #7F7D47",
"R  c #7D7E47",
"E  c #7F7F47",
"W  c #747748",
"Q  c #777948",
"!  c #777949",
"~  c #777A48",
"^  c #787948",
"/  c #7B7948",
"(  c #787A48",
")  c #797A48",
"_  c #797B48",
"`  c #7A7A48",
"'  c #7A7B48",
"]  c #7B7B4A",
"[  c #7C7B48",
"{  c #7D7B48",
"}  c #797C49",
"|  c #7A7C48",
" . c #7B7D49",
".. c #7D7C48",
"X. c #7D7D48",
"o. c #7C7D49",
"O. c #7D7D49",
"+. c #7E7C48",
"@. c #7E7D48",
"#. c #7E7D49",
"$. c #7F7D49",
"%. c #7C7E49",
"&. c #7D7E49",
"*. c #7E7E48",
"=. c #7F7E48",
"-. c #7E7E49",
";. c #7F7F49",
":. c #7C7D4A",
">. c #7C7F4A",
",. c #7D7F4A",
"<. c #7E7E4A",
"1. c #7F7F4A",
"2. c #805C31",
"3. c #84683A",
"4. c #806E3E",
"5. c #826F3E",
"6. c #8F6E3C",
"7. c #837341",
"8. c #857240",
"9. c #827642",
"0. c #837643",
"q. c #867543",
"w. c #847743",
"e. c #827843",
"r. c #827943",
"t. c #807A45",
"y. c #827B46",
"u. c #867B45",
"i. c #867A46",
"p. c #817C46",
"a. c #807C47",
"s. c #827C46",
"d. c #837C46",
"f. c #827D46",
"g. c #837E47",
"h. c #867C46",
"j. c #857E47",
"k. c #897F47",
"l. c #807C48",
"z. c #807D48",
"x. c #827D48",
"c. c #807E48",
"v. c #807F48",
"b. c #807F49",
"n. c #817F49",
"m. c #827E48",
"M. c #827F48",
"N. c #837F48",
"B. c #827F49",
"V. c #837F49",
"C. c #847F48",
"Z. c #847E49",
"A. c #847F49",
"S. c #7C804B",
"D. c #7F804A",
"F. c #7F814A",
"G. c #7C804C",
"H. c #7E814C",
"J. c #808049",
"K. c #818049",
"L. c #818149",
"P. c #828048",
"I. c #838048",
"U. c #828049",
"Y. c #828149",
"T. c #838149",
"R. c #81814A",
"E. c #80804B",
"W. c #82814A",
"Q. c #80824A",
"!. c #81824A",
"~. c #81824B",
"^. c #80834B",
"/. c #81834B",
"(. c #82824A",
"). c #83824A",
"_. c #82834A",
"`. c #82824B",
"'. c #82834B",
"]. c #83834B",
"[. c #858048",
"{. c #858148",
"}. c #858049",
"|. c #848149",
" X c #868049",
".X c #858249",
"XX c #868249",
"oX c #868349",
"OX c #84824A",
"+X c #85824A",
"@X c #84834A",
"#X c #85834A",
"$X c #84834B",
"%X c #87824A",
"&X c #83844B",
"*X c #85844B",
"=X c #86844B",
"-X c #87844B",
";X c #80824C",
":X c #80834C",
">X c #82834C",
",X c #81844C",
"<X c #82844C",
"1X c #82844D",
"2X c #83854D",
"3X c #81874F",
"4X c #84854C",
"5X c #86854C",
"6X c #84874D",
"7X c #898149",
"8X c #888248",
"9X c #8A854B",
"0X c #89864E",
"qX c #818650",
/* pixels */
"m.+.+.1X1Xm 9.6.5.f.t.T.f.T.&Xf.",
"+.+.] m.I > . 3.i.+Xi.@ 9.A.+X+X",
" .J ] J m.T.1XF.f.+Xk.2.  , +XI ",
"m 9 % m | } F.+.T.+X7Xm.r.g +.m.",
"h J J T.m m b  . .+.+XJ +X+XI +.",
"+X+X*X+XI m ] F.T.f.P.J T.:XD.T.",
"4 f.5X&X1XT.w b 1XP.P.I B w S.{.",
"5 ; H.3XqX1Xb  .&X&XI m | &Xm h ",
"& m F.F.F.+.T.T. .F.W t J +Xt.T.",
", F.+.+.m t  .T.I F.T.b t T.v f.",
"t.q.T. .t m 7 8 +.T.! ! m I f +.",
"5Xw.T.1XI H.w 0 +.+X .] J m w 1X",
"m.t.O j 0 t J ] T.T.m ! +.h > {.",
"0Xf.5.o ] v f = F.J T.I I +.j.j.",
"*X1Xm.$ X s 5., @ + * 7X+.+.9X0X",
"f.+.T.w., 5.m.1X2 7.j.f.T.F.+XA."
};
