/* XPM */
static char *destroy_5[] = {
/* columns rows colors chars-per-pixel */
"16 16 224 2 ",
"   c #492D14",
".  c #542610",
"X  c #502812",
"o  c #572912",
"O  c #522E13",
"+  c #5B2A11",
"@  c #463119",
"#  c #4B361B",
"$  c #4D371D",
"%  c #463B1E",
"&  c #493E1D",
"*  c #55371C",
"=  c #602A13",
"-  c #602D13",
";  c #622F14",
":  c #662D14",
">  c #693216",
",  c #6A3717",
"<  c #62351B",
"1  c #633C18",
"2  c #683A1C",
"3  c #6D391E",
"4  c #683C1C",
"5  c #723C1B",
"6  c #743F1B",
"7  c #7E3B1B",
"8  c #63401F",
"9  c #5E4E24",
"0  c #664325",
"q  c #614624",
"w  c #604627",
"e  c #6E4721",
"r  c #674920",
"t  c #6D4F24",
"y  c #744820",
"u  c #734925",
"i  c #774824",
"p  c #784E20",
"a  c #74532E",
"s  c #6B5330",
"d  c #695631",
"f  c #615E33",
"g  c #645C33",
"h  c #655D35",
"j  c #6F5A31",
"k  c #705731",
"l  c #705C35",
"z  c #6C6237",
"x  c #6B6536",
"c  c #6A673B",
"v  c #6F673D",
"b  c #6F6B3E",
"n  c #7D6731",
"m  c #796833",
"M  c #7D6931",
"N  c #706738",
"B  c #75683A",
"V  c #7F6A38",
"C  c #75713E",
"Z  c #7C713B",
"A  c #79703C",
"S  c #6D6F42",
"D  c #6D6E44",
"F  c #737243",
"G  c #777042",
"H  c #777541",
"J  c #777344",
"K  c #727446",
"L  c #777745",
"P  c #757746",
"I  c #797642",
"U  c #7F7743",
"Y  c #787644",
"T  c #787645",
"R  c #777846",
"E  c #767847",
"W  c #797A46",
"Q  c #797A47",
"!  c #7A7B46",
"~  c #7B7A47",
"^  c #7B7B47",
"/  c #7D7945",
"(  c #7C7946",
")  c #7F7B47",
"_  c #7C7C47",
"`  c #7D7C47",
"'  c #7F7C46",
"]  c #7F7D46",
"[  c #7E7C47",
"{  c #7F7F47",
"}  c #7A7B49",
"|  c #7B7B4A",
" . c #7C7B48",
".. c #7D7B48",
"X. c #7A7C48",
"o. c #7B7C48",
"O. c #7A7C49",
"+. c #7B7D49",
"@. c #7A7E4B",
"#. c #7C7C48",
"$. c #7D7C48",
"%. c #7C7D48",
"&. c #7C7D49",
"*. c #7D7D49",
"=. c #7E7C48",
"-. c #7E7D48",
";. c #7F7D49",
":. c #7D7E48",
">. c #7D7E49",
",. c #7E7E48",
"<. c #7F7E48",
"1. c #7F7F48",
"2. c #7C7D4A",
"3. c #863C1A",
"4. c #804118",
"5. c #8D481A",
"6. c #8A4A1E",
"7. c #95451B",
"8. c #90441C",
"9. c #895118",
"0. c #9F571B",
"q. c #A4561D",
"w. c #A8551E",
"e. c #AB5D1D",
"r. c #B1601E",
"t. c #804725",
"y. c #804D20",
"u. c #834B25",
"i. c #8C4E27",
"p. c #8A5229",
"a. c #8C592B",
"s. c #946224",
"d. c #8B6F39",
"f. c #BA6520",
"g. c #BA6521",
"h. c #CB6825",
"j. c #D17224",
"k. c #827C45",
"l. c #817C46",
"z. c #807C47",
"x. c #807D47",
"c. c #827C46",
"v. c #837C46",
"b. c #827D46",
"n. c #807E47",
"m. c #817F47",
"M. c #827E47",
"N. c #857F47",
"B. c #807C48",
"V. c #807E48",
"C. c #817E48",
"Z. c #807F49",
"A. c #817F49",
"S. c #827E48",
"D. c #837F48",
"F. c #837F49",
"G. c #847D48",
"H. c #847F48",
"J. c #857F48",
"K. c #847E49",
"L. c #867E48",
"P. c #7F8049",
"I. c #7F804A",
"U. c #7E824C",
"Y. c #808049",
"T. c #828048",
"R. c #828049",
"E. c #838149",
"W. c #81804A",
"Q. c #80804B",
"!. c #83804A",
"~. c #83814A",
"^. c #81824A",
"/. c #81824B",
"(. c #81834B",
"). c #82824A",
"_. c #83824A",
"`. c #82834B",
"'. c #83834B",
"]. c #848048",
"[. c #858048",
"{. c #858049",
"}. c #848149",
"|. c #868048",
" X c #878048",
".X c #868049",
"XX c #858349",
"oX c #878249",
"OX c #84804A",
"+X c #85814B",
"@X c #84824A",
"#X c #85824A",
"$X c #84834A",
"%X c #85834A",
"&X c #84834B",
"*X c #86834A",
"=X c #83844B",
"-X c #83854B",
";X c #86844B",
":X c #87854B",
">X c #80824C",
",X c #81844C",
"<X c #81844D",
"1X c #83844C",
"2X c #82844D",
"3X c #82864E",
"4X c #83864E",
"5X c #84844C",
"6X c #84854C",
"7X c #85854D",
"8X c #87854C",
"9X c #84874D",
"0X c #84874E",
"qX c #86874E",
"wX c #888249",
"eX c #888349",
"rX c #8A854B",
"tX c #8A874B",
"yX c #8B864C",
"uX c #89864E",
"iX c #818650",
"pX c #828750",
"aX c #838A51",
"sX c #898B50",
/* pixels */
"S.=.=.1X1X@.U.aXl.l.] S.l././.v.",
"=.=.| S.=.o.aX1XU L.*XN.L.*X*X*X",
"o.( | ) S.C A z 1 n Z m.L.wX*X) ",
"( L F | h + =   6.j.5.# |.N./.) ",
"o.m./ A , < > B G i 2 4 8 I ;X] ",
"*X=X;Xt 7.d J I.*X/.=.i r.9 ] I.",
";XsXh q.i.] K E *Xm.] u.h.s.1XtX",
"*Xm.8 g.p.=X( ! ;X/.| b 7 6 aX1X",
"/.I.y 3.l ! S.*Xo.=.L j +   ! =X",
"tXaXd.w.0 J | =.] /.>Xv . v I.=.",
"/.8Xm q.w a s S =.m.L a.4.% =.I.",
"/.=X& ; : 8.3 S =./.k f.M c E U.",
"*Xm.x f @ 9.e.6 * i + q ] ! =./.",
";Xm.N./.! V p O $ y.t =.! I.N.*X",
"8X1Xl.) |./.I.| S.L.L.*X=.S.wXyX",
"S.=.S.N.=XaXU.1XS.*XyXm././.>XL."
};
