/* XPM */
static char *exit_32[] = {
/* columns rows colors chars-per-pixel */
"32 32 178 2 ",
"   c #000E05",
".  c #011502",
"X  c #031B02",
"o  c #0B1E04",
"O  c #061709",
"+  c #0A1E09",
"@  c #111F0A",
"#  c #052302",
"$  c #0A2303",
"%  c #032B02",
"&  c #0C2C01",
"*  c #0B2109",
"=  c #102502",
"-  c #112D02",
";  c #12220C",
":  c #162F0B",
">  c #182C0F",
",  c #0E3100",
"<  c #033B02",
"1  c #133303",
"2  c #193703",
"3  c #143B02",
"4  c #1C3D02",
"5  c #142310",
"6  c #192612",
"7  c #1B2C12",
"8  c #222E1A",
"9  c #233216",
"0  c #283B17",
"q  c #2D3B1B",
"w  c #2D371D",
"e  c #323E1C",
"r  c #014301",
"t  c #024E01",
"y  c #0C4401",
"u  c #144101",
"i  c #1D4202",
"p  c #174900",
"a  c #1E4B03",
"s  c #015401",
"d  c #015D00",
"f  c #0F5B00",
"g  c #195F00",
"h  c #204202",
"j  c #234C02",
"k  c #255202",
"l  c #295402",
"z  c #255A01",
"x  c #295C03",
"c  c #31411E",
"v  c #016300",
"b  c #0B6600",
"n  c #016B00",
"m  c #086F00",
"M  c #017601",
"N  c #0D7100",
"B  c #017E00",
"V  c #127400",
"C  c #1A7300",
"Z  c #276D00",
"A  c #2C6900",
"S  c #306703",
"D  c #366E01",
"F  c #2A7A00",
"G  c #3C7B00",
"H  c #347B01",
"J  c #354325",
"K  c #384024",
"L  c #3E4A25",
"P  c #3E4B28",
"I  c #407501",
"U  c #414724",
"Y  c #424C27",
"T  c #4B542D",
"R  c #4E5B2F",
"E  c #45512B",
"W  c #50572F",
"Q  c #545B35",
"!  c #5A5F32",
"~  c #645E33",
"^  c #526034",
"/  c #5C6334",
"(  c #5F6E3A",
")  c #5C6438",
"_  c #606635",
"`  c #656B3A",
"'  c #6B6D3D",
"]  c #6F703E",
"[  c #73713E",
"{  c #7C713F",
"}  c #6E6E42",
"|  c #726F41",
" . c #6F7142",
".. c #757545",
"X. c #7A7645",
"o. c #767947",
"O. c #7C7A46",
"+. c #727748",
"@. c #767A49",
"#. c #7C7D49",
"$. c #827C46",
"%. c #827E49",
"&. c #028100",
"*. c #0B8400",
"=. c #068A01",
"-. c #0C8900",
";. c #148700",
":. c #148A00",
">. c #1B8D00",
",. c #1C9100",
"<. c #298700",
"1. c #238C00",
"2. c #378500",
"3. c #3F8401",
"4. c #3B8C00",
"5. c #239200",
"6. c #2B9500",
"7. c #2E9F00",
"8. c #359700",
"9. c #3B9200",
"0. c #349A00",
"q. c #3A9C00",
"w. c #2FA000",
"e. c #36A300",
"r. c #3BA200",
"t. c #3DA900",
"y. c #3DB000",
"u. c #4E8B01",
"i. c #499600",
"p. c #409D00",
"a. c #559101",
"s. c #549E00",
"d. c #5C9A01",
"f. c #44A200",
"g. c #4BA500",
"h. c #4CA800",
"j. c #51A301",
"k. c #54AA00",
"l. c #5CAD00",
"z. c #49B900",
"x. c #54B500",
"c. c #59B000",
"v. c #56BB01",
"b. c #5ABD01",
"n. c #60AD00",
"m. c #6BAD01",
"M. c #65B200",
"N. c #6BB200",
"B. c #6BBA01",
"V. c #63BB01",
"C. c #71B700",
"Z. c #71BE00",
"A. c #5CC300",
"S. c #61C401",
"D. c #62CA01",
"F. c #6ECC01",
"G. c #75C701",
"H. c #75CC00",
"J. c #78C900",
"K. c #75D301",
"L. c #7ED501",
"P. c #7E824B",
"I. c #76814C",
"U. c #7C8350",
"Y. c #84D700",
"T. c #878247",
"R. c #84834B",
"E. c #8A844B",
"W. c #85894F",
"Q. c #8B894E",
"!. c #938E4E",
"~. c #878750",
"^. c #858A51",
"/. c #8B8C52",
"(. c #908B50",
"). c #869055",
"_. c #8A9054",
"`. c #8E965A",
/* pixels */
"E.O.$.%.X.$.R.~.T.O.U.P.U.R.P.R.%.O.%.%.$.$.R.E.$.L O   K R.$.$.",
"R.O.#.@.~.%.#.R.R.W.P.@.#.W.).^.%.$.$.%.%.O.#.O.6 $ I u.& T $.$.",
"%.O.X.#.#.@.X.R.%.O.+.O.I.^.U.T.%.$.R.$.R.T.%.6 i J.Y.Y.d.X [ E.",
"P.#.#.%.#.X.#.E.O.o.O.P./.U.^.P.%.$.$.E.T.!.w i L.J.m.B.m.X J (.",
"O.#.O.%.%.#.O.%.R.E.R.%.E.~.R.R.E.$.$.E.!.E , H.G.M.N.Z.a.# # ~ ",
"%.O.@.| %.@...%.E.X.%.%.P.P.R.#.$.$.#.!.~ o B.H.l.M.m.B.l 2 & w ",
"#.#.| X.@...X.#...O.#.P.~.I.@.I.E.E.%.[ + s.H.l.l.n.M.i.+ x a + ",
"%.#...@.X.| @.#.R.o.P.+.@.P.#.R.E.R.X.; G K.k.k.l.l.l.3 & A a . ",
"..@.#.%.$...#.Q.R.} I.%.%...%.#.X.O.8 z K.k.j.j.k.l.D X k l % w ",
"O.%.R.$.%.O.%.T.O. ...R.@.} ..#.W.K 3 F.k.g.h.h.h.i.& 3 z 4 * ] ",
"R.T.%.%.%.E.%.E.%.....@.@.#.@.(.T $ V.v.q.f.f.h.h.a # l k X T Q.",
"E.Q.R.R./.E.O.R.%.P.O.@.#.+.R._ . j.b.q.f.f.f.f.H + i l & > P.T.",
"..e : 8 ^ R.E.R.R.O.O.R.} @.) . 3.D.8.q.r.q.r.9., & l i X ` Q.T.",
"9 Z x.2.& 7 ` /.W.W.W.O.P.) . S D.0.6.q.0.q.q.z X a k X q `.R.E.",
"& b.A.D.b.A # J I.^.R.W.` . j D.0.6.8.6.0.0.F # 3 l - * I././.%.",
"- q.w.t.v.D.h.p ; Q ^.) O u S.e.1.5.6.6.6.<.u $ k 4 X T ^.W.R.R.",
"7 v *.*.,.e.b.D.4., 5   3 b.e.>.5.5.5.5.<.g o i j $ > #.R.P.#.R.",
"T % =.*.*.*.:.t.A.A.A x v.w.;.,.>.,.5.1.C % , k 1 . / E.%.O.W.R.",
"R.9 s =.&.*.*.&.,.t.z.t.,.*.:.:.:.>.>.C y # k 4 X q %.R.P.O.T.R.",
"E...# M &.B &.&.&.&.*.B *.-.-.:.:.:.N f o h j & o  .R.T.O.@.O.R.",
"%.W.L % &.&.&.&.&.&.&.*.*.*.*.*.-.N b % 1 k 1 . E R.o.P.P.P.P.R.",
"#./.P.@ r &.&.&.&.&.&.&.&.&.&.*.N b < o k 4 o 7 X.X.#.O.X.O.T.P.",
"O.P._./ . s B &.B &.B &.&.&.&.n v t X i h - + ' %.X.O.O.O.+.P.P.",
"W.R.R.R.q X d M &.&.&.B &.B n d d X 1 i 4 . L E.X.P.O.o.....P._.",
"T.R.O.T.[ o # v n B &.&.M v d d # $ 4 4 # 7 ..#.O.o.X.@.O.O.R.%.",
"R.#.%.$.R.! . % d v v v d v v % $ 4 h & * ' #.@.P.%.R.#.#.T.$.%.",
"R.E.E.O.{ E.L . % s v v v d % X 4 4 4 X ) E.O.X.#.R.O.R.R.$.%.T.",
"E.E.R.P.E.E.E.0 . o < t r X o 3 4 i o Y Q.O.%.%.O.@.#.%.E.$.$.R.",
"R.W.W.E.$.O.%.X.> X $ . o $ 4 4 h # q R.X.$.R.Q.%.#.@.%.E.E.E./.",
"R.E.T.W.O.O.O.$.[ > X $ - 4 h 4 o 9 $.E.~.Q.$.E.R.#.@.^.E.E.~.E.",
"%.O.O.o.%.R.R.T.W.O.0 X o - & X e X.$.E.E.Q.$.O.R.O.%.R.W.E.%.%.",
"%.R.%.$.%.R.%.$.R.W._.Q > X ; R !.O.$.E.E.E.%.O.E.R.%.%.#.$.$.%."
};
