/* XPM */
static char *collectible_64[] = {
/* columns rows colors chars-per-pixel */
"64 64 242 2 ",
"   c #13130C",
".  c #1A1A0F",
"X  c #18160C",
"o  c #1C1C10",
"O  c #161714",
"+  c #100E08",
"@  c #250B05",
"#  c #2B1707",
"$  c #331C05",
"%  c #351909",
"&  c #361806",
"*  c #2C1912",
"=  c #1E2013",
"-  c #362304",
";  c #352A0B",
":  c #392709",
">  c #292916",
",  c #362A17",
"<  c #2E311D",
"1  c #35321C",
"2  c #38331C",
"3  c #343535",
"4  c #2E3125",
"5  c #412B0D",
"6  c #5E3408",
"7  c #4C2E0D",
"8  c #623707",
"9  c #384134",
"0  c #63440A",
"q  c #4D4C2D",
"w  c #5A532D",
"e  c #5C5B34",
"r  c #5A5B39",
"t  c #544E2C",
"y  c #645E35",
"u  c #646137",
"i  c #64643B",
"p  c #6B653A",
"a  c #6C6B3D",
"s  c #66693C",
"d  c #736C3E",
"f  c #7A6D3D",
"g  c #74713F",
"h  c #7A703F",
"j  c #6F703F",
"k  c #5D623D",
"l  c #5F524D",
"z  c #6C6E42",
"x  c #666941",
"c  c #726E41",
"v  c #796F40",
"b  c #6E7345",
"n  c #6B7448",
"m  c #747444",
"M  c #7B7543",
"N  c #757946",
"B  c #7C7A46",
"V  c #727648",
"C  c #757B4A",
"Z  c #7C7D49",
"A  c #7B7648",
"S  c #747E50",
"D  c #B33C0D",
"F  c #8D3C1E",
"G  c #964B01",
"H  c #9C5603",
"J  c #93471E",
"K  c #BA5C1C",
"L  c #AD4914",
"P  c #9C6A12",
"I  c #AB6509",
"U  c #83713F",
"Y  c #856F3E",
"T  c #A55324",
"R  c #C35B1A",
"E  c #C3500B",
"W  c #EA5802",
"Q  c #D4770B",
"!  c #C26618",
"~  c #CE7111",
"^  c #F26D00",
"/  c #E97A06",
"(  c #F47C01",
")  c #F57908",
"_  c #E6681A",
"`  c #EE7418",
"'  c #F17C16",
"]  c #F0680E",
"[  c #C55C24",
"{  c #D06823",
"}  c #E86C22",
"|  c #ED7524",
" . c #ED7829",
".. c #FA7B25",
"X. c #EA7732",
"o. c #827542",
"O. c #837C46",
"+. c #8A7C45",
"@. c #837E49",
"#. c #8A7E48",
"$. c #8A7542",
"%. c #C57856",
"&. c #ED7F46",
"*. c #7D824C",
"=. c #7F894E",
"-. c #77814A",
";. c #7D8551",
":. c #7D8A53",
">. c #768051",
",. c #D68607",
"<. c #CD8F1C",
"1. c #CE8E11",
"2. c #E9870D",
"3. c #F58302",
"4. c #F68C04",
"5. c #F98C01",
"6. c #F4850D",
"7. c #F68C0A",
"8. c #FC8604",
"9. c #F99203",
"0. c #F7910A",
"q. c #FA930C",
"w. c #FA9A06",
"e. c #F58B13",
"r. c #F38617",
"t. c #FD9513",
"y. c #F99912",
"u. c #F69818",
"i. c #FCAA07",
"p. c #FFB402",
"a. c #FFBC04",
"s. c #FEBD0C",
"d. c #FFB30B",
"f. c #FBA817",
"g. c #FFBD14",
"h. c #FDB719",
"j. c #C79925",
"k. c #C98C2D",
"l. c #F78629",
"z. c #F79A26",
"x. c #EE8935",
"c. c #F98933",
"v. c #F59936",
"b. c #EF8D36",
"n. c #CCA328",
"m. c #D5A927",
"M. c #F8A928",
"N. c #FEBC25",
"B. c #FCB42B",
"V. c #FDBC2C",
"C. c #F7B727",
"Z. c #F7A938",
"A. c #FDBB35",
"S. c #F9B535",
"D. c #E9AD27",
"F. c #FFC215",
"G. c #FCC41C",
"H. c #FECA1C",
"J. c #F7C31E",
"K. c #FEC422",
"L. c #FFCC23",
"P. c #FEC42B",
"I. c #FECB2C",
"U. c #F4C323",
"Y. c #FED12D",
"T. c #FBD828",
"R. c #FBC334",
"E. c #FDC838",
"W. c #FED334",
"Q. c #FBDD33",
"!. c #FCD43A",
"~. c #FCDC38",
"^. c #FAE435",
"/. c #858147",
"(. c #83834B",
"). c #8A844B",
"_. c #84894E",
"`. c #8B8A4E",
"'. c #8A8047",
"]. c #91844B",
"[. c #928B4E",
"{. c #95874B",
"}. c #828651",
"|. c #848B52",
" X c #8B8D52",
".X c #928D52",
"XX c #869155",
"oX c #8B9254",
"OX c #8B955A",
"+X c #8C995B",
"@X c #84925A",
"#X c #929353",
"$X c #959858",
"%X c #95A15F",
"&X c #A09351",
"*X c #ED874A",
"=X c #F39647",
"-X c #EF9453",
";X c #CCA456",
":X c #F6A645",
">X c #F9B544",
",X c #F5B152",
"<X c #F7B76F",
"1X c #FDC849",
"2X c #FDD644",
"3X c #FCCB5B",
"4X c #FAC857",
"5X c #FEDA5B",
"6X c #FDE656",
"7X c #FBCD62",
"8X c #F8CB69",
"9X c #FCD46B",
"0X c #FDD665",
"qX c #FBD475",
"wX c #FBE661",
"eX c #EFB091",
"rX c #C5B9AF",
"tX c #F8D68E",
"yX c #FDF09B",
"uX c #F6D6B9",
"iX c #F1CFAC",
"pX c #F8E7B7",
"aX c #FAEBB0",
"sX c #BFC3C6",
"dX c #F3DCC8",
"fX c #EFD8D0",
"gX c #F6E7C8",
"hX c #FBF5C9",
"jX c #F5ECDC",
"kX c #F4E8D8",
"lX c #F6F3DD",
"zX c #F7F2D4",
"xX c #EEF0DA",
"cX c #F2E8E6",
"vX c #F5F2E3",
"bX c #F7F7EA",
"nX c #F3F5FB",
"mX c #F4FDFE",
"MX c #F5F7F4",
"NX c #ECEBED",
"BX c #DCDEEC",
"VX c #94A1A8",
/* pixels */
"(..XZ M M o.Z ).Z o.M }.(.`.`.(.].U _.(.`.}.}.|.(._.Z B /.N Z /.(.*.).(.(.M `.@.@.).O.).O._.).O.M B $.O.(.+XO.*.(.N *.#.B /.o.+.",
"o.).*.f #..XC B A v #.@.@.(.(. X`.O.g Z N >.}.C :.>.|.*.oX|.*.'.O.O.d M (.(.#.Z O.U m O.B oX).O.#.).`.Z Z _.=.*.[.|.=.).+.h #.(.",
"+.`.N h ).@.c n C `.A @.h |.|.o./._.oX|.Z @.C C m @.(.C oXXX>.|.B o.M O.o.m O./.h O.B B -.B )._.N Y #.O.p B (.(.O.*._.).(.M B (.",
").*.*.).V Z A Z ).#XZ Z (.=.*.(.Z Z *.XXXXm (.V (.(./.XX|.oX X_._.(.+.).h B +.`.`._.(.N b _.(.M O.U O.O.B OX/.O.O.`.).`.+.+.O.B ",
"B @.o.@.Z m (.:.}.;.}.M B M `.|.O.O._.(.N V =.C N ;.>.%X X*.*.'.[.#.@.#.O./.O.O.`.h _._.N O.O.B [.O.`.).M #X/.`./.O.+.`.A U (.(.",
"*.A m M Z M >.n A x z (.A f `.O./.B A s b V C *.S :.:. X;.S `.)./.U o.o.(.#Xh U _.)._.'.O.#.o.oX).h m O.).).Z *.(.Z _.O.O.O.`.(.",
"*.|.@.v C (.B @.}.Z A V N (.B /.O.B *.d V Z B _.|. X|.V =.A (.N B (.B o.#.).B +.h ].+.B ).`./.`.h O._.A ).).(.B O./.$X/.).oX`.).",
"(.Z C }.).M C ).C A O.U Z *.`.#.h *.B *.Z Z ).g o..XS |.|.(.*.m =.+.#.).$.@.}.oX+.).#X`.O.O.#.]./.(./.).].).M B O.O.(.[.M /._.|.",
"M V (.#.m A @.(.}.Z m C #.#._.(.B #.B oX'.(.*.).`.[.N *./.*./.oX/.O.o.M #.).(..X).)._._.(.#.)./.).#.O.].O.[.+.(./.oX#X*.(.oXM Z ",
"o.C >.*.A o.m C }.).).M M c d +.`. X].O.oX(.O.#.O.+X:.B N u u a a y y p p a u m [.+.N *.(.`.+.B ).+.[.O.o. X[.O.[.(.*.h M o.g f ",
"(.Z V N (.B v m A }.V c Z *.B M [.O./.d O.O.(.O.d (.:.B < . o = o o . o o o o 2 Y h O.O.m ).).].+.O.N `.'. X[.O.`.M _._.o.@.m +.",
"Z O.*.N m N M d /.}.V m m M (.).).B B Z B Z -.).a a i q $ - ; > ; : % @ & % 3 3 k p g d )./.B Y [.`.B =./.B ]..X`.M ).).).*.O.).",
"m ;._.h M b p M @.c m N m A (.}.m B b B N Z n Z < . . # G 1.<.j.n.k.[ D D %.rXVX9 o . 2 @.).#.Z Z #.O.f O.#.O.O.|.(.g O.@.M $.h ",
"(.*.A O.M z M ).z V @.V m C *.a m (.m C C Z x q - - ; 0 ,.J.L.T.T.P.Z.' ) <XmXBXl % % , q c ).Z #.`.).h ).).$Xp (.).@.(.C (.`.M ",
"m _.B A c V @.@.*.a c V d Z |.B B (.M N O.B < # G ,.<.j.V.L.H.F.F.H.R.h.f.9XbXcX%.E [ F * 1 M ).O.O./.(.#./.).O.(.C $Xo.@.B V (.",
"Z O.B B Z V V m O.m d b z N |.Z (._.B s N t $ 8 ,.U.Q.W.C.Z.4X8X8X4XR.F.s.0XlXfX-Xr.r.| 6 % w m *.m ).O.O.O.M  XC M (.).O.A A M ",
"(.N ).C (.*.B a @.M B V V (.B /.`.O.a w 1 : H ,.f.W.~.C.r.*XiXMXbXaX1Xp.a.qXcXcX,X7.8.t.,.H 5 2 a B U '.U /.=.*._.[./.-./.*.(.B ",
"c p m B M U =.`.).B m f N oX#X].h _.C q   # Q J.W.U.C.u.` *XiXzXkXuXtXE.s.3XlXfXv.^ / t.f.~ $   y Z O.(.`._.h /.oX/.*././._.#.*.",
"m @.N m /.(.(.O./.B M Z -./.(.).-.-.j r   # <.^.Q.C.y.7.z.A.1XA.v.<XkXpXP.E.zXkX*XW _ c.v.[ @ X p [.(.B ).U h *.`./._./.O.@.C a ",
"_.(.oX`..X`.O.d /./.m ).#.B /.*.B h u t : 0 n.!.A.M.e.y.U.2X5XV.9.z.uXgX9X9XzXcXeXX.] ` ` K 6 : w N *._.[././._.oX*.=.B M B B B ",
"d B [.`.m O.B /._.(.`.).O.h /.+.*.s 2 : H 1.C.S.x. .M.h.H.0XgXpX1Xp.C.9XiXzXbXnXfXeXl.( ^ / ,.I 7 2 j _._./.h `._.C *._.).Z ).(.",
"oX/./.(.m `._.O.M `.O./.`.Z _.&Xh u   # ,.K.T.D.| | B.L.g.,XgXkX8Xf.C.qXMXmXnXmXmXvX<XZ.Z.>XM.Q # X a B (.O.B )././.*.).Z /.].|.",
"`.`.O._.).O.oXB m `._._./.Z g `.*.g . # <.Q.Q.C.r.r.B.P.y.u.:Xv.l.=XiXbXmXnXnXMXMXnXjXcXvXuX:XE @ X d (.+X(./.(.(.-.B h m Z (./.",
"h ).`.[.`.Z `.|._.(.#X(.U *.N *.j w : 0 n.!.E.u.9.i.N.V.y.3.8.^ W *XuXbXzXgXvXnXnXbXjXlXvXuX=XL 6 , w p *.(.*.B C *.M )._.N O.|.",
"+././.).).oX`.|. X|./.O.o.)._.a 1 5 H ,.C.S.b.` i.F.U.V.y.4.3.3./ z.7X7X1XqXgXmXmXjX9XR.>X:Xu.' { T , < r x V z *.h (.`._.`.'.).",
"_._.oXoXO.'.`. X|.#.+.O.B ).[.a + - Q H.L.M.` x.<X5XE.f.7.r.e.0.7.w.i.p.p.1XgXMXkXaX9XB.( ^ 3.l.c.[ % + t x B x g B _.*./.).+./.",
"m /.`.`.`. X_.oX#.]. X*.B (.M u . : <.^.!.D.2.=XdXhX>X6.`  .r.9.0.7.9.w.p.3XlXjX9X9XhXuX .W W ..c.[ % + u B V :.N C  X|.#X#.h [.",
"'.oX).`.*.oX_._.(._./.XX XZ |.a > ; j.~.Y.i.4.Z.gXgX:X^ ]  .r.7.0.6.6.0.d.qXbXgXR.P.pXNXeX*XX...l.K % o i *.*.N B B +XXX).`.'.#X",
"O.).(.=.B (.oX*.`.Z m b @X+X>.i o ; j.^.U.i.4.z.4X7Xz.3.6.r.7.7.0.6.6.5.d.9XvXkX4Xs.R.tXcXuX=X8.9.K - . r _.b N S +X+XoX`.|._.Z ",
"*.o.oX(.O.(..Xh *.(. X(.*.@X:.j = - 1.~.wX,Xu.9.i.i.9.3.4.4.7.7.7.4.0.w.d.9XjXvXqXp.p.1XdXdX=X8.9.~ - o a =.N V +X XZ  XXXOX+.f ",
").(.].O.*.(./.B O._.XX*.=. XO.s o - ,.6XhXfXv.9.p.d.9.( 3.7.7.7.7.7.0.w.d.7XvXvX8Xs.s.S.-X-XX...l.K $ . a _.(._.}.Z B ).oXB O.(.",
"[.+.`.).'.M (.*.B }.*.B m Z N a o ; n.yXbXuXv.2.A.7X>Xv.u.q.7.7.9.6.' 7.i.9XvXjX7Xg.I.S.` W _ ..l.K & . p `._._.@.|.}.|.|.*._.`.",
"/.N A #./.(.(.O.c V _.;.Z `.(.a . 3 sXvXyXS.7.v.tXzXkXtX1Xf.0.7.9.7.` ` f.0XlXlX7Xg.P.B.0.( / q.y.I & # u B O.B (.Z oX;.V *.*.@.",
"N *.h ).(.`.*.M -.Z =.*.O.|.=.s o 3 sXhX2Xw.4.=XfXmXmXvX3Xi.9.6.6.'  .l.f.0XlXjX3Xg.K.B.u.6.' t.y.~ $ = a Z O.Z (.O.O.m (.@.A *.",
"M B /. X).(.|._.OXXX`.Z N #.M s o < ;XwXY.i.4.Z.dXmXmXjX:X5.5.r.}  .v.h.h.8XjXjX7Xg.K.S.l.} }  ...K $ . i N /.(.`.O.h B _./.`./.",
").oX}.`./.+X@XZ N `.=.B a O.Z w X - ,.T.5X:X2.b.dXmXjXtXM.7.5.e. .c.R.H.F.3XvXbX8Xg.H.B.l.} } ..c.! $ X e O._.M B M oX=.XX`. XO.",
"/..X|.oX(.:.-.*.v Z C -.B `.O.u   $ Q W.pXiXX.*XfXmXtXA.B.M.9.q.M.S.E.F.p.3XbXMX9Xg.K.V.u.) 2.q.f.Q $ + y o./.Z ).*.b m (.(.(.Z ",
"M ;.oX*.|.}.|.Z  X@.m Z B B (.c < ; G ;XnXNX-Xx.iXpX1Xs.L.B.e.e.N.W.R.V.E.qXgXuX3Xh.B.M.e.6.6.2.,.H : < a O.O./.(.C N /.(.|./.Z ",
"Z ).#X/.*.:.XX}.|.(.(.B Z (.Z *.x w 7 l BXmX8Xu.M.Z.N.H.I.B.| | M.L.G.4XaXgXqXE.I.B.l.X.| ..l.! 8 5 w a M oX/.Z B g Z Z O.M /._.",
"O.].Z .X X;.:.+X(.(.|.m C Z (.A V i   4 rXaXwXi.( 3.M.!.W.M.l.l.Z.F.p.3XnXMX3Xa.H.B. ._ _ l.c.[ @ O b (.-./.O._.=.N /.b Z O.+._.",
"_.)._.B }. XoX(.N a Z n V M C n z i + * k.2XW.M.] ` C.Q.I.B.M.Z.R.h.p.4XMXnX3Xp.H.A.t./ / y.f.~ #   s m *.M m |._.*.|.}.*.=.Z h ",
"C +.(.=._.`.(.O.Z /.O._.$X*.y =.m x , 5 G ,.C.S.b.x.z.C.R.I.W.I.P.R.1XtXgXaX4XN.B.M.u.6.e.0.,.H 5 , c B V :.Z m B f _.(.Z _.=.).",
"'.+.-. XoX|.M `.=.(.o.@.oX/.N m m c p t : 0 n.Q.E.z.0.u.N.!.!.L.g.3XgXzXtXR.P.S.l.X.} ....K 6 : q d B v M b (.*.h C B B -.(.Z -.",
"Z _._.`.(.).M (.).[.).`.B N m C C M B p o . <.T.T.C.u.y.f.B.B.f.g.3XhXgX1Xa.H.S. ._ } ..l.[ @ X y /.a d O.(.=.M h *.N B `.`._.O.",
"N Z oX'.OX X(.).`._././.B O.Z _.O.B Z e   # Q G.L.C.C.f.y.7.7.y.h.1X7X4XA.G.I.B.e./ / t.f.~ # X p /.O.a N O.C M Z Z -.n |.O.Z (.",
"N M (.-.:.(. X*.-.O.o.`.`.-./.*.N N (.s 2 5 H ,.N.^.~.S.u.4.6.f.B.K.F.F.P.R.V.h.y.w.q.q.,.H 5 2 p o.M m m Z O.B Z m m b V =.*.|.",
"Z oXZ O.|.O.(._._.g (.`.XX/._.*.N d N B p t $ 0 D.6X!.C.C.f.f.D.C.N.U.K.I.V.u.9.w.y.u.{ 6 - w o.m Z *.Z (.V m B C C b m N _.-. X",
")..X-.`.|.O.B A '.B C *./.).`.(.B Z N B /.i 1 > P m.N.U.W.!.W.W.W.R.A.S.A.B.t./ ~ ~ { F o < C M f a XX(.A o.C m x B M O.*.`.$X#X",
"`./.`.Z O.O./.B #.g B -.O.;.|.(.(.B x C V N V q ; 0 2.U.T.~.~.Q.Q.I.v.c.c.c.l.{ 6 $ % % 9 k O.B ).a C }.v A C (.A m d h /././.M ",
"#.M ).*.B Z |./.@.g ).(.-.|.=.+.c z z r *.*.m z < @ G 1.<.j.j.j.n.k.R L L [ ! J * O o < p z C N N Z p m C B d (.@.Z *.C /.*.O.+.",
"(.).m }.Z O.).B B B '.).m N (.*.).).V i C @.@.B r q # $ ; ; ; ; ; - % @ & & % * q u i u B Z Z b Z XXB +./.*.B (.A B *.(.).Z /.'.",
" X(.).M M O.+.O.*./.+. X/.m -.:.C V x k y C A g a b < X . . . . o o = = = o . < b =._.M B V d *.|.B *.@.(.(.C -.B =.(./.O.h O.`.",
"Z +.#X'./.#XO.m m M U ).B B Z (.C C V z s V N N z (.d r s e i y y e b a s y e a *.Z /.g (.C B *.N C /.'.Z +.(._.}.*.).Z h `.#.A ",
"O.(.).[.)./.O.O.U f ).#.`.(.B V N B _.-.A c V b v m oX(._.Z M `.*.@.(.B p d N /.(.'.'.N /./.M m m (._.A m Z M (.@.B +.O.B [.O. X",
"/.`.(.(.O.B m (.O.$..X@.[.`.M Z h #.).m ).(.N b *.A  X-.Z -.).B m _.(.(.m o.(.B O. X*./.O.B /.M v O.}.m (.`.C Z o.(.(.O.+.[.B /.",
").|.).`.'.(.@.|.@..X`./.(.]._./.O.`.#.Z O.O.V (._.*.(.O.oX:.`.O.*./.A m /.#.M /.).(.d O.O.Z oX_.m *.>.m O.=.Z ).'.).O.O.].M .X/.",
"*.`.*.`.(.+X].Z O.Z +.N `.).(.).).*.)./.(._.B (.(.}.(.C XX_./.O.h B ).U h '.O.O.+.v @.#.(.|.(.[.Z /.m V A N O.#.).).'.).O.)..X*.",
"*.B (._.Z `.O.].o.A *.B B g *.d O.).+.). X-.*./.B ;.Z V -.*.`.h b /.`.B B (.`.(.@.M #.(.Z }.(.].O.Z (.*.(.V _.O.`.).].#X[.#.`.oX",
"`.).[.O.). X|. XM d d (.O.Z O.g N B ).h +.B (.C =.|.=. XN [.B +.*.+.).h M O.O.B }.#.(.#.+.O.`.'.O.*.`.V b h |. X.X+.B [.@.@.@X.X",
"O..X).O.`.*.=.N :.B +.`.h `.O.Z /._.`.O.*.N Z (.:.|.(.`.(.*.B `.*._._.O.o.+.).).}.|.OX X[.#.].'.O.*.XXn m  XXX*.).'.Z *.}..XZ  X",
"O.#.m (.(._.m -.`.).O.(./.*./.)./.-./.O.=.O.O.(.*.oX).;.|.*.(.oX(.(.O.M m (.].).(.).)..XU O.+.N O.(.N B ).#.C _.=.O..X`..X;.M o.",
"@.m /.m N m m *.B /.N (.`.B ).)._.|.(.-.@X@.(.|.N (.|.=.(.=.*.*.B +.O.O.M ).(.).#.o.%XO.O.o.Z *.Z oXU B m B _./.(.|.*.#.A o.#..X",
"(.@.o.). XB B Z M M #X`.(.#.U M O.`. XA (.+X@X|.*.=.}.(.`._.*.oX`.).(.C M #.#.#.].#. X/./.(.g M B  X#.O.B Z (.*.(.B @.O.o.A (._.",
"#.@./.(.N `.+.O.).(._.O.d `.O.(.O.*._.`.OXXX(.oX*.:././.`.=./..XXX_.#.m B ).{._.$Xo./._.).`./.O.`.`.(.(.Z (.@.+.Z Z +.O.).#.A @."
};
