/* XPM */
static char *collectible_8[] = {
/* columns rows colors chars-per-pixel */
"8 8 63 1 ",
"  c #7D5924",
". c #7C5E28",
"X c #7F642A",
"o c #726934",
"O c #7D6B30",
"+ c #726C3D",
"@ c #7E6A3A",
"# c #7A7033",
"$ c #6C6C40",
"% c #6C7140",
"& c #757342",
"* c #717444",
"= c #737545",
"- c #767444",
"; c #797846",
": c #797B4A",
"> c #7C7B48",
", c #7B7E4B",
"< c #7E7C49",
"1 c #7D7F4A",
"2 c #787F4E",
"3 c #B56A19",
"4 c #8D6F21",
"5 c #8D772E",
"6 c #9F7E3D",
"7 c #807E49",
"8 c #807F49",
"9 c #827E48",
"0 c #837F48",
"q c #7F804D",
"w c #7E854F",
"e c #7F8450",
"r c #7F8852",
"t c #FE9A1E",
"y c #F3AE1F",
"u c #C49A3B",
"i c #F79F2E",
"p c #FFB028",
"a c #838049",
"s c #80814A",
"d c #83814A",
"f c #83824B",
"g c #848148",
"h c #848049",
"j c #848149",
"k c #858149",
"l c #84814A",
"z c #86834B",
"x c #84844B",
"c c #81834C",
"v c #85854C",
"b c #84844D",
"n c #88854C",
"m c #8B894D",
"M c #88884F",
"N c #B9985B",
"B c #CC8F57",
"V c #FFB749",
"C c #F3B450",
"Z c #FABC6D",
"A c #FFC241",
"S c #FAC04D",
"D c #FFE19A",
/* pixels */
"<7c2-fjj",
";>&56@jj",
"j:4pDBob",
"m*utCZ e",
"M+NVSiXw",
"v,OyA3$<",
"fa=#X+qa",
"faxwqnqj"
};
