/* XPM */
static char *Dirt_19_128x128_32[] = {
/* columns rows colors chars-per-pixel */
"32 32 29 1 ",
"  c #64653F",
". c #656540",
"X c #6D6D43",
"o c #756F41",
"O c #6F7245",
"+ c #747445",
"@ c #7A7644",
"# c #767947",
"$ c #7C7A46",
"% c #757649",
"& c #767A49",
"* c #7C7D49",
"= c #827C46",
"- c #827F48",
"; c #897F48",
": c #7E824C",
"> c #7E884E",
", c #7F8350",
"< c #858047",
"1 c #8C8047",
"2 c #83834B",
"3 c #8A844B",
"4 c #85894E",
"5 c #8A894E",
"6 c #878751",
"7 c #848B51",
"8 c #898C52",
"9 c #869055",
"0 c #899156",
/* pixels */
"3$=*@=262=>>:2>-=$--==22=;2222==",
"2=-&6-*2:4*&$694-==<2$$2==$225==",
"*$$**$$2<*+*:7,4;=2=2<=2=$32<<=2",
"2$$**@*3$##:7,,:-=;333;3=;3$2525",
"$*%$-*$-332<2622;=;232213;3132*@",
"-*$o*%@-3@=<:>2*-;233<2;;-25<<==",
":$o@%%%-##&*2:**23$;523=3=;----=",
"-$%$@o%*2#:&&:*22-@51;=22--2*3$$",
"%$$*=+:5< 2=*&*$$+#52<#<-=;:5<<*",
"$22-=$$2:X#2$X&*$$+22$$$26<=4:$$",
"22--2523$++:&$*44:@2<==;32222<<2",
"235222=2<:#$*+*22$2<22=$$27-:@:2",
"25584;-22$$2oO*$:>2=22@*>&XO$42<",
"25482222475*&+X*222*$22$+O$:$033",
"32222:97>,42:+O>24:<2*$#$*2&970<",
"33==24::2>2:$&*22222$+##:=27>24<",
"$;2*::22:&:<22=2$:$2&+X@o==-22*:",
":2874:$$$$:=*222:#*=&OO*$$=2-$52",
"28>>$$;2$=<#:;-22#22-2**++=-*$22",
"<5494&*$#$ @##*:$-2>,6*O+*22*$$2",
"<272$::##O+<XXX+$:-$O+&&#*&:*2>:",
"-76=53:#$+&#O  O%-2:*+*%@@$$@$2:",
"*274<3::$*2&OOO$*$3$22$$;#$$*+:2",
"422<@:42$$&:6&X#$=3$2$O-@:$#+#:5",
"22:;@:22$X**:$&:2222*%O*$+@$$$2;",
"2==<$3#::.+$+#+2$72$*$%*>-:*:2==",
"253@ <<$&#O++2$$=4+@22$@$2$22;=2",
"33<*535:<2=$:2722$=-2=--$$*-;=;2",
"2243;=;$=32:::42$<=2==25-*$22138",
"5342===$=2$$72222<=265;;2&$72356",
"=$:#<2<<4:22,7222==;55=$,$-225--",
"--2=$2<=2497>2245$=11-3$5-$--==-"
};
