/* XPM */
static char *Wall_with_dirt_8[] = {
/* columns rows colors chars-per-pixel */
"8 8 50 1 ",
"  c #743E46",
". c #774146",
"X c #774346",
"o c #784146",
"O c #784246",
"+ c #784346",
"@ c #7A4447",
"# c #744B44",
"$ c #754D45",
"% c #764F45",
"& c #784F45",
"* c #824C48",
"= c #854F49",
"- c #875249",
"; c #875349",
": c #885249",
"> c #885349",
", c #895549",
"< c #AB6258",
"1 c #AE6459",
"2 c #AF6559",
"3 c #AF6659",
"4 c #B06659",
"5 c #B16859",
"6 c #B26859",
"7 c #B96F5A",
"8 c #BC725B",
"9 c #BC725C",
"0 c #C3795D",
"q c #C27A5C",
"w c #C37A5D",
"e c #C57A5D",
"r c #CE855E",
"t c #CE855F",
"y c #D2885F",
"u c #D18860",
"i c #D58B60",
"p c #D58D60",
"a c #DC9361",
"s c #DD9361",
"d c #DD9461",
"f c #DE9562",
"g c #E79F64",
"h c #E8A063",
"j c #E9A163",
"k c #E8A064",
"l c #E9A164",
"z c #EAA164",
"x c #EAA264",
"c c #ECA564",
/* pixels */
"%=:;;::&",
"=cjlgjp@",
";ge8wy1o",
";l87rf1o",
";jqrff1@",
",jyafy5X",
"*q3335<@",
"# .@XX.$"
};
