/* XPM */
static char *enemy_left[] = {
/* columns rows colors chars-per-pixel */
"8 8 59 1 ",
"  c #5C5A3E",
". c #605F3D",
"X c #313746",
"o c #313E5E",
"O c #323E5E",
"+ c #3F4248",
"@ c #3C4559",
"# c #3F4559",
"$ c #3F4659",
"% c #3C475A",
"& c #3B4766",
"* c #3B4866",
"= c #404449",
"- c #484D48",
"; c #4D4F4B",
": c #4B4C4D",
"> c #4D5149",
", c #4F504B",
"< c #4D534B",
"1 c #4E534B",
"2 c #4D5448",
"3 c #4F5448",
"4 c #4C534E",
"5 c #4F554F",
"6 c #535747",
"7 c #565947",
"8 c #5B5E41",
"9 c #4B515C",
"0 c #56585B",
"q c #57585B",
"w c #606340",
"e c #6D6C44",
"r c #6C6C45",
"t c #626548",
"y c #676A4A",
"u c #696B4F",
"i c #6D6C4E",
"p c #7D7B44",
"a c #404D6D",
"s c #475267",
"d c #475268",
"f c #596174",
"g c #676C7B",
"h c #686D7B",
"j c #838047",
"k c #848245",
"l c #858346",
"z c #878246",
"x c #868247",
"c c #888347",
"v c #818248",
"b c #858548",
"n c #868749",
"m c #87854B",
"M c #898548",
"N c #898748",
"B c #8B874C",
"V c #88884A",
"C c #88894C",
/* pixels */
"MzznnvzB",
"7>>42tue",
"@o&a@hfX",
" >0+d9:.",
"8;0=s9:w",
"@o*a@gfX",
"6->52yie",
"jpzMVCcn"
};
