/* XPM */
static char *enemy_down[] = {
/* columns rows colors chars-per-pixel */
"8 8 59 1 ",
"  c #5C5A3D",
". c #605F3D",
"X c #313746",
"o c #313D5E",
"O c #323E5E",
"+ c #3F4348",
"@ c #3B4559",
"# c #3F4659",
"$ c #3F455A",
"% c #3C475A",
"& c #3B4766",
"* c #3B4866",
"= c #404449",
"- c #484C48",
"; c #4D4F4B",
": c #4B4C4D",
"> c #4C5149",
", c #4F504B",
"< c #4E534B",
"1 c #4D5448",
"2 c #4F5448",
"3 c #4B534E",
"4 c #4F554F",
"5 c #535747",
"6 c #565947",
"7 c #5B5E42",
"8 c #4B515C",
"9 c #56585B",
"0 c #57585B",
"q c #606340",
"w c #6D6C44",
"e c #6C6C45",
"r c #626448",
"t c #676A4A",
"y c #696B4E",
"u c #6C6C4E",
"i c #7D7B44",
"p c #404D6D",
"a c #475267",
"s c #475268",
"d c #596074",
"f c #596174",
"g c #676C7B",
"h c #686D7B",
"j c #838047",
"k c #848246",
"l c #858246",
"z c #878246",
"x c #868247",
"c c #888447",
"v c #818248",
"b c #858548",
"n c #868649",
"m c #87854B",
"M c #898548",
"N c #898748",
"B c #8B874C",
"V c #88884A",
"C c #88894C",
/* pixels */
"BeX.qXeb",
"xyd::duc",
"vrh88gtC",
"b2$sa$2V",
"b3p+=p4M",
"x<&99*<x",
"x<o<;o-i",
"M6@ 7$5j"
};
