/* XPM */
static char *number6_16_16[] = {
/* columns rows colors chars-per-pixel */
"16 16 238 2 ",
"   c #6D6E44",
".  c #777546",
"X  c #7B7A47",
"o  c #7B7B47",
"O  c #7D7A46",
"+  c #7D7B46",
"@  c #7C7C47",
"#  c #7F7F47",
"$  c #757049",
"%  c #74734B",
"&  c #72774F",
"*  c #74794E",
"=  c #7C7B48",
"-  c #7D7B48",
";  c #7C7B49",
":  c #7C7D49",
">  c #7E7C48",
",  c #7E7D48",
"<  c #7F7D49",
"1  c #7D7E48",
"2  c #7E7E48",
"3  c #7C7D4B",
"4  c #7E7E4A",
"5  c #7A7F4C",
"6  c #7E7E4C",
"7  c #6F735F",
"8  c #777F57",
"9  c #797851",
"0  c #7F7D53",
"q  c #797856",
"w  c #7C7B55",
"e  c #7A7B59",
"r  c #7A7C59",
"t  c #676D61",
"y  c #807C47",
"u  c #837C46",
"i  c #837E47",
"p  c #807C48",
"a  c #807D48",
"s  c #817E48",
"d  c #807F49",
"f  c #817F49",
"g  c #827E48",
"h  c #817D4B",
"j  c #847F48",
"k  c #847E49",
"l  c #827D51",
"z  c #807D52",
"x  c #7D8155",
"c  c #7D8264",
"v  c #808049",
"b  c #818049",
"n  c #828048",
"m  c #838149",
"M  c #81814A",
"N  c #83824B",
"B  c #83834B",
"V  c #848149",
"C  c #868049",
"Z  c #858249",
"A  c #85814A",
"S  c #85824A",
"D  c #85834A",
"F  c #84834B",
"G  c #83844B",
"H  c #83854B",
"J  c #86844B",
"K  c #87854B",
"L  c #82824C",
"P  c #84844C",
"I  c #8A854B",
"U  c #88834D",
"Y  c #8A824D",
"T  c #8A824F",
"R  c #89864C",
"E  c #89864F",
"W  c #9B8E4F",
"Q  c #9B8F4F",
"!  c #828052",
"~  c #848150",
"^  c #868052",
"/  c #868256",
"(  c #88865A",
")  c #8A855D",
"_  c #89895A",
"`  c #958B50",
"'  c #908856",
"]  c #948D5B",
"[  c #9E9152",
"{  c #9A9254",
"}  c #9B925D",
"|  c #9C925F",
" . c #9F955E",
".. c #B39E41",
"X. c #B19F4B",
"o. c #A19452",
"O. c #A19453",
"+. c #A79953",
"@. c #AA9C57",
"#. c #A4995E",
"$. c #AA9D5A",
"%. c #AB9E5B",
"&. c #A89C5E",
"*. c #B8A24B",
"=. c #AEA15A",
"-. c #B2A152",
";. c #B1A257",
":. c #BDAB52",
">. c #B8A855",
",. c #B4A359",
"<. c #BEAA58",
"1. c #BEAC59",
"2. c #828462",
"3. c #838563",
"4. c #808662",
"5. c #8E8560",
"6. c #8C8760",
"7. c #8D8663",
"8. c #888664",
"9. c #878863",
"0. c #888869",
"q. c #8C8B68",
"w. c #8C8A6C",
"e. c #928C63",
"r. c #918C67",
"t. c #948E64",
"y. c #959167",
"u. c #B8AA66",
"i. c #C9B14D",
"p. c #CFB74F",
"a. c #C1AE57",
"s. c #C7B156",
"d. c #C6B358",
"f. c #C5B25A",
"g. c #CDB55D",
"h. c #CAB85C",
"j. c #D3BC58",
"k. c #D4BD58",
"l. c #D4BE5B",
"z. c #CBB860",
"x. c #CEB960",
"c. c #C2B168",
"v. c #D0BB67",
"b. c #D0BD66",
"n. c #DCC04A",
"m. c #F5D54A",
"M. c #ECD055",
"N. c #EDD057",
"B. c #F2D455",
"V. c #F1D65B",
"C. c #DBC464",
"Z. c #E5CD64",
"A. c #E5CE68",
"S. c #F2D763",
"D. c #F3D763",
"F. c #F5D960",
"G. c #F3D964",
"H. c #F8DD69",
"J. c #ECD676",
"K. c #E8D57D",
"L. c #FCE06A",
"P. c #FFE974",
"I. c #EEDC8F",
"U. c #FDE681",
"Y. c #FFEB80",
"T. c #FFE884",
"R. c #FFEA8B",
"E. c #FFEF8F",
"W. c #F3E294",
"Q. c #FEED91",
"!. c #FFEC94",
"~. c #FFEF97",
"^. c #F4E49B",
"/. c #F5E59C",
"(. c #FEEF9E",
"). c #FFF692",
"_. c #FFF19B",
"`. c #FFF39B",
"'. c #FFF49C",
"]. c #F7E8A0",
"[. c #F9E9A1",
"{. c #FFEFA9",
"}. c #FDEEAD",
"|. c #FFF5A1",
" X c #FFF2A9",
".X c #FFF0AA",
"XX c #FFF7AC",
"oX c #FAEEBF",
"OX c #FFF9B1",
"+X c #FFF5B8",
"@X c #FEF9BF",
"#X c #FFF8C2",
"$X c #FFFAC5",
"%X c #FEFEC7",
"&X c #FDF4CD",
"*X c #FFFAC9",
"=X c #FEF9CC",
"-X c #FFF9CE",
";X c #FFFFD1",
":X c #FFFFD4",
">X c #FFFFD6",
",X c #FEF9DC",
"<X c #FEFBE0",
"1X c #FFFEE2",
"2X c #FFFFE2",
"3X c #FDFDE5",
"4X c #FFFFE4",
"5X c #FEFCE7",
"6X c #FFFFE7",
"7X c #FFFBEA",
"8X c #FEFDE9",
"9X c #FDFDEB",
"0X c #FCFCEE",
"qX c #FFFFEE",
"wX c #FFFFF3",
"eX c #FEFEF4",
"rX c #FFFFF6",
"tX c #FEFFF8",
"yX c #FFFFF8",
"uX c #FEFEF9",
"iX c #FDFCFB",
"pX c #FEFEFB",
"aX c #FAFEFE",
"sX c #FBFFFE",
"dX c #FDFDFC",
"fX c #FDFDFD",
"gX c #FEFDFD",
"hX c #FDFEFD",
"jX c #FEFEFD",
"kX c #FFFFFD",
"lX c #FCFEFE",
"zX c #FCFFFE",
"xX c #FCFEFF",
"cX c #FEFEFE",
"vX c #FFFEFE",
"bX c #FEFFFE",
"nX c #FFFFFE",
"mX c white",
/* pixels */
"g > > P B 5 8 _ Q -.a.g.j.c.9.u ",
"> > ; g r { h.K.{.#X1XwX8XM.8.Z ",
": X ; 6.k.'.3XlXlX1X$XoX].V.q.y ",
"; . t.G.:XlXyX_.C.,.Q Y Y ) z g ",
"o w.D.3XsX,XZ.] 7 9 Z O Z Z H > ",
"3.s.@XlXyXm.*.u.f.s.:.o.) L # B ",
"t.S.lXlXlX&X=XqXrXwX;XXXJ.=.c R ",
"#.T.lXlX7X}.[././..X5XsXsX).1.( ",
"%.Q.lXlX~.../ U ~ ' n.=XlXlXL.y.",
"&.R.lXlX|.$.X g # x y.P.lXlX(.;.",
"t.H.lXlX*Xi.t   # g +.Q.lXlXQ.@.",
"c p.%XsXyXU.*.z k O.N.1XlX0XB.w.",
"Z 7.F.:XlXlX+XW.I..XrXlX8XP.#.0 ",
"J h 5.l._.:XlXlXlXlX1XOXZ.t.w j ",
"F U g q ` >.h.b.b.b.<.[ e 6 I E ",
"g > B g F x & * $ $ z g g g Z j "
};
