/* XPM */
static char *number3_16_16[] = {
/* columns rows colors chars-per-pixel */
"16 16 227 2 ",
"   c #6A6B42",
".  c #6D6E44",
"X  c #6E6C46",
"o  c #6E6E47",
"O  c #777247",
"+  c #747646",
"@  c #787947",
"#  c #797947",
"$  c #787A47",
"%  c #7B7B47",
"&  c #727249",
"*  c #76734B",
"=  c #75774D",
"-  c #76764E",
";  c #7A774E",
":  c #7A7A48",
">  c #7C7A49",
",  c #7B7D49",
"<  c #7D7D48",
"1  c #7D7E48",
"2  c #7F7E48",
"3  c #7E7E4A",
"4  c #7D7B4E",
"5  c #7B7E4F",
"6  c #757651",
"7  c #737754",
"8  c #777951",
"9  c #7C7B53",
"0  c #7A7D50",
"q  c #7B7D52",
"w  c #797B54",
"e  c #7F7C57",
"r  c #72745F",
"t  c #79795A",
"y  c #797C5B",
"u  c #7B7D5D",
"i  c #807C47",
"p  c #837C46",
"a  c #827D48",
"s  c #817E48",
"d  c #807F49",
"f  c #817F49",
"g  c #827E48",
"h  c #847E49",
"j  c #807B50",
"k  c #827F55",
"l  c #837F55",
"z  c #807D5E",
"x  c #807F63",
"c  c #7E804A",
"v  c #7E814C",
"b  c #7F8353",
"n  c #7E8054",
"m  c #7C8157",
"M  c #7F866B",
"N  c #808049",
"B  c #838149",
"V  c #83814A",
"C  c #81834B",
"Z  c #83824A",
"A  c #83834B",
"S  c #858149",
"D  c #868049",
"F  c #848349",
"G  c #858349",
"H  c #84834B",
"J  c #86824A",
"K  c #85844B",
"L  c #87844A",
"P  c #80834C",
"I  c #86814E",
"U  c #83844C",
"Y  c #85854D",
"T  c #86854C",
"R  c #87864C",
"E  c #86874E",
"W  c #8A844B",
"Q  c #8A854B",
"!  c #8A874B",
"~  c #8C8549",
"^  c #8E864A",
"/  c #88834E",
"(  c #89864F",
")  c #948D4F",
"_  c #878155",
"`  c #898552",
"'  c #838A51",
"]  c #898B50",
"[  c #808159",
"{  c #88855A",
"}  c #88865C",
"|  c #8A875E",
" . c #908A51",
".. c #938B55",
"X. c #989050",
"o. c #9A9053",
"O. c #9F9557",
"+. c #9C9159",
"@. c #9E945C",
"#. c #AA9B51",
"$. c #AD9B52",
"%. c #AD9E55",
"&. c #AF9E55",
"*. c #A29658",
"=. c #AD9F5B",
"-. c #B4A34F",
";. c #ABA05F",
":. c #B5A357",
">. c #B8A655",
",. c #B1A258",
"<. c #B3A558",
"1. c #BAAA59",
"2. c #BBAA5E",
"3. c #828162",
"4. c #848366",
"5. c #828464",
"6. c #858A64",
"7. c #828668",
"8. c #8D8C6C",
"9. c #908B65",
"0. c #989261",
"q. c #999064",
"w. c #9B9364",
"e. c #9F976B",
"r. c #A19866",
"t. c #A49C6C",
"y. c #ADA265",
"u. c #C3AD4D",
"i. c #D9BC47",
"p. c #D9BC4A",
"a. c #C2AE57",
"s. c #C6B155",
"d. c #CFB754",
"f. c #C3B05A",
"g. c #C5B058",
"h. c #C8B358",
"j. c #C8B459",
"k. c #CCB659",
"l. c #CDB75A",
"z. c #CBB55C",
"x. c #CBB65E",
"c. c #CCB85D",
"v. c #C6B363",
"b. c #C5B463",
"n. c #CDB965",
"m. c #D1BC61",
"M. c #D1BE6C",
"N. c #DCC04F",
"B. c #DBC051",
"V. c #DFC455",
"C. c #D8C15E",
"Z. c #E9CD57",
"A. c #E3CA5B",
"S. c #E5CC5B",
"D. c #EED35E",
"F. c #FFE65C",
"G. c #D3C16A",
"H. c #DBC873",
"J. c #DCC976",
"K. c #DCCA78",
"L. c #E5D174",
"P. c #E2D07B",
"I. c #FFEB6D",
"U. c #FEE471",
"Y. c #FFE774",
"T. c #F9E27E",
"R. c #FFEA7B",
"E. c #E1D082",
"W. c #E2D386",
"Q. c #EEDE95",
"!. c #F7E381",
"~. c #F8E389",
"^. c #FCE78A",
"/. c #FFF486",
"(. c #F0E094",
"). c #F1E29E",
"_. c #FEEC99",
"`. c #FFF294",
"'. c #FEF49E",
"]. c #FFF99E",
"[. c #F9E9A2",
"{. c #FEEBA1",
"}. c #FCECA5",
"|. c #FEEFAF",
" X c #FFF9A6",
".X c #FFF1B1",
"XX c #FFF1B3",
"oX c #FFF4B1",
"OX c #FFF5B3",
"+X c #FFF0B4",
"@X c #FFF5B4",
"#X c #FFF7B4",
"$X c #FFFDB3",
"%X c #FFF8B9",
"&X c #FEF8BA",
"*X c #FFFDB9",
"=X c #FFF6C6",
"-X c #FFFFC3",
";X c #FEF8C9",
":X c #FFF8C9",
">X c #FFF8CB",
",X c #FFFECA",
"<X c #FFFACF",
"1X c #FFFFD6",
"2X c #FEFADE",
"3X c #FFFEDD",
"4X c #FFFEE4",
"5X c #FFFFE8",
"6X c #FFFFEA",
"7X c #FFFFED",
"8X c #FEFEF3",
"9X c #FEFEF4",
"0X c #FFFFF5",
"qX c #FFFEF6",
"wX c #FFFFFA",
"eX c #FEFEFB",
"rX c #FDFDFC",
"tX c #FDFDFD",
"yX c #FEFEFC",
"uX c #FFFFFC",
"iX c #FEFEFD",
"pX c #FDFEFE",
"aX c #FCFFFE",
"sX c #FDFEFF",
"dX c #FEFEFE",
"fX c #FEFFFF",
"gX c white",
/* pixels */
"g > k X.=.a.c.n.z.g.,...e A B p ",
"3.2.L.}.:X6XqXwXqX3X#X^.d.9.F F ",
"u >./.tX1X@X.X.X&X7XtXtX,XD.8.2 ",
"% r k.C.&.~ W ~ o.B.=XtXwX'.:.9 ",
"< g t w @ : % , , +.R.tXaX&Xu.t ",
"L A U J } ` (  .O.B.>XtX8XI.0.A ",
"R ] L 5.z.!.).[.OX4XtX.XS.q.m Q ",
"J A v 7.p.-XtXtXtXtXtX{.A.;.6.U ",
"A U c [ y.s.v.l.G.~.<XtXtX].j.7.",
"R ' c 2 & . . & 6 { i.:XtXtXY.r.",
"A R A % + :   . < A $.`.tXwX_.,.",
"n t.-.) _ n w * _ *.Z.2XtXtXU.w.",
"5.V.$X+X(.W.P.W.Q.OX8XtXtX Xj.3.",
"e.F.6XtXtXtXtXtXtXtX6X*XT.1.u J ",
"| @.<.b.G.K.K.K.H.m.g.#.k 7 W ` ",
"p 2 4 * - 0 0 0 ; * 9 g g A J h "
};
