/* XPM */
static char *number1_16_16[] = {
/* columns rows colors chars-per-pixel */
"16 16 199 2 ",
"   c #6A6B42",
".  c #727445",
"X  c #727446",
"o  c #747646",
"O  c #767746",
"+  c #787644",
"@  c #787746",
"#  c #7B7946",
"$  c #797B46",
"%  c #787A47",
"&  c #7B7A47",
"*  c #7C7C47",
"=  c #7F7C46",
"-  c #73704A",
";  c #72714A",
":  c #747748",
">  c #77774B",
",  c #70724C",
"<  c #7A774E",
"1  c #7A7B48",
"2  c #7B7B4A",
"3  c #7C7848",
"4  c #7B7D49",
"5  c #7C7C48",
"6  c #7E7C48",
"7  c #7E7C49",
"8  c #7E7D49",
"9  c #7D7E48",
"0  c #7C7E49",
"q  c #7E7E48",
"w  c #7C7D4A",
"e  c #7D7E4A",
"r  c #7D7F4A",
"t  c #7F7F4A",
"y  c #78784E",
"u  c #7A7F4C",
"i  c #6F735F",
"p  c #767251",
"a  c #737553",
"s  c #757850",
"d  c #757956",
"f  c #7B7A55",
"g  c #787956",
"h  c #73785F",
"j  c #797C5A",
"k  c #727860",
"l  c #7A7D62",
"z  c #817D47",
"x  c #817E47",
"c  c #807D48",
"v  c #817E48",
"b  c #807E49",
"n  c #827E48",
"m  c #837F48",
"M  c #847F48",
"N  c #867E48",
"B  c #807F59",
"V  c #807F5B",
"C  c #7C804C",
"Z  c #7E814C",
"A  c #7E834D",
"S  c #7F805B",
"D  c #7B8063",
"F  c #7F8466",
"G  c #7B806A",
"H  c #F2CE3B",
"J  c #F0CC3C",
"K  c #F0CD3D",
"L  c #F8D336",
"P  c #FBD536",
"I  c #828048",
"U  c #828049",
"Y  c #838149",
"T  c #81804B",
"R  c #83814A",
"E  c #82824A",
"W  c #83824A",
"Q  c #82834B",
"!  c #83834B",
"~  c #858048",
"^  c #85814A",
"/  c #86824A",
"(  c #83844B",
")  c #87844A",
"_  c #86844B",
"`  c #87854B",
"'  c #80834C",
"]  c #82844C",
"[  c #83844C",
"{  c #82844D",
"}  c #83864C",
"|  c #81854E",
" . c #82864E",
".. c #83874F",
"X. c #84844C",
"o. c #85844C",
"O. c #86864D",
"+. c #87864D",
"@. c #86874E",
"#. c #84884F",
"$. c #9B904E",
"%. c #818650",
"&. c #828850",
"*. c #838A51",
"=. c #898B50",
"-. c #81845B",
";. c #8E875A",
":. c #898A5E",
">. c #918850",
",. c #A19754",
"<. c #AD9C5A",
"1. c #AFA058",
"2. c #BAA753",
"3. c #B1A15D",
"4. c #B2A15D",
"5. c #B2A15E",
"6. c #B3A35F",
"7. c #B5A35D",
"8. c #B9A758",
"9. c #808263",
"0. c #828364",
"q. c #818169",
"w. c #888978",
"e. c #959277",
"r. c #96937E",
"t. c #989479",
"y. c #99947A",
"u. c #99957B",
"i. c #9A957B",
"p. c #99967B",
"a. c #9A967B",
"s. c #9A967C",
"d. c #9B977C",
"f. c #9B977D",
"g. c #9C967C",
"h. c #A49A72",
"j. c #AFA164",
"k. c #BCA961",
"l. c #CFB74A",
"z. c #C5AF56",
"x. c #C1AF5E",
"c. c #C8B252",
"v. c #C8B353",
"b. c #C5B35C",
"n. c #C5B25D",
"m. c #CCB75C",
"M. c #C4B161",
"N. c #CFBB61",
"B. c #CDBB66",
"V. c #CFBB66",
"C. c #CEBB67",
"Z. c #CFBC69",
"A. c #E3C54A",
"S. c #FFDF47",
"D. c #E8CD51",
"F. c #E9CF5F",
"G. c #FFE159",
"H. c #FFE959",
"J. c #F1D972",
"K. c #F4DB73",
"L. c #FFE260",
"P. c #FDE162",
"I. c #FFE262",
"U. c #F2DF86",
"Y. c #FFE88D",
"T. c #FFF39D",
"R. c #FFEDA5",
"E. c #FFF6AF",
"W. c #FFFABF",
"Q. c #FFFECD",
"!. c #FFFFD9",
"~. c #FFFFDE",
"^. c LightYellow",
"/. c #FFFFE3",
"(. c #FEFCE7",
"). c #FDFAEA",
"_. c #FEFCE8",
"`. c #FFFFED",
"'. c #FEFEEE",
"]. c #FFFFF2",
"[. c #FDFDF5",
"{. c #FFFFF7",
"}. c #FCFCFB",
"|. c #FCFDFB",
" X c #FFFEFB",
".X c #FFFFFB",
"XX c #FCFBFE",
"oX c #FFFEFC",
"OX c #FFFFFD",
"+X c #FCFDFE",
"@X c #FCFEFE",
"#X c #FCFFFE",
"$X c #FDFFFE",
"%X c #FEFEFE",
"&X c #FEFFFE",
"*X c #FFFFFE",
"=X c #FEFEFF",
"-X c #FEFFFF",
";X c white",
/* pixels */
"n 6 6 O.( C A #.f ;.2.n.M.n.n.e.",
"6 6 2 n 6 d :.,.v.J.E.~./.Q.L p.",
"e g S >.1.m.J.T.!.*X*X*X@X`.K t.",
"w.z.F.R.W.`.}.}.*X*X}.*X*X_.K p.",
"j j.S.[.*X~.E.U.A.Y.*X}.*X_.K p.",
"O.G k.D.Z.8.$.q.<.G.*X}.@X_.H p.",
"O.=.j B s y X h 6.I.*X*X*X_.H d.",
"/ / { &.%.{ $ D 6.I.*X*X*X_.H d.",
"/ { A n Z 6 Q 0.3.G.}.*X*X_.K p.",
"#.&.6 6 $ + 1 9.6.I.*X*X*X_.H i.",
"( O.Q * O $   i 3.G.*X*X*X_.H p.",
"{ { Q ' 6 2 : k 3.I.*X}.*X_.H d.",
"/ z z Q . O 1 l 6.I.}.}.XX_.K y.",
"} N N I 1 $ 6 F 4.H.}.].[.^.P g.",
"} { = z / n { -.h.l.C.C.C.N.c.r.",
"z 6 n / } &.{ { > p < ; ; , a 3 "
};
