/* XPM */
static char *number4_16_16[] = {
/* columns rows colors chars-per-pixel */
"16 16 228 2 ",
"   c #686A46",
".  c #6B6C47",
"X  c #6D6E49",
"o  c #747146",
"O  c #747444",
"+  c #787645",
"@  c #787746",
"#  c #7B7B47",
"$  c #7C7945",
"%  c #7C7946",
"&  c #7D7847",
"*  c #7C7C47",
"=  c #747149",
"-  c #75764B",
";  c #71724F",
":  c #76724F",
">  c #74774C",
",  c #7A774E",
"<  c #7A7B49",
"1  c #7B7B4A",
"2  c #7C7B48",
"3  c #7D7B48",
"4  c #7E7B48",
"5  c #7D794A",
"6  c #7A7C48",
"7  c #7A7C49",
"8  c #7C7C48",
"9  c #7C7D49",
"0  c #7E7C48",
"q  c #7E7D48",
"w  c #7F7D48",
"e  c #7F7D49",
"r  c #7D7E48",
"t  c #7F7F48",
"y  c #7E7E49",
"u  c #7C7D4A",
"i  c #78794C",
"p  c #7A7F4C",
"a  c #717256",
"s  c #777B57",
"d  c #7D7E53",
"f  c #807C47",
"g  c #837D46",
"h  c #807E47",
"j  c #807C48",
"k  c #817E48",
"l  c #827E48",
"z  c #837F48",
"x  c #837F49",
"c  c #807F4A",
"v  c #827F4B",
"b  c #847F48",
"n  c #857F48",
"m  c #847E49",
"M  c #867E48",
"N  c #7E8049",
"B  c #7E834D",
"V  c #7D8557",
"C  c #7F815A",
"Z  c #828048",
"A  c #828049",
"S  c #838149",
"D  c #80824B",
"F  c #83824A",
"G  c #83824B",
"H  c #83834B",
"J  c #868049",
"K  c #84814B",
"L  c #84824A",
"P  c #85834A",
"I  c #84834B",
"U  c #86824A",
"Y  c #83844B",
"T  c #85844A",
"R  c #86844B",
"E  c #87844B",
"W  c #87854B",
"Q  c #81824C",
"!  c #83834C",
"~  c #82844C",
"^  c #81854E",
"/  c #82864F",
"(  c #83874F",
")  c #85854D",
"_  c #84874D",
"`  c #87864C",
"'  c #89844C",
"]  c #8A874D",
"[  c #89864E",
"{  c #84884F",
"}  c #978D4C",
"|  c #808251",
" . c #818450",
".. c #848952",
"X. c #898B50",
"o. c #84805F",
"O. c #8A865A",
"+. c #9A8F51",
"@. c #918B5E",
"#. c #918C5E",
"$. c #AD994B",
"%. c #A79955",
"&. c #AD9F55",
"*. c #A0965E",
"=. c #A59A5D",
"-. c #A49B5F",
";. c #A99A59",
":. c #A99C5A",
">. c #AB9E5D",
",. c #B6A040",
"<. c #ADA15C",
"1. c #B0A056",
"2. c #B0A156",
"3. c #B0A157",
"4. c #B3A356",
"5. c #B3A257",
"6. c #B7A755",
"7. c #B1A259",
"8. c #878762",
"9. c #898560",
"0. c #8D8863",
"q. c #8D8963",
"w. c #8D8D62",
"e. c #8C8864",
"r. c #888769",
"t. c #908E61",
"y. c #928B66",
"u. c #999467",
"i. c #9A9168",
"p. c #9E996C",
"a. c #9D986E",
"s. c #A0996A",
"d. c #A19A6C",
"f. c #B4A663",
"g. c #D5B94B",
"h. c #C7B051",
"j. c #C9B357",
"k. c #C3B05B",
"l. c #C4B25B",
"z. c #C3B05C",
"x. c #C3B05E",
"c. c #C4B15C",
"v. c #C5B35F",
"b. c #C9B55C",
"n. c #CFBD5A",
"m. c #CDB85C",
"M. c #C6B260",
"N. c #C4B162",
"B. c #C6B362",
"V. c #CDBB68",
"C. c #D0BD63",
"Z. c #DDC254",
"A. c #EDCD4A",
"S. c #E9CD55",
"D. c #F5D959",
"F. c #F7DB59",
"G. c #E7D06B",
"H. c #EED66C",
"J. c #F0D560",
"K. c #F2D665",
"L. c #F7DA62",
"P. c #F7DD6E",
"I. c #FDE46B",
"U. c #F9E06C",
"Y. c #FFE86D",
"T. c #FCE170",
"R. c #FBE175",
"E. c #FFE872",
"W. c #F8E07A",
"Q. c #FBE57A",
"!. c #FFE87B",
"~. c #FFE97C",
"^. c #FEE97E",
"/. c #FEED93",
"(. c #FAE99F",
"). c #FFF690",
"_. c #FFF890",
"`. c #FFF09D",
"'. c #FFFA9D",
"]. c #FFFC9D",
"[. c #F2E2A1",
"{. c #F9E7A0",
"}. c #FFEEAA",
"|. c #FEEEAE",
" X c #FCF2A1",
".X c #FFF4A3",
"XX c #FFF4A4",
"oX c #FFF5A5",
"OX c #FDF3A8",
"+X c #F9EAB3",
"@X c #FFF2B3",
"#X c #FDF1C1",
"$X c #FFFCC5",
"%X c #FDFCCF",
"&X c #FEFCDB",
"*X c cornsilk",
"=X c #FFFDDE",
"-X c #FFFAE0",
";X c #FEFCE1",
":X c #FFFFE2",
">X c #FFFFE7",
",X c #FFFFE9",
"<X c #FDFDEA",
"1X c #FEFDEE",
"2X c #FFFDEF",
"3X c #FFFFF3",
"4X c #FEFEF4",
"5X c #FFFFF7",
"6X c #FDFDF9",
"7X c #FFFFF9",
"8X c #FCFCFB",
"9X c #FCFDFB",
"0X c #FFFFFA",
"qX c #FFFFFB",
"wX c #FBFDFD",
"eX c #FDFDFC",
"rX c #FDFDFD",
"tX c #FCFEFD",
"yX c #FEFEFD",
"uX c #FFFEFD",
"iX c #FFFFFD",
"pX c #FCFCFE",
"aX c #FCFFFE",
"sX c #FDFFFE",
"dX c #FEFEFE",
"fX c #FEFFFE",
"gX c #FFFFFE",
"hX c white",
/* pixels */
"l 0 0 ~ ~ p B { q.c.M.M.b.p.S l ",
"0 0 1 l 0 7 V u.G.$X;X<X_.7.P P ",
"0 % 1 4 S d -.Q.1XiXiXwXOX1.P 4 ",
"0 O O 1 s =.^.9X1X;XiXiX.X7.l j ",
"* l % C :.~.iX;XA.K.iXiXXX3.Q 0 ",
"W Y | ;.E.9X&XS.i.H.iXiXXX3.* S ",
"W X.*.I.9X;XD.o.8.T.iXiXXX1. .] ",
"P y.D.<X3XD.e.1 w.W.wXiXXX<...` ",
"r.Z.%XiXU.$.O.} +.L.iXiX(.,.#.w.",
">./.wXiX+X[.}.|.(.#XiXiX*X{.^.f.",
"7.).3X<X9X9X9X5X9XiXiXiXiXiX'.6.",
"a.j.B.v.l.l.x.x.h.W.iXiX@Xg.k.d.",
"4 = o >   . X - o.P.9XwX.X%.a % ",
"R l m S 0 O N Q #.Y.3X5X'.3.M P ",
"P R l * Z S ~ Q q.m.C.V.n.d.' [ ",
"l * P m Y .. .~ 4 : , = ; i S m "
};
