/* XPM */
static char *number9_16_16[] = {
/* columns rows colors chars-per-pixel */
"16 16 238 2 ",
"   c #696A44",
".  c #747646",
"X  c #787A47",
"o  c #74714C",
"O  c #73754C",
"+  c #76794E",
"@  c #787948",
"#  c #7A7A48",
"$  c #7D7B48",
"%  c #7B7D49",
"&  c #7C7D48",
"*  c #7D7D49",
"=  c #7E7C48",
"-  c #7F7D49",
";  c #7D7E48",
":  c #7A7D4F",
">  c #626352",
",  c #717353",
"<  c #777750",
"1  c #747752",
"2  c #727454",
"3  c #7A7651",
"4  c #7B7F52",
"5  c #7F7F51",
"6  c #797D57",
"7  c #7B7F56",
"8  c #7F7D57",
"9  c #73765F",
"0  c #76785D",
"q  c #7E7E5D",
"w  c #7F7F5E",
"e  c #727764",
"r  c #7F7F65",
"t  c #807C47",
"y  c #827C47",
"u  c #847F47",
"i  c #807E48",
"p  c #807F49",
"a  c #827E48",
"s  c #837F48",
"d  c #827F49",
"f  c #847E49",
"g  c #867F48",
"h  c #807951",
"j  c #817D5C",
"k  c #7D805F",
"l  c #7F8063",
"z  c #EAC62F",
"x  c #808049",
"c  c #828049",
"v  c #81804A",
"b  c #80814A",
"n  c #80804B",
"m  c #83814A",
"M  c #81824A",
"N  c #81834B",
"B  c #83824A",
"V  c #83834B",
"C  c #868048",
"Z  c #868049",
"A  c #858349",
"S  c #868349",
"D  c #85814A",
"F  c #84834A",
"G  c #86844B",
"H  c #87854B",
"J  c #81844C",
"K  c #82844C",
"L  c #84874D",
"P  c #86864E",
"I  c #86874E",
"U  c #888349",
"Y  c #8A854B",
"T  c #8D8448",
"R  c #8B864D",
"E  c #89864E",
"W  c #8E884B",
"Q  c #958E49",
"!  c #968D4F",
"~  c #858252",
"^  c #848550",
"/  c #898350",
"(  c #838A51",
")  c #898851",
"_  c #8B8854",
"`  c #81835A",
"'  c #8A8558",
"]  c #8B8558",
"[  c #8A885F",
"{  c #938A56",
"}  c #998F52",
"|  c #999156",
" . c #AF9D44",
".. c #A4994F",
"X. c #A19750",
"o. c #A49854",
"O. c #AB9D52",
"+. c #A49759",
"@. c #A2975C",
"#. c #AC9E5A",
"$. c #A99C5C",
"%. c #AC9E5C",
"&. c #B4A04A",
"*. c #AEA05A",
"=. c #B0A157",
"-. c #B9A654",
";. c #B8A756",
":. c #BAA957",
">. c #BCA957",
",. c #B2A25B",
"<. c #B4A458",
"1. c #828263",
"2. c #848460",
"3. c #848467",
"4. c #838368",
"5. c #938F64",
"6. c #958F65",
"7. c #978F64",
"8. c #918E6E",
"9. c #9D9460",
"0. c #9C9461",
"q. c #9E9666",
"w. c #A59B62",
"e. c #B1A364",
"r. c #B0A265",
"t. c #BEAE60",
"y. c #C9B046",
"u. c #C1AD55",
"i. c #C0AE57",
"p. c #C7B256",
"a. c #C9B250",
"s. c #CFB752",
"d. c #C2B15B",
"f. c #C5B15A",
"g. c #C5B25A",
"h. c #C7B35C",
"j. c #CAB65C",
"k. c #D7BF53",
"l. c #D1BE5B",
"z. c #CDBA63",
"x. c #D1BA61",
"c. c #D1BC61",
"v. c #D0BC65",
"b. c #D1BD67",
"n. c #DCC14D",
"m. c #DFC75D",
"M. c #E2C54C",
"N. c #E6CA51",
"B. c #EBCE54",
"V. c #F3D75B",
"C. c #EED363",
"Z. c #FDDF62",
"A. c #FADF6C",
"S. c #EFD772",
"D. c #E8D375",
"F. c #F7DE78",
"G. c #FFE86B",
"H. c #FDE476",
"J. c #FDE579",
"K. c #FDE57C",
"L. c #EADA8F",
"P. c #EDDE9A",
"I. c #FFE884",
"U. c #F3E189",
"Y. c #FFEC89",
"T. c #FFF083",
"R. c #FFF08D",
"E. c #FFEB90",
"W. c #FFEB92",
"Q. c #FFED95",
"!. c #FFED96",
"~. c #F6E69B",
"^. c #F3E39C",
"/. c #FAE99B",
"(. c #FFF690",
"). c #FFF194",
"_. c #FFF69B",
"`. c #FFF29C",
"'. c #FFF19E",
"]. c #F8E8A5",
"[. c #FEEDA8",
"{. c #FFF0A0",
"}. c #FFF2A6",
"|. c #FFF0AB",
" X c #FFF2AE",
".X c #FFF1B1",
"XX c #FFF8B0",
"oX c #FEF3B8",
"OX c #FFF7BD",
"+X c #FCF2C5",
"@X c #FEF9C1",
"#X c #FEFBC3",
"$X c #FFFBC7",
"%X c #FFFCC4",
"&X c #FFFDC6",
"*X c #FFFFCD",
"=X c #FFFCCE",
"-X c #FFFECE",
";X c #FFF9D4",
":X c #FFFFD8",
">X c #FFFEDB",
",X c #FFFFDC",
"<X c #FFFFDD",
"1X c #FEFEE2",
"2X c #FEFBE4",
"3X c #FFFBE9",
"4X c #FDFDE8",
"5X c #FEFEE8",
"6X c #FFFFEB",
"7X c #FEFEED",
"8X c #FFFFED",
"9X c #FFFFF2",
"0X c #FFFFF3",
"qX c #FFFFF4",
"wX c #FFFDF7",
"eX c #FFFEF8",
"rX c #FFFFF9",
"tX c #FDFDFB",
"yX c #FEFEFA",
"uX c #FEFEFB",
"iX c #FFFFFB",
"pX c #FBFFFE",
"aX c #FBFEFF",
"sX c #FDFDFC",
"dX c #FDFDFD",
"fX c #FEFDFD",
"gX c #FDFEFD",
"hX c #FFFEFC",
"jX c #FFFFFC",
"kX c #FEFEFD",
"lX c #FFFEFD",
"zX c #FFFFFD",
"xX c #FCFEFE",
"cX c #FCFFFE",
"vX c #FDFFFE",
"bX c #FEFEFE",
"nX c #FFFFFE",
"mX c white",
/* pixels */
"d $ = 2.o.d.v.b.c.j.;.} j n A y ",
"= 6 q.N.'.>XsXyXyXqX&XW.k.7.A A ",
"+ q.G.4XsXyX X~./.OXsXsX-XV.8.y ",
"3.B.4XaX2XC.| ~ / &.K.yXaX&Xs.l ",
"@.I.sXsX'.O., % @ e y.@XsXsXG.5.",
"%.W.sXsXR.+.@ n n d w.).sXsX!.$.",
"6.Z.sXsX;XM.{ 5 ) ]  .Y.sXsX[.<.",
"k >.(.yXsX8X XP.L.^.[.7XsXsXQ.=.",
"n k ,.S.XX>XqX8X9X,X+XyXsXsXH.0.",
"L ( 1 8 ! =.>.h.t.e.z 2XsX7XN.3.",
"A I S % . X   > q a.oXsXsXT.%.6 ",
"J ^ [ ) W Q ..h.F.-XsXsX_.p.9 J ",
"S 1.c.U.]..X&X8XyXsX-XK.;.0 & y ",
"E r n.>XsXsX7X&X}.D.u.] , d S S ",
"A ` e.l.z.h.:.X.T h 3 Y & n Y E ",
"d = < o O + 4 L d S T u n n n f "
};
