/* XPM */
static char *number2_16_16[] = {
/* columns rows colors chars-per-pixel */
"16 16 238 2 ",
"   c #727446",
".  c #777746",
"X  c #797746",
"o  c #797947",
"O  c #797A46",
"+  c #7C7B47",
"@  c #7C7C47",
"#  c #72714B",
"$  c #71724A",
"%  c #73724B",
"&  c #74714A",
"*  c #75714A",
"=  c #76714A",
"-  c #74724C",
";  c #71744F",
":  c #73774F",
">  c #74764D",
",  c #79754D",
"<  c #7B774F",
"1  c #777948",
"2  c #777949",
"3  c #75784F",
"4  c #7A7A48",
"5  c #7A7B48",
"6  c #7D7B48",
"7  c #7E7B4A",
"8  c #7B7D49",
"9  c #7D7D48",
"0  c #7D7E49",
"q  c #7E7F4A",
"w  c #78784C",
"e  c #7B794F",
"r  c #747550",
"t  c #727557",
"y  c #747850",
"u  c #777952",
"i  c #797A57",
"p  c #70755A",
"a  c #797F5A",
"s  c #7C7D5B",
"d  c #7A795E",
"f  c #787B5E",
"g  c #7F7F65",
"h  c #807B46",
"j  c #827C47",
"k  c #827E48",
"l  c #837F48",
"z  c #807D5C",
"x  c #7F814A",
"c  c #7E814C",
"v  c #7C8260",
"b  c #7E8266",
"n  c #818048",
"m  c #818148",
"M  c #818149",
"N  c #828049",
"B  c #838149",
"V  c #80804B",
"C  c #83814A",
"Z  c #81834B",
"A  c #83834B",
"S  c #858148",
"D  c #84834A",
"F  c #85834A",
"G  c #84834B",
"H  c #86824A",
"J  c #87844B",
"K  c #80834C",
"L  c #81834D",
"P  c #86804C",
"I  c #84834C",
"U  c #87814F",
"Y  c #83844C",
"T  c #84854D",
"R  c #86854C",
"E  c #87864C",
"W  c #85854E",
"Q  c #86864E",
"!  c #8A834A",
"~  c #89834E",
"^  c #89864C",
"/  c #8A854F",
"(  c #8C854D",
")  c #8F864E",
"_  c #83894F",
"`  c #818650",
"'  c #858155",
"]  c #838A51",
"[  c #848952",
"{  c #888A51",
"}  c #828358",
"|  c #848258",
" . c #86815B",
".. c #918A55",
"X. c #928C55",
"o. c #968E5B",
"O. c #958C5D",
"+. c #9E9455",
"@. c #9E9259",
"#. c #A09553",
"$. c #A09659",
"%. c #A3995D",
"&. c #BDA749",
"*. c #AFA153",
"=. c #AEA05D",
"-. c #B2A353",
";. c #B3A354",
":. c #BAA651",
">. c #BEA951",
",. c #BBAA5A",
"<. c #BEAB58",
"1. c #BFAC5D",
"2. c #838760",
"3. c #868663",
"4. c #808164",
"5. c #828265",
"6. c #888764",
"7. c #898B60",
"8. c #818368",
"9. c #858769",
"0. c #868668",
"q. c #87886B",
"w. c #8B8868",
"e. c #958E63",
"r. c #9E9763",
"t. c #9E9764",
"y. c #9F9766",
"u. c #959278",
"i. c #A39964",
"p. c #A89D6D",
"a. c #B4A567",
"s. c #CFB54B",
"d. c #CAB34E",
"f. c #CCB34D",
"g. c #D0B74F",
"h. c #C4B257",
"j. c #CFB756",
"k. c #CAB65B",
"l. c #CFBA5D",
"z. c #D0BA55",
"x. c #D1B95D",
"c. c #D1BA5F",
"v. c #D1BE5F",
"b. c #CFBB65",
"n. c #CFBB66",
"m. c #CFBC66",
"M. c #CEBC67",
"N. c #CFBB69",
"B. c #D0BC65",
"V. c #D0BC66",
"C. c #D1BD66",
"Z. c #D0BC67",
"A. c #D0BC68",
"S. c #DCC354",
"D. c #EBCB45",
"F. c #E6C94F",
"G. c #E6CA4F",
"H. c #FFDD49",
"J. c #E0C350",
"K. c #E3C959",
"L. c #D7C368",
"P. c #E4CD69",
"I. c #EAD165",
"U. c #F7DE6B",
"Y. c #F0D96F",
"T. c #F8DF71",
"R. c #FFE162",
"E. c #FFE768",
"W. c #FFEA73",
"Q. c #FFEA76",
"!. c #F7E179",
"~. c #EFDB84",
"^. c #E8DA9A",
"/. c #F8E283",
"(. c #FFEA88",
"). c #FFEE8F",
"_. c #F4E394",
"`. c #F4E297",
"'. c #FFEF91",
"]. c #F4E399",
"[. c #F6E59A",
"{. c #F3E39F",
"}. c #FFEF9C",
"|. c #FFF29C",
" X c #FFF99B",
".X c #FFF6A4",
"XX c #FFF2AA",
"oX c #FFF2AE",
"OX c #FFF2AF",
"+X c #FFF8AC",
"@X c #FFF0B0",
"#X c #FFF3B0",
"$X c #FFF8B7",
"%X c #FFFAB7",
"&X c #FFF7B9",
"*X c #FEFAC3",
"=X c #FDFAC9",
"-X c #FFFCCC",
";X c #FFFDCD",
":X c #FEFCCF",
">X c #FFFECF",
",X c #FFFFCF",
"<X c #FEF9D5",
"1X c #FCF6D8",
"2X c #FFFDDE",
"3X c #FEFEE0",
"4X c #FFFFE1",
"5X c #FFFFE7",
"6X c #FFFFE9",
"7X c #FFFFEB",
"8X c #FEFEEE",
"9X c #FEFEF0",
"0X c #FEFEF1",
"qX c #FDFDF3",
"wX c #FFFFF5",
"eX c #FFFFF8",
"rX c #FCFCFB",
"tX c #FDFDFB",
"yX c #FEFEFA",
"uX c #FFFEFA",
"iX c #FEFEFB",
"pX c #FAFDFD",
"aX c #FAFDFE",
"sX c #FBFEFE",
"dX c #FDFDFC",
"fX c #FDFDFD",
"gX c #FDFEFC",
"hX c #FEFEFC",
"jX c #FEFEFD",
"kX c #FFFFFD",
"lX c #FCFCFE",
"zX c #FCFEFE",
"xX c #FCFFFE",
"cX c #FDFFFE",
"vX c #FDFEFF",
"bX c #FEFEFE",
"nX c #FFFFFE",
"mX c white",
/* pixels */
"k 6 i X.-.h.x.C.c.z.<.+.| Y G j ",
"| t.l./.$X5XrXfXrX6X;XXXP.i.} G ",
"u.H.,XrXfX<XoX@X#X2XfXfX8XW.i.6 ",
"u e.T.|.L.*.) ! X.f.#XrXsX-Xj.g ",
"@ e O.#.t , 5 8 O w.R.fXfX6XS.4.",
"J G G S @ O 5 K b &.|.fXfX.Xh.s ",
"E { G G E Z   4.d.'.fXsX*XF.5.^ ",
"G G Z _ c v $.I.$XfXfX$XS.0.[ E ",
"Z Z 0 Z 6.k.'.9XsX2X(.,.d j Z Z ",
"E [ a %.Y.,XfXfX+XK.o.p . Z x j ",
"G 2.=.Q.wXsX9X!.;.f 2 2 O @ 0 x ",
"K r.E.fXfX<XD.@.s ) / U / / |  .",
"4.g.=XsXfX1X~.^._.{.].[.`.{.U.a.",
"q.G.4XwXwXfXfXfXfXfXfXfXfXfX X:.",
"5.1.B.Z.A.C.C.M.C.C.C.C.C.M.z.p.",
"j > & & > : > u & & , & $ $ r , "
};
