/* XPM */
static char *number5_16_16[] = {
/* columns rows colors chars-per-pixel */
"16 16 234 2 ",
"   c #6A6B42",
".  c #6D6E44",
"X  c #747646",
"o  c #787644",
"O  c #7B7946",
"+  c #787A47",
"@  c #7B7A47",
"#  c #7B7B47",
"$  c #7D7B46",
"%  c #7C7C47",
"&  c #757249",
"*  c #74714A",
"=  c #78764A",
"-  c #79764D",
";  c #7A7A48",
":  c #7C7A49",
">  c #7B7D49",
",  c #7C7D49",
"<  c #7E7C48",
"1  c #7E7D48",
"2  c #7F7C49",
"3  c #7E7D49",
"4  c #7F7E48",
"5  c #7D7F4A",
"6  c #7E7E4A",
"7  c #7B7B4F",
"8  c #7E7D4D",
"9  c #737652",
"0  c #777855",
"q  c #797950",
"w  c #787B50",
"e  c #797A51",
"r  c #7A7B52",
"t  c #7B7A53",
"y  c #7D7F52",
"u  c #7C7E53",
"i  c #7C7F55",
"p  c #76775D",
"a  c #7D7B5A",
"s  c #7C7C58",
"d  c #7C7D5F",
"f  c #6B7564",
"g  c #757C70",
"h  c #837E47",
"j  c #817F49",
"k  c #827E48",
"l  c #847E49",
"z  c #807B4E",
"x  c #837F52",
"c  c #817C55",
"v  c #807E59",
"b  c #DABB3D",
"n  c #808047",
"m  c #808049",
"M  c #828048",
"N  c #83814A",
"B  c #83824A",
"V  c #83834B",
"C  c #848149",
"Z  c #868049",
"A  c #878149",
"S  c #858249",
"D  c #87814A",
"F  c #85824A",
"G  c #86824A",
"H  c #83854B",
"J  c #87844A",
"K  c #80814D",
"L  c #85814F",
"P  c #81844D",
"I  c #85854D",
"U  c #87864C",
"Y  c #86864E",
"T  c #898149",
"R  c #8C8249",
"E  c #8E8248",
"W  c #8E8348",
"Q  c #8A854B",
"!  c #89864B",
"~  c #89864F",
"^  c #8D844F",
"/  c #908646",
"(  c #908349",
")  c #968B4E",
"_  c #9D904C",
"`  c #848550",
"'  c #808155",
"]  c #808255",
"[  c #8D8756",
"{  c #838A51",
"}  c #86855B",
"|  c #88865A",
" . c #8D875B",
".. c #8B865C",
"X. c #908A52",
"o. c #928C50",
"O. c #A1944E",
"+. c #A79950",
"@. c #A99D54",
"#. c #A49A5D",
"$. c #A8995A",
"%. c #AB9E59",
"&. c #AB9E5E",
"*. c #B9A54D",
"=. c #BCA74E",
"-. c #B3A352",
";. c #B3A356",
":. c #B4A456",
">. c #BBA752",
",. c #BDAB54",
"<. c #BFAB57",
"1. c #B9A95F",
"2. c #808163",
"3. c #868360",
"4. c #848760",
"5. c #8E8A61",
"6. c #86876A",
"7. c #85886D",
"8. c #8B8969",
"9. c #928F65",
"0. c #908C6C",
"q. c #9C966D",
"w. c #939270",
"e. c #A09765",
"r. c #A0996F",
"t. c #A79D6C",
"y. c #AFA466",
"u. c #B7A760",
"i. c #B0A266",
"p. c #C7B04E",
"a. c #D2B543",
"s. c #D7B941",
"d. c #D6BB4F",
"f. c #C3AB53",
"g. c #C2B05C",
"h. c #CEB95D",
"j. c #D2BC57",
"k. c #D4BD58",
"l. c #CEBA61",
"z. c #D1BA61",
"x. c #D1BB61",
"c. c #D0BA62",
"v. c #D1BA62",
"b. c #D1BB64",
"n. c #D0BC65",
"m. c #DEC458",
"M. c #E7CA4F",
"N. c #E8CC50",
"B. c #E4CB5A",
"V. c #F4D75A",
"C. c #F7DB5B",
"Z. c #F8DB5E",
"A. c #FFE059",
"S. c #DFC865",
"D. c #D8C56C",
"F. c #DBC86D",
"G. c #EAD065",
"H. c #E1CE77",
"J. c #E1CF77",
"K. c #F4DC79",
"L. c #FAE176",
"P. c #FCE374",
"I. c #FFEE73",
"U. c #FFED76",
"Y. c #FFEE77",
"T. c #E7D682",
"R. c #E7D683",
"E. c #E9D889",
"W. c #EFDF93",
"Q. c #FEE881",
"!. c #FDE98F",
"~. c #FFF58F",
"^. c #FBE99D",
"/. c #FBEA9F",
"(. c #FEF89E",
"). c #FAEAA3",
"_. c #FDECA5",
"`. c #FFEFA9",
"'. c #FFEFAB",
"]. c #FBECAE",
"[. c #FFEEAE",
"{. c #FEEFAF",
"}. c #FFF7A9",
"|. c #FFF0AD",
" X c #FEF5AD",
".X c #FFF7AC",
"XX c #FBECB3",
"oX c #FFF3B2",
"OX c #FFF7B3",
"+X c #FFF7B7",
"@X c #FFFBB6",
"#X c #FFF8BC",
"$X c #FFFBBD",
"%X c #FFF9C3",
"&X c #FEF8C7",
"*X c #FFFDC7",
"=X c #FEFECA",
"-X c #FFFACE",
";X c #FFF8D0",
":X c #FFFBD3",
">X c #FFFFD1",
",X c #FFFFDB",
"<X c #FFFFDF",
"1X c #FEFEE4",
"2X c #FEFEE5",
"3X c #FFFFEC",
"4X c #FEFEF0",
"5X c ivory",
"6X c #FEFEF1",
"7X c #FDFDF3",
"8X c #FEFCF3",
"9X c #FFFFF3",
"0X c #FCFCF6",
"qX c #FFFFF6",
"wX c #FEFEF9",
"eX c #FCFCFA",
"rX c #FDFDFB",
"tX c #FCFEFB",
"yX c #FBFDFD",
"uX c #FAFEFE",
"iX c #FBFEFE",
"pX c #FDFDFD",
"aX c #FEFDFD",
"sX c #FDFEFC",
"dX c #FEFEFC",
"fX c #FFFFFC",
"gX c #FEFEFD",
"hX c #FFFFFD",
"jX c #FDFDFF",
"kX c #FCFEFE",
"lX c #FEFEFE",
"zX c #FFFEFE",
"xX c #FFFFFE",
"cX c white",
/* pixels */
"k : r.k.n.n.v.v.v.k.v.k.l.j.t.z ",
"< w ;.~.3X3XkXkXkXkXkXwXjX}.*.x ",
"< 0 =. XkXkXXX_.[.'.'.'.[.U.1.w ",
"> p p.+XuX:Xb  ./ W ( W W ^ 3.: ",
"# 2.d.-XuXOXf.f ; m F $ F F H < ",
"J 6.M.1XwXoXs.1.-._ ) c K V n k ",
"J 9.Z.wXkXkX9X<X*X.X!.S.:.d P ! ",
"F q.A.).).[.#X>X9XwXkX9X@XB.w.I ",
"V } } T T l ) @.g.K.:XuXuX=Xm.7.",
"I { m < # o $ 8 9 ..M.2XwXkXP.e.",
"V ` V ; X #   . < g a.&XkXkXQ.#.",
"4.y.+.X.L ' u t [ >.L.7XkX0XV.8.",
"8.Z.$X].W.R.R.E.^.%XkXkX9XU.&.v ",
"i.I.7XkXkXkXkXkXkXkX,X}.G.$.a l ",
"5.%.g.l.D.H.H.H.F.j.,._ s 7 Q ~ ",
"k < = * w i u u - * ' k k k F l "
};
