/* XPM */
static char *number8_16_16[] = {
/* columns rows colors chars-per-pixel */
"16 16 233 2 ",
"   c #6A6B42",
".  c #6D6E44",
"X  c #6F734E",
"o  c #7E7F47",
"O  c #7B764D",
"+  c #7A774E",
"@  c #7A7A48",
"#  c #7D7B48",
"$  c #7B7D49",
"%  c #7E7C48",
"&  c #7F7D49",
"*  c #7E7E4A",
"=  c #7A784C",
"-  c #7C784C",
";  c #7E7A4F",
":  c #797C4F",
">  c #7A7D4E",
",  c #7B7E4F",
"<  c #777751",
"1  c #737851",
"2  c #797B52",
"3  c #7D7E51",
"4  c #7F7D57",
"5  c #70765E",
"6  c #78785A",
"7  c #787A5A",
"8  c #7F7C5B",
"9  c #7B7F5C",
"0  c #6B746F",
"q  c #7E7E67",
"w  c #837C46",
"e  c #807F49",
"r  c #817F49",
"t  c #827E48",
"y  c #837E49",
"u  c #847F48",
"i  c #817F4C",
"p  c #827C4E",
"a  c #837F58",
"s  c #7F8056",
"d  c #7E8762",
"f  c #7F8064",
"g  c #CFB23F",
"h  c #EDC937",
"j  c #EBC83F",
"k  c #808049",
"l  c #828049",
"z  c #81834B",
"x  c #848349",
"c  c #84834A",
"v  c #85834A",
"b  c #86824A",
"n  c #86844B",
"m  c #84824F",
"M  c #87824F",
"N  c #84844C",
"B  c #85854D",
"V  c #8A854B",
"C  c #89864C",
"Z  c #89864E",
"A  c #93894F",
"S  c #9B914E",
"D  c #848050",
"F  c #868252",
"G  c #838456",
"H  c #80815A",
"J  c #81835A",
"K  c #888559",
"L  c #88845C",
"P  c #938B50",
"I  c #938D51",
"U  c #968D5F",
"Y  c #9F9252",
"T  c #9A9158",
"R  c #A1944F",
"E  c #A59A5B",
"W  c #A99A58",
"Q  c #B5A34F",
"!  c #BCA649",
"~  c #B0A257",
"^  c #B5A457",
"/  c #B8A754",
"(  c #BAA754",
")  c #B4A358",
"_  c #BAA758",
"`  c #B9A959",
"'  c #BDAB5A",
"]  c #818367",
"[  c #828564",
"{  c #828566",
"}  c #8C8763",
"|  c #8B8667",
" . c #8F8A61",
".. c #8E8B66",
"X. c #898668",
"o. c #898769",
"O. c #88876B",
"+. c #908B62",
"@. c #948D60",
"#. c #918B65",
"$. c #918C6C",
"%. c #9E9461",
"&. c #9C9566",
"*. c #979068",
"=. c #97926F",
"-. c #A49A61",
";. c #A49A67",
":. c #AEA161",
">. c #C1AA44",
",. c #C3AB46",
"<. c #D4B746",
"1. c #C1AB50",
"2. c #CAB354",
"3. c #C5B059",
"4. c #C3B15F",
"5. c #C8B55D",
"6. c #D5BD58",
"7. c #D5BF5C",
"8. c #C5B260",
"9. c #C6B567",
"0. c #CDB860",
"q. c #CDB864",
"w. c #D2BC61",
"e. c #D1BD69",
"r. c #D9C157",
"t. c #E6CB54",
"y. c #E9CC54",
"u. c #E1C95F",
"i. c #EACD5B",
"p. c #EED259",
"a. c #ECD05A",
"s. c #EFD35D",
"d. c #F1D254",
"f. c #F1D559",
"g. c #F0D35F",
"h. c #F4D85E",
"j. c #D6C36D",
"k. c #D4C26E",
"l. c #DAC771",
"z. c #DCCA79",
"x. c #DCCA7A",
"c. c #E5CD6A",
"v. c #E9D160",
"b. c #EED661",
"n. c #F5DA65",
"m. c #F9DD65",
"M. c #F9DF6F",
"N. c #EBD779",
"B. c #E8D47C",
"V. c #EAD67E",
"C. c #FEE66F",
"Z. c #FFE66F",
"A. c #FFE773",
"S. c #FFE974",
"D. c #FFF07D",
"F. c #FAE380",
"G. c #FFEB80",
"H. c #F3E18D",
"J. c #FBE792",
"K. c #FEED94",
"L. c #FFEE95",
"P. c #F6E69F",
"I. c #FEEF99",
"U. c #F8E89D",
"Y. c #FFEE9C",
"T. c #FFF095",
"R. c #FFF29B",
"E. c #FEF09F",
"W. c #F8E7A0",
"Q. c #FEF0A5",
"!. c #FFF3AB",
"~. c #FEF2AD",
"^. c #FFFBAC",
"/. c #FFF2B1",
"(. c #FFF6B2",
"). c #FFF7B3",
"_. c #FFF3B4",
"`. c #FEF7B5",
"'. c #FFF4B9",
"]. c #FEF5BE",
"[. c #FEF4C2",
"{. c #FCF4C4",
"}. c #FFF8C4",
"|. c #FEF8C6",
" X c #FFFBC6",
".X c #FFFCCC",
"XX c #FFFECE",
"oX c #FEF7D1",
"OX c #FEF8D2",
"+X c #FEFED1",
"@X c #FFFFD2",
"#X c #FEF9D5",
"$X c #FFFFD8",
"%X c #FFFFDD",
"&X c #FFFFDE",
"*X c #FDFDE2",
"=X c #FFFCE7",
"-X c #FFFEE6",
";X c #FEFBE9",
":X c #FEFEEA",
">X c #FFFFEB",
",X c #FFFFEC",
"<X c #FEFCF0",
"1X c ivory",
"2X c #FEFEF1",
"3X c #FFFFF1",
"4X c #FDFCF3",
"5X c #FFFFF2",
"6X c #FEFEF5",
"7X c #FFFFF5",
"8X c #FFFFF8",
"9X c #FFFFF9",
"0X c #FDFDFB",
"qX c #FCFEFB",
"wX c #FCFFFB",
"eX c #FDFFFB",
"rX c #FFFFFB",
"tX c #FAFEFE",
"yX c #FDFDFC",
"uX c #FDFDFD",
"iX c #FDFEFC",
"pX c #FEFEFC",
"aX c #FEFEFD",
"sX c #FEFFFD",
"dX c #FFFFFD",
"fX c #FCFEFE",
"gX c #FCFFFE",
"hX c #FDFFFE",
"jX c #FDFEFF",
"kX c #FDFFFF",
"lX c #FEFEFE",
"zX c #FFFFFE",
"xX c white",
/* pixels */
"r # % H I ~ 4.9.8.3./ S a z x w ",
"% : #.r.J. X3X4X3X,X.XY.u.W H x ",
": %.A.%XkX0X!.P.W./.kXkX3XD.:.a ",
"] t.*XtX;Xg.R F M Y s.=XtX3Xa.| ",
"#.n.kX0X{.g 0 $ @ 5 ,.`.qX0Xh...",
"o.y.%XkX4XC./ K 9 T f.3XkX^.2.f ",
"G &.b.oXkX0X(.V.w.F.=X,XU.5.] C ",
"x r $.h oXkXkX4X4XkXkX[.j *.d B ",
"4 -.a.[.kX{.c.e.H.`.4XkX>XD.' ] ",
"=.m.,XkX].<.q < F E i.#XkXkXA.;.",
"` Q.kXkXZ.#.  . % r U A.kX0X~.1.",
"~ Y.kX0XE.>.8 1 ; L ! L.0XkXL.^ ",
"o.a.XX0XkX_.B.j.j.B./.tX0XXXd.| ",
"M } 6.T.+XkXkX4X0XkXkX$XR.6.+.p ",
"x x 6 A ( q.l.z.z.l.q.` P 7 C C ",
"w s w z 3 1 2 3 @ O O ; r r x y "
};
