/* XPM */
static char *number7_16_16[] = {
/* columns rows colors chars-per-pixel */
"16 16 233 2 ",
"   c #737646",
".  c #767746",
"X  c #797746",
"o  c #787846",
"O  c #797846",
"+  c #787947",
"@  c #797947",
"#  c #7A7B46",
"$  c #7C7945",
"%  c #7D7A45",
"&  c #7D7B46",
"*  c #7C7C47",
"=  c #7F7C46",
"-  c #7E7D47",
";  c #7F7F47",
":  c #767748",
">  c #7B774D",
",  c #7B7948",
"<  c #787A48",
"1  c #787A49",
"2  c #7A7A48",
"3  c #79784B",
"4  c #7C7B48",
"5  c #7A7C48",
"6  c #7A7C4B",
"7  c #7D7C48",
"8  c #7C7D48",
"9  c #7D7D48",
"0  c #7D7D49",
"q  c #7E7D48",
"w  c #7E7D49",
"e  c #7D7E48",
"r  c #7D7E49",
"t  c #7F7E49",
"y  c #7D7F4B",
"u  c #7B794E",
"i  c #7C7B4D",
"p  c #7C7E4F",
"a  c #757950",
"s  c #767950",
"d  c #777953",
"f  c #777A54",
"g  c #71775E",
"h  c #787A59",
"j  c #797C5B",
"k  c #707360",
"l  c #707767",
"z  c #7A7F65",
"x  c #7C7F67",
"c  c #7C7F6A",
"v  c #837E47",
"b  c #817E48",
"n  c #807F49",
"m  c #817F49",
"M  c #827E48",
"N  c #827F48",
"B  c #847F48",
"V  c #857F48",
"C  c #847E49",
"Z  c #867F48",
"A  c #847D4A",
"S  c #817C4C",
"D  c #7F804A",
"F  c #7F814A",
"G  c #7F814D",
"H  c #7F8265",
"J  c #7F8467",
"K  c #DFBD30",
"L  c #868247",
"P  c #818048",
"I  c #808049",
"U  c #818049",
"Y  c #818149",
"T  c #838048",
"R  c #828049",
"E  c #838149",
"W  c #83814A",
"Q  c #80834B",
"!  c #81834B",
"~  c #83824A",
"^  c #82824B",
"/  c #83834B",
"(  c #848049",
")  c #848149",
"_  c #868049",
"`  c #878249",
"'  c #85814A",
"]  c #85814B",
"[  c #84834A",
"{  c #85834B",
"}  c #86824A",
"|  c #85844A",
" . c #86854A",
".. c #86844B",
"X. c #80834C",
"o. c #83834C",
"O. c #81844C",
"+. c #82844C",
"@. c #83844C",
"#. c #83844E",
"$. c #82854E",
"%. c #84844C",
"&. c #85854D",
"*. c #86854C",
"=. c #87864C",
"-. c #86864D",
";. c #86874E",
":. c #88854B",
">. c #8A854B",
",. c #89864C",
"<. c #8B864D",
"1. c #89864E",
"2. c #968B4D",
"3. c #998F4B",
"4. c #988E4D",
"5. c #988F4D",
"6. c #998F4D",
"7. c #9A904F",
"8. c #818650",
"9. c #818750",
"0. c #838A51",
"q. c #838853",
"w. c #898B50",
"e. c #998E52",
"r. c #A3985E",
"t. c #A99B5B",
"y. c #A89B5F",
"u. c #BAA653",
"i. c #B8A554",
"p. c #B4A45C",
"a. c #B9A65A",
"s. c #B9A75E",
"d. c #828165",
"f. c #8A8864",
"g. c #81836C",
"h. c #84876D",
"j. c #8D8B69",
"k. c #8B8A6C",
"l. c #938C64",
"z. c #938E65",
"x. c #979063",
"c. c #9D9564",
"v. c #A39A69",
"b. c #A59C69",
"n. c #A29A6D",
"m. c #A49A71",
"M. c #C5AF4E",
"N. c #C8B14F",
"B. c #D0B649",
"V. c #D2B749",
"C. c #C0AB53",
"Z. c #C0AA54",
"A. c #C7B253",
"S. c #C4B155",
"D. c #C6B158",
"F. c #C7B458",
"G. c #C3B15D",
"H. c #C4B15C",
"J. c #C4B25D",
"K. c #C5B25D",
"L. c #C5B15F",
"P. c #C4B25E",
"I. c #C5B25E",
"U. c #C4B25F",
"Y. c #C4B160",
"T. c #C4B362",
"R. c #DDC04A",
"E. c #D5C157",
"W. c #D5C15A",
"Q. c #DDC45A",
"!. c #E5C64A",
"~. c #EACC4F",
"^. c #F7D95B",
"/. c #F4D85E",
"(. c #FCE05D",
"). c #D2C06D",
"_. c #D2C16D",
"`. c #FEE76E",
"'. c #FCE470",
"]. c #FBE379",
"[. c #FFF17E",
"{. c #FFF27F",
"}. c #FFEC83",
"|. c #FFEE8D",
" X c #FFF28F",
".X c #FFF292",
"XX c #FFF392",
"oX c #FFF29C",
"OX c #FFF39C",
"+X c #F8EDB9",
"@X c #FEF5B1",
"#X c #FEF5B3",
"$X c #FEF6B5",
"%X c #FDF6B7",
"&X c #FFFEB4",
"*X c #FFF6BB",
"=X c #FEF5BF",
"-X c #FEF7BE",
";X c #FFFBBE",
":X c #FFFBC0",
">X c #FFFBC2",
",X c #FFFDC1",
"<X c #FDF9C9",
"1X c #FDFBDA",
"2X c #FFFFDF",
"3X c #FEFEE0",
"4X c #FFFFE2",
"5X c #FDFDE6",
"6X c #FFFFE7",
"7X c #FDF9EA",
"8X c #FFFFEA",
"9X c #FFFFED",
"0X c #FFFFEE",
"qX c #FFFFEF",
"wX c #FEFEF2",
"eX c #FDFDF5",
"rX c #FDFDF9",
"tX c #FCFCFB",
"yX c #FFFFFA",
"uX c #FFFFFB",
"iX c #FAFBFE",
"pX c #FDFDFC",
"aX c #FDFDFD",
"sX c #FCFEFD",
"dX c #FEFEFD",
"fX c #FDFDFE",
"gX c #FCFEFE",
"hX c #FDFEFE",
"jX c #FDFFFE",
"kX c #FDFEFF",
"lX c #FEFEFE",
"zX c #FFFEFE",
"xX c #FFFFFE",
/* pixels */
"n.D.Y.K.K.G.K.K.G.K.K.G.Y.Y.F.m.",
"i..XwX8X9X9X9X9X9X9X8X3X3X6X.Xi.",
"s.[.>X;X;X,X,X;X*X+X7XfXsXsX|.p.",
"f.e.2.4.4.5.7.7.c.K :XfXsXOXA.d.",
"* b % [ + # < l S.#XsXsXOXN.z q ",
":.| | } * # j a..XsXsX*XV.x * } ",
"=.w.=.E =.O.z.(.rXsX3X~.J   O.<.",
"} E G 9.G h.R.<XsXsX'.z.3 O.q.=.",
"} O.G E q b.}.sXsX#XA.k % } q [ ",
"=.0.6 q g.!.1XsXeX^.k.< X b q F ",
"o.=.o.6 r.`.sXsX#XZ.g < + q q F ",
"O.O.E J V.*XsXsX].z.q , * + + G ",
"] b v j.^.sXsX6XQ.H 5 : q % 5 } ",
"=.b b t.}.rXrX&XC.h b b * F V V ",
"o.=.u b.E._.T.W.v.S } ` q G :.1.",
"b q E > f p j f u } 1.b b b E V "
};
