/* XPM */
static char *number0_16_16[] = {
/* columns rows colors chars-per-pixel */
"16 16 212 2 ",
"   c #6D6E44",
".  c #727447",
"X  c #787A47",
"o  c #79744C",
"O  c #7A7A48",
"+  c #7D7B48",
"@  c #7B7D48",
"#  c #7B7D49",
"$  c #7C7D49",
"%  c #7E7C48",
"&  c #7F7D49",
"*  c #7D7E48",
"=  c #7C7E49",
"-  c #7C7D4A",
";  c #7E7E4A",
":  c #7F7F4A",
">  c #78794C",
",  c #7A784D",
"<  c #787B4E",
"1  c #7F794C",
"2  c #7D7F4F",
"3  c #717553",
"4  c #767951",
"5  c #787B52",
"6  c #7F7A50",
"7  c #7C7D50",
"8  c #7D7C52",
"9  c #797B54",
"0  c #797A55",
"q  c #797857",
"w  c #757758",
"e  c #7B7C5F",
"r  c #7B7D5F",
"t  c #6B7164",
"y  c #797B66",
"u  c #7A7D66",
"i  c #7B7F6C",
"p  c #807C47",
"a  c #837C46",
"s  c #837E47",
"d  c #807D48",
"f  c #807F49",
"g  c #817F49",
"h  c #827E48",
"j  c #837F48",
"k  c #847F48",
"l  c #857F48",
"z  c #847E49",
"x  c #847F54",
"c  c #7F804A",
"v  c #7C805F",
"b  c #7B8162",
"n  c #818149",
"m  c #838149",
"M  c #81814A",
"N  c #81814B",
"B  c #82804A",
"V  c #81834B",
"C  c #83824A",
"Z  c #82834A",
"A  c #878049",
"S  c #858349",
"D  c #85814A",
"F  c #84824A",
"G  c #85834A",
"H  c #83844B",
"J  c #85844A",
"K  c #86844B",
"L  c #85864B",
"P  c #83824C",
"I  c #82844C",
"U  c #85854C",
"Y  c #88854B",
"T  c #8B864B",
"R  c #89864E",
"E  c #8B8657",
"W  c #88875A",
"Q  c #908950",
"!  c #908953",
"~  c #9B9053",
"^  c #9C9154",
"/  c #9D945F",
"(  c #B29E47",
")  c #B29F4C",
"_  c #A69955",
"`  c #A0955E",
"'  c #A3995B",
"]  c #A49958",
"[  c #A49A5A",
"{  c #A49B5E",
"}  c #A79C5F",
"|  c #A89C5A",
" . c #A89D5A",
".. c #A89B5D",
"X. c #AFA159",
"o. c #ADA05C",
"O. c #ADA05D",
"+. c #B7A351",
"@. c #B5A352",
"#. c #B3A255",
"$. c #B2A056",
"%. c #B3A256",
"&. c #BAA854",
"*. c #BAA856",
"=. c #BAA857",
"-. c #B0A159",
";. c #B0A15A",
":. c #B4A458",
">. c #B0A15C",
",. c #868360",
"<. c #838064",
"1. c #828164",
"2. c #818265",
"3. c #818167",
"4. c #858164",
"5. c #848465",
"6. c #898666",
"7. c #848368",
"8. c #888868",
"9. c #9D9261",
"0. c #A09660",
"q. c #BFAF60",
"w. c #C8AF46",
"e. c #CAB14C",
"r. c #D7BB47",
"t. c #D4B94D",
"y. c #C4AF58",
"u. c #C0AE5E",
"i. c #C2B05D",
"p. c #C3B05D",
"a. c #CBB65A",
"s. c #CEB95C",
"d. c #C6B466",
"f. c #C6B668",
"g. c #E2C54F",
"h. c #E6C848",
"j. c #E7CB56",
"k. c #E3C95B",
"l. c #E3CA5E",
"z. c #EFD35C",
"x. c #EFD35D",
"c. c #D7C36C",
"v. c #DDCA76",
"b. c #DDCB76",
"n. c #EAD478",
"m. c #F1DB7B",
"M. c #FDE47B",
"N. c #FCE47C",
"B. c #EAD886",
"V. c #EBD988",
"C. c #FEE680",
"Z. c #FFE782",
"A. c #FEE982",
"S. c #FFEA85",
"D. c #FFEF8C",
"F. c #FFF186",
"G. c #FFF08D",
"H. c #FFF28E",
"J. c #FFEE97",
"K. c #FFEE99",
"L. c #FFEF9A",
"P. c #FFF091",
"I. c #FFF194",
"U. c #FFF095",
"Y. c #FFF39B",
"T. c #FFF79A",
"R. c #FFF09F",
"E. c #FFF59E",
"W. c #FFEFA6",
"Q. c #FFF4A2",
"!. c #FFF1A4",
"~. c #FFF2A6",
"^. c #FFFAA7",
"/. c #FFF5A9",
"(. c #FFF5AA",
"). c #FEF7AC",
"_. c #FFF7AE",
"`. c #FFF8AD",
"'. c #FFF2B3",
"]. c #FFF6B2",
"[. c #FFF6B3",
"{. c #FFF7B3",
"}. c #FFF7B7",
"|. c #FFFDC9",
" X c #FEFAD0",
".X c #FEFAD1",
"XX c #FFFAD4",
"oX c #FFFBD9",
"OX c #FEFCE1",
"+X c #FEFEE1",
"@X c #FFFFE6",
"#X c #FFFFE8",
"$X c #FEFEEC",
"%X c #FEFEED",
"&X c #FDFDF7",
"*X c #FEFEF7",
"=X c #FFFFF9",
"-X c #FCFCFB",
";X c #FFFEFB",
":X c #FBFEFE",
">X c #FDFDFC",
",X c #FDFDFD",
"<X c #FCFEFD",
"1X c #FCFFFD",
"2X c #FEFEFD",
"3X c #FCFEFE",
"4X c #FDFEFE",
"5X c #FEFEFE",
"6X c #FFFEFE",
"7X c #FEFFFE",
"8X c #FFFFFE",
"9X c white",
/* pixels */
"h % % P W _ q.f.d.i._ W p P G a ",
"% % u o.n.[.$X-X-X@X}.m.=.,.G G ",
"@ r y.T.-X8XoX[.].XX-X8X^.a.5.p ",
"< | F.-X:X~.e.! Q w.Q.8X8XP. .8 ",
"1.k.$X:XOXh.y # O u g.+X:X$Xj.1.",
"9.M.8X:X_.@.3 n n 0 @.(.8X8XM.9.",
"o.J.8X8XY.| . X U h [ P.8X8XU.>.",
"%.R.8X8XD.{ X @ U I { D.-X8XQ.:.",
"X.K.:X8XU.0.P G % c [ P.8X8XK. .",
"/ C.8X8X(.$.> n c c %.Q.8X:XN.` ",
"6.z.*X8XXXr.t   2 i t..X-X-Xx.8.",
"v &.`.:X8XA.) 0 x ( A.8X8X`.=.b ",
"G 1.l.|.-X8X'.V.B.W.8X-X|.l.1.G ",
"Y s 5.s.E.@X8X8X8X8X@XE.a.5.l l ",
"K U a q ~ u.c.v.v.c.u.^ w % T R ",
"h % n h G 5 4 8 < o 8 l n n P l "
};
